<svg width="35" height="35" viewBox="0 0 35 35" fill="none" xmlns="http://www.w3.org/2000/svg">
<path fill-rule="evenodd" clip-rule="evenodd" d="M0 17.5C0 7.84881 7.84883 0 17.5 0C27.1512 0 35 7.84881 35 17.5C35 27.1512 27.1512 35 17.5 35C7.84883 35 0 27.1512 0 17.5ZM32.6757 17.5C32.6757 9.10946 25.8906 2.33331 17.5 2.33331C9.10942 2.33331 2.3333 9.10946 2.3333 17.5C2.3333 25.8905 9.10942 32.6756 17.5 32.6756C25.8906 32.6756 32.6757 25.8905 32.6757 17.5ZM17.4111 7.00673C16.3163 7.02216 15.2665 7.3472 14.3737 7.91579C13.1832 8.67421 12.2572 9.86911 11.8673 11.3249C11.8407 11.4233 11.8274 11.5249 11.8274 11.6267C11.8274 12.2679 12.355 12.7954 12.9961 12.7954C13.5236 12.7954 13.9891 12.4383 14.1253 11.9286C14.3614 11.047 14.9062 10.3433 15.6224 9.88702C16.3385 9.43079 17.2143 9.22953 18.1128 9.38789C19.0117 9.54654 19.7651 10.0312 20.2822 10.705C20.7992 11.3789 21.0681 12.2339 20.9885 13.1433C20.9091 14.0523 20.4958 14.8435 19.8698 15.4173C19.5568 15.7041 19.191 15.9381 18.7919 16.0961C18.5925 16.1751 18.3872 16.2372 18.1721 16.2786C17.9573 16.3199 17.7281 16.3378 17.5001 16.3378C16.8633 16.3403 16.3403 16.8632 16.3379 17.5V22.1688C16.3376 22.1774 16.3376 22.1861 16.3376 22.1947C16.3376 22.8349 16.8645 23.3618 17.5044 23.3618C18.1446 23.3618 18.6715 22.8349 18.6715 22.1947C18.6715 22.1861 18.6715 22.1774 18.6712 22.1688V18.5504C19.0086 18.4816 19.3392 18.3831 19.6534 18.2587C20.3198 17.9945 20.9239 17.6145 21.4443 17.1376C22.4849 16.1841 23.1813 14.8518 23.3128 13.3504C23.4441 11.8493 22.9939 10.4053 22.1345 9.2854C21.2756 8.16551 20.0003 7.35955 18.5162 7.09779C18.1452 7.03235 17.776 7.00148 17.4111 7.00673ZM16.3379 26.8379C16.3379 26.1977 16.8645 25.6711 17.5044 25.6711C18.1446 25.6711 18.6712 26.1977 18.6712 26.8379C18.6712 27.4778 18.1446 28.0044 17.5044 28.0044C16.8645 28.0044 16.3379 27.4778 16.3379 26.8379Z" fill="#3B5239"/>
</svg>
