<svg width="25" height="34" viewBox="0 0 25 34" fill="none" xmlns="http://www.w3.org/2000/svg">
<path d="M23.9062 9.5625H22.3125V4.25C22.3125 1.90666 20.4058 0 18.0625 0C15.7192 0 13.8125 1.90666 13.8125 4.25V4.52519C13.1383 4.78072 12.5332 5.20519 12.0626 5.77947C11.2662 6.75112 10.9507 8.01497 11.1972 9.24694L11.2604 9.5625H9.92641L10.166 7.17081C10.2409 6.42547 9.99494 5.67906 9.49184 5.12337C9.12369 4.71644 8.63813 4.43966 8.11059 4.31959L9.26341 2.39806C9.36222 2.23391 9.36434 2.02991 9.27031 1.86256C9.17575 1.69628 8.99938 1.59375 8.80812 1.59375H7.49859L6.59388 0.236406C6.39678 -0.0595 5.90697 -0.0595 5.70987 0.236406L4.80516 1.59375H3.49563C3.30437 1.59375 3.128 1.69628 3.03344 1.86309C2.93887 2.02991 2.94153 2.23444 3.04034 2.39859L4.19316 4.32013C3.66616 4.44072 3.18059 4.71697 2.81244 5.12391C2.30987 5.67906 2.06391 6.42547 2.13828 7.17134L2.37734 9.5625H0.53125C0.237469 9.5625 0 9.79997 0 10.0938V31.3438C0 32.8084 1.19159 34 2.65625 34H21.7812C23.2459 34 24.4375 32.8084 24.4375 31.3438V10.0938C24.4375 9.79997 24.2 9.5625 23.9062 9.5625ZM14.875 4.25C14.875 2.49209 16.3046 1.0625 18.0625 1.0625C19.8204 1.0625 21.25 2.49209 21.25 4.25V9.5625H19.6302C19.6031 8.97122 19.5452 8.381 19.4294 7.803L19.3906 7.60803C19.0018 5.66206 17.2784 4.25 15.2942 4.25C15.1534 4.25 15.0137 4.25956 14.875 4.27338V4.25ZM12.2389 9.03869C12.0551 8.12016 12.2905 7.17772 12.8844 6.45309C13.4789 5.72794 14.3565 5.3125 15.2942 5.3125C16.7737 5.3125 18.0588 6.36544 18.3488 7.81575L18.3871 8.01019C18.4891 8.52072 18.5412 9.04081 18.5672 9.5625H12.3441L12.2389 9.03869ZM5.08938 2.65625C5.26681 2.65625 5.43256 2.56753 5.53138 2.41984L6.15188 1.48909L6.77237 2.41984C6.87119 2.56753 7.03694 2.65625 7.21438 2.65625H7.86941L6.91316 4.25H5.39006L4.43381 2.65625H5.08938ZM3.196 7.06509C3.15031 6.61141 3.29428 6.17472 3.60028 5.83684C3.90628 5.49897 4.32544 5.3125 4.78125 5.3125H7.5225C7.97831 5.3125 8.398 5.49897 8.70453 5.83631C9.01053 6.17472 9.1545 6.61088 9.10881 7.06456L8.85859 9.5625H3.44516L3.196 7.06509ZM23.375 10.625V13.8125H1.0625V10.625H23.375ZM21.7812 32.9375H2.65625C1.77756 32.9375 1.0625 32.2224 1.0625 31.3438V14.875H23.375V31.3438C23.375 32.2224 22.6599 32.9375 21.7812 32.9375Z" fill="white"/>
</svg>
