<svg width="36" height="34" viewBox="0 0 36 34" fill="none" xmlns="http://www.w3.org/2000/svg">
<path d="M15.9559 4.07508C16.26 4.07508 16.5574 3.98488 16.8103 3.81589C17.0632 3.64691 17.2603 3.40672 17.3767 3.1257C17.4931 2.84469 17.5236 2.53547 17.4642 2.23714C17.4049 1.93882 17.2584 1.66479 17.0433 1.44971C16.8283 1.23463 16.5542 1.08816 16.2559 1.02882C15.9576 0.969478 15.6484 0.999934 15.3673 1.11633C15.0863 1.23273 14.8461 1.42985 14.6772 1.68276C14.5082 1.93567 14.418 2.233 14.418 2.53717C14.419 2.94473 14.5814 3.33528 14.8696 3.62347C15.1578 3.91165 15.5483 4.07402 15.9559 4.07508ZM15.9559 1.80026C16.1016 1.80026 16.2441 1.84348 16.3653 1.92445C16.4865 2.00543 16.5809 2.12052 16.6367 2.25517C16.6925 2.38982 16.7071 2.53799 16.6786 2.68094C16.6502 2.82389 16.58 2.95519 16.4769 3.05825C16.3739 3.16131 16.2426 3.23149 16.0996 3.25993C15.9567 3.28836 15.8085 3.27377 15.6739 3.21799C15.5392 3.16222 15.4241 3.06776 15.3432 2.94658C15.2622 2.8254 15.219 2.68292 15.219 2.53717C15.219 2.4404 15.238 2.34458 15.2751 2.25517C15.3121 2.16576 15.3664 2.08453 15.4348 2.0161C15.5032 1.94767 15.5845 1.89339 15.6739 1.85635C15.7633 1.81932 15.8591 1.80026 15.9559 1.80026Z" fill="white"/>
<path d="M20.7615 6.87855C21.0657 6.87855 21.363 6.78835 21.616 6.61936C21.8689 6.45037 22.066 6.21019 22.1824 5.92917C22.2988 5.64816 22.3292 5.33893 22.2699 5.04061C22.2106 4.74229 22.0641 4.46826 21.849 4.25318C21.6339 4.0381 21.3599 3.89163 21.0616 3.83229C20.7632 3.77295 20.454 3.8034 20.173 3.9198C19.892 4.0362 19.6518 4.23332 19.4828 4.48623C19.3138 4.73913 19.2236 5.03647 19.2236 5.34064C19.2247 5.74819 19.3871 6.13875 19.6752 6.42694C19.9634 6.71512 20.354 6.87749 20.7615 6.87855ZM20.7615 4.60373C20.9073 4.60373 21.0498 4.64695 21.1709 4.72792C21.2921 4.80889 21.3866 4.92398 21.4424 5.05864C21.4981 5.19329 21.5127 5.34146 21.4843 5.4844C21.4559 5.62735 21.3857 5.75866 21.2826 5.86172C21.1796 5.96478 21.0482 6.03496 20.9053 6.06339C20.7624 6.09183 20.6142 6.07723 20.4795 6.02146C20.3449 5.96568 20.2298 5.87123 20.1488 5.75005C20.0678 5.62886 20.0246 5.48639 20.0246 5.34064C20.0246 5.1452 20.1023 4.95776 20.2405 4.81956C20.3787 4.68137 20.5661 4.60373 20.7615 4.60373Z" fill="white"/>
<path d="M1.53791 7.27918C1.84207 7.27918 2.13941 7.18898 2.39232 7.02C2.64523 6.85101 2.84234 6.61082 2.95874 6.32981C3.07514 6.04879 3.1056 5.73957 3.04626 5.44124C2.98692 5.14292 2.84045 4.86889 2.62537 4.65381C2.41029 4.43873 2.13626 4.29226 1.83794 4.23292C1.53961 4.17358 1.23039 4.20404 0.949374 4.32044C0.668359 4.43684 0.428171 4.63395 0.259184 4.88686C0.0901966 5.13977 0 5.43711 0 5.74128C0.00105721 6.14883 0.163426 6.53939 0.45161 6.82757C0.739794 7.11575 1.13035 7.27812 1.53791 7.27918ZM1.53791 5.00436C1.68365 5.00436 1.82613 5.04758 1.94731 5.12855C2.0685 5.20953 2.16295 5.32462 2.21872 5.45927C2.2745 5.59392 2.28909 5.74209 2.26066 5.88504C2.23222 6.02799 2.16204 6.15929 2.05898 6.26235C1.95592 6.36541 1.82462 6.43559 1.68167 6.46403C1.53872 6.49246 1.39055 6.47787 1.2559 6.42209C1.12125 6.36632 1.00616 6.27187 0.925185 6.15068C0.844212 6.0295 0.800992 5.88702 0.800992 5.74128C0.800992 5.54583 0.878631 5.3584 1.01683 5.2202C1.15503 5.082 1.34246 5.00436 1.53791 5.00436Z" fill="white"/>
<path d="M14.418 18.9573C14.418 19.2615 14.5082 19.5588 14.6772 19.8118C14.8461 20.0647 15.0863 20.2618 15.3673 20.3782C15.6484 20.4946 15.9576 20.525 16.2559 20.4657C16.5542 20.4064 16.8283 20.2599 17.0433 20.0448C17.2584 19.8297 17.4049 19.5557 17.4642 19.2574C17.5236 18.959 17.4931 18.6498 17.3767 18.3688C17.2603 18.0878 17.0632 17.8476 16.8103 17.6786C16.5574 17.5096 16.26 17.4194 15.9559 17.4194C15.5483 17.4205 15.1578 17.5829 14.8696 17.871C14.5814 18.1592 14.419 18.5498 14.418 18.9573ZM16.6928 18.9573C16.6928 19.1031 16.6496 19.2456 16.5686 19.3667C16.4876 19.4879 16.3725 19.5824 16.2379 19.6382C16.1032 19.6939 15.9551 19.7085 15.8121 19.6801C15.6692 19.6517 15.5379 19.5815 15.4348 19.4784C15.3317 19.3754 15.2616 19.2441 15.2331 19.1011C15.2047 18.9582 15.2193 18.81 15.2751 18.6753C15.3308 18.5407 15.4253 18.4256 15.5465 18.3446C15.6677 18.2636 15.8101 18.2204 15.9559 18.2204C16.053 18.2199 16.1492 18.2386 16.2391 18.2754C16.329 18.3122 16.4107 18.3664 16.4795 18.4348C16.5484 18.5033 16.603 18.5847 16.6403 18.6744C16.6776 18.7641 16.6968 18.8602 16.6968 18.9573H16.6928Z" fill="white"/>
<path d="M23.4769 10.8794C23.74 11.0742 24.0587 11.1795 24.3861 11.1797C24.4647 11.1857 24.5437 11.1857 24.6224 11.1797C24.8228 11.1496 25.0152 11.0798 25.1885 10.9746C25.3617 10.8695 25.5124 10.7309 25.6316 10.567C25.6747 10.5071 25.7136 10.4442 25.7478 10.3787C25.9004 10.3993 26.0543 10.41 26.2083 10.4108C27.7022 10.4108 29.3042 9.52569 30.3935 8.03985C30.8871 7.39171 31.2352 6.64484 31.4142 5.85007C31.5932 5.0553 31.5989 4.23129 31.4308 3.43414C31.5047 3.37047 31.5718 3.29933 31.631 3.22188C31.9395 2.79106 32.0674 2.25672 31.9873 1.73293C31.9073 1.20914 31.6256 0.737398 31.2025 0.418408C30.9987 0.257816 30.7649 0.139509 30.5148 0.0704152C30.2646 0.00132158 30.0033 -0.0171693 29.7459 0.0160252C29.4886 0.0492198 29.2404 0.133432 29.016 0.263731C28.7916 0.39403 28.5955 0.567795 28.4391 0.774849C26.8731 0.842933 25.1991 1.80813 24.1257 3.26994C22.9243 4.92799 22.5838 7.10669 23.2927 8.59654C23.1367 8.75154 23.0168 8.93899 22.9414 9.14558C22.866 9.35217 22.837 9.57283 22.8565 9.79188C22.876 10.0109 22.9435 10.223 23.0542 10.413C23.1649 10.603 23.316 10.7664 23.497 10.8914L23.4769 10.8794ZM24.7385 3.73051C25.7077 2.41288 27.2176 1.55982 28.5833 1.55982C28.7074 1.55982 28.8356 1.53179 29.0679 1.2194C29.163 1.09871 29.2812 0.998108 29.4155 0.923424C29.5499 0.84874 29.6977 0.80146 29.8504 0.784324C30.0031 0.767187 30.1578 0.780536 30.3053 0.823596C30.4528 0.866656 30.5904 0.93857 30.7099 1.03517C30.9644 1.22875 31.1338 1.51358 31.1824 1.82962C31.2309 2.14566 31.1549 2.46822 30.9702 2.72927C30.9404 2.76221 30.9083 2.793 30.8741 2.82138C30.7545 2.91446 30.6596 3.03548 30.5978 3.17382C30.5871 3.2024 30.579 3.23189 30.5737 3.26193C30.5606 3.31994 30.5606 3.38014 30.5737 3.43815C30.7505 4.14156 30.7678 4.87559 30.6244 5.58654C30.4809 6.2975 30.1804 6.9674 29.7447 7.54724C28.6594 9.02507 26.9412 9.83407 25.5876 9.52168C25.4906 9.50101 25.3895 9.517 25.3037 9.56657C25.2179 9.61613 25.1535 9.69574 25.123 9.79002C25.1136 9.80807 25.1055 9.82681 25.0989 9.84609C25.0596 9.98118 24.9825 10.1023 24.8769 10.1952C24.7712 10.2881 24.6412 10.349 24.5022 10.3707C24.3576 10.3925 24.2099 10.3711 24.0775 10.309C23.9451 10.247 23.834 10.1472 23.7582 10.0222C23.6824 9.89713 23.6453 9.75248 23.6516 9.60641C23.6578 9.46034 23.7071 9.31938 23.7933 9.20129C23.8469 9.12835 23.9134 9.0659 23.9896 9.01706C24.0039 9.00473 24.0173 8.99135 24.0296 8.97701C24.0566 8.95615 24.0809 8.93192 24.1017 8.90492C24.111 8.88816 24.119 8.87076 24.1257 8.85286C24.1574 8.80879 24.1716 8.7546 24.1658 8.70067C24.169 8.67139 24.169 8.64184 24.1658 8.61256C24.159 8.58631 24.1497 8.56081 24.1378 8.53646C24.1318 8.51309 24.1238 8.4903 24.1137 8.46838C23.3768 7.26689 23.6532 5.23237 24.7385 3.73051Z" fill="white"/>
<path d="M24.5826 7.42289H24.6466C24.7426 7.42413 24.8359 7.39084 24.9094 7.32909C24.9829 7.26734 25.0318 7.18124 25.0471 7.08648C25.1966 6.2745 25.526 5.5063 26.0111 4.83823C26.4962 4.17017 27.1248 3.61918 27.8506 3.2257C27.8974 3.2015 27.939 3.16833 27.973 3.12806C28.007 3.0878 28.0327 3.04123 28.0487 2.99103C28.0647 2.94082 28.0706 2.88796 28.0662 2.83545C28.0617 2.78295 28.047 2.73183 28.0228 2.68503C27.9986 2.63822 27.9654 2.59663 27.9252 2.56264C27.8849 2.52866 27.8384 2.50293 27.7881 2.48694C27.7379 2.47095 27.6851 2.46501 27.6326 2.46944C27.5801 2.47388 27.529 2.48862 27.4821 2.51281C26.6497 2.96612 25.9297 3.60053 25.3751 4.36925C24.8206 5.13797 24.4457 6.02138 24.2782 6.95431C24.2579 7.05668 24.2783 7.16293 24.3351 7.25045C24.392 7.33797 24.4808 7.39984 24.5826 7.42289Z" fill="white"/>
<path d="M6.93683 25.2531C6.91053 25.2074 6.87548 25.1673 6.83368 25.135C6.79187 25.1028 6.74413 25.0792 6.69318 25.0654C6.59028 25.0376 6.48056 25.0519 6.38815 25.105C6.29574 25.1581 6.22821 25.2457 6.20042 25.3486C6.17264 25.4515 6.18686 25.5612 6.23997 25.6536C6.36546 25.8752 6.49896 26.0915 6.64046 26.3024C6.69942 26.3911 6.79118 26.4528 6.89558 26.4738C6.99998 26.4948 7.10846 26.4735 7.19715 26.4146C7.28585 26.3556 7.34749 26.2639 7.36852 26.1595C7.38955 26.0551 7.36824 25.9466 7.30929 25.8579C7.18113 25.6603 7.05698 25.4587 6.93683 25.2531Z" fill="white"/>
<path d="M11.6183 29.5946C11.358 29.4624 11.0976 29.3182 10.8453 29.17C10.593 29.0219 10.2486 28.7936 9.96823 28.5933C9.48558 28.2443 9.03157 27.8572 8.61055 27.4359L8.45836 27.2877C8.36989 27.2037 8.28695 27.1141 8.21006 27.0194C8.14155 26.9381 8.04356 26.8874 7.93766 26.8784C7.83176 26.8694 7.72661 26.9028 7.64536 26.9713C7.5641 27.0398 7.51339 27.1378 7.50437 27.2437C7.49536 27.3496 7.52879 27.4548 7.5973 27.536C7.69159 27.6519 7.79326 27.7616 7.90167 27.8644L8.04185 28.0046C8.4939 28.4567 8.98139 28.8718 9.49965 29.2461C9.80003 29.4624 10.1124 29.6707 10.4368 29.8629C10.7612 30.0551 10.9775 30.1753 11.2378 30.3155C11.285 30.3439 11.3375 30.3622 11.3921 30.3694C11.4467 30.3766 11.5022 30.3724 11.5552 30.3571C11.6081 30.3419 11.6573 30.3159 11.6997 30.2808C11.7421 30.2457 11.7769 30.2022 11.8017 30.153C11.8266 30.1039 11.841 30.0501 11.8441 29.9951C11.8473 29.9402 11.839 29.8851 11.82 29.8335C11.8009 29.7818 11.7713 29.7346 11.7332 29.6949C11.695 29.6552 11.6491 29.6238 11.5983 29.6026L11.6183 29.5946Z" fill="white"/>
<path d="M26.9896 14.5878C26.3148 15.3318 25.5414 15.9799 24.6908 16.5142C24.6198 16.5778 24.5739 16.6646 24.5612 16.759C24.5485 16.8534 24.5699 16.9492 24.6215 17.0293C24.6731 17.1094 24.7516 17.1685 24.8428 17.1959C24.934 17.2233 25.0321 17.2173 25.1193 17.179C26.0321 16.606 26.8622 15.9106 27.5863 15.1124C27.6253 15.0742 27.6561 15.0284 27.6767 14.9779C27.6973 14.9273 27.7074 14.8731 27.7063 14.8185C27.7052 14.7639 27.693 14.7102 27.6703 14.6605C27.6477 14.6108 27.6151 14.5663 27.5747 14.5296C27.5342 14.493 27.4867 14.465 27.435 14.4474C27.3833 14.4298 27.3286 14.423 27.2742 14.4273C27.2198 14.4316 27.1668 14.447 27.1186 14.4725C27.0703 14.4981 27.0278 14.5332 26.9936 14.5758L26.9896 14.5878Z" fill="white"/>
<path d="M23.3323 17.2874C22.0283 17.9833 21.0428 19.1553 20.5809 20.5594C20.5651 20.6096 20.5594 20.6625 20.5641 20.7149C20.5687 20.7674 20.5836 20.8184 20.608 20.8651C20.6324 20.9117 20.6657 20.9531 20.706 20.9869C20.7464 21.0207 20.793 21.0463 20.8433 21.062C20.8935 21.0778 20.9463 21.0835 20.9988 21.0789C21.0512 21.0743 21.1022 21.0593 21.1489 21.035C21.1956 21.0106 21.237 20.9773 21.2708 20.9369C21.3046 20.8966 21.3301 20.8499 21.3459 20.7997C21.7482 19.5949 22.5986 18.5911 23.7208 17.9962C23.8138 17.9431 23.8818 17.8553 23.91 17.752C23.9381 17.6487 23.9241 17.5385 23.871 17.4456C23.8179 17.3526 23.73 17.2846 23.6268 17.2564C23.5235 17.2282 23.4133 17.2423 23.3203 17.2954L23.3323 17.2874Z" fill="white"/>
<path d="M35.496 10.6952C35.4319 10.6631 33.894 9.9142 32.4923 10.4308C32.34 10.4864 32.1926 10.5548 32.0518 10.6351C32.1999 10.2907 32.3401 9.94223 32.4522 9.58579C32.4862 9.48488 32.4787 9.3746 32.4314 9.27922C32.3841 9.18383 32.3008 9.11115 32.1999 9.07716C32.099 9.04317 31.9888 9.05065 31.8934 9.09797C31.798 9.14529 31.7253 9.22856 31.6913 9.32947C31.3544 10.3164 30.8971 11.258 30.3296 12.1329C29.6724 11.7482 28.9013 11.6056 28.15 11.7299C27.3987 11.8543 26.7146 12.2378 26.2165 12.8138L25.3915 13.7269C24.566 14.6381 23.5958 15.4067 22.5199 16.0017L21.6749 16.4703C20.3473 17.1742 19.3429 18.3637 18.8714 19.7904C18.7358 20.2435 18.6564 20.7116 18.6351 21.1842H11.9228C12.5717 20.3456 12.9783 19.3451 13.0984 18.2916C13.2184 17.2381 13.0473 16.1718 12.6037 15.2088C11.4342 12.6536 9.58392 11.3279 7.65353 11.6564C7.0373 11.8057 6.47022 12.112 6.00749 12.5455L5.71913 12.7697C5.23844 11.7495 4.88728 10.6732 4.67384 9.56576C4.66411 9.51317 4.64411 9.46301 4.615 9.41814C4.58588 9.37327 4.54821 9.33458 4.50414 9.30427C4.41514 9.24306 4.30547 9.21971 4.19925 9.23936C4.09303 9.25901 3.99897 9.32005 3.93776 9.40905C3.87654 9.49805 3.85319 9.60773 3.87284 9.71395C3.95294 10.1144 4.05707 10.547 4.17322 10.9555C4.01973 10.8319 3.85477 10.7233 3.68061 10.6311C2.27486 9.89017 0.564746 10.4509 0.476637 10.4749C0.379422 10.5079 0.298618 10.5771 0.250917 10.668C0.203216 10.7589 0.192262 10.8647 0.220319 10.9635C0.240344 11.0356 0.740964 12.7657 2.14671 13.5066C2.35685 13.6142 2.57855 13.6975 2.80752 13.755L2.71141 13.819C0.777009 15.2408 1.10942 17.9802 2.04258 20.0387C2.25421 20.492 2.52343 20.916 2.84357 21.3003C2.80354 21.3364 2.77121 21.3801 2.7485 21.429C2.72579 21.4779 2.71318 21.5308 2.71141 21.5847C2.71141 28.8937 8.47454 34 16.7288 34C24.983 34 30.7461 28.8937 30.7461 21.5847C30.7461 21.4784 30.7039 21.3766 30.6288 21.3015C30.5537 21.2264 30.4519 21.1842 30.3456 21.1842H30.0613V21.1321C30.2167 19.9126 30.5726 18.7272 31.1146 17.6237L31.6513 16.5304C31.9068 16.0522 32.0368 15.5169 32.0291 14.9748C32.0214 14.4326 31.8762 13.9013 31.6072 13.4306C31.8915 13.4923 32.1814 13.5245 32.4723 13.5267C32.8392 13.53 33.2038 13.469 33.5496 13.3464C34.9634 12.8338 35.6562 11.2799 35.6842 11.2118C35.7247 11.1179 35.7278 11.0121 35.6928 10.9161C35.6578 10.82 35.5874 10.741 35.496 10.6952ZM29.9451 21.9851C29.9288 22.5219 29.8779 23.0569 29.793 23.5871H3.6726C3.58494 23.0571 3.53143 22.522 3.5124 21.9851H29.9451ZM1.16149 11.1277C1.88405 10.9584 2.64217 11.0301 3.32016 11.332C3.9544 11.72 4.44397 12.3052 4.71389 12.998C3.98668 13.1641 3.22498 13.0852 2.5472 12.7737C1.91929 12.3895 1.43303 11.8119 1.16149 11.1277ZM3.20802 14.4598C3.59239 14.2349 4.02191 14.0981 4.46558 14.0593C4.84459 14.0163 5.21626 13.9234 5.57095 13.783C5.90654 13.6182 6.22117 13.4139 6.50811 13.1742C6.86794 12.8292 7.30859 12.58 7.7897 12.4493C10.0885 12.0488 11.4983 14.7201 11.8748 15.5452C12.3019 16.4778 12.4315 17.5194 12.2459 18.5283C12.0604 19.5373 11.5686 20.4646 10.8375 21.1842H3.7567C3.73914 21.1385 3.71334 21.0964 3.68061 21.06C3.30562 20.6615 2.9985 20.2042 2.77148 19.7063C1.95447 17.9201 1.63808 15.6052 3.20802 14.4598ZM16.7288 33.199C9.94036 33.199 5.06632 29.7588 3.82478 24.3881H29.6328C28.3912 29.7588 23.5172 33.199 16.7288 33.199ZM30.9384 16.178L30.4017 17.2673C29.8208 18.4501 29.4392 19.7208 29.2723 21.028V21.1802H19.4401C19.469 20.7937 19.5429 20.412 19.6604 20.0427C20.0647 18.8165 20.9251 17.7926 22.0634 17.1832L22.9084 16.7146C24.061 16.0765 25.1002 15.2524 25.9842 14.2756L26.8093 13.3625C27.1672 12.9544 27.6478 12.6734 28.179 12.5615C28.6428 12.4655 29.1243 12.5027 29.5678 12.6687C30.0114 12.8347 30.399 13.1228 30.6859 13.4997C30.9727 13.8766 31.1471 14.3269 31.189 14.7987C31.2308 15.2705 31.1384 15.7445 30.9224 16.1659L30.9384 16.178ZM33.2773 12.5735C32.6193 12.7669 31.9162 12.7402 31.2748 12.4974C31.6093 11.9074 32.1266 11.4422 32.7486 11.1718C33.4065 10.9777 34.1098 11.0044 34.7511 11.2478C34.419 11.8446 33.9017 12.3169 33.2773 12.5935V12.5735Z" fill="white"/>
<path d="M3.70034 17.1793C3.81534 17.1643 3.92047 17.1065 3.99471 17.0174C4.06895 16.9283 4.10685 16.8145 4.10084 16.6987C4.08901 16.3826 4.10779 16.066 4.15691 15.7535C4.17323 15.6501 4.14842 15.5444 4.08779 15.4591C4.02716 15.3738 3.93552 15.3156 3.83251 15.2969C3.77924 15.2879 3.7247 15.2897 3.67215 15.3022C3.6196 15.3148 3.57013 15.3379 3.52673 15.37C3.48332 15.4022 3.44688 15.4428 3.41959 15.4895C3.3923 15.5361 3.37473 15.5878 3.36793 15.6414C3.30876 15.9986 3.28595 16.3609 3.29985 16.7227C3.30057 16.8347 3.34136 16.9427 3.41482 17.0271C3.48829 17.1116 3.58957 17.167 3.70034 17.1833V17.1793Z" fill="white"/>
<path d="M4.90232 20.94C4.9365 20.9802 4.97828 21.0133 5.02526 21.0374C5.07224 21.0615 5.12351 21.0761 5.17613 21.0804C5.22875 21.0846 5.2817 21.0785 5.33196 21.0623C5.38221 21.0461 5.42879 21.0202 5.46902 20.986C5.50926 20.9518 5.54236 20.9101 5.56645 20.8631C5.59054 20.8161 5.60514 20.7648 5.60942 20.7122C5.61369 20.6596 5.60756 20.6066 5.59138 20.5564C5.57519 20.5061 5.54926 20.4595 5.51508 20.4193C5.21001 20.0627 4.95655 19.665 4.76215 19.2378C4.55192 18.7807 4.38564 18.3047 4.26553 17.8161C4.23542 17.7187 4.16933 17.6365 4.08072 17.5862C3.99212 17.5359 3.88766 17.5212 3.78862 17.5452C3.68958 17.5692 3.60341 17.63 3.54767 17.7153C3.49192 17.8006 3.47079 17.904 3.48857 18.0043C3.61807 18.5463 3.79911 19.0747 4.02924 19.5823C4.25573 20.0732 4.54959 20.5302 4.90232 20.94Z" fill="white"/>
<path d="M16.496 16.1859C16.8655 16.2861 17.2466 16.3372 17.6294 16.3381C18.3977 16.3414 19.1504 16.1215 19.7961 15.7054C20.2729 15.3893 20.6777 14.9763 20.9841 14.4932C21.2905 14.0102 21.4916 13.4679 21.5743 12.9019C21.7614 11.7037 21.4959 10.4788 20.8294 9.46562C20.1817 8.43951 19.1752 7.69136 18.0059 7.36702C17.4551 7.20767 16.8766 7.16843 16.3093 7.25195C15.7421 7.33548 15.1994 7.53983 14.718 7.85117C14.2365 8.16252 13.8275 8.57362 13.5187 9.05666C13.2098 9.5397 13.0082 10.0834 12.9276 10.6511C12.7507 11.8494 13.015 13.0712 13.6714 14.0893C14.3278 15.1074 15.3315 15.8524 16.496 16.1859ZM16.8965 8.01182C17.209 8.01247 17.5201 8.05422 17.8217 8.13598C18.7992 8.40837 19.6402 9.03519 20.1806 9.89415C20.7402 10.7427 20.963 11.7696 20.8054 12.7737C20.7198 13.3145 20.5056 13.8269 20.1806 14.2676C20.3195 12.9796 20.049 11.6805 19.4076 10.555C19.0238 9.94493 18.5216 9.41799 17.9307 9.00526C17.3399 8.59254 16.6723 8.30241 15.9674 8.15199C16.2688 8.06167 16.5818 8.0158 16.8965 8.01583V8.01182ZM13.7166 10.7712C13.8306 10.0386 14.1858 9.36493 14.7258 8.85687H14.7699C15.5595 8.82732 16.3428 9.00879 17.039 9.38259C17.7352 9.75638 18.3192 10.309 18.7308 10.9835C19.4677 12.1289 19.5318 13.9191 19.2234 15.1086C18.8435 15.3248 18.4244 15.463 17.9905 15.5153C17.5566 15.5675 17.1166 15.5328 16.6963 15.413C15.7227 15.1297 14.8846 14.5036 14.3369 13.6503C13.7892 12.797 13.5688 11.7743 13.7166 10.7712Z" fill="white"/>
<path d="M8.04738 7.32383C8.21482 7.22457 8.27008 7.00838 8.17083 6.84094C8.07157 6.67351 7.85537 6.61824 7.68793 6.71749C7.5205 6.81675 7.46523 7.03295 7.56449 7.20039C7.66375 7.36782 7.87994 7.42309 8.04738 7.32383Z" fill="white"/>
<path d="M9.89699 8.08726C10.0644 7.988 10.1197 7.7718 10.0204 7.60437C9.92118 7.43693 9.70498 7.38166 9.53754 7.48092C9.37011 7.58018 9.31484 7.79638 9.4141 7.96381C9.51336 8.13125 9.72955 8.18652 9.89699 8.08726Z" fill="white"/>
<path d="M10.3296 4.10606C10.497 4.0068 10.5523 3.7906 10.4531 3.62317C10.3538 3.45573 10.1376 3.40046 9.97016 3.49972C9.80273 3.59898 9.74746 3.81518 9.84671 3.98261C9.94597 4.15005 10.1622 4.20532 10.3296 4.10606Z" fill="white"/>
<path d="M10.8638 6.58189C11.0312 6.48263 11.0865 6.26643 10.9872 6.099C10.888 5.93156 10.6718 5.87629 10.5043 5.97555C10.3369 6.07481 10.2816 6.29101 10.3809 6.45844C10.4802 6.62588 10.6964 6.68115 10.8638 6.58189Z" fill="white"/>
<path d="M9.01418 5.81822C9.18161 5.71896 9.23688 5.50276 9.13762 5.33533C9.03837 5.16789 8.82217 5.11262 8.65473 5.21188C8.4873 5.31114 8.43203 5.52734 8.53129 5.69477C8.63054 5.86221 8.84674 5.91747 9.01418 5.81822Z" fill="white"/>
<path d="M8.54152 4.23399C8.70896 4.13473 8.76422 3.91853 8.66497 3.7511C8.56571 3.58366 8.34951 3.52839 8.18208 3.62765C8.01464 3.72691 7.95937 3.94311 8.05863 4.11054C8.15789 4.27798 8.37408 4.33325 8.54152 4.23399Z" fill="white"/>
<path d="M6.67922 5.80528C6.84665 5.70602 6.90192 5.48982 6.80266 5.32239C6.7034 5.15495 6.48721 5.09968 6.31977 5.19894C6.15233 5.2982 6.09707 5.5144 6.19632 5.68183C6.29558 5.84927 6.51178 5.90454 6.67922 5.80528Z" fill="white"/>
<path d="M4.86638 2.83744L6.09591 3.14983C4.67415 4.35132 4.3177 5.82114 5.16675 7.25492C5.89165 8.47643 8.41077 9.68593 9.75244 9.9022C10.2381 9.9809 10.736 9.88646 11.1591 9.63537C11.5822 9.38428 11.9037 8.99251 12.0673 8.52849C12.5199 7.2429 12.668 4.45545 11.9431 3.23394C11.1221 1.84822 9.71639 1.4277 8.07035 2.03245L8.39475 0.758869C8.4079 0.707853 8.41087 0.654746 8.4035 0.602582C8.39612 0.550418 8.37855 0.500217 8.35177 0.454845C8.32499 0.409474 8.28954 0.369821 8.24744 0.338151C8.20534 0.30648 8.15741 0.283412 8.1064 0.270263C8.05538 0.257115 8.00227 0.254144 7.95011 0.261519C7.89795 0.268895 7.84774 0.286472 7.80237 0.313249C7.757 0.340025 7.71735 0.375476 7.68568 0.417577C7.65401 0.459678 7.63094 0.507605 7.61779 0.558621L7.23732 2.04446L6.71668 1.15936C6.6936 1.1083 6.66006 1.06265 6.61823 1.02535C6.5764 0.988064 6.52721 0.959967 6.47384 0.94288C6.42047 0.925793 6.36411 0.920096 6.3084 0.926158C6.25269 0.93222 6.19887 0.949906 6.15042 0.978072C6.10198 1.00624 6.05998 1.04426 6.02715 1.08967C5.99432 1.13509 5.97139 1.18689 5.95983 1.24172C5.94828 1.29656 5.94836 1.3532 5.96007 1.40801C5.97178 1.46281 5.99486 1.51454 6.02782 1.55986L6.55648 2.44896L5.07064 2.06849C5.01962 2.05534 4.96651 2.05237 4.91435 2.05975C4.86219 2.06712 4.81198 2.0847 4.76661 2.11148C4.72124 2.13825 4.68159 2.1737 4.64992 2.2158C4.61825 2.25791 4.59518 2.30583 4.58203 2.35685C4.56888 2.40786 4.56591 2.46097 4.57329 2.51314C4.58066 2.5653 4.59824 2.6155 4.62502 2.66087C4.65179 2.70624 4.68724 2.7459 4.72934 2.77757C4.77145 2.80924 4.81937 2.83231 4.87039 2.84545L4.86638 2.83744ZM11.2743 3.63844C11.819 4.55958 11.7669 7.01862 11.3304 8.25616C11.2291 8.54348 11.0299 8.786 10.7678 8.94123C10.5057 9.09646 10.1973 9.15451 9.89661 9.10521C8.60301 8.89695 6.4163 7.75954 5.87163 6.8384C5.67744 6.55234 5.56062 6.22088 5.53255 5.87628C5.50447 5.53168 5.5661 5.18568 5.71143 4.87196C6.09358 4.17057 6.67464 3.59787 7.3815 3.22592C8.00599 2.82449 8.72306 2.59006 9.46408 2.54508C9.83523 2.54472 10.1992 2.64752 10.5153 2.842C10.8314 3.03648 11.0873 3.31499 11.2543 3.64645L11.2743 3.63844Z" fill="white"/>
</svg>
