<svg width="33" height="34" viewBox="0 0 33 34" fill="none" xmlns="http://www.w3.org/2000/svg">
<path d="M30.9253 6.64984H23.8107V2.35962C23.8107 2.03786 23.5605 1.78759 23.2387 1.78759H21.2366V0.572029C21.2366 0.250263 20.9863 0 20.6646 0C17.6257 0 14.694 0.607781 11.9054 1.75184C9.11672 0.607781 6.18507 0 3.14616 0C2.8244 0 2.57413 0.250263 2.57413 0.572029V1.78759H0.57203C0.250263 1.78759 0 2.03786 0 2.35962V15.4448C0 15.7666 0.250263 16.0168 0.57203 16.0168H7.04311V25.5268C7.04311 26.3491 7.68665 26.9926 8.50894 26.9926H15.9453V28.6372C15.9453 29.4238 15.3018 30.0673 14.5152 30.0673H13.3712C13.0494 30.0673 12.7992 30.3176 12.7992 30.6393V33.428C12.7992 33.7497 13.0494 34 13.3712 34H26.0631C26.3849 34 26.6351 33.7497 26.6351 33.428V30.6393C26.6351 30.3176 26.3849 30.0673 26.0631 30.0673H24.919C24.1325 30.0673 23.489 29.4238 23.489 28.6372V26.9926H30.9253C31.7476 26.9926 32.3912 26.3491 32.3912 25.5268V8.15142C32.3912 7.32913 31.7119 6.64984 30.9253 6.64984ZM21.2366 13.6215V2.93165H22.6667V14.8728H15.3733C17.0894 14.4437 18.877 14.2292 20.6646 14.2292C20.9863 14.1935 21.2366 13.9432 21.2366 13.6215ZM20.1283 13.0852C17.5184 13.1567 14.9443 13.6572 12.5131 14.6225V2.75289C14.9443 1.75184 17.5184 1.21556 20.1283 1.14406V13.0852ZM3.71819 1.14406C6.36383 1.21556 8.90221 1.75184 11.3333 2.75289V14.6225C8.90221 13.693 6.32808 13.1567 3.71819 13.0852V1.14406ZM1.14406 2.93165H2.57413V13.6215C2.57413 13.9432 2.8244 14.1935 3.14616 14.1935C4.93375 14.1935 6.72135 14.408 8.43743 14.837H1.14406V2.93165ZM23.2745 16.0168C23.5962 16.0168 23.8465 15.7666 23.8465 15.4448V7.7939H30.9253C31.1041 7.7939 31.2471 7.93691 31.2471 8.15142V20.9506H8.15142V16.0168H23.2745ZM25.4911 31.1756V32.8202H13.9432V31.1756H25.4911ZM22.7739 30.0673H16.6246C16.9106 29.674 17.0536 29.1735 17.0536 28.6372V26.9926H22.3449V28.6372C22.3449 29.1735 22.5237 29.6383 22.7739 30.0673ZM30.9253 25.8486H8.50894C8.33018 25.8486 8.18717 25.7056 8.18717 25.5268V22.0946H31.2829V25.5268C31.2471 25.7056 31.1041 25.8486 30.9253 25.8486Z" fill="white"/>
<path d="M19.6992 24.7759C20.1534 24.7759 20.5215 24.4078 20.5215 23.9536C20.5215 23.4995 20.1534 23.1313 19.6992 23.1313C19.2451 23.1313 18.877 23.4995 18.877 23.9536C18.877 24.4078 19.2451 24.7759 19.6992 24.7759Z" fill="white"/>
<path d="M5.46987 4.25453C6.79269 4.39753 8.07976 4.6478 9.36682 5.04107C9.43833 5.04107 9.47408 5.07682 9.54558 5.07682C9.79584 5.07682 10.0104 4.93381 10.0819 4.68355C10.1891 4.39753 10.0104 4.07577 9.68859 3.96851C8.33002 3.57524 6.97145 3.28923 5.57713 3.14622C5.25536 3.11047 4.96935 3.32498 4.93359 3.64674C4.93359 3.93276 5.1481 4.21877 5.46987 4.25453Z" fill="white"/>
<path d="M9.68857 6.29224C8.33 5.89897 6.97143 5.61296 5.5771 5.46995C5.25534 5.4342 4.96932 5.64871 4.93357 5.97048C4.89782 6.29224 5.11233 6.57826 5.4341 6.61401C6.75692 6.75702 8.07973 7.00728 9.33105 7.40055C9.40255 7.40055 9.4383 7.4363 9.50981 7.4363C9.76007 7.4363 9.97458 7.29329 10.0461 7.04303C10.1891 6.72126 10.0103 6.3995 9.68857 6.29224Z" fill="white"/>
<path d="M9.68857 8.65186C8.33 8.25859 6.97143 7.97258 5.5771 7.82957C5.25534 7.79382 4.96932 8.00833 4.93357 8.33009C4.89782 8.65186 5.11233 8.93788 5.4341 8.97363C6.75692 9.11663 8.04398 9.3669 9.33105 9.76017C9.40255 9.76017 9.4383 9.79592 9.50981 9.79592C9.76007 9.79592 9.97458 9.65291 10.0461 9.40265C10.1891 9.08088 10.0103 8.75912 9.68857 8.65186Z" fill="white"/>
<path d="M9.68857 11.0117C8.33 10.6185 6.97143 10.3324 5.5771 10.1894C5.25534 10.1537 4.96932 10.3682 4.93357 10.69C4.89782 11.0117 5.11233 11.2977 5.4341 11.3335C6.75692 11.4765 8.04398 11.7268 9.33105 12.12C9.40255 12.12 9.4383 12.1558 9.50981 12.1558C9.76007 12.1558 9.97458 12.0128 10.0461 11.7625C10.1891 11.4407 10.0103 11.119 9.68857 11.0117Z" fill="white"/>
<path d="M14.3007 5.04104C14.3722 5.04104 14.4079 5.04104 14.4794 5.00528C15.7665 4.61201 17.0893 4.36175 18.3764 4.21874C18.6982 4.18299 18.9127 3.89698 18.8769 3.57521C18.8412 3.25344 18.5552 3.03893 18.2334 3.07469C16.8391 3.21769 15.4805 3.50371 14.1219 3.89698C13.8359 4.00423 13.6572 4.29025 13.7287 4.61201C13.8359 4.89803 14.0504 5.04104 14.3007 5.04104Z" fill="white"/>
<path d="M14.3007 7.40066C14.3722 7.40066 14.4079 7.40066 14.4794 7.3649C15.7665 6.97163 17.0893 6.72137 18.3764 6.57836C18.6982 6.54261 18.9127 6.2566 18.8769 5.93483C18.8412 5.61306 18.5552 5.39855 18.2334 5.4343C16.8391 5.57731 15.4805 5.86333 14.1219 6.2566C13.8359 6.36385 13.6572 6.64987 13.7287 6.97163C13.8359 7.25765 14.0504 7.40066 14.3007 7.40066Z" fill="white"/>
<path d="M14.3007 9.76027C14.3722 9.76027 14.4079 9.76028 14.4794 9.72452C15.7665 9.33125 17.0893 9.08099 18.3764 8.93798C18.6982 8.90223 18.9127 8.61622 18.8769 8.29445C18.8412 7.97268 18.5552 7.75817 18.2334 7.79392C16.8391 7.93693 15.4805 8.22295 14.1219 8.61622C13.8359 8.72347 13.6572 9.00949 13.7287 9.33125C13.8359 9.61727 14.0504 9.76027 14.3007 9.76027Z" fill="white"/>
<path d="M18.2334 10.1892C16.8391 10.3322 15.4805 10.6182 14.1219 11.0115C13.8359 11.1187 13.6572 11.4048 13.7287 11.7265C13.8002 11.9768 14.0147 12.1198 14.2649 12.1198C14.3364 12.1198 14.3722 12.1198 14.4437 12.084C15.7308 11.6908 17.0536 11.4405 18.3406 11.2975C18.6624 11.2618 18.8769 10.9757 18.8412 10.654C18.8412 10.368 18.5552 10.1534 18.2334 10.1892Z" fill="white"/>
</svg>
