<svg width="29" height="27" viewBox="0 0 29 27" fill="none" xmlns="http://www.w3.org/2000/svg">
<path fill-rule="evenodd" clip-rule="evenodd" d="M10.7798 0C16.7328 0 21.5593 4.44968 21.5593 9.93753C21.5593 15.4254 16.7328 19.8748 10.7798 19.8748C4.82678 19.8748 0 15.4254 0 9.93753C0 4.44968 4.82678 0 10.7798 0ZM2.69495 9.93758C2.69495 14.0475 6.32141 17.3904 10.7797 17.3904C15.2378 17.3904 18.8646 14.0475 18.8646 9.93758C18.8646 5.82767 15.2378 2.4845 10.7797 2.4845C6.32141 2.4845 2.69495 5.82767 2.69495 9.93758Z" fill="#515151"/>
<path fill-rule="evenodd" clip-rule="evenodd" d="M27.9558 22.2594L23.1288 17.8091C22.1938 16.9472 20.7312 17.1057 19.8108 17.9832C18.7938 18.9527 18.589 20.6504 19.6221 21.6027L24.1451 25.7724C25.198 26.7428 26.9052 26.7428 27.9558 25.7724C29.0088 24.8035 29.0087 23.2298 27.9558 22.2594Z" fill="#515151"/>
</svg>
