<svg width="43" height="44" viewBox="0 0 43 44" fill="none" xmlns="http://www.w3.org/2000/svg">
<path d="M0.319684 25.5451C-0.387854 27.7266 0.378644 30.0851 2.20645 31.4412L4.38803 33.0332C4.91868 33.3869 5.27245 33.9176 5.5083 34.5662L6.33375 37.1605C7.04129 39.3421 9.04598 40.8161 11.3455 40.8161H14.0577C14.7063 40.8161 15.2959 40.993 15.8266 41.4057L18.0081 42.9977C18.9515 43.6462 20.0128 44 21.0741 44C22.1354 44 23.2557 43.6462 24.1401 42.9977L26.3217 41.4057C26.8524 41.0519 27.442 40.8161 28.0905 40.8161H30.8028C33.1023 40.8161 35.107 39.3421 35.8145 37.1605L36.64 34.5662C36.8168 33.9765 37.2296 33.4459 37.7602 33.0332L39.9418 31.4412C41.7696 30.0851 42.5361 27.7266 41.8286 25.5451L41.0031 22.9508C40.8262 22.3611 40.8262 21.7126 41.0031 21.064L41.8286 18.4697C42.5361 16.2881 41.7696 13.9297 39.9418 12.5735L37.7602 10.9816C37.2296 10.6278 36.8758 10.0972 36.64 9.44859L35.8145 6.85427C35.107 4.67269 33.1023 3.19867 30.8028 3.19867H28.0905C27.442 3.19867 26.8524 3.02178 26.3217 2.60905L24.1401 1.01709C22.3123 -0.339029 19.8359 -0.339029 17.9492 1.01709L15.7676 2.60905C15.2369 2.96282 14.6473 3.19867 13.9987 3.19867H11.2865C8.98703 3.19867 6.98234 4.67269 6.2748 6.85427L5.44933 9.44859C5.27245 10.0382 4.85972 10.5688 4.32907 10.9816L2.14749 12.5735C0.319688 13.9297 -0.44681 16.2881 0.260728 18.4697L1.08619 21.064C1.26307 21.6536 1.26307 22.3022 1.08619 22.9508L0.319684 25.5451ZM3.26776 20.3565L2.4423 17.7621C2.02957 16.524 2.50126 15.1089 3.56257 14.3424L5.74414 12.7504C6.62856 12.1018 7.33611 11.1585 7.63091 10.0971L8.45637 7.50285C8.8691 6.26466 10.0483 5.38023 11.3455 5.38023H14.0577C15.178 5.38023 16.2393 5.02647 17.1237 4.3779L19.3053 2.78593C20.3666 2.01943 21.8406 2.01943 22.9019 2.78593L25.0835 4.3779C25.9679 5.02647 27.0292 5.38023 28.1495 5.38023H30.8617C32.1589 5.38023 33.3381 6.2057 33.7508 7.50285L34.5763 10.0971C34.9301 11.1585 35.5787 12.0429 36.4631 12.7504L38.6446 14.3424C39.706 15.1089 40.1777 16.465 39.7649 17.7621L38.9395 20.3565C38.5857 21.4178 38.5857 22.538 38.9395 23.5993L39.7649 26.1936C40.1777 27.4318 39.706 28.8469 38.6446 29.6134L36.4631 31.2054C35.5787 31.8539 34.8711 32.7973 34.5763 33.8586L33.7508 36.4529C33.3381 37.6911 32.1589 38.5756 30.8617 38.5756H28.1495C27.0292 38.5756 25.9679 38.9293 25.0835 39.5779L22.9019 41.1699C21.8406 41.9364 20.3666 41.9364 19.3053 41.1699L17.1237 39.5779C16.2393 38.9293 15.178 38.5756 14.0577 38.5756H11.3455C10.0483 38.5756 8.8691 37.7501 8.45637 36.4529L7.63091 33.8586C7.27714 32.7973 6.62856 31.9129 5.74414 31.2054L3.56257 29.6134C2.50126 28.8469 2.02957 27.4908 2.4423 26.1936L3.26776 23.5993C3.62153 22.597 3.62153 21.4178 3.26776 20.3565ZM13.1143 28.6111L27.6189 14.1065C28.0316 13.6938 28.7391 13.6938 29.1519 14.1065C29.5646 14.5193 29.5646 15.2268 29.1519 15.6395L14.6473 30.1441C14.4115 30.3799 14.1756 30.4389 13.8808 30.4389C13.586 30.4389 13.2912 30.3209 13.1143 30.1441C12.7016 29.7313 12.7016 29.0238 13.1143 28.6111ZM23.6684 24.0121C22.0765 25.604 22.0765 28.2573 23.6684 29.9082C24.4939 30.7337 25.5552 31.1464 26.6165 31.1464C27.6778 31.1464 28.7391 30.7337 29.5646 29.9082C31.1565 28.3162 31.1565 25.663 29.5646 24.0121C27.9137 22.3611 25.2604 22.3611 23.6684 24.0121ZM27.9726 25.5451C28.7391 26.3116 28.7391 27.5498 27.9726 28.3163C27.2061 29.0828 25.9679 29.0828 25.2014 28.3163C24.4349 27.5498 24.4349 26.3116 25.2014 25.5451C25.9679 24.7786 27.2061 24.7786 27.9726 25.5451ZM15.7086 21.5357C16.8289 21.5357 17.8312 21.123 18.6567 20.2975C20.2487 18.7055 20.2487 16.0523 18.6567 14.4013C17.0647 12.8094 14.4115 12.8094 12.7606 14.4013C11.1686 15.9933 11.1686 18.6466 12.7606 20.2975C13.5271 21.064 14.5884 21.5357 15.7086 21.5357ZM14.2936 15.9933C14.6473 15.6395 15.178 15.4037 15.6497 15.4037C16.1214 15.4037 16.652 15.5806 17.0058 15.9933C17.7723 16.7598 17.7723 17.998 17.0058 18.7645C16.652 19.1183 16.1803 19.3541 15.6497 19.3541C15.119 19.3541 14.6473 19.1772 14.2936 18.7645C13.5271 17.998 13.5271 16.7598 14.2936 15.9933Z" fill="#3B5239"/>
</svg>
