<svg width="55" height="52" viewBox="0 0 55 52" fill="none" xmlns="http://www.w3.org/2000/svg">
<path d="M27.348 51.8764L6.48047 40.8432V29.877H8.26915V39.7655L27.348 49.8529L46.4268 39.7655V29.877H48.2155V40.8432L27.348 51.8764Z" fill="#3B5239"/>
<path d="M21.6127 38.4274L0.000976562 27.0164L7.1061 18.0686L28.7178 29.4801L21.6127 38.4274ZM2.74198 26.4407L21.1352 36.1526L25.9767 30.0556L7.58352 20.3435L2.74198 26.4407Z" fill="#3B5239"/>
<path d="M33.0826 38.4274L25.9775 29.4801L47.5893 18.0686L54.6941 27.0164L33.0826 38.4274ZM28.7186 30.0556L33.5601 36.1526L51.9536 26.4407L47.1121 20.3435L28.7186 30.0556Z" fill="#3B5239"/>
<path d="M47.5881 20.3428L25.9766 8.9435L33.0826 0L54.6956 11.424L47.5881 20.3428ZM28.7185 8.36783L47.1125 18.0699L51.9519 11.9973L33.5594 2.27555L28.7185 8.36783Z" fill="#3B5239"/>
<path d="M7.10723 20.3428L0 11.424L21.6127 0L28.7187 8.9435L7.10723 20.3428ZM2.74365 11.9971L7.58308 18.0697L25.977 8.36755L21.1362 2.27507L2.74365 11.9971Z" fill="#3B5239"/>
<path d="M28.2428 29.7568H26.4541V50.8628H28.2428V29.7568Z" fill="#3B5239"/>
</svg>
