<svg width="34" height="34" viewBox="0 0 34 34" fill="none" xmlns="http://www.w3.org/2000/svg">
<path d="M31.7639 10.7021C31.8097 10.3115 31.5517 9.92496 30.9956 9.55194C30.6099 9.29332 30.0869 9.04388 29.4701 8.8229L30.7726 6.32233C30.8128 6.24507 30.8273 6.15694 30.8138 6.07084C30.8004 5.98475 30.7599 5.90523 30.6981 5.84395L30.4108 5.55864L31.1059 2.30239C31.1285 2.19669 31.1082 2.08632 31.0497 1.99558C30.9911 1.90484 30.899 1.84114 30.7936 1.81851L29.3691 1.51282L29.505 0.459876C29.5131 0.396815 29.5064 0.33272 29.4854 0.272716C29.4644 0.212712 29.4298 0.158463 29.3841 0.114306C29.3385 0.0701495 29.2832 0.0373102 29.2227 0.0184139C29.1621 -0.000482503 29.098 -0.00491181 29.0355 0.00548003L27.1885 0.312668C27.0937 0.328444 27.0075 0.377413 26.9453 0.450877C26.8831 0.524342 26.8488 0.617547 26.8486 0.713941L26.8447 2.56848L26.5489 2.50496C26.4904 2.49242 26.4299 2.49296 26.3717 2.50656C26.3135 2.52015 26.259 2.54647 26.212 2.58362C26.1651 2.62078 26.1269 2.66786 26.1002 2.72151C26.0735 2.77516 26.059 2.83406 26.0576 2.89401L25.9371 8.08543C24.9008 8.0175 23.4777 8.0768 23.2283 8.86827C21.7284 9.2885 20.5383 10.1031 19.8027 11.2064C19.1361 10.4555 18.2516 9.96014 17.1942 9.73631C17.1654 9.72671 17.1357 9.72037 17.1055 9.71742C16.3512 9.56994 15.5106 9.55873 14.5994 9.68984C14.5906 9.69113 14.582 9.6927 14.5734 9.69453C14.2685 9.75982 13.9685 9.84651 13.6757 9.95396C13.2842 9.66287 12.7012 9.64929 12.0182 9.91096L10.358 5.39064C10.3385 5.33761 10.3082 5.28922 10.2691 5.24855C10.23 5.20788 10.1828 5.17582 10.1307 5.1544C10.0785 5.13298 10.0225 5.12267 9.96618 5.12413C9.90985 5.12559 9.85443 5.13878 9.80345 5.16287L8.67541 5.69593L7.20836 2.89713C7.18236 2.84754 7.14644 2.80386 7.10285 2.76882C7.05926 2.73377 7.00893 2.70812 6.95501 2.69346C6.90109 2.67879 6.84474 2.67544 6.78947 2.6836C6.7342 2.69176 6.6812 2.71126 6.63378 2.74089L3.14284 4.9215C3.08963 4.95475 3.04481 4.99989 3.01189 5.05339C2.97897 5.1069 2.95883 5.16732 2.95306 5.22992C2.94729 5.29253 2.95603 5.35562 2.97862 5.41428C3.0012 5.47293 3.037 5.52554 3.08323 5.56801L4.19651 6.59086L2.83424 7.95717L1.28991 7.21115C1.23733 7.18575 1.17991 7.17201 1.12156 7.17086C1.0632 7.16972 1.00529 7.18119 0.951756 7.20449C0.898221 7.2278 0.850319 7.2624 0.811308 7.30593C0.772298 7.34947 0.743094 7.40092 0.725684 7.45679L0.0184743 9.72653C-0.0126953 9.82663 -0.00418985 9.93494 0.0422218 10.0289C0.0886334 10.1229 0.169379 10.1953 0.267667 10.2311L8.69282 13.2989C8.46395 13.9494 8.48881 14.5054 8.76794 14.8817C8.661 15.1739 8.57395 15.473 8.50737 15.777C8.50527 15.7864 8.50364 15.7958 8.50222 15.8053C8.19145 17.976 8.70894 19.3932 9.34889 20.2874C8.76626 20.4648 8.24379 20.8001 7.83904 21.2564C7.43429 21.7126 7.16298 22.272 7.05501 22.873C6.65441 23.1999 6.36451 23.6432 6.2251 24.1419C6.0857 24.6407 6.10363 25.1705 6.27642 25.6586C6.44922 26.1467 6.76842 26.5692 7.1902 26.8681C7.61198 27.167 8.11567 27.3277 8.63213 27.3281C8.7089 27.3281 8.78641 27.3245 8.86466 27.3173C8.87665 27.3162 8.8885 27.3145 8.90043 27.3132L11.752 33.1485C11.7539 33.1523 11.7558 33.156 11.7577 33.1598C11.8868 33.4047 12.0794 33.6101 12.3153 33.7543C12.5512 33.8985 12.8215 33.9761 13.0977 33.979L15.0338 34H15.0503C15.3414 33.9995 15.6265 33.9161 15.8723 33.7596C16.1181 33.603 16.3145 33.3797 16.4388 33.1157L19.1753 27.2788C19.491 27.3304 19.8139 27.3154 20.1235 27.2348L30.2291 33.351L30.2413 33.3581C30.4472 33.4751 30.6796 33.5372 30.9162 33.5383C31.1537 33.5349 31.3864 33.4699 31.5914 33.3496C31.7965 33.2293 31.967 33.0578 32.0863 32.8518C32.2057 32.6457 32.2698 32.4123 32.2725 32.174C32.2751 31.9358 32.2162 31.7009 32.1015 31.4922C32.0992 31.4881 32.0969 31.4841 32.0948 31.48L26.2068 21.6961C26.2959 21.5708 26.4061 21.4619 26.5324 21.3744C26.8451 21.1795 27.4197 21.023 28.085 20.8416C30.1076 20.2903 33.1629 19.4574 33.8917 16.0748C33.8921 16.0732 33.8925 16.0716 33.8928 16.0701C33.8932 16.0685 33.8939 16.0656 33.8945 16.0633C34.3036 14.1471 33.5087 12.1626 31.7639 10.7021ZM29.2645 2.32365L30.2263 2.53017L29.7251 4.87748L29.3881 4.54285C29.3406 4.49571 29.2823 4.46103 29.2183 4.4419C29.1542 4.42276 29.0865 4.41975 29.021 4.43314C29.0108 4.43518 29.0007 4.43837 28.9912 4.44116L29.2645 2.32365ZM27.6608 1.06012L28.6288 0.899123L28.5143 1.78781V1.78862L28.3712 2.89639L27.6575 2.74313L27.6608 1.06012ZM26.7372 8.61537C26.7386 8.60571 26.7391 8.59597 26.7388 8.58622L26.859 3.40533L27.1652 3.47109L27.1694 3.47197L28.2664 3.70756L27.8699 6.77869L27.1912 8.44343C27.1504 8.54349 27.151 8.65571 27.1927 8.75539C27.2344 8.85507 27.3139 8.93406 27.4136 8.97496C27.5134 9.01587 27.6253 9.01535 27.7247 8.97352C27.8241 8.93169 27.9028 8.85197 27.9436 8.75191L29.2483 5.55116L29.9133 6.21153L28.4972 8.93023C28.4843 8.95507 28.4739 8.98118 28.4663 9.00815C28.4606 9.02853 28.3177 9.49977 27.4935 9.32288C26.7542 9.16412 26.7325 8.7159 26.7372 8.61537ZM25.9522 8.90367C26.0477 9.3544 26.4013 9.92197 27.3235 10.1201C27.4912 10.1572 27.6624 10.1764 27.8342 10.1775C28.4877 10.1775 28.8867 9.86429 29.094 9.55432C30.4496 10.023 30.8822 10.47 30.9476 10.6036C30.7189 10.8253 29.347 10.9987 27.3293 10.5654C25.3097 10.1317 24.1285 9.40922 24.0124 9.11344C24.1412 8.99612 24.7462 8.81692 25.9522 8.90367ZM12.4766 11.2058C12.4761 11.199 12.4754 11.1922 12.4745 11.185C12.4736 11.1778 12.4731 11.1729 12.472 11.1668C12.4707 11.1586 12.4689 11.1505 12.4671 11.1424C12.466 11.1377 12.465 11.1329 12.4638 11.1282C12.4613 11.1191 12.4584 11.1102 12.4554 11.101C12.4544 11.0981 12.4537 11.0951 12.4527 11.0922L12.2995 10.6753C12.7756 10.4919 13.1031 10.5135 13.2215 10.6323C13.3585 10.7695 13.3451 11.1163 13.1867 11.5371C12.9842 12.0749 12.562 12.6904 12.0284 13.2257C11.4949 13.761 10.8811 14.1844 10.3449 14.3873C9.9249 14.5461 9.57946 14.5596 9.4425 14.4223C9.32857 14.308 9.30304 14.0121 9.45605 13.5762L9.83922 13.7158C9.84057 13.7162 9.842 13.7164 9.84328 13.7168C9.84606 13.7179 9.84877 13.7189 9.85155 13.7198C9.85432 13.7206 9.85534 13.7213 9.85724 13.7218C9.87299 13.7267 9.88903 13.7306 9.90526 13.7335L9.91203 13.7347C9.91549 13.7353 9.91881 13.7356 9.92226 13.7361C9.93956 13.7385 9.95701 13.7399 9.97448 13.7401C9.9755 13.7401 9.97658 13.7401 9.9776 13.7401C9.97861 13.7401 9.97929 13.7401 9.98017 13.7401C9.98512 13.7401 9.99013 13.7401 9.99507 13.7401C10.4881 13.7187 11.0693 13.4017 11.5895 12.8705C12.0803 12.3692 12.4091 11.7828 12.4722 11.2977C12.4728 11.2942 12.4733 11.2909 12.4738 11.2873C12.4738 11.2854 12.4745 11.2835 12.4747 11.2817C12.4752 11.2779 12.4751 11.2741 12.4755 11.2704C12.4762 11.2621 12.4769 11.2538 12.4771 11.2453C12.4771 11.2395 12.4771 11.2337 12.4771 11.2279C12.4771 11.2206 12.477 11.2132 12.4766 11.2058ZM9.74866 6.08993L11.4081 10.6069C11.4085 10.6079 11.4089 10.609 11.4093 10.61L11.6524 11.2718C11.601 11.5019 11.455 11.7651 11.2613 12.0131L8.28466 6.78175L9.74866 6.08993ZM4.0269 5.32977L6.69244 3.66476L7.93942 6.04367L7.5404 6.23218C7.48971 6.25614 7.44451 6.29035 7.40764 6.33267C7.37076 6.37499 7.34301 6.42449 7.32613 6.47808C7.30925 6.53167 7.3036 6.58818 7.30954 6.64406C7.31547 6.69994 7.33287 6.75399 7.36063 6.80281L8.89142 9.49291L5.51732 5.86283C5.48011 5.8228 5.43525 5.7907 5.38541 5.76843C5.33556 5.74616 5.28176 5.73419 5.2272 5.73323C5.17264 5.73226 5.11845 5.74233 5.06785 5.76282C5.01726 5.78332 4.9713 5.81382 4.93271 5.85251L4.77164 6.01405L4.0269 5.32977ZM0.910124 9.59779L1.36144 8.1503L3.50122 9.18395L7.33625 11.9376L0.910124 9.59779ZM3.65193 8.28984L5.20981 6.7274L10.6692 12.6013C10.4966 12.7419 10.2975 12.8462 10.0838 12.908L3.65193 8.28984ZM8.78975 26.5053C8.49903 26.5327 8.20619 26.484 7.93989 26.3638C7.67358 26.2437 7.44294 26.0563 7.27053 25.8199C7.09813 25.5836 6.98986 25.3064 6.95634 25.0154C6.92281 24.7245 6.96517 24.4299 7.07926 24.1603C7.18984 24.6686 7.41867 25.1435 7.74709 25.5463C8.07551 25.9491 8.49421 26.2683 8.96904 26.4778C8.9098 26.4902 8.84996 26.4993 8.78975 26.5053ZM15.7036 32.7686C15.6445 32.894 15.5508 32.9998 15.4337 33.0736C15.3165 33.1473 15.1808 33.1857 15.0425 33.1845L13.1064 33.1635C12.9774 33.1622 12.8512 33.1262 12.7408 33.0592C12.6304 32.9923 12.5398 32.897 12.4787 32.7831L9.69698 27.0907C9.88463 27.0023 10.0605 26.8907 10.2205 26.7585C10.2472 26.7591 10.2738 26.7603 10.3005 26.7603C10.433 26.76 10.5654 26.7516 10.6969 26.7352L12.0236 28.8527C12.1568 29.0673 12.3423 29.2441 12.5627 29.3667C12.7831 29.4892 13.031 29.5533 13.2829 29.5529C13.3345 29.5529 13.386 29.5503 13.4372 29.545C13.5422 29.5343 13.6389 29.4831 13.7068 29.4022C13.7748 29.3213 13.8088 29.2171 13.8015 29.1116L13.5983 26.1557C13.7227 26.1713 13.8482 26.1815 13.9745 26.1849C14.0101 26.1859 14.0455 26.1863 14.081 26.1863C14.3258 26.1863 14.57 26.163 14.8105 26.1168V28.7288C14.8105 28.816 14.8383 28.9009 14.89 28.971C14.9416 29.0411 15.0143 29.0928 15.0974 29.1184C15.2403 29.1627 15.389 29.1853 15.5385 29.1854C15.7995 29.1853 16.0557 29.1156 16.2809 28.9833C16.5061 28.851 16.6921 28.661 16.8198 28.4327L17.7681 26.7584C17.7877 26.7588 17.8072 26.76 17.8268 26.76C17.8945 26.76 17.9615 26.7572 18.0284 26.7532C18.1423 26.8542 18.2668 26.9424 18.3998 27.0162L15.7036 32.7686ZM11.5238 26.5229C11.9032 26.3708 12.2512 26.1493 12.5501 25.8698C12.6225 25.901 12.6959 25.9305 12.7701 25.9573L12.9553 28.6519C12.8559 28.5961 12.7721 28.516 12.7117 28.4191L11.5238 26.5229ZM15.6234 28.3639V25.9129C15.9927 26.2448 16.4316 26.489 16.9078 26.6277L16.1131 28.0303C16.0628 28.1201 15.9924 28.1969 15.9074 28.2548C15.8224 28.3126 15.7252 28.3499 15.6234 28.3636V28.3639ZM17.8272 25.9455C17.2929 25.945 16.773 25.772 16.3444 25.4521C16.4566 25.371 16.5645 25.284 16.6675 25.1914C16.7459 25.1187 16.7926 25.0179 16.7975 24.9109C16.8024 24.804 16.7651 24.6994 16.6937 24.6197C16.6223 24.5401 16.5225 24.4918 16.4159 24.4854C16.3094 24.479 16.2045 24.5149 16.1241 24.5853C15.56 25.0939 14.8277 25.3741 14.0692 25.3717C13.3108 25.3692 12.5802 25.0842 12.0194 24.5721C11.9801 24.5352 11.9339 24.5065 11.8835 24.4877C11.8331 24.4688 11.7794 24.4602 11.7256 24.4623C11.6718 24.4645 11.619 24.4773 11.5702 24.5001C11.5214 24.5229 11.4776 24.5551 11.4414 24.595C11.4051 24.6349 11.3771 24.6816 11.359 24.7325C11.3409 24.7833 11.333 24.8372 11.3358 24.8911C11.3387 24.945 11.3522 24.9978 11.3755 25.0465C11.3989 25.0951 11.4316 25.1386 11.4719 25.1744C11.5757 25.269 11.6846 25.3578 11.7982 25.4404C11.5126 25.657 11.1837 25.8092 10.8341 25.8864C10.4845 25.9637 10.1223 25.9643 9.77243 25.8882C9.42254 25.8121 9.09318 25.661 8.80691 25.4454C8.52064 25.2297 8.28422 24.9546 8.11383 24.6388C7.99296 24.4152 7.90726 24.1742 7.85976 23.9244C7.79111 23.5639 7.80262 23.1927 7.89347 22.8371C7.98433 22.4816 8.15229 22.1506 8.38537 21.8676C8.61846 21.5847 8.91093 21.3568 9.24192 21.2003C9.57291 21.0437 9.93427 20.9624 10.3002 20.962C10.3481 20.962 10.3959 20.9637 10.4435 20.9664C10.2993 21.3619 10.22 21.7783 10.2088 22.1993C10.2074 22.2528 10.2165 22.3061 10.2356 22.3561C10.2547 22.406 10.2834 22.4518 10.3201 22.4906C10.3568 22.5295 10.4008 22.5607 10.4495 22.5825C10.4982 22.6043 10.5508 22.6163 10.6041 22.6177H10.6153C10.7212 22.6178 10.823 22.5764 10.8989 22.5023C10.9748 22.4282 11.0189 22.3273 11.0217 22.2212C11.0512 21.4133 11.3976 20.6497 11.9854 20.0965C12.5732 19.5433 13.355 19.2452 14.1608 19.267C14.9666 19.2887 15.7312 19.6286 16.2885 20.2128C16.8457 20.7969 17.1506 21.5781 17.1367 22.3864C17.1352 22.4399 17.1443 22.4931 17.1634 22.5431C17.1825 22.5931 17.2112 22.6389 17.2479 22.6777C17.2846 22.7166 17.3286 22.7478 17.3773 22.7696C17.4261 22.7914 17.4786 22.8034 17.532 22.8048H17.5431C17.6491 22.8049 17.7508 22.7634 17.8267 22.6894C17.9026 22.6153 17.9467 22.5144 17.9495 22.4082C17.9633 21.9165 17.8836 21.4266 17.7148 20.9646C17.7522 20.9629 17.7898 20.9612 17.8273 20.9612C18.1547 20.9594 18.4792 21.0226 18.7821 21.1471C19.0851 21.2716 19.3605 21.4548 19.5926 21.6864C19.8247 21.918 20.0089 22.1933 20.1346 22.4964C20.2602 22.7996 20.3249 23.1247 20.3249 23.4531C20.3249 23.7814 20.2602 24.1065 20.1346 24.4097C20.0089 24.7129 19.8247 24.9882 19.5926 25.2197C19.3605 25.4513 19.0851 25.6346 18.7821 25.759C18.4792 25.8835 18.1547 25.9467 17.8273 25.945L17.8272 25.9455ZM19.2854 26.4712C19.2591 26.4667 19.2345 26.461 19.2093 26.4556C19.6278 26.2621 20.0011 25.9828 20.3053 25.6357C20.6094 25.2886 20.8377 24.8813 20.9752 24.4403C21.0673 24.692 21.0917 24.9635 21.046 25.2276C21.0003 25.4918 20.8861 25.7392 20.7149 25.9451C20.5436 26.1509 20.3214 26.3079 20.0704 26.4003C19.8195 26.4927 19.5488 26.5172 19.2854 26.4715V26.4712ZM28.4008 26.9196C28.3628 27.3743 28.1558 27.7348 27.7395 28.0754C27.6982 28.1092 27.6639 28.1509 27.6386 28.1981C27.6133 28.2452 27.5975 28.2969 27.5921 28.3502C27.5867 28.4034 27.5918 28.4572 27.6072 28.5085C27.6225 28.5598 27.6478 28.6075 27.6816 28.649C27.7153 28.6905 27.7569 28.7249 27.8039 28.7503C27.8509 28.7756 27.9024 28.7915 27.9555 28.7969C28.0086 28.8023 28.0623 28.7971 28.1134 28.7817C28.1645 28.7663 28.2121 28.741 28.2535 28.7072C28.5463 28.476 28.7885 28.1867 28.9647 27.8573L31.3947 31.8947C31.4517 32.0001 31.4732 32.1212 31.4561 32.24C31.4389 32.3587 31.3839 32.4687 31.2993 32.5535C31.2147 32.6384 31.105 32.6935 30.9867 32.7107C30.8683 32.728 30.7475 32.7064 30.6423 32.6492L24.3548 28.8433C24.7624 28.6261 25.1229 28.3299 25.4154 27.9718C25.4835 27.888 25.5157 27.7805 25.5048 27.6729C25.494 27.5654 25.4409 27.4665 25.3574 27.3982C25.2739 27.3298 25.1667 27.2975 25.0594 27.3085C24.9522 27.3194 24.8536 27.3726 24.7855 27.4563C24.4942 27.8141 23.9803 28.2321 23.4489 28.2951L20.988 26.8054C21.2552 26.5952 21.4734 26.3291 21.6275 26.0255C21.7815 25.722 21.8676 25.3884 21.8798 25.0481C21.892 24.7077 21.83 24.3688 21.6981 24.055C21.5662 23.7412 21.3676 23.46 21.1161 23.2311C21.0832 22.7438 20.943 22.2699 20.7056 21.8434C20.4683 21.4169 20.1396 21.0485 19.7433 20.7646C20.6648 19.9596 21.3641 18.9302 21.7738 17.7756C21.7918 17.7249 21.7997 17.6711 21.7969 17.6174C21.7941 17.5637 21.7807 17.5111 21.7575 17.4626C21.7343 17.414 21.7018 17.3706 21.6618 17.3348C21.6218 17.2989 21.5751 17.2714 21.5245 17.2537C21.4738 17.236 21.4202 17.2286 21.3666 17.2318C21.3131 17.235 21.2607 17.2489 21.2125 17.2725C21.1643 17.2961 21.1213 17.3291 21.0859 17.3695C21.0504 17.4099 21.0233 17.4569 21.0061 17.5078C20.6218 18.5768 19.9608 19.5241 19.0909 20.2523C19.0537 20.2833 19.0224 20.3208 18.9984 20.3629C18.6243 20.2196 18.2271 20.1462 17.8266 20.1465C17.6583 20.147 17.4902 20.1603 17.3239 20.1863C17.1958 19.9893 17.0504 19.8043 16.8892 19.6334C16.1831 18.8859 15.2098 18.4504 14.1834 18.4225C13.1571 18.3947 12.1617 18.7769 11.4163 19.4851C11.194 19.6963 10.9973 19.9331 10.8302 20.1905C10.655 20.1617 10.4778 20.1469 10.3002 20.1465C10.2934 20.1465 10.2867 20.1469 10.2796 20.147C9.16019 18.9236 9.12652 17.1953 9.3048 15.9356C9.35196 15.7237 9.41059 15.5145 9.48043 15.309C9.56936 15.3245 9.65947 15.3323 9.74974 15.3321C10.0521 15.3251 10.3507 15.2636 10.6314 15.1507C11.2811 14.9047 11.9812 14.426 12.6024 13.8028C13.2236 13.1796 13.7013 12.4774 13.9466 11.826C14.1107 11.3899 14.162 10.9972 14.1035 10.6687C14.3082 10.5992 14.5166 10.5414 14.7278 10.4957C15.395 10.3932 16.0734 10.3873 16.7423 10.4783C16.9744 11.554 16.5464 12.9464 15.708 13.7536C15.6693 13.7906 15.6383 13.8349 15.6168 13.884C15.5952 13.9331 15.5835 13.9859 15.5824 14.0395C15.5812 14.0931 15.5906 14.1464 15.61 14.1964C15.6294 14.2463 15.6585 14.2919 15.6955 14.3306C15.7325 14.3693 15.7768 14.4003 15.8258 14.4217C15.8748 14.4432 15.9275 14.4548 15.9809 14.4558C16.0344 14.4569 16.0875 14.4473 16.1373 14.4277C16.187 14.4081 16.2324 14.3788 16.2709 14.3416C17.2177 13.43 17.7279 11.9606 17.5966 10.6863C18.4767 10.9825 19.2154 11.5967 19.6688 12.4092C19.6702 12.4116 19.6717 12.414 19.6731 12.4164L28.4008 26.9196ZM33.1287 15.7419C32.1126 16.4629 31.1703 16.5532 29.3676 16.1262C29.3157 16.1139 29.2618 16.112 29.2091 16.1206C29.1564 16.1292 29.106 16.1481 29.0606 16.1762C29.0151 16.2043 28.9757 16.2412 28.9445 16.2846C28.9133 16.328 28.8909 16.3772 28.8787 16.4293C28.8664 16.4814 28.8645 16.5354 28.873 16.5882C28.8816 16.641 28.9004 16.6917 28.9285 16.7372C28.9565 16.7827 28.9932 16.8223 29.0365 16.8536C29.0798 16.8849 29.1288 16.9073 29.1808 16.9196C29.9622 17.1047 30.6117 17.2009 31.1843 17.2009C31.7321 17.2092 32.2753 17.1003 32.7778 16.8812C31.8266 18.9771 29.574 19.5911 27.8717 20.055C27.1448 20.2532 26.517 20.4242 26.1033 20.6821C25.9796 20.7614 25.8661 20.8557 25.7654 20.9629L20.3711 11.9988C20.3551 11.9709 20.3381 11.944 20.3216 11.9166C20.5368 11.5383 20.8091 11.1957 21.1288 10.9009C21.3788 11.3704 21.7892 11.7616 22.0639 11.9897C22.7313 12.5439 23.5547 12.9564 24.3231 13.1214C24.3755 13.133 24.4296 13.1341 24.4824 13.1247C24.5352 13.1153 24.5856 13.0955 24.6307 13.0664C24.6758 13.0373 24.7148 12.9996 24.7453 12.9554C24.7758 12.9112 24.7973 12.8613 24.8085 12.8087C24.8198 12.7561 24.8205 12.7018 24.8107 12.649C24.8009 12.5961 24.7808 12.5457 24.7514 12.5006C24.7221 12.4556 24.6842 12.4168 24.6399 12.3865C24.5956 12.3563 24.5457 12.3351 24.4932 12.3242C23.8581 12.1879 23.1438 11.8283 22.5823 11.3618C22.1925 11.0381 21.9063 10.6846 21.7863 10.3896C22.2875 10.069 22.8335 9.82473 23.4063 9.66491C24.0363 10.4878 25.9147 11.0953 27.1593 11.3626C27.9662 11.5424 28.7893 11.6386 29.6158 11.6496C29.7772 11.6496 29.9323 11.6447 30.08 11.6349C30.5962 11.6004 30.9947 11.5071 31.2757 11.355C32.7365 12.5884 33.4048 14.1658 33.1287 15.7418V15.7419Z" fill="white"/>
</svg>
