<svg width="33" height="35" viewBox="0 0 33 35" fill="none" xmlns="http://www.w3.org/2000/svg">
<path fill-rule="evenodd" clip-rule="evenodd" d="M24.7774 8.61328C24.7774 13.3711 20.9309 17.2266 16.1841 17.2266C11.4442 17.2197 7.59766 13.3643 7.59082 8.61328C7.59082 3.85547 11.4373 0 16.1841 0C20.9309 0 24.7774 3.85547 24.7774 8.61328ZM22.2131 8.60645C22.2131 5.27051 19.5124 2.56348 16.1841 2.56348C12.8559 2.57031 10.162 5.27734 10.1552 8.60645C10.1552 11.9424 12.8559 14.6494 16.1841 14.6494C19.5124 14.6494 22.2131 11.9424 22.2131 8.60645Z" fill="#3B5239"/>
<path fill-rule="evenodd" clip-rule="evenodd" d="M2.56444 35C2.56444 27.4736 8.67524 21.3418 16.191 21.3418C23.7067 21.3418 29.8107 27.4736 29.8107 35H32.3751C32.3751 26.0381 25.1253 18.7783 16.191 18.7783C11.9011 18.7783 7.78181 20.4873 4.74687 23.5293C1.69829 26.5645 -0.0135593 30.6934 8.08948e-05 35H2.56444Z" fill="#3B5239"/>
</svg>
