<svg width="36" height="35" viewBox="0 0 36 35" fill="none" xmlns="http://www.w3.org/2000/svg">
<path d="M17.2745 30.1289C17.2745 29.1655 16.9888 28.2237 16.4536 27.4227C15.9183 26.6216 15.1575 25.9973 14.2675 25.6286C13.3774 25.2599 12.398 25.1635 11.4531 25.3514C10.5081 25.5394 9.64019 26.0033 8.95895 26.6845C8.27771 27.3658 7.81378 28.2337 7.62583 29.1786C7.43787 30.1235 7.53434 31.103 7.90302 31.9931C8.27171 32.8831 8.89605 33.6439 9.69711 34.1791C10.4982 34.7144 11.4399 35.0001 12.4034 35.0001C13.6953 35.0001 14.9343 34.4869 15.8478 33.5734C16.7613 32.6598 17.2745 31.4209 17.2745 30.1289ZM10.2384 30.1289C10.2384 29.5548 10.4665 29.0041 10.8725 28.5981C11.2785 28.1921 11.8292 27.964 12.4034 27.964C12.9775 27.964 13.5282 28.1921 13.9342 28.5981C14.3402 29.0041 14.5683 29.5548 14.5683 30.1289C14.5683 30.7031 14.3402 31.2538 13.9342 31.6598C13.5282 32.0658 12.9775 32.2939 12.4034 32.2939C11.8292 32.2939 11.2785 32.0658 10.8725 31.6598C10.4665 31.2538 10.2384 30.7031 10.2384 30.1289Z" fill="#3B5239"/>
<path d="M30.8956 30.1289C30.8956 29.1655 30.6099 28.2237 30.0747 27.4227C29.5394 26.6216 28.7786 25.9973 27.8886 25.6286C26.9985 25.2599 26.0191 25.1635 25.0741 25.3514C24.1292 25.5394 23.2613 26.0033 22.58 26.6845C21.8988 27.3658 21.4349 28.2337 21.2469 29.1786C21.059 30.1235 21.1554 31.103 21.5241 31.9931C21.8928 32.8831 22.5171 33.6439 23.3182 34.1791C24.1193 34.7144 25.061 35.0001 26.0245 35.0001C27.3164 35.0001 28.5554 34.4869 29.4689 33.5734C30.3824 32.6598 30.8956 31.4209 30.8956 30.1289ZM23.8595 30.1289C23.8595 29.8446 23.9155 29.5631 24.0243 29.3005C24.1331 29.0378 24.2926 28.7991 24.4936 28.5981C24.6946 28.3971 24.9333 28.2376 25.196 28.1288C25.4586 28.02 25.7402 27.964 26.0245 27.964C26.5986 27.964 27.1493 28.1921 27.5553 28.5981C27.9613 29.0041 28.1894 29.5548 28.1894 30.1289C28.1894 30.7031 27.9613 31.2538 27.5553 31.6598C27.1493 32.0658 26.5986 32.2939 26.0245 32.2939C25.7402 32.2939 25.4586 32.2379 25.196 32.1291C24.9333 32.0203 24.6946 31.8608 24.4936 31.6598C24.2926 31.4588 24.1331 31.2201 24.0243 30.9574C23.9155 30.6948 23.8595 30.4133 23.8595 30.1289Z" fill="#3B5239"/>
<path d="M7.39691 7.3067L6.13402 1.08247L0.496134 0L0 2.66108L3.87887 3.38273L7.98325 23.9497L30.5799 24.0399L35.451 7.3067H7.39691ZM28.5503 21.3338L10.1933 21.2436L7.93814 10.0129H31.8428L28.5503 21.3338Z" fill="#3B5239"/>
</svg>
