<svg width="149" height="131" viewBox="0 0 149 131" fill="none" xmlns="http://www.w3.org/2000/svg">
<path d="M24.9102 130.993V114.199C24.9102 113.015 24.4756 112.397 23.6346 112.397C22.82 112.397 22.3585 113.042 22.3585 114.199V130.993H20.0245V114.199C20.0245 113.015 19.5898 112.397 18.7484 112.397C17.9342 112.397 17.4728 113.042 17.4728 114.199V130.993H15.1387V114.064C15.1387 111.671 16.4956 110.299 18.7484 110.299C19.8344 110.299 20.757 110.729 21.1913 111.428C21.6258 110.729 22.5484 110.299 23.6346 110.299C25.8871 110.299 27.2443 111.671 27.2443 114.064V130.993H24.9102Z" fill="#3B5239"/>
<path d="M41.5438 130.993C38.8567 130.993 37.8252 129.486 37.8252 127.173V114.334C37.8252 112.02 38.8567 110.514 41.5438 110.514H43.634V112.666H41.5984C40.6212 112.666 40.1596 113.338 40.1596 114.441V117.938H43.2267V120.09H40.1596V127.119C40.1596 128.222 40.6212 128.841 41.5984 128.841H43.634V130.993H41.5438Z" fill="#3B5239"/>
<path d="M59.2633 114.199C59.2633 112.962 58.8017 112.397 57.9334 112.397C57.0647 112.397 56.5489 112.962 56.5489 114.199V118.395H57.8247C58.8017 118.395 59.2633 117.696 59.2633 116.593V114.199ZM59.2633 130.993V122.134C59.2633 121.031 58.8017 120.332 57.8247 120.332H56.5489V130.993H54.2148V114.065C54.2148 111.671 55.5989 110.299 57.9334 110.299C60.2675 110.299 61.5977 111.671 61.5977 114.065V116.593C61.5977 117.803 60.9731 118.799 60.1321 119.229C61.109 119.633 61.5977 120.789 61.5977 122.134V130.993H59.2633Z" fill="#3B5239"/>
<path d="M75.8705 130.993C73.5359 130.993 72.1787 129.621 72.1787 127.227V114.064C72.1787 111.671 73.5359 110.299 75.8705 110.299C78.2049 110.299 79.5348 111.671 79.5348 114.064V116.055H77.2004V114.199C77.2004 112.962 76.7389 112.397 75.8705 112.397C75.0017 112.397 74.5133 112.962 74.5133 114.199V127.093C74.5133 128.33 75.0017 128.895 75.8705 128.895C76.7389 128.895 77.2004 128.33 77.2004 127.093V125.237H79.5348V127.227C79.5348 129.621 78.2049 130.993 75.8705 130.993Z" fill="#3B5239"/>
<path d="M95.1645 114.199C95.1645 113.015 94.6761 112.397 93.8073 112.397C92.9389 112.397 92.4501 113.042 92.4501 114.199V119.283H95.1645V114.199ZM95.1645 130.993V121.381H92.4501V130.993H90.1162V114.065C90.1162 111.751 91.473 110.299 93.8073 110.299C96.1417 110.299 97.4989 111.751 97.4989 114.065V130.993H95.1645Z" fill="#3B5239"/>
<path d="M113.346 114.441C113.346 113.338 112.884 112.639 111.907 112.639H110.414V128.868H111.907C112.884 128.868 113.346 128.222 113.346 127.119V114.441ZM111.907 130.993H108.08V110.514H111.907C114.595 110.514 115.68 112.02 115.68 114.334V127.173C115.68 129.486 114.595 130.993 111.907 130.993Z" fill="#3B5239"/>
<path d="M131.527 114.199C131.527 112.962 130.931 112.397 130.062 112.397C129.193 112.397 128.596 112.962 128.596 114.199V127.093C128.596 128.33 129.193 128.895 130.062 128.895C130.931 128.895 131.527 128.33 131.527 127.093V114.199ZM130.062 130.993C127.727 130.993 126.262 129.621 126.262 127.227V114.065C126.262 111.671 127.727 110.299 130.062 110.299C132.396 110.299 133.862 111.671 133.862 114.065V127.227C133.862 129.621 132.396 130.993 130.062 130.993Z" fill="#3B5239"/>
<path d="M144.664 120.646L136.723 116.102V125.19L144.664 120.646Z" fill="#3B5239"/>
<path d="M4.33594 120.646L12.2775 116.102V125.189L4.33594 120.646Z" fill="#3B5239"/>
<path d="M12.4083 98.4692H14.2097C18.38 98.4692 21.5228 97.4136 23.5505 95.3315C25.586 93.2421 26.6181 90.0015 26.6181 85.7008V79.346C26.6181 75.2877 26.3043 71.9144 25.6858 69.3197C25.0698 66.7462 24.057 64.2346 22.6756 61.8553C21.2635 59.4244 18.9379 55.9369 15.7633 51.4895C12.4868 46.9863 10.4032 43.5733 9.39915 41.063C8.39342 38.5485 7.88342 35.2666 7.88342 31.309V22.8658C7.88342 21.0671 8.24343 19.6029 8.95337 18.5137C9.75699 17.2832 11.2021 16.6597 13.2488 16.6597C15.2807 16.6597 16.74 17.2742 17.586 18.4864C18.3483 19.5841 18.7344 21.0569 18.7344 22.8658V32.5813H26.6181V21.5447C26.6181 12.9527 22.5594 8.77627 14.2097 8.77627H12.4083C7.94237 8.77627 4.73254 9.86731 2.86812 12.0191C0.964779 14.2138 0 17.4183 0 21.5447V29.9879C0 34.0575 0.294708 37.4567 0.876212 40.0913C1.45167 42.701 2.4453 45.2713 3.82903 47.7309C5.24517 50.2497 7.56669 53.7305 10.7291 58.0769C14.0101 62.6735 16.1078 66.0753 17.1479 68.4849C18.2007 70.9302 18.7344 74.0993 18.7344 77.9049V84.3796C18.7344 86.1908 18.3482 87.6637 17.5867 88.7579C16.7419 89.9708 15.2826 90.5857 13.2488 90.5857C11.2004 90.5857 9.75513 89.9618 8.95337 88.7316C8.24359 87.6451 7.88342 86.1804 7.88342 84.3796V72.304H0V85.7008C0 89.751 0.966641 92.9377 2.87309 95.1721C4.73688 97.3602 7.94469 98.4692 12.4083 98.4692Z" fill="#3B5239"/>
<path d="M44.9285 22.6727L45.0582 22.6735C45.0582 22.6735 47.7653 46.5047 47.99 51.6214C48.1082 54.3169 47.9092 57.7783 46.8475 60.5481C46.0448 62.6419 44.7949 65.9653 42.0745 69.8391L40.0962 72.936L40.4184 69.5843L44.9285 22.6727ZM46.1414 77.8769L49.5528 73.0032L50.8582 98.4614H58.0045L52.2535 8.79776H37.2754L31.5244 98.4614H38.6717L38.7399 97.1672C38.9017 94.3271 39.15 92.0374 39.4784 90.3568C39.8159 88.6227 40.4986 86.8045 41.5079 84.9539C42.4913 83.1522 44.0501 80.7711 46.1414 77.8769Z" fill="#3B5239"/>
<path d="M122.194 8.77641H95.5762V16.6598H104.943V98.4985H112.827V16.6598H122.194V8.77641Z" fill="#3B5239"/>
<path d="M149 16.7801V8.77643H127.728V98.4985H149V90.4951H135.611V40.6922H149V32.6885H135.611V16.7801H149Z" fill="#3B5239"/>
<path d="M90.0414 98.4985V8.77641H82.5129V68.3811L71.0916 8.77641H63.5381V98.4985H70.9411V48.4366L81.6463 98.4985H90.0414Z" fill="#3B5239"/>
<path d="M136.354 -0.000422001L132.245 6.6792H135.889L149 -0.000422001H136.354Z" fill="#3B5239"/>
</svg>
