<svg width="36" height="32" viewBox="0 0 36 32" fill="none" xmlns="http://www.w3.org/2000/svg">
<path fill-rule="evenodd" clip-rule="evenodd" d="M15.7611 27.0509C16.1509 27.0509 16.467 26.7349 16.467 26.3453V24.9286C16.467 24.5389 16.1509 24.223 15.7611 24.223C15.3713 24.223 15.0552 24.5389 15.0552 24.9286V26.3453C15.0552 26.7349 15.3713 27.0509 15.7611 27.0509ZM34.5882 12.9502C34.5882 13.9844 34.0143 14.8867 33.1684 15.3567C33.1285 15.3788 33.0883 15.4 33.0476 15.42C33.0417 15.4229 33.0361 15.4261 33.0303 15.4289C32.9812 15.4525 32.9315 15.4744 32.8812 15.4951C32.8715 15.4991 32.8614 15.5028 32.8516 15.5068C32.8082 15.5241 32.7644 15.5402 32.7203 15.5553C32.7116 15.5581 32.703 15.5612 32.6943 15.5641C32.5868 15.5993 32.4772 15.6283 32.3661 15.6502C32.3629 15.6507 32.3598 15.6512 32.3566 15.6518C32.3068 15.6614 32.2566 15.6694 32.2063 15.6763C32.194 15.6779 32.1815 15.6795 32.1691 15.681C32.1264 15.6862 32.0836 15.6902 32.0406 15.6935C32.0269 15.6945 32.0132 15.6958 31.9995 15.6966C31.9449 15.6999 31.8901 15.7019 31.8353 15.7019C31.7924 15.7019 31.7499 15.7006 31.7075 15.6987C31.6903 15.6978 31.6732 15.6966 31.6561 15.6954C31.6323 15.694 31.6084 15.6921 31.5846 15.69C31.5618 15.6879 31.539 15.6856 31.5163 15.6828C31.5011 15.6811 31.4857 15.6791 31.4706 15.677C31.4418 15.6732 31.4132 15.6692 31.3847 15.6645C31.384 15.6643 31.3832 15.6642 31.3825 15.6641C30.6551 15.5416 30.0088 15.1291 29.5878 14.5363C29.5809 14.5267 29.574 14.5173 29.5673 14.5076C29.5539 14.4881 29.5409 14.4683 29.5279 14.4484C29.5182 14.4334 29.5084 14.4184 29.4988 14.4031C29.4875 14.385 29.4764 14.3667 29.4656 14.3483C29.4551 14.3307 29.4449 14.3128 29.4348 14.295C29.425 14.2775 29.4152 14.2603 29.4058 14.2426C29.3951 14.2227 29.385 14.2025 29.3749 14.1823C29.3665 14.1658 29.3579 14.1495 29.35 14.1328C29.3363 14.1041 29.3234 14.0751 29.3106 14.0459C29.2991 14.0193 29.2881 13.9924 29.2774 13.9654C29.2706 13.9486 29.2638 13.932 29.2575 13.9152C29.2485 13.8915 29.2403 13.8674 29.232 13.8433C29.2273 13.8296 29.2225 13.8158 29.218 13.8019C29.2094 13.7755 29.2013 13.749 29.1934 13.7223C29.1216 13.4771 29.0824 13.2183 29.0824 12.9502V11.1955H34.5882V12.9502ZM32.8317 16.9919V30.211H30.2506V19.5462C30.2506 19.1566 29.9345 18.8407 29.5447 18.8407H18.0112H6.47788C6.08802 18.8407 5.772 19.1566 5.772 19.5462V30.211H3.19073V16.9974C3.19835 16.9993 3.20612 17.0005 3.21374 17.0023C3.27755 17.0173 3.34186 17.0307 3.40666 17.0427C3.42289 17.0457 3.43913 17.0486 3.45536 17.0514C3.51572 17.0618 3.57649 17.0707 3.63762 17.0786C3.6564 17.081 3.67504 17.0836 3.69388 17.0857C3.75381 17.0925 3.81416 17.0976 3.87494 17.1019C3.89344 17.1031 3.91207 17.1051 3.93071 17.1061C4.00814 17.1105 4.08621 17.1131 4.16478 17.1131C4.22739 17.1131 4.28972 17.1112 4.35184 17.1083C4.36786 17.1076 4.38395 17.1069 4.39998 17.106C4.45588 17.1028 4.51165 17.0988 4.56706 17.0933C4.59176 17.0909 4.61626 17.0879 4.64096 17.0851C4.67132 17.0815 4.70146 17.0777 4.73167 17.0734C5.75866 16.9331 6.66692 16.4174 7.31428 15.6693C7.31449 15.669 7.31464 15.6688 7.31485 15.6686C7.392 15.5795 7.46548 15.4871 7.53494 15.3916C7.55012 15.3709 7.56487 15.3499 7.57962 15.3288C7.59424 15.308 7.60927 15.2873 7.62353 15.2662C7.63751 15.2869 7.65219 15.307 7.66645 15.3275C7.68169 15.3492 7.69694 15.3709 7.71254 15.3922C7.73209 15.4191 7.75179 15.4459 7.77205 15.4723C7.77226 15.4726 7.77254 15.4729 7.77275 15.4733C7.82386 15.54 7.87715 15.6049 7.932 15.6683C7.93235 15.6687 7.93271 15.6691 7.93299 15.6695C8.58035 16.4175 9.48861 16.9331 10.5154 17.0734C10.5456 17.0777 10.5758 17.0815 10.6062 17.0851C10.6308 17.0879 10.6553 17.0909 10.6801 17.0933C10.7356 17.0988 10.7912 17.1028 10.8472 17.106C10.8632 17.1069 10.8792 17.1076 10.8954 17.1083C10.9574 17.1112 11.0197 17.1131 11.0824 17.1131C11.145 17.1131 11.2073 17.1112 11.2693 17.1083C11.2855 17.1076 11.3015 17.1069 11.3176 17.106C11.3735 17.1028 11.4292 17.0988 11.4846 17.0933C11.5094 17.0909 11.5338 17.0879 11.5585 17.0851C11.5888 17.0815 11.6191 17.0777 11.6493 17.0734C12.6758 16.9331 13.5839 16.4178 14.2312 15.6701L14.2333 15.6676C14.2874 15.605 14.3399 15.5411 14.3903 15.4752C14.3912 15.4741 14.392 15.4732 14.3928 15.4721C14.4129 15.4457 14.4325 15.4191 14.452 15.3923C14.4677 15.3709 14.4831 15.3492 14.4983 15.3274C14.5126 15.3069 14.5273 15.2869 14.5412 15.2662C14.5551 15.2869 14.5698 15.307 14.5841 15.3275C14.5993 15.3492 14.6146 15.3709 14.6302 15.3922C14.6497 15.4191 14.6694 15.4459 14.6897 15.4723C14.6899 15.4726 14.6902 15.4729 14.6904 15.4733C14.7415 15.54 14.7948 15.6049 14.8496 15.6683C14.85 15.6687 14.8504 15.6691 14.8506 15.6695C15.498 16.4175 16.4063 16.9331 17.433 17.0734C17.4632 17.0777 17.4935 17.0815 17.5239 17.0851C17.5484 17.0879 17.5729 17.0909 17.5978 17.0933C17.6532 17.0988 17.7089 17.1028 17.7648 17.106C17.7808 17.1069 17.7968 17.1076 17.813 17.1083C17.8751 17.1112 17.9373 17.1131 18 17.1131C18.0627 17.1131 18.1249 17.1112 18.187 17.1083C18.2032 17.1076 18.2192 17.1069 18.2352 17.106C18.2911 17.1028 18.3468 17.0988 18.4022 17.0933C18.4271 17.0909 18.4515 17.0879 18.4761 17.0851C18.5065 17.0815 18.5368 17.0777 18.567 17.0734C19.5935 16.9331 20.5015 16.4178 21.1488 15.6701L21.1509 15.6676C21.2051 15.605 21.2576 15.5411 21.308 15.4752C21.3088 15.4741 21.3097 15.4732 21.3104 15.4721C21.3306 15.4457 21.3502 15.4191 21.3697 15.3923C21.3853 15.3709 21.4007 15.3492 21.416 15.3274C21.4302 15.3069 21.4449 15.2869 21.4588 15.2662C21.4727 15.2869 21.4875 15.307 21.5017 15.3275C21.517 15.3492 21.5322 15.3709 21.5478 15.3922C21.5674 15.4191 21.5871 15.4459 21.6073 15.4723C21.6076 15.4726 21.6078 15.4729 21.608 15.4733C21.6592 15.54 21.7124 15.6049 21.7673 15.6683C21.7676 15.6687 21.768 15.6691 21.7683 15.6695C22.4156 16.4175 23.3239 16.9331 24.3507 17.0734C24.3809 17.0777 24.4111 17.0815 24.4415 17.0851C24.4661 17.0879 24.4906 17.0909 24.5154 17.0933C24.5708 17.0988 24.6265 17.1028 24.6824 17.106C24.6985 17.1069 24.7145 17.1076 24.7307 17.1083C24.7927 17.1112 24.855 17.1131 24.9176 17.1131C24.9803 17.1131 25.0426 17.1112 25.1046 17.1083C25.1208 17.1076 25.1368 17.1069 25.1528 17.106C25.2088 17.1028 25.2644 17.0988 25.3199 17.0933C25.3447 17.0909 25.3691 17.0879 25.3938 17.0851C25.4241 17.0815 25.4544 17.0777 25.4846 17.0734C26.5111 16.9331 27.4192 16.4178 28.0665 15.6701L28.0686 15.6676C28.1227 15.605 28.1752 15.5411 28.2256 15.4752C28.2265 15.4741 28.2273 15.4732 28.2281 15.4721C28.2482 15.4457 28.2678 15.4191 28.2873 15.3923C28.303 15.3709 28.3184 15.3492 28.3336 15.3274C28.3479 15.3069 28.3626 15.2869 28.3765 15.2662C28.3904 15.2869 28.4051 15.307 28.4194 15.3275C28.4346 15.3492 28.4499 15.3709 28.4655 15.3922C28.485 15.4191 28.5047 15.4459 28.525 15.4723C28.5252 15.4726 28.5255 15.4729 28.5257 15.4733C28.5768 15.54 28.6301 15.6049 28.6849 15.6683C28.6853 15.6687 28.6856 15.6691 28.6859 15.6695C29.3333 16.4175 30.2416 16.9331 31.2683 17.0734C31.2985 17.0777 31.3288 17.0815 31.3592 17.0851C31.3837 17.0879 31.4082 17.0909 31.4331 17.0933C31.4885 17.0988 31.5442 17.1028 31.6001 17.106C31.6161 17.1069 31.6321 17.1076 31.6483 17.1083C31.7104 17.1112 31.7726 17.1131 31.8353 17.1131C31.9151 17.1131 31.9943 17.1103 32.0729 17.1058C32.0925 17.1047 32.1119 17.1028 32.1313 17.1014C32.1926 17.0971 32.2537 17.0916 32.3142 17.0847C32.3336 17.0825 32.3528 17.0798 32.3721 17.0773C32.4354 17.0691 32.4982 17.0596 32.5604 17.0486C32.5754 17.046 32.5904 17.0434 32.6054 17.0405C32.678 17.0269 32.75 17.0116 32.8211 16.9942C32.8247 16.9934 32.8282 16.9928 32.8317 16.9919ZM18.7171 30.2109H28.8388V20.2518H18.7171V30.2109ZM7.18369 30.211H17.3053V20.2519H7.18369V30.211ZM1.41176 11.1955H6.91765V12.9502C6.91765 13.2193 6.87812 13.4792 6.80576 13.7252C6.79849 13.7502 6.79073 13.775 6.78275 13.7997C6.77753 13.8159 6.77202 13.8318 6.76645 13.8478C6.75889 13.8698 6.75134 13.8918 6.74315 13.9134C6.73546 13.934 6.7272 13.9543 6.71901 13.9747C6.71202 13.9921 6.70539 14.0096 6.69812 14.0267C6.68266 14.0629 6.66635 14.0987 6.64941 14.1341C6.64257 14.1484 6.63522 14.1625 6.62802 14.1766C6.61673 14.1993 6.60529 14.2219 6.59336 14.2442C6.58475 14.2603 6.57579 14.2761 6.56697 14.292C6.55595 14.3115 6.5448 14.331 6.53336 14.3504C6.5232 14.3674 6.51296 14.3844 6.50238 14.4012C6.49193 14.418 6.48106 14.4346 6.47033 14.4511C6.45819 14.4696 6.44619 14.4881 6.43369 14.5062C6.42551 14.518 6.41711 14.5295 6.40885 14.5411C5.98772 15.1314 5.34268 15.5421 4.61696 15.6642C4.61647 15.6643 4.61605 15.6643 4.61548 15.6645C4.58689 15.6692 4.55809 15.6732 4.52929 15.677C4.51412 15.6791 4.49908 15.6811 4.48391 15.6828C4.46104 15.6856 4.43816 15.688 4.41529 15.69C4.39165 15.6921 4.36793 15.694 4.34414 15.6954C4.32692 15.6966 4.30984 15.6978 4.29254 15.6987C4.25026 15.7006 4.20776 15.7019 4.16506 15.7019H4.16471C4.11042 15.7019 4.05635 15.7 4.00235 15.6968C3.98852 15.6959 3.97482 15.6946 3.96106 15.6936C3.9192 15.6905 3.87748 15.6866 3.83584 15.6816C3.82264 15.68 3.80958 15.6784 3.79645 15.6766C3.75042 15.6704 3.70454 15.6631 3.65894 15.6546C3.65174 15.6533 3.64454 15.6521 3.63741 15.6507C3.52934 15.6297 3.42275 15.602 3.31814 15.5682C3.30685 15.5646 3.29569 15.5607 3.28454 15.5569C3.24593 15.5439 3.20767 15.5299 3.16969 15.5152C3.15395 15.5091 3.13814 15.503 3.12247 15.4965C3.08788 15.4824 3.05379 15.4673 3.01976 15.4517C3.00452 15.4447 2.98906 15.4383 2.97402 15.4309C2.93096 15.4103 2.88868 15.3884 2.84682 15.3655C1.99249 14.8979 1.41176 13.9906 1.41176 12.9502V11.1955ZM11.5328 15.6645C11.5045 15.6692 11.4759 15.6732 11.4473 15.677C11.4319 15.6791 11.4166 15.6811 11.4013 15.6829C11.3785 15.6856 11.3558 15.6879 11.3331 15.69C11.3093 15.6921 11.2854 15.694 11.2614 15.6954C11.2444 15.6966 11.2273 15.6978 11.2103 15.6987C11.1678 15.7006 11.1252 15.7019 11.0824 15.7019C11.0395 15.7019 10.9969 15.7006 10.9545 15.6987C10.9374 15.6978 10.9203 15.6966 10.9032 15.6954C10.8793 15.694 10.8554 15.6921 10.8316 15.69C10.8089 15.6879 10.7861 15.6856 10.7634 15.6828C10.7481 15.6811 10.7328 15.6791 10.7176 15.677C10.6889 15.6732 10.6602 15.6692 10.6317 15.6645C10.631 15.6643 10.6303 15.6642 10.6295 15.6641C9.90212 15.5416 9.25581 15.1291 8.83489 14.5363C8.82798 14.5267 8.82106 14.5173 8.81435 14.5076C8.80094 14.4881 8.78795 14.4683 8.77503 14.4484C8.76522 14.4334 8.75541 14.4184 8.74588 14.4031C8.73459 14.385 8.72351 14.3667 8.71264 14.3483C8.70212 14.3307 8.69195 14.3128 8.68186 14.295C8.67205 14.2775 8.66231 14.2603 8.65285 14.2426C8.64219 14.2227 8.63209 14.2025 8.62193 14.1823C8.6136 14.1658 8.60499 14.1495 8.59708 14.1328C8.58339 14.1041 8.57047 14.0751 8.55769 14.0459C8.54612 14.0193 8.53518 13.9924 8.52445 13.9654C8.51767 13.9486 8.51089 13.932 8.50454 13.9152C8.49558 13.8915 8.48732 13.8674 8.47906 13.8433C8.4744 13.8296 8.46953 13.8158 8.46501 13.8019C8.45647 13.7755 8.44835 13.749 8.44045 13.7223C8.36866 13.4771 8.32941 13.2183 8.32941 12.9502V11.1955H13.8353V12.9502C13.8353 13.2193 13.7958 13.4792 13.7234 13.7252C13.7161 13.7502 13.7084 13.775 13.7004 13.7997C13.6952 13.8159 13.6897 13.8318 13.6841 13.8478C13.6765 13.8698 13.669 13.8918 13.6608 13.9134C13.6531 13.9341 13.6447 13.9546 13.6365 13.9751C13.6295 13.9923 13.623 14.0096 13.6158 14.0266C13.6003 14.0629 13.584 14.0987 13.567 14.1342C13.5603 14.1483 13.5529 14.1622 13.5459 14.1762C13.5345 14.1991 13.523 14.2219 13.5109 14.2444C13.5024 14.2603 13.4935 14.2761 13.4847 14.2918C13.4736 14.3115 13.4624 14.331 13.4509 14.3504C13.4408 14.3674 13.4306 14.3843 13.4201 14.401C13.4096 14.418 13.3987 14.4347 13.3878 14.4513C13.3758 14.4697 13.3638 14.4881 13.3514 14.5061C13.3432 14.518 13.3346 14.5296 13.3262 14.5414C12.9053 15.1313 12.2608 15.5418 11.5356 15.664C11.5346 15.6642 11.5338 15.6643 11.5328 15.6645ZM18.4505 15.6645C18.4221 15.6692 18.3935 15.6732 18.3649 15.677C18.3496 15.6791 18.3342 15.6811 18.3189 15.6829C18.2962 15.6856 18.2735 15.6879 18.2507 15.69C18.2269 15.6921 18.203 15.694 18.1791 15.6954C18.1621 15.6966 18.145 15.6978 18.1279 15.6987C18.0854 15.7006 18.0428 15.7019 18 15.7019C17.9572 15.7019 17.9146 15.7006 17.8722 15.6987C17.855 15.6978 17.8379 15.6966 17.8208 15.6954C17.797 15.694 17.7731 15.6921 17.7493 15.69C17.7265 15.6879 17.7037 15.6856 17.681 15.6828C17.6658 15.6811 17.6504 15.6791 17.6353 15.677C17.6065 15.6732 17.5779 15.6692 17.5494 15.6645C17.5487 15.6643 17.548 15.6642 17.5472 15.6641C16.8198 15.5416 16.1735 15.1291 15.7525 14.5363C15.7456 14.5267 15.7387 14.5173 15.732 14.5076C15.7186 14.4881 15.7056 14.4683 15.6927 14.4484C15.6829 14.4334 15.6731 14.4184 15.6635 14.4031C15.6522 14.385 15.6412 14.3667 15.6303 14.3483C15.6198 14.3307 15.6096 14.3128 15.5995 14.295C15.5897 14.2775 15.58 14.2603 15.5705 14.2426C15.5598 14.2227 15.5497 14.2025 15.5396 14.1823C15.5312 14.1658 15.5226 14.1495 15.5147 14.1328C15.501 14.1041 15.4881 14.0751 15.4753 14.0459C15.4638 14.0193 15.4528 13.9924 15.4421 13.9654C15.4353 13.9486 15.4285 13.932 15.4222 13.9152C15.4132 13.8915 15.405 13.8674 15.3967 13.8433C15.392 13.8296 15.3872 13.8158 15.3827 13.8019C15.3741 13.7755 15.366 13.749 15.3581 13.7223C15.2863 13.4771 15.2471 13.2183 15.2471 12.9502V11.1955H20.7529V12.9502C20.7529 13.2193 20.7134 13.4792 20.6411 13.7252C20.6338 13.7502 20.626 13.775 20.618 13.7997C20.6128 13.8159 20.6073 13.8318 20.6017 13.8478C20.5942 13.8698 20.5866 13.8918 20.5784 13.9134C20.5708 13.9341 20.5624 13.9546 20.5542 13.9751C20.5472 13.9923 20.5407 14.0096 20.5334 14.0266C20.518 14.0629 20.5016 14.0987 20.4846 14.1342C20.4779 14.1483 20.4706 14.1622 20.4635 14.1762C20.4522 14.1991 20.4407 14.2219 20.4286 14.2444C20.42 14.2603 20.4112 14.2761 20.4023 14.2918C20.3912 14.3115 20.3801 14.331 20.3686 14.3504C20.3584 14.3674 20.3483 14.3843 20.3377 14.401C20.3272 14.418 20.3164 14.4347 20.3055 14.4513C20.2935 14.4697 20.2815 14.4881 20.2691 14.5061C20.2608 14.518 20.2523 14.5296 20.2439 14.5414C19.8229 15.1313 19.1784 15.5418 18.4532 15.664C18.4523 15.6642 18.4515 15.6643 18.4505 15.6645ZM27.6706 12.9502C27.6706 13.2193 27.6311 13.4792 27.5587 13.7252C27.5514 13.7502 27.5437 13.775 27.5357 13.7997C27.5305 13.8159 27.525 13.8318 27.5194 13.8478C27.5118 13.8698 27.5043 13.8918 27.4961 13.9134C27.4884 13.9341 27.48 13.9546 27.4718 13.9751C27.4648 13.9923 27.4583 14.0096 27.4511 14.0266C27.4356 14.0629 27.4193 14.0987 27.4023 14.1342C27.3956 14.1483 27.3882 14.1622 27.3812 14.1762C27.3698 14.1991 27.3583 14.2219 27.3462 14.2444C27.3377 14.2603 27.3288 14.2761 27.32 14.2918C27.3089 14.3115 27.2977 14.331 27.2862 14.3504C27.2761 14.3674 27.2659 14.3843 27.2554 14.401C27.2449 14.418 27.234 14.4347 27.2231 14.4513C27.2111 14.4697 27.1991 14.4881 27.1867 14.5061C27.1784 14.518 27.1699 14.5296 27.1615 14.5414C26.7406 15.1313 26.096 15.5418 25.3709 15.664C25.3699 15.6642 25.3691 15.6643 25.3681 15.6645C25.3398 15.6692 25.3112 15.6732 25.2826 15.677C25.2672 15.6791 25.2519 15.6811 25.2366 15.6829C25.2138 15.6856 25.1911 15.6879 25.1684 15.69C25.1446 15.6921 25.1207 15.694 25.0967 15.6954C25.0797 15.6966 25.0626 15.6978 25.0456 15.6987C25.0031 15.7006 24.9605 15.7019 24.9176 15.7019C24.8748 15.7019 24.8322 15.7006 24.7898 15.6987C24.7727 15.6978 24.7556 15.6966 24.7385 15.6954C24.7146 15.694 24.6907 15.6921 24.6669 15.69C24.6442 15.6879 24.6214 15.6856 24.5987 15.6828C24.5834 15.6811 24.5681 15.6791 24.5529 15.677C24.5242 15.6732 24.4955 15.6692 24.467 15.6645C24.4663 15.6643 24.4656 15.6642 24.4648 15.6641C23.7374 15.5416 23.0911 15.1291 22.6702 14.5363C22.6633 14.5267 22.6564 14.5173 22.6496 14.5076C22.6362 14.4881 22.6232 14.4683 22.6103 14.4484C22.6005 14.4334 22.5907 14.4184 22.5812 14.4031C22.5699 14.385 22.5588 14.3667 22.5479 14.3483C22.5374 14.3307 22.5272 14.3128 22.5172 14.295C22.5073 14.2775 22.4976 14.2603 22.4881 14.2426C22.4775 14.2227 22.4674 14.2025 22.4572 14.1823C22.4489 14.1658 22.4403 14.1495 22.4324 14.1328C22.4187 14.1041 22.4058 14.0751 22.393 14.0459C22.3814 14.0193 22.3705 13.9924 22.3597 13.9654C22.353 13.9486 22.3462 13.932 22.3398 13.9152C22.3309 13.8915 22.3226 13.8674 22.3144 13.8433C22.3097 13.8296 22.3048 13.8158 22.3003 13.8019C22.2918 13.7755 22.2836 13.749 22.2757 13.7223C22.204 13.4771 22.1647 13.2183 22.1647 12.9502V11.1955H27.6706V12.9502ZM4.64562 4.99967H31.2877L34.0679 9.78441H28.3765H21.4588H14.5412H7.62353H1.92007L4.64562 4.99967ZM4.94118 3.58854H31.1294V1.48926H4.94118V3.58854ZM35.9996 10.4839C35.9994 10.4573 35.9975 10.4311 35.9944 10.4053C35.9935 10.3977 35.9922 10.3903 35.991 10.3827C35.9877 10.3614 35.9836 10.3404 35.9784 10.3197C35.9767 10.3126 35.975 10.3056 35.973 10.2986C35.9656 10.2725 35.9572 10.2469 35.947 10.2221C35.9466 10.2211 35.9463 10.2202 35.9459 10.2192C35.9348 10.1924 35.9219 10.1668 35.9077 10.1419C35.9065 10.1399 35.9057 10.1377 35.9045 10.1356L32.5388 4.34286C32.5398 4.32663 32.5412 4.31062 32.5412 4.29411V0.783693C32.5412 0.394078 32.2251 0.078125 31.8353 0.078125H4.23529C3.84551 0.078125 3.52941 0.394078 3.52941 0.783693V4.10727L0.0924706 10.1409C0.0916235 10.1423 0.0910588 10.144 0.0902118 10.1454C0.0763059 10.1702 0.0637412 10.1959 0.0528706 10.2224C0.0514588 10.226 0.0503294 10.2296 0.0489176 10.2332C0.0400941 10.2558 0.0325412 10.2788 0.0259765 10.3024C0.0240706 10.3094 0.0222353 10.3166 0.0205412 10.3237C0.0154588 10.3448 0.0113647 10.3663 0.00818824 10.3881C0.00727059 10.3948 0.00585882 10.4014 0.00515294 10.4082C0.00197647 10.4351 0 10.4623 0 10.49V12.9502C0 14.359 0.7044 15.6057 1.77896 16.3592V30.9165C1.77896 31.3061 2.09506 31.6221 2.48485 31.6221H6.47788H18.0112H29.5447H33.5376C33.9275 31.6221 34.2435 31.3061 34.2435 30.9165V16.3433C35.3053 15.5881 36 14.3491 36 12.9502V10.49C36 10.4898 35.9999 10.4896 35.9999 10.4893C35.9999 10.4875 35.9997 10.4857 35.9996 10.4839ZM20.3549 24.223C19.9651 24.223 19.649 24.5389 19.649 24.9285V26.3453C19.649 26.735 19.9651 27.0509 20.3549 27.0509C20.7446 27.0509 21.0607 26.735 21.0607 26.3453V24.9285C21.0607 24.5389 20.7446 24.223 20.3549 24.223Z" fill="white"/>
</svg>
