<svg width="20" height="20" viewBox="0 0 20 20" fill="none" xmlns="http://www.w3.org/2000/svg">
<path d="M15.5556 11.1111C18.0102 11.1111 20 13.101 20 15.5556C20 18.0102 18.0102 20 15.5556 20C13.101 20 11.1111 18.0102 11.1111 15.5556C11.1111 13.101 13.101 11.1111 15.5556 11.1111ZM19.6746 0.325437C20.0751 0.725975 20.1059 1.35623 19.767 1.79211L19.6746 1.89679L1.89679 19.6746C1.46287 20.1085 0.759353 20.1085 0.325437 19.6746C-0.0751009 19.274 -0.105911 18.6438 0.233005 18.2079L0.325437 18.1032L18.1032 0.325437C18.5371 -0.108479 19.2406 -0.108479 19.6746 0.325437ZM15.5556 13.3333C14.3283 13.3333 13.3333 14.3283 13.3333 15.5556C13.3333 16.7829 14.3283 17.7778 15.5556 17.7778C16.7829 17.7778 17.7778 16.7829 17.7778 15.5556C17.7778 14.3283 16.7829 13.3333 15.5556 13.3333ZM4.44444 5.7949e-08C6.89904 5.7949e-08 8.88889 1.98985 8.88889 4.44444C8.88889 6.89904 6.89904 8.88889 4.44444 8.88889C1.98985 8.88889 1.27769e-08 6.89904 1.27769e-08 4.44444C1.27769e-08 1.98985 1.98985 5.7949e-08 4.44444 5.7949e-08ZM4.44444 2.22222C3.21715 2.22222 2.22222 3.21715 2.22222 4.44444C2.22222 5.67174 3.21715 6.66667 4.44444 6.66667C5.67174 6.66667 6.66667 5.67174 6.66667 4.44444C6.66667 3.21715 5.67174 2.22222 4.44444 2.22222Z" fill="white"/>
</svg>
