<svg width="58" height="50" viewBox="0 0 58 50" fill="none" xmlns="http://www.w3.org/2000/svg">
<path d="M58 14.5349H50.4124V0H41.9889V6.45995L39.4169 4.39277L36.8448 6.45995V0H28.4213V14.5349H22.6984L21.8625 10.8527C21.2838 8.13954 18.7761 6.20155 15.7539 6.20155H11.3171V8.78553H15.7539C17.5543 8.78553 19.0333 9.81912 19.3548 11.4341L24.7561 35.7235C25.1419 37.4677 26.7494 39.2765 28.8071 39.2765H52.4701V36.7571H28.8071C28.0998 36.7571 27.4568 35.9173 27.2639 35.2067L26.4922 31.7183H52.7916L58 14.5349ZM45.6541 29.1344L46.8115 17.0543H54.592L50.9268 29.1344H45.6541ZM44.2395 17.0543L43.082 29.1344H36.1375L35.0443 17.0543H44.2395ZM33.6297 29.1344H25.9135L23.2129 17.0543H32.4723L33.6297 29.1344ZM32.2151 41.3437C29.8359 41.3437 27.9069 43.2817 27.9069 45.6718C27.9069 48.062 29.8359 50 32.2151 50C34.5942 50 36.5233 48.062 36.5233 45.6718C36.5233 43.2817 34.5942 41.3437 32.2151 41.3437ZM33.9512 45.6718C33.9512 46.6408 33.1796 47.4806 32.2151 47.4806C31.2506 47.4806 30.4789 46.7054 30.4789 45.6718C30.4789 44.6382 31.2506 43.8631 32.2151 43.8631C33.1796 43.8631 33.9512 44.7028 33.9512 45.6718ZM46.6829 41.3437C44.3038 41.3437 42.3747 43.2817 42.3747 45.6718C42.3747 48.062 44.3038 50 46.6829 50C49.0621 50 50.9911 48.062 50.9911 45.6718C50.9911 43.2817 49.0621 41.3437 46.6829 41.3437ZM48.4834 45.6718C48.4834 46.6408 47.7118 47.4806 46.7472 47.4806C45.7827 47.4806 45.0111 46.7054 45.0111 45.6718C45.0111 44.6382 45.7827 43.8631 46.7472 43.8631C47.6474 43.8631 48.4834 44.7028 48.4834 45.6718ZM7.58758 20.2196H15.1752V22.739H7.58758V20.2196ZM12.0244 17.7003H0V15.1809H12.0244V17.7003Z" fill="#3B5239"/>
</svg>
