<?xml version="1.0" encoding="utf-8"?>
<!-- Generator: Adobe Illustrator 24.0.0, SVG Export Plug-In . SVG Version: 6.00 Build 0)  -->
<svg version="1.1" id="Camada_1" xmlns="http://www.w3.org/2000/svg" xmlns:xlink="http://www.w3.org/1999/xlink" x="0px" y="0px"
	 viewBox="0 0 114 114" style="enable-background:new 0 0 114 114;" xml:space="preserve">
<style type="text/css">
	.st0{fill:#147834;}
</style>
<path class="st0" d="M181.8,966.6c-6.1-11.6-19-18.5-34.5-18.5c-2.5,0-5,0.2-7.6,0.5c0,0-0.1,0-0.1,0c-6.9,1-13.8,3.2-20.4,6.7
	c-11.6,6.1-20.4,15.2-24.6,25.6c-4.3,10.4-3.8,21.4,1.2,31c6.4,12.2,19.2,19.5,34.1,19.5c8.5,0,17.4-2.4,25.8-6.8
	c11.7-6.2,20.9-15.5,25.9-26.1C186.7,987.5,186.8,976.1,181.8,966.6z M170.1,999.6l-2.2-3c-1.6-2.1-4.5-2.5-6.6-0.9
	c-2.1,1.6-2.5,4.5-0.9,6.6l3.6,4.8c-3.6,3.5-7.9,6.7-12.7,9.3c-6.3,3.3-12.8,5.2-19,5.6l-8.9-13.2c-1.5-2.2-4.4-2.7-6.6-1.3
	c-2.2,1.5-2.7,4.4-1.3,6.6l4.4,6.5c-6.9-2.1-12.5-6.6-15.8-13c-3.7-7-4-15.2-0.8-23c3.4-8.3,10.6-15.7,20.3-20.8
	c0.4-0.2,0.8-0.4,1.3-0.6l8.1,11.1c0.9,1.3,2.4,1.9,3.8,1.9c1,0,1.9-0.3,2.8-0.9c2.1-1.5,2.6-4.5,1-6.6l-6.6-9.1
	c1.5-0.4,3-0.8,4.5-1.1l10.4,13c0.9,1.2,2.3,1.8,3.7,1.8c1,0,2.1-0.3,3-1c2-1.6,2.4-4.6,0.7-6.6l-6.3-7.9
	c10.8,0.7,19.4,5.6,23.5,13.3C177.9,979.6,176.3,990.2,170.1,999.6z"/>
<path id="XMLID_215_" class="st0" d="M34.4,86.3c0,12.5,10.1,22.6,22.6,22.6s22.6-10.1,22.6-22.6l0-1.1c0-9.5,0.1-29.1-8.9-39.1
	c5.2-10.6,7.9-21.4,7.5-29.7c0,0,0,0,0,0c0-0.2,0-0.3-0.1-0.5c0,0,0-0.1,0-0.1c0-0.1-0.1-0.3-0.2-0.4c0,0,0-0.1,0-0.1
	c-0.1-0.1-0.1-0.2-0.2-0.3c0-0.1-0.1-0.1-0.1-0.2c0,0,0,0,0,0c-0.1-0.1-0.2-0.2-0.2-0.2c0,0-0.1-0.1-0.1-0.1
	c-0.1-0.1-0.2-0.2-0.4-0.3c0,0-0.1-0.1-0.1-0.1c-0.1-0.1-0.3-0.1-0.4-0.2c0,0-0.1,0-0.1,0c-0.2-0.1-0.3-0.1-0.5-0.1c0,0,0,0,0,0
	c-0.8-0.1-1.5,0.1-2.2,0.5c0,0,0,0,0,0c0,0,0,0-0.1,0c-3.1,2.4-6.2,5.6-9.1,9.5c-0.9-6.3-2.5-12.1-4.7-16.6c0,0,0,0,0-0.1
	c0,0,0,0,0-0.1c-0.4-0.7-1-1.2-1.7-1.4c0,0,0,0-0.1,0c-0.2,0-0.3-0.1-0.5-0.1c0,0-0.1,0-0.1,0c-0.2,0-0.3,0-0.5,0c0,0-0.1,0-0.1,0
	c-0.2,0-0.3,0-0.5,0.1c0,0-0.1,0-0.1,0c-0.1,0-0.2,0.1-0.4,0.1c0,0,0,0-0.1,0c0,0-0.1,0-0.1,0.1c-0.1,0.1-0.3,0.2-0.4,0.2
	c0,0,0,0-0.1,0c-0.1,0.1-0.3,0.2-0.4,0.4c0,0,0,0.1-0.1,0.1c-0.1,0.1-0.2,0.2-0.3,0.4c0,0,0,0,0,0c-2.3,4.3-4.1,9.9-5.2,16.2
	c-2.6-3.3-5.3-6.1-8.1-8.2c0,0,0,0-0.1,0c0,0,0,0-0.1,0c-0.7-0.5-1.4-0.6-2.2-0.5c0,0,0,0-0.1,0c-0.2,0-0.3,0.1-0.5,0.1
	c0,0-0.1,0-0.1,0c-0.1,0.1-0.3,0.1-0.4,0.2c0,0-0.1,0-0.1,0.1c-0.1,0.1-0.2,0.2-0.4,0.3c0,0-0.1,0.1-0.1,0.1
	c-0.1,0.1-0.2,0.2-0.2,0.2c0,0,0,0,0,0c0,0-0.1,0.1-0.1,0.2c-0.1,0.1-0.1,0.2-0.2,0.3c0,0,0,0.1,0,0.1c-0.1,0.1-0.1,0.3-0.2,0.4
	c0,0,0,0.1,0,0.1c0,0.2-0.1,0.3-0.1,0.5c0,0,0,0,0,0c-0.4,8.2,2.3,19,7.4,29.5c-2.4,3-4.5,7.2-6.2,13C34.7,70.1,34.4,81.7,34.4,86.3
	z M40.6,89.3l5.9-2.8l7.7,3.6l-7.7,3.6l-5.5-2.6C40.9,90.5,40.7,89.9,40.6,89.3z M57,52.2l7.7,3.6L57,59.4l-7.7-3.6L57,52.2z
	 M46.5,54.5L46,54.2c1.1-2.2,2.4-4.1,3.8-5.4l4.4,2L46.5,54.5z M59.8,50.9l5-2.3c0.3,0.3,0.7,0.6,1,0.9c1.2,1.2,2.3,2.7,3.1,4.4
	l-1.4,0.7L59.8,50.9z M64.7,65.6L57,69.2l-7.7-3.6L57,62L64.7,65.6z M64.7,75.4L57,79l-7.7-3.6l7.7-3.6L64.7,75.4z M64.7,85.2
	L57,88.8l-7.7-3.6l7.7-3.6L64.7,85.2z M64.7,95L57,98.6L49.3,95l7.7-3.6L64.7,95z M43,95.3c-0.2-0.3-0.4-0.6-0.6-0.9l1.3,0.6
	L43,95.3z M44.5,97.3l2.1-1l7.7,3.6l-3.7,1.7C48.2,100.6,46.1,99.1,44.5,97.3z M57,103c-1.1,0-2.1-0.1-3.1-0.3l3.1-1.5l3.1,1.5
	C59.1,102.9,58.1,103,57,103z M63.6,101.6l-3.7-1.7l7.7-3.6l2.1,1C67.9,99.1,65.9,100.6,63.6,101.6z M71,95.3L70.3,95l1.3-0.6
	C71.4,94.7,71.2,95,71,95.3z M73,91.1l-5.5,2.6l-7.7-3.6l7.7-3.6l5.9,2.8C73.3,89.9,73.2,90.5,73,91.1z M73.7,85.2l0,1.1
	c0,0.2,0,0.3,0,0.5l-3.4-1.6l3.4-1.6C73.7,84.2,73.7,84.7,73.7,85.2z M73.7,81l-6.2,2.9l-7.7-3.6l7.7-3.6l6.1,2.9
	C73.7,80.1,73.7,80.5,73.7,81z M73.6,76.9l-3.3-1.5l3.1-1.4C73.5,75,73.5,75.9,73.6,76.9z M73.2,71.4l-5.7,2.7l-7.7-3.6l7.7-3.6
	l5.5,2.6C73.1,70.1,73.2,70.8,73.2,71.4z M72.7,66.7l-2.3-1.1l2-0.9C72.5,65.3,72.6,66,72.7,66.7z M70.9,58.7c0.4,1.2,0.7,2.4,1,3.6
	l-4.3,2l-7.7-3.6l7.7-3.6L70.9,58.7z M61.2,40.1c3.1-6.2,6.8-11.9,10.6-16.2c-0.9,5.6-2.9,12-5.8,18.3c-1.5-0.9-3.2-1.5-4.9-1.8
	C61.1,40.3,61.2,40.2,61.2,40.1z M62.4,47.1L57,49.6l-5-2.3c1.5-0.9,3.2-1.3,5-1.3c0,0,0,0,0,0C59,45.9,60.8,46.3,62.4,47.1z
	 M54.3,30.2c0.4-5,1.3-9.7,2.5-13.7c1.2,4.4,2,9.5,2.3,14.9c-0.7,1.2-1.4,2.5-2.1,3.8c-0.9-1.6-1.8-3.2-2.8-4.8
	C54.3,30.3,54.3,30.3,54.3,30.2z M42.8,24.7c3.8,4.2,7.4,9.7,10.4,15.7c-1.6,0.4-3.2,1-4.8,2.1C45.6,36.4,43.6,30.2,42.8,24.7z
	 M43.3,61.4c0.3-1.2,0.7-2.2,1-3.3l2.1-1l7.7,3.6l-7.7,3.6L43,62.6C43.1,62.2,43.2,61.8,43.3,61.4z M42.4,65l1.3,0.6l-1.6,0.7
	C42.2,65.9,42.3,65.4,42.4,65z M41.6,69.2l4.9-2.3l7.7,3.6l-7.7,3.6l-5.2-2.4C41.4,70.8,41.5,70,41.6,69.2z M41,74.1l2.7,1.3l-3,1.4
	C40.8,75.9,40.9,75,41,74.1z M40.5,79.5l6-2.8l7.7,3.6l-7.7,3.6l-6.1-2.8C40.5,80.6,40.5,80,40.5,79.5z M40.4,83.6l3.3,1.6l-3.4,1.6
	c0-0.2,0-0.3,0-0.5C40.3,85.6,40.3,84.7,40.4,83.6z"/>
</svg>
