<?xml version="1.0" encoding="utf-8"?>
<!-- Generator: Adobe Illustrator 24.0.0, SVG Export Plug-In . SVG Version: 6.00 Build 0)  -->
<svg version="1.1" id="Camada_1" xmlns="http://www.w3.org/2000/svg" xmlns:xlink="http://www.w3.org/1999/xlink" x="0px" y="0px"
	 viewBox="0 0 114 114" style="enable-background:new 0 0 114 114;" xml:space="preserve">
<style type="text/css">
	.st0{fill:#147834;}
</style>
<path id="XMLID_33_" class="st0" d="M38.4,38c-2.6,0.3-5.8,0.6-9,3.5c-6.8,6.3-7,9.8-7.7,21.3c-0.1,1.3-0.2,2.8-0.3,4.4
	c-0.3,5-4.6,10.7-8.7,16.3C9.3,88.2,6,92.6,4.5,97.2c-0.3,0.9-0.2,1.9,0.3,2.7c0.1,0.3,0.2,0.5,0.3,0.8c0.6,1.1,1.8,1.7,3,1.7
	c0.1,0,0.1,0,0.2,0c4.8-0.2,10-2.3,15.4-4.5c6.4-2.6,12.9-5.3,17.9-4.3c1.6,0.3,3,0.6,4.3,0.8c11.4,2.2,14.8,2.9,22.6-2.1
	c3.6-2.3,4.7-5.3,5.6-7.8c0.9-2.4,1.7-4.4,4.7-6.2c1.4-0.9,2.3-1,2.8-1c1.9,1.3,3.8,2.4,5.6,3.1c1.4,0.7,2.9,1,4.3,1
	c2.6,0.2,4.9-0.2,6.9-1.4c4.1-2.4,8.1-8.6,10.1-15.8c2.4-8.5,1.8-16.6-1.9-22.9c-2.4-4.1-6.1-7.4-10.9-9.8c-1-5-3.2-9.9-7-13.7
	C77.2,6.1,55.7,9.7,49.4,16c0,0,0,0-0.1,0.1c0,0,0,0,0,0c-5.4,5.4-3.8,10.1-2.7,13.2l0.1,0.4c0.1,0.6,0.3,1.2,0.5,1.8
	c0.1,0.7,0.2,1.7-1.6,3.5C43.1,37.5,41,37.7,38.4,38z M96.5,40.2c1.6,1.2,3.1,2.8,4.2,4.7c3.6,6.2,2.3,13.5,1.2,17.4
	c-1.7,5.9-4.8,10.4-6.9,11.7c-0.7,0.4-1.6,0.6-2.7,0.5c-0.2,0-0.3,0-0.5,0c-0.4,0-0.9-0.1-1.4-0.4c-0.1-0.1-0.2-0.1-0.4-0.2
	c-1.5-0.5-3.1-1.4-4.7-2.6c-0.3-0.3-0.7-0.4-1.1-0.6c-2.8-0.8-5.7-0.3-8.9,1.6c-5.1,3.1-6.6,6.9-7.7,9.7c-0.9,2.2-1.3,3.4-2.9,4.4
	c-5.4,3.5-6.5,3.3-17.4,1.1C46,87.3,44.6,87,43,86.7c-4-0.8-8.2-0.1-12.4,1.2c2.9-1.8,5.8-3,8.4-3.2c1.6-0.1,3-0.2,4.4-0.3
	c11.6-0.7,15.1-0.9,21.3-7.7c2.9-3.1,3.2-6.4,3.5-9c0.3-2.6,0.5-4.6,3-7.2c1.2-1.2,2-1.6,2.5-1.6c2.2,0.8,4.3,1.3,6.2,1.6
	c1.6,0.3,3,0.3,4.4-0.1c2.5-0.4,4.6-1.5,6.3-3.1C93.7,54.2,96.1,47.6,96.5,40.2z M50.5,40c3.1-3.1,4.3-6.4,3.6-10.1
	c0-0.1-0.1-0.3-0.1-0.4c-0.2-0.6-0.3-1.1-0.5-1.7c0-0.1-0.1-0.2-0.1-0.3l-0.2-0.6c-0.9-2.6-1.2-3.6,1-5.8l0,0c0,0,0.1-0.1,0.1-0.1
	c0,0,0,0,0,0c3.9-3.8,21-6.7,29.5,1.8c8.5,8.5,5.6,25.7,1.8,29.5c-0.6,0.6-1.5,1-2.5,1.1c-0.2,0-0.3,0.1-0.4,0.1
	c-0.4,0.1-0.9,0.1-1.5,0c-0.1,0-0.3,0-0.4-0.1c-1.6-0.2-3.3-0.6-5.2-1.4c-0.4-0.2-0.8-0.3-1.3-0.3c-3-0.1-5.6,1.2-8.2,3.8
	c-4.2,4.3-4.7,8.4-5,11.3c-0.3,2.4-0.4,3.6-1.7,5c-4.3,4.7-5.5,4.8-16.6,5.5c-1.3,0.1-2.8,0.2-4.4,0.3c-3.6,0.2-7,1.6-10.3,3.5
	l6.4-6.3c0.2-0.1,0.4-0.3,0.5-0.5c0,0,0,0,0-0.1l1-1c0.2-0.1,0.4-0.2,0.6-0.3c7.7-5.7,17.1-4.7,17.2-4.6c1.2,0.1,2.2-0.7,2.4-1.8
	c0.1-1.2-0.7-2.2-1.8-2.4c-0.3,0-4.5-0.5-9.8,0.7l14.2-14.1c0.1,0,0.2-0.1,0.3-0.2c7.2-5.4,16-4.4,16.1-4.4c1.2,0.1,2.2-0.7,2.4-1.8
	c0.1-1.2-0.7-2.2-1.8-2.4c-0.3,0-3.9-0.5-8.7,0.5l8.4-8.3c0.8-0.8,0.8-2.2,0-3c-0.8-0.8-2.2-0.8-3,0l-9.2,9.1
	c1.6-6.9,0.6-12.7,0.5-13.1c-0.2-1.1-1.3-1.9-2.5-1.7c-1.1,0.2-1.9,1.3-1.7,2.5c0,0.1,2,11.3-4.4,20.2c0,0.1-0.1,0.1-0.1,0.2
	L50.5,53c0.1-2.1-0.1-3.6-0.2-3.7c-0.2-1.1-1.3-1.9-2.4-1.7c-1.1,0.2-1.9,1.3-1.7,2.4c0,0.1,0.9,5.2-2,9.3l-5.1,5.1
	c0.8-4.8,0.1-8.6,0.1-8.8c-0.2-1.1-1.3-1.9-2.5-1.7c-1.1,0.2-1.9,1.3-1.7,2.5c0,0.1,1.5,8.5-3.2,15.2l-7.2,7.2
	c2.1-3.5,3.6-7.2,3.9-11c0.1-1.6,0.2-3.1,0.3-4.4c0.7-11.1,0.7-12.2,5.5-16.6c1.4-1.3,2.6-1.4,5-1.7C42.2,44.7,46.2,44.2,50.5,40z"
	/>
</svg>
