<?xml version="1.0" encoding="utf-8"?>
<!-- Generator: Adobe Illustrator 24.0.0, SVG Export Plug-In . SVG Version: 6.00 Build 0)  -->
<svg version="1.1" id="Camada_1" xmlns="http://www.w3.org/2000/svg" xmlns:xlink="http://www.w3.org/1999/xlink" x="0px" y="0px"
	 viewBox="0 0 114 114" style="enable-background:new 0 0 114 114;" xml:space="preserve">
<style type="text/css">
	.st0{fill:#147834;}
</style>
<path class="st0" d="M181.8,966.6c-6.1-11.6-19-18.5-34.5-18.5c-2.5,0-5,0.2-7.6,0.5c0,0-0.1,0-0.1,0c-6.9,1-13.8,3.2-20.4,6.7
	c-11.6,6.1-20.4,15.2-24.6,25.6c-4.3,10.4-3.8,21.4,1.2,31c6.4,12.2,19.2,19.5,34.1,19.5c8.5,0,17.4-2.4,25.8-6.8
	c11.7-6.2,20.9-15.5,25.9-26.1C186.7,987.5,186.8,976.1,181.8,966.6z M170.1,999.6l-2.2-3c-1.6-2.1-4.5-2.5-6.6-0.9
	c-2.1,1.6-2.5,4.5-0.9,6.6l3.6,4.8c-3.6,3.5-7.9,6.7-12.7,9.3c-6.3,3.3-12.8,5.2-19,5.6l-8.9-13.2c-1.5-2.2-4.4-2.7-6.6-1.3
	c-2.2,1.5-2.7,4.4-1.3,6.6l4.4,6.5c-6.9-2.1-12.5-6.6-15.8-13c-3.7-7-4-15.2-0.8-23c3.4-8.3,10.6-15.7,20.3-20.8
	c0.4-0.2,0.8-0.4,1.3-0.6l8.1,11.1c0.9,1.3,2.4,1.9,3.8,1.9c1,0,1.9-0.3,2.8-0.9c2.1-1.5,2.6-4.5,1-6.6l-6.6-9.1
	c1.5-0.4,3-0.8,4.5-1.1l10.4,13c0.9,1.2,2.3,1.8,3.7,1.8c1,0,2.1-0.3,3-1c2-1.6,2.4-4.6,0.7-6.6l-6.3-7.9
	c10.8,0.7,19.4,5.6,23.5,13.3C177.9,979.6,176.3,990.2,170.1,999.6z"/>
<path id="XMLID_48_" class="st0" d="M86.3,30.8c-0.2-0.5-0.7-0.9-1.2-1.1l-2.8-1.1c-0.5-0.2-1.2-0.2-1.7,0.1
	c-0.5,0.3-0.9,0.7-1.1,1.3c-0.5,1.6-2.3,5.1-4.1,5.3c0,0,0,0,0,0c-5.1,0.1-8.6,4.8-12.7,10.2c-2.7,3.6-5.8,7.7-9.8,11
	C43.5,64,36.8,66.5,32.4,68.2c-4.2,1.6-7.5,2.8-7.6,7.5c-0.1,2.8,2,5.3,5.6,6.8c2.6,1.2,5.9,1.7,9.4,1.7c2.6,0,5.3-0.3,8-1
	c7.9-1.8,15.6-6.2,22.4-12.7C82.3,59,87.5,48.4,84.6,41.3c-0.4-2.7,1.1-7.3,1.7-8.9C86.5,31.9,86.5,31.3,86.3,30.8z M67.1,67.6
	C53.8,80.3,39.8,81.4,32.9,79c12.7-1.7,23.5-9.4,30.6-15.9c8.6-8,13.9-16.1,13.9-16.1c0.3-0.4,0.1-0.9-0.3-1.2
	c-0.4-0.3-0.9-0.1-1.2,0.3c-0.2,0.3-19.6,29.9-45.9,31.6C29.4,77,29,76.4,29,75.8c0-1.7,0.5-2,4.8-3.6c4.7-1.8,11.8-4.4,21.8-12.6
	c4.3-3.6,7.6-7.9,10.5-11.7c3.5-4.6,6.4-8.5,9.5-8.5c0,0,0,0,0,0c0.2,0,0.3,0,0.4,0c2-0.3,3.5-1.5,4.7-2.9c-0.4,1.9-0.6,4-0.3,5.8
	c0,0,0,0.1,0,0.1c0,0.1,0.1,0.3,0.1,0.4C82.4,46.8,79.8,55.5,67.1,67.6z"/>
</svg>
