<?xml version="1.0" encoding="utf-8"?>
<!-- Generator: Adobe Illustrator 24.0.0, SVG Export Plug-In . SVG Version: 6.00 Build 0)  -->
<svg version="1.1" id="Camada_1" xmlns="http://www.w3.org/2000/svg" xmlns:xlink="http://www.w3.org/1999/xlink" x="0px" y="0px"
	 viewBox="0 0 114 114" style="enable-background:new 0 0 114 114;" xml:space="preserve">
<style type="text/css">
	.st0{fill:#147834;}
</style>
<path class="st0" d="M181.8,966.6c-6.1-11.6-19-18.5-34.5-18.5c-2.5,0-5,0.2-7.6,0.5c0,0-0.1,0-0.1,0c-6.9,1-13.8,3.2-20.4,6.7
	c-11.6,6.1-20.4,15.2-24.6,25.6c-4.3,10.4-3.8,21.4,1.2,31c6.4,12.2,19.2,19.5,34.1,19.5c8.5,0,17.4-2.4,25.8-6.8
	c11.7-6.2,20.9-15.5,25.9-26.1C186.7,987.5,186.8,976.1,181.8,966.6z M170.1,999.6l-2.2-3c-1.6-2.1-4.5-2.5-6.6-0.9
	c-2.1,1.6-2.5,4.5-0.9,6.6l3.6,4.8c-3.6,3.5-7.9,6.7-12.7,9.3c-6.3,3.3-12.8,5.2-19,5.6l-8.9-13.2c-1.5-2.2-4.4-2.7-6.6-1.3
	c-2.2,1.5-2.7,4.4-1.3,6.6l4.4,6.5c-6.9-2.1-12.5-6.6-15.8-13c-3.7-7-4-15.2-0.8-23c3.4-8.3,10.6-15.7,20.3-20.8
	c0.4-0.2,0.8-0.4,1.3-0.6l8.1,11.1c0.9,1.3,2.4,1.9,3.8,1.9c1,0,1.9-0.3,2.8-0.9c2.1-1.5,2.6-4.5,1-6.6l-6.6-9.1
	c1.5-0.4,3-0.8,4.5-1.1l10.4,13c0.9,1.2,2.3,1.8,3.7,1.8c1,0,2.1-0.3,3-1c2-1.6,2.4-4.6,0.7-6.6l-6.3-7.9
	c10.8,0.7,19.4,5.6,23.5,13.3C177.9,979.6,176.3,990.2,170.1,999.6z"/>
<path id="XMLID_120_" class="st0" d="M59.5,36.9c-4,3-8.1,6.1-11.8,8.3c-0.7,0.4-1.3,0.8-2,1.2C37.8,50.9,27,57.1,20.4,66.6
	c-7.6,11-7.1,22.2,1.4,30.7c4.5,4.5,9.7,6.7,15.3,6.7c4.6,0,9.4-1.5,14.2-4.5c10-6.3,16.6-17.8,21.4-26.1c0.4-0.7,0.8-1.3,1.1-1.9
	c2.1-3.7,5.3-7.8,8.3-11.8c7.6-10,16-21.1,11.3-29.5c8.9-10.5,4-18.5,3.7-18.9c-1-1.5-3-2-4.6-1c-1.5,1-2,3-1,4.6
	c0,0,2.4,4.2-2.9,10.7C80.4,21,69.4,29.4,59.5,36.9z M76.9,55.6c-3.1,4.1-6.4,8.4-8.7,12.4h0c-0.4,0.6-0.7,1.3-1.1,2
	c-4.5,7.8-10.6,18.4-19.2,23.8c-5.6,3.6-13.9,6.2-21.4-1.3c-7.8-7.8-4.7-16.4-0.6-22.3c5.7-8.2,15.7-14,23.1-18.2
	c0.7-0.4,1.4-0.8,2.1-1.2c4-2.3,8.3-5.6,12.4-8.7c2.2-1.6,4.3-3.3,6.4-4.8l6.4,0.5L75,42c0,0,0,0,0,0c0,0.1-0.1,0.2-0.1,0.3
	c0,0.1,0,0.1,0,0.2c0,0,0,0.1,0,0.1c0,0.1,0,0.2,0.1,0.3c0,0,0,0,0,0c0,0,0,0,0,0c0,0.1,0.1,0.2,0.1,0.2c0,0,0.1,0.1,0.1,0.1
	c0,0,0.1,0.1,0.1,0.1c0,0,0.1,0.1,0.1,0.1c0,0,0.1,0.1,0.1,0.1c0,0,0.1,0.1,0.1,0.1c0,0,0.1,0.1,0.1,0.1c0.1,0,0.1,0.1,0.2,0.1
	c0,0,0.1,0,0.1,0c0,0,0,0,0,0c0,0,0,0,0,0c0.1,0,0.2,0,0.3,0.1c0,0,0.1,0,0.1,0c0,0,0.1,0,0.1,0c0,0,0.1,0,0.1,0c0,0,0.1,0,0.1,0
	c0.1,0,0.2,0,0.2,0c0,0,0,0,0,0l4.1-1.3l0.5,6.4C80.2,51.3,78.6,53.5,76.9,55.6z M84.7,44.8l-0.4-4.3c0-0.5-0.3-0.9-0.7-1.2
	c-0.4-0.3-0.9-0.4-1.4-0.2L79.1,40l0.9-3.1c0.1-0.5,0.1-1-0.2-1.4c-0.3-0.4-0.7-0.7-1.2-0.7l-4.3-0.4c3.4-2.1,6.6-3.5,9.1-3.5
	c1.4,0,2.5,0.4,3.5,1.4C89.5,35,87.9,39.6,84.7,44.8z"/>
</svg>
