<?xml version="1.0" encoding="utf-8"?>
<!-- Generator: Adobe Illustrator 24.0.0, SVG Export Plug-In . SVG Version: 6.00 Build 0)  -->
<svg version="1.1" id="Camada_1" xmlns="http://www.w3.org/2000/svg" xmlns:xlink="http://www.w3.org/1999/xlink" x="0px" y="0px"
	 viewBox="0 0 114 114" style="enable-background:new 0 0 114 114;" xml:space="preserve">
<style type="text/css">
	.st0{fill:#147834;}
</style>
<path class="st0" d="M181.8,966.6c-6.1-11.6-19-18.5-34.5-18.5c-2.5,0-5,0.2-7.6,0.5c0,0-0.1,0-0.1,0c-6.9,1-13.8,3.2-20.4,6.7
	c-11.6,6.1-20.4,15.2-24.6,25.6c-4.3,10.4-3.8,21.4,1.2,31c6.4,12.2,19.2,19.5,34.1,19.5c8.5,0,17.4-2.4,25.8-6.8
	c11.7-6.2,20.9-15.5,25.9-26.1C186.7,987.5,186.8,976.1,181.8,966.6z M170.1,999.6l-2.2-3c-1.6-2.1-4.5-2.5-6.6-0.9
	c-2.1,1.6-2.5,4.5-0.9,6.6l3.6,4.8c-3.6,3.5-7.9,6.7-12.7,9.3c-6.3,3.3-12.8,5.2-19,5.6l-8.9-13.2c-1.5-2.2-4.4-2.7-6.6-1.3
	c-2.2,1.5-2.7,4.4-1.3,6.6l4.4,6.5c-6.9-2.1-12.5-6.6-15.8-13c-3.7-7-4-15.2-0.8-23c3.4-8.3,10.6-15.7,20.3-20.8
	c0.4-0.2,0.8-0.4,1.3-0.6l8.1,11.1c0.9,1.3,2.4,1.9,3.8,1.9c1,0,1.9-0.3,2.8-0.9c2.1-1.5,2.6-4.5,1-6.6l-6.6-9.1
	c1.5-0.4,3-0.8,4.5-1.1l10.4,13c0.9,1.2,2.3,1.8,3.7,1.8c1,0,2.1-0.3,3-1c2-1.6,2.4-4.6,0.7-6.6l-6.3-7.9
	c10.8,0.7,19.4,5.6,23.5,13.3C177.9,979.6,176.3,990.2,170.1,999.6z"/>
<path id="XMLID_106_" class="st0" d="M11.4,45.5c0,7,5.2,12.7,11.9,13.7c2.2,5.3,6.5,8.7,11.4,8.7c2.5,0,4.9-0.9,6.9-2.6
	c9,19.4,7.8,35.1,7.8,35.3c-0.1,1,0.2,1.9,0.9,2.6c0.6,0.7,1.6,1.1,2.5,1.1h14c0.9,0,1.8-0.4,2.5-1.1c0.6-0.7,1-1.6,0.9-2.6
	c0-0.2-1.2-20.8,6.5-33.2c0.9,0.3,1.9,0.4,2.8,0.4c0.2,0,0.5,0,0.7,0c4.8-0.3,8.9-4.1,10.7-9.5c2.9-0.6,5.5-2.2,7.5-4.5
	c2.4-2.8,3.6-6.3,3.3-10c-0.4-5.6-4.1-10.2-9.1-12c0-0.2,0-0.4,0-0.6c-0.6-7.7-6.7-13.2-16.3-14.8c-4.7-0.8-7.9,0.5-10.1,2.1
	c-2.8-5.4-8.5-9.2-15-9.2c-5.5,0-10.5,2.6-13.6,7c-0.7-0.1-1.4-0.1-2-0.1c-8.8,0-16,7.2-16,16c0,0.2,0,0.4,0,0.6
	C14.7,35,11.4,39.9,11.4,45.5z M63.2,97.4h-7c-0.1-5.6-1.1-17.2-6.7-30.9c0,0,0,0,0,0c2.1,0,4.1-0.4,6-1.1c2.9,1.6,6.3,2.4,9.6,2.1
	c1.4-0.1,2.7-0.4,4-0.8C63.9,77.5,63.2,91,63.2,97.4z M75.2,23.3c3.8,0.6,10.1,2.5,10.6,8.5c0.1,0.7,0,1.4-0.1,2.2
	c-0.2,0.9,0.1,1.9,0.7,2.6c0.6,0.7,1.4,1.2,2.4,1.3c3.4,0.3,6,3,6.2,6.4c0.1,1.9-0.5,3.7-1.7,5.1c-1.2,1.4-2.9,2.3-4.8,2.4
	c0,0-0.1,0-0.1,0c0,0,0,0-0.1,0l-0.2,0c-1.6,0-3,1.2-3.3,2.8c-0.7,3.6-2.8,6.3-5.1,6.5c-1.9,0.1-3.4-1.3-4.2-2.2
	c-0.6-0.7-1.4-1.2-2.3-1.2c-0.9-0.1-1.8,0.2-2.5,0.8c-1.7,1.4-3.8,2.3-6,2.4c-0.7,0.1-1.4,0-2.1-0.1c1.3-1.4,2.3-3.1,3.1-4.9
	c8.7-0.5,15.6-7.8,15.6-16.6c0-7-4.3-13-10.4-15.4C71.9,23.3,73.3,23,75.2,23.3z M23.9,38.6c0.9-0.2,1.7-0.7,2.3-1.5
	c0.5-0.8,0.7-1.8,0.5-2.7c-0.2-0.7-0.3-1.5-0.3-2.2c0-5,4.1-9.2,9.2-9.2c0.9,0,1.8,0.1,2.7,0.4c1.6,0.5,3.3-0.2,4.1-1.7
	c1.7-3.4,5.1-5.5,8.9-5.5c5.4,0,9.9,4.4,10,9.8c0,1.9,1.6,3.3,3.4,3.3c0,0,0,0,0.1,0c5.4,0,9.8,4.4,9.8,9.8c0,5.4-4.4,9.8-9.8,9.8
	c-0.3,0-0.7,0-1.1-0.1c-1.7-0.2-3.3,0.9-3.7,2.6c-1.1,4.8-5.4,8.1-10.3,8.1c-2.2,0-4.3-0.7-6.2-2c-0.7-0.5-1.7-0.7-2.6-0.6
	c-0.9,0.2-1.7,0.7-2.2,1.4c-0.7,0.9-2.1,2.5-4,2.5c-2.4,0-4.7-2.5-5.6-6.1c-0.4-1.5-1.8-2.6-3.3-2.6c-0.1,0-0.1,0-0.2,0l-0.2,0
	c-0.1,0-0.1,0-0.2,0c-3.8,0-7-3.1-7-7C18.2,42.1,20.6,39.2,23.9,38.6z"/>
</svg>
