<?xml version="1.0" encoding="utf-8"?>
<!-- Generator: Adobe Illustrator 24.0.0, SVG Export Plug-In . SVG Version: 6.00 Build 0)  -->
<svg version="1.1" id="Camada_1" xmlns="http://www.w3.org/2000/svg" xmlns:xlink="http://www.w3.org/1999/xlink" x="0px" y="0px"
	 viewBox="0 0 114 114" style="enable-background:new 0 0 114 114;" xml:space="preserve">
<style type="text/css">
	.st0{fill:#147834;}
</style>
<path class="st0" d="M181.8,966.6c-6.1-11.6-19-18.5-34.5-18.5c-2.5,0-5,0.2-7.6,0.5c0,0-0.1,0-0.1,0c-6.9,1-13.8,3.2-20.4,6.7
	c-11.6,6.1-20.4,15.2-24.6,25.6c-4.3,10.4-3.8,21.4,1.2,31c6.4,12.2,19.2,19.5,34.1,19.5c8.5,0,17.4-2.4,25.8-6.8
	c11.7-6.2,20.9-15.5,25.9-26.1C186.7,987.5,186.8,976.1,181.8,966.6z M170.1,999.6l-2.2-3c-1.6-2.1-4.5-2.5-6.6-0.9
	c-2.1,1.6-2.5,4.5-0.9,6.6l3.6,4.8c-3.6,3.5-7.9,6.7-12.7,9.3c-6.3,3.3-12.8,5.2-19,5.6l-8.9-13.2c-1.5-2.2-4.4-2.7-6.6-1.3
	c-2.2,1.5-2.7,4.4-1.3,6.6l4.4,6.5c-6.9-2.1-12.5-6.6-15.8-13c-3.7-7-4-15.2-0.8-23c3.4-8.3,10.6-15.7,20.3-20.8
	c0.4-0.2,0.8-0.4,1.3-0.6l8.1,11.1c0.9,1.3,2.4,1.9,3.8,1.9c1,0,1.9-0.3,2.8-0.9c2.1-1.5,2.6-4.5,1-6.6l-6.6-9.1
	c1.5-0.4,3-0.8,4.5-1.1l10.4,13c0.9,1.2,2.3,1.8,3.7,1.8c1,0,2.1-0.3,3-1c2-1.6,2.4-4.6,0.7-6.6l-6.3-7.9
	c10.8,0.7,19.4,5.6,23.5,13.3C177.9,979.6,176.3,990.2,170.1,999.6z"/>
<path id="XMLID_71_" class="st0" d="M23.1,60.7c0,15.9,10.8,29.3,25.5,33.3l-3,1.8c-1.4,0.9-1.9,2.8-1,4.2c0.6,0.9,1.6,1.5,2.6,1.5
	c0.5,0,1.1-0.1,1.6-0.4l5.7-3.5v2.7c0,1.7,1.4,3.1,3.1,3.1c1.7,0,3.1-1.4,3.1-3.1v-2.7l5.7,3.5c0.5,0.3,1,0.4,1.6,0.4
	c1,0,2-0.5,2.6-1.5c0.9-1.4,0.4-3.3-1-4.2l-3-1.8C81.2,90.1,92,76.6,92,60.7c0-16.1-11-29.6-25.9-33.4c-1.2-1.2-2.3-6.9-2.4-12.1
	c0-1.2-0.8-2.4-2-2.8c-1.2-0.4-2.5-0.1-3.3,0.8l-1.3,1.4l-2-1.4c-1-0.7-2.3-0.7-3.4-0.1c-1,0.6-1.6,1.8-1.4,3
	c0.4,2.9-0.9,8.2-1.8,11.3C33.9,31.4,23.1,44.8,23.1,60.7z M75.9,39.1c6.1,5.2,10,12.9,10,21.6s-3.9,16.4-10,21.6
	c3.3-6.1,5.1-13.6,5.1-21.6C81,52.8,79.2,45.2,75.9,39.1z M65,35.2c5.8,4.7,9.9,14.5,9.9,25.5c0,11-4.1,20.8-9.9,25.5
	c2.7-8.9,2.9-21.8,2.9-25.5C67.9,57.1,67.7,44.2,65,35.2z M56.2,21.4c0.6,0.3,1.3,0.4,1.9,0.3c0.2,1.5,0.5,3.1,1,4.6
	c-0.5,0-1,0-1.5,0c-0.8,0-1.6,0-2.4,0.1C55.5,24.8,55.9,23.1,56.2,21.4z M57.6,32.9c1.7,2.8,4.2,12.3,4.2,27.8
	c0,15.5-2.5,25-4.2,27.8c-1.7-2.8-4.2-12.3-4.2-27.8C53.4,45.2,55.9,35.7,57.6,32.9z M39.2,82.3c-6.1-5.2-10-12.9-10-21.6
	s3.9-16.4,10-21.6c-3.3,6.1-5.1,13.6-5.1,21.6C34.1,68.7,35.9,76.2,39.2,82.3z M50.1,35.2c-2.7,8.9-2.9,21.8-2.9,25.5
	c0,3.7,0.2,16.5,2.9,25.5c-5.8-4.7-9.9-14.5-9.9-25.5C40.2,49.7,44.3,39.9,50.1,35.2z"/>
</svg>
