<?xml version="1.0" encoding="utf-8"?>
<!-- Generator: Adobe Illustrator 24.0.0, SVG Export Plug-In . SVG Version: 6.00 Build 0)  -->
<svg version="1.1" id="Camada_1" xmlns="http://www.w3.org/2000/svg" xmlns:xlink="http://www.w3.org/1999/xlink" x="0px" y="0px"
	 viewBox="0 0 114 114" style="enable-background:new 0 0 114 114;" xml:space="preserve">
<style type="text/css">
	.st0{fill:#147834;}
</style>
<path class="st0" d="M181.8,966.6c-6.1-11.6-19-18.5-34.5-18.5c-2.5,0-5,0.2-7.6,0.5c0,0-0.1,0-0.1,0c-6.9,1-13.8,3.2-20.4,6.7
	c-11.6,6.1-20.4,15.2-24.6,25.6c-4.3,10.4-3.8,21.4,1.2,31c6.4,12.2,19.2,19.5,34.1,19.5c8.5,0,17.4-2.4,25.8-6.8
	c11.7-6.2,20.9-15.5,25.9-26.1C186.7,987.5,186.8,976.1,181.8,966.6z M170.1,999.6l-2.2-3c-1.6-2.1-4.5-2.5-6.6-0.9
	c-2.1,1.6-2.5,4.5-0.9,6.6l3.6,4.8c-3.6,3.5-7.9,6.7-12.7,9.3c-6.3,3.3-12.8,5.2-19,5.6l-8.9-13.2c-1.5-2.2-4.4-2.7-6.6-1.3
	c-2.2,1.5-2.7,4.4-1.3,6.6l4.4,6.5c-6.9-2.1-12.5-6.6-15.8-13c-3.7-7-4-15.2-0.8-23c3.4-8.3,10.6-15.7,20.3-20.8
	c0.4-0.2,0.8-0.4,1.3-0.6l8.1,11.1c0.9,1.3,2.4,1.9,3.8,1.9c1,0,1.9-0.3,2.8-0.9c2.1-1.5,2.6-4.5,1-6.6l-6.6-9.1
	c1.5-0.4,3-0.8,4.5-1.1l10.4,13c0.9,1.2,2.3,1.8,3.7,1.8c1,0,2.1-0.3,3-1c2-1.6,2.4-4.6,0.7-6.6l-6.3-7.9
	c10.8,0.7,19.4,5.6,23.5,13.3C177.9,979.6,176.3,990.2,170.1,999.6z"/>
<g>
	<path class="st0" d="M70,105.8c-0.7,0-1.4-0.4-1.8-1l-1-1.6c0,0,0,0,0,0c-3.4,0-6.7-1.9-8.4-4.9c-1.2-2.1-1.9-4.9-1.9-7.7
		c0-1.3-0.3-2.6-0.9-3.6l-24-40.7L13.2,32.4c-0.7-0.5-1.1-1.3-1.3-2.1c-0.1-0.8,0.1-1.7,0.6-2.4l2.6-3.5c0.5-0.7,1.3-1.1,2.1-1.3
		c0.2,0,0.3,0,0.5,0c0.3,0,0.5,0,0.7,0.1l-1.4-2.3c-0.4-0.7-0.5-1.6-0.3-2.4c0.2-0.8,0.7-1.5,1.5-1.9l5.2-3c0.5-0.3,1-0.4,1.6-0.4
		c1.1,0,2.2,0.6,2.7,1.6l1.4,2.3c0.1-0.4,0.3-0.8,0.5-1.1c0.5-0.7,1.3-1.1,2.1-1.2l4.3-0.6c0.1,0,0.3,0,0.4,0c0.7,0,1.4,0.2,1.9,0.7
		c0.7,0.5,1.1,1.3,1.2,2.1L41,27.1c0,0,2.3-3.2,2.3-3.2c0.6-0.8,1.5-1.3,2.5-1.3c0.1,0,0.2,0,0.2,0l-1-1.7c-0.4-0.7-0.5-1.5-0.3-2.3
		c0.2-0.8,0.7-1.4,1.4-1.9l4.6-2.7c0.5-0.3,1-0.4,1.5-0.4c1.1,0,2.1,0.6,2.6,1.5l1,1.7c0.4-0.9,1.3-1.6,2.4-1.8l3.9-0.5
		c0.1,0,0.3,0,0.4,0c1.5,0,2.9,1.2,3.1,2.7L68.4,38l21.4,36.3c0.5,0.9,1.3,1.6,2.3,2.1c2.2,1.2,4.2,3,5.3,4.9
		c1.6,2.8,1.7,6.1,0.2,8.8l0.8,1.4c0.6,1,0.3,2.3-0.7,2.8c-0.3,0.2-0.7,0.3-1.1,0.3c0,0-0.1,0-0.1,0c-0.2,0.4-0.5,0.7-0.8,0.9
		c-0.3,0.2-0.7,0.3-1.1,0.3c0,0-0.1,0-0.1,0c-0.2,0.4-0.5,0.7-0.8,0.9c-0.3,0.2-0.7,0.3-1.1,0.3c-0.7,0-1.4-0.4-1.8-1L90,94.7
		c-3.1,0-6-1.7-7.6-4.5c-1.1-1.9-1.7-4.5-1.7-7c0-1.2-0.2-2.2-0.7-3.1L58.5,43.8c0,0-16.9-12.5-17-12.5l1.1,8.8l24,40.7
		c0.6,1,1.5,1.9,2.7,2.5c2.4,1.3,4.6,3.3,5.8,5.3c1.8,3.1,1.8,6.7,0.2,9.7l1,1.6c0.6,1,0.3,2.3-0.7,2.8c-0.3,0.2-0.7,0.3-1.1,0.3
		l0,0c-0.1,0-0.2,0-0.3,0c-0.2,0.4-0.5,0.8-0.9,1.1c-0.3,0.2-0.7,0.3-1.1,0.3c-0.1,0-0.2,0-0.3,0c-0.2,0.5-0.5,0.8-0.9,1.1
		C70.8,105.7,70.4,105.8,70,105.8z M59.7,84.9c1,1.7,1.5,3.7,1.4,5.8c0,2,0.4,4.1,1.3,5.5c1,1.7,2.9,2.8,4.8,2.8
		c0.9,0,1.8-0.2,2.6-0.7c2.5-1.5,3.3-4.9,1.8-7.6c-0.8-1.4-2.4-2.8-4.2-3.8c-1.9-1-3.4-2.4-4.4-4L43.3,49.3l-2.1,4.2L59.7,84.9z
		 M83.5,78c0.9,1.5,1.4,3.3,1.3,5.3c0,1.7,0.4,3.6,1.1,4.8c0.9,1.5,2.5,2.4,4.1,2.4c0.8,0,1.6-0.2,2.2-0.6c1-0.6,1.8-1.6,2.1-2.8
		c0.3-1.2,0.1-2.5-0.6-3.6c-0.7-1.2-2.1-2.5-3.6-3.3c-1.7-0.9-3.1-2.2-4-3.7L68.7,46.8L67,50.1L83.5,78z M38.6,49.2l2.1-4.2
		L24.6,17.6l-3.4,2L38.6,49.2z M64.5,45.8l1.7-3.3L51.9,18.3l-2.7,1.6L64.5,45.8z M26.7,37.2l-3.2-5.4l-5.6-4.1l-1.5,1.9L26.7,37.2z
		 M53.1,34.7l-2.3-3.9L46,27.3l-1,1.4L53.1,34.7z M37.3,30.9l-1.7-12.6l-2.4,0.3l0.9,6.9L37.3,30.9z M63,28.9l-1.3-10l-1.7,0.2
		l0.8,5.9L63,28.9z"/>
</g>
</svg>
