<?xml version="1.0" encoding="utf-8"?>
<!-- Generator: Adobe Illustrator 24.0.0, SVG Export Plug-In . SVG Version: 6.00 Build 0)  -->
<svg version="1.1" id="Camada_1" xmlns="http://www.w3.org/2000/svg" xmlns:xlink="http://www.w3.org/1999/xlink" x="0px" y="0px"
	 viewBox="0 0 114 114" style="enable-background:new 0 0 114 114;" xml:space="preserve">
<style type="text/css">
	.st0{fill:#147834;}
</style>
<path class="st0" d="M181.8,966.6c-6.1-11.6-19-18.5-34.5-18.5c-2.5,0-5,0.2-7.6,0.5c0,0-0.1,0-0.1,0c-6.9,1-13.8,3.2-20.4,6.7
	c-11.6,6.1-20.4,15.2-24.6,25.6c-4.3,10.4-3.8,21.4,1.2,31c6.4,12.2,19.2,19.5,34.1,19.5c8.5,0,17.4-2.4,25.8-6.8
	c11.7-6.2,20.9-15.5,25.9-26.1C186.7,987.5,186.8,976.1,181.8,966.6z M170.1,999.6l-2.2-3c-1.6-2.1-4.5-2.5-6.6-0.9
	c-2.1,1.6-2.5,4.5-0.9,6.6l3.6,4.8c-3.6,3.5-7.9,6.7-12.7,9.3c-6.3,3.3-12.8,5.2-19,5.6l-8.9-13.2c-1.5-2.2-4.4-2.7-6.6-1.3
	c-2.2,1.5-2.7,4.4-1.3,6.6l4.4,6.5c-6.9-2.1-12.5-6.6-15.8-13c-3.7-7-4-15.2-0.8-23c3.4-8.3,10.6-15.7,20.3-20.8
	c0.4-0.2,0.8-0.4,1.3-0.6l8.1,11.1c0.9,1.3,2.4,1.9,3.8,1.9c1,0,1.9-0.3,2.8-0.9c2.1-1.5,2.6-4.5,1-6.6l-6.6-9.1
	c1.5-0.4,3-0.8,4.5-1.1l10.4,13c0.9,1.2,2.3,1.8,3.7,1.8c1,0,2.1-0.3,3-1c2-1.6,2.4-4.6,0.7-6.6l-6.3-7.9
	c10.8,0.7,19.4,5.6,23.5,13.3C177.9,979.6,176.3,990.2,170.1,999.6z"/>
<g>
	<path class="st0" d="M58.4,103.2c-3.1,0-6.1-0.6-9.2-1.7c-0.4-0.2-0.8-0.2-1.1-0.2c-0.6,0-1.1,0-1.5,0c-4.6,0-8.3-1.4-11.3-4.3
		c0,0-0.1-0.1-0.3-0.2c-7.1-2.5-11.7-9.7-11.2-17.5c0.3-5.7,2.3-11,5.9-15.8c4.4-5.9,7-12.7,7.9-20.6c0.6-5.1,1.8-9.5,3.8-13.3
		c2-3.8,4.6-6.2,8-7.3l0.1,0c1.3-0.4,2.5-0.8,3.5-1.6c0.7-0.5,1.6-0.9,2.6-1c0.4,0,0.5-0.1,0.6-0.7c0.5-2.3,1.6-4.5,3.3-6.5
		c0.6-0.7,1.3-1.1,2.1-1.1c0.6,0,1.1,0.2,1.6,0.6c1.1,0.9,1.2,2.2,0.3,3.6c-0.7,1.2-1.4,2.5-2.1,3.8l-0.1,0.2l0.5,0.3
		c1.1,0.6,2.3,1.3,3.4,1.9c0,0,0,0,0.2,0c4.3,0.8,7.6,3.3,9.9,7.8c2,3.7,2.9,7.8,3.6,11.6c0.2,0.9,0.3,1.7,0.5,2.6
		c0.5,2.7,1,5.5,1.7,8.2c1,3.9,3.2,7.3,5.4,10.5c2.4,3.4,4.7,6.9,5.6,11.1c0.9,3.9,1.6,8,0.1,12.1c-2.1,5.7-5.5,9.4-10.5,11.1
		c-0.2,0.1-0.4,0.3-0.7,0.5c-0.2,0.1-0.3,0.3-0.5,0.4c-2.8,2.3-6.2,3.5-10.4,3.5c-0.4,0-0.8,0-1.3,0l-0.1,0c-0.4,0-0.8,0.1-1.1,0.2
		C64.5,102.6,61.4,103.2,58.4,103.2z M50.4,51.6c0.7,0,1.3,0.3,1.8,0.8c0.5,0.5,0.7,1.2,0.7,1.9c-0.1,1.9-0.1,3.4-0.3,4.8
		c-0.5,4.8-1.8,9.3-3.1,13.8L49,74.6c-1.4,4.9-2.7,10.3-2.4,15.7c0.2,3.8,1.8,5.8,5.4,6.9c2.1,0.6,4.3,0.9,6.4,0.9
		c2.2,0,4.3-0.3,6.5-0.9c3.6-1,5.2-3.1,5.4-6.8c0.1-2,0.1-4.2-0.3-6.1c-0.9-4.2-2-8.7-3.4-13.9c-1.3-4.6-2.6-10-2.7-15.6
		c0-2.9,1.9-3.2,2.5-3.2c0,0,0,0,0,0c0.9,0,2.5,0.4,2.6,3.1c0,0.4,0,0.8,0.1,1.3c0,1.1,0.1,2.1,0.3,3.1c1.1,4.9,2,9,3.2,13.2
		c1.4,5.2,2.9,10.8,2.9,16.8c0,2.4-0.4,4.5-1.2,6.4c-0.1,0.2-0.2,0.4-0.3,0.6c3.2-0.8,5.4-2.9,6.7-6.2c1.4-3.7,1.2-7.5-0.7-11.4
		c-1.1-2.2-2.3-4.4-3.4-6.5c-0.5-0.9-1-1.8-1.4-2.7c-1.7-3.3-3.8-7.7-4.7-12.7c-0.3-1.6,0.6-2.8,2-3.1c0.2,0,0.3,0,0.5,0
		c1.2,0,2.3,0.9,2.5,2.2c0.7,4,2.4,7.7,4.1,11.1l1.1,2.2c1.4,2.6,2.8,5.4,4.1,8.1c1.6,3.5,2.2,6.7,1.7,10c0.1-0.2,0.3-0.5,0.4-0.7
		c1.8-3.8,1.2-7.8,0.2-11.6c-0.8-3.1-2.5-5.7-4.7-8.8c-4.1-5.8-6.6-11.8-7.6-18.2c-0.4-3-1-6.1-1.6-9.2c-0.6-2.7-1.6-6.1-4-8.7
		c-0.2-0.2-0.5-0.5-0.7-0.7c0.6,3.8,0.6,7.6,0.6,11.4c0,0.8,0,1.7,0,2.5c0,1.5-1.1,2.7-2.5,2.7c-0.1,0-0.2,0-0.3,0
		c-1.4-0.2-2.2-1.2-2.2-2.8c0-1,0-1.9,0-2.9c0-2,0-4-0.1-6c-0.2-2.4-0.5-4.6-1.1-6.5c-0.5-1.8-1.9-2.7-4.3-2.7
		c-2.4,0-3.7,0.9-4.4,2.7c-0.5,1.5-0.8,3-0.9,4.3c-0.1,2.5-0.2,5-0.2,7.5c0,1.2,0,2.4-0.1,3.6c0,1.6-1.1,2.7-2.5,2.7
		c-1.5,0-2.5-1.1-2.5-2.7l0-1.8c0-2.4,0-4.9,0.1-7.4c0.1-1.6,0.3-3.1,0.5-4.8c0,0,0,0,0,0c-1.2,1-2.1,2.4-3,4.3
		c-1.7,3.8-2.4,7.9-2.9,11.4c-0.6,4.8-1.7,10.4-4.5,15.4c-1.4,2.6-3.1,5-4.7,7.4L32.8,68c-2.2,3.4-3.5,6.8-3.9,10.5
		c-0.3,3.3,0.1,6,1.4,8.3c-0.4-3,0-6,1.2-8.8c1.5-3.4,3.2-6.7,4.9-9.9l0.9-1.8c1.7-3.3,3.3-6.8,4.1-10.7c0.3-1.8,1.5-2.5,2.5-2.5
		c0.2,0,0.3,0,0.5,0.1c1.2,0.2,2.3,1.2,1.9,3.3c-0.9,4.9-3,9.3-4.7,12.6l-1.2,2.3c-1.2,2.2-2.4,4.5-3.6,6.8
		c-1.7,3.5-2.1,6.9-1.1,10.4c1.1,3.7,3.7,6.4,7.1,7.2c-1.1-2.1-1.5-4.5-1.5-7.4c0.1-4.3,0.8-8.7,2.1-13.6c0.3-1.2,0.7-2.4,1-3.6
		c1.6-5.5,3.3-11.3,3.3-17.2c0-0.7,0.3-1.4,0.8-1.8C49.1,51.8,49.7,51.6,50.4,51.6L50.4,51.6z"/>
</g>
</svg>
