<?xml version="1.0" encoding="utf-8"?>
<!-- Generator: Adobe Illustrator 24.0.0, SVG Export Plug-In . SVG Version: 6.00 Build 0)  -->
<svg version="1.1" id="Camada_1" xmlns="http://www.w3.org/2000/svg" xmlns:xlink="http://www.w3.org/1999/xlink" x="0px" y="0px"
	 viewBox="0 0 114 114" style="enable-background:new 0 0 114 114;" xml:space="preserve">
<style type="text/css">
	.st0{fill:#147834;}
</style>
<path class="st0" d="M181.8,966.6c-6.1-11.6-19-18.5-34.5-18.5c-2.5,0-5,0.2-7.6,0.5c0,0-0.1,0-0.1,0c-6.9,1-13.8,3.2-20.4,6.7
	c-11.6,6.1-20.4,15.2-24.6,25.6c-4.3,10.4-3.8,21.4,1.2,31c6.4,12.2,19.2,19.5,34.1,19.5c8.5,0,17.4-2.4,25.8-6.8
	c11.7-6.2,20.9-15.5,25.9-26.1C186.7,987.5,186.8,976.1,181.8,966.6z M170.1,999.6l-2.2-3c-1.6-2.1-4.5-2.5-6.6-0.9
	c-2.1,1.6-2.5,4.5-0.9,6.6l3.6,4.8c-3.6,3.5-7.9,6.7-12.7,9.3c-6.3,3.3-12.8,5.2-19,5.6l-8.9-13.2c-1.5-2.2-4.4-2.7-6.6-1.3
	c-2.2,1.5-2.7,4.4-1.3,6.6l4.4,6.5c-6.9-2.1-12.5-6.6-15.8-13c-3.7-7-4-15.2-0.8-23c3.4-8.3,10.6-15.7,20.3-20.8
	c0.4-0.2,0.8-0.4,1.3-0.6l8.1,11.1c0.9,1.3,2.4,1.9,3.8,1.9c1,0,1.9-0.3,2.8-0.9c2.1-1.5,2.6-4.5,1-6.6l-6.6-9.1
	c1.5-0.4,3-0.8,4.5-1.1l10.4,13c0.9,1.2,2.3,1.8,3.7,1.8c1,0,2.1-0.3,3-1c2-1.6,2.4-4.6,0.7-6.6l-6.3-7.9
	c10.8,0.7,19.4,5.6,23.5,13.3C177.9,979.6,176.3,990.2,170.1,999.6z"/>
<path class="st0" d="M83.3,45.7h-3.7c-2-4.8-5.4-8.9-9.9-11.6l0,0l0,0h-0.1L69.5,34h-0.2c0,0-0.1,0-0.1,0H69h-3.2l2.8-3.2h3.6
	c0.9,0,1.6-0.7,1.6-1.6c0-0.9-0.7-1.6-1.6-1.6H68c-0.4-0.1-0.9,0.1-1.2,0.3l-5.2,6H45.3h-0.2c-0.1,0-0.1,0-0.2,0h-0.2l-0.2,0.1h-0.1
	h-0.1l0,0c-4.5,2.8-8,6.9-9.9,11.8h-3.7c-0.6,0-1.2,0.4-1.5,0.9C27,51.6,25.8,57,25.7,62.5c0,16.2,12.6,27.1,31.4,27.1
	s31.4-10.8,31.4-27.1c-0.1-5.5-1.3-10.9-3.7-15.9C84.5,46.1,84,45.7,83.3,45.7z M45.9,37.1h13c-0.3,0.8,0.1,1.8,1,2.1
	c0.2,0.1,0.4,0.1,0.6,0.1c0.5,0,0.9-0.2,1.2-0.5l1.4-1.6h5.4c3.3,2.1,6,5.1,7.8,8.7h-38C39.8,42.2,42.5,39.2,45.9,37.1z M57.1,86.4
	C43.1,86.4,29,79,29,62.5c0-4.7,1.1-9.3,3-13.5h50.3c1.9,4.3,2.9,8.9,3,13.5C85.3,79,71.1,86.4,57.1,86.4z"/>
<path class="st0" d="M65.1,67.5c-0.8-0.5-1.8-0.3-2.2,0.5c-3.2,5-8.8,6.9-13,7.7c-0.9,0.1-1.6,0.9-1.5,1.8c0.1,0.9,0.9,1.6,1.8,1.5
	h0.3c6.9-1.3,12.1-4.4,15.2-9.1C66.1,69,65.9,68,65.1,67.5C65.1,67.5,65.1,67.5,65.1,67.5z"/>
</svg>
