<?xml version="1.0" encoding="utf-8"?>
<!-- Generator: Adobe Illustrator 24.0.0, SVG Export Plug-In . SVG Version: 6.00 Build 0)  -->
<svg version="1.1" id="Camada_1" xmlns="http://www.w3.org/2000/svg" xmlns:xlink="http://www.w3.org/1999/xlink" x="0px" y="0px"
	 viewBox="0 0 114 114" style="enable-background:new 0 0 114 114;" xml:space="preserve">
<style type="text/css">
	.st0{fill:#147834;}
</style>
<path class="st0" d="M181.8,966.6c-6.1-11.6-19-18.5-34.5-18.5c-2.5,0-5,0.2-7.6,0.5c0,0-0.1,0-0.1,0c-6.9,1-13.8,3.2-20.4,6.7
	c-11.6,6.1-20.4,15.2-24.6,25.6c-4.3,10.4-3.8,21.4,1.2,31c6.4,12.2,19.2,19.5,34.1,19.5c8.5,0,17.4-2.4,25.8-6.8
	c11.7-6.2,20.9-15.5,25.9-26.1C186.7,987.5,186.8,976.1,181.8,966.6z M170.1,999.6l-2.2-3c-1.6-2.1-4.5-2.5-6.6-0.9
	c-2.1,1.6-2.5,4.5-0.9,6.6l3.6,4.8c-3.6,3.5-7.9,6.7-12.7,9.3c-6.3,3.3-12.8,5.2-19,5.6l-8.9-13.2c-1.5-2.2-4.4-2.7-6.6-1.3
	c-2.2,1.5-2.7,4.4-1.3,6.6l4.4,6.5c-6.9-2.1-12.5-6.6-15.8-13c-3.7-7-4-15.2-0.8-23c3.4-8.3,10.6-15.7,20.3-20.8
	c0.4-0.2,0.8-0.4,1.3-0.6l8.1,11.1c0.9,1.3,2.4,1.9,3.8,1.9c1,0,1.9-0.3,2.8-0.9c2.1-1.5,2.6-4.5,1-6.6l-6.6-9.1
	c1.5-0.4,3-0.8,4.5-1.1l10.4,13c0.9,1.2,2.3,1.8,3.7,1.8c1,0,2.1-0.3,3-1c2-1.6,2.4-4.6,0.7-6.6l-6.3-7.9
	c10.8,0.7,19.4,5.6,23.5,13.3C177.9,979.6,176.3,990.2,170.1,999.6z"/>
<g>
	<g>
		<g>
			<path class="st0" d="M57.4,84.7c-1.2,0-2.3-1-2.3-2.3c0-0.6,0.2-1.2,0.7-1.6c0.4-0.4,1-0.7,1.6-0.7c1.3,0,2.3,1,2.3,2.3
				c0,0.6-0.2,1.2-0.7,1.6C58.6,84.5,58.1,84.7,57.4,84.7L57.4,84.7z"/>
		</g>
		<g>
			<path class="st0" d="M57.4,92.4c-0.6,0-1.2-0.2-1.6-0.7c-0.9-0.9-0.9-2.3,0-3.2c0.4-0.4,1-0.7,1.6-0.7c0.6,0,1.2,0.2,1.6,0.7
				c0.9,0.9,0.9,2.3,0,3.2C58.6,92.1,58.1,92.4,57.4,92.4L57.4,92.4z"/>
		</g>
		<g>
			<path class="st0" d="M56.2,100c-5.9,0-9.9-4.5-9.9-11.2V73.3c-12.8-0.4-21.6-8.5-21.6-20.1c0-4.1,3.3-7.4,7.4-7.4
				s7.4,3.3,7.4,7.4c0,4.3,3.3,6.2,6.5,6.5c-2.2-2.5-3.5-5.8-3.5-9.1c0-2.3,0.7-4.5,2.2-6.3c-1.8-2.1-3.4-4.8-3.4-10.2
				c0-16.3,11.1-17.5,14.5-17.5c10.1,0,13.6,10.6,14.1,17c0,0.2,0.1,0.3,0.1,0.5c0,0.2,0,0.3,0,0.4l0,0.1l0,0.1c0,0.2,0,0.5,0,0.7
				c0,3.1-0.8,6.1-2.3,8.7c1.5,1.8,2.4,4.2,2.3,6.6c0,0.2,0,0.5,0,0.9l0,0.1c-0.2,2.8-1.2,8.9-1.9,13.3c0.2-0.2,0.4-0.3,0.5-0.5
				l0.1-0.1c1.1-1.3,1.8-3,1.8-4.8c0-2.6,1-5.1,2.9-7c1.9-1.9,4.4-2.9,7-2.9c2.6,0,5.1,1,7,2.9c1.8,1.8,2.9,4.4,2.9,7
				c0,12.5-9.4,21.6-22.9,22.5v6.7C67.3,95,62.3,100,56.2,100L56.2,100z M51.4,92c0.6,1.7,1.9,3.5,4.8,3.5c3.7,0,6.6-3,6.6-6.6v-8.9
				c0-1.3,1-2.3,2.3-2.3c12.1,0,20.6-7.4,20.6-18.1c0-3-2.4-5.4-5.4-5.4S75,56.6,75,59.6c0,2.9,2.4,5.4,5.4,5.4c1.3,0,2.3,1,2.3,2.3
				c0,1.3-1,2.3-2.3,2.3c-2.9,0-5.6-1.2-7.4-3.4c-0.1,0.2-0.2,0.4-0.4,0.5c0.3,1.2,1.4,2.1,2.7,2.1c1.2,0,2.3,1,2.3,2.3
				s-1,2.3-2.3,2.3c-2.6,0-4.9-1.4-6.3-3.5c-1.2,0.6-2.5,1-3.9,1c0,0,0,0,0,0c-0.1,0-0.3,0-0.4,0c-0.6-0.1-1.1-0.4-1.5-0.9
				c-0.4-0.5-0.5-1.1-0.4-1.7c0.4-2.1,0.9-5.4,1.4-8.5c-1.3,0.6-2.7,0.9-4.2,0.9c-1.3,0-2.3-1-2.3-2.3s1-2.3,2.3-2.3
				c2.9,0,5.4-2.4,5.4-5.4c0-2.1-0.7-3-2.3-4.8c-0.8-0.9-0.8-2.2,0-3c0.2-0.3,0.4-0.6,0.6-0.9c-1.5,0.6-3.1,0.8-4.8,0.8l-0.2,0
				c-1.2,0-2.3-1-2.3-2.3s1-2.3,2.3-2.3c3,0,6.3-1.3,6.6-3.7c-0.1-1.5-0.4-3-0.8-4.5c-2,1.7-4.8,2.6-8.4,2.6c-1.3,0-2.3-1-2.3-2.3
				s1-2.3,2.3-2.3c4.3,0,5.7-1.4,6.4-2.8c-1.4-2.5-4-4.1-6.9-4.1c-4.5,0-10,2.3-10,13c0,4.8,1.5,6.3,3,8c0.3,0.3,0.4,0.5,0.6,0.7
				c0.8,0.9,0.8,2.2,0,3c-1.6,1.8-2.3,2.7-2.3,4.8c0,2.6,1.1,5.1,3.1,6.8c0.5,0.4,0.8,1.1,0.8,1.7v2.9c0,1.3-1,2.3-2.3,2.3l-1.4,0
				c-1.6,0-3.1-0.3-4.6-0.8c-0.9,1.7-2.5,2.9-4.5,3.2c2.8,1.3,6,1.9,9.2,1.9h1.3c1.3,0,2.3,1,2.3,2.3v6.4c0,1.6,1.3,2.8,2.8,2.8
				c1.3,0,2.3,1,2.3,2.3s-1,2.3-2.3,2.3c-1,0-1.9-0.2-2.8-0.6V85c0,1.6,1.3,2.8,2.8,2.8c1.3,0,2.3,1,2.3,2.3c0,1.3-1,2.3-2.3,2.3
				C52.9,92.4,52.1,92.2,51.4,92z M32,50.4c-1.6,0-2.8,1.3-2.8,2.8c0,5.4,2.3,9.2,5.7,11.8c0-0.1,0-0.2,0-0.3c0-1.3,1-2.3,2.3-2.3
				c0.6,0,1.2-0.4,1.4-1c-0.9-0.8-1.7-1.8-2.3-2.9c-0.9,0.5-1.9,0.7-2.9,0.7c-1.3,0-2.3-1-2.3-2.3s1-2.3,2.3-2.3
				c0.9,0,1.5-0.7,1.5-1.5C34.8,51.7,33.6,50.4,32,50.4z"/>
		</g>
		<g>
			<path class="st0" d="M54.9,60.6c-1.3,0-2.3-1-2.3-2.3c0-0.6,0.3-1.2,0.7-1.6c0.4-0.4,1-0.6,1.6-0.6c0.6,0,1.1,0.2,1.6,0.6
				c0.5,0.5,0.7,1,0.7,1.6C57.2,59.6,56.2,60.6,54.9,60.6z"/>
		</g>
		<g>
			<path class="st0" d="M61.2,53c-0.6,0-1.1-0.2-1.6-0.6c-0.4-0.4-0.7-1-0.7-1.6c0-1.2,1-2.3,2.2-2.3c1.3,0,2.3,1,2.3,2.2
				C63.5,51.9,62.5,52.9,61.2,53L61.2,53L61.2,53z"/>
		</g>
		<g>
			<path class="st0" d="M57.4,53c-0.6,0-1.1-0.2-1.6-0.6c-0.4-0.4-0.7-1-0.7-1.6c0-1.2,1-2.3,2.2-2.3c1.3,0,2.3,1,2.3,2.2
				C59.7,51.9,58.7,52.9,57.4,53L57.4,53L57.4,53z"/>
		</g>
		<g>
			<path class="st0" d="M53.6,42.8c-0.6,0-1.2-0.2-1.6-0.7c-0.4-0.4-0.7-1-0.7-1.6c0-0.6,0.2-1.2,0.7-1.6c0.4-0.4,1-0.7,1.6-0.7
				c0.6,0,1.2,0.2,1.6,0.7c0.4,0.4,0.7,1,0.7,1.6s-0.2,1.2-0.7,1.6C54.8,42.6,54.2,42.8,53.6,42.8z"/>
		</g>
		<g>
			<path class="st0" d="M49.8,32.6c-0.6,0-1.2-0.2-1.6-0.7c-0.4-0.4-0.7-1-0.6-1.6c0-0.6,0.2-1.2,0.7-1.6c0.4-0.4,1-0.7,1.6-0.7
				s1.2,0.2,1.6,0.7c0.9,0.9,0.9,2.3,0,3.2C51,32.4,50.4,32.6,49.8,32.6L49.8,32.6L49.8,32.6z"/>
		</g>
	</g>
</g>
</svg>
