<?xml version="1.0" encoding="utf-8"?>
<!-- Generator: Adobe Illustrator 24.0.0, SVG Export Plug-In . SVG Version: 6.00 Build 0)  -->
<svg version="1.1" id="Camada_1" xmlns="http://www.w3.org/2000/svg" xmlns:xlink="http://www.w3.org/1999/xlink" x="0px" y="0px"
	 viewBox="0 0 114 114" style="enable-background:new 0 0 114 114;" xml:space="preserve">
<style type="text/css">
	.st0{fill:#147834;}
</style>
<path class="st0" d="M181.8,966.6c-6.1-11.6-19-18.5-34.5-18.5c-2.5,0-5,0.2-7.6,0.5c0,0-0.1,0-0.1,0c-6.9,1-13.8,3.2-20.4,6.7
	c-11.6,6.1-20.4,15.2-24.6,25.6c-4.3,10.4-3.8,21.4,1.2,31c6.4,12.2,19.2,19.5,34.1,19.5c8.5,0,17.4-2.4,25.8-6.8
	c11.7-6.2,20.9-15.5,25.9-26.1C186.7,987.5,186.8,976.1,181.8,966.6z M170.1,999.6l-2.2-3c-1.6-2.1-4.5-2.5-6.6-0.9
	c-2.1,1.6-2.5,4.5-0.9,6.6l3.6,4.8c-3.6,3.5-7.9,6.7-12.7,9.3c-6.3,3.3-12.8,5.2-19,5.6l-8.9-13.2c-1.5-2.2-4.4-2.7-6.6-1.3
	c-2.2,1.5-2.7,4.4-1.3,6.6l4.4,6.5c-6.9-2.1-12.5-6.6-15.8-13c-3.7-7-4-15.2-0.8-23c3.4-8.3,10.6-15.7,20.3-20.8
	c0.4-0.2,0.8-0.4,1.3-0.6l8.1,11.1c0.9,1.3,2.4,1.9,3.8,1.9c1,0,1.9-0.3,2.8-0.9c2.1-1.5,2.6-4.5,1-6.6l-6.6-9.1
	c1.5-0.4,3-0.8,4.5-1.1l10.4,13c0.9,1.2,2.3,1.8,3.7,1.8c1,0,2.1-0.3,3-1c2-1.6,2.4-4.6,0.7-6.6l-6.3-7.9
	c10.8,0.7,19.4,5.6,23.5,13.3C177.9,979.6,176.3,990.2,170.1,999.6z"/>
<g>
	<path class="st0" d="M62.4,97c-0.4,0-0.9-0.1-1.3-0.3l-2.7-1.2c-0.4-0.2-0.8-0.3-1.2-0.3c-0.3,0-0.6,0-0.9,0.1l-2.7,0.8
		c-0.3,0.1-0.6,0.1-1,0.1c-1,0-1.9-0.5-2.5-1.3c-0.8-1-0.9-2.5-0.2-3.6c0.4-0.7,0.8-1.5,1-2.3c-10.9-2.6-19.5-11.3-21.9-22.3
		C25.4,51,35.5,35.3,51.3,31.8c1.3-0.3,2.6-0.5,4-0.6c-0.2-0.3-0.3-0.6-0.4-0.9c-0.8-3.4-2.7-6.3-5.5-8.3c-1.1-0.6-1.5-2.1-0.8-3.3
		c0.4-0.7,1.2-1.2,2.1-1.2c0.4,0,0.9,0.1,1.2,0.3c0.1,0.1,0.2,0.1,0.3,0.2c1.9,1.4,3.6,3.1,4.9,5.2c1.9-2.7,4.7-4.7,7.9-5.6
		c0.2-0.1,0.5-0.1,0.7-0.1c1,0,2,0.7,2.3,1.6c0.2,0.6,0.2,1.3-0.1,1.8c-0.3,0.6-0.8,1-1.4,1.2l-0.1,0c-6.4,2-6.7,7.3-6.7,7.5
		c0,0.5-0.1,1-0.4,1.3c13,0.7,24.3,10.2,27.1,23.1c3.4,15.6-6.2,31.1-21.7,34.9c0,1.2,0.2,2.4,0.6,3.5c0.1,0.3,0.2,0.7,0.2,1.2
		c0,0.9-0.3,1.7-0.9,2.3C64,96.7,63.2,97,62.4,97L62.4,97z M57.2,90.5c1,0,1.9,0.2,2.8,0.5c0-0.4-0.1-0.8-0.1-1.2
		c-0.7,0.1-1.5,0.1-2.2,0.1h-2c-0.1,0.3-0.1,0.5-0.2,0.8c0.5-0.1,1-0.2,1.6-0.2H57.2z M57.7,36c-13.6,0-24.6,11.1-24.6,24.6
		c-0.1,12,8.8,22.4,20.7,24.2c0.7,0.1,1.4,0.2,2.1,0.2c0.6,0,1.2,0.1,1.8,0.1c13.6,0,24.6-11.1,24.6-24.6C82.3,47,71.3,36,57.7,36
		l0-1L57.7,36z M54.2,82.6c-1.3,0-2.4-1.1-2.4-2.4c0-0.6,0.3-1.2,0.7-1.7c0.5-0.5,1.1-0.7,1.7-0.7c0.6,0,1.3,0.3,1.7,0.7
		c0.2,0.2,0.4,0.5,0.5,0.8c0.1,0.3,0.2,0.6,0.2,0.9C56.6,81.5,55.6,82.6,54.2,82.6z M59.9,82.3c-1.2,0-2.3-1-2.4-2.2
		c-0.1-0.6,0.1-1.3,0.6-1.8c0.4-0.5,1-0.8,1.7-0.9l0.3,0c1.6-0.4,8-2,10.3-6.5c0.4-0.8,1.2-1.3,2.2-1.3c0.4,0,0.8,0.1,1.1,0.3
		c0.6,0.3,1,0.8,1.2,1.4c0.2,0.6,0.2,1.3-0.1,1.9c-3.2,6.2-10.8,8.4-14,9.1l-0.2,0.1l-0.4,0C60.1,82.3,60,82.3,59.9,82.3z
		 M60.1,75.7c-1.3,0-2.3-0.9-2.4-2.2c-0.1-1.3,0.8-2.5,2.1-2.6l0.1,0l0.1,0c2-0.3,3.8-1.4,4.8-3.2c0.4-0.8,1.2-1.3,2.1-1.3
		c0.4,0,0.8,0.1,1.1,0.3c0.6,0.3,1,0.8,1.2,1.4c0.2,0.6,0.1,1.3-0.2,1.9c-1.8,3.2-5.1,5.3-8.7,5.7l-0.1,0H60.1z M59.5,70L59.5,70
		c-1.4-0.2-2.3-1.4-2.2-2.7c0.1-1.2,1.1-2.1,2.2-2.2c0.5-0.7,1.2-1.1,2-1.1c0.3,0,0.7,0.1,1,0.2c1.2,0.5,1.8,2,1.3,3.2
		C63.1,69,61.6,70,59.9,70H59.5z M74.5,69.5c-1,0-1.8-0.6-2.2-1.5l-0.1-0.2v0c-0.1-0.2-0.1-0.5-0.1-0.7c0-0.3,0.1-0.7,0.2-1
		c0.1-0.3,0.3-0.5,0.5-0.8l0.4-0.3l0.4-0.2l0.4-0.1l0.1,0c0.2,0,0.3,0,0.5,0c1.1,0,2.1,0.8,2.4,1.9c0,0.2,0.1,0.4,0,0.5
		C76.9,68.4,75.8,69.5,74.5,69.5L74.5,69.5z"/>
</g>
</svg>
