<?xml version="1.0" encoding="utf-8"?>
<!-- Generator: Adobe Illustrator 24.0.0, SVG Export Plug-In . SVG Version: 6.00 Build 0)  -->
<svg version="1.1" id="Camada_1" xmlns="http://www.w3.org/2000/svg" xmlns:xlink="http://www.w3.org/1999/xlink" x="0px" y="0px"
	 viewBox="0 0 114 114" style="enable-background:new 0 0 114 114;" xml:space="preserve">
<style type="text/css">
	.st0{fill:#147834;}
</style>
<path class="st0" d="M181.8,966.6c-6.1-11.6-19-18.5-34.5-18.5c-2.5,0-5,0.2-7.6,0.5c0,0-0.1,0-0.1,0c-6.9,1-13.8,3.2-20.4,6.7
	c-11.6,6.1-20.4,15.2-24.6,25.6c-4.3,10.4-3.8,21.4,1.2,31c6.4,12.2,19.2,19.5,34.1,19.5c8.5,0,17.4-2.4,25.8-6.8
	c11.7-6.2,20.9-15.5,25.9-26.1C186.7,987.5,186.8,976.1,181.8,966.6z M170.1,999.6l-2.2-3c-1.6-2.1-4.5-2.5-6.6-0.9
	c-2.1,1.6-2.5,4.5-0.9,6.6l3.6,4.8c-3.6,3.5-7.9,6.7-12.7,9.3c-6.3,3.3-12.8,5.2-19,5.6l-8.9-13.2c-1.5-2.2-4.4-2.7-6.6-1.3
	c-2.2,1.5-2.7,4.4-1.3,6.6l4.4,6.5c-6.9-2.1-12.5-6.6-15.8-13c-3.7-7-4-15.2-0.8-23c3.4-8.3,10.6-15.7,20.3-20.8
	c0.4-0.2,0.8-0.4,1.3-0.6l8.1,11.1c0.9,1.3,2.4,1.9,3.8,1.9c1,0,1.9-0.3,2.8-0.9c2.1-1.5,2.6-4.5,1-6.6l-6.6-9.1
	c1.5-0.4,3-0.8,4.5-1.1l10.4,13c0.9,1.2,2.3,1.8,3.7,1.8c1,0,2.1-0.3,3-1c2-1.6,2.4-4.6,0.7-6.6l-6.3-7.9
	c10.8,0.7,19.4,5.6,23.5,13.3C177.9,979.6,176.3,990.2,170.1,999.6z"/>
<path id="XMLID_114_" class="st0" d="M48.3,96.9C47,98,46.9,100,48,101.3c0.6,0.7,1.5,1.1,2.3,1.1c0.7,0,1.4-0.2,2-0.7
	c0.4-0.3,7.7-6.7,9.2-14.9c9.4-0.8,14.9-5.6,17.9-9.7c5.3-7.1,6.9-17,4.2-25.8c-2.6-8.7-8.4-15.6-13.4-21.8
	c-3.9-4.8-7.7-9.3-8.5-13.2c-0.3-1.4-1.6-2.4-3-2.4c-1.5,0-2.7,1-3,2.4c-0.9,3.9-4.6,8.4-8.5,13.2C42,35.5,36.3,42.4,33.7,51.1
	C31,60,32.6,69.9,37.9,77c3,4,8.3,8.7,17.3,9.7C53.8,92.2,48.4,96.9,48.3,96.9z M42.8,73.3c-4.1-5.5-5.3-13.5-3.2-20.4
	c2.3-7.5,7.6-13.9,12.3-19.6c2.5-3,4.9-6,6.8-8.9c1.9,3,4.3,5.9,6.8,8.9c4.7,5.7,10,12.1,12.3,19.6c2.1,6.9,0.8,14.9-3.2,20.4
	c-3.3,4.5-8.2,7-14.3,7.3v-1.9l9.1-4.9c0.7-0.4,1-1.3,0.6-2.1c-0.4-0.7-1.3-1-2.1-0.6l-7.6,4.1v-9.4l14.5-8.1c0.7-0.4,1-1.4,0.6-2.1
	c-0.4-0.7-1.4-1-2.1-0.6l-13,7.3V51.2l9.1-5.3c0.7-0.4,1-1.4,0.6-2.1c-0.4-0.7-1.4-1-2.1-0.6l-7.6,4.4V36.5c0-0.9-0.7-1.5-1.5-1.5
	c-0.9,0-1.5,0.7-1.5,1.5v11.1l-7.6-4.4c-0.7-0.4-1.7-0.2-2.1,0.6c-0.4,0.7-0.2,1.7,0.6,2.1l9.1,5.3v11.1l-13-7.3
	c-0.7-0.4-1.7-0.1-2.1,0.6c-0.4,0.7-0.1,1.7,0.6,2.1l14.5,8.1v9.4l-7.6-4.1c-0.8-0.4-1.7-0.1-2.1,0.6c-0.4,0.7-0.1,1.7,0.6,2.1
	l9.1,4.9v1.9C51.1,80.2,46.1,77.7,42.8,73.3z"/>
</svg>
