<?xml version="1.0" encoding="utf-8"?>
<!-- Generator: Adobe Illustrator 24.0.0, SVG Export Plug-In . SVG Version: 6.00 Build 0)  -->
<svg version="1.1" id="Camada_1" xmlns="http://www.w3.org/2000/svg" xmlns:xlink="http://www.w3.org/1999/xlink" x="0px" y="0px"
	 viewBox="0 0 114 114" style="enable-background:new 0 0 114 114;" xml:space="preserve">
<style type="text/css">
	.st0{fill:#147834;}
</style>
<path class="st0" d="M181.8,966.6c-6.1-11.6-19-18.5-34.5-18.5c-2.5,0-5,0.2-7.6,0.5c0,0-0.1,0-0.1,0c-6.9,1-13.8,3.2-20.4,6.7
	c-11.6,6.1-20.4,15.2-24.6,25.6c-4.3,10.4-3.8,21.4,1.2,31c6.4,12.2,19.2,19.5,34.1,19.5c8.5,0,17.4-2.4,25.8-6.8
	c11.7-6.2,20.9-15.5,25.9-26.1C186.7,987.5,186.8,976.1,181.8,966.6z M170.1,999.6l-2.2-3c-1.6-2.1-4.5-2.5-6.6-0.9
	c-2.1,1.6-2.5,4.5-0.9,6.6l3.6,4.8c-3.6,3.5-7.9,6.7-12.7,9.3c-6.3,3.3-12.8,5.2-19,5.6l-8.9-13.2c-1.5-2.2-4.4-2.7-6.6-1.3
	c-2.2,1.5-2.7,4.4-1.3,6.6l4.4,6.5c-6.9-2.1-12.5-6.6-15.8-13c-3.7-7-4-15.2-0.8-23c3.4-8.3,10.6-15.7,20.3-20.8
	c0.4-0.2,0.8-0.4,1.3-0.6l8.1,11.1c0.9,1.3,2.4,1.9,3.8,1.9c1,0,1.9-0.3,2.8-0.9c2.1-1.5,2.6-4.5,1-6.6l-6.6-9.1
	c1.5-0.4,3-0.8,4.5-1.1l10.4,13c0.9,1.2,2.3,1.8,3.7,1.8c1,0,2.1-0.3,3-1c2-1.6,2.4-4.6,0.7-6.6l-6.3-7.9
	c10.8,0.7,19.4,5.6,23.5,13.3C177.9,979.6,176.3,990.2,170.1,999.6z"/>
<g id="XMLID_74_">
	<path id="XMLID_89_" class="st0" d="M97.3,42.4c0-0.1,0-0.2,0-0.3c0-0.1,0-0.2-0.1-0.3c0-0.1,0-0.1-0.1-0.2c0-0.1-0.1-0.2-0.1-0.3
		c0-0.1-0.1-0.1-0.1-0.2c-0.1-0.1-0.1-0.2-0.2-0.3c0,0-0.1-0.1-0.1-0.1c0,0,0,0,0,0c-0.1-0.1-0.2-0.2-0.3-0.2c0,0-0.1-0.1-0.1-0.1
		c-0.1-0.1-0.3-0.2-0.4-0.2c0,0,0,0-0.1,0c-0.3-0.1-0.7-0.2-1-0.2h-8.5H26.7h-8.5c-0.4,0-0.7,0.1-1,0.2c0,0,0,0-0.1,0
		c-0.1,0.1-0.3,0.1-0.4,0.2c0,0-0.1,0.1-0.1,0.1c-0.1,0.1-0.2,0.1-0.3,0.2c0,0,0,0,0,0c0,0-0.1,0.1-0.1,0.1
		c-0.1,0.1-0.1,0.2-0.2,0.3c0,0.1-0.1,0.1-0.1,0.2c0,0.1-0.1,0.2-0.1,0.3c0,0.1,0,0.1-0.1,0.2c0,0.1-0.1,0.2-0.1,0.3
		c0,0.1,0,0.2,0,0.3c0,0.1,0,0.1,0,0.2c0,0,0,0,0,0.1c0,0,0,0,0,0.1c1,21.8,19,39,40.8,39c21.9,0,39.8-17.1,40.8-39c0,0,0,0,0-0.1
		c0,0,0,0,0-0.1C97.3,42.5,97.3,42.5,97.3,42.4z M83.3,45.2C81.2,58.2,69.9,68,56.5,68c-13.4,0-24.7-9.8-26.8-22.8H83.3z M56.5,76.5
		c-18.2,0-33.2-13.5-35.4-31.3h3.3c2.2,15.9,15.8,28,32.1,28s29.9-12.1,32.1-28h3.3C89.7,62.9,74.6,76.5,56.5,76.5z"/>
	<path id="XMLID_88_" class="st0" d="M59.1,60.3c0-1.5-1.2-5-2.7-5c-1.5,0-2.7,3.5-2.7,5c0,1.5,1.2,2.7,2.7,2.7
		C57.9,63,59.1,61.8,59.1,60.3z"/>
	<path id="XMLID_83_" class="st0" d="M71.4,57c1.1-1.1,1.1-2.8,0-3.9c-1.1-1.1-4.4-2.7-5.5-1.6c-1.1,1.1,0.6,4.4,1.6,5.5
		C68.6,58.1,70.3,58.1,71.4,57z"/>
	<path id="XMLID_81_" class="st0" d="M45.4,56.6c1.1-1.1,2.7-4.4,1.6-5.5c-1.1-1.1-4.4,0.6-5.5,1.6c-1.1,1.1-1.1,2.8,0,3.9
		C42.6,57.7,44.4,57.7,45.4,56.6z"/>
</g>
</svg>
