<?xml version="1.0" encoding="utf-8"?>
<!-- Generator: Adobe Illustrator 24.0.0, SVG Export Plug-In . SVG Version: 6.00 Build 0)  -->
<svg version="1.1" id="Camada_1" xmlns="http://www.w3.org/2000/svg" xmlns:xlink="http://www.w3.org/1999/xlink" x="0px" y="0px"
	 viewBox="0 0 114 114" style="enable-background:new 0 0 114 114;" xml:space="preserve">
<style type="text/css">
	.st0{fill:#147834;}
</style>
<path class="st0" d="M181.8,966.6c-6.1-11.6-19-18.5-34.5-18.5c-2.5,0-5,0.2-7.6,0.5c0,0-0.1,0-0.1,0c-6.9,1-13.8,3.2-20.4,6.7
	c-11.6,6.1-20.4,15.2-24.6,25.6c-4.3,10.4-3.8,21.4,1.2,31c6.4,12.2,19.2,19.5,34.1,19.5c8.5,0,17.4-2.4,25.8-6.8
	c11.7-6.2,20.9-15.5,25.9-26.1C186.7,987.5,186.8,976.1,181.8,966.6z M170.1,999.6l-2.2-3c-1.6-2.1-4.5-2.5-6.6-0.9
	c-2.1,1.6-2.5,4.5-0.9,6.6l3.6,4.8c-3.6,3.5-7.9,6.7-12.7,9.3c-6.3,3.3-12.8,5.2-19,5.6l-8.9-13.2c-1.5-2.2-4.4-2.7-6.6-1.3
	c-2.2,1.5-2.7,4.4-1.3,6.6l4.4,6.5c-6.9-2.1-12.5-6.6-15.8-13c-3.7-7-4-15.2-0.8-23c3.4-8.3,10.6-15.7,20.3-20.8
	c0.4-0.2,0.8-0.4,1.3-0.6l8.1,11.1c0.9,1.3,2.4,1.9,3.8,1.9c1,0,1.9-0.3,2.8-0.9c2.1-1.5,2.6-4.5,1-6.6l-6.6-9.1
	c1.5-0.4,3-0.8,4.5-1.1l10.4,13c0.9,1.2,2.3,1.8,3.7,1.8c1,0,2.1-0.3,3-1c2-1.6,2.4-4.6,0.7-6.6l-6.3-7.9
	c10.8,0.7,19.4,5.6,23.5,13.3C177.9,979.6,176.3,990.2,170.1,999.6z"/>
<g id="XMLID_99_">
	<path id="XMLID_122_" class="st0" d="M59.2,95.5C59.2,95.5,59.2,95.5,59.2,95.5C59.3,95.5,59.3,95.5,59.2,95.5
		c9.2-0.2,16.6-3.3,22-9.4C93,72.8,90.7,50,90.6,49.1c-0.1-1-0.7-1.8-1.5-2.2c-0.9-0.4-1.9-0.4-2.7,0c-0.5,0.3-5.1,2.9-10.6,7.7
		C75.4,36.1,69.7,17,59.3,17c-10.4,0-16.2,19.1-16.5,37.6c-5.5-4.8-10.2-7.5-10.6-7.7c-0.8-0.5-1.9-0.5-2.7,0
		c-0.9,0.4-1.4,1.3-1.5,2.2c-0.1,1-2.4,23.7,9.4,37.1C42.7,92.2,50.1,95.4,59.2,95.5z M85.1,54.5c0,6.9-1.1,19.7-8.2,27.8
		c-3.7,4.1-8.6,6.6-14.6,7.3C63.7,72,78,59.7,85.1,54.5z M59.3,22.7c4.4,0,10.8,13.1,10.8,33.6c0,1.4,0,2.7-0.1,4.1
		c-4.1,4.6-8.1,10.3-10.7,17c-2.6-6.7-6.5-12.4-10.7-17c-0.1-1.3-0.1-2.7-0.1-4.1C48.5,35.8,54.9,22.7,59.3,22.7z M33.4,54.5
		c7.1,5.1,21.4,17.4,22.9,35.1c-6.1-0.7-11-3.1-14.6-7.3C34.5,74.3,33.4,61.5,33.4,54.5z"/>
	<path id="XMLID_119_" class="st0" d="M62.7,68.2c0.8,0,1.4-0.6,1.4-1.4s-0.6-1.4-1.4-1.4h-1.3c-0.8,0-1.4,0.6-1.4,1.4
		s0.6,1.4,1.4,1.4H62.7z"/>
	<path id="XMLID_118_" class="st0" d="M56.7,34.5c0.8,0,1.4-0.6,1.4-1.4s-0.6-1.4-1.4-1.4h-1.3c-0.8,0-1.4,0.6-1.4,1.4
		s0.6,1.4,1.4,1.4H56.7z"/>
	<path id="XMLID_112_" class="st0" d="M56.7,42.1c0.8,0,1.4-0.6,1.4-1.4c0-0.8-0.6-1.4-1.4-1.4h-1.3c-0.8,0-1.4,0.6-1.4,1.4
		c0,0.8,0.6,1.4,1.4,1.4H56.7z"/>
	<path id="XMLID_110_" class="st0" d="M63,38.3c0.8,0,1.4-0.6,1.4-1.4c0-0.8-0.6-1.4-1.4-1.4h-1.3c-0.8,0-1.4,0.6-1.4,1.4
		c0,0.8,0.6,1.4,1.4,1.4H63z"/>
	<path id="XMLID_109_" class="st0" d="M63,45.8c0.8,0,1.4-0.6,1.4-1.4s-0.6-1.4-1.4-1.4h-1.3c-0.8,0-1.4,0.6-1.4,1.4
		s0.6,1.4,1.4,1.4H63z"/>
	<path id="XMLID_108_" class="st0" d="M63,53.3c0.8,0,1.4-0.6,1.4-1.4c0-0.8-0.6-1.4-1.4-1.4h-1.3c-0.8,0-1.4,0.6-1.4,1.4
		c0,0.8,0.6,1.4,1.4,1.4H63z"/>
	<path id="XMLID_104_" class="st0" d="M63,60.7c0.8,0,1.4-0.6,1.4-1.4c0-0.8-0.6-1.4-1.4-1.4h-1.3c-0.8,0-1.4,0.6-1.4,1.4
		c0,0.8,0.6,1.4,1.4,1.4H63z"/>
	<path id="XMLID_102_" class="st0" d="M56.7,49.7c0.8,0,1.4-0.6,1.4-1.4s-0.6-1.4-1.4-1.4h-1.3c-0.8,0-1.4,0.6-1.4,1.4
		s0.6,1.4,1.4,1.4H56.7z"/>
	<path id="XMLID_101_" class="st0" d="M56.7,57.4c0.8,0,1.4-0.6,1.4-1.4s-0.6-1.4-1.4-1.4h-1.3c-0.8,0-1.4,0.6-1.4,1.4
		s0.6,1.4,1.4,1.4H56.7z"/>
	<path id="XMLID_105_" class="st0" d="M56.7,65c0.8,0,1.4-0.6,1.4-1.4c0-0.8-0.6-1.4-1.4-1.4h-1.3c-0.8,0-1.4,0.6-1.4,1.4
		c0,0.8,0.6,1.4,1.4,1.4H56.7z"/>
</g>
</svg>
