<?xml version="1.0" encoding="utf-8"?>
<!-- Generator: Adobe Illustrator 25.1.0, SVG Export Plug-In . SVG Version: 6.00 Build 0)  -->
<svg version="1.1" id="Camada_1" xmlns="http://www.w3.org/2000/svg" xmlns:xlink="http://www.w3.org/1999/xlink" x="0px" y="0px"
	 viewBox="0 0 114 114" style="enable-background:new 0 0 114 114;" xml:space="preserve">
<style type="text/css">
	.st0{fill:#147834;}
</style>
<path class="st0" d="M181.8,966.6c-6.1-11.6-19-18.5-34.5-18.5c-2.5,0-5,0.2-7.6,0.5c0,0-0.1,0-0.1,0c-6.9,1-13.8,3.2-20.4,6.7
	c-11.6,6.1-20.4,15.2-24.6,25.6c-4.3,10.4-3.8,21.4,1.2,31c6.4,12.2,19.2,19.5,34.1,19.5c8.5,0,17.4-2.4,25.8-6.8
	c11.7-6.2,20.9-15.5,25.9-26.1C186.7,987.5,186.8,976.1,181.8,966.6z M170.1,999.6l-2.2-3c-1.6-2.1-4.5-2.5-6.6-0.9
	c-2.1,1.6-2.5,4.5-0.9,6.6l3.6,4.8c-3.6,3.5-7.9,6.7-12.7,9.3c-6.3,3.3-12.8,5.2-19,5.6l-8.9-13.2c-1.5-2.2-4.4-2.7-6.6-1.3
	c-2.2,1.5-2.7,4.4-1.3,6.6l4.4,6.5c-6.9-2.1-12.5-6.6-15.8-13c-3.7-7-4-15.2-0.8-23c3.4-8.3,10.6-15.7,20.3-20.8
	c0.4-0.2,0.8-0.4,1.3-0.6l8.1,11.1c0.9,1.3,2.4,1.9,3.8,1.9c1,0,1.9-0.3,2.8-0.9c2.1-1.5,2.6-4.5,1-6.6l-6.6-9.1
	c1.5-0.4,3-0.8,4.5-1.1l10.4,13c0.9,1.2,2.3,1.8,3.7,1.8c1,0,2.1-0.3,3-1c2-1.6,2.4-4.6,0.7-6.6l-6.3-7.9
	c10.8,0.7,19.4,5.6,23.5,13.3C177.9,979.6,176.3,990.2,170.1,999.6z"/>
<g>
	<path class="st0" d="M93.1,43.2c-1.8-3.9-4.8-6.7-9.1-8.2c-17.7-6.2-51.5,10.8-53.4,11.8c-7.2,2.5-12.5,10.4-12.5,19.8
		c0,11.4,7.8,20.7,17.4,20.7c1.9,0,3.8-0.4,5.5-1.1c9-3,44.8-16,52-31.9C94.6,50.5,94.7,46.7,93.1,43.2z M22.2,66.6
		c0-9.1,5.9-16.5,13.2-16.5c7.3,0,13.2,7.4,13.2,16.5c0,7.2-3.7,13.4-8.9,15.6c-0.9,0.3-1.6,0.5-1.8,0.6c-0.8,0.2-1.6,0.3-2.5,0.3
		C28.2,83.1,22.2,75.7,22.2,66.6z M61,73.7c-4,1.9-7.9,3.5-11.4,4.9c2-3.4,3.2-7.5,3.2-11.9c0-5.4-1.7-10.2-4.6-13.9
		c3.5-2.1,12.8-6.8,32.1-9c0.9-0.1,1.5-0.9,1.4-1.7c-0.1-0.9-0.9-1.5-1.7-1.4C59.4,43,49.6,48,46.1,50.3c-1.7-1.6-3.6-2.8-5.7-3.5
		c11.1-4.7,30.9-11.9,42.1-7.9c3.2,1.1,5.4,3.1,6.7,5.9c0.1,0.3,0.3,0.6,0.4,0.9c-3.7,2.6-15.5,10.1-33.2,12.7
		c-0.9,0.1-1.4,0.9-1.3,1.8c0.1,0.8,0.8,1.3,1.5,1.3c0.1,0,0.2,0,0.2,0C73.6,59.1,85,52.7,90,49.4c-0.1,1-0.4,2.1-0.9,3.2
		C86.2,59.1,76.4,66.4,61,73.7z"/>
	<path class="st0" d="M34.4,57.3c-0.9,0-1.6,1.4-1.6,3c0,1.7,0.7,3,1.6,3s1.6-1.4,1.6-3C36,58.6,35.3,57.3,34.4,57.3z"/>
	<path class="st0" d="M40.6,63.9c1.3-1.1,1.9-2.5,1.3-3.2c-0.6-0.7-2.1-0.4-3.4,0.7c-1.3,1.1-1.9,2.5-1.3,3.2
		C37.8,65.3,39.3,65,40.6,63.9z"/>
	<path class="st0" d="M30,62.1c-1.3-1.1-2.8-1.4-3.4-0.7c-0.6,0.7,0,2.1,1.3,3.2s2.8,1.4,3.4,0.7C31.9,64.6,31.3,63.2,30,62.1z"/>
	<path class="st0" d="M34.4,69.6c-0.9,0-1.6,1.4-1.6,3c0,1.7,0.7,3,1.6,3s1.6-1.4,1.6-3C36,71,35.3,69.6,34.4,69.6z"/>
	<path class="st0" d="M38.5,71.5c1.3,1.1,2.8,1.4,3.4,0.7c0.6-0.7,0-2.1-1.3-3.2c-1.3-1.1-2.8-1.4-3.4-0.7
		C36.6,69,37.2,70.5,38.5,71.5z"/>
	<path class="st0" d="M28,68.4c-1.3,1.1-1.9,2.5-1.3,3.2c0.6,0.7,2.1,0.4,3.4-0.7c1.3-1.1,1.9-2.5,1.3-3.2S29.3,67.3,28,68.4z"/>
</g>
</svg>
