<?xml version="1.0" encoding="utf-8"?>
<!-- Generator: Adobe Illustrator 24.0.0, SVG Export Plug-In . SVG Version: 6.00 Build 0)  -->
<svg version="1.1" id="Camada_1" xmlns="http://www.w3.org/2000/svg" xmlns:xlink="http://www.w3.org/1999/xlink" x="0px" y="0px"
	 viewBox="0 0 114 114" style="enable-background:new 0 0 114 114;" xml:space="preserve">
<style type="text/css">
	.st0{fill:#147834;}
</style>
<path class="st0" d="M181.8,966.6c-6.1-11.6-19-18.5-34.5-18.5c-2.5,0-5,0.2-7.6,0.5c0,0-0.1,0-0.1,0c-6.9,1-13.8,3.2-20.4,6.7
	c-11.6,6.1-20.4,15.2-24.6,25.6c-4.3,10.4-3.8,21.4,1.2,31c6.4,12.2,19.2,19.5,34.1,19.5c8.5,0,17.4-2.4,25.8-6.8
	c11.7-6.2,20.9-15.5,25.9-26.1C186.7,987.5,186.8,976.1,181.8,966.6z M170.1,999.6l-2.2-3c-1.6-2.1-4.5-2.5-6.6-0.9
	c-2.1,1.6-2.5,4.5-0.9,6.6l3.6,4.8c-3.6,3.5-7.9,6.7-12.7,9.3c-6.3,3.3-12.8,5.2-19,5.6l-8.9-13.2c-1.5-2.2-4.4-2.7-6.6-1.3
	c-2.2,1.5-2.7,4.4-1.3,6.6l4.4,6.5c-6.9-2.1-12.5-6.6-15.8-13c-3.7-7-4-15.2-0.8-23c3.4-8.3,10.6-15.7,20.3-20.8
	c0.4-0.2,0.8-0.4,1.3-0.6l8.1,11.1c0.9,1.3,2.4,1.9,3.8,1.9c1,0,1.9-0.3,2.8-0.9c2.1-1.5,2.6-4.5,1-6.6l-6.6-9.1
	c1.5-0.4,3-0.8,4.5-1.1l10.4,13c0.9,1.2,2.3,1.8,3.7,1.8c1,0,2.1-0.3,3-1c2-1.6,2.4-4.6,0.7-6.6l-6.3-7.9
	c10.8,0.7,19.4,5.6,23.5,13.3C177.9,979.6,176.3,990.2,170.1,999.6z"/>
<path id="XMLID_154_" class="st0" d="M59.5,31.5c0.9-0.3,1.4-1.3,1.1-2.3c-0.3-0.9-1.3-1.4-2.3-1.1c-4.8,1.6-5.6,6.8-5.7,9.6
	c-6.7,1-8.5,6.8-10.1,12c-0.4,1.3-0.8,2.6-1.3,3.8c-0.4,1.1-1.2,2.5-2,4c-2.2,3.9-4.9,8.6-4.7,13.9c0.3,9.5,7.1,14.4,20.1,14.4
	c13,0,19.8-4.8,20.1-14.4c0.2-5.3-2.5-10.1-4.7-13.9c-0.8-1.5-1.6-2.9-2-4c-0.5-1.2-0.9-2.5-1.3-3.8c-1.6-5.3-3.5-11.3-10.7-12
	C56.3,35.7,56.9,32.4,59.5,31.5z M63.5,50.8c0.4,1.3,0.8,2.7,1.3,4c0.5,1.3,1.4,2.9,2.3,4.5c1.9,3.5,4.4,7.8,4.2,12.1
	c-0.2,5.1-2.2,11-16.6,11c-14.3,0-16.4-5.9-16.6-11c-0.1-4.3,2.3-8.6,4.2-12.1c0.9-1.6,1.8-3.1,2.3-4.5c0.5-1.3,0.9-2.7,1.3-4
	c1.9-6.1,3.2-9.6,8.7-9.6C60.2,41.2,61.6,44.7,63.5,50.8z"/>
</svg>
