<?xml version="1.0" encoding="utf-8"?>
<!-- Generator: Adobe Illustrator 24.0.0, SVG Export Plug-In . SVG Version: 6.00 Build 0)  -->
<svg version="1.1" id="Camada_1" xmlns="http://www.w3.org/2000/svg" xmlns:xlink="http://www.w3.org/1999/xlink" x="0px" y="0px"
	 viewBox="0 0 114 114" style="enable-background:new 0 0 114 114;" xml:space="preserve">
<style type="text/css">
	.st0{fill:#147834;}
</style>
<path class="st0" d="M181.8,966.6c-6.1-11.6-19-18.5-34.5-18.5c-2.5,0-5,0.2-7.6,0.5c0,0-0.1,0-0.1,0c-6.9,1-13.8,3.2-20.4,6.7
	c-11.6,6.1-20.4,15.2-24.6,25.6c-4.3,10.4-3.8,21.4,1.2,31c6.4,12.2,19.2,19.5,34.1,19.5c8.5,0,17.4-2.4,25.8-6.8
	c11.7-6.2,20.9-15.5,25.9-26.1C186.7,987.5,186.8,976.1,181.8,966.6z M170.1,999.6l-2.2-3c-1.6-2.1-4.5-2.5-6.6-0.9
	c-2.1,1.6-2.5,4.5-0.9,6.6l3.6,4.8c-3.6,3.5-7.9,6.7-12.7,9.3c-6.3,3.3-12.8,5.2-19,5.6l-8.9-13.2c-1.5-2.2-4.4-2.7-6.6-1.3
	c-2.2,1.5-2.7,4.4-1.3,6.6l4.4,6.5c-6.9-2.1-12.5-6.6-15.8-13c-3.7-7-4-15.2-0.8-23c3.4-8.3,10.6-15.7,20.3-20.8
	c0.4-0.2,0.8-0.4,1.3-0.6l8.1,11.1c0.9,1.3,2.4,1.9,3.8,1.9c1,0,1.9-0.3,2.8-0.9c2.1-1.5,2.6-4.5,1-6.6l-6.6-9.1
	c1.5-0.4,3-0.8,4.5-1.1l10.4,13c0.9,1.2,2.3,1.8,3.7,1.8c1,0,2.1-0.3,3-1c2-1.6,2.4-4.6,0.7-6.6l-6.3-7.9
	c10.8,0.7,19.4,5.6,23.5,13.3C177.9,979.6,176.3,990.2,170.1,999.6z"/>
<g id="XMLID_28_">
	<path id="XMLID_97_" class="st0" d="M41.3,45.8c-0.5,1.7-1,3.4-1.7,5c-0.5,1.4-1.6,3.3-2.7,5.2c-2.9,5.1-6.4,11.4-6.2,18.3
		c0.2,5.6,2.7,23.7,26.5,23.7c23.8,0,26.3-18.1,26.5-23.7c0.2-7-3.3-13.3-6.2-18.3c-1.1-2-2.1-3.8-2.7-5.2c-0.6-1.6-1.1-3.3-1.7-5
		c-2.2-7.1-4.7-15.1-14.3-15.9c-2.2-6.2-5.7-10.5-10.3-12.7c-7-3.3-13.9-0.6-14.2-0.4c-0.6,0.2-1.1,0.7-1.3,1.4
		c-0.2,0.6-0.2,1.3,0.1,1.9c0.2,0.5,5,9.4,14.5,13C44.3,36.2,42.8,41.2,41.3,45.8z M39.2,20.4c2-0.3,4.8-0.3,7.5,1
		c3,1.4,5.5,4.2,7.2,8.2C46.4,28.8,41.5,23.6,39.2,20.4z M56.6,34.5c0.2,0,0.5,0,0.7,0c7.3,0,9,4.6,11.5,12.7
		c0.5,1.7,1.1,3.5,1.7,5.3c0.7,1.8,1.8,3.8,3,5.9c2.6,4.6,5.8,10.2,5.6,15.9c-0.2,7.2-3.4,19.2-21.8,19.2c-18.4,0-21.6-12-21.8-19.2
		c-0.2-5.6,3-11.3,5.6-15.9c1.2-2.1,2.3-4.1,3-5.9c0.7-1.8,1.2-3.5,1.7-5.3C48.2,39.4,50,34.8,56.6,34.5z"/>
	<path id="XMLID_29_" class="st0" d="M73.5,74.6c0-8.9-7.2-16.1-16.1-16.1c-8.9,0-16.1,7.2-16.1,16.1c0,8.9,7.2,16.1,16.1,16.1
		C66.3,90.8,73.5,83.5,73.5,74.6z M45.9,74.6c0-6.3,5.1-11.5,11.5-11.5c6.3,0,11.5,5.1,11.5,11.5c0,6.3-5.1,11.5-11.5,11.5
		C51,86.1,45.9,80.9,45.9,74.6z"/>
</g>
</svg>
