<?xml version="1.0" encoding="utf-8"?>
<!-- Generator: Adobe Illustrator 24.0.0, SVG Export Plug-In . SVG Version: 6.00 Build 0)  -->
<svg version="1.1" id="Camada_1" xmlns="http://www.w3.org/2000/svg" xmlns:xlink="http://www.w3.org/1999/xlink" x="0px" y="0px"
	 viewBox="0 0 114 114" style="enable-background:new 0 0 114 114;" xml:space="preserve">
<style type="text/css">
	.st0{fill:#147834;}
</style>
<path class="st0" d="M181.8,966.6c-6.1-11.6-19-18.5-34.5-18.5c-2.5,0-5,0.2-7.6,0.5c0,0-0.1,0-0.1,0c-6.9,1-13.8,3.2-20.4,6.7
	c-11.6,6.1-20.4,15.2-24.6,25.6c-4.3,10.4-3.8,21.4,1.2,31c6.4,12.2,19.2,19.5,34.1,19.5c8.5,0,17.4-2.4,25.8-6.8
	c11.7-6.2,20.9-15.5,25.9-26.1C186.7,987.5,186.8,976.1,181.8,966.6z M170.1,999.6l-2.2-3c-1.6-2.1-4.5-2.5-6.6-0.9
	c-2.1,1.6-2.5,4.5-0.9,6.6l3.6,4.8c-3.6,3.5-7.9,6.7-12.7,9.3c-6.3,3.3-12.8,5.2-19,5.6l-8.9-13.2c-1.5-2.2-4.4-2.7-6.6-1.3
	c-2.2,1.5-2.7,4.4-1.3,6.6l4.4,6.5c-6.9-2.1-12.5-6.6-15.8-13c-3.7-7-4-15.2-0.8-23c3.4-8.3,10.6-15.7,20.3-20.8
	c0.4-0.2,0.8-0.4,1.3-0.6l8.1,11.1c0.9,1.3,2.4,1.9,3.8,1.9c1,0,1.9-0.3,2.8-0.9c2.1-1.5,2.6-4.5,1-6.6l-6.6-9.1
	c1.5-0.4,3-0.8,4.5-1.1l10.4,13c0.9,1.2,2.3,1.8,3.7,1.8c1,0,2.1-0.3,3-1c2-1.6,2.4-4.6,0.7-6.6l-6.3-7.9
	c10.8,0.7,19.4,5.6,23.5,13.3C177.9,979.6,176.3,990.2,170.1,999.6z"/>
<path id="XMLID_130_" class="st0" d="M98.7,34.8c1.6,0.3,3.1-0.7,3.4-2.3c0.3-1.6-0.7-3.1-2.3-3.4c-7.1-1.4-13.9,3.6-18.1,9.6
	c-5.2-3.4-12.8-4-20.8,3.3c-2.8,2.5-5.1,6.1-7.7,9.8C48.4,59.1,43,67.3,33.5,69.4c-6.2,1.4-13.3,1-18.1,0.4
	c-2.4-0.3-3.7,0.6-4.4,1.5c-0.7,0.9-1.2,2.4-0.3,4.7c1.4,3.3,11.9,6.2,14,6.7c4.6,1.2,10.9,2.4,17.9,2.4c2.8,0,5.6-0.2,8.5-0.6
	c19-2.9,30.3-16.5,33.3-20.6c5.9-8,5.1-16,1.5-21.1C89,38,94.1,33.9,98.7,34.8z M79.8,60.4c-2.7,3.6-12.8,15.7-29.6,18.3
	c-10.6,1.6-20.9-0.5-27.5-2.7c3.8,0.1,8-0.2,12-1.1c11.7-2.6,18.2-12.2,23.3-19.9c2.3-3.4,4.5-6.7,6.8-8.8c1-0.9,2-1.7,2.9-2.3
	l-0.6,1.2c-0.2,0.4-0.2,1,0,1.4c0.3,0.4,0.7,0.7,1.2,0.7h4.4l-0.4,4.2c0,0.4,0.1,0.8,0.4,1.1c0.3,0.3,0.7,0.5,1.1,0.5h4.6v3.4
	c0,0.5,0.2,0.9,0.6,1.2c0.2,0.2,0.5,0.2,0.8,0.2c0.2,0,0.4,0,0.6-0.1l1.3-0.6C81.2,58.3,80.6,59.4,79.8,60.4z M82.9,53.7l-1.6,0.7
	v-2.6c0-0.8-0.6-1.4-1.4-1.4h-4.5l0.4-4.2c0-0.4-0.1-0.8-0.4-1.1c-0.3-0.3-0.7-0.5-1.1-0.5h-3.6l1.2-2.3c3.9-0.8,6.8,1.1,8.4,2.8
	C80.8,45.6,83.7,48.7,82.9,53.7z"/>
</svg>
