<?xml version="1.0" encoding="utf-8"?>
<!-- Generator: Adobe Illustrator 24.0.0, SVG Export Plug-In . SVG Version: 6.00 Build 0)  -->
<svg version="1.1" id="Camada_1" xmlns="http://www.w3.org/2000/svg" xmlns:xlink="http://www.w3.org/1999/xlink" x="0px" y="0px"
	 viewBox="0 0 114 114" style="enable-background:new 0 0 114 114;" xml:space="preserve">
<style type="text/css">
	.st0{fill:#147834;}
</style>
<path class="st0" d="M181.8,966.6c-6.1-11.6-19-18.5-34.5-18.5c-2.5,0-5,0.2-7.6,0.5c0,0-0.1,0-0.1,0c-6.9,1-13.8,3.2-20.4,6.7
	c-11.6,6.1-20.4,15.2-24.6,25.6c-4.3,10.4-3.8,21.4,1.2,31c6.4,12.2,19.2,19.5,34.1,19.5c8.5,0,17.4-2.4,25.8-6.8
	c11.7-6.2,20.9-15.5,25.9-26.1C186.7,987.5,186.8,976.1,181.8,966.6z M170.1,999.6l-2.2-3c-1.6-2.1-4.5-2.5-6.6-0.9
	c-2.1,1.6-2.5,4.5-0.9,6.6l3.6,4.8c-3.6,3.5-7.9,6.7-12.7,9.3c-6.3,3.3-12.8,5.2-19,5.6l-8.9-13.2c-1.5-2.2-4.4-2.7-6.6-1.3
	c-2.2,1.5-2.7,4.4-1.3,6.6l4.4,6.5c-6.9-2.1-12.5-6.6-15.8-13c-3.7-7-4-15.2-0.8-23c3.4-8.3,10.6-15.7,20.3-20.8
	c0.4-0.2,0.8-0.4,1.3-0.6l8.1,11.1c0.9,1.3,2.4,1.9,3.8,1.9c1,0,1.9-0.3,2.8-0.9c2.1-1.5,2.6-4.5,1-6.6l-6.6-9.1
	c1.5-0.4,3-0.8,4.5-1.1l10.4,13c0.9,1.2,2.3,1.8,3.7,1.8c1,0,2.1-0.3,3-1c2-1.6,2.4-4.6,0.7-6.6l-6.3-7.9
	c10.8,0.7,19.4,5.6,23.5,13.3C177.9,979.6,176.3,990.2,170.1,999.6z"/>
<g id="XMLID_37_">
	<path id="XMLID_84_" class="st0" d="M26,60.7c0,7.5,3.5,15,9.5,20.6c6.2,5.8,14.3,8.9,22.8,8.9c8.5,0,16.6-3.2,22.8-8.9
		c6.1-5.6,9.5-13.1,9.5-20.6c0-10.1-6.2-18.4-15.9-22.9c1.7-4,2.7-7.7,3-11c0.1-0.9-0.4-1.8-1.1-2.4c-0.8-0.5-1.8-0.6-2.6-0.2
		c-3.1,1.6-6.4,4.1-9.6,7.5c-0.8-4.5-2-8.2-3.8-11.3c-0.5-0.8-1.3-1.3-2.3-1.3c-0.9,0-1.8,0.5-2.3,1.3c-1.7,3.1-3,6.8-3.8,11.3
		c-3.2-3.4-6.4-5.9-9.6-7.5c-0.8-0.4-1.8-0.4-2.6,0.2c-0.8,0.5-1.2,1.4-1.1,2.4c0.3,3.3,1.3,7,3,11C32.2,42.2,26,50.6,26,60.7z
		 M71.2,32.4c-0.4,1.2-0.8,2.4-1.4,3.6c-0.6-0.2-1.2-0.3-1.9-0.5C69,34.3,70.1,33.3,71.2,32.4z M58.2,28.7c0.5,1.7,0.9,3.6,1.2,5.7
		c-0.4,0-0.8,0-1.2,0c-0.4,0-0.8,0-1.2,0C57.4,32.3,57.8,30.4,58.2,28.7z M48.6,35.5c-0.6,0.2-1.3,0.3-1.9,0.5
		c-0.5-1.2-1-2.4-1.4-3.6C46.4,33.3,47.5,34.3,48.6,35.5z M58.2,39.5c15.4,0,27.1,9.1,27.1,21.1c0,13-12.7,24.4-27.1,24.4
		S31.1,73.7,31.1,60.7C31.1,48.6,42.8,39.5,58.2,39.5z"/>
	<path id="XMLID_27_" class="st0" d="M80.3,66.5c1.2,0,2.3-0.8,2.5-2.1c0.1-0.5,0.2-0.9,0.2-1.4c0.2-1.4-0.8-2.7-2.2-2.9
		C79.5,60,78.2,61,78,62.4c0,0.3-0.1,0.7-0.2,1c-0.3,1.4,0.6,2.8,2,3.1C80,66.5,80.2,66.5,80.3,66.5z"/>
	<path id="XMLID_26_" class="st0" d="M77.4,57.5c0.3,1.1,1.4,1.9,2.5,1.9c0.2,0,0.5,0,0.7-0.1c1.4-0.4,2.2-1.8,1.8-3.2
		c-1.7-5.8-6.1-10.5-12.5-13.1c-1.3-0.5-2.8,0.1-3.4,1.4c-0.5,1.3,0.1,2.8,1.4,3.4C72.8,49.7,76.2,53.2,77.4,57.5z"/>
</g>
</svg>
