<?xml version="1.0" encoding="utf-8"?>
<!-- Generator: Adobe Illustrator 24.0.0, SVG Export Plug-In . SVG Version: 6.00 Build 0)  -->
<svg version="1.1" id="Camada_1" xmlns="http://www.w3.org/2000/svg" xmlns:xlink="http://www.w3.org/1999/xlink" x="0px" y="0px"
	 viewBox="0 0 114 114" style="enable-background:new 0 0 114 114;" xml:space="preserve">
<style type="text/css">
	.st0{fill:#147834;}
</style>
<path class="st0" d="M181.8,966.6c-6.1-11.6-19-18.5-34.5-18.5c-2.5,0-5,0.2-7.6,0.5c0,0-0.1,0-0.1,0c-6.9,1-13.8,3.2-20.4,6.7
	c-11.6,6.1-20.4,15.2-24.6,25.6c-4.3,10.4-3.8,21.4,1.2,31c6.4,12.2,19.2,19.5,34.1,19.5c8.5,0,17.4-2.4,25.8-6.8
	c11.7-6.2,20.9-15.5,25.9-26.1C186.7,987.5,186.8,976.1,181.8,966.6z M170.1,999.6l-2.2-3c-1.6-2.1-4.5-2.5-6.6-0.9
	c-2.1,1.6-2.5,4.5-0.9,6.6l3.6,4.8c-3.6,3.5-7.9,6.7-12.7,9.3c-6.3,3.3-12.8,5.2-19,5.6l-8.9-13.2c-1.5-2.2-4.4-2.7-6.6-1.3
	c-2.2,1.5-2.7,4.4-1.3,6.6l4.4,6.5c-6.9-2.1-12.5-6.6-15.8-13c-3.7-7-4-15.2-0.8-23c3.4-8.3,10.6-15.7,20.3-20.8
	c0.4-0.2,0.8-0.4,1.3-0.6l8.1,11.1c0.9,1.3,2.4,1.9,3.8,1.9c1,0,1.9-0.3,2.8-0.9c2.1-1.5,2.6-4.5,1-6.6l-6.6-9.1
	c1.5-0.4,3-0.8,4.5-1.1l10.4,13c0.9,1.2,2.3,1.8,3.7,1.8c1,0,2.1-0.3,3-1c2-1.6,2.4-4.6,0.7-6.6l-6.3-7.9
	c10.8,0.7,19.4,5.6,23.5,13.3C177.9,979.6,176.3,990.2,170.1,999.6z"/>
<g>
	<path class="st0" d="M67.8,55.8c-4.4,0-9.9,2.5-14.7,6.7c-4,3.5-5.9,8.2-6.8,11.6c-0.6,2.4-1.3,6.8-0.4,8.1
		c0.2,0.3,0.8,1.1,4.8,1.1c2.9,0,10.2-0.5,15.8-5.4c7.7-6.8,10.9-15.4,7.1-19.7C72.3,56.6,70.3,55.8,67.8,55.8z M71.4,66.4
		c-1.2,3.1-3.7,6.3-6.9,9.1c-4.9,4.3-11.8,4.6-13.8,4.6c-1,0-1.7-0.1-2.2-0.1c0-2.5,1.1-10.5,6.6-15.3c4.2-3.7,9.1-5.9,12.7-5.9
		c1.1,0,2.6,0.2,3.5,1.3C72.4,61.4,72.5,63.7,71.4,66.4z"/>
	<path class="st0" d="M95.3,42.6c-0.4-1.8-1.8-3.4-3.5-3.9c-1.5-0.5-3.1,0-4.3,1.2l-3.8,3.3C82.3,42.4,80.7,42,79,42
		c-2.4,0-4.8,0.8-7,2.4c-0.5,0.4-2.6,0.8-4.6,1.2c-1.9,0.4-4.3,0.9-6.9,1.6c-1.3-2.3-2.5-4.4-3.6-6.1c-1.2-1.9-2.4-3.8-2.5-4.5
		c-0.6-4.7-3.1-7.8-6.2-9.3c0-1.2,0.1-3.4,0.1-5.8c0-1.6-0.8-2.9-2.2-3.7c-1.6-0.9-3.8-0.9-5.3,0c-1.3,0.8-2,2.3-2,4V27
		c-1.1,0.5-2.2,1.1-3.1,1.9c-2.2,1.9-3.5,4.7-3.8,7.9c-0.1,0.7-1.1,2.5-2.1,4.3c-3.1,5.5-8.2,14.6-8,26.3c0.1,7.2,2.9,13.8,8,19.1
		c4.2,4.4,9,6.9,12,7.8c3,1.3,7,2.3,11.4,2.3c0,0,0,0,0,0c6.7,0,12.8-2.3,18-6.9c8.8-7.7,11.8-17.8,13.6-23.8
		c0.6-2.2,1.3-4.2,1.8-4.8c2.8-3.1,3.9-7,2.9-10.7c0.9-0.8,2.6-2.1,4.4-3.7C95.2,45.7,95.7,44.2,95.3,42.6z M41.9,21.8
		c-0.1-1,0.4-1.2,0.5-1.3c0.6-0.4,1.5-0.3,2.2,0c0.7,0.4,0.7,0.9,0.7,1.1c0,1.9-0.1,3.6-0.1,4.8c-0.7-0.1-1.5-0.2-2.2-0.2
		c-0.4,0-0.7,0-1,0.1L41.9,21.8C41.9,21.8,41.9,21.8,41.9,21.8z M24.9,67.4c-0.2-10.9,4.7-19.6,7.6-24.8c1.4-2.5,2.3-4.2,2.5-5.5
		c0.5-5.4,4.4-7.8,8-7.9c3.7,0,7.8,2.4,8.4,7.8c0.2,1.5,1.3,3.2,2.9,5.8c1,1.5,2.1,3.3,3.2,5.3c-4.8,1.6-10.2,4.2-15,8.6
		c-7.4,6.7-9.1,14.9-9.2,20.6c-0.1,3.6,0.5,6.9,1.2,9.3C29.7,82.7,25.1,76.2,24.9,67.4z M84.4,59.1c-1,1.1-1.6,3-2.4,6
		c-1.8,6.1-4.5,15.3-12.7,22.4c-4.7,4.1-10.1,6.2-16.1,6.2c-7.3,0-13.3-3.3-14.5-4.6c-1.7-1.9-6.7-18.7,5.8-29.9
		c8-7.2,17.7-9.2,23.4-10.4c2.8-0.6,4.7-1,5.7-1.7c1.7-1.2,3.5-1.8,5.3-1.8c3.1,0,5.9,1.9,7.2,4.8C87.6,53,86.9,56.3,84.4,59.1z
		 M92,44.4c-1.4,1.2-2.7,2.3-3.6,3.1c-0.6-0.9-1.2-1.8-2-2.5l3.2-2.8c0,0,0,0,0.1-0.1c0.7-0.7,1.2-0.5,1.3-0.5
		c0.6,0.2,1.2,0.9,1.4,1.6C92.5,44,92.1,44.3,92,44.4z"/>
	<path class="st0" d="M57.7,73.1l-0.8,0.4c-0.7,0.4-1,1.3-0.6,2.1c0.3,0.5,0.8,0.8,1.3,0.8c0.2,0,0.5-0.1,0.7-0.2l0.8-0.4
		c0.7-0.4,1-1.3,0.6-2.1C59.3,73,58.4,72.7,57.7,73.1z"/>
	<path class="st0" d="M56.5,69.6c-0.6-0.5-1.6-0.5-2.1,0.2l-0.6,0.7c-0.5,0.6-0.5,1.6,0.2,2.1c0.3,0.2,0.6,0.4,1,0.4
		c0.4,0,0.9-0.2,1.2-0.5l0.6-0.7C57.2,71.1,57.1,70.1,56.5,69.6z"/>
	<path class="st0" d="M62.3,69.4l-0.7,0.5c-0.7,0.5-0.9,1.4-0.4,2.1c0.3,0.4,0.8,0.7,1.3,0.7c0.3,0,0.6-0.1,0.8-0.2l0.7-0.5
		c0.7-0.5,0.9-1.4,0.4-2.1C63.9,69.1,63,69,62.3,69.4z"/>
	<path class="st0" d="M61.1,65.8c-0.5-0.7-1.4-0.8-2.1-0.3L58.2,66c-0.7,0.5-0.8,1.4-0.3,2.1c0.3,0.4,0.8,0.6,1.2,0.6
		c0.3,0,0.6-0.1,0.9-0.3l0.7-0.5C61.4,67.5,61.5,66.5,61.1,65.8z"/>
	<path class="st0" d="M65.9,63.1c-0.4-0.7-1.3-1-2.1-0.6L63,62.8c-0.7,0.4-1,1.3-0.6,2.1c0.3,0.5,0.8,0.8,1.3,0.8
		c0.2,0,0.5-0.1,0.7-0.2l0.8-0.4C66,64.7,66.3,63.8,65.9,63.1z"/>
	<path class="st0" d="M66.1,65.8l-0.6,0.7c-0.5,0.7-0.4,1.6,0.2,2.1c0.3,0.2,0.6,0.3,0.9,0.3c0.4,0,0.9-0.2,1.2-0.6l0.6-0.7
		c0.5-0.7,0.4-1.6-0.2-2.1C67.6,65,66.7,65.2,66.1,65.8z"/>
</g>
</svg>
