<?xml version="1.0" encoding="utf-8"?>
<!-- Generator: Adobe Illustrator 24.0.0, SVG Export Plug-In . SVG Version: 6.00 Build 0)  -->
<svg version="1.1" id="Camada_1" xmlns="http://www.w3.org/2000/svg" xmlns:xlink="http://www.w3.org/1999/xlink" x="0px" y="0px"
	 viewBox="0 0 114 114" style="enable-background:new 0 0 114 114;" xml:space="preserve">
<style type="text/css">
	.st0{fill:#147834;}
</style>
<path class="st0" d="M181.8,966.6c-6.1-11.6-19-18.5-34.5-18.5c-2.5,0-5,0.2-7.6,0.5c0,0-0.1,0-0.1,0c-6.9,1-13.8,3.2-20.4,6.7
	c-11.6,6.1-20.4,15.2-24.6,25.6c-4.3,10.4-3.8,21.4,1.2,31c6.4,12.2,19.2,19.5,34.1,19.5c8.5,0,17.4-2.4,25.8-6.8
	c11.7-6.2,20.9-15.5,25.9-26.1C186.7,987.5,186.8,976.1,181.8,966.6z M170.1,999.6l-2.2-3c-1.6-2.1-4.5-2.5-6.6-0.9
	c-2.1,1.6-2.5,4.5-0.9,6.6l3.6,4.8c-3.6,3.5-7.9,6.7-12.7,9.3c-6.3,3.3-12.8,5.2-19,5.6l-8.9-13.2c-1.5-2.2-4.4-2.7-6.6-1.3
	c-2.2,1.5-2.7,4.4-1.3,6.6l4.4,6.5c-6.9-2.1-12.5-6.6-15.8-13c-3.7-7-4-15.2-0.8-23c3.4-8.3,10.6-15.7,20.3-20.8
	c0.4-0.2,0.8-0.4,1.3-0.6l8.1,11.1c0.9,1.3,2.4,1.9,3.8,1.9c1,0,1.9-0.3,2.8-0.9c2.1-1.5,2.6-4.5,1-6.6l-6.6-9.1
	c1.5-0.4,3-0.8,4.5-1.1l10.4,13c0.9,1.2,2.3,1.8,3.7,1.8c1,0,2.1-0.3,3-1c2-1.6,2.4-4.6,0.7-6.6l-6.3-7.9
	c10.8,0.7,19.4,5.6,23.5,13.3C177.9,979.6,176.3,990.2,170.1,999.6z"/>
<g>
	<path class="st0" d="M57.8,99.6c-24.6,0-44.6-20-44.6-44.6c0-2.6,0.2-5.2,0.7-7.8c0-0.3,0-0.6,0.1-0.9c0.1-0.5,1.5-5.1,5.1-7.1
		c0,0,0,0,0,0c1.8-9.7,12.7-20.9,19.5-22.1c0.4-0.1,0.8-0.1,1.2-0.1c1.7,0,3.2,0.7,4.2,2c4.4-1.9,9.2-2.8,13.9-2.8
		c5.4,0,10.9,1.3,15.7,3.7c0.1-0.1,0.2-0.2,0.3-0.2c0.8-0.5,1.8-0.8,2.9-0.8c1.3,0,2.9,0.4,4.5,1.2C86,22.3,94,29.4,96,38.9
		c0,0,0,0,0,0c3.4,1.7,5.1,5.8,5.5,7.1c0.1,0.1,0.1,0.3,0.1,0.5c0.5,2.8,0.8,5.6,0.8,8.5c0,24.6-20,44.7-44.6,44.7H57.8z M20,47.5
		c0,0.1,0,0.2,0,0.3c-0.5,2.4-0.7,4.9-0.7,7.3c0,20.2,15.5,36.8,35.5,38.4c0-0.3,0-0.7,0-1c-0.2-5.7-1.8-16.2-9.3-20.6
		c-9.3-5.5-9-12-8.9-13.2c0-0.5-0.1-2.3-0.9-3.2c-0.5-0.5-1.2-0.8-2.3-0.8c-1.4,0-2.2,1.3-2.3,1.3c-0.5,0.9-1.5,1.5-2.6,1.5
		c-0.3,0-0.7-0.1-1-0.2c-1.4-0.5-2.2-1.9-2-3.4c0.3-2.3,0.5-8.4-2.5-9.3c-0.2-0.1-0.4-0.1-0.5-0.1c-0.2,0-0.4,0-0.5,0.1
		C21.2,45,20.4,46.4,20,47.5z M82.2,54.5c-1.1,0-1.8,0.3-2.3,0.8c-0.8,0.9-0.9,2.5-0.9,3.2c0.1,1.2,0.4,7.6-8.9,13.2
		c-7.5,4.5-9,14.9-9.3,20.7c0,0.4,0,0.7,0,1c20-1.6,35.5-18.3,35.5-38.5c0-2.4-0.2-4.8-0.7-7.1c-0.4-1.2-1.4-2.9-2.3-3.5
		c0,0-0.1,0-0.1,0c-0.2,0-0.4,0-0.5,0c0,0,0,0,0,0c-3.7,1.4-2.7,9.4-2.6,9.4c0.2,1.4-0.6,2.8-2,3.3c-0.3,0.1-0.7,0.2-1,0.2
		c-1.1,0-2.1-0.6-2.6-1.5C84.5,55.8,83.7,54.5,82.2,54.5l0-1L82.2,54.5z M42.6,59.4c0,0-0.2,3.4,6,7.1c4,2.4,7.1,6.2,9.2,11.1
		c1.9-4.6,4.8-8.1,8.4-10.5c0.7-1.8,2-6.8-2.7-10.4c-1.8-1.4-3.7-2.1-5.6-2.1c-3.4,0-5.9,2-6,2.1c-0.5,0.4-1.2,0.7-1.9,0.7
		c-0.7,0-1.4-0.2-1.9-0.7c-1.1-0.9-1.4-2.5-0.8-3.7c0-0.1,4.8-9.8,0.7-13.4c-2.7-2.3-5.7-2.8-7.7-2.8c-1.8,0-3,0.4-3.1,0.4
		c-0.3,0.1-0.6,0.1-0.9,0.1c-1.1,0-2.1-0.6-2.7-1.6c-0.7-1.3-0.4-2.8,0.6-3.7c1.9-1.7,5.2-5.7,4.8-8.5c-0.5,0.2-1.3,0.5-2.5,1.3
		c-4.4,2.9-9.6,8.9-11.3,14.4c3.6,1.4,5.7,4.7,6.2,9.8c0.6-0.1,1.2-0.2,1.7-0.2h0c3.5,0,5.6,1.5,6.7,2.7c2.8,3,2.6,7.4,2.5,7.8
		C42.7,59.2,42.6,59.3,42.6,59.4L42.6,59.4z M62.6,49.3c1.6,0.6,3.2,1.4,4.7,2.6c3.5,2.7,5,6,5.5,8.8c0.3-0.8,0.2-1.3,0.2-1.4
		c0-0.1,0-0.1,0-0.2c-0.1-0.8-0.2-4.9,2.5-7.9c1.1-1.2,3.2-2.7,6.7-2.7c0.6,0,1.2,0.1,1.8,0.2c0.5-4.7,2.5-8,5.7-9.6
		c-1.6-5.6-6-10.5-9.9-12.8c-1.7-1.1-2.7-1.2-3-1.3c-0.3,0.2-0.6,0.4-0.9,0.7l-0.1,0.1c-1,0.9-1.6,2-1.9,3.3
		c-0.8,3.9,1.9,9.1,2.9,10.6c0.8,1.2,0.7,2.8-0.3,3.8c-0.6,0.6-1.3,0.9-2.2,0.9l0,0c-0.6,0-1.2-0.2-1.7-0.5c-0.1,0-1.6-1-3.7-1
		c-1.2,0-2.3,0.3-3.4,1C63.5,45.2,62.8,47.6,62.6,49.3z M43,30.8c3.4,0.5,6.5,1.9,9,4.1c4.3,3.7,4.2,9.3,3.2,13.9
		c0.4-0.1,0.9-0.1,1.4-0.2c0.4-2.8,1.6-7.1,5.8-9.8c2-1.3,4.2-2,6.5-2c-1.1-3.2-1.3-6.3-0.8-9c0.2-1.1,0.6-2.2,1.2-3.2
		c-3.6-1.5-7.5-2.3-11.3-2.3v-1l0,1c-4.3,0-8.7,1-12.7,2.9C44.9,27,44.2,28.8,43,30.8z"/>
</g>
</svg>
