<?xml version="1.0" encoding="utf-8"?>
<!-- Generator: Adobe Illustrator 24.0.0, SVG Export Plug-In . SVG Version: 6.00 Build 0)  -->
<svg version="1.1" id="Camada_1" xmlns="http://www.w3.org/2000/svg" xmlns:xlink="http://www.w3.org/1999/xlink" x="0px" y="0px"
	 viewBox="0 0 114 114" style="enable-background:new 0 0 114 114;" xml:space="preserve">
<style type="text/css">
	.st0{fill:#147834;}
</style>
<path id="XMLID_91_" class="st0" d="M71,12.3c-0.5-0.6-1.2-1-2-1l-10.3-0.8c-0.8-0.1-1.5,0.2-2.1,0.7c-0.6,0.5-0.9,1.3-0.9,2
	C55,47.1,21.2,78.6,16.7,82.7c-1.8,0.5-3.4,1.4-4.7,2.8c-2,2-3.2,4.8-3.2,7.6c0,2.9,1.1,5.6,3.2,7.6c2.1,2.1,4.9,3.2,7.6,3.2
	c2.8,0,5.5-1.1,7.6-3.2c2.4-2.4,3.5-5.7,3.1-9c2.4-2.5,4.7-5,6.9-7.4c10-9.4,26.5-21,48.5-23.1c1.5-0.1,2.7-1.5,2.5-3l-0.6-8.2
	c-0.1-1.4-1.2-2.5-2.6-2.6c-0.2,0-2.5-0.1-6.5,0.4c7.9-3.9,16.2-6.3,24.8-7.2c1.5-0.1,2.7-1.5,2.5-3l-0.6-8.2
	c-0.1-1.4-1.2-2.5-2.6-2.6c-0.7,0-15.4-0.9-37.8,12.4c5.5-14.1,6.8-23.9,6.9-24.7C71.7,13.7,71.5,12.9,71,12.3z M82.2,53.1l0.2,2.8
	C69.7,57.6,58.9,62.1,50,67.5c1-1.5,1.9-3,2.9-4.5C67.1,55.1,77.7,53.4,82.2,53.1z M99.7,32.5l0.2,2.8c-14.5,1.9-28.2,8.1-40.6,18.2
	c-0.5,0.2-1,0.4-1.5,0.7c1-2,2-3.9,2.9-5.8C79.9,35.3,94.3,32.9,99.7,32.5z M25.3,88.8c-0.8,0.7-1.1,1.8-0.8,2.9
	c0.5,1.8,0,3.8-1.3,5.1c-2,2-5.3,2-7.3,0c-1-1-1.5-2.3-1.5-3.6c0-1.4,0.5-2.7,1.5-3.6c0.7-0.7,1.6-1.2,2.6-1.4
	c0.5-0.1,1-0.4,1.4-0.7c1.1-1,10.6-9.3,20.3-22.2c8.9-11.8,19.6-29.7,20.9-48.8l4.4,0.3C63.6,26.4,55.3,58.7,25.3,88.8z"/>
</svg>
