<?xml version="1.0" encoding="utf-8"?>
<!-- Generator: Adobe Illustrator 24.0.0, SVG Export Plug-In . SVG Version: 6.00 Build 0)  -->
<svg version="1.1" id="Camada_1" xmlns="http://www.w3.org/2000/svg" xmlns:xlink="http://www.w3.org/1999/xlink" x="0px" y="0px"
	 viewBox="0 0 114 114" style="enable-background:new 0 0 114 114;" xml:space="preserve">
<style type="text/css">
	.st0{fill:#147834;}
</style>
<path class="st0" d="M181.8,966.6c-6.1-11.6-19-18.5-34.5-18.5c-2.5,0-5,0.2-7.6,0.5c0,0-0.1,0-0.1,0c-6.9,1-13.8,3.2-20.4,6.7
	c-11.6,6.1-20.4,15.2-24.6,25.6c-4.3,10.4-3.8,21.4,1.2,31c6.4,12.2,19.2,19.5,34.1,19.5c8.5,0,17.4-2.4,25.8-6.8
	c11.7-6.2,20.9-15.5,25.9-26.1C186.7,987.5,186.8,976.1,181.8,966.6z M170.1,999.6l-2.2-3c-1.6-2.1-4.5-2.5-6.6-0.9
	c-2.1,1.6-2.5,4.5-0.9,6.6l3.6,4.8c-3.6,3.5-7.9,6.7-12.7,9.3c-6.3,3.3-12.8,5.2-19,5.6l-8.9-13.2c-1.5-2.2-4.4-2.7-6.6-1.3
	c-2.2,1.5-2.7,4.4-1.3,6.6l4.4,6.5c-6.9-2.1-12.5-6.6-15.8-13c-3.7-7-4-15.2-0.8-23c3.4-8.3,10.6-15.7,20.3-20.8
	c0.4-0.2,0.8-0.4,1.3-0.6l8.1,11.1c0.9,1.3,2.4,1.9,3.8,1.9c1,0,1.9-0.3,2.8-0.9c2.1-1.5,2.6-4.5,1-6.6l-6.6-9.1
	c1.5-0.4,3-0.8,4.5-1.1l10.4,13c0.9,1.2,2.3,1.8,3.7,1.8c1,0,2.1-0.3,3-1c2-1.6,2.4-4.6,0.7-6.6l-6.3-7.9
	c10.8,0.7,19.4,5.6,23.5,13.3C177.9,979.6,176.3,990.2,170.1,999.6z"/>
<path id="XMLID_202_" class="st0" d="M59.5,48.7c-2.1-1.6-4-2.6-5.9-3.1c-3.8-1-7.2,0.1-10.3,3.2c-1.4,1.4-4.1,4.6-7.2,8.7
	C33.2,61,26,70.5,20.5,79.6c-6.3,10.5-7.8,16-4.9,18.9c0.8,0.8,1.9,1.5,3.7,1.5c3.6,0,10-2.6,22.7-11.2
	c10.2-6.9,20.6-15.2,23.3-17.9c3.1-3.1,4.2-6.5,3.4-10.1c-0.5-2-1.5-4-3.3-6.2c2.6-1.6,6.4-4,8-5c0.7-0.5,1.4-0.6,1.7-0.5
	c0.2,0.1,0.7,0.7,1.1,2.1c0.8,3.5,3.8,5.6,7.2,5.1c3.1-0.4,5.3-2.8,5.2-5.5l0-0.7c0-0.8-0.1-2,0-2.8c0.6,1.4,1.6,3.4,3.9,4.7
	c1.9,1.1,4.6,1,6.7-0.3c2.1-1.3,3.3-3.4,3.3-5.8c-0.1-3.8-3.2-7.4-9.3-10.8c-4.4-2.4-8.9-2.5-13-1.1c1.3-4.1,1.3-8.6-1.1-13
	c-3.4-6.1-7-9.2-10.8-9.3c0,0-0.1,0-0.1,0c-2.3,0-4.4,1.2-5.7,3.3c-1.3,2.1-1.4,4.7-0.3,6.7c1.3,2.4,3.4,3.3,4.7,3.9
	c-0.8,0.1-1.9,0-2.8,0l-0.7,0c-2.7-0.1-5.1,2.1-5.5,5.2c-0.5,3.4,1.6,6.4,5.1,7.2c1.5,0.3,2,0.8,2.1,1.1c0.1,0.3,0,0.9-0.5,1.7
	C63.6,42.2,61.2,46,59.5,48.7z M19.8,94.3c0.1-0.9,0.7-3.2,3.2-7.9c0.7,0.7,1.4,1.3,2.1,2c0.9,0.9,1.7,1.8,2.5,2.7
	C23,93.6,20.7,94.2,19.8,94.3z M29.2,90.3c-0.9-1-1.9-2.1-2.9-3c-0.8-0.8-1.6-1.6-2.4-2.3c0.7-1.2,1.4-2.4,2.3-3.9
	c0.3-0.4,0.5-0.9,0.8-1.3c1.2,1,2.4,2.1,3.5,3.3c1.3,1.3,2.6,2.7,3.8,4.1C32.4,88.4,30.6,89.4,29.2,90.3z M40.4,83.1
	c-1.7,1.2-3.3,2.2-4.7,3.2c-1.3-1.5-2.6-3-4-4.4c-1.2-1.2-2.5-2.4-3.8-3.5c1.1-1.7,2.2-3.3,3.3-4.9c1.6,1.3,3.2,2.8,4.7,4.3
	c1.7,1.7,3.3,3.5,4.8,5.3C40.6,83,40.5,83,40.4,83.1z M42,82c-1.5-1.9-3.2-3.7-5-5.5c-1.6-1.6-3.2-3.1-4.9-4.5
	c1.2-1.7,2.4-3.3,3.5-4.8c1.9,1.5,3.8,3.2,5.7,5.1c2,2,3.9,4.1,5.6,6.3C45.3,79.7,43.6,80.8,42,82z M48.2,77.5
	c-1.7-2.2-3.6-4.4-5.7-6.5c-1.9-1.9-3.8-3.6-5.8-5.2c1.4-1.9,2.7-3.5,3.5-4.7c2.2,1.7,4.2,3.4,6.5,5.7c2.3,2.3,4.4,4.7,6.2,7.1
	C51.4,75.1,49.8,76.3,48.2,77.5z M54.2,73c-1.9-2.5-4-4.9-6.3-7.3c-2.3-2.3-4.4-4.1-6.7-5.8c1.5-1.9,2.7-3.4,3.7-4.6
	c2.5,1.8,4.9,3.9,7.1,6.2c2.5,2.5,4.7,5.1,6.7,7.8C57.5,70.3,55.9,71.6,54.2,73z M61.4,66.9c-0.3,0.3-0.8,0.8-1.4,1.3
	c-2-2.7-4.3-5.4-6.8-7.9C50.9,58,48.5,55.9,46,54c0.5-0.6,1-1.1,1.2-1.4c1.5-1.5,2.7-1.9,3.7-1.9c0.4,0,0.9,0.1,1.2,0.2
	c1.9,0.5,4.2,2.1,6.9,4.9c2.4,2.4,3.8,4.4,4.2,6.2C63.6,63.1,63.6,64.7,61.4,66.9z M90.5,39.9c5.5,3,6.8,5.6,6.3,6.5
	c-0.4,0.6-1.4,0.9-1.6,0.7c-0.7-0.4-1.1-1.1-1.6-2.2c-0.6-1.4-2.3-5.1-7.1-3.4c-3.9,1.4-3.7,5.7-3.5,8.8l0,0.3
	c-0.2,0.1-0.5,0.2-0.8,0.1c-0.1,0-0.4-0.1-0.6-0.9c-0.9-3.9-2.9-5.5-4.4-6.1c-0.7-0.3-1.5-0.4-2.2-0.4c0,0,0,0-0.1,0
	c0.2-0.2,0.4-0.5,0.6-0.7C80,39.2,85.5,37.2,90.5,39.9z M64.3,32.5c-0.7-0.2-0.8-0.5-0.9-0.6c-0.1-0.3,0-0.6,0.1-0.8l0.3,0
	c3.1,0.2,7.3,0.4,8.8-3.5c1.7-4.8-2-6.4-3.4-7.1C68.1,20,67.4,19.7,67,19c-0.1-0.3,0.1-1.3,0.7-1.6c0.9-0.5,3.4,0.8,6.5,6.3
	c2.8,5,0.7,10.5-2.7,15.1c-0.2,0.2-0.5,0.4-0.7,0.5c0-0.8-0.1-1.6-0.4-2.3C69.7,35.4,68.2,33.4,64.3,32.5z"/>
</svg>
