<?xml version="1.0" encoding="utf-8"?>
<!-- Generator: Adobe Illustrator 24.0.0, SVG Export Plug-In . SVG Version: 6.00 Build 0)  -->
<svg version="1.1" id="Camada_1" xmlns="http://www.w3.org/2000/svg" xmlns:xlink="http://www.w3.org/1999/xlink" x="0px" y="0px"
	 viewBox="0 0 114 114" style="enable-background:new 0 0 114 114;" xml:space="preserve">
<style type="text/css">
	.st0{fill:#147834;}
</style>
<path class="st0" d="M181.8,966.6c-6.1-11.6-19-18.5-34.5-18.5c-2.5,0-5,0.2-7.6,0.5c0,0-0.1,0-0.1,0c-6.9,1-13.8,3.2-20.4,6.7
	c-11.6,6.1-20.4,15.2-24.6,25.6c-4.3,10.4-3.8,21.4,1.2,31c6.4,12.2,19.2,19.5,34.1,19.5c8.5,0,17.4-2.4,25.8-6.8
	c11.7-6.2,20.9-15.5,25.9-26.1C186.7,987.5,186.8,976.1,181.8,966.6z M170.1,999.6l-2.2-3c-1.6-2.1-4.5-2.5-6.6-0.9
	c-2.1,1.6-2.5,4.5-0.9,6.6l3.6,4.8c-3.6,3.5-7.9,6.7-12.7,9.3c-6.3,3.3-12.8,5.2-19,5.6l-8.9-13.2c-1.5-2.2-4.4-2.7-6.6-1.3
	c-2.2,1.5-2.7,4.4-1.3,6.6l4.4,6.5c-6.9-2.1-12.5-6.6-15.8-13c-3.7-7-4-15.2-0.8-23c3.4-8.3,10.6-15.7,20.3-20.8
	c0.4-0.2,0.8-0.4,1.3-0.6l8.1,11.1c0.9,1.3,2.4,1.9,3.8,1.9c1,0,1.9-0.3,2.8-0.9c2.1-1.5,2.6-4.5,1-6.6l-6.6-9.1
	c1.5-0.4,3-0.8,4.5-1.1l10.4,13c0.9,1.2,2.3,1.8,3.7,1.8c1,0,2.1-0.3,3-1c2-1.6,2.4-4.6,0.7-6.6l-6.3-7.9
	c10.8,0.7,19.4,5.6,23.5,13.3C177.9,979.6,176.3,990.2,170.1,999.6z"/>
<g>
	<g>
		<g>
			<path class="st0" d="M17.5,42.8L17.5,42.8c-1.4-0.1-2.3-1.2-2.3-2.5c0-4.8,1.4-9.6,3.8-13.8c0.4-0.7,1.1-1.1,1.9-1.1
				c0.2,0,0.4,0,0.5,0c2.1,0,4.2,0.4,6.2,1.2c1.3,0.5,1.9,1.9,1.4,3.2c-0.4,0.9-1.2,1.5-2.2,1.5c-0.3,0-0.6-0.1-0.9-0.2
				c-1.1-0.4-2.2-0.7-3.4-0.8c-1.6,3.2-2.4,6.7-2.5,10.3c0,1.3-1.1,2.3-2.4,2.3H17.5z"/>
		</g>
		<g>
			<path class="st0" d="M97.9,41.4c-1.3,0-2.4-1.1-2.4-2.4c0.1-4-0.7-8-2.5-11.6c-0.3,0-0.7,0.1-1,0.1l-1.2,0.2v-0.3
				c-0.8-0.3-1.5-1-1.6-1.9c-0.2-1.3,0.6-2.6,1.9-2.8c0.9-0.2,1.8-0.3,2.8-0.3c0.2,0,0.4,0,0.7,0c0.8,0.1,1.5,0.5,1.9,1.1
				c2.7,4.7,4.1,10,3.9,15.4C100.3,40.3,99.2,41.4,97.9,41.4z"/>
		</g>
		<g>
			<path class="st0" d="M97.2,52.7c-1.3,0-2.4-1.1-2.4-2.4c0-3.3-1.8-6.2-4.6-7.8c-0.9-0.5-1.4-1.5-1.2-2.6c0.2-0.8,0.2-1.5,0.2-2.3
				c0-1.4-0.3-2.8-0.8-4.2c-1.7-4.5-6.1-7.5-10.9-7.5c-1.4,0-2.8,0.3-4.1,0.8l-0.1,0c-0.2,0.1-0.5,0.1-0.7,0.1c-1.1,0-2-0.7-2.3-1.7
				c-1.4-4.3-4.8-7.5-9.1-8.7C60,16.2,58.9,16,57.8,16c-5.9,0-11.1,4-12.6,9.7c-0.3,1-1.2,1.8-2.3,1.8c-0.1,0-0.3,0-0.4,0
				c-0.5-0.1-1-0.1-1.6-0.1c-2.4,0-4.6,0.9-6.3,2.6c-1.7,1.7-2.6,3.9-2.5,6.2c0,0.8,0.1,1.5,0.3,2.2c0.2,0.7,0,1.5-0.4,2.1
				c-0.4,0.6-1.1,0.9-1.9,0.9l-0.3,0c-4.9,0-8.9,4-8.9,8.9c0,1.3-1.1,2.4-2.4,2.4s-2.4-1.1-2.4-2.4c0-6.7,4.8-12.3,11.3-13.5
				c0-0.2,0-0.4,0-0.6c0-7.5,6.1-13.7,13.7-13.7c0.1,0,0.2,0,0.3,0c1.8-4.5,5.3-8,9.8-9.9c2.2-0.9,4.5-1.4,6.9-1.4
				c7,0,13.2,4,16.2,10.2c1.2-0.3,2.3-0.4,3.5-0.4c9.1,0,16.5,7.4,16.5,16.5c0,0.5,0,1-0.1,1.6c3.6,2.6,5.7,6.7,5.7,11.1
				C99.6,51.6,98.5,52.7,97.2,52.7z"/>
		</g>
		<g>
			<path class="st0" d="M50.7,94.9c-0.3,0-0.6-0.1-0.9-0.2c-1.8-0.8-3.6-1.7-5.3-2.7c-1.4,0.9-3.1,1.4-4.8,1.4l-0.3,0
				c-1.3,0-2.4-1.1-2.4-2.4s1.1-2.4,2.4-2.4c0,0,0.1,0,0.2,0c-3-2.4-5.9-4.9-8.5-7.7c-1,0.3-2,0.5-3,0.5c0,0,0,0,0,0
				c-1.3,0-2.6-0.3-3.8-0.9c-0.6-0.3-1-0.8-1.2-1.4c-0.2-0.6-0.2-1.3,0.1-1.8c0.4-0.8,1.2-1.3,2.2-1.3c0.4,0,0.7,0.1,1.1,0.3
				c0.2,0.1,0.4,0.2,0.7,0.2c-1.8-2.1-3.5-4.3-5.1-6.6l-0.1-0.1c-0.7-1.1-0.4-2.6,0.7-3.3c0.4-0.3,0.9-0.4,1.3-0.4
				c0.8,0,1.6,0.4,2,1.1c3.3,4.5,6.9,8.8,10.9,12.7c0.1-0.5,0.1-1,0.1-1.5c0-1.3,1.1-2.4,2.4-2.4s2.4,1.1,2.4,2.4
				c-0.1,1.8-0.4,3.5-1,5.1c3.2,2.8,6.8,5.1,10.8,6.8c0.9,0.4,1.5,1.2,1.5,2.2C53.1,93.8,52,94.9,50.7,94.9L50.7,94.9z"/>
		</g>
		<g>
			<path class="st0" d="M57.7,103.4c-0.5,0-46-2.1-46-47.5c0-1.3,1.1-2.4,2.4-2.4c0.6,0,15.3,0.1,17.6,8.6
				c6.8,0.7,14.6,4.4,15.7,12.9c4.1,1.1,12,5.5,12.8,23.4c8.3-0.9,37.4-6.6,38.9-39.9c-3.5,0.4-10.6,1.6-10.6,5.9
				c0,1.3-1.1,2.4-2.4,2.4c-0.5,0-13.1,0.1-13.1,10.3c0,1.3-1.1,2.4-2.4,2.4c0,0-4.8,0.2-7.8,7c-0.4,0.9-1.3,1.4-2.2,1.4
				c-0.3,0-0.6-0.1-0.8-0.2c-1.2-0.5-1.9-1.9-1.4-3.1c2.9-6.6,7.3-8.8,10-9.6C69.2,66.5,77,62.7,83.8,62c2.3-8.5,17-8.6,17.6-8.6
				c1.3,0,2.4,1.1,2.4,2.4c0,45.4-45.5,47.5-46,47.5l0,0H57.7z M16.5,58.5C18,91.7,46.9,97.4,55.3,98.4
				c-0.8-18.5-9.9-18.9-10.3-18.9c-1.3,0-2.4-1.1-2.4-2.4c0-4.3-2-7.2-6.3-8.9c-2.2-0.9-4.5-1.3-6.9-1.4c0,0,0,0,0,0
				c-1.3,0-2.4-1.1-2.4-2.4C27.2,60.1,20.1,58.8,16.5,58.5z"/>
		</g>
		<g>
			<path class="st0" d="M64.8,94.9c-1,0-1.9-0.6-2.2-1.5c-0.5-1.2,0.1-2.6,1.3-3.1c4.5-2,8.6-4.7,12.2-8c-0.6-1.7-1-3.4-1-5.2
				c0-1.4,1.1-2.4,2.4-2.4s2.4,1.1,2.4,2.4c0,0.5,0.1,1,0.2,1.5c3.5-3.5,6.7-7.3,9.6-11.3c0.5-0.6,1.2-1,2-1c0.5,0,0.9,0.1,1.3,0.4
				c0.5,0.4,0.9,0.9,1,1.5c0.1,0.6,0,1.3-0.3,1.8c-1.6,2.3-3.3,4.5-5.1,6.6c0.2-0.1,0.5-0.1,0.7-0.2c0.3-0.2,0.7-0.2,1.1-0.2
				c0.9,0,1.7,0.5,2.2,1.3c0.6,1.2,0.1,2.6-1.1,3.2c-1.2,0.6-2.4,0.9-3.7,0.9c-1.1,0-2.1-0.2-3.1-0.5c-2.1,2.2-4.4,4.4-6.8,6.3
				c1.3,0.1,2.3,1.1,2.3,2.4c0,1.3-1.1,2.4-2.4,2.4l-0.2,0c-1.6,0-3.1-0.4-4.5-1.2c-2.2,1.5-4.6,2.8-7.1,3.8
				C65.4,94.9,65.1,94.9,64.8,94.9z"/>
		</g>
		<g>
			<path class="st0" d="M66.2,32.9c-1,0-1.9-0.6-2.3-1.6c-0.7-1.5-1.9-2.8-3.5-3.5c-0.8-0.4-1.7-0.5-2.7-0.5c-2.7,0-5.1,1.6-6.2,4.1
				c-0.3,0.9-1.2,1.5-2.2,1.5l0,0c-0.3,0-0.5,0-0.8-0.1c-1.3-0.4-1.9-1.8-1.5-3.1c1.2-2.9,3.5-5.2,6.4-6.4c1.4-0.6,2.9-0.9,4.4-0.9
				c4.7,0,8.9,2.8,10.7,7.2c0.2,0.7,0.2,1.3-0.1,1.9c-0.3,0.6-0.8,1-1.4,1.2C66.8,32.9,66.5,32.9,66.2,32.9z"/>
		</g>
		<g>
			<path class="st0" d="M85.9,47c-1,0-1.9-0.6-2.3-1.6c-0.7-1.5-1.9-2.8-3.5-3.5c-0.8-0.4-1.7-0.5-2.7-0.5c-2.7,0-5.1,1.6-6.2,4.1
				C71,46.4,70.1,47,69,47c-0.3,0-0.5,0-0.8-0.1c-1.3-0.4-1.9-1.8-1.5-3.1c1.2-2.9,3.5-5.2,6.4-6.4c1.4-0.6,2.9-0.9,4.4-0.9
				c4.7,0,8.9,2.8,10.7,7.2c0.5,1.3-0.2,2.7-1.5,3.1C86.5,47,86.2,47,85.9,47z"/>
		</g>
		<g>
			<path class="st0" d="M78.9,59.7c-1,0-1.9-0.6-2.3-1.6c-0.7-1.5-1.9-2.8-3.5-3.5c-0.8-0.4-1.7-0.5-2.7-0.5c-2.7,0-5.1,1.6-6.2,4.1
				c-0.3,0.9-1.2,1.5-2.2,1.5c-0.3,0-0.5,0-0.8-0.1c-1.3-0.4-1.9-1.8-1.5-3.1c1.2-2.9,3.5-5.2,6.4-6.4c1.4-0.6,2.9-0.9,4.4-0.9
				c4.7,0,8.9,2.8,10.7,7.2c0.5,1.3-0.2,2.7-1.5,3.1C79.4,59.7,79.2,59.7,78.9,59.7z"/>
		</g>
		<g>
			<path class="st0" d="M49.3,72.4c-0.3,0-0.5,0-0.8-0.1c-0.6-0.2-1.1-0.7-1.4-1.2c-0.3-0.6-0.3-1.2-0.1-1.8
				c1.2-2.9,3.5-5.2,6.4-6.4c1.4-0.6,2.9-0.9,4.4-0.9c4.7,0,8.9,2.8,10.7,7.2c0.2,0.7,0.2,1.3-0.1,1.9c-0.3,0.6-0.8,1-1.4,1.2
				c-0.3,0.1-0.5,0.1-0.8,0.1c-1,0-1.9-0.6-2.3-1.6c-0.7-1.5-1.9-2.8-3.5-3.5c-0.8-0.4-1.7-0.5-2.7-0.5c-2.7,0-5.1,1.6-6.2,4.1
				C51.2,71.7,50.3,72.4,49.3,72.4L49.3,72.4z"/>
		</g>
		<g>
			<path class="st0" d="M46.5,55.5c-1,0-1.9-0.6-2.3-1.6c-0.7-1.5-1.9-2.8-3.5-3.5C39.8,50,39,49.8,38,49.8c-2.7,0-5.1,1.6-6.2,4.1
				c-0.3,0.9-1.2,1.5-2.2,1.5c-0.3,0-0.5,0-0.8-0.1c-1.3-0.4-1.9-1.8-1.5-3.1c1.8-4.4,6-7.2,10.7-7.2c0.5,0,0.9,0,1.3,0.1
				c1.3-2.2,3.2-3.9,5.6-4.9c1.4-0.6,2.9-0.9,4.4-0.9c4.7,0,8.9,2.8,10.7,7.2c0.2,0.7,0.2,1.3-0.1,1.9s-0.8,1-1.4,1.2
				c-0.3,0.1-0.5,0.1-0.8,0.1c-1,0-1.9-0.6-2.3-1.6c-1-2.4-3.5-4-6.2-4c-2.1,0-4,0.9-5.3,2.5c2.1,1.3,3.8,3.2,4.7,5.5
				c0.5,1.3-0.2,2.7-1.5,3.1C47,55.4,46.8,55.5,46.5,55.5z"/>
		</g>
	</g>
</g>
</svg>
