<?xml version="1.0" encoding="utf-8"?>
<!-- Generator: Adobe Illustrator 25.1.0, SVG Export Plug-In . SVG Version: 6.00 Build 0)  -->
<svg version="1.1" id="Camada_1" xmlns="http://www.w3.org/2000/svg" xmlns:xlink="http://www.w3.org/1999/xlink" x="0px" y="0px"
	 viewBox="0 0 114 114" style="enable-background:new 0 0 114 114;" xml:space="preserve">
<style type="text/css">
	.st0{fill:#147834;}
</style>
<path class="st0" d="M181.8,966.6c-6.1-11.6-19-18.5-34.5-18.5c-2.5,0-5,0.2-7.6,0.5h-0.1c-6.9,1-13.8,3.2-20.4,6.7
	c-11.6,6.1-20.4,15.2-24.6,25.6c-4.3,10.4-3.8,21.4,1.2,31c6.4,12.2,19.2,19.5,34.1,19.5c8.5,0,17.4-2.4,25.8-6.8
	c11.7-6.2,20.9-15.5,25.9-26.1C186.7,987.5,186.8,976.1,181.8,966.6z M170.1,999.6l-2.2-3c-1.6-2.1-4.5-2.5-6.6-0.9
	s-2.5,4.5-0.9,6.6l3.6,4.8c-3.6,3.5-7.9,6.7-12.7,9.3c-6.3,3.3-12.8,5.2-19,5.6l-8.9-13.2c-1.5-2.2-4.4-2.7-6.6-1.3
	c-2.2,1.5-2.7,4.4-1.3,6.6l4.4,6.5c-6.9-2.1-12.5-6.6-15.8-13c-3.7-7-4-15.2-0.8-23c3.4-8.3,10.6-15.7,20.3-20.8
	c0.4-0.2,0.8-0.4,1.3-0.6l8.1,11.1c0.9,1.3,2.4,1.9,3.8,1.9c1,0,1.9-0.3,2.8-0.9c2.1-1.5,2.6-4.5,1-6.6l-6.6-9.1
	c1.5-0.4,3-0.8,4.5-1.1l10.4,13c0.9,1.2,2.3,1.8,3.7,1.8c1,0,2.1-0.3,3-1c2-1.6,2.4-4.6,0.7-6.6l-6.3-7.9
	c10.8,0.7,19.4,5.6,23.5,13.3C177.9,979.6,176.3,990.2,170.1,999.6z"/>
<path class="st0" d="M80.6,48.2c1.3-3.1,2-8-0.4-11.9c-1.9-3-4.7-5-7.9-5.7l0.2-0.4l0.1-0.2l0.1-0.2c2.7-6.8-0.7-14.6-7.5-17.3
	c-1.6-0.6-3.3-0.9-5.2-0.9c-5.3,0-11.7,2.8-13.4,8.9c-0.4,1.3-0.8,3.9-1.1,6.1c-1.4-0.3-2.7-0.4-3.9-0.4c-5,0-9.1,2.1-11.9,6.1
	c-4.1,6-2.6,14.3,3.4,18.5c0.2,0.1,0.4,0.3,0.6,0.5c-4.9,1.2-8.6,5.6-8.6,10.9c0,0.5,0,1.1,0.1,1.6c0,6.6,6.1,12.3,14.2,13.2
	c0,0,0.1,0,0.1,0c1.4,4.7,5.9,8.5,11.5,9.1c0.3,0,0.5,0.1,0.8,0.1c1.1,4.5,2.5,9.3,4.2,14.3c0.3,0.7,0.9,1.2,1.7,1.2
	c0.2,0,0.4,0,0.6-0.1c0.9-0.3,1.4-1.3,1.1-2.2c-1.7-4.7-3-9.1-4-13.4c5.4-1,9.5-5,10.2-10.1l4,0.1l0.3,0l0.3,0
	c6.3-0.9,10.7-6.7,9.9-13.1c-0.6-4.2-3.4-7.6-7.1-9.1l2.3-0.5C77.5,52.8,79.4,51,80.6,48.2z M65.5,52c0,0-4.1,3.9,1.1,4.7l0.9-0.1
	c0.4-0.1,0.8-0.1,1.1-0.1c4,0,7.4,2.9,8,6.9c0.6,4.4-2.5,8.5-6.9,9.1l-6.6-0.2l-1.2,0.2c0.3,0.9,0.4,1.9,0.2,2.8
	c-0.4,3.7-3.5,6.5-7.5,7.2c-0.8-3.9-1.4-7.7-1.7-11.3c0.9-1.5,4.3-6,12.8-6.4c0.8,0,1.4-0.7,1.3-1.5c0-0.8-0.7-1.4-1.5-1.3
	c-6.7,0.3-10.8,2.9-13,5.1c-0.3-4.8-0.1-9.3,0.3-13.3c3.7-7.2,9.3-9.6,13.4-10.3c0.8-0.1,1.3-0.8,1.2-1.6s-0.8-1.3-1.6-1.2
	c-3.6,0.6-8.2,2.3-12.1,6.7c1-5.5,2.5-10.3,4.2-14.2c0.4-0.9,0-1.9-0.9-2.3c-0.9-0.4-1.9,0-2.3,0.9c-1.7,4-3.2,8.8-4.3,14.5
	c-1.6-3.8-3.8-6.1-5.7-7.4c-0.6-0.5-1.5-0.3-2,0.3c-0.5,0.6-0.3,1.5,0.3,2c2.3,1.7,5.2,5.1,6.3,12c-0.4,3.7-0.5,7.7-0.4,12
	c-2.6-2.4-5.7-3.8-7.7-4.5c-0.7-0.3-1.5,0.1-1.8,0.9c-0.3,0.7,0.1,1.5,0.9,1.8c2.4,0.8,6.7,2.8,8.9,6.5c0.3,4,0.9,8.2,1.8,12.6
	c-5-0.7-8.7-4.6-8.5-9c-0.4,0-0.7,0-1.1,0c-0.6,0-1.1,0-1.7-0.1c-6.4-0.7-11.2-5.1-11-10c-0.1-0.4-0.1-0.9-0.1-1.4
	c0-4.3,3.5-7.7,7.7-7.7c0.9,0,1.8,0.2,2.6,0.5c0.2,0.1,0.4,0.1,0.6,0.1c1.7,0,1.2-2.3,1-2.5c-1.1-1.4-5.4-4.5-5.4-4.5
	c-4.5-3.1-5.6-9.2-2.6-13.6c2-2.9,5-4.6,9-4.6c2.1,0,4.4,0.4,6.9,1.3c0,0,0.8-7.3,1.5-9.7c1.1-4,5.7-6.3,10-6.3
	c1.4,0,2.7,0.2,3.9,0.7c5,2,7.5,7.7,5.5,12.7L66.1,35c1.3-0.7,2.6-1.1,4-1.1c2.8,0,5.5,1.6,7.2,4.2c2.5,4,0.2,11.1-2.8,11.7L65.5,52
	z"/>
</svg>
