<?xml version="1.0" encoding="utf-8"?>
<!-- Generator: Adobe Illustrator 24.0.0, SVG Export Plug-In . SVG Version: 6.00 Build 0)  -->
<svg version="1.1" id="Camada_1" xmlns="http://www.w3.org/2000/svg" xmlns:xlink="http://www.w3.org/1999/xlink" x="0px" y="0px"
	 viewBox="0 0 114 114" style="enable-background:new 0 0 114 114;" xml:space="preserve">
<style type="text/css">
	.st0{fill:#147834;}
</style>
<path class="st0" d="M181.8,966.6c-6.1-11.6-19-18.5-34.5-18.5c-2.5,0-5,0.2-7.6,0.5c0,0-0.1,0-0.1,0c-6.9,1-13.8,3.2-20.4,6.7
	c-11.6,6.1-20.4,15.2-24.6,25.6c-4.3,10.4-3.8,21.4,1.2,31c6.4,12.2,19.2,19.5,34.1,19.5c8.5,0,17.4-2.4,25.8-6.8
	c11.7-6.2,20.9-15.5,25.9-26.1C186.7,987.5,186.8,976.1,181.8,966.6z M170.1,999.6l-2.2-3c-1.6-2.1-4.5-2.5-6.6-0.9
	c-2.1,1.6-2.5,4.5-0.9,6.6l3.6,4.8c-3.6,3.5-7.9,6.7-12.7,9.3c-6.3,3.3-12.8,5.2-19,5.6l-8.9-13.2c-1.5-2.2-4.4-2.7-6.6-1.3
	c-2.2,1.5-2.7,4.4-1.3,6.6l4.4,6.5c-6.9-2.1-12.5-6.6-15.8-13c-3.7-7-4-15.2-0.8-23c3.4-8.3,10.6-15.7,20.3-20.8
	c0.4-0.2,0.8-0.4,1.3-0.6l8.1,11.1c0.9,1.3,2.4,1.9,3.8,1.9c1,0,1.9-0.3,2.8-0.9c2.1-1.5,2.6-4.5,1-6.6l-6.6-9.1
	c1.5-0.4,3-0.8,4.5-1.1l10.4,13c0.9,1.2,2.3,1.8,3.7,1.8c1,0,2.1-0.3,3-1c2-1.6,2.4-4.6,0.7-6.6l-6.3-7.9
	c10.8,0.7,19.4,5.6,23.5,13.3C177.9,979.6,176.3,990.2,170.1,999.6z"/>
<g id="XMLID_14_">
	<path id="XMLID_63_" class="st0" d="M80.4,24.2c-4.5-2.9-9.6-4.9-14.9-5.5c-3.5-0.4-7.2-0.2-10.6,0.8c-6,1.7-10.9,6-15.2,10.6
		c-9,9.7-16,21.4-19.1,34.2c-1,4.3-1.7,8.7-1.2,13.1c0.5,4.4,2.1,8.7,5.2,11.9c3.4,3.6,8.4,5.5,13.3,5.9c5,0.4,9.9-0.6,14.7-2
		c8.9-2.7,17.3-7.2,24.8-12.7c6.3-4.6,12.2-10.2,15.8-17.2C100.6,48.7,93,32.5,80.4,24.2z M88.8,54.9l-8-8c-0.7-0.7-1.9-0.7-2.6,0
		c-0.7,0.7-0.7,1.9,0,2.6l9.2,9.2c-1.6,3.4-4.1,6.8-7.6,10.3c-3,3-6.4,5.7-10.1,8.2L61,68.5c-0.7-0.7-1.9-0.7-2.6,0
		c-0.7,0.7-0.7,1.9,0,2.6l8.2,8.2c-4.7,2.8-9.7,5.1-14.6,6.6c-2.2,0.7-4.2,1.2-6.2,1.5L35.3,76.9c-0.7-0.7-1.9-0.7-2.6,0
		c-0.7,0.7-0.7,1.9,0,2.6l8.4,8.4c-5,0.2-8.9-0.9-11.3-3.3c-8.8-8.8,1-34.9,14.9-49.3c0.2-0.2,0.5-0.5,0.7-0.7
		c0.9-0.9,1.8-1.8,2.8-2.6l8.4,8.4c0.4,0.4,0.8,0.5,1.3,0.5s0.9-0.2,1.3-0.5c0.7-0.7,0.7-1.9,0-2.6l-8.1-8.1
		c4.5-3.2,8.9-4.8,13.3-4.8c5.7,0,11.4,2.7,16.9,8.2C88.3,40.2,90.8,47.5,88.8,54.9z"/>
	<path id="XMLID_16_" class="st0" d="M46.5,72c0.5,0,0.9-0.2,1.3-0.5c0.7-0.7,0.7-1.9,0-2.6L36.7,57.8c-0.7-0.7-1.9-0.7-2.6,0
		c-0.7,0.7-0.7,1.9,0,2.6l11.1,11.1C45.6,71.9,46,72,46.5,72z"/>
</g>
</svg>
