<?xml version="1.0" encoding="utf-8"?>
<!-- Generator: Adobe Illustrator 24.0.0, SVG Export Plug-In . SVG Version: 6.00 Build 0)  -->
<svg version="1.1" id="Camada_1" xmlns="http://www.w3.org/2000/svg" xmlns:xlink="http://www.w3.org/1999/xlink" x="0px" y="0px"
	 viewBox="0 0 114 114" style="enable-background:new 0 0 114 114;" xml:space="preserve">
<style type="text/css">
	.st0{fill:#147834;}
	.st1{fill:#404042;}
	.st2{fill:#FFFFFF;}
	.st3{fill:none;stroke:#147834;stroke-width:4;stroke-miterlimit:10;}
</style>
<g>
	<path id="XMLID_9_" class="st0" d="M7.2,9.5c0.3,3.6,1.9,8.2,6.2,13.2c-5.6,9.8,4.4,23,13.3,34.7c3.5,4.7,7.2,9.5,9.7,13.8
		c0.4,0.7,0.9,1.5,1.3,2.3c5.7,9.8,13.4,23.3,25.2,30.7c5.7,3.6,11.3,5.3,16.7,5.3c6.6,0,12.8-2.6,18-7.9c10-10,10.6-23.2,1.6-36.1
		c-7.7-11.1-20.4-18.4-29.7-23.8c-0.8-0.5-1.6-0.9-2.4-1.4c-4.3-2.5-9.2-6.2-13.8-9.7C41.8,21.8,28.7,12,19,17.2
		c-2.7-3.3-3.7-6.1-4-8.2"/>
	<path id="XMLID_6_" class="st1" d="M33.4,39.2"/>
	<path id="XMLID_2_" class="st1" d="M33.8,39.1"/>
	<path id="XMLID_5_" class="st1" d="M34.3,38.9"/>
	<path id="XMLID_7_" class="st1" d="M34.6,38.6"/>
	<path id="XMLID_1_" class="st1" d="M34.9,38.3"/>
	<g>
		<path id="XMLID_3_" class="st2" d="M35.3,27.6c2.5,1.8,10.4,7.2,12.9,9.1c4.9,3.7,9.9,7.5,14.6,10.3c0.8,0.5,1.6,0.9,2.4,1.4
			c8.7,5,20.5,11.8,27.2,21.5c4.7,6.9,8.5,17-0.8,26.2c-8.8,8.8-18.5,5.7-25.1,1.5c-10.1-6.4-17.4-18.9-22.6-28
			c-0.5-0.8-0.9-1.6-1.3-2.3h0c-2.8-4.7-6.6-9.8-10.3-14.6C30.4,50,25,42.3,23.3,39.8"/>
		<path id="XMLID_8_" class="st2" d="M23.3,39.8c-3.8-6.2-6-11.6-2.8-14.8c1.1-1.1,2.5-1.6,4.1-1.6c3,0,6.7,1.7,10.7,4.2"/>
	</g>
	<line class="st3" x1="91.7" y1="96" x2="17.4" y2="21.8"/>
	<line class="st3" x1="101" y1="87.8" x2="34.8" y2="21.6"/>
	<line class="st3" x1="84" y1="104.7" x2="17.8" y2="38.5"/>
</g>
</svg>
