<?xml version="1.0" encoding="utf-8"?>
<!-- Generator: Adobe Illustrator 24.0.0, SVG Export Plug-In . SVG Version: 6.00 Build 0)  -->
<svg version="1.1" id="Camada_1" xmlns="http://www.w3.org/2000/svg" xmlns:xlink="http://www.w3.org/1999/xlink" x="0px" y="0px"
	 viewBox="0 0 114 114" style="enable-background:new 0 0 114 114;" xml:space="preserve">
<style type="text/css">
	.st0{fill:#147834;}
</style>
<path class="st0" d="M181.8,966.6c-6.1-11.6-19-18.5-34.5-18.5c-2.5,0-5,0.2-7.6,0.5c0,0-0.1,0-0.1,0c-6.9,1-13.8,3.2-20.4,6.7
	c-11.6,6.1-20.4,15.2-24.6,25.6c-4.3,10.4-3.8,21.4,1.2,31c6.4,12.2,19.2,19.5,34.1,19.5c8.5,0,17.4-2.4,25.8-6.8
	c11.7-6.2,20.9-15.5,25.9-26.1C186.7,987.5,186.8,976.1,181.8,966.6z M170.1,999.6l-2.2-3c-1.6-2.1-4.5-2.5-6.6-0.9
	c-2.1,1.6-2.5,4.5-0.9,6.6l3.6,4.8c-3.6,3.5-7.9,6.7-12.7,9.3c-6.3,3.3-12.8,5.2-19,5.6l-8.9-13.2c-1.5-2.2-4.4-2.7-6.6-1.3
	c-2.2,1.5-2.7,4.4-1.3,6.6l4.4,6.5c-6.9-2.1-12.5-6.6-15.8-13c-3.7-7-4-15.2-0.8-23c3.4-8.3,10.6-15.7,20.3-20.8
	c0.4-0.2,0.8-0.4,1.3-0.6l8.1,11.1c0.9,1.3,2.4,1.9,3.8,1.9c1,0,1.9-0.3,2.8-0.9c2.1-1.5,2.6-4.5,1-6.6l-6.6-9.1
	c1.5-0.4,3-0.8,4.5-1.1l10.4,13c0.9,1.2,2.3,1.8,3.7,1.8c1,0,2.1-0.3,3-1c2-1.6,2.4-4.6,0.7-6.6l-6.3-7.9
	c10.8,0.7,19.4,5.6,23.5,13.3C177.9,979.6,176.3,990.2,170.1,999.6z"/>
<g>
	<path class="st0" d="M53.3,98.6c-4,0-7.9-1-11.3-2.9c-2.9,1.9-6.3,2.9-9.8,2.9c-5.8,0-11.3-2.8-14.6-7.5c-2.8-3.9-3.9-8.6-3.1-13.4
		c0.8-4.7,3.4-8.8,7.3-11.6c0.1-0.1,0.2-0.1,0.3-0.2c-1.3-1.3-2.4-2.7-3.5-4.2c-6.8-0.4-12.2-6.2-12.1-13.1
		c0.1-6.8,5.4-12.2,12.1-12.6c7-10.6,21.7-17.1,38.5-17.1c3.4,0,6.7,0.3,10.1,0.8l0.2,0c12.5,2.1,22.8,8.1,28.3,16.3
		c6.7,0.4,12.1,6.1,12.1,12.8c0,6.8-5.4,12.4-12.1,12.8c-4,6-10.5,10.8-18.9,13.8c-0.1,6-2.4,11.7-6.6,16c0,0.1-0.2,0.2-0.3,0.3
		l-0.1,0.1l-0.1,0.1C65.2,96.2,59.4,98.6,53.3,98.6z M21.3,83.9c1.4,4.7,5.8,8.1,10.8,8.1l0,0c0.7,0,1.4-0.1,2.1-0.2
		c0.7-0.1,1.3-0.3,2-0.6c-0.2-0.2-0.4-0.4-0.6-0.6l-0.1-0.1c-0.2-0.3-0.5-0.6-0.7-0.9c-3.2-4.1-5-9.2-5-14.4c0-0.5,0-1.1,0.1-1.6
		l0-0.4c0.1-1.2,0.3-2.5,0.6-3.7c-0.1,0-0.6,0.1-0.6,0.1c-0.3,0.1-0.6,0.1-0.9,0.2c-3.8,1.1-6.7,4-7.7,7.6c1.4,0.4,2.4,1.7,2.4,3.2
		C23.7,82.2,22.7,83.4,21.3,83.9z M52.2,91.9c0.4,0,0.8,0,1.2,0c3.4,0,6.7-1.1,9.5-3.1c-0.4-0.6-0.6-1.3-0.5-2.1
		c0.1-0.9,0.5-1.7,1.2-2.2c0.6-0.5,1.3-0.8,2.1-0.8c0.6,0,1.1,0.1,1.6,0.4c1.7-2.7,2.7-5.8,2.7-9c0-1.1-0.1-2.3-0.3-3.4
		c-1.1-5.4-4.8-9.9-9.8-12c-0.5-0.2-1-0.4-1.4-0.5l-0.1,0c-0.5-0.2-0.9-0.3-1.4-0.4l-0.3-0.1c-0.4-0.1-0.8-0.1-1.3-0.2l-0.4-0.1
		c-0.6-0.1-1.1-0.1-1.7-0.1c-0.4,0-0.9,0-1.5,0.1c-0.2,0-0.3,0-0.5,0.1c-0.3,0-0.6,0.1-0.9,0.1c-0.9,0.2-1.9,0.4-2.8,0.7l-0.2,0.1
		c-4.1,1.6-7.4,4.6-9.3,8.6l0,0.1c-0.2,0.5-0.4,0.9-0.6,1.3l-0.1,0.2c-0.2,0.4-0.3,0.9-0.4,1.5l-0.1,0.3c-0.1,0.5-0.2,1-0.2,1.4
		c0,0-0.1,0.3-0.1,0.4c-0.1,0.6-0.1,1.2-0.1,1.8c0,0.4,0,0.9,0.1,1.5l0,0.3c0,0.4,0.1,0.9,0.2,1.3c0,0.2,0.1,0.3,0.1,0.5
		c0.1,0.3,0.2,0.7,0.3,1c0.1,0.2,0.1,0.5,0.2,0.7c0.1,0.3,0.2,0.5,0.3,0.8c0.1,0.2,0.2,0.4,0.2,0.6c0.2,0.3,0.3,0.7,0.5,1
		c0.1,0.2,0.2,0.4,0.3,0.6c0.1,0.2,0.3,0.5,0.4,0.7c0.1,0.2,0.3,0.4,0.4,0.7c0.2,0.3,0.4,0.5,0.6,0.8c0.1,0.2,0.2,0.3,0.4,0.5
		c0.3,0.3,0.5,0.6,0.8,0.9c0.1,0.1,0.1,0.1,0.2,0.2l0.1,0.1c0.2,0.2,0.4,0.4,0.7,0.6l0.1,0.1c0.1,0.1,0.2,0.2,0.3,0.3
		c0.9,0.7,1.9,1.4,2.9,1.9l0.7-1.9c0.5-1.3,1.7-2.2,3.1-2.2c0.4,0,0.8,0.1,1.1,0.2c1.7,0.6,2.6,2.5,2,4.3L52.2,91.9z M53.3,51.8
		c0.6,0,1.2,0,1.8,0.1l0.4,0c0.5,0.1,1.1,0.1,1.6,0.2l0.5,0.1c0.5,0.1,1,0.2,1.4,0.3c0.3,0.1,0.5,0.1,0.8,0.2
		c0.3,0.1,0.5,0.2,0.8,0.2c0.6,0.2,1.1,0.4,1.7,0.6l0.1,0.1c5.2,2.2,9.5,6.2,11.9,11.4l0.1,0.1c0.2,0.5,0.5,1,0.7,1.6
		c0.1,0.2,0.2,0.5,0.3,0.7c0.1,0.2,0.2,0.5,0.2,0.7c0.1,0.2,0.1,0.4,0.2,0.5c7-2.8,12.3-7,15.1-12c0.6-1,1.7-1.7,2.9-1.7
		c0.1,0,0.2,0,0.4,0c0.2,0,0.5,0,0.7,0c3.4,0,6.2-2.8,6.2-6.2c0-1.7-0.6-3.2-1.8-4.4c-1.2-1.2-2.7-1.8-4.4-1.8c0,0,0,0,0,0
		c-0.3,0-0.5,0-0.7,0c-0.1,0-0.3,0-0.4,0c-1.2,0-2.3-0.7-2.9-1.7c-3.5-6.3-11.3-11.5-21-13.9v8.7c0,1.8-1.5,3.3-3.3,3.3
		s-3.3-1.5-3.3-3.3v-9.9c-2-0.2-4.1-0.4-6.2-0.4c-9.6,0-18.9,2.6-25.7,7.2v5.5c0,1.8-1.5,3.3-3.3,3.3c-1.6,0-3-1.2-3.3-2.7
		c-0.5,0.7-1,1.4-1.4,2.2c-0.6,1-1.7,1.7-2.9,1.7c-0.1,0-0.3,0-0.4,0c-0.2,0-0.5,0-0.7,0c-3.1,0-5.8,2.4-6.2,5.5
		c-0.2,1.6,0.3,3.3,1.3,4.6c1,1.3,2.5,2.1,4.2,2.3c0.2,0,0.5,0,0.7,0s0.5,0,0.7,0c0.1,0,0.3,0,0.4,0c1.2,0,2.3,0.7,2.9,1.7
		c1.4,2.5,3.3,4.6,5.5,6.4c0,0,0.3-0.1,0.3-0.1c0.3-0.1,0.6-0.1,0.9-0.1c0.2,0,0.4,0,0.6-0.1c0.4,0,0.8-0.1,1.2-0.1l0.1,0
		c0.1,0,0.2,0,0.3,0c0.1,0,0.1,0,0.2,0c0.4,0,0.8,0,1.2,0.1c1-1.6,2.2-3.1,3.6-4.4V44.2c0-1.8,1.5-3.3,3.3-3.3
		c1.8,0,3.3,1.5,3.3,3.3v9.6c2-0.9,4.2-1.5,6.4-1.8l0.1,0c0.4-0.1,0.8-0.1,1.3-0.1l0.3,0C52.3,51.8,52.8,51.8,53.3,51.8z M84,57.7
		c-1.8,0-3.3-1.5-3.3-3.3v-3.9c0-1.8,1.5-3.3,3.3-3.3s3.3,1.5,3.3,3.3v3.9C87.4,56.2,85.9,57.7,84,57.7z"/>
</g>
</svg>
