<?xml version="1.0" encoding="utf-8"?>
<!-- Generator: Adobe Illustrator 24.0.0, SVG Export Plug-In . SVG Version: 6.00 Build 0)  -->
<svg version="1.1" id="Camada_1" xmlns="http://www.w3.org/2000/svg" xmlns:xlink="http://www.w3.org/1999/xlink" x="0px" y="0px"
	 viewBox="0 0 114 114" style="enable-background:new 0 0 114 114;" xml:space="preserve">
<style type="text/css">
	.st0{fill:#147834;}
</style>
<path id="XMLID_163_" class="st0" d="M14.7,42.6C12,42.1,8.5,42,6.3,44.4c-1.6,1.8-2,4.4-0.9,7.1c1,2.4,3,5,5.6,6.7
	c0,0.7-0.1,1.4-0.1,2.1c0,24.4,19.9,44.3,44.3,44.3c1.9,0,3.9-0.1,5.7-0.4c0.1,0,0.1,0,0.2,0c21.6-2.9,38.4-21.5,38.4-43.9
	c0-4.9-0.8-9.6-2.3-14.2c5,0.3,10.9-0.3,13.2-4c1.7-2.7,1.1-6.1-1.7-10c-1.5-2.1-4.5-4.6-10.1-4.6c0,0-0.1,0-0.1,0
	c-3.3,0-7,0.9-11,2.4c-8.4-8.9-20-14-32.3-14c-1,0-1.9,0-2.9,0.1c-3.1-2.6-6.4-4.4-9.9-5c-5.8-1-10.6,0.4-13,3.7
	c-1.8,2.5-1.9,5.6-0.5,8.3c0.2,0.4,0.4,0.7,0.7,1C23.1,28.9,18,35.2,14.7,42.6z M16,53.1c0,0-0.1,0-0.1-0.1
	c-1.6-0.7-3.2-2.5-3.8-3.7c0.7,0,1.9,0.2,3.8,0.8c7.4,2.3,18.7,9.2,27.7,19.5c0.1,0.1,0.1,0.2,0.2,0.2c1.1,1.3,2.2,2.6,3.2,3.9
	c-3.8-0.5-9.8-2.2-11.1-4.6c-0.2-0.3-0.6-1,0.2-2.8c0.5-1.1,0.4-2.4-0.2-3.4c-0.6-1-1.7-1.6-2.9-1.6c0,0,0,0,0,0
	c-4.3,0-11-0.9-12.5-2.9c-0.1-0.2-0.2-0.3-0.1-0.9c0.3-1,0-2.1-0.6-2.9c-0.6-0.8-1.5-1.4-2.6-1.4C16.7,53.3,16.4,53.2,16,53.1z
	 M18.3,65.5c3.1,1.6,7.2,2.3,10.2,2.6c0,1.8,0.5,3.3,1.2,4.4c2.6,4.5,8.9,6.6,13,7.5c-0.3,6.7,4.3,13,8.7,17.5
	C34.4,95.8,20.7,82.4,18.3,65.5z M50.1,78.5c2.5,4.2,4.5,8.7,5.8,13.5C52,87.9,48.5,82.6,50.1,78.5z M63.8,96.7
	c-0.8-6.4-2.8-12.4-5.6-17.8c0.8-0.3,1.6-0.8,2.4-1.5c1.7-1.7,2.2-3.9,2.1-6c2.9,0,6.5-0.5,9.4-2.8c3-2.4,4.8-5.9,5.2-10.7
	c4.1-0.2,10.5-1.1,14.6-4.9c0.5,2.4,0.7,4.8,0.7,7.3C92.6,78,80.3,92.8,63.8,96.7z M87.7,37.5c0.2-0.1,0.4-0.1,0.6-0.2
	c3.9-1.7,7.5-2.7,10.3-2.7c0,0,0.1,0,0.1,0c3.2,0,4.2,1.3,4.5,1.7c0.9,1.2,1.2,1.9,1.3,2.2c-1.5,0.9-7.1,0.9-12.1,0.1c0,0,0,0-0.1,0
	c-0.1,0-0.2,0-0.3,0c-0.1,0-0.2,0-0.3,0c-0.1,0-0.2,0-0.3,0c-0.1,0-0.3,0-0.4,0.1c-0.1,0-0.1,0-0.2,0.1c-0.2,0.1-0.4,0.1-0.5,0.2
	c0,0,0,0-0.1,0c0,0-0.1,0-0.1,0.1c-0.2,0.1-0.3,0.2-0.5,0.3c0,0,0,0-0.1,0c-0.1,0.1-0.2,0.2-0.3,0.3c0,0-0.1,0.1-0.1,0.1
	c0,0-0.1,0.1-0.1,0.1c-0.3,0.3-0.5,0.7-0.6,1.1c0,0,0,0,0,0c-0.2,0.6-0.2,1.2-0.1,1.8c0.6,2.8-0.2,4.1-0.9,4.8
	c-2.9,3.3-10.8,3.5-13.3,3.4c-1-0.1-2,0.3-2.7,1c-0.7,0.7-1.1,1.6-1.1,2.6c0.2,4.2-0.7,7-2.6,8.5c-2.6,2.1-7.1,1.4-8.6,0.9
	c-1.2-0.4-2.6,0-3.5,0.9c-0.9,0.9-1.2,2.3-0.8,3.5c0.8,2.3,0.8,3.4,0.7,3.9c-0.3,0-0.8,0-1.3-0.1c-1.2-1.7-2.4-3.4-3.7-5
	c3.9-5,8.7-9.9,13.9-14.4c0.2-0.1,0.4-0.3,0.5-0.4c1.5-1.3,3-2.5,4.5-3.7c0.2-0.1,0.5-0.3,0.6-0.5C76.2,43.7,82.3,39.9,87.7,37.5z
	 M80.9,33.1c-3.8,2-7.8,4.5-11.6,7.2c-2-4.3-5.6-11.2-10.2-17.2C67.2,24,74.9,27.5,80.9,33.1z M35.1,18.9c0.5-0.7,2.3-1.6,6.2-0.9
	c2.5,0.4,5,1.9,7.3,4.1c0.1,0.1,0.3,0.3,0.4,0.4c6.2,5.9,11.7,16,14.5,22.2c-0.7,0.5-1.3,1.1-2,1.7c-1.9-0.4-4.2-1.3-4.9-2.5
	c-0.6-1.1,0-2.9,0.7-4.2c0.5-1,0.5-2.1,0-3.1c-0.5-1-1.4-1.7-2.5-1.9c-2-0.4-6.5-1.9-7.9-4.3c-0.3-0.6-0.7-1.5-0.2-3.1
	c0.4-1.1,0.2-2.3-0.5-3.2c-0.7-0.9-1.7-1.4-2.8-1.4c0,0-0.1,0-0.1,0c-4.6,0.1-7.5-1.3-8.3-2.8C34.8,19.3,35,19.1,35.1,18.9z
	 M35.7,28.6c1.2,0.4,2.5,0.7,3.9,0.9c0.1,1.5,0.6,3,1.4,4.4c2,3.4,5.8,5.4,8.7,6.5c-0.7,3.1,0,5.3,0.8,6.9c1.2,2.1,3.1,3.5,5,4.5
	C52,55,48.8,58.5,46,61.9c-8-8.3-17.3-14.2-24.6-17.3C24.5,38,29.5,32.4,35.7,28.6z"/>
</svg>
