<?xml version="1.0" encoding="utf-8"?>
<!-- Generator: Adobe Illustrator 24.0.0, SVG Export Plug-In . SVG Version: 6.00 Build 0)  -->
<svg version="1.1" id="Camada_1" xmlns="http://www.w3.org/2000/svg" xmlns:xlink="http://www.w3.org/1999/xlink" x="0px" y="0px"
	 viewBox="0 0 114 114" style="enable-background:new 0 0 114 114;" xml:space="preserve">
<style type="text/css">
	.st0{fill:#147834;}
</style>
<path class="st0" d="M181.8,966.6c-6.1-11.6-19-18.5-34.5-18.5c-2.5,0-5,0.2-7.6,0.5c0,0-0.1,0-0.1,0c-6.9,1-13.8,3.2-20.4,6.7
	c-11.6,6.1-20.4,15.2-24.6,25.6c-4.3,10.4-3.8,21.4,1.2,31c6.4,12.2,19.2,19.5,34.1,19.5c8.5,0,17.4-2.4,25.8-6.8
	c11.7-6.2,20.9-15.5,25.9-26.1C186.7,987.5,186.8,976.1,181.8,966.6z M170.1,999.6l-2.2-3c-1.6-2.1-4.5-2.5-6.6-0.9
	c-2.1,1.6-2.5,4.5-0.9,6.6l3.6,4.8c-3.6,3.5-7.9,6.7-12.7,9.3c-6.3,3.3-12.8,5.2-19,5.6l-8.9-13.2c-1.5-2.2-4.4-2.7-6.6-1.3
	c-2.2,1.5-2.7,4.4-1.3,6.6l4.4,6.5c-6.9-2.1-12.5-6.6-15.8-13c-3.7-7-4-15.2-0.8-23c3.4-8.3,10.6-15.7,20.3-20.8
	c0.4-0.2,0.8-0.4,1.3-0.6l8.1,11.1c0.9,1.3,2.4,1.9,3.8,1.9c1,0,1.9-0.3,2.8-0.9c2.1-1.5,2.6-4.5,1-6.6l-6.6-9.1
	c1.5-0.4,3-0.8,4.5-1.1l10.4,13c0.9,1.2,2.3,1.8,3.7,1.8c1,0,2.1-0.3,3-1c2-1.6,2.4-4.6,0.7-6.6l-6.3-7.9
	c10.8,0.7,19.4,5.6,23.5,13.3C177.9,979.6,176.3,990.2,170.1,999.6z"/>
<g id="XMLID_76_">
	<path id="XMLID_58_" class="st0" d="M31.5,73.8c8.5,6.5,20.1,8.7,31,6c11.4-2.8,20.8-10.7,25.1-20.9c0.5-1.1,1.2-2.2,2.2-3.4
		c1.8-2.1,2.5-4.6,2-6.9c-0.6-2.3-2.4-4.2-5-5.2c-1.5-0.6-2.6-1.2-3.5-2c-8.6-7.1-20.5-9.6-31.9-6.7c-10.9,2.7-20.1,10.1-24.6,19.8
		c-0.6,1.4-1.6,2.7-3.1,4.1c-2.2,2.2-3.1,5-2.5,7.5c0.6,2.6,2.7,4.5,5.7,5.5C28.9,72.2,30.3,72.9,31.5,73.8z M27.4,62.3
		c1.9-1.9,3.2-3.7,4.1-5.7c3.8-8.3,11.7-14.6,21.1-16.9c9.8-2.4,20-0.3,27.3,5.7c1.4,1.1,3,2,5,2.8c1,0.4,1.6,1,1.8,1.6
		c0.2,0.6-0.1,1.4-0.8,2.2c-1.4,1.6-2.4,3.2-3.1,4.8c-3.6,8.7-11.7,15.4-21.5,17.8c-9.4,2.3-19.3,0.4-26.5-5.1
		c-1.7-1.3-3.7-2.3-6.3-3.1c-1.2-0.4-2-1-2.2-1.7C26.1,64.1,26.5,63.2,27.4,62.3z"/>
	<path id="XMLID_66_" class="st0" d="M69.3,65.3c-0.2-0.7-0.8-1.1-1.5-0.9c-0.7,0.2-1.1,0.8-0.9,1.5s0.8,1.1,1.5,0.9
		C69.1,66.6,69.5,66,69.3,65.3z"/>
	<path id="XMLID_57_" class="st0" d="M71.6,58.4c-0.2-0.7-0.8-1.1-1.5-0.9c-0.7,0.2-1.1,0.8-0.9,1.5c0.2,0.7,0.8,1.1,1.5,0.9
		C71.3,59.7,71.7,59,71.6,58.4z"/>
	<path id="XMLID_79_" class="st0" d="M78.5,57.4c-0.2-0.7-0.8-1.1-1.5-0.9c-0.7,0.2-1.1,0.8-0.9,1.5c0.2,0.7,0.8,1.1,1.5,0.9
		C78.3,58.7,78.7,58,78.5,57.4z"/>
	<path id="XMLID_55_" class="st0" d="M80.5,51.3c-0.2-0.7-0.8-1.1-1.5-0.9c-0.7,0.2-1.1,0.8-0.9,1.5c0.2,0.7,0.8,1.1,1.5,0.9
		C80.3,52.7,80.7,52,80.5,51.3z"/>
</g>
</svg>
