<?xml version="1.0" encoding="utf-8"?>
<!-- Generator: Adobe Illustrator 25.1.0, SVG Export Plug-In . SVG Version: 6.00 Build 0)  -->
<svg version="1.1" id="Camada_1" xmlns="http://www.w3.org/2000/svg" xmlns:xlink="http://www.w3.org/1999/xlink" x="0px" y="0px"
	 viewBox="0 0 114 114" style="enable-background:new 0 0 114 114;" xml:space="preserve">
<style type="text/css">
	.st0{fill:#147834;}
</style>
<path class="st0" d="M181.8,966.6c-6.1-11.6-19-18.5-34.5-18.5c-2.5,0-5,0.2-7.6,0.5h-0.1c-6.9,1-13.8,3.2-20.4,6.7
	c-11.6,6.1-20.4,15.2-24.6,25.6c-4.3,10.4-3.8,21.4,1.2,31c6.4,12.2,19.2,19.5,34.1,19.5c8.5,0,17.4-2.4,25.8-6.8
	c11.7-6.2,20.9-15.5,25.9-26.1C186.7,987.5,186.8,976.1,181.8,966.6z M170.1,999.6l-2.2-3c-1.6-2.1-4.5-2.5-6.6-0.9
	s-2.5,4.5-0.9,6.6l3.6,4.8c-3.6,3.5-7.9,6.7-12.7,9.3c-6.3,3.3-12.8,5.2-19,5.6l-8.9-13.2c-1.5-2.2-4.4-2.7-6.6-1.3
	c-2.2,1.5-2.7,4.4-1.3,6.6l4.4,6.5c-6.9-2.1-12.5-6.6-15.8-13c-3.7-7-4-15.2-0.8-23c3.4-8.3,10.6-15.7,20.3-20.8
	c0.4-0.2,0.8-0.4,1.3-0.6l8.1,11.1c0.9,1.3,2.4,1.9,3.8,1.9c1,0,1.9-0.3,2.8-0.9c2.1-1.5,2.6-4.5,1-6.6l-6.6-9.1
	c1.5-0.4,3-0.8,4.5-1.1l10.4,13c0.9,1.2,2.3,1.8,3.7,1.8c1,0,2.1-0.3,3-1c2-1.6,2.4-4.6,0.7-6.6l-6.3-7.9
	c10.8,0.7,19.4,5.6,23.5,13.3C177.9,979.6,176.3,990.2,170.1,999.6z"/>
<path class="st0" d="M71.8,92.3C61,92.3,44,89.4,34.7,72.9c-14.1-25.1-7.4-41.4-7.1-42.1c0.3-0.7,1.1-1,1.7-0.7
	c0.3,0.1,0.5,0.3,0.7,0.6c17.3,33.1,40,50.2,48.9,56c1.3,0.9,1.7,2.7,0.9,4c-0.5,0.8-1.3,1.2-2.2,1.3C76,92.1,74,92.3,71.8,92.3z
	 M29.2,34.8C28,40.4,27,53.8,37,71.6c10.5,18.6,31.6,18.6,40.3,17.8c0.1,0,0.2-0.1,0.2-0.2c0-0.1,0-0.2-0.1-0.3
	C68.6,83.2,46.6,66.5,29.2,34.8z"/>
<path class="st0" d="M32.7,35.1c-0.4,0-0.7-0.1-0.9-0.4c-1.1-1.1-2.3-2.3-3.3-3.5c-0.5-0.5-0.5-1.4,0.1-1.9c0.5-0.5,1.4-0.5,1.9,0.1
	c1.1,1.1,2.2,2.3,3.3,3.4c0.5,0.5,0.5,1.4,0,1.9C33.4,35,33.1,35.2,32.7,35.1L32.7,35.1z"/>
<path class="st0" d="M48.2,49c-0.3,0-0.6-0.1-0.8-0.3c-1.3-1.1-2.7-2.1-4-3.2c-0.6-0.5-0.6-1.3-0.2-1.9c0.5-0.6,1.3-0.6,1.9-0.2l0,0
	c1.3,1.1,2.6,2.2,3.9,3.2c0.6,0.5,0.7,1.3,0.2,1.9C49,48.8,48.6,49,48.2,49L48.2,49z"/>
<path class="st0" d="M78.2,79.4c-0.7,0-1.4-0.5-1.4-1.3c0-0.7,0.5-1.4,1.3-1.4c3.9-0.5,7.8-1.4,11.6-2.7c0.5-0.2,0.8-0.7,0.6-1.2
	c-0.1-0.3-0.3-0.5-0.6-0.6c-7.2-2.5-21.7-8.4-38-20.3c-0.6-0.4-0.7-1.3-0.3-1.9c0.4-0.6,1.3-0.7,1.9-0.3
	c16,11.7,30.2,17.5,37.2,19.9c1.9,0.7,2.9,2.7,2.3,4.6c-0.4,1.1-1.2,1.9-2.3,2.3c-3.9,1.4-8,2.3-12.1,2.8L78.2,79.4z"/>
<path class="st0" d="M39.6,50.5c-0.7,0-1.3-0.6-1.3-1.3c0-0.5,0.3-0.9,0.7-1.2c3.5-1.8,4.9-6,3.1-9.5s-6-4.9-9.5-3.1
	c-0.1,0-0.2,0.1-0.3,0.1c-0.6,0.3-1.5,0.1-1.8-0.5c-0.3-0.6-0.1-1.5,0.5-1.8l0,0c4.8-2.5,10.7-0.7,13.2,4.1c2.5,4.7,0.7,10.5-4,13.1
	C40,50.4,39.8,50.5,39.6,50.5z"/>
<path class="st0" d="M50.4,63.2c-0.7,0-1.3-0.6-1.3-1.3c0-0.4,0.2-0.8,0.5-1c3-2.5,3.4-7,0.9-10C48.1,48,44,47.4,41,49.5
	c-0.6,0.4-1.4,0.3-1.9-0.3c-0.4-0.6-0.3-1.4,0.3-1.9c4.4-3.1,10.5-2.1,13.6,2.2c3,4.2,2.2,10-1.8,13.3C51,63.1,50.7,63.2,50.4,63.2z
	"/>
<path class="st0" d="M62.8,76c-0.7,0-1.3-0.6-1.3-1.3c0-0.4,0.1-0.7,0.4-1c2.7-2.8,2.7-7.3-0.1-10c-1.3-1.3-3.1-2-5-2h-0.1
	c-1.9,0-3.7,0.8-5,2.1c-0.5,0.5-1.4,0.5-1.9,0c-0.5-0.5-0.5-1.4,0-1.9c1.8-1.8,4.3-2.9,6.9-2.9h0.1c5.4,0,9.7,4.4,9.7,9.7
	c0,2.6-1,5-2.8,6.8C63.5,75.9,63.1,76,62.8,76z"/>
<path class="st0" d="M75.8,87.6c-0.7,0-1.3-0.6-1.3-1.3c0-0.4,0.1-0.7,0.4-0.9c2.8-2.7,2.9-7.2,0.2-10c-2.7-2.8-7.2-2.9-10-0.2
	c-0.4,0.4-0.8,0.9-1.1,1.4c-0.4,0.6-1.2,0.8-1.8,0.4c-0.6-0.4-0.8-1.2-0.4-1.8c2.8-4.6,8.8-6,13.4-3.2c4.6,2.8,6,8.8,3.2,13.4
	c-0.4,0.7-0.9,1.3-1.5,1.9C76.5,87.5,76.2,87.6,75.8,87.6z"/>
<path class="st0" d="M28.1,34.7c-0.7,0-1.3-0.6-1.3-1.3c0-6.1,3.5-12,3.6-12.2c0.4-0.6,1.2-0.8,1.8-0.4s0.8,1.2,0.4,1.8l0,0
	c0,0.1-3.3,5.5-3.2,10.8C29.5,34.1,28.9,34.7,28.1,34.7C28.2,34.7,28.2,34.7,28.1,34.7L28.1,34.7z"/>
</svg>
