<?xml version="1.0" encoding="utf-8"?>
<!-- Generator: Adobe Illustrator 25.1.0, SVG Export Plug-In . SVG Version: 6.00 Build 0)  -->
<svg version="1.1" id="Camada_1" xmlns="http://www.w3.org/2000/svg" xmlns:xlink="http://www.w3.org/1999/xlink" x="0px" y="0px"
	 viewBox="0 0 114 114" style="enable-background:new 0 0 114 114;" xml:space="preserve">
<style type="text/css">
	.st0{fill:#147834;}
</style>
<path class="st0" d="M181.8,966.6c-6.1-11.6-19-18.5-34.5-18.5c-2.5,0-5,0.2-7.6,0.5h-0.1c-6.9,1-13.8,3.2-20.4,6.7
	c-11.6,6.1-20.4,15.2-24.6,25.6c-4.3,10.4-3.8,21.4,1.2,31c6.4,12.2,19.2,19.5,34.1,19.5c8.5,0,17.4-2.4,25.8-6.8
	c11.7-6.2,20.9-15.5,25.9-26.1C186.7,987.5,186.8,976.1,181.8,966.6z M170.1,999.6l-2.2-3c-1.6-2.1-4.5-2.5-6.6-0.9
	s-2.5,4.5-0.9,6.6l3.6,4.8c-3.6,3.5-7.9,6.7-12.7,9.3c-6.3,3.3-12.8,5.2-19,5.6l-8.9-13.2c-1.5-2.2-4.4-2.7-6.6-1.3
	c-2.2,1.5-2.7,4.4-1.3,6.6l4.4,6.5c-6.9-2.1-12.5-6.6-15.8-13c-3.7-7-4-15.2-0.8-23c3.4-8.3,10.6-15.7,20.3-20.8
	c0.4-0.2,0.8-0.4,1.3-0.6l8.1,11.1c0.9,1.3,2.4,1.9,3.8,1.9c1,0,1.9-0.3,2.8-0.9c2.1-1.5,2.6-4.5,1-6.6l-6.6-9.1
	c1.5-0.4,3-0.8,4.5-1.1l10.4,13c0.9,1.2,2.3,1.8,3.7,1.8c1,0,2.1-0.3,3-1c2-1.6,2.4-4.6,0.7-6.6l-6.3-7.9
	c10.8,0.7,19.4,5.6,23.5,13.3C177.9,979.6,176.3,990.2,170.1,999.6z"/>
<g>
	<path class="st0" d="M61.6,73.9c2.2-3.5,4.5-7.2,7.4-10.1c2.7-2.7,5.7-5,8.7-7.3c4.3-3.3,8.5-6.5,11-10.5
		c9.3-14.4,3.5-22.1,1.5-24.1c-2.5-2.5-9.9-7.4-23.9,1.7c-1.8,1.2-3.8,2.3-5.9,3.5c-5.4,3.1-11.4,6.6-16.4,11.5
		c-4.3,4.3-6.1,10.3-7.7,15.6c-1.1,3.5-2,6.8-3.6,9.1c-1.1,1.7-2.2,3.3-3.2,4.9c-6.8,10.2-12.2,18.3-8,22.4c4.5,4.5,19.6,1.8,31-5.6
		C56,82.8,58.7,78.5,61.6,73.9z M23.6,88.5c-2.2-2.2,3.7-11.1,8.5-18.2c1.1-1.6,2.2-3.3,3.3-4.9c1.4-2.1,2.3-4.7,3.2-7.4
		c0.7,1.2,1.6,2.5,2.8,3.7c1.7,1.7,4,3.2,6.9,3.5c0.9,0.1,1.8-0.6,1.9-1.5c0.1-0.9-0.6-1.8-1.5-1.9c-5.4-0.6-8-6.8-8.6-8.6
		c1.4-4.4,3-8.8,6.2-12c4.6-4.6,10.5-8,15.7-11c0.4-0.2,0.8-0.5,1.2-0.7c0.6,1.8,1.8,4.3,4,6.6c1.2,1.2,2.8,2.4,4.7,3.2
		c0.9,0.4,1.8,0,2.2-0.9c0.4-0.9,0-1.9-0.9-2.2c-4.9-2.1-6.6-6.5-7.1-8.5c0.6-0.4,1.3-0.8,1.9-1.2c8.4-5.5,15.6-6.2,19.7-2.1
		c4.2,4.2,3.5,11.6-1.9,19.9c-2.3,3.5-6.1,6.5-10.3,9.6c-0.9,0.7-1.9,1.5-2.8,2.2c-1.7-1-5.4-3.5-6.3-7.8c-0.2-0.9-1.1-1.5-2-1.3
		c-0.9,0.2-1.5,1.1-1.3,2c0.7,3,2.3,5.3,4,7c1,1,2,1.8,2.9,2.3c-1.2,1-2.3,2-3.4,3.1c-3.2,3.2-5.5,7-7.8,10.7
		c-2.5,4-4.9,7.7-7.8,9.9c-1.7-0.4-6.6-2-8.1-8.8c-0.2-0.9-1.1-1.5-2-1.3c-0.9,0.2-1.5,1.1-1.3,2c0.8,3.4,2.3,5.9,4.1,7.7
		c1.2,1.2,2.5,2,3.7,2.6C37,89.8,26.1,90.9,23.6,88.5z"/>
</g>
</svg>
