<?xml version="1.0" encoding="utf-8"?>
<!-- Generator: Adobe Illustrator 25.1.0, SVG Export Plug-In . SVG Version: 6.00 Build 0)  -->
<svg version="1.1" id="Camada_1" xmlns="http://www.w3.org/2000/svg" xmlns:xlink="http://www.w3.org/1999/xlink" x="0px" y="0px"
	 viewBox="0 0 114 114" style="enable-background:new 0 0 114 114;" xml:space="preserve">
<style type="text/css">
	.st0{fill:#147834;}
</style>
<path class="st0" d="M181.8,966.6c-6.1-11.6-19-18.5-34.5-18.5c-2.5,0-5,0.2-7.6,0.5c0,0-0.1,0-0.1,0c-6.9,1-13.8,3.2-20.4,6.7
	c-11.6,6.1-20.4,15.2-24.6,25.6c-4.3,10.4-3.8,21.4,1.2,31c6.4,12.2,19.2,19.5,34.1,19.5c8.5,0,17.4-2.4,25.8-6.8
	c11.7-6.2,20.9-15.5,25.9-26.1C186.7,987.5,186.8,976.1,181.8,966.6z M170.1,999.6l-2.2-3c-1.6-2.1-4.5-2.5-6.6-0.9
	c-2.1,1.6-2.5,4.5-0.9,6.6l3.6,4.8c-3.6,3.5-7.9,6.7-12.7,9.3c-6.3,3.3-12.8,5.2-19,5.6l-8.9-13.2c-1.5-2.2-4.4-2.7-6.6-1.3
	c-2.2,1.5-2.7,4.4-1.3,6.6l4.4,6.5c-6.9-2.1-12.5-6.6-15.8-13c-3.7-7-4-15.2-0.8-23c3.4-8.3,10.6-15.7,20.3-20.8
	c0.4-0.2,0.8-0.4,1.3-0.6l8.1,11.1c0.9,1.3,2.4,1.9,3.8,1.9c1,0,1.9-0.3,2.8-0.9c2.1-1.5,2.6-4.5,1-6.6l-6.6-9.1
	c1.5-0.4,3-0.8,4.5-1.1l10.4,13c0.9,1.2,2.3,1.8,3.7,1.8c1,0,2.1-0.3,3-1c2-1.6,2.4-4.6,0.7-6.6l-6.3-7.9
	c10.8,0.7,19.4,5.6,23.5,13.3C177.9,979.6,176.3,990.2,170.1,999.6z"/>
<path class="st0" d="M74.7,50c-2-3.3-5.7-5.5-9.3-5.6l0.3-1.5c0.1-0.6-0.1-1.3-0.6-1.7c-0.5-0.4-1.2-0.5-1.8-0.3l-4.1,1.6
	c0.5-3.2,1.6-6.4,2-7.5c0.3-0.9-0.1-1.8-0.9-2.2c-0.3-0.1-0.5-0.4-0.7-0.8c-0.2-0.5-0.7-0.9-1.3-1c-0.5-0.1-1.1,0.1-1.5,0.4
	c-2.7,2.5-3.3,7.2-3.3,10.9l-3.7-1.4c-0.6-0.2-1.3-0.1-1.8,0.3c-0.5,0.4-0.7,1.1-0.6,1.7l0.3,1.5c-3.6,0.1-7.2,2.2-9.2,5.6
	C34.9,56.1,37,64.3,40.9,69c3.6,4.4,9.3,6.9,15.1,6.8c0.5,0,0.9,0,1.4,0c0.1,0,0.2,0,0.3,0c5.7,0,11.2-2.5,14.8-6.8
	C76.3,64.3,78.4,56.1,74.7,50z M49.7,47.8c0.5-0.4,0.8-1.1,0.6-1.7l-0.6-3l3.9,1.5c0,0.7,0.1,1.3,0.1,1.8c0.1,0.5,0.5,0.9,1.1,0.9
	c0,0,0.1,0,0.1,0c0.6-0.1,1-0.6,0.9-1.2c-0.2-2.2-0.7-9.6,2.1-12.9c0.3,0.5,0.7,0.9,1.2,1.2c-0.9,2.3-2.5,7.5-2.2,11.8
	c0,0.6,0.6,1,1.1,1c0.6,0,1-0.6,1-1.1c0-0.5,0-0.9,0-1.4c0.1,0,0.1,0,0.2-0.1l4.2-1.6l-0.6,3c-0.1,0.6,0.1,1.3,0.6,1.7l1.4,1.1h-4.7
	c-0.6,0-1.2,0.3-1.5,0.9l-2,3.7l-2.1-3.7C54.2,49.3,53.7,49,53,49h-4.7L49.7,47.8z M70.7,67.7c-3.2,3.8-8.3,6.2-13.4,6.1
	c-0.5,0-1,0-1.4,0c-5.1,0.1-10.2-2.3-13.4-6.1c-3.4-4.1-5.3-11.4-2.1-16.6c1.7-2.8,4.7-4.5,7.6-4.6L46.1,48
	c-0.6,0.5-0.8,1.2-0.6,1.9c0.2,0.7,0.9,1.2,1.7,1.2h5.6l2,3.5c0.4,0.7,1.1,1.1,1.8,1.1s1.5-0.4,1.8-1.1l2-3.5H66
	c0.8,0,1.4-0.5,1.7-1.2s0-1.5-0.6-1.9l-1.8-1.5c2.9,0,6,1.8,7.7,4.6C76.1,56.3,74.2,63.5,70.7,67.7z"/>
<path class="st0" d="M70.2,56.1c-0.6,0-1.1,0.4-1.1,1c-0.2,3.8-2.8,7.6-6.2,8.9c-0.5,0.2-0.8,0.8-0.6,1.4c0.2,0.4,0.6,0.7,1,0.7
	c0.1,0,0.2,0,0.4-0.1c4.2-1.5,7.4-6.1,7.6-10.8C71.2,56.6,70.7,56.1,70.2,56.1z"/>
</svg>
