<?xml version="1.0" encoding="utf-8"?>
<!-- Generator: Adobe Illustrator 24.0.0, SVG Export Plug-In . SVG Version: 6.00 Build 0)  -->
<svg version="1.1" id="Camada_1" xmlns="http://www.w3.org/2000/svg" xmlns:xlink="http://www.w3.org/1999/xlink" x="0px" y="0px"
	 viewBox="0 0 114 114" style="enable-background:new 0 0 114 114;" xml:space="preserve">
<style type="text/css">
	.st0{fill:#147834;}
</style>
<path class="st0" d="M181.8,966.6c-6.1-11.6-19-18.5-34.5-18.5c-2.5,0-5,0.2-7.6,0.5c0,0-0.1,0-0.1,0c-6.9,1-13.8,3.2-20.4,6.7
	c-11.6,6.1-20.4,15.2-24.6,25.6c-4.3,10.4-3.8,21.4,1.2,31c6.4,12.2,19.2,19.5,34.1,19.5c8.5,0,17.4-2.4,25.8-6.8
	c11.7-6.2,20.9-15.5,25.9-26.1C186.7,987.5,186.8,976.1,181.8,966.6z M170.1,999.6l-2.2-3c-1.6-2.1-4.5-2.5-6.6-0.9
	c-2.1,1.6-2.5,4.5-0.9,6.6l3.6,4.8c-3.6,3.5-7.9,6.7-12.7,9.3c-6.3,3.3-12.8,5.2-19,5.6l-8.9-13.2c-1.5-2.2-4.4-2.7-6.6-1.3
	c-2.2,1.5-2.7,4.4-1.3,6.6l4.4,6.5c-6.9-2.1-12.5-6.6-15.8-13c-3.7-7-4-15.2-0.8-23c3.4-8.3,10.6-15.7,20.3-20.8
	c0.4-0.2,0.8-0.4,1.3-0.6l8.1,11.1c0.9,1.3,2.4,1.9,3.8,1.9c1,0,1.9-0.3,2.8-0.9c2.1-1.5,2.6-4.5,1-6.6l-6.6-9.1
	c1.5-0.4,3-0.8,4.5-1.1l10.4,13c0.9,1.2,2.3,1.8,3.7,1.8c1,0,2.1-0.3,3-1c2-1.6,2.4-4.6,0.7-6.6l-6.3-7.9
	c10.8,0.7,19.4,5.6,23.5,13.3C177.9,979.6,176.3,990.2,170.1,999.6z"/>
<g>
	<path id="XMLID_80_" class="st0" d="M70.7,76.1c-5.8,8-5.1,16.6,2.3,24c6.6,6.6,11.7,5.2,16.3,3.9c4.1-1.1,8.1-2.2,14.4,1.5
		c0.4,0.2,0.8,0.3,1.2,0.3c0.6,0,1.2-0.2,1.6-0.7c0.7-0.7,0.9-1.9,0.4-2.8c-3.7-6.4-2.6-10.3-1.5-14.4c1.2-4.5,2.6-9.7-3.9-16.3
		c-7.4-7.4-15.9-8.1-24-2.3 M101.7,83c-0.1,1.2-0.5,2.4-0.8,3.7c-0.9,3.3-2,7.2-0.5,12.4c-1.8-0.5-3.5-0.7-5.1-0.7
		c-2.8,0-5.2,0.6-7.3,1.2c-4.3,1.2-7.1,1.9-11.8-2.8c-6.7-6.7-6.4-13.8,0.8-21.1c6.3-6.3,12.4-7.3,18.3-3.2l-5.2,5.2
		c-0.5,0.5-0.5,1.4,0,2c0.3,0.3,0.6,0.4,1,0.4c0.4,0,0.7-0.1,1-0.4l5.3-5.3c0.2,0.2,0.4,0.4,0.6,0.6c0.3,0.3,0.5,0.5,0.8,0.8
		l-8.6,8.6c-0.5,0.5-0.5,1.4,0,2c0.3,0.3,0.6,0.4,1,0.4s0.7-0.1,1-0.4l8.3-8.3c0.3,0.5,0.5,1,0.7,1.5l-6.8,6.8c-0.5,0.5-0.5,1.4,0,2
		c0.3,0.3,0.6,0.4,1,0.4c0.4,0,0.7-0.1,1-0.4L101.7,83z"/>
	<path id="XMLID_10_" class="st0" d="M82.8,69.4c-1.1-1.1-2.4-1.9-3.9-2.3C75.2,63.8,47.6,38,47,10.3c0-0.6-0.3-1.2-0.8-1.7
		c-0.5-0.4-1.1-0.6-1.7-0.6l-8.5,0.7c-0.6,0-1.2,0.4-1.6,0.8c-0.4,0.5-0.6,1.1-0.5,1.7c0.1,0.7,1.1,8.7,5.6,20.2
		C21.2,20.6,9.2,21.3,8.6,21.3c-1.1,0.1-2.1,1-2.2,2.1l-0.5,6.7c-0.1,1.3,0.8,2.4,2.1,2.5c7,0.7,13.8,2.7,20.3,5.9
		c-3.3-0.5-5.2-0.4-5.3-0.4c-1.1,0.1-2.1,1-2.2,2.1l-0.5,6.7c-0.1,1.3,0.8,2.4,2.1,2.5c18,1.7,31.5,11.2,39.7,18.9
		c1.8,2,3.6,4.1,5.6,6.1c-0.3,2.7,0.6,5.4,2.5,7.3 M49.3,51c0.7,1.2,1.5,2.4,2.3,3.7c-7.3-4.4-16.2-8.1-26.6-9.5l0.2-2.3
		C29,43.2,37.6,44.6,49.3,51z M42.8,39.1c0.7,1.5,1.5,3.1,2.4,4.7c-0.4-0.2-0.8-0.4-1.2-0.5c-10.2-8.3-21.3-13.3-33.2-14.9l0.2-2.3
		C15.4,26.4,27.1,28.3,42.8,39.1z M72.5,74.5c0.2-0.8,0-1.7-0.6-2.3C47.3,47.5,40.5,21,38.9,13.1l3.6-0.3c1.1,15.7,9.8,30.3,17.1,40
		c7.9,10.5,15.7,17.4,16.6,18.2c0.3,0.3,0.1-0.7,0.5-0.6"/>
</g>
</svg>
