<?xml version="1.0" encoding="utf-8"?>
<!-- Generator: Adobe Illustrator 24.0.0, SVG Export Plug-In . SVG Version: 6.00 Build 0)  -->
<svg version="1.1" id="Camada_1" xmlns="http://www.w3.org/2000/svg" xmlns:xlink="http://www.w3.org/1999/xlink" x="0px" y="0px"
	 viewBox="0 0 114 114" style="enable-background:new 0 0 114 114;" xml:space="preserve">
<style type="text/css">
	.st0{fill:#147834;}
</style>
<path class="st0" d="M181.8,966.6c-6.1-11.6-19-18.5-34.5-18.5c-2.5,0-5,0.2-7.6,0.5c0,0-0.1,0-0.1,0c-6.9,1-13.8,3.2-20.4,6.7
	c-11.6,6.1-20.4,15.2-24.6,25.6c-4.3,10.4-3.8,21.4,1.2,31c6.4,12.2,19.2,19.5,34.1,19.5c8.5,0,17.4-2.4,25.8-6.8
	c11.7-6.2,20.9-15.5,25.9-26.1C186.7,987.5,186.8,976.1,181.8,966.6z M170.1,999.6l-2.2-3c-1.6-2.1-4.5-2.5-6.6-0.9
	c-2.1,1.6-2.5,4.5-0.9,6.6l3.6,4.8c-3.6,3.5-7.9,6.7-12.7,9.3c-6.3,3.3-12.8,5.2-19,5.6l-8.9-13.2c-1.5-2.2-4.4-2.7-6.6-1.3
	c-2.2,1.5-2.7,4.4-1.3,6.6l4.4,6.5c-6.9-2.1-12.5-6.6-15.8-13c-3.7-7-4-15.2-0.8-23c3.4-8.3,10.6-15.7,20.3-20.8
	c0.4-0.2,0.8-0.4,1.3-0.6l8.1,11.1c0.9,1.3,2.4,1.9,3.8,1.9c1,0,1.9-0.3,2.8-0.9c2.1-1.5,2.6-4.5,1-6.6l-6.6-9.1
	c1.5-0.4,3-0.8,4.5-1.1l10.4,13c0.9,1.2,2.3,1.8,3.7,1.8c1,0,2.1-0.3,3-1c2-1.6,2.4-4.6,0.7-6.6l-6.3-7.9
	c10.8,0.7,19.4,5.6,23.5,13.3C177.9,979.6,176.3,990.2,170.1,999.6z"/>
<g>
	<path class="st0" d="M53.7,102.2c-0.1,0-0.3,0-0.4,0l-4.2-0.8c-1.1-0.2-1.9-1.2-1.8-2.3l2.2-22.5c0,0,0-0.1,0-0.2
		c0.4-2.5-0.8-5-3.1-6.2c-2.4-1.5-4.1-3.9-4.6-6.7c-0.3-1.7-0.1-3.4,0.5-4.9c-7.3-3.7-10.2-12.7-6.5-20c2.3-4.5,6.7-7.5,11.8-8
		l0.1-0.6c0.8-4.2,2.8-8.1,5.9-11c-1.5-0.7-3.1-1.1-4.7-1.1c-7.1,0-12.7,6.7-12.7,14.8c0,0.7,0.1,1.4,0.1,2c0.1,1.1-0.6,2.2-1.8,2.3
		c-5.8,0.9-9.7,6.3-8.8,12.1c0.8,4.7,4.6,8.3,9.3,8.9c0.7,0.1,1.3,0.5,1.6,1.1c0.3,0.6,0.3,1.3,0,2c-0.7,1.3-0.7,2.8-0.2,4.2
		c0.5,1.4,1.7,2.6,3.1,3.1c4.2,1.3,7,5.2,7.1,9.6c0,1.2-0.9,2.1-2.1,2.1c-1.2,0-2.1-0.9-2.1-2.1c-0.1-2.6-1.8-4.8-4.2-5.5
		c-2.7-1-4.8-3-5.8-5.7c-0.6-1.6-0.8-3.3-0.5-4.9C24.3,59.6,19.7,51.4,22,43.5c1.4-4.9,5.2-8.7,10-10.1c0-0.2,0-0.4,0-0.6
		c0-10.5,7.6-19.1,17-19.1c3,0,6,0.9,8.5,2.5c3.2-1.8,7-2.5,10.6-1.8c4.6,0.8,8.7,3.7,11,7.8c2.4,4.3,3.2,9.3,2.2,14.1
		c0,0.2,0,0.4-0.1,0.6c7.2,3.8,10,12.8,6.2,20c-2.4,4.4-6.8,7.4-11.8,7.8c0,1.7-0.5,3.3-1.4,4.8c-1.5,2.4-3.9,4-6.6,4.5
		c-2.6,0.2-4.7,2.1-5.3,4.7V79l-1.6,5.6c-0.3,1.1-1.5,1.8-2.6,1.4c-1.1-0.3-1.8-1.5-1.4-2.6l1.6-5.5c0.9-4.2,4.4-7.4,8.7-7.9
		c1.6-0.2,2.9-1.2,3.7-2.5c0.8-1.2,1-2.7,0.6-4.1c-0.2-0.7,0-1.4,0.4-1.9c0.4-0.5,1.1-0.8,1.8-0.8c5.8,0.5,10.9-3.8,11.4-9.7
		c0.4-4.8-2.4-9.2-6.9-10.8c-1.1-0.4-1.7-1.6-1.3-2.6c0.2-0.6,0.4-1.3,0.5-2c0.8-3.8,0.2-7.7-1.8-11.1c-3-5.6-9.9-7.6-15.5-4.7
		c-0.7,0.4-1.3,0.8-1.9,1.3c-3,2.4-5.1,5.9-5.8,9.7c-0.1,0.7-0.2,1.4-0.2,2.1c-0.1,1.1-1,2-2.2,2c-5.8-0.2-10.8,4.3-11,10.2
		c-0.2,4.8,2.9,9.1,7.5,10.5c0.7,0.2,1.2,0.7,1.4,1.4c0.2,0.6,0.1,1.3-0.3,1.9c-0.9,1.1-1.3,2.6-1,4.1c0.3,1.5,1.2,2.9,2.5,3.7
		c3.8,2.1,5.9,6.3,5.2,10.6l-2,20.6l0.5,0.1c1.1-2.6,3-6.4,6-7.7c1.4-0.6,3-0.6,4.4,0.1c1.1,0.4,1.7,1.5,1.4,2.7
		c-0.4,1.1-1.5,1.7-2.7,1.4c-0.2-0.1-0.3-0.1-0.5-0.2c-0.3-0.2-0.6-0.2-0.8,0c-1.4,0.6-3.2,3.4-4.3,6.9
		C55.5,101.7,54.7,102.3,53.7,102.2L53.7,102.2z"/>
	<path class="st0" d="M57.2,72.7h-0.4c-1.1-0.2-1.9-1.3-1.7-2.5c0,0,0,0,0,0l2.3-11.7c-0.2-0.1-0.5-0.3-0.7-0.4L45.5,46.9
		c-0.8-0.8-0.9-2.2,0-3c0.8-0.8,2.2-0.9,3,0l0,0l9.9,9.8l1.4-7.5l-6.4-7c-0.8-0.9-0.7-2.2,0.1-3c0.9-0.8,2.2-0.7,3,0.1l4.3,4.7
		l0.8-4.1c0.1-1.2,1.2-2,2.3-1.9c1.2,0.1,2,1.2,1.9,2.3c0,0.1,0,0.2-0.1,0.3L65,41.8l5.7-2.7c1-0.6,2.3-0.2,2.9,0.8
		c0.6,1,0.2,2.3-0.8,2.9c-0.1,0.1-0.2,0.1-0.4,0.2l-8.5,4L59.4,71c-0.2,1-1.1,1.7-2.1,1.7L57.2,72.7z"/>
</g>
</svg>
