<?xml version="1.0" encoding="utf-8"?>
<!-- Generator: Adobe Illustrator 24.0.0, SVG Export Plug-In . SVG Version: 6.00 Build 0)  -->
<svg version="1.1" id="Camada_1" xmlns="http://www.w3.org/2000/svg" xmlns:xlink="http://www.w3.org/1999/xlink" x="0px" y="0px"
	 viewBox="0 0 114 114" style="enable-background:new 0 0 114 114;" xml:space="preserve">
<style type="text/css">
	.st0{fill:#147834;}
</style>
<path class="st0" d="M181.8,966.6c-6.1-11.6-19-18.5-34.5-18.5c-2.5,0-5,0.2-7.6,0.5c0,0-0.1,0-0.1,0c-6.9,1-13.8,3.2-20.4,6.7
	c-11.6,6.1-20.4,15.2-24.6,25.6c-4.3,10.4-3.8,21.4,1.2,31c6.4,12.2,19.2,19.5,34.1,19.5c8.5,0,17.4-2.4,25.8-6.8
	c11.7-6.2,20.9-15.5,25.9-26.1C186.7,987.5,186.8,976.1,181.8,966.6z M170.1,999.6l-2.2-3c-1.6-2.1-4.5-2.5-6.6-0.9
	c-2.1,1.6-2.5,4.5-0.9,6.6l3.6,4.8c-3.6,3.5-7.9,6.7-12.7,9.3c-6.3,3.3-12.8,5.2-19,5.6l-8.9-13.2c-1.5-2.2-4.4-2.7-6.6-1.3
	c-2.2,1.5-2.7,4.4-1.3,6.6l4.4,6.5c-6.9-2.1-12.5-6.6-15.8-13c-3.7-7-4-15.2-0.8-23c3.4-8.3,10.6-15.7,20.3-20.8
	c0.4-0.2,0.8-0.4,1.3-0.6l8.1,11.1c0.9,1.3,2.4,1.9,3.8,1.9c1,0,1.9-0.3,2.8-0.9c2.1-1.5,2.6-4.5,1-6.6l-6.6-9.1
	c1.5-0.4,3-0.8,4.5-1.1l10.4,13c0.9,1.2,2.3,1.8,3.7,1.8c1,0,2.1-0.3,3-1c2-1.6,2.4-4.6,0.7-6.6l-6.3-7.9
	c10.8,0.7,19.4,5.6,23.5,13.3C177.9,979.6,176.3,990.2,170.1,999.6z"/>
<path id="XMLID_175_" class="st0" d="M45.1,45.7c-1.3-1.7-3.3-2.8-5.6-2.9c-4.2-0.2-7.9,3-8.1,7.3c-0.2,4,2.6,7.4,6.5,8
	c-0.4,0.8-0.6,1.7-0.7,2.7c-0.2,3.9,2.5,7.3,6.2,8c-0.2,0.6-0.3,1.3-0.4,2c-0.2,3.9,2.5,7.3,6.3,8c-0.2,0.7-0.4,1.4-0.4,2.1
	c-0.1,2.1,0.6,4,2,5.6c1.4,1.5,3.3,2.4,5.3,2.6c0.1,0,0.3,0,0.4,0c1.9,0,3.7-0.7,5.1-2c1.5-1.4,2.4-3.3,2.6-5.3c0.1-1-0.1-2-0.4-3
	c1.4-0.3,2.7-0.9,3.7-1.8c1.5-1.4,2.4-3.3,2.6-5.3c0.1-1-0.1-2-0.4-2.8c3.4-0.7,6-3.5,6.2-7.1c0.1-1.3-0.2-2.5-0.7-3.6
	c3.5-0.5,6.3-3.5,6.5-7.2c0.2-4.2-3-7.9-7.3-8.1c-2.6-0.1-4.9,1-6.4,2.9c-1.3-1.5-3.2-2.4-5.3-2.5c-1.7-0.1-3.2,0.3-4.6,1.2
	c-0.2-5.4,0.4-12.5,2.8-14.7c0.6-0.6,1.3-0.7,2.3-0.5c1,0.2,2-0.4,2.2-1.4c0.2-1-0.4-2-1.4-2.2c-2.1-0.4-4.1,0-5.6,1.4
	c-0.9,0.8-1.7,2-2.2,3.4c-0.9-1.4-2.1-2.6-3.5-3.5c-3.1-2.1-7-2.8-10.6-1.8C42.1,24.9,42,25,42,25c0,0,0,0,0,0
	c-0.1,0-0.2,0.1-0.3,0.2c0,0,0,0,0,0c-0.1,0.1-0.2,0.1-0.2,0.2c0,0,0,0,0,0c-0.1,0.1-0.1,0.1-0.2,0.2c0,0,0,0,0,0.1
	c0,0.1-0.1,0.2-0.1,0.2c0,0,0,0.1,0,0.1c0,0.1-0.1,0.2-0.1,0.3c0,0,0,0.1,0,0.1c0,0.1,0,0.2,0,0.3c0,0,0,0,0,0.1c0,0,0,0,0,0
	c0,0,0,0,0,0c0.2,4.1,2.2,7.7,5.6,10c2.2,1.5,4.7,2.3,7.3,2.3c0.3,0,0.6,0,0.8,0c-0.1,1.9-0.1,3.6-0.1,5.1c-1-0.6-2.2-0.9-3.4-1
	C48.8,43.1,46.6,44,45.1,45.7z M50.2,31.1c-0.5-0.4-1.2-0.2-1.6,0.3c-0.4,0.5-0.2,1.2,0.3,1.6l3.3,2.4c-1.3-0.2-2.5-0.7-3.6-1.5
	c-2-1.3-3.3-3.3-3.8-5.6c2.1-0.2,4.2,0.4,6,1.6c1.5,1,2.6,2.4,3.3,4.1L50.2,31.1z M38.9,54.4c-2.2-0.1-3.9-2-3.8-4.2
	c0.1-1.1,0.5-2,1.3-2.8c0.7-0.7,1.7-1,2.7-1c0.1,0,0.1,0,0.2,0c1.1,0.1,2,0.5,2.8,1.3c0.7,0.8,1.1,1.8,1,2.9
	C43,52.9,41.1,54.6,38.9,54.4z M44.7,65.2c-2.2-0.1-3.9-2-3.8-4.2c0.1-2.1,1.9-3.8,4-3.8c0.1,0,0.1,0,0.2,0c1.1,0.1,2,0.5,2.8,1.3
	c0.7,0.8,1.1,1.8,1,2.9c-0.1,1.1-0.6,2.1-1.3,2.8c-0.5,0.2-0.9,0.5-1.3,0.8C45.8,65.2,45.3,65.2,44.7,65.2z M50.6,75.2
	c-1.1-0.1-2-0.5-2.8-1.3c-0.7-0.8-1.1-1.8-1-2.9c0.1-1.1,0.5-2,1.3-2.8c0,0,0,0,0,0c0.5-0.2,0.9-0.5,1.3-0.8
	c0.4-0.2,0.9-0.2,1.3-0.2c0.1,0,0.1,0,0.2,0c0.4,0,0.8,0.1,1.1,0.2c0.4,0.3,0.8,0.6,1.3,0.8c0.1,0.1,0.2,0.2,0.3,0.3
	c0.7,0.8,1.1,1.8,1,2.9c-0.1,1.1-0.5,2-1.3,2.8C52.7,74.9,51.6,75.3,50.6,75.2z M60.6,81.6c-0.1,1.1-0.5,2-1.3,2.8
	c-0.8,0.7-1.8,1.1-2.9,1c-1.1-0.1-2-0.5-2.8-1.3c-0.7-0.8-1.1-1.8-1-2.9c0.1-1.1,0.5-2,1.3-2.8c0.7-0.7,1.7-1,2.7-1
	c0.1,0,0.1,0,0.2,0c1.1,0.1,2,0.5,2.8,1.3C60.3,79.5,60.7,80.5,60.6,81.6z M66.5,71.4c-0.1,1.1-0.5,2-1.3,2.8
	c-0.8,0.7-1.8,1.1-2.9,1c-1.1-0.1-2-0.5-2.8-1.3c-0.7-0.8-1.1-1.8-1-2.9c0.1-1.1,0.5-2,1.3-2.8c0,0,0,0,0,0c0.5-0.2,0.9-0.5,1.3-0.8
	c0.4-0.2,0.9-0.2,1.3-0.2c0.1,0,0.1,0,0.2,0c0.4,0,0.8,0.1,1.1,0.2c0.4,0.3,0.8,0.6,1.3,0.8c0.1,0.1,0.2,0.2,0.3,0.3
	C66.2,69.4,66.5,70.4,66.5,71.4z M70.2,50.2c0.1-2.1,1.9-3.8,4-3.8c0.1,0,0.1,0,0.2,0c1.1,0.1,2,0.5,2.8,1.3c0.7,0.8,1.1,1.8,1,2.9
	c-0.1,1.1-0.5,2-1.3,2.8c-0.8,0.7-1.8,1.1-2.9,1C71.8,54.3,70.1,52.4,70.2,50.2z M68.3,57.2c0.1,0,0.1,0,0.2,0
	c2.2,0.1,3.9,2,3.8,4.2c-0.1,2.2-2,3.9-4.2,3.8c-0.4,0-0.8-0.1-1.1-0.2c-0.4-0.3-0.8-0.5-1.3-0.8c-0.9-0.8-1.4-1.9-1.4-3.2
	C64.5,58.9,66.2,57.2,68.3,57.2z M58.5,50.6c0.1-1.1,0.5-2,1.3-2.8c0.7-0.7,1.7-1,2.7-1c0.1,0,0.1,0,0.2,0c1.1,0.1,2,0.5,2.8,1.3
	c0.7,0.8,1.1,1.8,1,2.9c-0.1,1.1-0.5,2-1.3,2.8c-0.8,0.7-1.8,1.1-2.9,1c-1.1-0.1-2-0.5-2.8-1.3C58.8,52.7,58.4,51.7,58.5,50.6z
	 M56.6,57.2c0.1,0,0.1,0,0.2,0c1.1,0.1,2,0.5,2.8,1.3c0.7,0.8,1.1,1.8,1,2.9c-0.1,1.1-0.5,2-1.3,2.8c0,0,0,0,0,0
	c-0.5,0.2-0.9,0.5-1.4,0.8c-0.5,0.2-1,0.2-1.5,0.2c-0.4,0-0.7-0.1-1.1-0.2c-0.4-0.3-0.9-0.6-1.3-0.8c-0.9-0.8-1.4-1.9-1.3-3.2
	c0.1-1.1,0.5-2,1.3-2.8C54.7,57.6,55.7,57.2,56.6,57.2z M53.8,48.2c0.7,0.8,1.1,1.8,1,2.9c-0.1,1.1-0.5,2-1.3,2.8
	c-0.8,0.7-1.8,1.1-2.9,1c-1.1-0.1-2-0.5-2.8-1.3c-0.7-0.8-1.1-1.8-1-2.9c0.1-1.1,0.5-2,1.3-2.8c0.7-0.7,1.7-1,2.7-1
	c0.1,0,0.1,0,0.2,0C52.1,47,53,47.4,53.8,48.2z"/>
</svg>
