<?xml version="1.0" encoding="utf-8"?>
<!-- Generator: Adobe Illustrator 25.1.0, SVG Export Plug-In . SVG Version: 6.00 Build 0)  -->
<svg version="1.1" id="Camada_1" xmlns="http://www.w3.org/2000/svg" xmlns:xlink="http://www.w3.org/1999/xlink" x="0px" y="0px"
	 viewBox="0 0 114 114" style="enable-background:new 0 0 114 114;" xml:space="preserve">
<style type="text/css">
	.st0{fill:#147834;}
</style>
<path class="st0" d="M181.8,966.6c-6.1-11.6-19-18.5-34.5-18.5c-2.5,0-5,0.2-7.6,0.5h-0.1c-6.9,1-13.8,3.2-20.4,6.7
	c-11.6,6.1-20.4,15.2-24.6,25.6c-4.3,10.4-3.8,21.4,1.2,31c6.4,12.2,19.2,19.5,34.1,19.5c8.5,0,17.4-2.4,25.8-6.8
	c11.7-6.2,20.9-15.5,25.9-26.1C186.7,987.5,186.8,976.1,181.8,966.6z M170.1,999.6l-2.2-3c-1.6-2.1-4.5-2.5-6.6-0.9
	s-2.5,4.5-0.9,6.6l3.6,4.8c-3.6,3.5-7.9,6.7-12.7,9.3c-6.3,3.3-12.8,5.2-19,5.6l-8.9-13.2c-1.5-2.2-4.4-2.7-6.6-1.3
	c-2.2,1.5-2.7,4.4-1.3,6.6l4.4,6.5c-6.9-2.1-12.5-6.6-15.8-13c-3.7-7-4-15.2-0.8-23c3.4-8.3,10.6-15.7,20.3-20.8
	c0.4-0.2,0.8-0.4,1.3-0.6l8.1,11.1c0.9,1.3,2.4,1.9,3.8,1.9c1,0,1.9-0.3,2.8-0.9c2.1-1.5,2.6-4.5,1-6.6l-6.6-9.1
	c1.5-0.4,3-0.8,4.5-1.1l10.4,13c0.9,1.2,2.3,1.8,3.7,1.8c1,0,2.1-0.3,3-1c2-1.6,2.4-4.6,0.7-6.6l-6.3-7.9
	c10.8,0.7,19.4,5.6,23.5,13.3C177.9,979.6,176.3,990.2,170.1,999.6z"/>
<g>
	<path class="st0" d="M70.4,47.5c-4.3-2.8-9.2-4.3-14.2-4.5c0.3-6.6,2.9-12.6,7.6-17.2l1.1-1.1c0.5-0.5,0.5-1.2,0-1.7
		s-1.2-0.5-1.7,0l-1.1,1c-2.5,2.5-4.5,5.4-5.9,8.5v-11c0-0.7-0.6-1.2-1.2-1.2c-0.7,0-1.2,0.6-1.2,1.2v11c-1.4-3.1-3.4-6.1-5.9-8.6
		l-1.1-1c-0.5-0.5-1.2-0.5-1.7,0s-0.5,1.2,0,1.7l1.1,1.1c4.7,4.7,7.3,10.7,7.6,17.2c-4.9,0.2-9.8,1.7-14.2,4.5
		c-4.2,2.8-6.8,7.4-6.9,12.4c-0.1,5,2.3,9.7,6.5,12.7l7.2,5.1c4.7,3.3,7.4,8.6,7.4,14.2c0,0.7,0.6,1.2,1.2,1.2
		c0.7,0,1.2-0.6,1.2-1.2c0-5.6,2.8-11.1,7.4-14.2l7.2-5.1c4.1-2.9,6.6-7.6,6.5-12.7C77.2,54.7,74.7,50.2,70.4,47.5z M69.4,70.5
		L69.4,70.5c-0.2,0-0.3,0-0.5,0H55c-0.7,0-1.2,0.6-1.2,1.2c0,0.7,0.6,1.2,1.2,1.2h11l-3.8,2.6C58.9,78,56.4,81.3,55,85
		c-1.4-3.8-3.8-7-7.2-9.4l-7.2-5.1c-2.9-2-4.7-5.1-5.2-8.4H55c0.7,0,1.2-0.6,1.2-1.2c0-0.7-0.6-1.2-1.2-1.2H35.2
		c0.2-4.2,2.2-7.9,5.7-10.2c4.3-2.8,9.2-4.2,14.1-4.2s9.8,1.4,14.1,4.2c3.6,2.4,5.6,6.1,5.7,10.4C74.9,64.2,73,68.1,69.4,70.5z"/>
</g>
</svg>
