<?xml version="1.0" encoding="utf-8"?>
<!-- Generator: Adobe Illustrator 24.0.0, SVG Export Plug-In . SVG Version: 6.00 Build 0)  -->
<svg version="1.1" id="Camada_1" xmlns="http://www.w3.org/2000/svg" xmlns:xlink="http://www.w3.org/1999/xlink" x="0px" y="0px"
	 viewBox="0 0 114 114" style="enable-background:new 0 0 114 114;" xml:space="preserve">
<style type="text/css">
	.st0{fill:#147834;}
</style>
<path id="XMLID_192_" class="st0" d="M41.6,33.3c-3.5,0-6.8,1-9.8,2.7c-0.6-0.1-1.2-0.1-1.7-0.1c-13.8,0-25,14.2-25,31.6
	s11.2,31.6,25,31.6c0.6,0,1.2,0,1.8-0.1c3,1.7,6.3,2.7,9.7,2.7c2.7,0,5.3-0.6,7.8-1.7c2.4,1.1,5,1.7,7.8,1.7c2.7,0,5.3-0.6,7.8-1.7
	c2.5,1.1,5.1,1.7,7.8,1.7c3.5,0,6.7-1,9.7-2.7c0.6,0.1,1.2,0.1,1.8,0.1c13.8,0,25-14.2,25-31.6S98,35.9,84.3,35.9
	c-0.6,0-1.2,0-1.7,0.1c-3-1.7-6.3-2.7-9.8-2.7c-2.7,0-5.3,0.6-7.8,1.7c-0.4-0.2-0.9-0.4-1.3-0.5c0.6-13.2,3.1-19.2,3.1-19.3
	c0.5-1.1,0.4-2.4-0.3-3.5c-0.7-1-1.8-1.7-3.1-1.7H51.3c-1.2,0-2.4,0.6-3,1.6C44,18,47.7,29.1,50,34.7c-0.2,0.1-0.4,0.2-0.5,0.2
	C46.9,33.8,44.3,33.3,41.6,33.3z M22.4,89.3c-5.9-3.9-9.9-12.2-9.9-21.8s4.1-17.9,9.9-21.8c-3.6,5.9-5.7,13.5-5.7,21.8
	C16.6,75.8,18.8,83.4,22.4,89.3z M41.6,94.4c-2.1,0-4.1-0.6-6-1.6c-0.4-0.5-1-0.8-1.6-1C28.2,87.3,24,78,24,67.5
	c0-14.6,8.1-26.9,17.7-26.9c0,0,0.1,0,0.1,0c-5.8,6.3-9.6,16-9.6,26.9c0,10.9,3.7,20.6,9.6,26.9C41.7,94.4,41.7,94.4,41.6,94.4z
	 M92,45.7c5.9,3.9,9.9,12.2,9.9,21.8S97.9,85.3,92,89.3c3.6-5.9,5.7-13.5,5.7-21.8C97.7,59.2,95.6,51.6,92,45.7z M72.8,40.6
	c9.6,0,17.7,12.3,17.7,26.9c0,10.5-4.2,19.8-10.1,24.2c-0.6,0.2-1.2,0.6-1.6,1c-1.9,1.1-3.9,1.6-6,1.6c0,0-0.1,0-0.1,0
	c5.8-6.3,9.6-16,9.6-26.9c0-10.9-3.7-20.6-9.6-26.9C72.7,40.6,72.7,40.6,72.8,40.6z M53.8,17.3h4.7c-0.8,3.1-1.6,7.7-2,13.8
	C54.6,26.5,53.1,20.7,53.8,17.3z M57.2,40.6c9.6,0,17.7,12.3,17.7,26.9s-8.1,26.9-17.7,26.9c-9.6,0-17.7-12.3-17.7-26.9
	S47.6,40.6,57.2,40.6z"/>
</svg>
