<?xml version="1.0" encoding="utf-8"?>
<!-- Generator: Adobe Illustrator 24.0.0, SVG Export Plug-In . SVG Version: 6.00 Build 0)  -->
<svg version="1.1" id="Camada_1" xmlns="http://www.w3.org/2000/svg" xmlns:xlink="http://www.w3.org/1999/xlink" x="0px" y="0px"
	 viewBox="0 0 114 114" style="enable-background:new 0 0 114 114;" xml:space="preserve">
<style type="text/css">
	.st0{fill:#147834;}
</style>
<path class="st0" d="M181.8,966.6c-6.1-11.6-19-18.5-34.5-18.5c-2.5,0-5,0.2-7.6,0.5c0,0-0.1,0-0.1,0c-6.9,1-13.8,3.2-20.4,6.7
	c-11.6,6.1-20.4,15.2-24.6,25.6c-4.3,10.4-3.8,21.4,1.2,31c6.4,12.2,19.2,19.5,34.1,19.5c8.5,0,17.4-2.4,25.8-6.8
	c11.7-6.2,20.9-15.5,25.9-26.1C186.7,987.5,186.8,976.1,181.8,966.6z M170.1,999.6l-2.2-3c-1.6-2.1-4.5-2.5-6.6-0.9
	c-2.1,1.6-2.5,4.5-0.9,6.6l3.6,4.8c-3.6,3.5-7.9,6.7-12.7,9.3c-6.3,3.3-12.8,5.2-19,5.6l-8.9-13.2c-1.5-2.2-4.4-2.7-6.6-1.3
	c-2.2,1.5-2.7,4.4-1.3,6.6l4.4,6.5c-6.9-2.1-12.5-6.6-15.8-13c-3.7-7-4-15.2-0.8-23c3.4-8.3,10.6-15.7,20.3-20.8
	c0.4-0.2,0.8-0.4,1.3-0.6l8.1,11.1c0.9,1.3,2.4,1.9,3.8,1.9c1,0,1.9-0.3,2.8-0.9c2.1-1.5,2.6-4.5,1-6.6l-6.6-9.1
	c1.5-0.4,3-0.8,4.5-1.1l10.4,13c0.9,1.2,2.3,1.8,3.7,1.8c1,0,2.1-0.3,3-1c2-1.6,2.4-4.6,0.7-6.6l-6.3-7.9
	c10.8,0.7,19.4,5.6,23.5,13.3C177.9,979.6,176.3,990.2,170.1,999.6z"/>
<g id="XMLID_67_">
	<path id="XMLID_61_" class="st0" d="M35.2,62.1c0.5,8.4,5,18.6,12.7,21.9c2,0.8,3.7,1.2,5.2,1.2c2,0,3.5-0.6,4.6-1.4
		c1.9,1.4,5.1,2.2,9.8,0.2c7.7-3.3,12.2-13.5,12.7-21.9c0.6-10.1-4.1-14.8-8.1-16.9c-3.9-2-9.9-0.9-13-0.1c0,0,0,0,0,0
		c0,0,0-0.1,0-0.1c0,0,0,0,0,0c0,0,0,0,0,0c0-0.1,0-0.1,0-0.2c0.1-2.1,1-5,5.2-6.2c1.1-0.3,1.7-1.4,1.4-2.5
		c-0.3-1.1-1.4-1.7-2.5-1.4c-2.8,0.8-4.7,2.1-6,3.7c-1.1-2.1-2.8-3.9-4.8-5.3c-3.7-2.5-8.3-3.3-12.6-2.2c-0.1,0-0.2,0.1-0.3,0.1
		c0,0,0,0,0,0c-0.1,0.1-0.2,0.1-0.3,0.2c0,0,0,0,0,0c-0.1,0.1-0.2,0.2-0.3,0.2c0,0,0,0,0,0c-0.1,0.1-0.1,0.2-0.2,0.3c0,0,0,0,0,0.1
		c-0.1,0.1-0.1,0.2-0.1,0.3c0,0,0,0.1,0,0.1c0,0.1-0.1,0.2-0.1,0.3c0,0,0,0.1,0,0.1c0,0.1,0,0.2,0,0.4c0,0,0,0,0,0c0,0,0,0,0,0
		c0,0,0,0,0,0c0.2,4.7,2.6,9,6.4,11.7c-0.5,0.2-0.9,0.3-1.4,0.6C39.3,47.3,34.6,51.9,35.2,62.1z M42.6,34.4c2.6-0.3,5.3,0.4,7.5,1.9
		c2,1.4,3.4,3.3,4.2,5.4l-5.1-3.6c-0.6-0.4-1.3-0.3-1.7,0.3c-0.4,0.6-0.3,1.3,0.3,1.7l4.4,3.2c-1.8-0.2-3.5-0.8-5-1.9
		C44.8,39.7,43.2,37.3,42.6,34.4z M45.2,48.8c3.1-1.6,9.6,0,11.8,0.7c0.4,0.1,0.9,0.1,1.3,0c2.1-0.7,8.7-2.3,11.8-0.7
		c4.3,2.2,6.3,6.6,5.9,13c-0.4,7-4.1,15.8-10.3,18.4c-4.6,2-6.1,0-6.3-0.4c-0.3-0.7-1-1.1-1.8-1.1c-0.8,0-1.5,0.5-1.9,1.2
		c0,0-1.4,2.5-6.3,0.3c-6.1-2.6-9.9-11.4-10.3-18.4C38.9,55.4,40.9,51,45.2,48.8z"/>
	<path id="XMLID_60_" class="st0" d="M49.5,52.7c0.7-0.3,1.1-1.1,0.9-1.8c-0.3-0.7-1.1-1.1-1.8-0.9c-2.6,0.9-7.5,4.6-7.2,11.8
		c0,0.8,0.7,1.4,1.4,1.4c0,0,0,0,0,0c0.8,0,1.4-0.7,1.4-1.5C43.9,54.8,49.3,52.7,49.5,52.7z"/>
</g>
</svg>
