<?xml version="1.0" encoding="utf-8"?>
<!-- Generator: Adobe Illustrator 24.0.0, SVG Export Plug-In . SVG Version: 6.00 Build 0)  -->
<svg version="1.1" id="Camada_1" xmlns="http://www.w3.org/2000/svg" xmlns:xlink="http://www.w3.org/1999/xlink" x="0px" y="0px"
	 viewBox="0 0 114 114" style="enable-background:new 0 0 114 114;" xml:space="preserve">
<style type="text/css">
	.st0{fill:#147834;}
	.st1{fill-rule:evenodd;clip-rule:evenodd;fill:#147834;}
</style>
<path class="st0" d="M181.8,966.6c-6.1-11.6-19-18.5-34.5-18.5c-2.5,0-5,0.2-7.6,0.5c0,0-0.1,0-0.1,0c-6.9,1-13.8,3.2-20.4,6.7
	c-11.6,6.1-20.4,15.2-24.6,25.6c-4.3,10.4-3.8,21.4,1.2,31c6.4,12.2,19.2,19.5,34.1,19.5c8.5,0,17.4-2.4,25.8-6.8
	c11.7-6.2,20.9-15.5,25.9-26.1C186.7,987.5,186.8,976.1,181.8,966.6z M170.1,999.6l-2.2-3c-1.6-2.1-4.5-2.5-6.6-0.9
	c-2.1,1.6-2.5,4.5-0.9,6.6l3.6,4.8c-3.6,3.5-7.9,6.7-12.7,9.3c-6.3,3.3-12.8,5.2-19,5.6l-8.9-13.2c-1.5-2.2-4.4-2.7-6.6-1.3
	c-2.2,1.5-2.7,4.4-1.3,6.6l4.4,6.5c-6.9-2.1-12.5-6.6-15.8-13c-3.7-7-4-15.2-0.8-23c3.4-8.3,10.6-15.7,20.3-20.8
	c0.4-0.2,0.8-0.4,1.3-0.6l8.1,11.1c0.9,1.3,2.4,1.9,3.8,1.9c1,0,1.9-0.3,2.8-0.9c2.1-1.5,2.6-4.5,1-6.6l-6.6-9.1
	c1.5-0.4,3-0.8,4.5-1.1l10.4,13c0.9,1.2,2.3,1.8,3.7,1.8c1,0,2.1-0.3,3-1c2-1.6,2.4-4.6,0.7-6.6l-6.3-7.9
	c10.8,0.7,19.4,5.6,23.5,13.3C177.9,979.6,176.3,990.2,170.1,999.6z"/>
<g>
	<path class="st1" d="M76.7,24L76.7,24L76.7,24L76.7,24z M54.6,81.7c-0.4-0.1-0.8-0.1-1.3,0c-0.8,0.3-1.6,0.4-2.3,0.5
		c-1,0.1-1.9,1-1.8,2c0,0.8,0.5,1.4,1.2,1.7c0.3,0.1,0.5,0.2,0.7,0.1c1.3,0,2.4-0.3,3.4-0.6c1.1-0.3,1.5-1.6,1.2-2.6
		C55.5,82.3,55.1,81.9,54.6,81.7z M36,65.5c-0.8-0.3-1.7,0.1-2.2,0.8c-2,2.8-2.1,6.7-0.5,11.6c0,0,0,0,0,0.1c1.7,3.7,4.4,6.4,8.3,8
		c0,0,0,0,0.1,0c0.9,0.3,1.9-0.2,2.3-1c0.3-1,0-2.1-1-2.4c-2.9-1.3-5.1-3.3-6.2-6l0,0c-1.3-3.7-1.2-6.3,0.1-8.1
		c0.6-0.9,0.4-2.1-0.5-2.7C36.4,65.7,36.2,65.5,36,65.5z M74.1,32.1L73.8,32c0.2-0.6,0.6-1.3,1-2l0,0l0,0l0,0c0.3-0.5,1-2,2.2-4.7
		l0,0c0-0.1,0-0.1,0.1-0.3l0,0c0.1,0.5,0.1,0.9,0.2,1.3l0,0c0.1,1.3-0.4,2.8-1.3,4.7c-0.4,0.7-0.3,1.4,0.2,2
		C75.4,32.6,74.7,32.3,74.1,32.1z M69.6,31.6l-0.3-0.1c0,0,0,0,0,0.1c-4.8,0.6-10.2,5.3-16.1,14c-0.6,0.9-0.3,2.1,0.5,2.7
		c0.1,0,0.3,0.3,0.5,0.3c0.8,0.3,1.7-0.1,2.2-0.8c5.2-7.8,9.7-12,13.5-12.5l0,0c1-0.1,1.8-0.1,2.7,0.2c2.3,0.8,4,3.2,4.9,7l0,0
		c0.3,2.1,0.3,4.2-0.2,6.2c0,0.1,0,0.3,0,0.4l0,0c-0.1,0.7-1,3.3-2.6,8c0,0,0,0.1,0,0.3c-1.3,7.1-2.4,12.1-3.5,14.7l0,0.1
		c-2.3,5.8-5.8,10.4-10.4,13.6l0,0c-5.7,3.9-11.9,5.3-19.1,4.3l0,0c-0.9-0.2-1.8-0.3-2.6-0.6c-4.9-1.7-7.9-4.7-9.4-9.1l0,0
		c-1.6-6.7-0.3-13.1,3.8-19.2l0,0c3.9-5.1,9.5-8.2,17.1-9.4c1.1-0.2,1.6-1.1,1.6-2.1c-0.2-0.8-0.7-1.3-1.3-1.6c-0.3-0.1-0.7-0.1-1,0
		c-8.4,1.3-15,5-19.6,11l0,0c-4.7,7.1-6.1,14.5-4.3,22.4l0,0.1c1.8,5.7,5.8,9.4,11.8,11.5c1,0.3,2,0.7,3.2,0.9l0.1,0
		c8.1,1.2,15.4-0.5,21.9-5l0,0c5.3-3.7,9.2-8.8,11.8-15.3l0,0c1.1-2.8,2.3-8,3.6-15.5l0,0c1.6-4.8,2.5-7.7,2.6-8.5l0,0
		c0-0.1,0-0.1,0.1-0.3l0,0c0.4-2.5,0.5-5,0.1-7.6c0,0,0,0,0-0.1c-1-3.7-2.4-6.4-4.4-8.1l0.1,0c0.9,0.3,1.8-0.1,2.3-0.9
		c1.4-2.6,2-4.8,1.8-7l0,0c-0.2-2.2-0.7-3.6-1.6-4.5l0,0c-0.4-0.5-0.8-0.8-1.3-1c-0.4-0.1-0.8-0.1-1.3-0.2l0,0c0,0,0,0,0,0.1
		c-0.5,0-1.2,0.3-1.6,0.7l0,0c-0.4,0.4-0.7,0.9-1.1,1.5l0,0c-0.2,0.2-0.3,0.6-0.6,1l0,0c-1.2,2.7-1.8,4.1-2,4.5l0,0c0,0,0,0,0,0.1
		C70.7,29.5,70.2,30.7,69.6,31.6z"/>
</g>
</svg>
