<?xml version="1.0" encoding="utf-8"?>
<!-- Generator: Adobe Illustrator 24.0.0, SVG Export Plug-In . SVG Version: 6.00 Build 0)  -->
<svg version="1.1" id="Camada_1" xmlns="http://www.w3.org/2000/svg" xmlns:xlink="http://www.w3.org/1999/xlink" x="0px" y="0px"
	 viewBox="0 0 114 114" style="enable-background:new 0 0 114 114;" xml:space="preserve">
<style type="text/css">
	.st0{fill:#147834;}
</style>
<path class="st0" d="M181.8,966.6c-6.1-11.6-19-18.5-34.5-18.5c-2.5,0-5,0.2-7.6,0.5c0,0-0.1,0-0.1,0c-6.9,1-13.8,3.2-20.4,6.7
	c-11.6,6.1-20.4,15.2-24.6,25.6c-4.3,10.4-3.8,21.4,1.2,31c6.4,12.2,19.2,19.5,34.1,19.5c8.5,0,17.4-2.4,25.8-6.8
	c11.7-6.2,20.9-15.5,25.9-26.1C186.7,987.5,186.8,976.1,181.8,966.6z M170.1,999.6l-2.2-3c-1.6-2.1-4.5-2.5-6.6-0.9
	c-2.1,1.6-2.5,4.5-0.9,6.6l3.6,4.8c-3.6,3.5-7.9,6.7-12.7,9.3c-6.3,3.3-12.8,5.2-19,5.6l-8.9-13.2c-1.5-2.2-4.4-2.7-6.6-1.3
	c-2.2,1.5-2.7,4.4-1.3,6.6l4.4,6.5c-6.9-2.1-12.5-6.6-15.8-13c-3.7-7-4-15.2-0.8-23c3.4-8.3,10.6-15.7,20.3-20.8
	c0.4-0.2,0.8-0.4,1.3-0.6l8.1,11.1c0.9,1.3,2.4,1.9,3.8,1.9c1,0,1.9-0.3,2.8-0.9c2.1-1.5,2.6-4.5,1-6.6l-6.6-9.1
	c1.5-0.4,3-0.8,4.5-1.1l10.4,13c0.9,1.2,2.3,1.8,3.7,1.8c1,0,2.1-0.3,3-1c2-1.6,2.4-4.6,0.7-6.6l-6.3-7.9
	c10.8,0.7,19.4,5.6,23.5,13.3C177.9,979.6,176.3,990.2,170.1,999.6z"/>
<path id="XMLID_143_" class="st0" d="M23.6,51.7c0,2.5,1.1,13,4.3,23.1C33.7,92.3,42.2,96,48.3,96c1.8,0,3.6-0.4,5.2-1.1
	c1.3,0.7,2.6,1.1,4.1,1.1c1.4,0,2.8-0.4,4.1-1.1c1.7,0.7,3.4,1.1,5.2,1.1c6.1,0,14.6-3.7,20.4-21.2c3.3-10,4.3-20.6,4.3-23.1
	c0-6.6-5.2-19.1-24.7-19.1c-1.4,0-2.7,0-3.9,0.1l-1.7-16.9c-0.1-0.9-0.6-1.7-1.3-2.1c-0.7-0.5-1.7-0.6-2.5-0.3l-8.7,3.2
	c-1.4,0.5-2.2,2-1.7,3.5l3.8,12.5c-0.8,0-1.7,0-2.6,0C28.7,32.6,23.6,45.1,23.6,51.7z M48.3,90.3c-14.9,0-19-34.7-19-38.6
	c0-0.5,0.2-10.2,12.3-12.8c-1.9,2.7-2.1,5.6-2.1,7c0,2.3,0.7,14.2,3,25.6c1.7,8.5,3.8,14.7,6.5,18.7C48.7,90.3,48.5,90.3,48.3,90.3z
	 M73.6,38.9C85.8,41.5,86,51.2,86,51.7c0,3.9-4.1,38.6-19,38.6c-0.2,0-0.4,0-0.6,0c2.6-4,4.8-10.3,6.5-18.7c2.3-11.4,3-23.3,3-25.6
	C75.8,44.5,75.5,41.6,73.6,38.9z M56,20l1.2,12.2l-0.6,0.1L53.3,21L56,20z M57.6,38.2c5.7,0,12.5,1.3,12.5,7.7
	c0,2.1-0.7,13.7-2.9,24.5c-2.9,14.6-6.9,19.9-9.6,19.9c-2.7,0-6.7-5.2-9.6-19.9c-2.2-10.9-2.9-22.4-2.9-24.5
	C45.1,39.6,51.9,38.2,57.6,38.2z"/>
</svg>
