<?xml version="1.0" encoding="utf-8"?>
<!-- Generator: Adobe Illustrator 24.0.0, SVG Export Plug-In . SVG Version: 6.00 Build 0)  -->
<svg version="1.1" id="Camada_1" xmlns="http://www.w3.org/2000/svg" xmlns:xlink="http://www.w3.org/1999/xlink" x="0px" y="0px"
	 viewBox="0 0 114 114" style="enable-background:new 0 0 114 114;" xml:space="preserve">
<style type="text/css">
	.st0{fill:#147834;}
</style>
<path class="st0" d="M181.8,966.6c-6.1-11.6-19-18.5-34.5-18.5c-2.5,0-5,0.2-7.6,0.5c0,0-0.1,0-0.1,0c-6.9,1-13.8,3.2-20.4,6.7
	c-11.6,6.1-20.4,15.2-24.6,25.6c-4.3,10.4-3.8,21.4,1.2,31c6.4,12.2,19.2,19.5,34.1,19.5c8.5,0,17.4-2.4,25.8-6.8
	c11.7-6.2,20.9-15.5,25.9-26.1C186.7,987.5,186.8,976.1,181.8,966.6z M170.1,999.6l-2.2-3c-1.6-2.1-4.5-2.5-6.6-0.9
	c-2.1,1.6-2.5,4.5-0.9,6.6l3.6,4.8c-3.6,3.5-7.9,6.7-12.7,9.3c-6.3,3.3-12.8,5.2-19,5.6l-8.9-13.2c-1.5-2.2-4.4-2.7-6.6-1.3
	c-2.2,1.5-2.7,4.4-1.3,6.6l4.4,6.5c-6.9-2.1-12.5-6.6-15.8-13c-3.7-7-4-15.2-0.8-23c3.4-8.3,10.6-15.7,20.3-20.8
	c0.4-0.2,0.8-0.4,1.3-0.6l8.1,11.1c0.9,1.3,2.4,1.9,3.8,1.9c1,0,1.9-0.3,2.8-0.9c2.1-1.5,2.6-4.5,1-6.6l-6.6-9.1
	c1.5-0.4,3-0.8,4.5-1.1l10.4,13c0.9,1.2,2.3,1.8,3.7,1.8c1,0,2.1-0.3,3-1c2-1.6,2.4-4.6,0.7-6.6l-6.3-7.9
	c10.8,0.7,19.4,5.6,23.5,13.3C177.9,979.6,176.3,990.2,170.1,999.6z"/>
<g>
	<path class="st0" d="M56.6,27.7c-16.7,0-30.2,13.5-30.2,30.2S39.9,88,56.6,88s30.2-13.5,30.2-30.2S73.3,27.7,56.6,27.7z M56.6,83.7
		c-14.3,0-25.9-11.6-25.9-25.9S42.3,32,56.6,32s25.9,11.6,25.9,25.9S70.9,83.7,56.6,83.7z"/>
	<path class="st0" d="M56.6,49.3c-4.8,0-8.6,3.9-8.6,8.6s3.9,8.6,8.6,8.6s8.6-3.9,8.6-8.6S61.4,49.3,56.6,49.3z M56.6,62.2
		c-2.4,0-4.3-1.9-4.3-4.3c0-2.4,1.9-4.3,4.3-4.3s4.3,1.9,4.3,4.3C60.9,60.3,59,62.2,56.6,62.2z"/>
	<path class="st0" d="M46.3,61.1c-0.3-1.1-0.5-2.2-0.5-3.3l0,0c0-1.2-1-2.2-2.2-2.2c-1.2,0-2.2,1-2.2,2.2c0,1.6,0.2,3.1,0.7,4.6
		c0.3,0.9,1.1,1.5,2,1.5c0.2,0,0.4,0,0.6-0.1C46,63.5,46.7,62.3,46.3,61.1z"/>
	<path class="st0" d="M61.5,48.3c1,0.5,1.9,1.2,2.7,2c0.4,0.4,1,0.6,1.5,0.6c0.6,0,1.1-0.2,1.5-0.6c0.8-0.8,0.8-2.2,0-3
		c-1.1-1.1-2.4-2.1-3.8-2.8c-1.1-0.5-2.4-0.1-2.9,1C60.1,46.5,60.5,47.7,61.5,48.3L61.5,48.3z"/>
	<path class="st0" d="M52.7,47.7c0.2,0,0.4,0,0.6,0c1.1-0.4,2.2-0.6,3.3-0.6l0,0c1.2,0,2.2-1,2.2-2.2c0-1.2-1-2.2-2.2-2.2
		c-1.6,0-3.1,0.2-4.6,0.7c-1.2,0.2-2,1.3-1.8,2.5S51.5,48,52.7,47.7L52.7,47.7z"/>
	<path class="st0" d="M44.1,53.9c0.3,0.2,0.6,0.2,1,0.2c0.8,0,1.5-0.5,1.9-1.2c0.5-1,1.2-1.9,2-2.7c0.9-0.8,0.9-2.2,0-3.1
		c-0.8-0.9-2.2-0.9-3.1,0l0,0c-1.1,1.1-2.1,2.4-2.8,3.8C42.6,51.9,43,53.2,44.1,53.9C44.1,53.8,44.1,53.8,44.1,53.9z"/>
	<path class="st0" d="M69.1,62c-1.1-0.6-2.4-0.1-2.9,0.9c-0.5,1-1.2,1.9-2,2.7c-0.8,0.8-0.9,2.2,0,3c0,0,0,0,0,0
		c0.4,0.4,1,0.6,1.5,0.6c0.6,0,1.1-0.2,1.5-0.6c1.1-1.1,2.1-2.4,2.8-3.8C70.5,63.8,70.1,62.5,69.1,62C69.1,62,69.1,62,69.1,62z"/>
	<path class="st0" d="M68.2,51.8c-1.1,0.4-1.7,1.6-1.4,2.7c0.3,1.1,0.5,2.2,0.5,3.3v0.2c0,1.2,1,2.2,2.2,2.2s2.2-1,2.2-2.2
		c0-1.6-0.2-3.2-0.7-4.7c-0.2-1.2-1.4-1.9-2.6-1.7C68.3,51.8,68.3,51.8,68.2,51.8z"/>
	<path class="st0" d="M59.8,68.2c-1,0.3-2.1,0.5-3.1,0.5h-0.1c-1.2,0-2.2,1-2.2,2.2s1,2.2,2.2,2.2c1.5,0,3.1-0.2,4.5-0.7
		c1.1-0.4,1.8-1.6,1.4-2.7C62.2,68.4,61,67.8,59.8,68.2z"/>
	<path class="st0" d="M51.6,67.4c-1-0.5-1.9-1.2-2.7-2c-0.8-0.9-2.2-0.9-3.1,0c-0.9,0.8-0.9,2.2,0,3.1c1.1,1.1,2.4,2.1,3.8,2.8
		c0.3,0.2,0.6,0.3,1,0.3c0.8,0,1.5-0.4,1.9-1.2C53.1,69.3,52.7,68,51.6,67.4z"/>
</g>
</svg>
