<?xml version="1.0" encoding="utf-8"?>
<!-- Generator: Adobe Illustrator 24.0.0, SVG Export Plug-In . SVG Version: 6.00 Build 0)  -->
<svg version="1.1" id="Camada_1" xmlns="http://www.w3.org/2000/svg" xmlns:xlink="http://www.w3.org/1999/xlink" x="0px" y="0px"
	 viewBox="0 0 114 114" style="enable-background:new 0 0 114 114;" xml:space="preserve">
<style type="text/css">
	.st0{fill:#147834;}
</style>
<path class="st0" d="M181.8,966.6c-6.1-11.6-19-18.5-34.5-18.5c-2.5,0-5,0.2-7.6,0.5c0,0-0.1,0-0.1,0c-6.9,1-13.8,3.2-20.4,6.7
	c-11.6,6.1-20.4,15.2-24.6,25.6c-4.3,10.4-3.8,21.4,1.2,31c6.4,12.2,19.2,19.5,34.1,19.5c8.5,0,17.4-2.4,25.8-6.8
	c11.7-6.2,20.9-15.5,25.9-26.1C186.7,987.5,186.8,976.1,181.8,966.6z M170.1,999.6l-2.2-3c-1.6-2.1-4.5-2.5-6.6-0.9
	c-2.1,1.6-2.5,4.5-0.9,6.6l3.6,4.8c-3.6,3.5-7.9,6.7-12.7,9.3c-6.3,3.3-12.8,5.2-19,5.6l-8.9-13.2c-1.5-2.2-4.4-2.7-6.6-1.3
	c-2.2,1.5-2.7,4.4-1.3,6.6l4.4,6.5c-6.9-2.1-12.5-6.6-15.8-13c-3.7-7-4-15.2-0.8-23c3.4-8.3,10.6-15.7,20.3-20.8
	c0.4-0.2,0.8-0.4,1.3-0.6l8.1,11.1c0.9,1.3,2.4,1.9,3.8,1.9c1,0,1.9-0.3,2.8-0.9c2.1-1.5,2.6-4.5,1-6.6l-6.6-9.1
	c1.5-0.4,3-0.8,4.5-1.1l10.4,13c0.9,1.2,2.3,1.8,3.7,1.8c1,0,2.1-0.3,3-1c2-1.6,2.4-4.6,0.7-6.6l-6.3-7.9
	c10.8,0.7,19.4,5.6,23.5,13.3C177.9,979.6,176.3,990.2,170.1,999.6z"/>
<g>
	<g>
		<g>
			<path class="st0" d="M25,97.3c-1.9,0-3.5-0.7-4.9-2c-3.4-3.4-1.6-7.8-0.6-10.4l0.3-0.8c0.7-1.8,1.3-3.4,1.1-5.2
				c-0.8-14.7,5.2-28.4,17.7-41c11.8-11.8,24.6-17.7,38-17.7h3.4c1.9,0,3.6-0.7,5.5-1.4c2.2-1,3.9-1.4,5.5-1.4c1.9,0,3.5,0.7,4.9,2
				c3.4,3.4,1.6,7.8,0.6,10.4l-0.3,0.8c-0.7,1.8-1.3,3.4-1.1,5.2c0.8,14.7-5.2,28.4-17.7,41c-11.8,11.8-24.6,17.7-38,17.7h-2.8
				c-2.1,0-4,0.7-6.1,1.5C29.1,96.6,27.1,97.3,25,97.3z M32.1,57.8c-3.4,6.6-4.9,13.5-4.4,20.4c0.2,3.7-0.8,6.7-1.8,9
				c-0.2,0.6-1,2.7-0.8,3.1l0.1,0.1c0.6,0,1.9-0.4,3.1-0.7l0.7-0.2c2-0.7,4.5-1.5,7.3-1.5c0.3,0,0.5,0,0.8,0l2.4,0
				c11.7,0,22.9-5.3,33.4-15.8C84.3,60.7,89.4,49,88.7,36.3c-0.2-3.7,0.8-6.7,1.8-9c0.4-0.9,1-2.6,0.9-3l-0.2-0.1l0-0.1
				c-0.3,0-0.9,0.1-1.5,0.2c-0.6,0.1-1.2,0.2-1.9,0.3l-0.2,0.1c-2,0.7-4.6,1.7-7.7,1.7h-3.2c-11.7,0-22.9,5.3-33.4,15.8
				c-0.9,0.8-1.6,1.6-2.4,2.5l4.5,4.5c0.6,0.6,1,1.5,1,2.4c0,0.9-0.4,1.8-1,2.4c-0.7,0.7-1.5,1.1-2.4,1.1c-0.9,0-1.9-0.5-2.4-1.1
				l-3.9-3.9c-0.4,0.5-0.7,1-1.1,1.6l9.5,9.5c1.3,1.3,1.3,3.5,0,4.8c-0.7,0.7-1.5,1.1-2.4,1.1c-0.9,0-1.9-0.5-2.4-1.1L32.1,57.8z"/>
		</g>
		<g>
			<path class="st0" d="M52.9,78c-1,0-2-0.5-2.8-1.2c-1.5-1.5-1.5-4,0-5.6c0.7-0.7,1.7-1.1,2.8-1.1c1.1,0,2.1,0.4,2.8,1.1
				c1.5,1.5,1.5,4,0,5.6C54.9,77.6,53.9,78,52.9,78z"/>
		</g>
		<g>
			<path class="st0" d="M51.4,64.2c-1,0-2-0.5-2.8-1.2c-0.7-0.7-1.1-1.7-1.1-2.8c0-1.1,0.4-2.1,1.1-2.8c0.7-0.7,1.7-1.1,2.8-1.1
				c1.1,0,2.1,0.4,2.8,1.1c0.8,0.8,1.2,1.8,1.2,2.8c0,1-0.5,2-1.2,2.8C53.4,63.7,52.4,64.2,51.4,64.2z"/>
		</g>
		<g>
			<path class="st0" d="M38.1,77.4c-1,0-2-0.5-2.8-1.2c-0.8-0.8-1.2-1.8-1.2-2.8c0-1,0.5-2,1.2-2.8c0.7-0.7,1.8-1.1,2.9-1.1
				c1.1,0,2.1,0.4,2.8,1.2c0.7,0.7,1.2,1.7,1.2,2.7c0,1-0.5,2-1.2,2.8C40.1,77,39.1,77.4,38.1,77.4z"/>
		</g>
		<g>
			<path class="st0" d="M63.5,44.7c-1,0-2-0.5-2.8-1.2c-0.7-0.7-1.1-1.7-1.1-2.8s0.4-2.1,1.1-2.8s1.7-1.1,2.8-1.1
				c1.1,0,2.1,0.4,2.8,1.1s1.1,1.7,1.1,2.8s-0.4,2.1-1.1,2.8C65.5,44.2,64.5,44.7,63.5,44.7z"/>
		</g>
		<g>
			<path class="st0" d="M78.1,45.2c-1,0-2-0.5-2.8-1.2c-0.7-0.7-1.1-1.7-1.1-2.8c0-1.1,0.4-2.1,1.1-2.8c0.7-0.7,1.8-1.1,2.9-1.1
				c1.1,0,2.1,0.4,2.8,1.2c0.7,0.7,1.2,1.7,1.2,2.7s-0.5,2-1.2,2.8C80.1,44.8,79.1,45.2,78.1,45.2z"/>
		</g>
	</g>
</g>
</svg>
