<?xml version="1.0" encoding="utf-8"?>
<!-- Generator: Adobe Illustrator 24.0.0, SVG Export Plug-In . SVG Version: 6.00 Build 0)  -->
<svg version="1.1" id="Camada_1" xmlns="http://www.w3.org/2000/svg" xmlns:xlink="http://www.w3.org/1999/xlink" x="0px" y="0px"
	 viewBox="0 0 114 114" style="enable-background:new 0 0 114 114;" xml:space="preserve">
<style type="text/css">
	.st0{fill:#147834;}
</style>
<path class="st0" d="M181.8,966.6c-6.1-11.6-19-18.5-34.5-18.5c-2.5,0-5,0.2-7.6,0.5c0,0-0.1,0-0.1,0c-6.9,1-13.8,3.2-20.4,6.7
	c-11.6,6.1-20.4,15.2-24.6,25.6c-4.3,10.4-3.8,21.4,1.2,31c6.4,12.2,19.2,19.5,34.1,19.5c8.5,0,17.4-2.4,25.8-6.8
	c11.7-6.2,20.9-15.5,25.9-26.1C186.7,987.5,186.8,976.1,181.8,966.6z M170.1,999.6l-2.2-3c-1.6-2.1-4.5-2.5-6.6-0.9
	c-2.1,1.6-2.5,4.5-0.9,6.6l3.6,4.8c-3.6,3.5-7.9,6.7-12.7,9.3c-6.3,3.3-12.8,5.2-19,5.6l-8.9-13.2c-1.5-2.2-4.4-2.7-6.6-1.3
	c-2.2,1.5-2.7,4.4-1.3,6.6l4.4,6.5c-6.9-2.1-12.5-6.6-15.8-13c-3.7-7-4-15.2-0.8-23c3.4-8.3,10.6-15.7,20.3-20.8
	c0.4-0.2,0.8-0.4,1.3-0.6l8.1,11.1c0.9,1.3,2.4,1.9,3.8,1.9c1,0,1.9-0.3,2.8-0.9c2.1-1.5,2.6-4.5,1-6.6l-6.6-9.1
	c1.5-0.4,3-0.8,4.5-1.1l10.4,13c0.9,1.2,2.3,1.8,3.7,1.8c1,0,2.1-0.3,3-1c2-1.6,2.4-4.6,0.7-6.6l-6.3-7.9
	c10.8,0.7,19.4,5.6,23.5,13.3C177.9,979.6,176.3,990.2,170.1,999.6z"/>
<g>
	<path id="XMLID_20_" class="st0" d="M49,80.5c0.1,1,1,1.8,2.1,1.7c0.6-0.1,1.1-0.4,1.4-0.8c0.2-0.4,0.4-0.8,0.3-1.3
		c0-0.3-0.7-6.2-4.3-9.8c2.8-5,2.3-9.4,1.3-12.4c-1.7-5.1-6.2-9.3-11.5-11.1c-5.3-1.7-10.8-1.2-15.6-0.8c-3.8,0.3-7.3,0.6-9.6-0.3
		c-0.8-0.3-1.8-0.1-2.3,0.7c-0.5,0.7-0.4,1.7,0.2,2.4c1.7,1.8,2.6,5.2,3.7,8.9c1.3,4.7,2.8,10,6.3,14.3c3.5,4.4,9.1,7,14.4,6.8
		c3.1-0.1,7.3-1.2,10.9-5.4C48.5,76.2,49,80.5,49,80.5z M35.2,75.1c-4.1,0.1-8.6-2-11.4-5.4c-3-3.7-4.4-8.6-5.6-13
		c-0.7-2.3-1.3-4.5-2.1-6.5c2.1,0.1,4.4-0.1,6.8-0.3c4.5-0.4,9.6-0.8,14.1,0.6c4.2,1.3,7.8,4.8,9.1,8.7c1.1,3.2,0.7,6.6-1.3,9.7
		l-1-0.7l0.7-6.3c0.1-0.5-0.3-1-0.8-1c-0.5-0.1-1,0.3-1,0.8L42.2,67l-4.7-3.2l1-10.1c0-0.5-0.3-1-0.8-1c-0.5,0-1,0.3-1,0.8l-0.9,9.1
		l-5.6-3.8l0.5-6.4c0-0.5-0.3-1-0.9-1c-0.5,0-1,0.3-1,0.9l-0.4,5.3l-5.6-3.8c-0.4-0.3-1-0.2-1.3,0.2c-0.3,0.4-0.2,1,0.2,1.3l5.6,3.8
		l-4.8,2.3c-0.5,0.2-0.7,0.8-0.5,1.3c0.2,0.5,0.8,0.7,1.3,0.5l5.8-2.7l5.6,3.8l-8.2,4c-0.5,0.2-0.7,0.8-0.4,1.3
		c0.2,0.5,0.8,0.7,1.3,0.4l9.1-4.5l4.7,3.2L36.4,71c-0.5,0.2-0.6,0.8-0.4,1.3c0.2,0.5,0.8,0.6,1.3,0.4l5.6-2.9l1,0.7
		C41.6,73.4,38.6,75,35.2,75.1z"/>
	<path id="XMLID_23_" class="st0" d="M57.7,73c4.7,5.5,10.2,6.9,14.2,7c7,0.2,14.3-3.2,18.9-9c4.5-5.7,6.5-12.6,8.2-18.7
		c1.3-4.8,2.6-9.3,4.8-11.6c0.8-0.8,0.9-2.1,0.2-3.1c-0.7-1-1.9-1.3-3-0.9c-3,1.2-7.6,0.8-12.5,0.4c-6.3-0.6-13.5-1.2-20.4,1
		c-7,2.3-12.8,7.8-15.1,14.5c-1.3,3.9-2,9.7,1.7,16.2c-4.8,4.7-5.6,12.4-5.7,12.8c-0.1,0.6,0.1,1.2,0.4,1.7c0.4,0.6,1,1,1.8,1.1
		c1.4,0.1,2.6-0.8,2.7-2.2C54,82.2,54.7,76.5,57.7,73z M60.8,69.1l1.3-0.9l7.3,3.7c0.6,0.3,1.4,0.1,1.7-0.5c0.3-0.6,0.1-1.3-0.5-1.7
		l-6.2-3.1l6.2-4.2l11.9,5.9c0.6,0.3,1.4,0.1,1.7-0.6c0.3-0.6,0.1-1.4-0.6-1.7l-10.7-5.3l7.3-5l7.6,3.6c0.6,0.3,1.4,0,1.6-0.6
		c0.3-0.6,0-1.4-0.6-1.6l-6.3-3l7.3-5c0.6-0.4,0.7-1.2,0.3-1.7c-0.4-0.6-1.2-0.7-1.7-0.3l-7.3,5l-0.5-7c-0.1-0.7-0.6-1.2-1.3-1.1
		c-0.7,0.1-1.2,0.6-1.1,1.3l0.6,8.4l-7.3,5l-1.1-11.9c-0.1-0.7-0.7-1.2-1.3-1.1c-0.7,0.1-1.2,0.7-1.1,1.3l1.3,13.2l-6.2,4.2
		l-0.7-6.9c-0.1-0.7-0.7-1.2-1.4-1.1c-0.7,0.1-1.2,0.7-1.1,1.4l0.9,8.2L59.4,67c-2.5-4.1-3.1-8.5-1.7-12.7
		c1.8-5.1,6.4-9.6,11.9-11.4c6-1.9,12.6-1.3,18.5-0.8c3.1,0.3,6.2,0.5,8.9,0.4C96,45.1,95.1,48,94.3,51c-1.6,5.7-3.4,12.1-7.3,17
		c-3.6,4.5-9.4,7.3-14.9,7.1C67.6,75,63.8,72.9,60.8,69.1z"/>
</g>
</svg>
