<?xml version="1.0" encoding="utf-8"?>
<!-- Generator: Adobe Illustrator 25.1.0, SVG Export Plug-In . SVG Version: 6.00 Build 0)  -->
<svg version="1.1" id="Camada_1" xmlns="http://www.w3.org/2000/svg" xmlns:xlink="http://www.w3.org/1999/xlink" x="0px" y="0px"
	 viewBox="0 0 114 114" style="enable-background:new 0 0 114 114;" xml:space="preserve">
<style type="text/css">
	.st0{fill:#147834;}
</style>
<path class="st0" d="M181.8,966.6c-6.1-11.6-19-18.5-34.5-18.5c-2.5,0-5,0.2-7.6,0.5h-0.1c-6.9,1-13.8,3.2-20.4,6.7
	c-11.6,6.1-20.4,15.2-24.6,25.6c-4.3,10.4-3.8,21.4,1.2,31c6.4,12.2,19.2,19.5,34.1,19.5c8.5,0,17.4-2.4,25.8-6.8
	c11.7-6.2,20.9-15.5,25.9-26.1C186.7,987.5,186.8,976.1,181.8,966.6z M170.1,999.6l-2.2-3c-1.6-2.1-4.5-2.5-6.6-0.9
	s-2.5,4.5-0.9,6.6l3.6,4.8c-3.6,3.5-7.9,6.7-12.7,9.3c-6.3,3.3-12.8,5.2-19,5.6l-8.9-13.2c-1.5-2.2-4.4-2.7-6.6-1.3
	c-2.2,1.5-2.7,4.4-1.3,6.6l4.4,6.5c-6.9-2.1-12.5-6.6-15.8-13c-3.7-7-4-15.2-0.8-23c3.4-8.3,10.6-15.7,20.3-20.8
	c0.4-0.2,0.8-0.4,1.3-0.6l8.1,11.1c0.9,1.3,2.4,1.9,3.8,1.9c1,0,1.9-0.3,2.8-0.9c2.1-1.5,2.6-4.5,1-6.6l-6.6-9.1
	c1.5-0.4,3-0.8,4.5-1.1l10.4,13c0.9,1.2,2.3,1.8,3.7,1.8c1,0,2.1-0.3,3-1c2-1.6,2.4-4.6,0.7-6.6l-6.3-7.9
	c10.8,0.7,19.4,5.6,23.5,13.3C177.9,979.6,176.3,990.2,170.1,999.6z"/>
<g>
	<path class="st0" d="M57.6,43C44,43,33,54,33,67.5c0,13.5,11,24.6,24.6,24.6c13.5,0,24.6-11,24.6-24.6C82.1,54,71.1,43,57.6,43z
		 M57.6,87.4c-11,0-19.9-8.9-19.9-19.9c0-11,8.9-19.9,19.9-19.9s19.9,8.9,19.9,19.9C77.5,78.5,68.5,87.4,57.6,87.4z"/>
	<path class="st0" d="M45.9,65.6c1.2,0,2.2-0.9,2.3-2.1l0.1-1.5c0.1-1.3-0.9-2.4-2.1-2.5c-1.3-0.1-2.4,0.9-2.5,2.1l-0.1,1.5
		c-0.1,1.3,0.9,2.4,2.1,2.5C45.8,65.6,45.9,65.6,45.9,65.6z"/>
	<path class="st0" d="M69,57.5c-0.8-1-2.3-1.2-3.3-0.4c-1,0.8-1.2,2.3-0.4,3.3l1,1.2c0.5,0.6,1.1,0.9,1.8,0.9c0.5,0,1-0.2,1.4-0.5
		c1-0.8,1.2-2.3,0.4-3.3L69,57.5z"/>
	<path class="st0" d="M57.5,78.1L56,77.9c-1.3-0.1-2.4,0.8-2.5,2.1c-0.1,1.3,0.8,2.4,2.1,2.5l1.5,0.1c0.1,0,0.1,0,0.2,0
		c1.2,0,2.2-0.9,2.3-2.1C59.8,79.3,58.8,78.2,57.5,78.1z"/>
	<path class="st0" d="M57.6,64.2c-1.3,0.1-2.2,1.2-2.1,2.5l0.1,1.5c0.1,1.2,1.1,2.1,2.3,2.1c0.1,0,0.1,0,0.2,0
		c1.3-0.1,2.2-1.2,2.1-2.5l-0.1-1.5C60,65,58.8,64.1,57.6,64.2z"/>
	<path class="st0" d="M67.9,69.2c-1.3-0.3-2.5,0.5-2.8,1.8l-0.3,1.5c-0.3,1.3,0.5,2.5,1.8,2.8c0.2,0,0.3,0.1,0.5,0.1
		c1.1,0,2-0.7,2.3-1.8l0.3-1.5C69.9,70.8,69.1,69.5,67.9,69.2z"/>
	<path class="st0" d="M48,70.1c-1.3-0.3-2.5,0.5-2.8,1.8l-0.3,1.5c-0.3,1.3,0.5,2.5,1.8,2.8c0.2,0,0.3,0.1,0.5,0.1
		c1.1,0,2-0.7,2.3-1.8l0.3-1.5C50.1,71.6,49.3,70.4,48,70.1z"/>
	<path class="st0" d="M54.2,58.3c0.4,0.3,0.9,0.4,1.3,0.4c0.7,0,1.5-0.4,1.9-1l0.9-1.3c0.7-1.1,0.5-2.5-0.6-3.2
		c-1.1-0.7-2.5-0.5-3.2,0.6L53.6,55C52.9,56.1,53.1,57.5,54.2,58.3z"/>
	<path class="st0" d="M83.3,45.6c3.4-2.7,5.7-6.1,6.2-7.6c0.5-1.4,0.6-2.5,0.2-3.4c-0.5-1-1.5-1.6-2.5-2.1c-1.6-0.7-4.1-1.1-6.6-1.2
		c2.4-4.7,3.3-9.6,3.1-11.9c-0.2-1.8-0.6-2.9-1.4-3.6C81.3,15.1,80,15,78.9,15l-0.3,0c-3.8,0.1-12.9,2.9-17.8,9.4
		c-0.3,0.4-0.6,0.9-0.9,1.3c-1-5-3.5-10.2-9.1-13.8c-1.1-0.7-2.5-0.4-3.2,0.6c-0.7,1.1-0.4,2.5,0.6,3.2c7.4,5,7.9,12.9,7.3,17.9
		c-17.8,1-31.9,15.8-31.9,33.9c0,18.7,15.2,33.9,33.9,33.9s33.9-15.2,33.9-33.9C91.4,59.2,88.3,51.5,83.3,45.6z M85,36.7
		c-0.5,1.1-2.4,3.6-5,5.5c-2-1.8-4.3-3.4-6.8-4.7c2.2-1.2,4.9-1.5,6.9-1.5C82.2,36.1,84,36.4,85,36.7z M64.5,27.3
		c3.9-5.2,11.7-7.5,14.2-7.6l0.2,0c0,0.1,0,0.2,0,0.3c0.1,1.5-0.9,7.4-4.3,12.1c-2.6,0.7-4.7,1.8-6.4,3.4c-1.9-0.6-3.9-1.1-6-1.4
		C62.2,31.6,62.9,29.4,64.5,27.3z M57.5,96.9c-16.1,0-29.3-13.1-29.3-29.3s13.1-29.3,29.3-29.3s29.3,13.1,29.3,29.3
		S73.6,96.9,57.5,96.9z"/>
</g>
</svg>
