<?xml version="1.0" encoding="utf-8"?>
<!-- Generator: Adobe Illustrator 24.0.0, SVG Export Plug-In . SVG Version: 6.00 Build 0)  -->
<svg version="1.1" id="Camada_1" xmlns="http://www.w3.org/2000/svg" xmlns:xlink="http://www.w3.org/1999/xlink" x="0px" y="0px"
	 viewBox="0 0 114 114" style="enable-background:new 0 0 114 114;" xml:space="preserve">
<style type="text/css">
	.st0{fill:#147834;}
</style>
<path class="st0" d="M181.8,966.6c-6.1-11.6-19-18.5-34.5-18.5c-2.5,0-5,0.2-7.6,0.5c0,0-0.1,0-0.1,0c-6.9,1-13.8,3.2-20.4,6.7
	c-11.6,6.1-20.4,15.2-24.6,25.6c-4.3,10.4-3.8,21.4,1.2,31c6.4,12.2,19.2,19.5,34.1,19.5c8.5,0,17.4-2.4,25.8-6.8
	c11.7-6.2,20.9-15.5,25.9-26.1C186.7,987.5,186.8,976.1,181.8,966.6z M170.1,999.6l-2.2-3c-1.6-2.1-4.5-2.5-6.6-0.9
	c-2.1,1.6-2.5,4.5-0.9,6.6l3.6,4.8c-3.6,3.5-7.9,6.7-12.7,9.3c-6.3,3.3-12.8,5.2-19,5.6l-8.9-13.2c-1.5-2.2-4.4-2.7-6.6-1.3
	c-2.2,1.5-2.7,4.4-1.3,6.6l4.4,6.5c-6.9-2.1-12.5-6.6-15.8-13c-3.7-7-4-15.2-0.8-23c3.4-8.3,10.6-15.7,20.3-20.8
	c0.4-0.2,0.8-0.4,1.3-0.6l8.1,11.1c0.9,1.3,2.4,1.9,3.8,1.9c1,0,1.9-0.3,2.8-0.9c2.1-1.5,2.6-4.5,1-6.6l-6.6-9.1
	c1.5-0.4,3-0.8,4.5-1.1l10.4,13c0.9,1.2,2.3,1.8,3.7,1.8c1,0,2.1-0.3,3-1c2-1.6,2.4-4.6,0.7-6.6l-6.3-7.9
	c10.8,0.7,19.4,5.6,23.5,13.3C177.9,979.6,176.3,990.2,170.1,999.6z"/>
<g id="XMLID_131_">
	<path id="XMLID_148_" class="st0" d="M37.4,58.8c0,10.4,8.4,30.5,19.9,30.5c11.5,0,19.9-20.1,19.9-30.5c0-6.3-3-11.1-8.2-13.8
		c2.8-1.6,5-4.2,6.1-7.4c0,0,0,0,0,0c0,0,0,0,0,0c0,0,0,0,0-0.1c0-0.1,0.1-0.2,0.1-0.4c0,0,0-0.1,0-0.1c0-0.1,0-0.2,0-0.3
		c0,0,0-0.1,0-0.1c0-0.1,0-0.2-0.1-0.3c0,0,0-0.1,0-0.1c0-0.1-0.1-0.2-0.1-0.3c0,0,0,0,0-0.1c-0.1-0.1-0.1-0.2-0.2-0.3c0,0,0,0,0,0
		c-0.1-0.1-0.2-0.2-0.2-0.3c0,0,0,0-0.1,0c-0.1-0.1-0.2-0.1-0.3-0.2c-3.4-2-7.4-2.4-11.1-1.2c0,0-0.1,0-0.1,0
		c-0.5-3.3-2.1-6.3-4.7-8.4c0,0,0,0,0,0c0,0,0,0,0,0c0,0,0,0-0.1,0c-0.1-0.1-0.2-0.1-0.3-0.2c0,0-0.1,0-0.1-0.1
		c-0.1,0-0.2-0.1-0.3-0.1c0,0-0.1,0-0.1,0c-0.1,0-0.2,0-0.3-0.1c0,0-0.1,0-0.1,0c-0.1,0-0.2,0-0.3,0c0,0,0,0-0.1,0
		c-0.1,0-0.2,0-0.3,0.1c0,0,0,0,0,0c-0.1,0-0.2,0.1-0.3,0.1c0,0,0,0-0.1,0c-0.1,0.1-0.2,0.1-0.3,0.2c-2.4,1.9-4.2,5.1-4.9,8.6
		c-0.1,0-0.2-0.1-0.3-0.1c-3.7-1.2-7.8-0.8-11.1,1.2c-0.1,0.1-0.2,0.1-0.3,0.2c0,0,0,0-0.1,0c-0.1,0.1-0.2,0.2-0.2,0.3c0,0,0,0,0,0
		c-0.1,0.1-0.1,0.2-0.2,0.3c0,0,0,0,0,0.1c0,0.1-0.1,0.2-0.1,0.3c0,0,0,0.1,0,0.1c0,0.1,0,0.2-0.1,0.3c0,0,0,0.1,0,0.1
		c0,0.1,0,0.2,0,0.3c0,0,0,0.1,0,0.1c0,0.1,0,0.2,0.1,0.4c0,0,0,0,0,0.1c0,0,0,0,0,0c0,0,0,0,0,0c1.2,3.4,3.6,6.2,6.8,7.7
		C40.2,48.1,37.4,52.7,37.4,58.8z M61.6,39.4c0.3-0.1,0.5-0.3,0.7-0.5c0.6-0.4,1.3-0.8,2.1-1c1.9-0.6,3.9-0.6,5.7,0
		c-1.1,1.8-2.8,3.2-4.9,3.9c-1.9,0.6-3.9,0.6-5.7,0C60.1,40.9,60.8,40.1,61.6,39.4z M54.7,36.1c0.1-2.1,0.9-4.4,2.1-6
		c1.3,1.7,2,3.7,1.9,5.9c0,0,0,0.1,0,0.1c-0.8,0.6-1.4,1.3-2,2.1C56,37.5,55.4,36.8,54.7,36.1C54.7,36.2,54.7,36.2,54.7,36.1z
		 M43.1,37.9c1.8-0.6,3.9-0.6,5.7,0c0.8,0.3,1.6,0.7,2.4,1.2c1,0.7,1.9,1.7,2.5,2.7c-1.8,0.6-3.8,0.6-5.7,0
		C45.9,41.1,44.2,39.7,43.1,37.9z M57.3,46.8c4.7,0,15.5,1.2,15.5,12c0,9.6-7.6,26.1-15.5,26.1c-7.8,0-15.5-16.5-15.5-26.1
		C41.8,48,52.7,46.8,57.3,46.8z"/>
	<path id="XMLID_147_" class="st0" d="M58.8,74.9c0-0.8-0.7-2.5-1.5-2.5c-0.8,0-1.5,1.7-1.5,2.5c0,0.8,0.7,1.5,1.5,1.5
		C58.1,76.4,58.8,75.7,58.8,74.9z"/>
	<path id="XMLID_141_" class="st0" d="M50.8,70.5c0-0.8-0.7-2.5-1.5-2.5c-0.8,0-1.5,1.7-1.5,2.5c0,0.8,0.7,1.5,1.5,1.5
		C50.2,72,50.8,71.3,50.8,70.5z"/>
	<path id="XMLID_140_" class="st0" d="M66.7,70.5c0-0.8-0.7-2.5-1.5-2.5c-0.8,0-1.5,1.7-1.5,2.5c0,0.8,0.7,1.5,1.5,1.5
		C66,72,66.7,71.3,66.7,70.5z"/>
	<path id="XMLID_139_" class="st0" d="M70,57.3c0-0.8-0.7-2.5-1.5-2.5c-0.8,0-1.5,1.7-1.5,2.5c0,0.8,0.7,1.5,1.5,1.5
		C69.3,58.8,70,58.2,70,57.3z"/>
	<path id="XMLID_137_" class="st0" d="M47.9,57.3c0-0.8-0.7-2.5-1.5-2.5c-0.8,0-1.5,1.7-1.5,2.5c0,0.8,0.7,1.5,1.5,1.5
		C47.2,58.8,47.9,58.2,47.9,57.3z"/>
	<path id="XMLID_136_" class="st0" d="M54.4,63.5c0-0.8-0.7-2.5-1.5-2.5c-0.8,0-1.5,1.7-1.5,2.5c0,0.8,0.7,1.5,1.5,1.5
		C53.7,65,54.4,64.3,54.4,63.5z"/>
	<path id="XMLID_133_" class="st0" d="M63.7,63.1c0-0.8-0.7-2.5-1.5-2.5c-0.8,0-1.5,1.7-1.5,2.5c0,0.8,0.7,1.5,1.5,1.5
		C63.1,64.5,63.7,63.9,63.7,63.1z"/>
	<path id="XMLID_132_" class="st0" d="M59.5,53.4c0-0.8-0.7-2.5-1.5-2.5c-0.8,0-1.5,1.7-1.5,2.5c0,0.8,0.7,1.5,1.5,1.5
		C58.9,54.9,59.5,54.2,59.5,53.4z"/>
</g>
</svg>
