<?xml version="1.0" encoding="utf-8"?>
<!-- Generator: Adobe Illustrator 24.0.0, SVG Export Plug-In . SVG Version: 6.00 Build 0)  -->
<svg version="1.1" id="Camada_1" xmlns="http://www.w3.org/2000/svg" xmlns:xlink="http://www.w3.org/1999/xlink" x="0px" y="0px"
	 viewBox="0 0 114 114" style="enable-background:new 0 0 114 114;" xml:space="preserve">
<style type="text/css">
	.st0{fill:#147834;}
</style>
<path class="st0" d="M181.8,966.6c-6.1-11.6-19-18.5-34.5-18.5c-2.5,0-5,0.2-7.6,0.5c0,0-0.1,0-0.1,0c-6.9,1-13.8,3.2-20.4,6.7
	c-11.6,6.1-20.4,15.2-24.6,25.6c-4.3,10.4-3.8,21.4,1.2,31c6.4,12.2,19.2,19.5,34.1,19.5c8.5,0,17.4-2.4,25.8-6.8
	c11.7-6.2,20.9-15.5,25.9-26.1C186.7,987.5,186.8,976.1,181.8,966.6z M170.1,999.6l-2.2-3c-1.6-2.1-4.5-2.5-6.6-0.9
	c-2.1,1.6-2.5,4.5-0.9,6.6l3.6,4.8c-3.6,3.5-7.9,6.7-12.7,9.3c-6.3,3.3-12.8,5.2-19,5.6l-8.9-13.2c-1.5-2.2-4.4-2.7-6.6-1.3
	c-2.2,1.5-2.7,4.4-1.3,6.6l4.4,6.5c-6.9-2.1-12.5-6.6-15.8-13c-3.7-7-4-15.2-0.8-23c3.4-8.3,10.6-15.7,20.3-20.8
	c0.4-0.2,0.8-0.4,1.3-0.6l8.1,11.1c0.9,1.3,2.4,1.9,3.8,1.9c1,0,1.9-0.3,2.8-0.9c2.1-1.5,2.6-4.5,1-6.6l-6.6-9.1
	c1.5-0.4,3-0.8,4.5-1.1l10.4,13c0.9,1.2,2.3,1.8,3.7,1.8c1,0,2.1-0.3,3-1c2-1.6,2.4-4.6,0.7-6.6l-6.3-7.9
	c10.8,0.7,19.4,5.6,23.5,13.3C177.9,979.6,176.3,990.2,170.1,999.6z"/>
<g>
	<path class="st0" d="M86.2,23.2c-2.9-2-5.8-3-8.7-3c-6.9,0-11.5,5.9-14.2,9.5c-0.6,0.8-1.1,1.5-1.6,1.9c-0.7,0.8-1.9,2.4-3.4,4.6
		c-2.2,3.1-5,6.9-7.1,9.2c-9.4,10.2-16.5,15.1-22.2,19c-1.2,0.8-2.3,1.6-3.4,2.4c-2.3,1.6-7.5,6-7.1,11.6c0.4,6.5,3.4,9.5,4.4,10.3
		c1,1,5.2,5,11.9,5c1.3,0,2.6-0.2,3.9-0.5c7.1-1.7,12.6-5.3,16.3-7.7c0.8-0.6,1.6-1.1,2.2-1.4c7.7-4.6,20.5-17.4,24.4-23
		c10-14.3,11.3-17.7,12.1-23.1C94.4,33.4,92,26.7,86.2,23.2z M26.1,84.6C26,84.5,24,82.2,23.7,78c-0.2-2.4,2.6-5.3,5-7.1
		c1-0.7,2.1-1.5,3.3-2.3c5.6-3.9,13.2-9.1,23-19.8c2.3-2.5,5.2-6.5,7.5-9.6c1.3-1.8,2.6-3.5,3.1-4.1c0.6-0.6,1.2-1.4,1.8-2.3
		c2.4-3.2,5.7-7.5,10.1-7.5c1.8,0,3.8,0.7,5.8,2.1l0.1,0.1c3.7,2.2,5.6,6.7,5.1,9.5c-0.6,3.9-1,6.3-11.3,21
		c-3.6,5.1-15.7,17.3-22.8,21.5c-0.7,0.4-1.5,0.9-2.4,1.5c-3.3,2.2-8.3,5.6-14.6,7c-0.9,0.2-1.9,0.3-2.8,0.3c-5,0-8.2-3.4-8.3-3.5
		L26.1,84.6z"/>
	<path class="st0" d="M69.7,55c-1.1-0.8-2.8-0.6-3.6,0.5C55.6,69.9,35.9,79.7,35.7,79.8c-1.3,0.6-1.8,2.2-1.2,3.5
		c0.4,0.9,1.4,1.4,2.3,1.4c0.4,0,0.8-0.1,1.1-0.3C38.8,84,59,74,70.3,58.6C71.1,57.5,70.9,55.9,69.7,55z"/>
	<path class="st0" d="M80.7,40.6c-1.2-0.7-2.8-0.3-3.5,0.9c-3,5.1-5.5,7.7-5.5,7.7c-1,1-1,2.6,0,3.6c0.5,0.5,1.2,0.8,1.8,0.8
		c0.7,0,1.3-0.3,1.8-0.8c0.1-0.1,3-3,6.3-8.7C82.3,42.9,81.9,41.3,80.7,40.6z"/>
</g>
</svg>
