<?xml version="1.0" encoding="utf-8"?>
<!-- Generator: Adobe Illustrator 24.0.0, SVG Export Plug-In . SVG Version: 6.00 Build 0)  -->
<svg version="1.1" id="Camada_1" xmlns="http://www.w3.org/2000/svg" xmlns:xlink="http://www.w3.org/1999/xlink" x="0px" y="0px"
	 viewBox="0 0 114 114" style="enable-background:new 0 0 114 114;" xml:space="preserve">
<style type="text/css">
	.st0{fill:#147834;}
</style>
<path class="st0" d="M181.8,966.6c-6.1-11.6-19-18.5-34.5-18.5c-2.5,0-5,0.2-7.6,0.5c0,0-0.1,0-0.1,0c-6.9,1-13.8,3.2-20.4,6.7
	c-11.6,6.1-20.4,15.2-24.6,25.6c-4.3,10.4-3.8,21.4,1.2,31c6.4,12.2,19.2,19.5,34.1,19.5c8.5,0,17.4-2.4,25.8-6.8
	c11.7-6.2,20.9-15.5,25.9-26.1C186.7,987.5,186.8,976.1,181.8,966.6z M170.1,999.6l-2.2-3c-1.6-2.1-4.5-2.5-6.6-0.9
	c-2.1,1.6-2.5,4.5-0.9,6.6l3.6,4.8c-3.6,3.5-7.9,6.7-12.7,9.3c-6.3,3.3-12.8,5.2-19,5.6l-8.9-13.2c-1.5-2.2-4.4-2.7-6.6-1.3
	c-2.2,1.5-2.7,4.4-1.3,6.6l4.4,6.5c-6.9-2.1-12.5-6.6-15.8-13c-3.7-7-4-15.2-0.8-23c3.4-8.3,10.6-15.7,20.3-20.8
	c0.4-0.2,0.8-0.4,1.3-0.6l8.1,11.1c0.9,1.3,2.4,1.9,3.8,1.9c1,0,1.9-0.3,2.8-0.9c2.1-1.5,2.6-4.5,1-6.6l-6.6-9.1
	c1.5-0.4,3-0.8,4.5-1.1l10.4,13c0.9,1.2,2.3,1.8,3.7,1.8c1,0,2.1-0.3,3-1c2-1.6,2.4-4.6,0.7-6.6l-6.3-7.9
	c10.8,0.7,19.4,5.6,23.5,13.3C177.9,979.6,176.3,990.2,170.1,999.6z"/>
<g>
	<g>
		<g>
			<g>
				<path class="st0" d="M58.1,96.3c-0.4,0-0.8-0.1-1.1-0.3c-0.8-0.6-1-1.8-0.4-2.6L71.4,72l5.8-8.3c-1.3-1.1-2.5-2.3-3.6-3.7
					c-3.3-4.1-3.8-8.1-1.5-11.4c0.9-1.2,2.1-2,3.5-2.5c-0.2-0.9-0.2-1.8,0-2.6c0.4-1.4,1.3-2.6,2.5-3.2c1-0.6,2.1-1,3.3-1
					c0.3,0,0.6,0,0.9,0.1c0.6-2.9,2.1-4.7,4.5-5.1c0.3-0.1,0.8-0.2,1.2-0.2c1,0,2,0.3,2.9,0.9c1.2-1.3,2.8-2.7,4.8-3.2
					c0.5-0.1,0.9-0.2,1.4-0.2c1.3,0,2.6,0.4,3.7,1.2c1.5,0.9,2.5,2.5,2.7,4.4c0.3,2-0.5,4.1-1.3,5.7c1.3,0.8,2,2.1,2.2,3.6
					c0.4,2.3-0.7,4.4-3.2,5.9c0.7,1.3,1,2.8,0.7,4.3c-0.2,1.4-0.9,2.7-2.1,3.5c-0.8,0.5-1.6,0.8-2.5,0.9c0.1,1.4-0.3,2.8-1.1,4.1
					c-1.2,1.7-3,2.9-5,3.3c0,0,0,0,0,0c1.3,0.5,2,1.3,2.5,2.1c0.7-0.2,1.4-0.3,2-0.3c1.1,0,2,0.3,2.7,0.8c0.8,0.7,1.4,1.6,1.5,2.7
					c1.4,0.1,3.2,0.4,4.4,1.7c1.4,1.4,1.9,3.4,1.5,5.9c-0.4,2.5-1.6,4.3-3.3,5.1c-0.7,0.3-1.5,0.5-2.4,0.5c-0.9,0-1.7-0.2-2.3-0.4
					c-0.5,0.9-1.3,1.6-2.3,2c-0.2,0.1-0.3,0.1-0.5,0.1c-0.2,0-0.5,0.1-0.7,0.1c-1.3,0-2.5-0.6-3.5-1.2c-0.9,0.7-2,1.2-3.3,1.2
					c-0.4,0-0.8,0-1.3-0.1c-4.7-0.8-5.2-7.3-5.2-10.1c-3.7-0.2-6.9-0.2-8.6-0.2c-0.3,0-0.6,0-0.8,0L59.7,95.5
					C59.3,96,58.7,96.3,58.1,96.3L58.1,96.3z M90.9,83.1c0.2,0.1,0.4,0.2,0.6,0.4c0.7,0.7,2,1.6,2.6,1.6c0.1,0,0.3-0.4,0.4-1.3
					c0-0.2,0.1-0.4,0.2-0.6c0.3-0.6,0.9-0.9,1.6-0.9c0.3,0,0.6,0.1,0.9,0.3c0.4,0.2,1.6,0.8,2.6,0.8c0.3,0,0.6-0.1,0.9-0.2
					c0.8-0.4,1.1-1.5,1.3-2.4c0.1-0.9,0.2-2-0.4-2.6c-0.4-0.4-1.3-0.7-2.3-0.7c-0.6,0-1.1,0.1-1.1,0.1c-0.1,0-0.1,0-0.2,0
					c0.6,0.3,1.2,0.5,1.8,0.8c0.9,0.6,1.2,1.6,0.7,2.5c-0.3,0.6-0.9,1-1.6,1c-0.3,0-0.6-0.1-0.9-0.2c-1.6-0.9-4.2-1.7-7.9-2.3
					c0.2,0.3,0.4,0.6,0.7,0.8c0.8,0.6,1,1.7,0.4,2.5C91.1,82.9,91,83,90.9,83.1z M84.6,78.7c0,2.7,0.6,6,2.1,6.2
					c0.2,0,0.4,0.1,0.6,0.1c0.8,0,1-0.4,1-0.5c0.1-0.4,0.3-0.8,0.6-1c-0.1,0-0.2-0.1-0.4-0.2c-1.4-1.1-2.3-2.7-2.4-4.4
					C85.7,78.8,85.1,78.8,84.6,78.7z M96.5,77C96.5,77,96.5,77,96.5,77C96.5,77,96.5,77,96.5,77C96.5,77,96.5,77,96.5,77z
					 M85.7,75.1c2.1,0.2,4.1,0.5,5.8,0.8c0.3-0.4,0.7-0.7,1.1-1c-0.1,0-0.3,0-0.4,0c-0.1,0-0.2,0-0.3,0c-0.5-0.1-0.9-0.4-1.2-0.8
					s-0.4-0.9-0.3-1.4c0-0.3-0.3-0.8-1.4-1c-0.1,0-0.1,0-0.2,0C87.8,71.7,86.7,73,85.7,75.1z M74.1,74.5c1.9,0,4.6,0.1,7.6,0.3
					c0.9-2.3,2.6-5.3,5.1-6.4c-0.7-0.1-1.3-0.3-2-0.6c-1.6-0.5-3.2-1.2-4.7-2.1L74.1,74.5z M82.2,62.8c1.7,0.9,4.6,2.3,7.1,2.3
					c1.7,0,2.9-0.6,3.7-1.8c0.7-1,0.3-2.7,0.1-3.2C93,59.7,93,59.3,93.1,59c0.2-0.9,0.9-1.4,1.8-1.4c0.1,0,0.3,0,0.4,0
					c0.2,0.1,0.5,0.1,0.8,0.1c0.5,0,1.1-0.1,1.6-0.4c0.3-0.2,0.4-0.5,0.5-0.9c0.3-2.1-0.7-2.5-0.8-2.6c-0.8-0.2-1.3-1-1.3-1.8
					c0-0.3,0.1-0.6,0.2-0.9c-0.5,0.2-1,0.4-1.6,0.5c-0.6,0.1-1.3,0.1-1.9,0.1c-0.9,0-1.9-0.1-2.8-0.3l-1.8,2.6c0.2,0,0.4,0,0.5,0
					c0.9,0,1.6-0.1,2.1-0.4c0.3-0.1,0.6-0.2,0.9-0.2c0.7,0,1.3,0.4,1.6,1c0.5,0.9,0.2,2-0.7,2.5c-0.7,0.4-1.4,0.6-2.1,0.7
					c-0.6,0.1-1.3,0.1-1.9,0.1c-0.9,0-1.9-0.1-2.8-0.3L82.2,62.8z M79,44.4c-0.1,0.8,0.1,1.6,0.6,2.3c0.2,0.3,0.3,0.7,0.3,1.1
					c0,1-0.9,1.8-1.9,1.8c-0.6,0-2.3,0.2-3,1.3c-1.3,1.9-0.9,4.2,1.4,7c0.8,1,1.8,2,2.8,2.9l1.5-2.1c-2.3-2.4-1.5-5.8-0.7-7.4
					c0.3-0.6,1-1,1.7-1c0.3,0,0.6,0.1,0.8,0.2c0.4,0.2,0.8,0.6,0.9,1.1c0.2,0.5,0.1,1-0.1,1.4c0,0.1-0.6,1.3-0.3,2.5l1.6-2.3
					c-1.8-2.4-1.1-5.4-0.3-6.9c0.3-0.6,1-1,1.7-1c0.3,0,0.6,0.1,0.8,0.2c0.9,0.5,1.3,1.6,0.8,2.5c0,0-0.3,0.7-0.4,1.5l3.4-5
					c0.4-0.5,0.9-0.8,1.5-0.8c0.4,0,0.7,0.1,1,0.3c0.8,0.6,1.1,1.7,0.5,2.6l-1.3,1.8c0.2,0,0.4,0,0.5,0c0.9,0,1.6-0.1,2.1-0.4
					c0.3-0.1,0.6-0.2,0.9-0.2c0.7,0,1.3,0.4,1.6,1c0.2,0.4,0.3,0.9,0.2,1.4c0,0.1-0.1,0.3-0.2,0.4c0.7-0.3,3.4-1.4,3.1-3l0-0.1
					c0-0.4-0.2-0.7-0.5-0.9c-0.1,0-0.2,0-0.3,0c-0.1,0-0.2,0-0.3,0.1c-0.2,0.1-0.4,0.1-0.6,0.1c-0.6,0-1.2-0.3-1.5-0.8
					c-0.5-0.7-0.5-1.6,0.1-2.3c0.9-1.1,2.4-3.6,2.2-5.4c-0.1-0.7-0.5-1.4-1.2-1.8l-0.1-0.1c-0.4-0.3-1-0.5-1.5-0.5
					c-0.2,0-0.4,0-0.5,0.1c-1.9,0.4-3.7,3-4.3,4c-0.3,0.6-0.9,1-1.6,1c-0.5,0-1-0.2-1.3-0.6c-0.3-0.4-0.5-0.8-0.5-1.3
					c0-0.2-0.1-0.3-0.2-0.5C88.3,38.1,88,38,87.8,38c-0.1,0-0.3,0-0.4,0.1l-0.1,0l-0.1,0c-1.8,0.3-1.7,4.1-1.7,4.2
					c0,0.6-0.2,1.2-0.7,1.6c-0.3,0.2-0.7,0.4-1.1,0.4c-0.6,0-1.1-0.3-1.5-0.7c0,0-0.3-0.3-0.9-0.3c-0.5,0-1,0.2-1.7,0.5
					C79.4,43.9,79.1,44.1,79,44.4z"/>
			</g>
		</g>
	</g>
	<g>
		<g>
			<g>
				<path class="st0" d="M57.7,95.7c-0.6,0-1.1-0.3-1.5-0.7L43.5,78.3c-1.1,0-4.7,0.2-9,0.6c-0.2,0-0.3,0.2-0.3,0.3
					c0.2,5.7-1.5,9.3-4.7,10c-0.5,0.1-1.1,0.2-1.5,0.2c-1.1,0-2.1-0.3-2.9-0.9c0,0-0.1,0-0.1,0c-0.1,0-0.1,0-0.2,0.1
					c-1.2,0.8-2.3,1.3-3.4,1.3c-0.2,0-0.3,0-0.5,0c-0.1,0-0.3,0-0.4-0.1c-1-0.3-1.8-0.9-2.3-1.7c-0.1-0.1-0.2-0.1-0.2-0.1
					c-0.9,0.3-1.7,0.4-2.5,0.4c-0.8,0-1.5-0.1-2.1-0.4c-1.8-0.8-3-2.4-3.6-4.9c-0.6-2.5-0.2-4.5,1.2-6c1-1,2.4-1.7,4.2-1.9
					c0.1,0,0.2-0.2,0.2-0.3c0.2-0.9,0.6-1.8,1.3-2.4c0.8-0.7,1.8-1,3-1c0.5,0,1,0,1.5,0.1c0,0,0,0,0,0c0.1,0,0.2,0,0.3-0.1
					c0.4-0.7,1-1.5,2.3-2c-2.1-0.3-4-1.3-5.2-3c-0.8-1.1-1.2-2.4-1.3-3.7c0-0.2-0.1-0.3-0.3-0.3c-0.8-0.1-1.5-0.4-2.2-0.7
					c-1.2-0.8-2-2-2.3-3.4c-0.3-1.3-0.2-2.8,0.3-4c0.1-0.2,0-0.3-0.1-0.4c-2.4-1.4-3.5-3.4-3.2-5.7c0.1-1.4,0.8-2.8,2-3.6
					c-0.9-1.5-1.7-3.5-1.6-5.6c0.2-1.8,1.1-3.5,2.6-4.5c1.1-0.9,2.4-1.4,3.9-1.4c0.4,0,0.7,0,1.1,0.1c2,0.4,3.7,1.7,5,3
					c0.9-0.7,2-1.1,3.1-1.1c0.4,0,0.7,0,1.1,0.1c2.2,0.3,3.8,1.9,4.6,4.5c0,0.2,0.2,0.3,0.3,0.3c0.3,0,0.6-0.1,0.9-0.1
					c1.1,0,2.1,0.3,3.1,0.8c1.3,0.6,2.3,1.7,2.7,3c0.2,0.8,0.3,1.6,0.1,2.4c0,0.2,0.1,0.3,0.2,0.4c1.3,0.4,2.4,1.2,3.2,2.2
					c2.4,3.2,2.1,7.3-1,11.5c-1,1.3-2.1,2.5-3.3,3.6c-0.1,0.1-0.1,0.3,0,0.4l6.5,8.6l15.2,19.9c0.3,0.4,0.4,0.9,0.4,1.4
					c-0.1,0.5-0.3,0.9-0.7,1.2C58.5,95.5,58.1,95.7,57.7,95.7L57.7,95.7z M19,83.5c0.6,0,1.2,0.3,1.6,0.8c0.1,0.2,0.2,0.4,0.3,0.6
					c0.2,0.9,0.4,1.2,0.5,1.3c0.5,0,1.8-0.9,2.5-1.7c0.2-0.2,0.4-0.3,0.6-0.4c-0.1-0.1-0.2-0.2-0.3-0.3c-0.6-0.8-0.4-1.9,0.3-2.6
					c0.3-0.2,0.5-0.5,0.6-0.8c-3.6,0.7-6.2,1.6-7.7,2.6c-0.3,0.2-0.6,0.3-1,0.3c-0.7,0-1.3-0.3-1.6-0.9c-0.5-0.8-0.3-1.9,0.5-2.5
					c0.6-0.4,1.2-0.7,1.8-1l-0.1,0c-0.1,0-0.4,0-0.8,0c-1.2,0-2.2,0.3-2.7,0.8c-0.6,0.6-0.5,1.8-0.3,2.7c0.2,0.9,0.6,2,1.4,2.3
					c0.2,0.1,0.5,0.1,0.7,0.1c1.1,0,2.3-0.6,2.7-0.9C18.3,83.6,18.7,83.5,19,83.5z M26.4,84.3c0.3,0.3,0.5,0.6,0.6,1
					c0,0.2,0.2,0.5,0.9,0.5c0.2,0,0.5,0,0.7-0.1c1.5-0.3,1.9-3.6,1.8-6.3c-0.5,0.1-1,0.1-1.6,0.2c-0.1,1.7-0.8,3.3-2.2,4.4
					C26.6,84.1,26.5,84.2,26.4,84.3z M22.3,75.9c0.4,0.3,0.8,0.6,1.2,1c1.7-0.4,3.7-0.7,5.8-1c-1.1-2-2.3-3.2-3.2-3.2
					c-0.1,0-0.2,0-0.2,0c-1.1,0.2-1.4,0.7-1.4,1.1c0.1,0.5,0,0.9-0.3,1.4c-0.3,0.4-0.7,0.7-1.2,0.8c-0.1,0-0.3,0-0.4,0
					C22.5,75.9,22.4,75.9,22.3,75.9z M27.8,69.2c2.4,0.9,4.2,3.6,5.3,5.9c0.1,0.1,0.2,0.2,0.3,0.2c2.2-0.2,4.5-0.4,6.8-0.6
					c0.2,0,0.2-0.1,0.3-0.2c0-0.1,0.1-0.2,0-0.3l-5.9-7.7c-0.1-0.1-0.2-0.1-0.3-0.1c-0.1,0-0.1,0-0.2,0c-1.4,0.9-2.8,1.6-4.4,2.2
					C29.1,68.8,28.4,69,27.8,69.2z M19.3,58.7c0.8,0,1.6,0.6,1.8,1.4c0.1,0.4,0.1,0.7,0,1.1c-0.2,0.5-0.5,2.2,0.3,3.2
					c0.8,1.1,2,1.6,3.5,1.6c2.6,0,5.6-1.6,7.3-2.6l-3.9-5.1c-1.1,0.3-2.2,0.4-3.4,0.4c-0.4,0-0.8,0-1.2-0.1
					c-0.8-0.1-1.5-0.3-2.1-0.6c-0.9-0.5-1.3-1.6-0.9-2.5c0.3-0.6,1-1,1.7-1c0.3,0,0.6,0.1,0.8,0.2c0.4,0.2,1,0.3,1.8,0.3
					c0.3,0,0.6,0,0.9-0.1l-1.9-2.5c-1.1,0.3-2.2,0.4-3.4,0.4c-0.4,0-0.8,0-1.2-0.1c-0.6-0.1-1.1-0.2-1.6-0.4
					c0.1,0.3,0.2,0.5,0.3,0.8c0,0.8-0.4,1.6-1.2,1.8c-0.1,0-1.1,0.5-0.7,2.5c0.1,0.4,0.2,0.7,0.5,0.9c0.4,0.2,0.9,0.3,1.4,0.3
					c0.3,0,0.6,0,0.9-0.1C19,58.7,19.2,58.7,19.3,58.7z M35.1,61.1c1-0.9,1.9-1.9,2.7-3c2.1-2.9,2.4-5.2,1-7
					c-0.8-1.1-2.6-1.1-2.9-1.1l-0.2,0c-1,0-1.8-0.8-1.8-1.7c0-0.4,0.1-0.8,0.3-1.1c0.4-0.7,0.6-1.5,0.5-2.3
					c-0.1-0.3-0.4-0.6-0.7-0.7c-0.7-0.3-1.2-0.5-1.6-0.5c-0.7,0-1,0.4-1,0.4c-0.3,0.5-0.9,0.8-1.5,0.8c-0.4,0-0.7-0.1-1-0.3
					c-0.5-0.4-0.8-0.9-0.8-1.6c0,0,0-3.8-1.9-4.1l-0.1,0c-0.1,0-0.2,0-0.3,0c-0.2,0-0.5,0.1-0.7,0.2c-0.1,0.2-0.2,0.3-0.2,0.5
					c0,0.5-0.1,0.9-0.5,1.3c-0.3,0.4-0.8,0.6-1.3,0.6l-0.1,0c-0.6,0-1.2-0.3-1.6-0.9c-0.6-0.9-2.5-3.4-4.5-3.8c-0.1,0-0.3,0-0.4,0
					c-0.6,0-1.2,0.2-1.6,0.6l-0.1,0.1c-0.6,0.4-1,1.1-1.1,1.8c-0.2,1.8,1.5,4.2,2.5,5.3c0.6,0.6,0.7,1.5,0.2,2.3
					c-0.3,0.5-0.9,0.9-1.6,0.9c-0.2,0-0.4,0-0.6-0.1c-0.1,0-0.2,0-0.2,0c-0.1,0-0.2,0-0.3,0.1c-0.3,0.2-0.4,0.6-0.4,0.9l0,0.1
					c-0.2,1.6,2.5,2.6,3.3,2.8c-0.3-0.5-0.4-1.2-0.1-1.8c0.3-0.6,1-1,1.7-1c0.3,0,0.6,0.1,0.8,0.2c0.4,0.2,1,0.3,1.7,0.3
					c0.3,0,0.6,0,0.9-0.1L20,47.4c-0.3-0.4-0.4-0.9-0.4-1.4c0.1-0.5,0.3-0.9,0.7-1.2c0.3-0.2,0.7-0.4,1.1-0.4c0.6,0,1.1,0.3,1.5,0.7
					l3.7,4.8c-0.1-0.8-0.5-1.5-0.5-1.5c-0.2-0.4-0.3-0.9-0.2-1.4c0.1-0.5,0.4-0.9,0.9-1.1c0.3-0.2,0.6-0.2,0.9-0.2
					c0.7,0,1.3,0.4,1.6,0.9c0.8,1.5,1.7,4.5,0,6.9l1.7,2.2c0.3-1.1-0.4-2.4-0.4-2.4c-0.2-0.4-0.3-0.9-0.2-1.4
					c0.1-0.5,0.4-0.9,0.9-1.1c0.3-0.2,0.6-0.2,0.9-0.2c0.7,0,1.3,0.4,1.6,0.9c0.9,1.6,1.8,4.9-0.4,7.4L35.1,61.1z"/>
			</g>
		</g>
	</g>
	<g>
		<g>
			<g>
				<path class="st0" d="M57.3,95.2c-0.5,0-1-0.2-1.3-0.6c-0.3-0.4-0.5-0.8-0.5-1.3l0-29.1l0,0v-7c-1.7-0.1-3.4-0.5-5.1-0.9
					c-5-1.5-7.7-4.5-7.7-8.5c0.1-1.5,0.6-2.9,1.4-4c-0.7-0.6-1.2-1.3-1.5-2.1c-0.5-1.4-0.4-2.8,0.3-4.1c0.6-1.4,1.7-2.5,3-3.1
					c-1.2-2.7-0.9-5,0.8-6.7c0.9-1,2.2-1.7,3.7-1.7l0.1,0c0.2-1.8,0.8-3.9,2.1-5.4c1.2-1.3,2.9-2,4.6-2l0.2,0l0.2,0
					c1.7,0,3.4,0.7,4.6,2c1.4,1.5,1.9,3.6,2.1,5.4l0.1,0c1.4,0,2.8,0.6,3.7,1.7c1.6,1.6,1.9,4,0.7,6.7c1.3,0.7,2.4,1.8,3,3.1
					c0.7,1.2,0.8,2.7,0.3,4c-0.4,0.9-0.9,1.6-1.5,2.2c0.9,1.1,1.4,2.5,1.4,3.9c0,2.1-0.8,4.1-2.3,5.5c-1.6,1.4-3.4,2.5-5.5,3
					c-1.6,0.5-3.3,0.8-5,0.9v36.1C59.2,94.4,58.3,95.2,57.3,95.2L57.3,95.2z M59.2,53.6c3.1-0.3,9.2-1.5,9.2-5.7
					c0-1.2-1.3-2.4-1.7-2.7c-0.3-0.2-0.5-0.5-0.7-0.8c-0.2-0.5-0.2-1,0-1.4s0.6-0.8,1-1c0.7-0.3,1.4-0.8,1.7-1.5
					c0.1-0.3,0-0.7-0.1-1c-0.6-1.1-1.2-1.7-1.9-1.7c-0.1,0-0.2,0-0.2,0c-0.2,0.1-0.3,0.1-0.5,0.1c-0.6,0-1.2-0.3-1.5-0.8
					c-0.2-0.3-0.3-0.5-0.3-0.8c-0.3,0.5-0.6,0.9-1,1.3c-1.2,1.1-2.5,1.9-3.9,2.5V43c0.9-0.6,1.6-1.2,1.9-1.8c0.3-0.6,1-1,1.7-1
					c0.3,0,0.6,0.1,0.8,0.2c0.9,0.5,1.3,1.6,0.8,2.5c-0.3,0.7-0.8,1.3-1.3,1.8c-1.2,1.1-2.5,1.9-3.9,2.5V53.6z M46.1,40.4
					c0.4,0.7,1,1.2,1.8,1.5c0.3,0.1,0.6,0.4,0.9,0.7c0.6,0.9,0.3,2-0.5,2.6c-0.5,0.3-1.7,1.5-1.7,2.7c0,2.3,1.7,3.9,5.1,4.9
					c1.3,0.4,2.6,0.6,3.9,0.8V51c-3.2-0.7-4.6-3.9-4.8-5.7c-0.1-1,0.6-2,1.6-2.1c0.1,0,0.2,0,0.3,0c0.9,0,1.7,0.7,1.8,1.6
					c0,0.1,0.2,1.5,1.1,2.2l0-2.8c-2.8-0.9-4-3.8-4.2-5.5c-0.1-1,0.6-1.9,1.6-2.1c0.1,0,0.2,0,0.3,0c0.9,0,1.7,0.7,1.8,1.6
					c0,0,0.1,0.8,0.5,1.5l0-6c0-1,0.8-1.8,1.8-1.8h0c1,0,1.9,0.8,1.9,1.8v2.2c0.9-0.6,1.6-1.2,1.9-1.8c0.3-0.6,1-1,1.7-1
					c0.3,0,0.6,0.1,0.8,0.2c0.6,0.3,1,0.9,1,1.5c0.4-0.6,2-3.1,0.9-4.2l-0.1-0.1c-0.2-0.3-0.5-0.5-0.9-0.5c-0.2,0.1-0.4,0.2-0.5,0.3
					c-0.3,0.5-0.9,0.8-1.5,0.8c-0.2,0-0.4,0-0.6-0.1c-0.8-0.3-1.3-1.1-1.2-1.9c0.1-1.5,0-4.3-1.3-5.7c-0.5-0.5-1.1-0.8-1.8-0.8
					l-0.2,0l-0.2,0c-0.7,0-1.4,0.3-1.8,0.8c-1.3,1.5-1.4,4.6-1.3,5.7c0.1,0.7-0.2,1.3-0.8,1.7c-0.3,0.2-0.7,0.3-1,0.3
					c-0.6,0-1.2-0.3-1.5-0.8c-0.1-0.1-0.3-0.2-0.4-0.3c-0.4,0-0.7,0.2-0.9,0.5l-0.1,0.1c-1.3,1.3,1,4.3,1,4.4
					c0.4,0.5,0.5,1.1,0.3,1.7c-0.3,0.8-1,1.3-1.8,1.3c-0.2,0-0.4,0-0.6-0.1c0,0,0,0,0,0c0,0-0.1,0-0.2,0c-0.7,0-1.3,0.6-1.9,1.6
					C46.1,39.7,46,40,46.1,40.4z"/>
			</g>
		</g>
	</g>
</g>
</svg>
