<?xml version="1.0" encoding="utf-8"?>
<!-- Generator: Adobe Illustrator 24.1.2, SVG Export Plug-In . SVG Version: 6.00 Build 0)  -->
<svg version="1.1" id="Camada_1" xmlns="http://www.w3.org/2000/svg" xmlns:xlink="http://www.w3.org/1999/xlink" x="0px" y="0px"
	 viewBox="0 0 150.6 145.6" style="enable-background:new 0 0 150.6 145.6;" xml:space="preserve">
<style type="text/css">
	.st0{fill:#147834;stroke:#FFFFFF;stroke-width:5;stroke-miterlimit:10;}
</style>
<path id="XMLID_91_" class="st0" d="M89.6,26c-0.5-0.6-1.3-1-2.1-1l-10.7-0.8c-0.8-0.1-1.6,0.2-2.2,0.7c-0.6,0.5-0.9,1.4-0.9,2.1
	c-0.7,35.3-36,68.2-40.7,72.4c-1.9,0.5-3.5,1.5-4.9,2.9c-2.1,2.1-3.3,5-3.3,7.9c0,3,1.1,5.8,3.3,7.9c2.2,2.2,5.1,3.3,7.9,3.3
	c2.9,0,5.7-1.1,7.9-3.3c2.5-2.5,3.6-5.9,3.2-9.4c2.5-2.6,4.9-5.2,7.2-7.7C64.8,91.3,82,79.2,104.9,77c1.6-0.1,2.8-1.6,2.6-3.1
	l-0.6-8.5c-0.1-1.5-1.3-2.6-2.7-2.7c-0.2,0-2.6-0.1-6.8,0.4c8.2-4.1,16.9-6.6,25.8-7.5c1.6-0.1,2.8-1.6,2.6-3.1l-0.6-8.5
	c-0.1-1.5-1.3-2.6-2.7-2.7c-0.7,0-16.1-0.9-39.4,12.9c5.7-14.7,7.1-24.9,7.2-25.7C90.3,27.5,90.1,26.6,89.6,26z M101.2,68.5l0.2,2.9
	C88.2,73.2,77,77.9,67.7,83.5c1-1.6,2-3.1,3-4.7C85.5,70.6,96.6,68.8,101.2,68.5z M119.5,47.1l0.2,2.9c-15.1,2-29.4,8.4-42.3,19
	c-0.5,0.2-1,0.4-1.6,0.7c1-2.1,2.1-4.1,3-6C98.8,50,113.9,47.5,119.5,47.1z M41.9,105.7c-0.8,0.7-1.1,1.9-0.8,3c0.5,1.9,0,4-1.4,5.3
	c-2.1,2.1-5.5,2.1-7.6,0c-1-1-1.6-2.4-1.6-3.8c0-1.5,0.5-2.8,1.6-3.8c0.7-0.7,1.7-1.3,2.7-1.5c0.5-0.1,1-0.4,1.5-0.7
	c1.1-1,11-9.7,21.2-23.1c9.3-12.3,20.4-31,21.8-50.9l4.6,0.3C81.9,40.7,73.2,74.4,41.9,105.7z"/>
</svg>
