<?xml version="1.0" encoding="utf-8"?>
<!-- Generator: Adobe Illustrator 24.1.2, SVG Export Plug-In . SVG Version: 6.00 Build 0)  -->
<svg version="1.1" id="Camada_1" xmlns="http://www.w3.org/2000/svg" xmlns:xlink="http://www.w3.org/1999/xlink" x="0px" y="0px"
	 viewBox="0 0 150.6 145.6" style="enable-background:new 0 0 150.6 145.6;" xml:space="preserve">
<style type="text/css">
	.st0{fill:#147834;stroke:#FFFFFF;stroke-width:2;stroke-miterlimit:10;}
</style>
<path class="st0" d="M57.3,52.6c-15.8,4.5-25.2,16.1-25.2,31.1c0,19,18.3,32.9,43.6,32.9l0,0l0,0l0,0c25.3,0,43.6-13.8,43.6-32.9
	c0-15-9.4-26.6-25.2-31.1l-0.4,1.6l0.3-1.6c-6-1.7-10-6.7-10-12.3c0-3.6,0.7-6.6,1.9-8.6c0.3-0.5,0.3-1.1,0-1.6s-0.8-0.8-1.4-0.8
	H66.9c-0.6,0-1.1,0.3-1.4,0.8s-0.3,1.1,0,1.6c1.2,2,1.9,5,1.9,8.6c0.1,5.6-3.9,10.5-10,12.2L57.3,52.6z M93.2,55.7
	c14.3,4.1,22.9,14.5,22.9,28c0,16-14.7,27.8-35.5,29.5c9.5-7.7,15.2-16.8,16.8-27.2c1.9-12.6-2.5-24.1-6.2-31
	C91.8,55.3,92.5,55.5,93.2,55.7L93.2,55.7z M69.4,32.5H82c-0.8,2.2-1.2,4.8-1.2,7.8c0,3.6,1.2,7,3.5,9.7v0.1
	c0.1,0.2,12.7,16.8,9.9,35.4c-1.7,10.5-7.9,19.7-18.5,27.4C65.1,105.2,58.9,96,57.2,85.6c-2.9-18.6,9.7-35.3,9.9-35.4v-0.1
	c2.3-2.7,3.6-6.1,3.5-9.7C70.6,37.3,70.2,34.7,69.4,32.5z M58.3,55.7c0.7-0.2,1.3-0.4,1.9-0.7C56.5,61.9,52,73.4,54,86
	c1.6,10.3,7.2,19.5,16.8,27.2c-20.9-1.6-35.5-13.5-35.5-29.5C35.3,70.2,43.9,59.7,58.3,55.7L58.3,55.7z"/>
<path class="st0" d="M71.9,93.8c0.4,0,0.9-0.2,1.2-0.5c0.3-0.4,8.4-9.1,8-22.8c0-0.9-0.7-1.6-1.7-1.6c-0.9,0-1.6,0.8-1.6,1.7
	c0.4,12.3-7,20.4-7.1,20.5c-0.6,0.6-0.6,1.7,0.1,2.3C71.1,93.7,71.5,93.8,71.9,93.8z"/>
</svg>
