<?xml version="1.0" encoding="utf-8"?>
<!-- Generator: Adobe Illustrator 24.1.2, SVG Export Plug-In . SVG Version: 6.00 Build 0)  -->
<svg version="1.1" id="Camada_1" xmlns="http://www.w3.org/2000/svg" xmlns:xlink="http://www.w3.org/1999/xlink" x="0px" y="0px"
	 viewBox="0 0 150.6 145.6" style="enable-background:new 0 0 150.6 145.6;" xml:space="preserve">
<style type="text/css">
	.st0{fill:#147834;stroke:#FFFFFF;stroke-width:3;stroke-miterlimit:10;}
</style>
<g>
	<path class="st0" d="M88.3,68.4c-6,0-13.6,3.4-20.2,9.2c-5.5,4.8-8.1,11.2-9.3,15.9c-0.8,3.3-1.8,9.3-0.5,11.1
		c0.3,0.4,1.1,1.5,6.6,1.5c4,0,14-0.7,21.7-7.4c10.6-9.3,14.9-21.1,9.7-27C94.5,69.5,91.7,68.4,88.3,68.4z M93.2,83
		c-1.6,4.3-5.1,8.6-9.5,12.5c-6.7,5.9-16.2,6.3-18.9,6.3c-1.4,0-2.3-0.1-3-0.1c0-3.4,1.5-14.4,9.1-21c5.8-5.1,12.5-8.1,17.4-8.1
		c1.5,0,3.6,0.3,4.8,1.8C94.6,76.1,94.7,79.3,93.2,83z"/>
	<path class="st0" d="M126,50.3c-0.5-2.5-2.5-4.7-4.8-5.3c-2.1-0.7-4.3,0-5.9,1.6l-5.2,4.5c-1.9-1.1-4.1-1.6-6.4-1.6
		c-3.3,0-6.6,1.1-9.6,3.3c-0.7,0.5-3.6,1.1-6.3,1.6c-2.6,0.5-5.9,1.2-9.5,2.2c-1.8-3.2-3.4-6-4.9-8.4C71.8,45.6,70.1,43,70,42
		c-0.9-6.3-4.3-10.6-8.6-12.6c0-1.6,0.1-4.7,0.1-8c0-2.2-1.1-4-3-5.1c-2.2-1.2-5.2-1.2-7.3,0c-1.7,1.1-2.7,3.2-2.7,5.5v7.1
		c-1.5,0.7-3,1.5-4.3,2.6c-3,2.6-4.8,6.4-5.2,10.8c-0.1,1-1.5,3.4-2.9,5.9c-4.3,7.5-11.2,20-11,36.1c0.1,9.9,4,18.9,11,26.2
		c5.8,6,12.3,9.5,16.5,10.7c4.1,1.8,9.6,3.2,15.6,3.2l0,0c9.2,0,17.6-3.2,24.7-9.5c12.1-10.5,16.2-24.4,18.7-32.6
		c0.8-3,1.8-5.8,2.5-6.6c3.8-4.3,5.3-9.6,4-14.7c1.2-1.1,3.6-2.9,6-5.1C125.9,54.6,126.6,52.5,126,50.3z M52.8,21.8
		c-0.2-1.4,0.5-1.6,0.7-1.8c0.8-0.5,2.1-0.4,3,0c1,0.5,1,1.2,1,1.5c0,2.6-0.1,4.9-0.1,6.6c-1-0.1-2.1-0.3-3-0.3c-0.5,0-1,0-1.4,0.1
		L52.8,21.8L52.8,21.8z M29.5,84.4c-0.3-14.9,6.4-26.9,10.4-34c1.9-3.4,3.2-5.8,3.4-7.5c0.7-7.4,6-10.7,11-10.8
		c5.1,0,10.7,3.3,11.5,10.7c0.3,2.1,1.8,4.4,4,8c1.4,2.1,2.9,4.5,4.4,7.3c-6.6,2.2-14,5.8-20.6,11.8c-10.1,9-12.5,20.2-12.6,28
		c-0.1,4.9,0.7,9.5,1.6,12.8C36,105.3,29.7,96.4,29.5,84.4z M111.1,73c-1.4,1.5-2.2,4.1-3.3,8.2c-2.5,8.4-6.2,21-17.4,30.7
		c-6.4,5.6-13.9,8.5-22.1,8.5c-10,0-18.2-4.5-19.9-6.3c-2.3-2.6-9.2-25.6,8-41c11-9.9,24.3-12.6,32.1-14.3c3.8-0.8,6.4-1.4,7.8-2.3
		c2.3-1.6,4.8-2.5,7.3-2.5c4.3,0,8.1,2.6,9.9,6.6C115.5,64.6,114.5,69.1,111.1,73z M121.5,52.8c-1.9,1.6-3.7,3.2-4.9,4.3
		c-0.8-1.2-1.6-2.5-2.7-3.4l4.4-3.8c0,0,0,0,0.1-0.1c1-1,1.6-0.7,1.8-0.7c0.8,0.3,1.6,1.2,1.9,2.2C122.2,52.3,121.6,52.7,121.5,52.8
		z"/>
	<path class="st0" d="M74.5,92.2l-1.1,0.5c-1,0.5-1.4,1.8-0.8,2.9c0.4,0.7,1.1,1.1,1.8,1.1c0.3,0,0.7-0.1,1-0.3l1.1-0.5
		c1-0.5,1.4-1.8,0.8-2.9C76.6,92,75.4,91.6,74.5,92.2z"/>
	<path class="st0" d="M72.8,87.4c-0.8-0.7-2.2-0.7-2.9,0.3l-0.8,1c-0.7,0.8-0.7,2.2,0.3,2.9c0.4,0.3,0.8,0.5,1.4,0.5
		c0.6,0,1.2-0.3,1.6-0.7l0.8-1C73.8,89.4,73.6,88.1,72.8,87.4z"/>
	<path class="st0" d="M80.8,87.1l-1,0.7c-1,0.7-1.2,1.9-0.5,2.9c0.4,0.5,1.1,1,1.8,1c0.4,0,0.8-0.1,1.1-0.3l1-0.7
		c1-0.7,1.2-1.9,0.5-2.9C83,86.7,81.7,86.5,80.8,87.1z"/>
	<path class="st0" d="M79.1,82.2c-0.7-1-1.9-1.1-2.9-0.4l-1.1,0.6c-1,0.7-1.1,1.9-0.4,2.9c0.4,0.5,1.1,0.8,1.6,0.8
		c0.4,0,0.8-0.1,1.2-0.4l1-0.7C79.5,84.5,79.7,83.1,79.1,82.2z"/>
	<path class="st0" d="M85.7,78.5c-0.5-1-1.8-1.4-2.9-0.8l-1.1,0.4c-1,0.5-1.4,1.8-0.8,2.9c0.4,0.7,1.1,1.1,1.8,1.1
		c0.3,0,0.7-0.1,1-0.3l1.1-0.5C85.8,80.6,86.2,79.4,85.7,78.5z"/>
	<path class="st0" d="M86,82.2l-0.8,1c-0.7,1-0.5,2.2,0.3,2.9c0.4,0.3,0.8,0.4,1.2,0.4c0.5,0,1.2-0.3,1.6-0.8l0.8-1
		c0.7-1,0.5-2.2-0.3-2.9C88,81.1,86.8,81.3,86,82.2z"/>
</g>
</svg>
