<?xml version="1.0" encoding="utf-8"?>
<!-- Generator: Adobe Illustrator 24.1.2, SVG Export Plug-In . SVG Version: 6.00 Build 0)  -->
<svg version="1.1" id="Camada_1" xmlns="http://www.w3.org/2000/svg" xmlns:xlink="http://www.w3.org/1999/xlink" x="0px" y="0px"
	 viewBox="0 0 150.6 145.6" style="enable-background:new 0 0 150.6 145.6;" xml:space="preserve">
<style type="text/css">
	.st0{fill:#147834;stroke:#FFFFFF;stroke-width:6;stroke-miterlimit:10;}
</style>
<g>
	<path class="st0" d="M116.9,23.6c-4-2.7-7.9-4.1-11.9-4.1c-9.5,0-15.8,8.1-19.5,13c-0.8,1.1-1.5,2.1-2.2,2.6
		c-1,1.1-2.6,3.3-4.7,6.3c-3,4.3-6.9,9.5-9.7,12.6C56,68.1,46.3,74.8,38.4,80.1c-1.6,1.1-3.2,2.2-4.7,3.3c-3.1,2.2-10.2,8.3-9.7,16
		c0.5,8.9,4.7,13,6,14.1c1.4,1.4,7.1,6.9,16.3,6.9c1.8,0,3.6-0.3,5.4-0.7c9.7-2.3,17.3-7.3,22.4-10.6c1.1-0.8,2.2-1.5,3-1.9
		c10.6-6.3,28.1-23.9,33.5-31.6c13.7-19.6,15.5-24.3,16.6-31.7C128.2,37.6,124.9,28.4,116.9,23.6z M34.5,107.9
		c-0.1-0.1-2.9-3.3-3.3-9.1c-0.3-3.3,3.5-7.3,6.8-9.7c1.4-1,2.9-2.1,4.5-3.2c7.7-5.4,18.1-12.5,31.6-27.2c3.2-3.4,7.1-8.9,10.3-13.2
		c1.8-2.5,3.6-4.8,4.3-5.6c0.8-0.8,1.6-1.9,2.5-3.2c3.2-4.3,7.7-10.2,13.8-10.2c2.5,0,5.2,1,8,2.9l0.1,0.1c5.1,3,7.7,9.2,7,13
		c-0.8,5.4-1.4,8.6-15.5,28.8c-4.9,7-21.5,23.7-31.3,29.5c-1,0.5-2.1,1.2-3.3,2.1c-4.5,3-11.4,7.7-20,9.6c-1.2,0.3-2.6,0.4-3.8,0.4
		c-6.9,0-11.3-4.7-11.4-4.8L34.5,107.9z"/>
	<path class="st0" d="M94.3,67.2c-1.5-1.1-3.8-0.8-4.9,0.7c-14.5,19.8-41.5,33.2-41.8,33.4c-1.8,0.8-2.5,3-1.6,4.8
		c0.5,1.2,1.9,1.9,3.2,1.9c0.5,0,1.1-0.1,1.5-0.4c1.2-0.5,29-14.3,44.5-35.4C96.2,70.7,95.9,68.5,94.3,67.2z"/>
	<path class="st0" d="M109.4,47.5c-1.6-1-3.8-0.4-4.8,1.2c-4.1,7-7.5,10.6-7.5,10.6c-1.4,1.4-1.4,3.6,0,4.9c0.7,0.7,1.6,1.1,2.5,1.1
		c1,0,1.8-0.4,2.5-1.1c0.1-0.1,4.1-4.1,8.6-11.9C111.6,50.6,111,48.5,109.4,47.5z"/>
</g>
</svg>
