<?xml version="1.0" encoding="utf-8"?>
<!-- Generator: Adobe Illustrator 24.1.2, SVG Export Plug-In . SVG Version: 6.00 Build 0)  -->
<svg version="1.1" id="Camada_1" xmlns="http://www.w3.org/2000/svg" xmlns:xlink="http://www.w3.org/1999/xlink" x="0px" y="0px"
	 viewBox="0 0 150.6 145.6" style="enable-background:new 0 0 150.6 145.6;" xml:space="preserve">
<style type="text/css">
	.st0{fill:#147834;stroke:#FFFFFF;stroke-width:5;stroke-miterlimit:10;}
</style>
<path id="XMLID_49_" class="st0" d="M55.9,53.9c-5.7,4.6-8.9,11.6-9,19.4c-0.2,8.1,2.6,13.8,4.7,18.2c1.8,3.8,2.8,6.1,2.1,8.1
	c-2.4,7.3-1.8,14.1,1.5,18.6c1.8,2.4,5.2,5.2,11.3,5.2c0.3,0,0.6,0,0.8,0c7.6-0.3,16-4.3,22.9-10.5c5.5-5,12.4-14.1,13.9-27.7
	c2.4-20.5-8.6-31.2-20.9-35c0.3-1.8,0.9-4.4,2.1-6.9c0-0.2,0.2-0.2,0.2-0.3c1.5-3.4,4.1-6.6,8.1-7.3c1.7-0.3,2.8-1.8,2.4-3.5
	c-0.3-1.7-1.8-2.8-3.5-2.4c-4,0.8-6.9,2.8-9.2,5.5c-2.9-6-6.7-10.2-11.8-12.7c-9-4.3-18-0.8-18.3-0.6c-0.8,0.3-1.4,0.9-1.7,1.8
	c-0.3,0.8-0.3,1.7,0.2,2.4c0.5,0.7,9,17,26.7,18.6c-0.5,1.5-0.8,2.9-1.1,4.1C66.7,47.3,59.9,50.6,55.9,53.9z M59.1,26.6
	c2.6-0.3,6.3-0.3,9.8,1.4c4,1.8,7,5.5,9.3,10.7C68.4,37.5,62.1,30.9,59.1,26.6z M98.2,84.4c-2.4,20.6-19.6,32.3-31,32.7
	c-3.2,0.2-5.7-0.8-7-2.8c-2.1-2.8-2.3-7.6-0.6-13c1.5-4.4-0.5-8.4-2.4-12.5c-2-4.1-4.3-8.9-4.1-15.6c0-5.8,2.6-11.3,6.7-14.8
	c3.2-2.6,7.3-4,12.1-4c1.7,0,3.5,0.2,5.3,0.6h0.2C82.9,56,101,60.6,98.2,84.4z"/>
</svg>
