<?xml version="1.0" encoding="utf-8"?>
<!-- Generator: Adobe Illustrator 24.1.2, SVG Export Plug-In . SVG Version: 6.00 Build 0)  -->
<svg version="1.1" id="Camada_1" xmlns="http://www.w3.org/2000/svg" xmlns:xlink="http://www.w3.org/1999/xlink" x="0px" y="0px"
	 viewBox="0 0 150.6 145.6" style="enable-background:new 0 0 150.6 145.6;" xml:space="preserve">
<style type="text/css">
	.st0{fill:#147834;stroke:#FFFFFF;stroke-width:0.75;stroke-miterlimit:10;}
</style>
<g transform="translate(0,-952.36218)">
	<path class="st0" d="M48,981.9c-2.4,0-4.6,0.4-6.4,1.1c-0.5,0.2-0.8,0.8-0.6,1.3c2.1,5.6,4.1,9.5,7.2,12s7,3.6,12.8,3.6
		c0,0,0,0,0,0c3.4-0.1,5.7-1.7,6.5-2.2c0.3-0.2,0.4-0.5,0.5-0.8c0.1-1.6-0.4-3.5-1.1-5.4c-1.6-4.7-6.3-7.5-11.3-8.8
		C53,982.1,50.4,981.8,48,981.9L48,981.9z M78.8,981.9c-0.3,0-0.6,0.2-0.8,0.5c-5.3,8.7-6.4,16.8-6.1,22.7c0.1,2.5,0.5,4.6,0.8,6.2
		c-0.1-0.1-0.1-0.1-0.2-0.2c-4.3-4.3-9.5-6.7-14.7-7.2c-1.7-0.2-3.5-0.1-5.2,0.1c-6.7,1-12.8,5.3-15.7,12.4
		c-5.8,14.3,1.1,33.1,13.3,44.1c4.3,3.9,8.7,6.3,13,7c4.1,0.7,8.1-0.2,11.6-2.6c3.5,2.4,7.5,3.3,11.6,2.6c4.3-0.7,8.7-3.2,13-7
		c12.2-11,19.1-29.8,13.3-44.1c-2.9-7.2-9-11.4-15.7-12.4c-6.7-1-14.2,1.4-19.9,7.1c-0.7,0.7-1.3,1.5-1.8,2.1
		c-0.5-1.5-1.3-4.4-1.5-8.3c-0.3-5.6,0.8-13.3,5.8-21.6C80.1,982.8,79.5,981.8,78.8,981.9L78.8,981.9z M48,983.9
		c2.2,0,4.7,0.2,7,0.8c4.6,1.2,8.6,3.7,9.9,7.5c0,0,0,0,0,0c0.5,1.5,0.8,3,0.8,4.1c-1,0.6-2.5,1.4-4.9,1.5c0,0,0,0,0,0
		c-5.5-0.1-8.9-1-11.5-3.2c-2.4-2-4.2-5.3-6.1-10.1C44.7,984.3,46.2,983.9,48,983.9L48,983.9z M57.7,1006c4.7,0.5,9.5,2.6,13.5,6.6
		c0.8,0.8,1.6,1.8,2.1,2.5c0.3,0.4,0.4,0.7,0.6,0.9c0.2,0.3,0.4,0.6,0.6,0.7c0.1,0.1,0.3,0.1,0.5,0.1c0.5,0.1,0.8-0.5,1.1-0.9
		c0.1-0.2,0.3-0.5,0.6-0.9c0.5-0.7,1.3-1.7,2.1-2.5c5.3-5.3,12.1-7.4,18.2-6.5c6.1,0.9,11.5,4.6,14.1,11.2
		c5.4,13.2-1.1,31.4-12.7,41.9c-4.1,3.7-8.2,5.9-12.1,6.5c-3.8,0.7-7.4-0.2-10.7-2.6c-0.3-0.3-0.8-0.3-1.2,0
		c-3.3,2.4-6.8,3.3-10.7,2.6c-3.8-0.7-8-2.8-12.1-6.5c-11.6-10.5-18.1-28.6-12.7-41.9c2.6-6.5,8-10.3,14.1-11.2
		C54.6,1005.8,56.2,1005.9,57.7,1006L57.7,1006z M100.7,1015.9c-0.7,0.1-1,1.2-0.5,1.7c4,4.2,4.7,8,4.7,12.3c0,0,0,0,0,0
		c0,6.1-3.1,11.7-5.8,15.4c-0.3,0.4-0.2,1.1,0.2,1.4c0.4,0.3,1.1,0.2,1.4-0.2c2.8-3.9,6.2-9.8,6.2-16.6c0,0,0,0,0,0
		c0-4.6-1-9.1-5.3-13.7C101.3,1015.9,101,1015.8,100.7,1015.9z"/>
</g>
</svg>
