<?xml version="1.0" encoding="utf-8"?>
<!-- Generator: Adobe Illustrator 24.1.2, SVG Export Plug-In . SVG Version: 6.00 Build 0)  -->
<svg version="1.1" id="Camada_1" xmlns="http://www.w3.org/2000/svg" xmlns:xlink="http://www.w3.org/1999/xlink" x="0px" y="0px"
	 viewBox="0 0 150.6 145.6" style="enable-background:new 0 0 150.6 145.6;" xml:space="preserve">
<style type="text/css">
	.st0{fill:#147834;stroke:#FFFFFF;stroke-width:0.75;stroke-miterlimit:10;}
</style>
<g>
	<path class="st0" d="M68.7,50.2c-0.2,0-0.3,0-0.5-0.1c-0.5-0.3-0.6-0.9-0.4-1.4c2.8-5,3.5-9.6,2-13.8c-2.7-7.6-11.9-11.3-12-11.3
		c-0.3-0.1-0.5-0.4-0.6-0.7c-0.1-0.3,0-0.6,0.2-0.9l3.6-4.5c0.2-0.3,0.6-0.4,1-0.4c0.2,0,5.4,1.2,10.4,5.7c4.6,4.1,9.9,12,8.9,25.9
		c0,0.6-0.5,1-1.1,0.9c-0.6,0-1-0.5-0.9-1.1c0.8-10.5-2-18.7-8.2-24.2c-3.7-3.3-7.5-4.6-8.9-5.1l-2.4,3c2.8,1.3,9.5,5.2,11.9,11.9
		c1.7,4.7,1,9.9-2.2,15.4C69.4,50,69.1,50.2,68.7,50.2L68.7,50.2z"/>
	<path class="st0" d="M74.9,125.9c-5.5,0-10.6-4.2-14.4-11.9c-3.7-7.5-5.7-17.4-5.7-27.9c0-10.6,2-20.5,5.7-28
		c3.8-7.7,8.9-12,14.4-12c5.5,0,10.7,4.2,14.4,12c3.7,7.5,5.7,17.4,5.7,28c0,10.5-2,20.4-5.7,27.9C85.6,121.7,80.5,125.9,74.9,125.9
		z M74.9,48.2c-4.7,0-9.2,3.9-12.7,10.8c-3.6,7.2-5.5,16.8-5.5,27.1c0,10.2,2,19.8,5.5,27c3.4,7,7.9,10.8,12.7,10.8
		c4.7,0,9.2-3.8,12.7-10.8c3.6-7.2,5.5-16.8,5.5-27c0-10.3-2-19.9-5.5-27.1C84.1,52,79.7,48.2,74.9,48.2L74.9,48.2z"/>
	<path class="st0" d="M103.7,119c-1.8,0-3.4-0.3-4.8-1c-0.3-0.1-0.5-0.4-0.6-0.7c-0.1-0.3,0-0.6,0.3-0.9c6-6.3,9.8-18.6,9.8-32
		c0-13.5-3.8-25.9-9.8-32.2c-0.2-0.2-0.3-0.6-0.3-0.9c0.1-0.3,0.3-0.6,0.6-0.7c1.4-0.6,3-1,4.8-1c5.5,0,10.6,3.7,14.4,10.4
		c3.7,6.5,5.7,15.2,5.7,24.4c0,9.1-2,17.8-5.7,24.3C114.3,115.3,109.2,119,103.7,119L103.7,119z M101.1,116.7
		c0.8,0.2,1.7,0.3,2.6,0.3c4.7,0,9.2-3.3,12.7-9.3c3.5-6.2,5.5-14.5,5.5-23.3c0-18-8.1-32.7-18.2-32.7c-0.9,0-1.8,0.1-2.6,0.3
		c5.8,6.9,9.3,19.1,9.3,32.4C110.4,97.6,106.9,109.7,101.1,116.7L101.1,116.7z"/>
	<path class="st0" d="M90.2,122.5c-2.2,0-4.3-0.7-6.3-1.9c-0.2-0.2-0.4-0.4-0.4-0.7c0-0.3,0-0.6,0.2-0.8c5.8-6.8,9.3-19.4,9.3-33
		c0-15.3-4.4-29-11.2-35c-0.2-0.2-0.3-0.5-0.3-0.7s0.1-0.6,0.3-0.8c2.6-2.3,5.4-3.5,8.4-3.5c3.5,0,6.7,1.5,9.8,4.6
		c6.4,6.7,10.4,19.5,10.4,33.6c0,14-4,26.8-10.4,33.4C96.9,120.9,93.7,122.5,90.2,122.5L90.2,122.5z M86,119.4c1.3,0.7,2.8,1,4.2,1
		c2.9,0,5.6-1.3,8.4-4.1c6-6.3,9.8-18.6,9.8-32c0-13.5-3.8-25.9-9.8-32.2c-2.7-2.7-5.5-4-8.4-4c-2.2,0-4.2,0.8-6.2,2.3
		c6.8,6.7,11.1,20.5,11.1,35.7C95.1,99.5,91.6,112.1,86,119.4L86,119.4z"/>
	<path class="st0" d="M46.1,119c-5.5,0-10.6-3.7-14.4-10.4c-3.7-6.5-5.7-15.1-5.7-24.3c0-9.2,2-17.8,5.7-24.4
		c3.8-6.7,8.9-10.4,14.4-10.4c1.8,0,3.4,0.3,4.8,1c0.3,0.1,0.5,0.4,0.6,0.7c0.1,0.3,0,0.6-0.3,0.9c-6,6.3-9.8,18.6-9.8,32.2
		c0,13.5,3.8,25.7,9.8,32c0.2,0.2,0.3,0.6,0.3,0.9c-0.1,0.3-0.3,0.6-0.6,0.7C49.4,118.7,47.8,119,46.1,119L46.1,119z M46.1,51.6
		c-10,0-18.2,14.7-18.2,32.7c0,8.8,1.9,17.1,5.5,23.3c3.4,6,7.9,9.3,12.7,9.3c0.9,0,1.8-0.1,2.6-0.3c-5.8-6.9-9.3-19.1-9.3-32.3
		c0-13.3,3.6-25.5,9.3-32.4C47.9,51.8,47,51.6,46.1,51.6L46.1,51.6z"/>
	<path class="st0" d="M59.5,122.5c-3.4,0-6.8-1.6-9.8-4.6c-6.4-6.7-10.4-19.5-10.4-33.4c0-14,4-26.9,10.4-33.6
		c3.1-3.1,6.4-4.7,9.8-4.7c3,0,5.8,1.2,8.4,3.5c0.2,0.2,0.3,0.5,0.3,0.7c0,0.3-0.1,0.6-0.3,0.7c-6.8,6.1-11.2,19.8-11.2,35
		c0,13.6,3.6,26.2,9.3,33c0.2,0.2,0.3,0.5,0.2,0.8c0,0.3-0.2,0.5-0.4,0.7C63.8,121.8,61.7,122.5,59.5,122.5L59.5,122.5z M59.5,48.2
		c-2.8,0-5.7,1.4-8.4,4.1c-6,6.3-9.8,18.6-9.8,32.2c0,13.5,3.8,25.7,9.8,32c2.6,2.6,5.5,4,8.4,4c1.4,0,2.9-0.4,4.2-1
		c-5.6-7.3-9.1-19.9-9.1-33.3c0-15.1,4.3-28.9,11.1-35.7C63.7,48.9,61.7,48.2,59.5,48.2L59.5,48.2z"/>
	<path class="st0" d="M83.1,102.8c-0.2,0-0.4-0.1-0.5-0.2c-0.5-0.3-0.6-0.9-0.3-1.4c2.4-3.6,3.8-9.4,3.8-15.3
		c0-6.3-1.6-12.4-4.2-15.8c-0.3-0.4-0.2-1.1,0.2-1.4c0.4-0.3,1.1-0.2,1.4,0.2c2.9,3.8,4.6,10.2,4.6,17c0,6.4-1.5,12.3-4.1,16.4
		C83.8,102.6,83.5,102.8,83.1,102.8L83.1,102.8z"/>
</g>
</svg>
