<?xml version="1.0" encoding="utf-8"?>
<!-- Generator: Adobe Illustrator 24.1.2, SVG Export Plug-In . SVG Version: 6.00 Build 0)  -->
<svg version="1.1" id="Camada_1" xmlns="http://www.w3.org/2000/svg" xmlns:xlink="http://www.w3.org/1999/xlink" x="0px" y="0px"
	 viewBox="0 0 150.6 145.6" style="enable-background:new 0 0 150.6 145.6;" xml:space="preserve">
<style type="text/css">
	.st0{fill:#147834;stroke:#FFFFFF;stroke-width:5;stroke-miterlimit:10;}
</style>
<path id="XMLID_158_" class="st0" d="M55.4,82.2c-2.2-1.1-4.9-1.8-7.5-1.8c-9.4,0-17.2,7.6-17.2,17.2s7.6,17.2,17.2,17.2
	c9.4,0,17.2-7.6,17.2-17.2c0-4-1.4-7.7-3.7-10.7c6.2-4.5,18.7-15.9,23.8-35.5c3.7,7.6,8,19.8,6.4,33c-8.3,1.2-14.7,8.3-14.7,16.9
	c0,9.4,7.6,17.2,17.2,17.2c9.4,0,17.2-7.6,17.2-17.2c0-7.7-5.2-14.4-12.4-16.5c2.3-19.1-6.2-35.8-10.4-42.7l-5.1-14.6
	c-0.7-2-2.8-2.9-4.5-2.2c-2,0.7-2.9,2.8-2.2,4.5l2.5,6.9c-6.7-0.4-13.2,1.5-18.6,5.5c-6.4,4.9-10.4,12.4-10.8,20.4
	c0,0.3,0,0.4,0,0.7l0,0c0,0.3,0.2,0.4,0.2,0.7l0,0c0,0.2,0.2,0.4,0.3,0.5l0,0c0.2,0.2,0.3,0.3,0.3,0.4c0,0,0,0,0.2,0.2
	c0.2,0.2,0.3,0.3,0.4,0.4l0.2,0.2c0.2,0.2,0.3,0.2,0.4,0.3c0,0,0.2,0,0.2,0.2c0.2,0.2,0.4,0.2,0.5,0.3c0,0,0,0,0.2,0l0,0l0,0
	c2.5,0.7,5,1,7.5,1c4.2,0,8.2-1,12-2.8C65.6,74.5,58.3,80.1,55.4,82.2z M47.9,107.3c-5.4,0-9.9-4.4-9.9-9.9s4.4-9.9,9.9-9.9
	s9.9,4.4,9.9,9.9C57.8,103,53.3,107.3,47.9,107.3z M103.8,101.3c0,5.4-4.4,9.9-9.9,9.9c-5.4,0-9.9-4.4-9.9-9.9
	c0-5.4,4.4-9.9,9.9-9.9C99.4,91.3,103.8,95.9,103.8,101.3z M57.1,60.3c1-4.7,3.7-9,7.6-12c4.3-3.2,9.4-4.7,14.7-4
	c-0.2,0.8-0.3,1.8-0.5,2.7c-1.2,3.7-3.7,7-6.9,9.4C67.5,59.5,62.3,60.8,57.1,60.3z"/>
</svg>
