<?xml version="1.0" encoding="utf-8"?>
<!-- Generator: Adobe Illustrator 24.1.2, SVG Export Plug-In . SVG Version: 6.00 Build 0)  -->
<svg version="1.1" id="Camada_1" xmlns="http://www.w3.org/2000/svg" xmlns:xlink="http://www.w3.org/1999/xlink" x="0px" y="0px"
	 viewBox="0 0 150.6 145.6" style="enable-background:new 0 0 150.6 145.6;" xml:space="preserve">
<style type="text/css">
	.st0{fill:#147834;stroke:#FFFFFF;stroke-width:8;stroke-miterlimit:10;}
</style>
<path class="st0" d="M120.7,52.4C114.2,40.2,100.8,33,84.5,33c-2.6,0-5.3,0.2-8,0.5h-0.1c-7.2,1.1-14.5,3.3-21.4,7
	c-12.2,6.6-21.4,16.2-25.9,27.1s-4,22.5,1.3,32.5c6.7,12.8,20.1,20.5,35.7,20.5c8.9,0,18.3-2.5,27-7.1c12.3-6.5,22-16.3,27.1-27.3
	C125.9,74.3,126,62.4,120.7,52.4z M108.5,87l-2.2-3.2c-1.7-2.2-4.7-2.6-6.9-1c-2.2,1.7-2.6,4.7-1,6.9l3.8,5.1
	c-3.8,3.7-8.3,7-13.3,9.8c-6.6,3.4-13.5,5.5-19.9,5.9l-9.4-13.9c-1.6-2.3-4.6-2.8-6.9-1.4c-2.3,1.6-2.8,4.6-1.4,6.9l4.6,6.8
	c-7.2-2.2-13.1-6.9-16.6-13.7c-3.9-7.3-4.2-15.9-0.9-24.1c3.6-8.7,11.1-16.5,21.3-21.8c0.4-0.2,0.9-0.4,1.4-0.6l8.5,11.6
	c1,1.4,2.5,2,4,2c1.1,0,2-0.3,2.9-1c2.2-1.6,2.7-4.7,1.1-6.9l-6.9-9.6c1.6-0.4,3.1-0.9,4.7-1.2l10.9,13.7c1,1.3,2.4,1.9,3.9,1.9
	c1.1,0,2.2-0.3,3.1-1.1c2.1-1.7,2.5-4.8,0.8-6.9l-6.8-8.3c11.3,0.8,20.3,5.9,24.6,14C116.7,66.1,114.9,77.2,108.5,87z"/>
</svg>
