<?xml version="1.0" encoding="utf-8"?>
<!-- Generator: Adobe Illustrator 24.1.2, SVG Export Plug-In . SVG Version: 6.00 Build 0)  -->
<svg version="1.1" id="Camada_1" xmlns="http://www.w3.org/2000/svg" xmlns:xlink="http://www.w3.org/1999/xlink" x="0px" y="0px"
	 viewBox="0 0 150.6 145.6" style="enable-background:new 0 0 150.6 145.6;" xml:space="preserve">
<style type="text/css">
	.st0{fill:#147834;stroke:#FFFFFF;stroke-width:2;stroke-miterlimit:10;}
</style>
<path class="st0" d="M60.8,35.4c1.7-3.8,3.2-7.7,4.9-11.5c7.1,1,13.5,3.2,19,7.5c1.7,1.2,3.1,1.6,5,1.1c2.7-0.5,5.4-0.6,8.2-1
	c1.7-0.2,2.7,0.4,3.6,1.7c3.2,3.7,5.5,8,7.2,12.6c0.3,0.9,0.7,1.9,1.1,2.9c6.9,0.3,13.4,1.7,18.8,6.4c-2.5,3.1-4.8,6.1-7.1,8.9
	c-3.5,4.1-5.1,9.1-5.9,14.4c-0.5,3.5-1.1,7-1.8,10.4c-0.1,0.8-0.4,1.6-0.6,2.4c-2.7,9.5-9.1,14.5-18.7,15.8
	c-2.7,0.3-5.5,0.5-8.5,0.7c-0.9,2.6-1.9,5.4-2.8,8.2c-5.3,0-10.4,0-15.9,0c-0.9-2.7-1.9-5.4-2.8-8.2c-2.7-0.2-5.4-0.4-8-0.6
	c-10.3-1.1-16.8-6.4-19.4-16.4c-1.1-4.2-1.8-8.5-2.4-12.8c-0.7-4.9-2.2-9.4-5.4-13.3c-2.4-3-4.5-6.1-6.8-9.1
	c3.5-4.4,10.2-6.6,21.2-6.5c0-2.3,0-4.5,0-6.8c0-2.2,0-4.4,0-6.8C49.7,34.7,55.2,35.4,60.8,35.4z M77.9,102.3
	c6.9-2,12.9-4.9,17.8-9.9c3-3.2,5.1-6.9,5.5-11.3c0.2-2.8,0.3-5.7-0.1-8.5c-1-6.8-3.9-12.8-7.8-18.8c-11.9,10-23.7,8.8-35.3,0.3
	c-0.4,0.2-0.6,0.3-0.7,0.4c-3.4,5.6-6.2,11.4-7.3,17.9c-2.1,10.7,1.9,19,11.1,24.7c3.1,1.9,6.5,3.1,9.9,4.5c0.6,0.2,1.2,0.2,1.9,0.3
	c0.9-5.6,0.9-5.6-3.5-8.3c-0.9-0.6-1.9-1.1-2.8-1.8c-2.5-1.8-4.9-3.5-6.5-6.2c4,3.3,8.4,5.9,13.5,7.7c0.2-2.6,0.4-4.8,0.6-6.9
	c0.2-1.6-0.3-2.4-1.8-3.1c-3.4-1.8-6.4-3.9-8.7-6.9c-0.7-1-1.3-2.2-2-3.2c4.4,4.8,8.9,7.7,12.7,8c0.2-2.4,0.4-4.8,0.6-7.2
	c0.2,0,0.4,0,0.6,0c0.2,2.5,0.4,5,0.6,7.5c5-0.8,8.6-3.5,12.4-6c-3,4.3-7.5,6.6-12.2,8.9c0.2,3,0.5,5.9,0.7,8.9
	c4.8-1,9-3.3,14.1-7.3c-3.4,5-8.7,7.4-14,10.2C77.5,98.3,77.7,100.1,77.9,102.3z M27.9,56.1c1.8,2.4,3.2,4.7,5,6.7
	c2.9,3.6,4.4,7.7,5.3,12.1c0.3,1.7,0.5,3.4,0.8,5.1c0.8,3.8,1.3,7.8,2.5,11.6c1.9,6.1,6.2,9.8,12.5,11.2c2.6,0.5,5.2,0.6,7.9,0.8
	c0.5,0,1-0.2,1.6-0.4c-2.8-1.9-5.6-3.5-8-5.5c-6.5-5.4-9.8-12.2-9.6-20.7c0.1-6.4,2.1-12.3,4.8-18.1c0.4-0.9,0.8-2,1.2-2.9
	C44.8,51.5,33.7,51.6,27.9,56.1z M87.5,103c0,0.2,0.1,0.4,0.1,0.6c2.1-0.1,4.2-0.1,6.3-0.4c8.4-1.1,13.9-5.7,15.9-14.1
	c0.6-2.8,1.3-5.6,1.6-8.4c0.7-8.3,3.4-15.8,9.1-22c0.8-0.9,1.6-2.1,2.4-3.1c-6.2-4.5-18.9-4-23.6,0.3c1.2,3,2.6,6,3.7,9
	c2,5.2,2.8,10.5,2,16.1c-1.1,7.7-5.2,13.5-11.4,17.9C91.6,100.6,89.6,101.7,87.5,103z M105.7,49.1c-1-3.9-3-7.3-5.1-10.7
	c-1.4-2.5-3.3-3.6-6.2-2.7c-0.5,0.1-1,0.1-1.6,0.2c-4,0.6-8,1.3-11.6,3.2c-1.3,0.7-2.9,1.4-3.4,3.2c7.5,1.2,14.6,3.2,19.2,9.8
	C99.9,51.1,102.8,50.1,105.7,49.1z M60.8,50.7c7.9,7.9,21.7,8.9,29.4,0C82.1,44.5,69.3,44.8,60.8,50.7z M72,42.6
	c-4-2.7-19.1-4.7-24.4-3.2c0,3.4,0,6.9,0,10.7c2.1,0.8,4,1.7,6.1,2.6C57.9,45.5,65.2,44.5,72,42.6z M82,34.1c-4.4-3-9-4.9-14.1-5.9
	c-1.3,2.7-2.4,5.1-3,7.7c3.5,1.1,6.6,2.1,9.7,3.1C77.1,37.4,79.3,35.8,82,34.1z M68.5,107.5c0.6,1.7,1.1,3.2,1.6,4.4
	c3.7,0,7.1,0,10.5,0c0.5-1.7,0.9-3,1.3-4.5C77.5,106.2,73.2,106.1,68.5,107.5z"/>
</svg>
