<?xml version="1.0" encoding="utf-8"?>
<!-- Generator: Adobe Illustrator 24.1.2, SVG Export Plug-In . SVG Version: 6.00 Build 0)  -->
<svg version="1.1" id="Camada_1" xmlns="http://www.w3.org/2000/svg" xmlns:xlink="http://www.w3.org/1999/xlink" x="0px" y="0px"
	 viewBox="0 0 150.6 145.6" style="enable-background:new 0 0 150.6 145.6;" xml:space="preserve">
<style type="text/css">
	.st0{fill:#147834;stroke:#FFFFFF;stroke-width:0.75;stroke-miterlimit:10;}
</style>
<g>
	<g>
		<path class="st0" d="M67.7,115.4c-16.1,0-31.2-6.4-40.6-18.2c-0.7-0.9-1-2.2-0.6-3.3l0.7-2.4c0.3-1,1-1.8,1.9-2.2
			c0.9-0.4,2-0.5,2.9-0.1c12.2,4.7,27.5,4.7,42-0.1c13.5-4.5,24.9-12.6,32.1-22.7c7.1-10.1,9.3-20.9,6-30.7c-0.1-0.5,0-0.9,0.4-1.3
			c4-3.4,8.5-5.2,13.7-5.3l0,0c0.4,0,0.8,0.2,1,0.6s0.2,0.8,0,1.2c-2.8,5-2.9,10.1-2.1,18.4c4,12.2,2.3,25.4-4.8,37.3
			c-7.1,11.9-18.7,21-32.7,25.7C81,114.4,74.3,115.4,67.7,115.4z M30.7,91.2c-0.2,0-0.4,0-0.6,0.1c-0.3,0.2-0.6,0.5-0.7,0.8
			l-0.7,2.4l0,0c-0.1,0.4,0,0.9,0.2,1.2c12.7,15.8,36,21.5,58,14.2c13.5-4.5,24.6-13.2,31.4-24.6c6.8-11.3,8.4-24,4.5-35.5
			c0-0.1,0-0.2-0.1-0.3c-0.8-7.7-0.7-13,1.4-18c-3.6,0.4-6.7,1.8-9.6,4.1c3.1,10.2,0.8,21.6-6.6,32c-7.5,10.6-19.3,18.9-33.3,23.6
			c-15,5-30.8,5-43.5,0.1C31,91.3,30.8,91.2,30.7,91.2z M27.6,94.2L27.6,94.2L27.6,94.2z"/>
		<path class="st0" d="M101,90.1c-0.3,0-0.7-0.1-0.9-0.4c-0.4-0.5-0.4-1.2,0.1-1.6c4.8-4.2,9-9.3,12.3-15.2c0.3-0.6,1-0.8,1.6-0.4
			c0.6,0.3,0.8,1,0.4,1.6c-3.4,6.1-7.7,11.5-12.8,15.8C101.5,90,101.3,90.1,101,90.1z"/>
		<path class="st0" d="M88.2,98.4c-0.4,0-0.8-0.2-1-0.7c-0.3-0.6,0-1.3,0.5-1.6c1.7-0.8,3.4-1.8,5-2.7c0.6-0.3,1.3-0.2,1.6,0.4
			c0.3,0.6,0.2,1.3-0.4,1.6c-1.7,1-3.4,2-5.2,2.8C88.5,98.4,88.3,98.4,88.2,98.4z"/>
	</g>
	<g>
		<path class="st0" d="M44.3,94.5c-0.2,0-0.4,0-0.5-0.1c-9.6-5.1-17-12.9-20.9-22c-0.4-1-0.3-2.2,0.3-3.2l1.2-1.9
			c0.5-0.8,1.3-1.4,2.3-1.5c0.9-0.2,1.9,0.1,2.7,0.6c9.6,7.2,23,11,36.9,10.3c26.7-1.2,47.7-18,46.8-37.4c0-0.6,0.5-1.2,1.1-1.2
			s1.2,0.5,1.2,1.1c1,20.7-21,38.6-49,39.9C52,79.8,38,75.8,28,68.3c-0.3-0.2-0.6-0.3-0.9-0.2c-0.3,0.1-0.6,0.2-0.7,0.5l-1.2,1.9
			c-0.2,0.3-0.2,0.7-0.1,1c3.7,8.6,10.7,16,19.7,20.8c0.6,0.3,0.8,1,0.5,1.6C45.1,94.3,44.7,94.5,44.3,94.5z"/>
	</g>
	<g>
		<path class="st0" d="M50.1,77.8c-0.2,0-0.4-0.1-0.6-0.2c-11-7.3-18.2-18.6-19.1-30.4c-0.1-1,0.3-2,1.1-2.7l1.5-1.2
			c0.7-0.6,1.6-0.8,2.4-0.7c0.9,0.1,1.6,0.6,2.2,1.3c5.9,8.5,15.9,15.2,27.4,18.4c10.8,3,21.9,2.7,31.2-0.8
			c9.2-3.5,15.4-9.6,17.6-17.4c0.2-0.6,0.8-1,1.4-0.8s1,0.8,0.8,1.4c-2.4,8.5-9.1,15.2-19,18.9c-9.8,3.7-21.3,4-32.6,0.9
			c-12.2-3.3-22.6-10.3-28.8-19.2C35.5,45.1,35.3,45,35,45c-0.2,0-0.4,0-0.6,0.2l-1.5,1.2c-0.2,0.2-0.3,0.4-0.3,0.7
			c0.9,11,7.7,21.7,18.1,28.6c0.5,0.4,0.7,1.1,0.3,1.6C50.8,77.6,50.4,77.8,50.1,77.8z"/>
	</g>
</g>
</svg>
