<?xml version="1.0" encoding="utf-8"?>
<!-- Generator: Adobe Illustrator 24.1.2, SVG Export Plug-In . SVG Version: 6.00 Build 0)  -->
<svg version="1.1" id="Camada_1" xmlns="http://www.w3.org/2000/svg" xmlns:xlink="http://www.w3.org/1999/xlink" x="0px" y="0px"
	 viewBox="0 0 150.6 145.6" style="enable-background:new 0 0 150.6 145.6;" xml:space="preserve">
<style type="text/css">
	.st0{fill:#147834;stroke:#FFFFFF;stroke-width:3;stroke-miterlimit:10;}
</style>
<g>
	<path class="st0" d="M73.8,115c-0.1,0-0.3,0-0.4,0l-4.3-0.8c-1.1-0.2-1.9-1.2-1.8-2.4l2.3-23c0,0,0-0.1,0-0.2
		c0.4-2.5-0.8-5.1-3.2-6.3c-2.5-1.6-4.1-4-4.6-6.8c-0.3-1.8-0.1-3.5,0.5-5c-7.4-3.8-10.4-13-6.7-20.4c2.4-4.6,6.8-7.6,12-8.1
		l0.1-0.6c0.8-4.3,2.9-8.2,6-11.2c-1.5-0.7-3.2-1.1-4.8-1.1c-7.3,0-13,6.8-13,15.1c0,0.7,0.1,1.4,0.1,2c0.1,1.1-0.6,2.3-1.8,2.4
		c-5.9,0.9-9.9,6.4-8.9,12.4c0.8,4.8,4.7,8.5,9.5,9.1c0.7,0.1,1.3,0.5,1.7,1.1s0.3,1.3,0,2c-0.7,1.3-0.7,2.9-0.2,4.3
		s1.8,2.6,3.2,3.2c4.3,1.3,7.1,5.3,7.3,9.8c0,1.2-0.9,2.1-2.1,2.1c-1.2,0-2.1-0.9-2.1-2.1c-0.1-2.6-1.8-4.9-4.3-5.6
		c-2.7-1.1-4.9-3.1-5.9-5.8c-0.6-1.7-0.8-3.3-0.5-5C44,71.6,39.2,63.3,41.6,55.3c1.4-5,5.3-8.9,10.2-10.3c0-0.2,0-0.4,0-0.6
		C51.7,33.5,59.4,24.8,69,24.8c3.1,0,6.1,0.9,8.7,2.5c3.2-1.8,7.1-2.5,10.8-1.8c4.7,0.8,8.9,3.8,11.2,8c2.5,4.4,3.2,9.5,2.3,14.4
		c0,0.2,0,0.4-0.1,0.6c7.4,3.9,10.2,13.1,6.3,20.4c-2.5,4.5-6.9,7.5-12,8c0,1.8-0.5,3.3-1.4,4.9c-1.5,2.5-3.9,4.1-6.7,4.6
		c-2.6,0.2-4.8,2.1-5.4,4.8v0.3L81,97.1c-0.3,1.1-1.5,1.8-2.6,1.4c-1.1-0.3-1.8-1.5-1.4-2.6l1.7-5.6c0.9-4.3,4.5-7.5,8.9-8.1
		c1.7-0.2,3-1.2,3.8-2.5c0.8-1.2,1.1-2.7,0.6-4.2c-0.2-0.7,0-1.4,0.4-1.9c0.4-0.5,1.1-0.8,1.8-0.8c5.9,0.5,11.1-3.9,11.7-9.9
		c0.4-4.9-2.5-9.4-7-11c-1.1-0.4-1.8-1.7-1.3-2.6c0.2-0.6,0.4-1.3,0.5-2c0.8-3.9,0.2-7.9-1.8-11.3C93.1,30.1,86,28.1,80.3,31
		c-0.7,0.4-1.3,0.8-1.9,1.3c-3.1,2.5-5.2,6-5.9,9.9c-0.1,0.7-0.2,1.4-0.2,2.1c-0.1,1.1-1.1,2-2.3,2c-5.9-0.2-11,4.4-11.2,10.4
		c-0.2,4.9,3,9.3,7.6,10.7c0.7,0.2,1.2,0.7,1.4,1.4c0.2,0.6,0.1,1.3-0.3,1.9c-0.9,1.1-1.3,2.6-1.1,4.2c0.3,1.5,1.2,3,2.5,3.8
		c3.9,2.1,6,6.4,5.3,10.8l-2,21l0.5,0.1c1.1-2.6,3.1-6.5,6.1-7.9c1.4-0.6,3.1-0.6,4.5,0.1c1.1,0.4,1.8,1.5,1.4,2.7
		c-0.4,1.1-1.5,1.8-2.7,1.4c-0.2-0.1-0.3-0.1-0.5-0.2c-0.3-0.2-0.6-0.2-0.8,0c-1.4,0.6-3.2,3.5-4.4,7
		C75.6,114.5,74.8,115.1,73.8,115L73.8,115z"/>
	<path class="st0" d="M77.4,85h-0.4c-1.1-0.2-1.9-1.3-1.8-2.5l0,0l2.4-11.9c-0.2-0.1-0.5-0.3-0.7-0.4L65.5,58.7
		c-0.8-0.8-0.9-2.3,0-3.1c0.8-0.8,2.3-0.9,3.1,0l0,0l10.1,10L80,58l-6.5-7.2c-0.8-0.9-0.7-2.3,0.1-3.1c0.9-0.8,2.3-0.7,3.1,0.1
		l4.4,4.8l0.8-4.2c0.1-1.2,1.2-2,2.4-1.9c1.2,0.1,2,1.2,1.9,2.4c0,0.1,0,0.2-0.1,0.3l-0.7,4.3l5.8-2.7c1.1-0.6,2.4-0.2,3,0.8
		c0.6,1,0.2,2.4-0.8,3c-0.1,0.1-0.2,0.1-0.4,0.2l-8.7,4.1l-4.6,24.4c-0.2,1.1-1.1,1.8-2.1,1.8H77.4z"/>
</g>
</svg>
