<?xml version="1.0" encoding="utf-8"?>
<!-- Generator: Adobe Illustrator 24.1.2, SVG Export Plug-In . SVG Version: 6.00 Build 0)  -->
<svg version="1.1" id="Camada_1" xmlns="http://www.w3.org/2000/svg" xmlns:xlink="http://www.w3.org/1999/xlink" x="0px" y="0px"
	 viewBox="0 0 150.6 145.6" style="enable-background:new 0 0 150.6 145.6;" xml:space="preserve">
<style type="text/css">
	.st0{fill:#147834;stroke:#FFFFFF;stroke-width:2;stroke-miterlimit:10;}
</style>
<path class="st0" d="M108.2,59.8c1.6-3.7,2.4-9.6-0.5-14.3c-2.3-3.6-5.6-6-9.5-6.8l0.2-0.5l0.1-0.2l0.1-0.2c3.2-8.2-0.8-17.5-9-20.7
	c-1.9-0.7-4-1.1-6.2-1.1c-6.4,0-14,3.4-16.1,10.7c-0.5,1.6-1,4.7-1.3,7.3c-1.7-0.4-3.2-0.5-4.7-0.5c-6,0-10.9,2.5-14.3,7.3
	c-4.7,7.1-2.9,17.1,4.3,22.1c0.2,0.1,0.5,0.4,0.7,0.6c-5.9,1.4-10.3,6.7-10.3,13.1c0,0.6,0,1.3,0.1,1.9c0,7.9,7.3,14.7,17,15.8h0.1
	c1.7,5.6,7.1,10.2,13.8,10.9c0.4,0,0.6,0.1,1,0.1c1.3,5.4,3,11.1,5,17.1c0.4,0.8,1.1,1.4,2,1.4c0.2,0,0.5,0,0.7-0.1
	c1.1-0.4,1.7-1.6,1.3-2.6c-2-5.6-3.6-10.9-4.8-16.1c6.5-1.2,11.4-6,12.2-12.1l4.8,0.1h0.4h0.4c7.6-1.1,12.8-8,11.9-15.7
	c-0.7-5-4.1-9.1-8.5-10.9l2.8-0.6C104.5,65.3,106.8,63.1,108.2,59.8z M90.1,64.3c0,0-4.9,4.7,1.3,5.6l1.1-0.1c0.5-0.1,1-0.1,1.3-0.1
	c4.8,0,8.9,3.5,9.6,8.3c0.7,5.3-3,10.2-8.3,10.9l-7.9-0.2l-1.4,0.2c0.4,1.1,0.5,2.3,0.2,3.4c-0.5,4.4-4.2,7.8-9,8.6
	c-1-4.7-1.7-9.2-2-13.5c1.1-1.8,5.2-7.2,15.3-7.7c1,0,1.7-0.8,1.6-1.8c0-1-0.8-1.7-1.8-1.6c-8,0.4-12.9,3.5-15.6,6.1
	c-0.4-5.8-0.1-11.1,0.4-15.9C79.3,57.9,86,55,91,54.1c1-0.1,1.6-1,1.4-1.9c-0.1-1-1-1.6-1.9-1.4c-4.3,0.7-9.8,2.8-14.5,8
	c1.2-6.6,3-12.3,5-17c0.5-1.1,0-2.3-1.1-2.8s-2.3,0-2.8,1.1c-2,4.8-3.8,10.5-5.2,17.4c-1.9-4.6-4.6-7.3-6.8-8.9
	c-0.7-0.6-1.8-0.4-2.4,0.4c-0.6,0.7-0.4,1.8,0.4,2.4c2.8,2,6.2,6.1,7.6,14.4c-0.5,4.4-0.6,9.2-0.5,14.4c-3.1-2.9-6.8-4.6-9.2-5.4
	c-0.8-0.4-1.8,0.1-2.2,1.1c-0.4,0.8,0.1,1.8,1.1,2.2c2.9,1,8,3.4,10.7,7.8c0.4,4.8,1.1,9.8,2.2,15.1c-6-0.8-10.4-5.5-10.2-10.8
	c-0.5,0-0.8,0-1.3,0c-0.7,0-1.3,0-2-0.1c-7.7-0.8-13.4-6.1-13.2-12C46,77.6,46,77,46,76.4c0-5.2,4.2-9.2,9.2-9.2
	c1.1,0,2.2,0.2,3.1,0.6c0.2,0.1,0.5,0.1,0.7,0.1c2,0,1.4-2.8,1.2-3c-1.3-1.7-6.5-5.4-6.5-5.4c-5.4-3.7-6.7-11-3.1-16.3
	c2.4-3.5,6-5.5,10.8-5.5c2.5,0,5.3,0.5,8.3,1.6c0,0,1-8.8,1.8-11.6c1.3-4.8,6.8-7.6,12-7.6c1.7,0,3.2,0.2,4.7,0.8
	c6,2.4,9,9.2,6.6,15.2l-4,7.8c1.6-0.8,3.1-1.3,4.8-1.3c3.4,0,6.6,1.9,8.6,5c3,4.8,0.2,13.3-3.4,14L90.1,64.3z"/>
</svg>
