<?xml version="1.0" encoding="utf-8"?>
<!-- Generator: Adobe Illustrator 24.1.2, SVG Export Plug-In . SVG Version: 6.00 Build 0)  -->
<svg version="1.1" id="Camada_1" xmlns="http://www.w3.org/2000/svg" xmlns:xlink="http://www.w3.org/1999/xlink" x="0px" y="0px"
	 viewBox="0 0 150.6 145.6" style="enable-background:new 0 0 150.6 145.6;" xml:space="preserve">
<style type="text/css">
	.st0{fill:#147834;stroke:#FFFFFF;stroke-width:3;stroke-miterlimit:10;}
</style>
<g>
	<g>
		<g>
			<path class="st0" d="M38.3,109.4c-0.6,0-1.2-0.2-1.6-0.7c-0.8-0.9-0.8-2.3,0.1-3.1l25.4-25.4c-0.2-0.5-0.5-1.1-0.9-1.8
				C58.9,80,55.2,82,51.8,82h-0.2c-1.8,0-3.4-0.7-4.7-1.9c-2.3-2.3-2.6-4.6-2.3-6c-2.1-0.7-4.3-2-5-4.3c-0.4-1.5-0.2-3,0.6-4.3
				c-1.6-1.2-3.4-3.1-3.8-5.6c-0.5-2.6,0.5-5.1,3-7.6c2.1-2.1,4.2-3.1,6.4-3.1c0.4,0,0.8,0,1.2,0.1c2.6,0.5,4.4,2.3,5.6,3.8
				c0.8-0.5,1.8-0.8,2.8-0.8c0.5,0,1,0.1,1.4,0.2c2.3,0.7,3.6,3,4.3,5.1c0.3,0,0.6-0.1,0.9-0.1c1.2,0,3.1,0.4,5.1,2.4
				c0.1,0.1,0.2,0.2,0.3,0.4c-2.4-6.4-0.3-10.4,2-12.8c1.6-1.4,3.5-2.3,5.5-2.5c-0.1-1.3,0.1-2.6,0.6-3.9c0.8-1.8,2.3-3,4.1-3.6
				c1-0.4,2.1-0.6,3.1-0.6s2.1,0.2,3.1,0.6c1.4-3.9,4-6,7.3-6c0.1,0,0.3,0,0.5,0c1.8,0,3.6,0.8,4.8,2.1c0.1,0.1,0.1,0.1,0.2,0.2
				c2-1.6,4.6-3.2,7.6-3.4c0.1,0,0.3,0,0.4,0c2.3,0,4.5,1,6.1,2.6c1.7,1.6,2.7,4,2.6,6.4c-0.1,2.9-1.8,5.6-3.4,7.6
				c0.1,0,0.1,0.1,0.1,0.1c1.5,1.4,2.3,3.3,2.1,5.4c0,3.2-2.1,5.8-6,7.2c0.8,2,0.8,4.2,0,6.2c-0.5,1.8-1.8,3.3-3.5,4.1
				c-1.1,0.4-2.1,0.6-3.2,0.6l0,0c-0.2,0-0.5,0-0.7,0c-0.2,2-1,4-2.4,5.5c-1.9,2-4.6,3.1-7.4,3.1h-0.1c-0.8,0-1.7-0.1-2.5-0.3
				c0.1,0,0.3,0.1,0.4,0.1c3.1,1.1,4.3,3,4.7,4.5c0.4,0,0.9-0.1,1.3-0.1c2.3,0,4,0.6,5.1,1.8c1,1.2,1.4,2.6,1.3,4.1
				c2,0.4,4.4,1.3,5.8,3.4c1.5,2.2,1.7,4.9,0.5,8.2c-1.2,3.3-3.1,5.3-5.6,6c-0.6,0.2-1.2,0.2-1.8,0.2c-1.8,0-3.5-0.7-4.8-1.4
				c-0.8,1.2-2.1,2-3.6,2.3c-0.2,0-0.4,0-0.6,0c-2.1,0-4-1.4-5.4-2.8c-0.8,0.5-1.9,1-3.4,1c-1,0-2-0.2-3.1-0.6
				c-6.3-2.3-5-11.7-4.3-15.3c-6.6-1.6-12.2-2.6-13.5-2.8l-21,21C39.4,109.2,38.9,109.4,38.3,109.4z M85.2,99.8
				c0.7,0,1.4,0.4,1.8,0.9c1,1.4,2.7,3,3.6,3c0.2,0,0.7-0.4,1.3-1.9c0.1-0.2,0.2-0.5,0.4-0.7c0.4-0.5,1-0.8,1.7-0.8
				c0.5,0,1,0.2,1.4,0.5c0,0,2.2,1.9,4.3,1.9c0.3,0,0.5,0,0.7-0.1c1.1-0.3,1.9-1.4,2.6-3.2s0.7-3.2,0.1-4.1c-1.1-1.5-3.9-1.8-5-1.8
				c-0.7,0-1.4-0.3-1.8-0.9c-0.1-0.1-0.2-0.3-0.2-0.4c-0.3,0.2-0.7,0.3-1.2,0.3c-0.1,0-0.2,0-0.2,0c1.9,0.9,3.6,2,5.2,3.3
				c0.9,0.8,1,2.1,0.3,3c-0.4,0.5-1,0.8-1.7,0.8c-0.5,0-1-0.2-1.4-0.5c-2.1-1.8-5.8-3.6-11.1-5.4c0.1,0.8,0.4,1.6,0.9,2.2
				c0.8,0.8,0.8,2.2,0,3C86.4,99.5,85.8,99.8,85.2,99.8c-0.6-0.1-1.1-0.3-1.5-0.7c-1.7-1.8-2.4-4.3-2.1-6.7
				c-0.9-0.3-1.9-0.6-2.9-0.8c-0.8,4-0.8,9.2,1.5,10c0.6,0.2,1.1,0.3,1.5,0.3c1,0,1.3-0.6,1.4-0.8c0.3-0.8,1-1.3,1.8-1.4
				C85,99.8,85.1,99.8,85.2,99.8L85.2,99.8z M80.7,87.7c3.2,0.9,6.1,1.8,8.7,2.8c1.5-1.3,3.4-2.1,5.4-2.3l0,0c0.6,0,1.2,0.2,1.6,0.6
				c0-0.2-0.1-0.4-0.1-0.5c-0.2-0.2-0.7-0.4-1.8-0.4c-1,0-2.2,0.2-2.9,0.4c-0.3,0.1-0.5,0.1-0.7,0.1c-0.3,0-0.5,0-0.8-0.1
				c-1.1-0.4-1.7-1.7-1.3-2.8c0.1-0.3,0.3-1.4-2-2.2c-0.2-0.1-0.4-0.1-0.7-0.1C84.7,83.1,82.7,84.8,80.7,87.7z M64.7,84
				c2.6,0.5,6.9,1.4,11.5,2.5c2-3.2,5.6-7.8,10-7.8c0.3,0,0.6,0,0.8,0.1c-1.7-0.4-3.3-1.1-4.8-1.9c-2.2-1.2-4.3-2.7-6.2-4.3L64.7,84
				z M45.7,53.6c-1.3,0.1-2.5,0.8-3.3,1.8c-1.4,1.5-2.1,2.7-1.9,3.8c0.3,1.8,2.8,3.3,3.7,3.8c0.2,0.1,0.5,0.3,0.6,0.4
				c0.4,0.4,0.6,1,0.6,1.6s-0.2,1.1-0.6,1.6c-1,1-1.3,1.7-1.2,1.9c0.2,0.8,2.5,1.7,4.3,2c0.5,0.1,0.9,0.3,1.2,0.6
				c0.4,0.4,0.6,1,0.6,1.6s-0.2,1.1-0.6,1.6c-0.2,0.2-0.8,1.2,0.9,2.8c0.4,0.4,1,0.6,1.8,0.6c2.1,0,4.9-1.5,7.2-3
				c-1.3-2-2.6-3.9-4.1-5.7c-1.3,0.5-2.7,0.8-4,0.8c-0.2,0-0.4,0-0.5,0l0,0c-1.2,0-2.2-1-2.2-2.2c0-1.2,1-2.2,2.2-2.2h0.2
				c0.3,0,0.6,0,0.9,0c-1.2-1.1-2.4-2.2-3.7-3.2c-0.5-0.4-0.8-0.9-0.8-1.5c-0.1-0.6,0.1-1.2,0.4-1.6c0.4-0.5,1.1-0.9,1.7-0.9
				c0.5,0,1,0.2,1.4,0.5c3,2.3,5.7,5,8.1,7.9c0.2-0.5,0.3-0.9,0.4-1.4c0-1.2,1-2.1,2.2-2.1s2.2,1,2.2,2.2c-0.2,1.9-0.9,3.7-2,5.1
				c0.2,0.3,0.5,0.7,0.7,1c1.9-3.1,3.3-6.7,1.8-8.2c-0.7-0.7-1.4-1.1-2-1.1c-0.5,0-0.8,0.3-0.8,0.3c-0.4,0.4-1,0.6-1.5,0.6
				c-0.2,0-0.5,0-0.7-0.1c-0.8-0.3-1.3-0.9-1.5-1.7c-0.3-1.7-1.2-4-2-4.3l0,0c-0.4,0-1,0.3-1.9,1.2c-0.2,0.2-0.4,0.3-0.6,0.4
				c-0.3,0.1-0.6,0.2-0.9,0.2c-0.9,0-1.6-0.5-2-1.3c-0.5-1.1-2-3.4-3.8-3.7C46,53.6,45.8,53.6,45.7,53.6z M64.6,75.4
				c0.3,0.5,0.6,1,0.8,1.5l7.5-7.5c-1.6-1.8-3-3.8-4.2-5.9C69.6,67.9,66.3,73.1,64.6,75.4z M79.1,69.5c2.3,1.9,7.1,5.5,11.4,5.5
				c1.7,0,3.2-0.6,4.4-1.8c1.6-1.6,1.1-4.8,1.1-4.8c-0.1-0.4,0-0.9,0.1-1.3c0.3-0.8,1.1-1.3,2-1.3c0.3,0,0.6,0.1,0.9,0.2
				c0.7,0.3,1.4,0.4,2.1,0.4c0.5,0,1-0.1,1.5-0.2c0.5-0.3,0.9-0.8,1.1-1.4c1.1-3.2-0.4-4.1-0.6-4.2c-0.9-0.5-1.3-1.4-1.1-2.4
				c0.2-0.9,0.9-1.7,1.9-1.8c0.6-0.1,5.7-0.9,5.7-3.8v-0.1v-0.1c0.1-0.6-0.1-1.3-0.5-1.7c-0.3-0.2-0.6-0.2-0.9-0.2
				c-0.1,0-0.2,0-0.3,0c-0.1,0-0.2,0-0.4,0c-0.9,0-1.6-0.5-2-1.3c-0.4-0.9-0.2-2,0.6-2.6c0.5-0.4,4.4-3.9,4.6-7.2
				c0-1.2-0.4-2.3-1.3-3.1l-0.1-0.1c-0.7-0.8-1.8-1.3-2.9-1.3h-0.2c-2.9,0.1-6.2,3.3-7.2,4.6c-0.4,0.5-1,0.8-1.7,0.8
				c-0.1,0-0.3,0-0.4,0c-1.2-0.2-2-1.4-1.7-2.6c0.1-0.4,0-0.8-0.2-1.1c-0.4-0.4-0.9-0.5-1.5-0.5c-0.1,0-0.2,0-0.3,0h-0.1H93
				c-3,0-3.8,5.6-3.8,5.7c-0.1,0.7-0.5,1.4-1.2,1.7c-0.3,0.2-0.6,0.2-1,0.2c-0.8,0-1.6-0.5-2-1.2c0,0-0.5-1-2.2-1
				c-0.6,0-1.3,0.1-2,0.4c-0.7,0.2-1.1,0.6-1.4,1.1c-0.3,1.2-0.3,2.5,0.2,3.6c0.2,0.4,0.2,0.9,0.1,1.3c-0.2,1-1.1,1.8-2.2,1.8
				c-0.1,0-0.3,0-0.4,0l0,0c0,0-0.5-0.1-1.2-0.1c-1.1,0-2.6,0.2-3.6,1.2c-2.4,2.4-2.4,5.9,0.1,10.5c1,1.8,2.2,3.5,3.5,5.1l3.1-3.1
				c-2.7-3.8-0.8-8.3,0.7-10.3c0.4-0.6,1.1-0.9,1.8-0.9c0.5,0,0.9,0.2,1.3,0.4c0.5,0.4,0.8,0.9,0.9,1.4c0.1,0.6-0.1,1.2-0.4,1.6
				c-0.1,0.1-1.7,2.4-1,4.4l3.5-3.5c-2-3.6-0.3-7.6,1.1-9.5c0.4-0.6,1.1-0.9,1.8-0.9c0.5,0,0.9,0.2,1.3,0.4c0.5,0.4,0.8,0.9,0.9,1.4
				s-0.1,1.2-0.4,1.6c-0.1,0.1-1.2,1.7-1.2,3.4l6.8-6.8c0.4-0.4,1-0.6,1.5-0.6s1.1,0.2,1.5,0.6c0.9,0.8,0.9,2.2,0.1,3.1l-2.5,2.8
				c0.9,0.3,2,0.5,3.1,0.5c0.6,0,1.1-0.1,1.6-0.2c0.2-0.1,0.5-0.1,0.7-0.1c1,0,1.8,0.6,2.1,1.5c0.4,1.2-0.2,2.4-1.4,2.8
				c-0.9,0.3-1.9,0.4-2.9,0.4h-0.1c-2.3-0.1-4.4-0.6-6.5-1.5l-3.8,3.8c0.9,0.3,2,0.5,3.1,0.5c0.6,0,1.1-0.1,1.6-0.2
				c0.2-0.1,0.5-0.1,0.7-0.1c1,0,1.8,0.6,2.1,1.5c0.4,1.2-0.2,2.4-1.4,2.8c-0.9,0.3-1.9,0.4-2.9,0.4h-0.1c-2.3-0.1-4.4-0.6-6.5-1.5
				L79.1,69.5z"/>
		</g>
	</g>
</g>
</svg>
