<?xml version="1.0" encoding="utf-8"?>
<!-- Generator: Adobe Illustrator 24.1.2, SVG Export Plug-In . SVG Version: 6.00 Build 0)  -->
<svg version="1.1" id="Camada_1" xmlns="http://www.w3.org/2000/svg" xmlns:xlink="http://www.w3.org/1999/xlink" x="0px" y="0px"
	 viewBox="0 0 150.6 145.6" style="enable-background:new 0 0 150.6 145.6;" xml:space="preserve">
<style type="text/css">
	.st0{fill:#147834;stroke:#FFFFFF;stroke-width:5;stroke-miterlimit:10;}
</style>
<path id="XMLID_154_" class="st0" d="M84.5,24.2c1.6-0.5,2.5-2.3,2-4.1c-0.5-1.6-2.3-2.5-4.1-2c-8.7,2.8-10.2,12.2-10.3,17.2
	C60,37.1,56.8,47.6,53.9,56.9c-0.7,2.3-1.4,4.7-2.3,6.8c-0.7,2-2.2,4.5-3.6,7.2c-4,7-8.8,15.5-8.5,25c0.5,17.2,12.8,26,36.2,26
	s35.6-8.6,36.2-25.9c0.4-9.5-4.5-18.2-8.5-25c-1.4-2.7-2.9-5.2-3.6-7.2c-0.9-2.2-1.6-4.5-2.3-6.8c-2.9-9.5-6.3-20.3-19.3-21.6
	C78.7,31.7,79.8,25.8,84.5,24.2z M91.7,58.9c0.7,2.3,1.4,4.9,2.3,7.2c0.9,2.3,2.5,5.2,4.1,8.1c3.4,6.3,7.9,14,7.6,21.8
	c-0.4,9.2-4,19.8-29.9,19.8c-25.7,0-29.5-10.6-29.9-19.8c-0.2-7.7,4.1-15.5,7.6-21.8c1.6-2.9,3.2-5.6,4.1-8.1
	c0.9-2.3,1.6-4.9,2.3-7.2c3.4-11,5.8-17.3,15.7-17.3C85.7,41.6,88.3,47.9,91.7,58.9z"/>
</svg>
