<?xml version="1.0" encoding="utf-8"?>
<!-- Generator: Adobe Illustrator 24.1.2, SVG Export Plug-In . SVG Version: 6.00 Build 0)  -->
<svg version="1.1" id="Camada_1" xmlns="http://www.w3.org/2000/svg" xmlns:xlink="http://www.w3.org/1999/xlink" x="0px" y="0px"
	 viewBox="0 0 150.6 145.6" style="enable-background:new 0 0 150.6 145.6;" xml:space="preserve">
<style type="text/css">
	.st0{fill-rule:evenodd;clip-rule:evenodd;fill:#147834;stroke:#FFFFFF;stroke-width:0.25;stroke-miterlimit:10;}
</style>
<path class="st0" d="M76.1,15.4c-5.3,7.7-7.6,15.7-7,23.9c0.1,0.3,0,0.5-0.4,0.7c-0.3,0.1-0.5,0-0.7-0.2c-1.7-2-3.8-3.5-6.2-4.6
	c-3.5-1.6-7.8-2.2-12.8-1.6c2.9,1.7,5.3,3.5,7.3,5.4c3.2,3.1,5.3,6.8,6.5,11c0.2,0.5,0.4,1,0.4,1.4c0.1,0.3,0,0.5-0.3,0.7
	c-0.3,0.2-0.5,0.2-0.7-0.1c-0.6-0.5-1.1-0.9-1.4-1.1c-3.4-2.6-7.5-3.6-12.4-3l-3.4,0.7c0.7,0.3,1.2,0.6,1.6,0.9
	c2.2,1.1,4.1,2.3,5.8,3.5c3.2,2.3,5.9,4.8,8.2,7.7l0.6-0.3c2.8-1.6,5.8-2.7,9-3.2l0.7-0.1c0.2-0.1,0.6-0.1,1.1-0.1H72l0.9-0.1
	c0.9-0.1,1.6-0.1,2-0.1c0.7,0,1.7,0.1,2.9,0.3l2,0.2l3.5,0.9c2.2,0.7,4.3,1.6,6.1,2.8c4-5.1,9.2-9.1,15.5-12.1
	c-7.1-1.7-12.8-0.6-17.1,3.4c-0.2,0.2-0.4,0.2-0.7,0.1c-0.3-0.2-0.4-0.4-0.3-0.7c0.5-7.9,3.9-15.7,10.3-23.5
	c-6.7,1.4-12.4,5-16.9,10.7c-0.1,0.2-0.3,0.3-0.6,0.2c-0.3,0-0.4-0.1-0.5-0.4C76.7,31.4,75.7,23.7,76.1,15.4L76.1,15.4z M77.1,12.5
	c0.4,0.2,0.5,0.4,0.4,0.7c-0.6,8.4,0.2,16.4,2.4,23.9c5-5.9,11.2-9.4,18.7-10.6c0.3-0.1,0.5,0,0.7,0.3c0.2,0.3,0.2,0.5-0.1,0.7
	c-6.5,7.6-10.2,15.1-11,22.6c4.9-3.8,11.2-4.5,18.8-2.2c0.3,0.1,0.5,0.3,0.5,0.6c0,0.3-0.1,0.5-0.3,0.7c-6.8,2.9-12.3,7-16.6,12.3
	c1.3,0.9,2.5,1.9,3.7,3l0.8,0.7c0.5,0.5,1.3,1.3,2.2,2.4c2.4,2.8,4.3,5.8,5.9,9.3l0.5,1.1c0.8,2.2,1.4,4.2,1.8,6V84
	c0.3,1,0.5,2,0.6,3.1c0.2,1.4,0.3,2.5,0.3,3.2l0.2,5.4l-0.1,0.5c-0.2,3.4-0.7,6.6-1.6,9.6v0.1l-0.9,2.7c-1.5,4-3.7,7.7-6.6,11.1
	l-0.2,0.3l-1.5,1.6c-2.2,2.3-4.7,4.2-7.5,5.7c-1.4,0.8-2.8,1.4-4.1,1.8l-0.8,0.3c-0.4,0.1-0.7,0.2-1.1,0.2c-2.1,0.6-4.5,0.9-7.2,0.9
	c-1.3,0-2.2,0-2.8-0.1h-1l-2.6-0.5c-0.7-0.1-1.5-0.3-2.6-0.7c-1.7-0.6-3.2-1.2-4.2-1.9c-3.3-1.7-6.3-4.2-9.1-7.4l-0.3-0.3
	c-1.9-2.2-3.5-4.7-4.9-7.5l-0.5-0.9c-0.8-1.6-1.4-3.3-2-5.1l-0.1-0.3v-0.1c-0.7-2.4-1.2-5.1-1.4-8l-0.1-7.9l0.1-0.4
	c0-0.6,0.1-1.3,0.3-2.3c0.1-1.1,0.3-2.2,0.6-3.2v-0.1c0.4-1.9,1-3.9,1.8-6c0.6-1.4,1.2-2.6,1.8-3.6l0.4-0.8c1-1.8,2.3-3.7,4.1-5.8
	c0.9-1.1,1.7-1.9,2.5-2.6c0.7-0.7,1.5-1.5,2.6-2.4l1.7-1.2c-2.4-2.9-5-5.3-7.8-7.3c-1.7-1.3-3.7-2.5-5.7-3.5l-3.2-1.5
	c-0.4-0.2-0.5-0.4-0.4-0.7c0-0.3,0.2-0.5,0.5-0.6c2-0.6,3.7-0.9,5.3-1.1c5.1-0.7,9.5,0.3,13.2,3c-1.2-3.7-3.2-7-6-9.8
	c-2-2.1-4.5-3.9-7.6-5.6l-1.1-0.6c-0.3-0.1-0.4-0.4-0.3-0.7c0-0.4,0.2-0.5,0.5-0.5c0.5-0.1,1-0.2,1.5-0.2c5.3-0.7,10-0.2,14,1.6
	c2,0.9,3.8,2.1,5.4,3.7c-0.2-8.5,2.7-16.8,8.6-24.8C76.5,12.5,76.7,12.4,77.1,12.5L77.1,12.5z M77.7,58.3c-1.3-0.2-2.9-0.2-4.7-0.1
	l-2.8,0.3c-3.1,0.6-6,1.6-8.5,3.2l-0.4,0.1l13.7,13.6l13.6-13.5c-1.8-1.1-3.7-1.9-5.5-2.5l-3.4-0.9L77.7,58.3z M89.6,62.5L75.8,76.3
	l17.9,17.9l10.3-10.3c-0.4-1.6-0.9-3.3-1.6-5.3l-0.5-1.1c-1.4-3.3-3.3-6.3-5.7-9c-0.6-0.8-1.4-1.6-2.3-2.4l-0.1-0.2l-0.5-0.4
	C92,64.3,90.8,63.3,89.6,62.5L89.6,62.5z M104.4,85.5l-9.7,9.7l9.2,9.3c0.6-2.5,1-5.2,1.2-8.2l0.1-0.7l-0.2-5.3c0-1-0.1-1.9-0.2-3
	L104.4,85.5z M74.9,77.2L57,95.2L74.9,113l17.9-17.9L74.9,77.2z M96.2,118.9c2.8-3.4,4.9-6.9,6.4-10.7l0.8-2.3v-0.1l-9.8-9.8
	l-17.9,17.9l12,12.1c2.3-1.3,4.6-3,6.8-5.3l1.5-1.6L96.2,118.9z M86.7,126.7l-11.7-11.7l-11.7,11.7c1.1,0.6,2.2,1,3.2,1.4l4.9,1.1
	l3.7,0.1c2.5,0,4.7-0.3,6.9-0.9l0.9-0.2l0.7-0.3C84.8,127.5,85.9,127.1,86.7,126.7L86.7,126.7z M53.5,68.5c-1.7,2-3,3.8-4,5.6
	l-2,4.3c-0.6,1.5-1.2,3.4-1.7,5.5l10.3,10.3l17.9-17.9L60.1,62.5l-1.6,1.2c-0.8,0.7-1.7,1.4-2.6,2.3C55.2,66.7,54.4,67.5,53.5,68.5
	L53.5,68.5z M45,87.4l-0.3,9.3l0.1,1c0.2,2.3,0.6,4.6,1.2,6.7l9.1-9.3l-9.7-9.7L45,87.4z M53.7,119.2c2.5,2.9,5.3,5.2,8.3,6.8
	l11.9-12L56.1,96.1l-9.7,9.8c0.5,1.7,1.2,3.3,2,5l0.3,0.7c1.3,2.5,2.9,4.9,4.9,7.4l0.1,0.1L53.7,119.2z"/>
</svg>
