<?xml version="1.0" encoding="utf-8"?>
<!-- Generator: Adobe Illustrator 24.1.2, SVG Export Plug-In . SVG Version: 6.00 Build 0)  -->
<svg version="1.1" id="Camada_1" xmlns="http://www.w3.org/2000/svg" xmlns:xlink="http://www.w3.org/1999/xlink" x="0px" y="0px"
	 viewBox="0 0 150.6 145.6" style="enable-background:new 0 0 150.6 145.6;" xml:space="preserve">
<style type="text/css">
	.st0{fill:#147834;stroke:#FFFFFF;stroke-width:6;stroke-miterlimit:10;}
</style>
<path class="st0" d="M59.5,29.4c-9.9-0.7-19.4,4.8-25.6,14.8c-1,1.6-1.9,3.3-2.7,5.1l0,0.1C29,54.1,27.6,59.4,27.3,65
	c-0.6,10,1.8,19.2,6.8,26.1c5,6.9,12.2,11,20.3,11.6c10.4,0.7,20.2-4.5,26.1-14c3.4-5.4,5.4-12.1,5.9-19.2c0.7-10-1.6-19.6-6.4-26.9
	C74.8,34.6,67.6,30,59.5,29.4z M75.9,50l-2.8,0.1c-2,0.2-3.4,1.9-3.2,3.9c0.2,2,1.9,3.4,3.9,3.2l4.5-0.4c0.8,3.7,1.1,7.7,0.9,11.8
	C78.8,74,77.5,79,75.3,83l-12,0.5c-2,0.1-3.5,1.7-3.5,3.7c0.1,2,1.7,3.5,3.7,3.5l5.9-0.2c-4.1,3.6-9.2,5.4-14.6,5
	c-6-0.4-11.3-3.5-15.1-8.6c-3.9-5.5-5.9-13.1-5.2-21.3c0-0.3,0.1-0.7,0.2-1.1L45,63.7c1.2-0.1,2.2-0.8,2.7-1.7
	c0.4-0.7,0.6-1.3,0.5-2.2c-0.1-2-1.8-3.4-3.8-3.3l-8.5,0.6c0.4-1.1,0.6-2.2,1.1-3.3l12.5-1.5c1.1-0.1,2.1-0.8,2.6-1.7
	c0.4-0.7,0.7-1.5,0.5-2.3c-0.2-1.9-2-3.4-3.9-3.1l-7.7,1c4.8-6.6,11.3-10.2,17.9-9.7C66.3,37.1,72.4,42.4,75.9,50z"/>
<path class="st0" d="M91.8,37.1c-9.9,0.7-18.6,7.5-23.3,18.2c-0.8,1.7-1.4,3.5-2,5.4l0,0.1c-1.4,5.1-2,10.5-1.6,16.1
	c0.8,10,4.5,18.8,10.4,24.9c5.9,6.1,13.6,9.1,21.8,8.6c10.4-0.7,19.3-7.3,23.8-17.6c2.6-5.8,3.6-12.7,3.1-19.9
	c-0.7-10-4.4-19.2-10.1-25.8C107.7,40,99.9,36.5,91.8,37.1z M111,55.2l-2.8,0.5c-2,0.4-3.1,2.3-2.7,4.3s2.3,3.1,4.3,2.7l4.4-1
	c1.3,3.6,2.2,7.5,2.6,11.6c0.3,5.4-0.3,10.4-1.9,14.8l-11.8,2.1c-2,0.3-3.2,2.2-2.9,4.2c0.3,2,2.2,3.2,4.2,2.9l5.8-1
	c-3.6,4.1-8.4,6.6-13.8,7c-5.9,0.4-11.7-1.8-16.1-6.4c-4.7-4.9-7.6-12.1-8.2-20.3c0-0.3,0-0.7,0-1.1l10.1-2.2c1.2-0.2,2-1.1,2.4-2.1
	c0.3-0.7,0.4-1.4,0.2-2.2c-0.4-1.9-2.3-3.2-4.2-2.7l-8.3,1.8c0.2-1.1,0.3-2.3,0.6-3.4l12.2-3.2c1.1-0.3,1.9-1.1,2.4-2
	c0.3-0.7,0.5-1.6,0.2-2.4c-0.5-1.8-2.4-3.1-4.3-2.5l-7.4,2.1c3.8-7.2,9.7-11.7,16.3-12.1C99.6,43.7,106.4,48.1,111,55.2z"/>
</svg>
