<?xml version="1.0" encoding="utf-8"?>
<!-- Generator: Adobe Illustrator 24.1.2, SVG Export Plug-In . SVG Version: 6.00 Build 0)  -->
<svg version="1.1" id="Camada_1" xmlns="http://www.w3.org/2000/svg" xmlns:xlink="http://www.w3.org/1999/xlink" x="0px" y="0px"
	 viewBox="0 0 150.6 145.6" style="enable-background:new 0 0 150.6 145.6;" xml:space="preserve">
<style type="text/css">
	.st0{fill:#147834;stroke:#FFFFFF;stroke-width:4;stroke-miterlimit:10;}
</style>
<g>
	<path class="st0" d="M91,128.4c-0.8,0-1.6-0.5-2.1-1.2l-1.2-1.8l0,0c-3.9,0-7.7-2.2-9.7-5.7c-1.4-2.4-2.2-5.7-2.2-8.9
		c0-1.5-0.3-3-1-4.2l-27.7-47L25.3,43.6c-0.8-0.6-1.3-1.5-1.5-2.4c-0.1-0.9,0.1-2,0.7-2.8l3-4c0.6-0.8,1.5-1.3,2.4-1.5
		c0.2,0,0.3,0,0.6,0c0.3,0,0.6,0,0.8,0.1l-1.6-2.7c-0.5-0.8-0.6-1.8-0.3-2.8c0.2-0.9,0.8-1.7,1.7-2.2l6-3.5c0.6-0.3,1.2-0.5,1.8-0.5
		c1.3,0,2.5,0.7,3.1,1.8l1.6,2.7c0.1-0.5,0.3-0.9,0.6-1.3c0.6-0.8,1.5-1.3,2.4-1.4l5-0.7c0.1,0,0.3,0,0.5,0c0.8,0,1.6,0.2,2.2,0.8
		c0.8,0.6,1.3,1.5,1.4,2.4l1.7,11.7l2.7-3.7c0.7-0.9,1.7-1.5,2.9-1.5c0.1,0,0.2,0,0.2,0l-1.2-2c-0.5-0.8-0.6-1.7-0.3-2.7
		c0.2-0.9,0.8-1.6,1.6-2.2l5.3-3.1c0.6-0.3,1.2-0.5,1.7-0.5c1.3,0,2.4,0.7,3,1.7l1.2,2c0.5-1,1.5-1.8,2.8-2.1l4.5-0.6
		c0.1,0,0.3,0,0.5,0c1.7,0,3.4,1.4,3.6,3.1l3.2,24l24.7,42c0.6,1,1.5,1.8,2.7,2.4c2.5,1.4,4.9,3.5,6.1,5.7c1.8,3.2,2,7.1,0.2,10.2
		l0.9,1.6c0.7,1.2,0.3,2.7-0.8,3.2c-0.3,0.2-0.8,0.3-1.3,0.3h-0.1c-0.2,0.5-0.6,0.8-0.9,1c-0.3,0.2-0.8,0.3-1.3,0.3h-0.1
		c-0.2,0.5-0.6,0.8-0.9,1c-0.3,0.2-0.8,0.3-1.3,0.3c-0.8,0-1.6-0.5-2.1-1.2l-0.9-1.5c-3.6,0-6.9-2-8.8-5.2c-1.3-2.2-2-5.2-2-8.1
		c0-1.4-0.2-2.5-0.8-3.6l-24.9-42c0,0-19.5-14.4-19.7-14.4l1.3,10.2l27.7,47c0.7,1.2,1.7,2.2,3.1,2.9c2.8,1.5,5.3,3.8,6.7,6.1
		c2.1,3.6,2.1,7.7,0.2,11.2l1.2,1.8c0.7,1.2,0.3,2.7-0.8,3.2c-0.3,0.2-0.8,0.3-1.3,0.3l0,0c-0.1,0-0.2,0-0.3,0
		c-0.2,0.5-0.6,0.9-1,1.3c-0.3,0.2-0.8,0.3-1.3,0.3c-0.1,0-0.2,0-0.3,0c-0.2,0.6-0.6,0.9-1,1.3C91.9,128.3,91.5,128.4,91,128.4z
		 M79.1,104.3c1.2,2,1.7,4.3,1.6,6.7c0,2.3,0.5,4.7,1.5,6.4c1.2,2,3.4,3.2,5.5,3.2c1,0,2.1-0.2,3-0.8c2.9-1.7,3.8-5.7,2.1-8.8
		c-0.9-1.6-2.8-3.2-4.9-4.4c-2.2-1.2-3.9-2.8-5.1-4.6L60.1,63.1L57.7,68L79.1,104.3z M106.6,96.3c1,1.7,1.6,3.8,1.5,6.1
		c0,2,0.5,4.2,1.3,5.5c1,1.7,2.9,2.8,4.7,2.8c0.9,0,1.8-0.2,2.5-0.7c1.2-0.7,2.1-1.8,2.4-3.2c0.3-1.4,0.1-2.9-0.7-4.2
		c-0.8-1.4-2.4-2.9-4.2-3.8c-2-1-3.6-2.5-4.6-4.3L89.5,60.2l-2,3.8L106.6,96.3z M54.7,63l2.4-4.9L38.5,26.5l-3.9,2.3L54.7,63z
		 M84.6,59.1l2-3.8l-16.5-28L67,29.1L84.6,59.1z M41,49.1l-3.7-6.2l-6.5-4.7L29,40.3L41,49.1z M71.5,46.2l-2.7-4.5l-5.5-4l-1.2,1.6
		L71.5,46.2z M53.2,41.8l-2-14.6l-2.8,0.3l1,8L53.2,41.8z M82.9,39.5L81.4,28l-2,0.2l0.9,6.8L82.9,39.5z"/>
</g>
</svg>
