<?xml version="1.0" encoding="utf-8"?>
<!-- Generator: Adobe Illustrator 24.1.2, SVG Export Plug-In . SVG Version: 6.00 Build 0)  -->
<svg version="1.1" id="Camada_1" xmlns="http://www.w3.org/2000/svg" xmlns:xlink="http://www.w3.org/1999/xlink" x="0px" y="0px"
	 viewBox="0 0 150.6 145.6" style="enable-background:new 0 0 150.6 145.6;" xml:space="preserve">
<style type="text/css">
	.st0{fill:#147834;stroke:#FFFFFF;stroke-width:2;stroke-miterlimit:10;}
</style>
<g>
	<path class="st0" d="M121.3,66.7c-0.5-7-3.7-13.3-8.9-17.9c-3.8-3.3-8.4-5.4-13.3-6.1c-2.1-2.5-4.7-4.7-7.7-6.4
		c-3.1-1.6-6.3-2.6-9.6-3c-3.3-3.7-7.6-6.4-12.4-7.8c-6.7-1.9-13.8-1-19.9,2.4c-6.1,3.4-10.5,9-12.4,15.7c-1.5,5.3-0.9,9.4-0.2,13.7
		c0.9,6,1.9,12.7-1.7,25.5c-1.3,4.5-0.7,9.2,1.6,13.2c1.6,2.9,4,5.3,6.9,6.8c0.9,0.5,1.9,0.9,2.9,1.2l-2.5,3.5c0,0-0.1,0.1-0.1,0.1
		c-2,3.8-0.6,8.5,3.2,10.5c3.8,2,8.5,0.6,10.5-3.2c0-0.1,0.1-0.1,0.1-0.2l1.6-4c0.8,0.7,1.7,1.2,2.6,1.7c2.9,1.5,6.1,2.3,9.5,2
		c4.6-0.3,8.9-2.4,11.9-5.9c8.7-10.1,14.9-12.9,20.4-15.5c3.9-1.8,7.7-3.5,11.3-7.7C119.5,80.4,121.8,73.7,121.3,66.7z M99.3,70.3
		c-2.3,4.3-5,6.4-8.5,9C86,83,80,87.5,73.4,99.9c-2.5,4.7-7.4,7.5-12.7,7.5l8.4-21.1l7.9-1c0.8-0.1,1.4-0.9,1.3-1.7
		c-0.1-0.8-0.9-1.4-1.7-1.3l-6.2,0.8l3.4-8.5l7.9-1c0.8-0.1,1.4-0.9,1.3-1.7c-0.1-0.8-0.9-1.4-1.7-1.3l-6.2,0.8l2.7-6.9L90,62.9
		c0.8-0.1,1.4-0.9,1.3-1.7c-0.1-0.8-0.9-1.4-1.7-1.3l-10.1,1.3l3.9-7.2l5.6-0.7c0.8-0.1,1.4-0.9,1.3-1.7c-0.1-0.8-0.9-1.4-1.7-1.3
		l-3.4,0.4l2.6-4.8c0.4-0.7,0.1-1.6-0.6-2c-0.7-0.4-1.6-0.1-2,0.6l-2.6,4.8l-1.5-3.1c-0.4-0.7-1.3-1.1-2-0.7s-1.1,1.3-0.7,2l2.4,5
		l-3.9,7.2l-4.4-9.1c-0.4-0.7-1.3-1.1-2-0.7c-0.7,0.4-1.1,1.3-0.7,2l5.4,11.1l-4.2,6.1l-2.7-5.6c-0.4-0.7-1.3-1.1-2-0.7
		c-0.7,0.4-1.1,1.3-0.7,2l3.5,7.1l-5.2,7.5L61,73.8c-0.4-0.7-1.3-1.1-2-0.7c-0.7,0.4-1.1,1.3-0.7,2l3.5,7.1l-13,18.6
		c-2.9-4.4-3.2-10.1-0.7-14.7c6.6-12.3,7.2-19.8,7.6-25.8c0.3-4.3,0.6-7.8,2.9-12.1c6.1-11.2,20.1-15.4,31.3-9.4
		C101.1,45,105.3,59.1,99.3,70.3z M38,83.7c3.8-13.5,2.7-20.9,1.8-26.8c-0.6-4.3-1.2-7.7,0.2-12.4c1.7-5.9,5.6-10.9,10.9-13.9
		c5.4-3,11.6-3.8,17.6-2.1c3.3,0.9,6.3,2.6,8.9,4.8c-5.5,0.3-10.8,2.4-15.1,5.9l-2-4.1c-0.4-0.7-1.3-1.1-2-0.7
		c-0.7,0.4-1.1,1.3-0.7,2l2.4,4.9c-1.6,1.6-3,3.5-4.1,5.6c-0.2,0.4-0.3,0.7-0.5,1.1l-4.3-8.8c-0.4-0.7-1.3-1.1-2-0.7
		c-0.7,0.4-1.1,1.3-0.7,2l5.5,11.3c-0.6,1.9-0.8,3.8-1,5.7l-1.5-3c-0.4-0.7-1.3-1.1-2-0.7c-0.7,0.4-1.1,1.3-0.7,2l3.7,7.6
		c-0.2,2.5-0.6,5.2-1.5,8.3l-2.2-4.5c-0.4-0.7-1.3-1.1-2-0.7c-0.7,0.4-1.1,1.3-0.7,2l3.5,7.3c-1,2.6-2.3,5.6-4.1,8.9
		c-2.6,4.8-2.7,10.5-0.5,15.4c-2.3-1.3-4.2-3.2-5.6-5.5C37.5,91.3,37,87.4,38,83.7z M48.5,115.7c-2.3-1.2-3.2-4.1-2-6.4l23.8-34.1
		l-15.4,38.7C53.7,116.1,50.8,116.9,48.5,115.7z M112.7,83.7c-3.2,3.7-6.3,5.1-10.3,7C97,93.2,90.2,96.3,81,106.9
		c-2.5,2.9-6,4.6-9.9,4.9c-2.7,0.2-5.3-0.4-7.7-1.6c5.3-0.9,10-4.1,12.6-8.9c1.8-3.3,3.5-6.1,5.2-8.3l8.1-1.1
		c0.8-0.1,1.4-0.9,1.3-1.7c-0.1-0.8-0.9-1.4-1.7-1.3l-5,0.7c2.2-2.5,4.2-4.3,6.1-5.9l8.4-1.1c0.8-0.1,1.4-0.9,1.3-1.7
		c-0.1-0.8-0.9-1.4-1.7-1.3l-3.3,0.4c1.5-1.2,2.9-2.4,4.2-3.9l12.5-1.6c0.8-0.1,1.4-0.9,1.3-1.7c-0.1-0.8-0.9-1.4-1.7-1.3l-9.7,1.3
		c0.2-0.3,0.4-0.7,0.6-1c1.2-2.1,1.9-4.4,2.5-6.6l5.2-0.7c0.8-0.1,1.4-0.9,1.3-1.7c-0.1-0.8-0.9-1.4-1.7-1.3l-4.3,0.6
		c0.6-5.5-0.7-11-3.4-15.7c3.3,0.9,6.3,2.5,8.9,4.8c4.7,4,7.5,9.7,7.9,15.8C118.7,73.1,116.7,79,112.7,83.7z"/>
</g>
</svg>
