<?xml version="1.0" encoding="utf-8"?>
<!-- Generator: Adobe Illustrator 24.1.2, SVG Export Plug-In . SVG Version: 6.00 Build 0)  -->
<svg version="1.1" id="Camada_1" xmlns="http://www.w3.org/2000/svg" xmlns:xlink="http://www.w3.org/1999/xlink" x="0px" y="0px"
	 viewBox="0 0 150.6 145.6" style="enable-background:new 0 0 150.6 145.6;" xml:space="preserve">
<style type="text/css">
	.st0{fill:#147834;stroke:#FFFFFF;stroke-miterlimit:10;}
</style>
<path class="st0" d="M62,60c0,1.2-1,2.1-2.1,2.1c-1.2,0-2.1-1-2.1-2.1c0-1.2,1-2.1,2.1-2.1C61.1,57.9,62,58.9,62,60"/>
<path class="st0" d="M62,70.6c0,1.2-1,2.1-2.1,2.1c-1.2,0-2.1-1-2.1-2.1s1-2.1,2.1-2.1C61.1,68.4,62,69.4,62,70.6"/>
<path class="st0" d="M62,81.1c0,1.2-1,2.1-2.1,2.1c-1.2,0-2.1-1-2.1-2.1c0-1.2,1-2.1,2.1-2.1C61.1,79,62,79.9,62,81.1"/>
<path class="st0" d="M62,91.6c0,1.2-1,2.1-2.1,2.1c-1.2,0-2.1-1-2.1-2.1c0-1.2,1-2.1,2.1-2.1C61.1,89.5,62,90.5,62,91.6"/>
<path class="st0" d="M53.8,75.8c0,1.2-1,2.1-2.1,2.1c-1.2,0-2.1-1-2.1-2.1c0-1.2,1-2.1,2.1-2.1C52.9,73.7,53.8,74.7,53.8,75.8"/>
<path class="st0" d="M53.8,65.3c0,1.2-1,2.1-2.1,2.1c-1.2,0-2.1-1-2.1-2.1c0-1.2,1-2.1,2.1-2.1C52.9,63.2,53.8,64.1,53.8,65.3"/>
<path class="st0" d="M53.8,86.4c0,1.2-1,2.1-2.1,2.1c-1.2,0-2.1-1-2.1-2.1s1-2.1,2.1-2.1C52.9,84.2,53.8,85.2,53.8,86.4"/>
<path class="st0" d="M110.7,54.7c-4.7-5.8-11.1-9.8-18.6-11.8c0,0,0,0,0.1,0c4.9-2.8,8.3-7.4,9.3-13.1l0.2-1l-1-0.3
	C94.8,26.7,88.9,27.2,84,30c-0.1,0.1-0.3,0.2-0.4,0.3c0-0.1,0-0.2,0-0.3c0-5.4-2.5-10.5-7.1-14.3l-0.7-0.6L75,15.7
	c-4.6,3.8-7.1,8.9-7.1,14.3c0,0.1,0,0.2,0,0.3c-0.1-0.1-0.3-0.2-0.4-0.3c-4.9-2.8-10.8-3.3-16.6-1.6l-1,0.3l0.2,1
	c1.1,5.7,4.4,10.3,9.3,13.1c0,0,0,0,0,0c-7.6,1.9-14,6-18.7,11.8c-5.8,7.2-6.3,18.1-1.3,31.5c3.7,10,9,17.7,9.2,17.9
	c0.5,0.8,11.9,20.8,27.2,20.8c15.3,0,26.7-19.9,27.1-20.7c0.2-0.3,5.5-8.1,9.2-18C117,72.8,116.5,61.9,110.7,54.7L110.7,54.7z
	 M85.2,32c4.1-2.3,8.9-2.9,13.7-1.7c-1.1,4.5-3.9,8.2-8,10.4c-4.1,2.3-8.9,2.9-13.7,1.7C78.3,38,81.1,34.3,85.2,32L85.2,32z
	 M75.7,18.1c3.6,3.2,5.5,7.4,5.5,11.8c0,0.7-0.1,1.4-0.2,2.1c-2.4,2-4.2,4.5-5.4,7.5c-1.2-2.9-3-5.5-5.4-7.5c0-0.3-0.1-0.6-0.1-0.9
	c0-0.4,0-0.7,0-1.1C70.2,25.5,72.1,21.4,75.7,18.1L75.7,18.1z M52.6,30.4c4.8-1.2,9.7-0.6,13.7,1.7c4,2.3,6.8,6,8,10.4
	c-4.8,1.2-9.7,0.6-13.7-1.7C56.5,38.5,53.7,34.9,52.6,30.4z M100.8,103c-0.1,0.2-11.2,19.6-25.1,19.6c-13.9,0-25-19.4-25.2-19.7
	c-0.2-0.3-20.9-30.8-8-46.8c5.1-6.3,12-10.2,20.6-11.7c2,0.6,4.1,1,6.3,1c2.1,0,4.2-0.3,6.3-0.9c2.1,0.6,4.2,0.9,6.3,0.9
	c2.1,0,4.2-0.3,6.2-1c8.5,1.5,15.4,5.4,20.5,11.7C121.8,72.1,101,102.6,100.8,103L100.8,103z"/>
</svg>
