<?xml version="1.0" encoding="utf-8"?>
<!-- Generator: Adobe Illustrator 24.1.2, SVG Export Plug-In . SVG Version: 6.00 Build 0)  -->
<svg version="1.1" id="Camada_1" xmlns="http://www.w3.org/2000/svg" xmlns:xlink="http://www.w3.org/1999/xlink" x="0px" y="0px"
	 viewBox="0 0 150.6 145.6" style="enable-background:new 0 0 150.6 145.6;" xml:space="preserve">
<style type="text/css">
	.st0{fill:#147834;stroke:#FFFFFF;stroke-width:5;stroke-miterlimit:10;}
</style>
<g>
	<path class="st0" d="M72.8,114.6c-3.9,0-7.7-1-11-2.8c-2.8,1.8-6.1,2.8-9.5,2.8c-5.6,0-11-2.7-14.2-7.3c-2.7-3.8-3.8-8.3-3-13
		c0.8-4.6,3.3-8.5,7.1-11.2c0.1-0.1,0.2-0.1,0.3-0.2c-1.3-1.3-2.3-2.6-3.4-4.1c-6.6-0.4-11.8-6-11.7-12.7
		c0.1-6.6,5.2-11.8,11.7-12.2c6.8-10.3,21-16.6,37.3-16.6c3.3,0,6.5,0.3,9.8,0.8h0.2c12.1,2,22.1,7.9,27.4,15.8
		c6.5,0.4,11.7,5.9,11.7,12.4c0,6.6-5.2,12-11.7,12.4c-3.9,5.8-10.2,10.5-18.3,13.4c-0.1,5.8-2.3,11.3-6.4,15.5
		c0,0.1-0.2,0.2-0.3,0.3l-0.1,0.1l-0.1,0.1C84.3,112.3,78.7,114.6,72.8,114.6z M41.7,100.4c1.4,4.6,5.6,7.9,10.5,7.9l0,0
		c0.7,0,1.4-0.1,2-0.2c0.7-0.1,1.3-0.3,1.9-0.6c-0.2-0.2-0.4-0.4-0.6-0.6l-0.1-0.1c-0.2-0.3-0.5-0.6-0.7-0.9c-3.1-4-4.8-8.9-4.8-14
		c0-0.5,0-1.1,0.1-1.6V90c0.1-1.2,0.3-2.4,0.6-3.6c-0.1,0-0.6,0.1-0.6,0.1c-0.3,0.1-0.6,0.1-0.9,0.2c-3.7,1.1-6.5,3.9-7.5,7.4
		c1.4,0.4,2.3,1.6,2.3,3.1C44.1,98.7,43.1,99.9,41.7,100.4z M71.7,108.1c0.4,0,0.8,0,1.2,0c3.3,0,6.5-1.1,9.2-3
		c-0.4-0.6-0.6-1.3-0.5-2c0.1-0.9,0.5-1.6,1.2-2.1c0.6-0.5,1.3-0.8,2-0.8c0.6,0,1.1,0.1,1.6,0.4c1.6-2.6,2.6-5.6,2.6-8.7
		c0-1.1-0.1-2.2-0.3-3.3c-1.1-5.2-4.7-9.6-9.5-11.6c-0.5-0.2-1-0.4-1.4-0.5h-0.1c-0.5-0.2-0.9-0.3-1.4-0.4l-0.3-0.1
		c-0.4-0.1-0.8-0.1-1.3-0.2l-0.4-0.1c-0.6-0.1-1.1-0.1-1.6-0.1c-0.4,0-0.9,0-1.5,0.1c-0.2,0-0.3,0-0.5,0.1c-0.3,0-0.6,0.1-0.9,0.1
		c-0.9,0.2-1.8,0.4-2.7,0.7L67,76.6c-4,1.6-7.2,4.5-9,8.3V85c-0.2,0.5-0.4,0.9-0.6,1.3l-0.1,0.2c-0.2,0.4-0.3,0.9-0.4,1.5l-0.1,0.3
		c-0.1,0.5-0.2,1-0.2,1.4c0,0-0.1,0.3-0.1,0.4c-0.1,0.6-0.1,1.2-0.1,1.7c0,0.4,0,0.9,0.1,1.5v0.3c0,0.4,0.1,0.9,0.2,1.3
		c0,0.2,0.1,0.3,0.1,0.5c0.1,0.3,0.2,0.7,0.3,1c0.1,0.2,0.1,0.5,0.2,0.7c0.1,0.3,0.2,0.5,0.3,0.8c0.1,0.2,0.2,0.4,0.2,0.6
		c0.2,0.3,0.3,0.7,0.5,1c0.1,0.2,0.2,0.4,0.3,0.6s0.3,0.5,0.4,0.7c0.1,0.2,0.3,0.4,0.4,0.7c0.2,0.3,0.4,0.5,0.6,0.8
		c0.1,0.2,0.2,0.3,0.4,0.5c0.3,0.3,0.5,0.6,0.8,0.9c0.1,0.1,0.1,0.1,0.2,0.2l0.1,0.1c0.2,0.2,0.4,0.4,0.7,0.6l0.1,0.1
		c0.1,0.1,0.2,0.2,0.3,0.3c0.9,0.7,1.8,1.4,2.8,1.8l0.7-1.8c0.5-1.3,1.6-2.1,3-2.1c0.4,0,0.8,0.1,1.1,0.2c1.6,0.6,2.5,2.4,1.9,4.2
		L71.7,108.1z M72.8,69.2c0.6,0,1.2,0,1.7,0.1h0.4c0.5,0.1,1.1,0.1,1.6,0.2l0.5,0.1c0.5,0.1,1,0.2,1.4,0.3c0.3,0.1,0.5,0.1,0.8,0.2
		s0.5,0.2,0.8,0.2c0.6,0.2,1.1,0.4,1.6,0.6l0.1,0.1c5,2.1,9.2,6,11.5,11l0.1,0.1c0.2,0.5,0.5,1,0.7,1.6c0.1,0.2,0.2,0.5,0.3,0.7
		c0.1,0.2,0.2,0.5,0.2,0.7c0.1,0.2,0.1,0.4,0.2,0.5c6.8-2.7,11.9-6.8,14.6-11.6c0.6-1,1.6-1.6,2.8-1.6c0.1,0,0.2,0,0.4,0
		c0.2,0,0.5,0,0.7,0c3.3,0,6-2.7,6-6c0-1.6-0.6-3.1-1.7-4.3s-2.6-1.7-4.3-1.7l0,0c-0.3,0-0.5,0-0.7,0c-0.1,0-0.3,0-0.4,0
		c-1.2,0-2.2-0.7-2.8-1.6c-3.4-6.1-11-11.1-20.4-13.5v8.4c0,1.7-1.5,3.2-3.2,3.2c-1.7,0-3.2-1.5-3.2-3.2V44c-1.9-0.2-4-0.4-6-0.4
		c-9.3,0-18.3,2.5-24.9,7v5.3c0,1.7-1.5,3.2-3.2,3.2c-1.6,0-2.9-1.2-3.2-2.6c-0.5,0.7-1,1.4-1.4,2.1c-0.6,1-1.6,1.6-2.8,1.6
		c-0.1,0-0.3,0-0.4,0c-0.2,0-0.5,0-0.7,0c-3,0-5.6,2.3-6,5.3c-0.2,1.6,0.3,3.2,1.3,4.5c1,1.3,2.4,2,4.1,2.2c0.2,0,0.5,0,0.7,0
		c0.2,0,0.5,0,0.7,0c0.1,0,0.3,0,0.4,0c1.2,0,2.2,0.7,2.8,1.6c1.4,2.4,3.2,4.5,5.3,6.2l0.3-0.1c0.3-0.1,0.6-0.1,0.9-0.1
		c0.2,0,0.4,0,0.6-0.1c0.4,0,0.8-0.1,1.2-0.1h0.1c0.1,0,0.2,0,0.3,0c0.1,0,0.1,0,0.2,0c0.4,0,0.8,0,1.2,0.1c1-1.6,2.1-3,3.5-4.3
		V61.9c0-1.7,1.5-3.2,3.2-3.2s3.2,1.5,3.2,3.2v9.3c1.9-0.9,4.1-1.5,6.2-1.7h0.1c0.4-0.1,0.8-0.1,1.3-0.1h0.3
		C71.8,69.2,72.3,69.2,72.8,69.2z M102.5,75c-1.7,0-3.2-1.5-3.2-3.2V68c0-1.7,1.5-3.2,3.2-3.2c1.7,0,3.2,1.5,3.2,3.2v3.8
		C105.8,73.5,104.4,75,102.5,75z"/>
</g>
</svg>
