<?xml version="1.0" encoding="utf-8"?>
<!-- Generator: Adobe Illustrator 24.1.2, SVG Export Plug-In . SVG Version: 6.00 Build 0)  -->
<svg version="1.1" id="Camada_1" xmlns="http://www.w3.org/2000/svg" xmlns:xlink="http://www.w3.org/1999/xlink" x="0px" y="0px"
	 viewBox="0 0 150.6 145.6" style="enable-background:new 0 0 150.6 145.6;" xml:space="preserve">
<style type="text/css">
	.st0{fill:#147834;stroke:#FFFFFF;stroke-width:3;stroke-miterlimit:10;}
	.st1{fill:#147834;stroke:#FFFFFF;stroke-width:4;stroke-miterlimit:10;}
</style>
<path id="XMLID_20_" class="st0" d="M66,92.3c0.1,1.1,1.1,2,2.3,1.9c0.7-0.1,1.2-0.4,1.6-0.9c0.2-0.4,0.4-0.9,0.3-1.4
	c0-0.3-0.8-6.9-4.8-10.9c3.1-5.6,2.6-10.5,1.4-13.8c-1.9-5.7-6.9-10.3-12.8-12.3C48.1,53,42,53.6,36.7,54c-4.2,0.2-8,0.6-10.6-0.4
	c-0.9-0.3-2-0.1-2.6,0.8c-0.6,0.8-0.4,1.9,0.2,2.7c1.9,2,2.9,5.8,4.1,9.9c1.4,5.2,3.1,11.1,7,15.9c3.9,4.9,10.1,7.8,16,7.6
	c3.4-0.1,8.1-1.3,12.1-6C65.5,87.5,66,92.3,66,92.3z M50.7,86.3c-4.6,0.1-9.6-2.2-12.7-6c-3.3-4.1-4.9-9.6-6.2-14.5
	c-0.8-2.6-1.4-5-2.3-7.2c2.3,0.1,4.9-0.1,7.6-0.3c5-0.4,10.7-0.9,15.7,0.7c4.7,1.4,8.7,5.3,10.1,9.7c1.2,3.6,0.8,7.3-1.4,10.8
	l-1.1-0.8l0.8-7c0.1-0.6-0.3-1.1-0.9-1.1c-0.6-0.1-1.1,0.3-1.1,0.9l-0.7,5.7l-5.2-3.6l1.1-11.2c0-0.6-0.3-1.1-0.9-1.1
	c-0.6,0-1.1,0.3-1.1,0.9l-1,10.1l-6.2-4.2l0.6-7.1c0-0.6-0.3-1.1-1-1.1c-0.6,0-1.1,0.3-1.1,1l-0.4,5.9l-6.2-4.2
	c-0.4-0.3-1.1-0.2-1.4,0.2s-0.5,1.1,0,1.4l6.2,4.2L36.6,71c-0.6,0.2-0.8,0.9-0.6,1.4c0.2,0.6,0.9,0.8,1.4,0.6l6.4-3l6.2,4.2
	l-9.1,4.4c-0.6,0.2-0.8,0.9-0.4,1.4c0.2,0.6,0.9,0.8,1.4,0.4l10.1-5l5.2,3.6l-5.3,2.6c-0.6,0.2-0.7,0.9-0.4,1.4
	c0.2,0.6,0.9,0.7,1.4,0.4l6.2-3.2l1.1,0.8C57.8,84.4,54.5,86.1,50.7,86.3z"/>
<path id="XMLID_23_" class="st1" d="M75.7,83.9c5.2,6.1,11.3,7.7,15.8,7.8c7.8,0.2,15.9-3.6,21-10c5-6.3,7.2-14,9.1-20.8
	c1.4-5.3,2.9-10.3,5.3-12.9c0.9-0.9,1-2.3,0.2-3.4s-2.1-1.4-3.3-1c-3.3,1.3-8.5,0.9-13.9,0.4c-7-0.7-15-1.3-22.7,1.1
	c-7.8,2.6-14.2,8.7-16.8,16.1c-1.4,4.3-2.2,10.8,1.9,18C67,84.4,66.1,93,66,93.4c-0.1,0.7,0.1,1.3,0.4,1.9c0.4,0.7,1.1,1.1,2,1.2
	c1.6,0.1,2.9-0.9,3-2.4C71.6,94.2,72.4,87.8,75.7,83.9z M79.1,79.6l1.4-1l8.1,4.1c0.7,0.3,1.6,0.1,1.9-0.6s0.1-1.4-0.6-1.9L83,76.8
	l6.9-4.7l13.2,6.6c0.7,0.3,1.6,0.1,1.9-0.7c0.3-0.7,0.1-1.6-0.7-1.9l-11.7-5.9l8.1-5.6l8.5,4c0.7,0.3,1.6,0,1.8-0.7
	c0.3-0.7,0-1.6-0.7-1.8l-7-3.3l8.1-5.6c0.7-0.4,0.8-1.3,0.3-1.9c-0.4-0.7-1.3-0.8-1.9-0.3l-8.1,5.7l-0.6-7.8
	c-0.1-0.8-0.7-1.3-1.4-1.2c-0.8,0.1-1.3,0.7-1.2,1.4l0.7,9.3L91.1,68l-1.2-13.2c-0.1-0.8-0.8-1.3-1.4-1.2c-0.8,0.1-1.3,0.8-1.2,1.4
	l1.4,14.7l-7,4.7l-0.8-7.7c-0.1-0.8-0.8-1.3-1.6-1.2c-0.8,0.1-1.3,0.8-1.2,1.6l1,9.1l-1.5,1c-2.8-4.6-3.4-9.5-1.9-14.1
	c2-5.7,7.1-10.7,13.2-12.7c6.7-2.1,14-1.4,20.6-0.9c3.4,0.3,6.9,0.6,9.9,0.4c-1.1,2.9-2.1,6.1-3,9.5c-1.8,6.3-3.8,13.5-8.1,18.9
	c-4,5-10.5,8.1-16.6,7.9C86.7,86.1,82.5,83.8,79.1,79.6z"/>
</svg>
