<?xml version="1.0" encoding="utf-8"?>
<!-- Generator: Adobe Illustrator 24.1.2, SVG Export Plug-In . SVG Version: 6.00 Build 0)  -->
<svg version="1.1" id="Camada_1" xmlns="http://www.w3.org/2000/svg" xmlns:xlink="http://www.w3.org/1999/xlink" x="0px" y="0px"
	 viewBox="0 0 150.6 145.6" style="enable-background:new 0 0 150.6 145.6;" xml:space="preserve">
<style type="text/css">
	.st0{fill:#147834;stroke:#FFFFFF;stroke-width:2;stroke-miterlimit:10;}
</style>
<g>
	<path class="st0" d="M120,77.3c-0.1-2.8-1.4-5.1-3.4-6.6c1.3-4.4,1.5-10.6-0.9-15.1c-1.6-2.9-4.1-4.8-7.3-5.6
		c-0.3-0.1-0.6-0.1-0.9-0.2c-1.1-7-4.9-10-7.2-11.2c-2.5-1.3-5.4-1.6-7.8-0.9c-3.6-5.5-10.3-7.3-15-5.8c-0.7,0.2-1.3,0.5-1.8,0.8
		c-0.6-0.3-1.2-0.6-1.9-0.8c-4.7-1.6-11.4,0.3-15,5.8c-2.2-0.6-5-0.2-7.4,1C48.9,40,44.9,43,43.7,50c-3.1,0.7-5.7,2.6-7.4,5.6
		c-2.6,4.6-2.7,10.7-1.6,15c-2,1.5-3.3,3.8-3.4,6.6c-0.2,4,1.7,8.2,4.9,10.8c-0.7,1.7-0.5,4,0.6,6.5c2.3,5.7,8,11.6,16.7,15.5
		c0.1,0.1,0.2,0.1,0.3,0.1c6,2.6,13.3,4.3,21.9,4.3c21.2,0,35-10.3,38.9-20c1-2.6,1.2-4.8,0.6-6.5C118.2,85.5,120.2,81.3,120,77.3z
		 M90.1,40.6c0.2,0.4,0.6,0.7,1,0.9c0.4,0.1,0.9,0.1,1.3-0.1c1.3-0.7,3.7-0.9,6.1,0.3c2.8,1.4,4.7,4.3,5.3,8.2
		c-2.7,0.5-5.7,2.3-8.4,6.4c-0.4-0.7-0.9-1.6-1.4-2.4c2.4-2.8,3-5.6,3-5.7c0.1-0.7-0.3-1.4-1.1-1.6c-0.7-0.1-1.4,0.3-1.6,1.1
		c0,0-0.4,1.8-1.9,3.9c-1.5-2.1-3.3-4.2-5.4-5.9c-0.6-0.5-1.4-0.4-1.9,0.2c-0.5,0.6-0.4,1.4,0.2,1.9c4.2,3.4,7.3,8.9,8.5,11.3
		c-0.5,1-1,2.1-1.5,3.3c-1.7-0.7-4.4-1.4-7-0.4c0.2-2.5-0.2-4.7-1.2-6.6c-1.3-2.4-3.3-3.8-4.7-4.5c0.8-3.1,1.5-5.6,1.4-8.3
		c0-3-0.9-5.5-2.5-7.5C81.7,34.1,87.5,35.4,90.1,40.6z M52.8,41.8c2.4-1.2,4.6-1.1,5.8-0.4c0.4,0.2,0.9,0.3,1.3,0.1
		c0.4-0.1,0.8-0.5,1-0.9c2.6-5.2,8.4-6.5,11.6-5.4c3.2,1.1,5,3.7,5,7.5c0,2.3-0.6,4.6-1.4,7.7l-0.3,1.1c-0.2,0.9,0.3,1.8,1.2,2.1
		c0,0,2.7,0.8,4.2,3.5c1.1,2.1,1.2,4.9,0.2,8.2c-1.7,2.3-2.5,5-3,7c-1-0.3-2-0.5-2.9-0.6c-0.8-0.1-1.5,0-2.2,0.1
		c-0.6-2-1.8-5.1-4.2-7.4c1.7-0.4,3.5-1,4.9-1.9c0.6-0.4,0.8-1.2,0.4-1.9c-0.4-0.6-1.2-0.8-1.9-0.4c-1.9,1.2-4.5,1.7-6.8,2
		c-1.1-0.4-2.1-0.5-3.2-0.5c0.6-3.9,2.5-12.5,7.5-19.4c0.4-0.6,0.3-1.4-0.3-1.9c-0.6-0.4-1.4-0.3-1.9,0.3c-2.7,3.7-4.5,7.9-5.8,11.6
		c-1.5-1.5-2.6-3.1-3.4-4.2c-0.4-0.6-1.2-0.8-1.9-0.4s-0.8,1.2-0.4,1.9c1,1.6,2.6,3.8,4.8,5.7c-0.8,3-1.3,5.5-1.5,7
		c-0.4,0.1-0.8,0.3-1.1,0.4c-1.8-5-5-12-11.6-12.6C48.3,44.8,51.1,42.6,52.8,41.8z M39.9,93.3c-1-2.4-0.8-4-0.2-4.5
		c0.4-0.4,0.6-0.9,0.5-1.4c-0.1-0.5-0.4-1-0.8-1.3c-2.9-1.7-4.8-5.4-4.6-8.7c0.1-1.5,0.6-3.5,2.8-4.5c0.8-0.4,1.2-1.3,0.9-2.1
		c-1.3-3.4-1.4-9.3,0.9-13.5c1.2-2.2,3-3.6,5.2-4c5.9-1.2,8.8,3.7,11.7,12c0.2,0.5,0.6,0.9,1,1c0.5,0.2,1,0.1,1.5-0.2
		c0,0,3.9-2.4,6.7-0.7c2.8,1.7,4.2,5.5,4.7,7.4c-0.5,0.3-0.9,0.7-1.3,1.1c-2.5,2.6-3.7,7.1-3.2,11.7c0.6,5.3,0.4,9.8-0.5,13.2
		c-6-5-10.2-11.1-12.9-16.5c1-1.2,2.9-3.6,3.7-7.3c0.2-0.7-0.3-1.4-1-1.6c-0.7-0.2-1.5,0.3-1.6,1c-0.5,2.3-1.5,4.1-2.4,5.2
		c-2.7-6.2-3.6-10.9-3.7-11c-0.1-0.7-0.8-1.2-1.6-1.1c-0.7,0.1-1.2,0.8-1.1,1.6c0.1,0.6,2.4,12.5,10.9,23.6c-1.5,0.4-4,0.8-7.5,0
		c-0.7-0.2-1.4,0.3-1.6,1c-0.2,0.7,0.3,1.4,1,1.6c1.6,0.3,3.1,0.5,4.4,0.5c2.6,0,4.5-0.5,5.5-0.9c2,2.3,4.2,4.5,6.8,6.6
		c-0.5,1-1.1,1.9-1.7,2.6c-1.9,2-4.4,2.9-7.9,2.7C46.1,103,41.5,97.1,39.9,93.3z M111.9,86.2c-0.5,0.3-0.8,0.7-0.8,1.3
		c-0.1,0.5,0.1,1,0.5,1.4c0.6,0.5,0.7,2.1-0.2,4.5c-2.5,6.2-13.1,17.8-35.7,17.8c-2.9,0-5.5-0.2-8-0.5c6.9-1.5,12.6-4.2,17.3-7.5
		c0.2-0.1,0.3-0.1,0.5-0.3c0,0,0-0.1,0.1-0.1c3.2-2.4,6-5,8.4-7.8c1,0.4,2.9,0.9,5.5,0.9c1.3,0,2.8-0.1,4.4-0.5
		c0.7-0.2,1.2-0.9,1-1.6s-0.9-1.2-1.6-1c-3.5,0.7-6.1,0.3-7.6-0.1c2.5-3.3,4.5-6.6,6-9.7c0,0,0,0,0,0c0.2-0.2,0.2-0.4,0.3-0.6
		c3.5-7.3,4.6-13,4.7-13.2c0.1-0.7-0.4-1.4-1.1-1.6c-0.7-0.1-1.4,0.4-1.6,1.1c0,0.1-0.9,4.8-3.7,10.9c-0.8-1.1-1.8-2.9-2.3-5.2
		c-0.2-0.7-0.9-1.2-1.6-1c-0.7,0.2-1.2,0.9-1,1.6c0.8,3.6,2.6,6.1,3.7,7.3c-2.9,5.8-7.5,12.4-14.3,17.6c-1.3-1.8-3.7-5.7-4.2-11.1
		c-0.1-0.7-0.7-1.3-1.5-1.2c-0.7,0.1-1.3,0.7-1.2,1.5c0.6,6,3.2,10.4,4.7,12.4c-5.4,3.6-12.1,6.4-20.5,7.3c1.1-0.6,2.1-1.3,3-2.3
		c3.8-4.1,5.2-11.2,4.1-21.2c-0.4-3.6,0.5-7.1,2.3-8.9c1.1-1.1,2.4-1.6,3.9-1.5c1.1,0.1,2.6,0.6,3.6,1.1c0.5,0.3,1.1,0.3,1.6,0
		c0.5-0.3,0.9-0.8,0.9-1.4c0.1-1.6,0.9-5.4,2.8-7.8c0,0,0-0.1,0.1-0.1c0.4-0.5,0.9-1,1.5-1.3c2.8-1.7,6.7,0.6,6.7,0.7
		c0.4,0.3,1,0.3,1.5,0.2c0.5-0.2,0.9-0.6,1-1c2.2-6.3,6.1-13.5,12.5-12c2.3,0.5,4,1.8,5.1,3.9c2.1,3.8,1.7,9.8,0.3,13.6
		c-0.3,0.8,0.1,1.8,0.9,2.1c2.2,1,2.7,3,2.8,4.5C116.7,80.8,114.8,84.4,111.9,86.2z"/>
</g>
</svg>
