<?xml version="1.0" encoding="utf-8"?>
<!-- Generator: Adobe Illustrator 24.1.2, SVG Export Plug-In . SVG Version: 6.00 Build 0)  -->
<svg version="1.1" id="Camada_1" xmlns="http://www.w3.org/2000/svg" xmlns:xlink="http://www.w3.org/1999/xlink" x="0px" y="0px"
	 viewBox="0 0 150.6 145.6" style="enable-background:new 0 0 150.6 145.6;" xml:space="preserve">
<style type="text/css">
	.st0{fill:#147834;stroke:#FFFFFF;stroke-width:4;stroke-miterlimit:10;}
</style>
<g id="XMLID_28_">
	<path id="XMLID_97_" class="st0" d="M54,57.7c-0.7,2.2-1.3,4.5-2.2,6.5c-0.7,1.8-2.1,4.3-3.5,6.8c-3.8,6.7-8.4,14.9-8.1,24
		c0.3,7.3,3.5,31,34.7,31s34.4-23.7,34.7-31c0.3-9.2-4.3-17.4-8.1-24c-1.4-2.6-2.7-5-3.5-6.8c-0.8-2.1-1.4-4.3-2.2-6.5
		c-2.9-9.3-6.2-19.8-18.7-20.8c-3.1-8.1-7.7-13.7-13.7-16.6c-9.2-4.3-18.2-0.8-18.6-0.5c-0.8,0.3-1.4,0.9-1.7,1.8
		c-0.3,0.8-0.3,1.7,0.1,2.5c0.3,0.7,6.5,12.3,19,17C57.9,45.2,55.9,51.7,54,57.7z M51.2,24.5c2.6-0.4,6.3-0.4,9.8,1.3
		c3.9,1.8,7.2,5.5,9.4,10.7C60.6,35.5,54.2,28.7,51.2,24.5z M74,43c0.3,0,0.7,0,0.9,0c9.6,0,11.8,6,15.1,16.6
		c0.7,2.2,1.4,4.6,2.2,6.9c0.9,2.4,2.4,5,3.9,7.7c3.4,6,7.6,13.4,7.3,20.8c-0.3,9.4-4.5,25.1-28.5,25.1s-28.3-15.6-28.5-25
		c-0.3-7.3,3.9-14.8,7.3-20.8c1.6-2.7,3-5.4,3.9-7.7c0.9-2.4,1.6-4.6,2.2-6.9C63,49.4,65.3,43.3,74,43z"/>
	<path id="XMLID_29_" class="st0" d="M96.1,95.5c0-11.7-9.4-21.1-21.1-21.1s-21.1,9.4-21.1,21.1s9.4,21.1,21.1,21.1
		C86.7,116.7,96.1,107.1,96.1,95.5z M60,95.5c0-8.2,6.7-15.1,15.1-15.1c8.2,0,15.1,6.7,15.1,15.1c0,8.2-6.7,15.1-15.1,15.1
		S60,103.7,60,95.5z"/>
</g>
</svg>
