<?xml version="1.0" encoding="utf-8"?>
<!-- Generator: Adobe Illustrator 24.1.2, SVG Export Plug-In . SVG Version: 6.00 Build 0)  -->
<svg version="1.1" id="Camada_1" xmlns="http://www.w3.org/2000/svg" xmlns:xlink="http://www.w3.org/1999/xlink" x="0px" y="0px"
	 viewBox="0 0 150.6 145.6" style="enable-background:new 0 0 150.6 145.6;" xml:space="preserve">
<style type="text/css">
	.st0{fill:#147834;stroke:#FFFFFF;stroke-width:2;stroke-miterlimit:10;}
</style>
<g>
	<path class="st0" d="M97.6,56.8c-6.2-4-13.2-6.2-20.3-6.4c0.4-9.4,4.1-18,10.9-24.6l1.6-1.6c0.7-0.7,0.7-1.7,0-2.4
		c-0.7-0.7-1.7-0.7-2.4,0l-1.6,1.4c-3.6,3.6-6.4,7.7-8.4,12.2V19.6c0-1-0.9-1.7-1.7-1.7c-1,0-1.7,0.9-1.7,1.7v15.7
		c-2-4.4-4.9-8.7-8.4-12.3L64,21.6c-0.7-0.7-1.7-0.7-2.4,0c-0.7,0.7-0.7,1.7,0,2.4l1.6,1.6c6.7,6.7,10.4,15.3,10.9,24.6
		c-7,0.3-14,2.4-20.3,6.4c-6,4-9.7,10.6-9.9,17.7c-0.1,7.2,3.3,13.9,9.3,18.2l10.1,7.4c6.7,4.7,10.6,12.3,10.6,20.3
		c0,1,0.9,1.7,1.7,1.7c1,0,1.7-0.9,1.7-1.7c0-8,4-15.9,10.6-20.3l10.3-7.3c5.9-4.1,9.4-10.9,9.3-18.2
		C107.4,67.1,103.8,60.7,97.6,56.8z M96.2,89.7L96.2,89.7c-0.3,0-0.4,0-0.7,0H75.6c-1,0-1.7,0.9-1.7,1.7c0,1,0.9,1.7,1.7,1.7h15.8
		l-5.5,3.8c-4.7,3.6-8.3,8.3-10.3,13.6c-2-5.4-5.4-10-10.3-13.4L55,89.8c-4.1-2.9-6.7-7.3-7.4-12h28c1,0,1.7-0.9,1.7-1.7
		c0-1-0.9-1.7-1.7-1.7H47.3c0.3-6,3.1-11.3,8.2-14.6c6.2-4,13.2-6,20.2-6s14,2,20.2,6c5.1,3.4,8,8.7,8.2,14.9
		C104.1,80.7,101.4,86.3,96.2,89.7z"/>
</g>
</svg>
