<?xml version="1.0" encoding="utf-8"?>
<!-- Generator: Adobe Illustrator 24.1.2, SVG Export Plug-In . SVG Version: 6.00 Build 0)  -->
<svg version="1.1" id="Camada_1" xmlns="http://www.w3.org/2000/svg" xmlns:xlink="http://www.w3.org/1999/xlink" x="0px" y="0px"
	 viewBox="0 0 150.6 145.6" style="enable-background:new 0 0 150.6 145.6;" xml:space="preserve">
<style type="text/css">
	.st0{fill:#147834;stroke:#FFFFFF;stroke-width:2;stroke-miterlimit:10;}
</style>
<path class="st0" d="M120.4,69.3c0.5-0.6,0.7-1.4,0.6-2.2v-0.5c-4-30.1-26.2-34-44.3-31.9c-0.5-2.2-2.3-3.9-4.5-4.3
	c-0.2-2.3-0.1-7.2,3-8c0.9-0.1,1.5-0.9,1.4-1.8c-0.1-0.9-0.9-1.5-1.8-1.4c-0.1,0-0.2,0-0.3,0.1c-5.4,1.3-5.7,8-5.5,11.1
	c-2.4,0.6-4.1,2.5-4.6,4.9c-0.1,0.5-0.5,0.8-0.9,0.9c-14.6,4.2-24.9,20.6-24.9,39.8c0,18.8,9.9,35.1,24.4,39.7
	c0.8,0.2,1.4,0.8,1.6,1.6c0.7,2.8,3.3,4.7,6.2,4.6c2.9,0.2,5.5-1.8,6.2-4.6c0.2-0.8,0.8-1.4,1.6-1.6c14.3-4.5,24.3-20.9,24.3-39.7
	c0-1.7-0.1-3.5-0.3-5.2c1.8,0.2,3.7,0.3,5.7,0.3c3.5,0,6.9-0.3,10.4-0.7C119.3,70.3,120,69.9,120.4,69.3z M99.4,76.1
	c0,17.4-9.1,32.5-22,36.6c-1.8,0.6-3.2,2-3.7,3.9c-0.3,1.4-1.6,2.4-3.1,2.2c-1.4,0.2-2.8-0.8-3.1-2.2c-0.5-1.8-1.9-3.3-3.7-3.9
	c-13-4.1-22-19.2-22-36.6s9.5-33,22.6-36.8c1.6-0.4,2.8-1.6,3.2-3.2c0.6-2.5,2.1-2.7,3.2-2.7c1.6-0.1,2.9,1,3.1,2.6
	c0,0.1,0.1,0.3,0.1,0.4c-0.3,0.6-0.4,1.3-0.3,1.9c0.1,0.7,0.3,1.6,0.4,2.8c0.7,5.8,2,16.6,10.9,23.6c4.2,3.1,9,5.1,14.2,5.8
	C99.3,72.3,99.4,74.2,99.4,76.1z M86.9,62c-7.9-6.1-9-15.7-9.6-21.4c-0.1-1.1-0.2-2-0.4-2.8c24.3-2.9,38,6.9,41,29.1l0.1,0.3
	C104,69,93.6,67.3,86.9,62z"/>
</svg>
