<?xml version="1.0" encoding="utf-8"?>
<!-- Generator: Adobe Illustrator 24.1.2, SVG Export Plug-In . SVG Version: 6.00 Build 0)  -->
<svg version="1.1" id="Camada_1" xmlns="http://www.w3.org/2000/svg" xmlns:xlink="http://www.w3.org/1999/xlink" x="0px" y="0px"
	 viewBox="0 0 150.6 145.6" style="enable-background:new 0 0 150.6 145.6;" xml:space="preserve">
<style type="text/css">
	.st0{fill:#147834;stroke:#FFFFFF;stroke-width:7;stroke-miterlimit:10;}
</style>
<g id="XMLID_76_">
	<path id="XMLID_58_" class="st0" d="M36.4,96c13.4,10.2,31.7,13.7,48.7,9.4c17.9-4.4,32.7-16.9,39.5-33c0.8-1.7,1.9-3.4,3.4-5.4
		c2.8-3.3,4-7.2,3.1-10.8c-1-3.6-3.8-6.7-7.8-8.2c-2.4-1-4.1-1.9-5.5-3.1c-13.5-11.2-32.2-15.1-50.2-10.6
		C50.5,38.7,36,50.3,28.9,65.5c-1,2.3-2.5,4.3-4.8,6.4c-3.4,3.4-4.8,7.8-4,11.8c1,4.1,4.3,7.1,9,8.7C32.3,93.4,34.5,94.5,36.4,96z
		 M30,77.9c3-3,5-5.8,6.4-9c6-13.1,18.5-23,33.2-26.6c15.5-3.8,31.5-0.4,42.9,9c2.3,1.7,4.7,3.1,7.8,4.4c1.6,0.6,2.5,1.6,2.8,2.5
		c0.3,1-0.1,2.3-1.3,3.4c-2.3,2.5-3.8,5-4.8,7.5c-5.6,13.8-18.4,24.4-33.7,28.1c-14.8,3.6-30.4,0.6-41.8-8.1c-2.7-2-5.8-3.6-9.9-4.8
		c-1.9-0.6-3.1-1.6-3.4-2.7C27.8,80.7,28.5,79.3,30,77.9z"/>
	<path id="XMLID_66_" class="st0" d="M95.9,82.6c-0.3-1.1-1.3-1.7-2.4-1.4c-1.1,0.3-1.7,1.3-1.4,2.4c0.3,1.1,1.3,1.7,2.4,1.4
		C95.6,84.6,96.2,83.7,95.9,82.6z"/>
	<path id="XMLID_57_" class="st0" d="M99.5,71.7c-0.3-1.1-1.3-1.7-2.4-1.4c-1.1,0.3-1.7,1.3-1.4,2.4c0.3,1.1,1.3,1.7,2.4,1.4
		C99,73.8,99.6,72.7,99.5,71.7z"/>
	<path id="XMLID_79_" class="st0" d="M110.4,70.1c-0.3-1.1-1.3-1.7-2.4-1.4c-1.1,0.3-1.7,1.3-1.4,2.4c0.3,1.1,1.3,1.7,2.4,1.4
		C110.1,72.2,110.7,71.1,110.4,70.1z"/>
	<path id="XMLID_55_" class="st0" d="M113.5,60.6c-0.3-1.1-1.3-1.7-2.4-1.4c-1.1,0.3-1.7,1.3-1.4,2.4c0.3,1.1,1.3,1.7,2.4,1.4
		C113.2,62.7,113.8,61.7,113.5,60.6z"/>
</g>
</svg>
