<?xml version="1.0" encoding="utf-8"?>
<!-- Generator: Adobe Illustrator 24.1.2, SVG Export Plug-In . SVG Version: 6.00 Build 0)  -->
<svg version="1.1" id="Camada_1" xmlns="http://www.w3.org/2000/svg" xmlns:xlink="http://www.w3.org/1999/xlink" x="0px" y="0px"
	 viewBox="0 0 150.6 145.6" style="enable-background:new 0 0 150.6 145.6;" xml:space="preserve">
<style type="text/css">
	.st0{fill:#147834;stroke:#FFFFFF;stroke-width:4;stroke-miterlimit:10;}
</style>
<path class="st0" d="M116.9,49.6h-5.8c-3.1-7.6-8.5-14-15.6-18.3l0,0l0,0h-0.2l-0.2-0.2h-0.3h-0.2h-0.3h-5l4.4-5h5.7
	c1.4,0,2.5-1.1,2.5-2.5s-1.1-2.5-2.5-2.5h-6.6c-0.6-0.2-1.4,0.2-1.9,0.5L82.7,31H57.1h-0.3c-0.2,0-0.2,0-0.3,0h-0.4l-0.3,0.2h-0.2
	h-0.2l0,0c-7,4.3-12.5,10.8-15.5,18.5h-5.8c-0.9,0-1.9,0.6-2.4,1.4c-3.5,7.7-5.4,16.2-5.5,24.9c0,25.5,19.8,42.7,49.5,42.7
	s49.4-17,49.4-42.7c-0.2-8.7-2-17.2-5.8-25C118.8,50.2,118,49.6,116.9,49.6z M58,36h20.5c-0.5,1.3,0.2,2.8,1.6,3.3
	c0.3,0.2,0.6,0.2,0.9,0.2c0.8,0,1.4-0.3,1.9-0.8l2.2-2.5h8.5c5.2,3.3,9.4,8,12.3,13.7H46C48.4,44,52.7,39.3,58,36z M75.6,113.7
	c-22,0-44.3-11.7-44.3-37.6c0-7.4,1.7-14.6,4.7-21.3h79.2c3,6.8,4.6,14,4.7,21.3C120.1,102,97.7,113.7,75.6,113.7z"/>
<path class="st0" d="M88.2,83.9c-1.3-0.8-2.8-0.5-3.5,0.8c-5,7.9-13.9,10.9-20.5,12.1c-1.4,0.2-2.5,1.4-2.4,2.8
	c0.2,1.4,1.4,2.5,2.8,2.4h0.5C76,100,84.2,95.1,89,87.7C89.8,86.3,89.5,84.7,88.2,83.9L88.2,83.9z"/>
</svg>
