<?xml version="1.0" encoding="utf-8"?>
<!-- Generator: Adobe Illustrator 24.1.2, SVG Export Plug-In . SVG Version: 6.00 Build 0)  -->
<svg version="1.1" id="Camada_1" xmlns="http://www.w3.org/2000/svg" xmlns:xlink="http://www.w3.org/1999/xlink" x="0px" y="0px"
	 viewBox="0 0 150.6 145.6" style="enable-background:new 0 0 150.6 145.6;" xml:space="preserve">
<style type="text/css">
	.st0{fill:#147834;stroke:#FFFFFF;stroke-width:6;stroke-miterlimit:10;}
</style>
<g id="XMLID_74_">
	<path id="XMLID_89_" class="st0" d="M131.1,48.8c0-0.1,0-0.3,0-0.4s0-0.3-0.1-0.4c0-0.1,0-0.1-0.1-0.3c0-0.1-0.1-0.3-0.1-0.4
		s-0.1-0.1-0.1-0.3c-0.1-0.1-0.1-0.3-0.3-0.4l-0.1-0.1l0,0c-0.1-0.1-0.3-0.3-0.4-0.3l-0.1-0.1c-0.1-0.1-0.4-0.3-0.5-0.3
		c0,0,0,0-0.1,0c-0.4-0.1-1-0.3-1.4-0.3H116H35.2H23.6c-0.5,0-1,0.1-1.4,0.3c0,0,0,0-0.1,0c-0.1,0.1-0.4,0.1-0.5,0.3l-0.1,0.1
		c-0.1,0.1-0.3,0.1-0.4,0.3l0,0L21,46.6c-0.1,0.1-0.1,0.3-0.3,0.4c0,0.1-0.1,0.1-0.1,0.3c0,0.1-0.1,0.3-0.1,0.4c0,0.1,0,0.1-0.1,0.3
		c0,0.1-0.1,0.3-0.1,0.4s0,0.3,0,0.4s0,0.1,0,0.3c0,0,0,0,0,0.1c0,0,0,0,0,0.1c1.4,29.6,25.8,53,55.4,53c29.8,0,54.1-23.2,55.4-53
		c0,0,0,0,0-0.1c0,0,0,0,0-0.1S131.1,49,131.1,48.8z M112.1,52.6c-2.9,17.7-18.2,31-36.4,31s-33.6-13.3-36.4-31H112.1z M75.7,95.2
		c-24.8,0-45.1-18.4-48.1-42.6h4.5c3,21.6,21.5,38,43.6,38s40.6-16.4,43.6-38h4.5C120.8,76.7,100.3,95.2,75.7,95.2z"/>
	<path id="XMLID_88_" class="st0" d="M79.2,73.1c0-2-1.6-6.8-3.7-6.8c-2.1,0-3.7,4.8-3.7,6.8s1.6,3.7,3.7,3.7
		C77.6,76.8,79.2,75.2,79.2,73.1z"/>
	<path id="XMLID_83_" class="st0" d="M95.9,68.7c1.5-1.5,1.5-3.8,0-5.3c-1.5-1.5-6-3.7-7.5-2.2s0.8,6,2.2,7.5
		C92.1,70.2,94.4,70.2,95.9,68.7z"/>
	<path id="XMLID_81_" class="st0" d="M60.6,68.1c1.5-1.5,3.7-6,2.2-7.5s-6,0.8-7.5,2.2c-1.5,1.5-1.5,3.8,0,5.3S59.2,69.6,60.6,68.1z
		"/>
</g>
</svg>
