<?xml version="1.0" encoding="utf-8"?>
<!-- Generator: Adobe Illustrator 24.1.2, SVG Export Plug-In . SVG Version: 6.00 Build 0)  -->
<svg version="1.1" id="Camada_1" xmlns="http://www.w3.org/2000/svg" xmlns:xlink="http://www.w3.org/1999/xlink" x="0px" y="0px"
	 viewBox="0 0 150.6 145.6" style="enable-background:new 0 0 150.6 145.6;" xml:space="preserve">
<style type="text/css">
	.st0{fill:#147834;stroke:#FFFFFF;stroke-width:3;stroke-miterlimit:10;}
</style>
<g>
	<g>
		<g>
			<path class="st0" d="M75.6,95.7c-1.2,0-2.2-1-2.2-2.2c0-0.6,0.2-1.2,0.7-1.5c0.4-0.4,1-0.7,1.5-0.7c1.2,0,2.2,1,2.2,2.2
				c0,0.6-0.2,1.2-0.7,1.5C76.7,95.5,76.3,95.7,75.6,95.7L75.6,95.7z"/>
		</g>
		<g>
			<path class="st0" d="M75.6,103.2c-0.6,0-1.2-0.2-1.5-0.7c-0.8-0.8-0.8-2.2,0-3.1c0.4-0.4,1-0.7,1.5-0.7c0.6,0,1.2,0.2,1.5,0.7
				c0.8,0.8,0.8,2.2,0,3.1C76.7,102.9,76.3,103.2,75.6,103.2L75.6,103.2z"/>
		</g>
		<g>
			<path class="st0" d="M74.4,110.6c-5.8,0-9.6-4.4-9.6-11V84.5c-12.6-0.4-21.1-8.3-21.1-19.6c0-4,3.2-7.2,7.2-7.2s7.2,3.2,7.2,7.2
				c0,4.2,3.2,6,6.3,6.3c-2.2-2.5-3.4-5.6-3.4-8.9c0-2.2,0.7-4.4,2.2-6.2c-1.9-2-3.4-4.6-3.4-9.9c0-15.9,10.8-17,14.1-17
				c9.9,0,13.3,10.3,13.7,16.6c0,0.2,0.1,0.3,0.1,0.5c0,0.2,0,0.3,0,0.4v0.1v0.1c0,0.2,0,0.5,0,0.7c0,3-0.8,5.9-2.2,8.5
				c1.5,1.8,2.3,4.1,2.2,6.5c0,0.2,0,0.5,0,0.8v0.1c-0.2,2.7-1.2,8.7-1.9,13c0.2-0.2,0.4-0.3,0.5-0.5l0.1-0.1
				c1.1-1.2,1.8-2.9,1.8-4.7c0-2.5,1-5,2.9-6.9c1.9-1.9,4.3-2.9,6.9-2.9s5,1,6.9,2.9c1.8,1.8,2.9,4.3,2.9,6.9
				c0,12.2-9.2,21.1-22.4,22v6.6C85.2,105.7,80.4,110.6,74.4,110.6L74.4,110.6z M69.7,102.8c0.6,1.7,1.9,3.4,4.7,3.4
				c3.6,0,6.5-2.9,6.5-6.5v-8.6c0-1.2,1-2.2,2.2-2.2c11.8,0,20.1-7.2,20.1-17.7c0-2.9-2.3-5.2-5.2-5.2c-2.9,0-5.2,2.3-5.2,5.2
				c0,2.9,2.3,5.2,5.2,5.2c1.2,0,2.2,1,2.2,2.2s-1,2.2-2.2,2.2c-2.9,0-5.5-1.2-7.2-3.3c-0.1,0.2-0.2,0.4-0.4,0.5
				c0.2,1.2,1.3,2.1,2.5,2.1c1.2,0,2.2,1,2.2,2.2c0,1.2-1,2.2-2.2,2.2c-2.5,0-4.8-1.4-6.2-3.4c-1.2,0.6-2.5,1-3.8,1l0,0
				c-0.1,0-0.3,0-0.4,0c-0.6-0.1-1.1-0.4-1.5-0.8c-0.4-0.5-0.5-1.1-0.4-1.7c0.4-2.1,0.8-5.2,1.4-8.3c-1.2,0.6-2.6,0.8-4.1,0.8
				c-1.2,0-2.2-1-2.2-2.2s0.9-2.2,2.2-2.2c2.9,0,5.2-2.3,5.2-5.2c0-2.1-0.7-2.9-2.2-4.7c-0.8-0.8-0.8-2.2,0-2.9
				c0.2-0.3,0.4-0.6,0.6-0.8c-1.5,0.6-3,0.8-4.7,0.8h-0.2c-1.2,0-2.2-1-2.2-2.2c0-1.2,1-2.2,2.2-2.2c2.9,0,6.2-1.2,6.5-3.6
				c-0.1-1.5-0.4-2.9-0.8-4.4c-1.9,1.7-4.7,2.5-8.2,2.5c-1.2,0-2.2-1-2.2-2.2c0-1.2,1-2.2,2.2-2.2c4.2,0,5.6-1.4,6.2-2.7
				c-1.4-2.5-3.9-4-6.7-4c-4.4,0-9.8,2.2-9.8,12.6c0,4.7,1.5,6.2,2.9,7.8c0.3,0.3,0.4,0.5,0.6,0.7c0.8,0.8,0.8,2.2,0,2.9
				c-1.5,1.8-2.2,2.6-2.2,4.7c0,2.5,1.1,5,3,6.6c0.5,0.4,0.8,1.1,0.8,1.7v2.9c0,1.2-1,2.2-2.2,2.2h-1.4c-1.5,0-3-0.3-4.5-0.8
				c-0.8,1.7-2.5,2.9-4.4,3.1c2.7,1.2,5.9,1.9,8.9,1.9h1.2c1.2,0,2.2,1,2.2,2.2v6.2c0,1.5,1.2,2.7,2.7,2.7c1.2,0,2.2,1,2.2,2.2
				c0,1.2-1,2.2-2.2,2.2c-1,0-1.9-0.2-2.7-0.6v0.8c0,1.5,1.2,2.7,2.7,2.7c1.2,0,2.2,1,2.2,2.2s-1,2.2-2.2,2.2
				C71.2,103.2,70.4,102.9,69.7,102.8z M50.8,62.2c-1.5,0-2.7,1.2-2.7,2.7c0,5.2,2.2,8.9,5.6,11.5c0-0.1,0-0.2,0-0.3
				c0-1.2,1-2.2,2.2-2.2c0.6,0,1.2-0.4,1.4-1c-0.8-0.8-1.7-1.8-2.2-2.9c-0.8,0.5-1.9,0.7-2.9,0.7c-1.2,0-2.2-1-2.2-2.2
				c0-1.2,1-2.2,2.2-2.2c0.8,0,1.5-0.7,1.5-1.5C53.5,63.5,52.4,62.2,50.8,62.2z"/>
		</g>
		<g>
			<path class="st0" d="M73.1,72.2c-1.2,0-2.2-1-2.2-2.2c0-0.6,0.3-1.2,0.7-1.5c0.4-0.4,1-0.6,1.5-0.6c0.6,0,1.1,0.2,1.5,0.6
				c0.5,0.5,0.7,1,0.7,1.5C75.4,71.2,74.4,72.2,73.1,72.2z"/>
		</g>
		<g>
			<path class="st0" d="M79.3,64.8c-0.6,0-1.1-0.2-1.5-0.6c-0.4-0.4-0.7-1-0.7-1.5c0-1.2,1-2.2,2.2-2.2c1.2,0,2.2,1,2.2,2.2
				C81.5,63.7,80.5,64.6,79.3,64.8L79.3,64.8L79.3,64.8z"/>
		</g>
		<g>
			<path class="st0" d="M75.6,64.8c-0.6,0-1.1-0.2-1.5-0.6c-0.4-0.4-0.7-1-0.7-1.5c0-1.2,1-2.2,2.2-2.2c1.2,0,2.2,1,2.2,2.2
				C77.8,63.7,76.8,64.6,75.6,64.8L75.6,64.8L75.6,64.8z"/>
		</g>
		<g>
			<path class="st0" d="M71.9,54.7c-0.6,0-1.2-0.2-1.5-0.7c-0.4-0.4-0.7-1-0.7-1.5c0-0.6,0.2-1.2,0.7-1.5c0.4-0.4,1-0.7,1.5-0.7
				s1.2,0.2,1.5,0.7c0.4,0.4,0.7,1,0.7,1.5c0,0.6-0.2,1.2-0.7,1.5C73,54.6,72.4,54.7,71.9,54.7z"/>
		</g>
		<g>
			<path class="st0" d="M68.2,44.8c-0.6,0-1.2-0.2-1.5-0.7c-0.4-0.4-0.7-1-0.6-1.5c0-0.6,0.2-1.2,0.7-1.5c0.4-0.4,1-0.7,1.5-0.7
				c0.6,0,1.2,0.2,1.5,0.7c0.8,0.8,0.8,2.2,0,3.1C69.3,44.6,68.7,44.8,68.2,44.8L68.2,44.8L68.2,44.8z"/>
		</g>
	</g>
</g>
</svg>
