<?xml version="1.0" encoding="utf-8"?>
<!-- Generator: Adobe Illustrator 24.1.2, SVG Export Plug-In . SVG Version: 6.00 Build 0)  -->
<svg version="1.1" id="Camada_1" xmlns="http://www.w3.org/2000/svg" xmlns:xlink="http://www.w3.org/1999/xlink" x="0px" y="0px"
	 viewBox="0 0 150.6 145.6" style="enable-background:new 0 0 150.6 145.6;" xml:space="preserve">
<style type="text/css">
	.st0{fill:#147834;stroke:#FFFFFF;stroke-width:6;stroke-miterlimit:10;}
</style>
<path id="XMLID_114_" class="st0" d="M49.4,109.6c-1.9,0.7-2.8,2.8-2.1,4.7c0.4,1,1.1,1.8,2.1,2.2c0.7,0.3,1.6,0.4,2.4,0.1
	c0.6-0.1,11.2-4.2,16.1-12.5c10.5,3,18.5-0.1,23.4-3.4c8.7-5.6,14.4-15.8,15-26.4c0.7-10.5-2.9-20.5-5.8-29.2
	c-2.3-6.8-4.7-13.3-3.9-17.9c0.2-1.6-0.8-3.3-2.3-3.8c-1.6-0.6-3.3,0-4.3,1.4c-2.5,3.9-8.5,7.3-14.6,11c-8.2,4.4-17.1,9.6-23.5,18.1
	c-6.5,8.7-8.8,20.1-5.9,29.9c1.6,5.6,5.6,12.8,14.9,17.6C57.3,106.7,49.5,109.7,49.4,109.6z M53,81.6c-2.3-7.7-0.3-16.9,4.8-23.5
	c5.6-7.2,13.9-12.1,21.3-16.4c3.9-2.3,7.8-4.6,11-7c0.8,4,2.3,8.2,3.8,12.5c2.9,8.1,6,17.3,5.5,26.4c-0.5,8.3-5.2,16.5-11.7,20.9
	c-5.4,3.6-11.7,4.3-18.5,2.2l0.8-2.1L81.8,93c0.9-0.2,1.6-1,1.5-2c-0.2-0.9-1-1.6-2-1.5l-9.9,1.4l3.8-10.3l18.9-3
	c0.9-0.2,1.7-1.1,1.5-2c-0.2-0.9-1.1-1.7-2-1.5l-17.1,2.7L81,64.6l12.1-2.1c0.9-0.2,1.7-1.1,1.5-2c-0.2-0.9-1.1-1.7-2-1.5l-10,1.7
	l4.5-12.1c0.3-0.9-0.2-1.9-1-2.2c-0.9-0.3-1.9,0.2-2.2,1l-4.5,12.1l-6.5-7.8c-0.6-0.7-1.8-0.9-2.5-0.2c-0.7,0.6-0.9,1.8-0.2,2.5
	l7.8,9.5l-4.5,12.1L62.3,62.4c-0.6-0.7-1.8-0.8-2.5-0.2c-0.7,0.6-0.8,1.8-0.2,2.5l12.6,14.7l-3.8,10.2l-6.6-7.6
	c-0.7-0.8-1.8-0.8-2.5-0.2c-0.7,0.6-0.8,1.8-0.2,2.5l8,9l-0.8,2.1C59.1,92.6,54.7,87.8,53,81.6z"/>
</svg>
