<?xml version="1.0" encoding="utf-8"?>
<!-- Generator: Adobe Illustrator 24.1.2, SVG Export Plug-In . SVG Version: 6.00 Build 0)  -->
<svg version="1.1" id="Camada_1" xmlns="http://www.w3.org/2000/svg" xmlns:xlink="http://www.w3.org/1999/xlink" x="0px" y="0px"
	 viewBox="0 0 150.6 145.6" style="enable-background:new 0 0 150.6 145.6;" xml:space="preserve">
<style type="text/css">
	.st0{fill:#147834;stroke:#FFFFFF;stroke-width:6;stroke-miterlimit:10;}
</style>
<path id="XMLID_120_" class="st0" d="M74.3,47.8c-5,3.8-10.1,7.6-14.8,10.4c-0.9,0.5-1.6,1-2.5,1.5c-9.9,5.6-23.4,13.4-31.6,25.3
	c-9.5,13.8-8.9,27.8,1.8,38.4c5.6,5.6,12.1,8.4,19.1,8.4c5.8,0,11.8-1.9,17.8-5.6c12.5-7.9,20.8-22.3,26.8-32.6
	c0.5-0.9,1-1.6,1.4-2.4c2.6-4.6,6.6-9.8,10.4-14.8c9.5-12.5,20-26.4,14.1-36.9c11.1-13.1,5-23.1,4.6-23.6c-1.3-1.9-3.8-2.5-5.8-1.3
	c-1.9,1.3-2.5,3.8-1.3,5.8c0,0,3,5.3-3.6,13.4C100.5,27.9,86.7,38.4,74.3,47.8z M96.1,71.2c-3.9,5.1-8,10.5-10.9,15.5l0,0
	c-0.5,0.8-0.9,1.6-1.4,2.5c-5.6,9.8-13.3,23-24,29.8c-7,4.5-17.4,7.8-26.8-1.6c-9.8-9.8-5.9-20.5-0.8-27.9
	C39.5,79.2,52,71.9,61.2,66.7c0.9-0.5,1.8-1,2.6-1.5c5-2.9,10.4-7,15.5-10.9c2.8-2,5.4-4.1,8-6l8,0.6l-1.6,5.3l0,0
	c0,0.1-0.1,0.3-0.1,0.4s0,0.1,0,0.3v0.1c0,0.1,0,0.3,0.1,0.4l0,0l0,0c0,0.1,0.1,0.3,0.1,0.3l0.1,0.1l0.1,0.1l0.1,0.1l0.1,0.1
	l0.1,0.1l0.1,0.1c0.1,0,0.1,0.1,0.3,0.1H95l0,0l0,0c0.1,0,0.3,0,0.4,0.1h0.1h0.1h0.1h0.1c0.1,0,0.3,0,0.3,0l0,0l5.1-1.6l0.6,8
	C100.2,65.8,98.2,68.6,96.1,71.2z M105.8,57.7l-0.5-5.4c0-0.6-0.4-1.1-0.9-1.5c-0.5-0.4-1.1-0.5-1.8-0.3l-3.9,1.1l1.1-3.9
	c0.1-0.6,0.1-1.3-0.3-1.8c-0.4-0.5-0.9-0.9-1.5-0.9l-5.4-0.5c4.3-2.6,8.3-4.4,11.4-4.4c1.8,0,3.1,0.5,4.4,1.8
	C111.8,45.4,109.8,51.2,105.8,57.7z"/>
</svg>
