<?xml version="1.0" encoding="utf-8"?>
<!-- Generator: Adobe Illustrator 24.1.2, SVG Export Plug-In . SVG Version: 6.00 Build 0)  -->
<svg version="1.1" id="Camada_1" xmlns="http://www.w3.org/2000/svg" xmlns:xlink="http://www.w3.org/1999/xlink" x="0px" y="0px"
	 viewBox="0 0 150.6 145.6" style="enable-background:new 0 0 150.6 145.6;" xml:space="preserve">
<style type="text/css">
	.st0{fill:#147834;stroke:#FFFFFF;stroke-width:3;stroke-miterlimit:10;}
</style>
<g>
	<g>
		<g>
			<path class="st0" d="M35.4,55.4L35.4,55.4c-1.4-0.1-2.3-1.2-2.3-2.5c0-4.8,1.4-9.6,3.8-13.8c0.4-0.7,1.1-1.1,1.9-1.1
				c0.2,0,0.4,0,0.5,0c2.1,0,4.2,0.4,6.2,1.2c1.3,0.5,1.9,1.9,1.4,3.2c-0.4,0.9-1.2,1.5-2.2,1.5c-0.3,0-0.6-0.1-0.9-0.2
				c-1.1-0.4-2.2-0.7-3.4-0.8c-1.6,3.2-2.4,6.7-2.5,10.3c0,1.3-1.1,2.3-2.4,2.3h-0.1V55.4z"/>
		</g>
		<g>
			<path class="st0" d="M115.8,54c-1.3,0-2.4-1.1-2.4-2.4c0.1-4-0.7-8-2.5-11.6c-0.3,0-0.7,0.1-1,0.1l-1.2,0.2V40
				c-0.8-0.3-1.5-1-1.6-1.9c-0.2-1.3,0.6-2.6,1.9-2.8c0.9-0.2,1.8-0.3,2.8-0.3c0.2,0,0.4,0,0.7,0c0.8,0.1,1.5,0.5,1.9,1.1
				c2.7,4.7,4.1,10,3.9,15.4C118.2,52.9,117.1,54,115.8,54z"/>
		</g>
		<g>
			<path class="st0" d="M115.1,65.3c-1.3,0-2.4-1.1-2.4-2.4c0-3.3-1.8-6.2-4.6-7.8c-0.9-0.5-1.4-1.5-1.2-2.6
				c0.2-0.8,0.2-1.5,0.2-2.3c0-1.4-0.3-2.8-0.8-4.2c-1.7-4.5-6.1-7.5-10.9-7.5c-1.4,0-2.8,0.3-4.1,0.8h-0.1
				c-0.2,0.1-0.5,0.1-0.7,0.1c-1.1,0-2-0.7-2.3-1.7c-1.4-4.3-4.8-7.5-9.1-8.7c-1.2-0.2-2.3-0.4-3.4-0.4c-5.9,0-11.1,4-12.6,9.7
				c-0.3,1-1.2,1.8-2.3,1.8c-0.1,0-0.3,0-0.4,0c-0.5-0.1-1-0.1-1.6-0.1c-2.4,0-4.6,0.9-6.3,2.6s-2.6,3.9-2.5,6.2
				c0,0.8,0.1,1.5,0.3,2.2s0,1.5-0.4,2.1C49.5,53.7,48.8,54,48,54h-0.3c-4.9,0-8.9,4-8.9,8.9c0,1.3-1.1,2.4-2.4,2.4S34,64.2,34,62.9
				c0-6.7,4.8-12.3,11.3-13.5c0-0.2,0-0.4,0-0.6c0-7.5,6.1-13.7,13.7-13.7c0.1,0,0.2,0,0.3,0c1.8-4.5,5.3-8,9.8-9.9
				c2.2-0.9,4.5-1.4,6.9-1.4c7,0,13.2,4,16.2,10.2c1.2-0.3,2.3-0.4,3.5-0.4c9.1,0,16.5,7.4,16.5,16.5c0,0.5,0,1-0.1,1.6
				c3.6,2.6,5.7,6.7,5.7,11.1C117.5,64.2,116.4,65.3,115.1,65.3z"/>
		</g>
		<g>
			<path class="st0" d="M68.6,107.5c-0.3,0-0.6-0.1-0.9-0.2c-1.8-0.8-3.6-1.7-5.3-2.7c-1.4,0.9-3.1,1.4-4.8,1.4h-0.3
				c-1.3,0-2.4-1.1-2.4-2.4s1.1-2.4,2.4-2.4c0,0,0.1,0,0.2,0c-3-2.4-5.9-4.9-8.5-7.7c-1,0.3-2,0.5-3,0.5l0,0c-1.3,0-2.6-0.3-3.8-0.9
				c-0.6-0.3-1-0.8-1.2-1.4s-0.2-1.3,0.1-1.8c0.4-0.8,1.2-1.3,2.2-1.3c0.4,0,0.7,0.1,1.1,0.3c0.2,0.1,0.4,0.2,0.7,0.2
				c-1.8-2.1-3.5-4.3-5.1-6.6l-0.1-0.1c-0.7-1.1-0.4-2.6,0.7-3.3c0.4-0.3,0.9-0.4,1.3-0.4c0.8,0,1.6,0.4,2,1.1
				c3.3,4.5,6.9,8.8,10.9,12.7c0.1-0.5,0.1-1,0.1-1.5c0-1.3,1.1-2.4,2.4-2.4s2.4,1.1,2.4,2.4c-0.1,1.8-0.4,3.5-1,5.1
				c3.2,2.8,6.8,5.1,10.8,6.8c0.9,0.4,1.5,1.2,1.5,2.2C71,106.4,69.9,107.5,68.6,107.5L68.6,107.5z"/>
		</g>
		<g>
			<path class="st0" d="M75.6,116c-0.5,0-46-2.1-46-47.5c0-1.3,1.1-2.4,2.4-2.4c0.6,0,15.3,0.1,17.6,8.6c6.8,0.7,14.6,4.4,15.7,12.9
				c4.1,1.1,12,5.5,12.8,23.4c8.3-0.9,37.4-6.6,38.9-39.9c-3.5,0.4-10.6,1.6-10.6,5.9c0,1.3-1.1,2.4-2.4,2.4
				c-0.5,0-13.1,0.1-13.1,10.3c0,1.3-1.1,2.4-2.4,2.4c0,0-4.8,0.2-7.8,7c-0.4,0.9-1.3,1.4-2.2,1.4c-0.3,0-0.6-0.1-0.8-0.2
				c-1.2-0.5-1.9-1.9-1.4-3.1c2.9-6.6,7.3-8.8,10-9.6c0.8-8.5,8.6-12.3,15.4-13c2.3-8.5,17-8.6,17.6-8.6c1.3,0,2.4,1.1,2.4,2.4
				C121.7,113.8,76.2,115.9,75.6,116L75.6,116L75.6,116L75.6,116z M34.4,71.1c1.5,33.2,30.4,38.9,38.8,39.9
				c-0.8-18.5-9.9-18.9-10.3-18.9c-1.3,0-2.4-1.1-2.4-2.4c0-4.3-2-7.2-6.3-8.9c-2.2-0.9-4.5-1.3-6.9-1.4l0,0c-1.3,0-2.4-1.1-2.4-2.4
				C45.1,72.7,38,71.4,34.4,71.1z"/>
		</g>
		<g>
			<path class="st0" d="M82.7,107.5c-1,0-1.9-0.6-2.2-1.5c-0.5-1.2,0.1-2.6,1.3-3.1c4.5-2,8.6-4.7,12.2-8c-0.6-1.7-1-3.4-1-5.2
				c0-1.4,1.1-2.4,2.4-2.4s2.4,1.1,2.4,2.4c0,0.5,0.1,1,0.2,1.5c3.5-3.5,6.7-7.3,9.6-11.3c0.5-0.6,1.2-1,2-1c0.5,0,0.9,0.1,1.3,0.4
				c0.5,0.4,0.9,0.9,1,1.5s0,1.3-0.3,1.8c-1.6,2.3-3.3,4.5-5.1,6.6c0.2-0.1,0.5-0.1,0.7-0.2c0.3-0.2,0.7-0.2,1.1-0.2
				c0.9,0,1.7,0.5,2.2,1.3c0.6,1.2,0.1,2.6-1.1,3.2s-2.4,0.9-3.7,0.9c-1.1,0-2.1-0.2-3.1-0.5c-2.1,2.2-4.4,4.4-6.8,6.3
				c1.3,0.1,2.3,1.1,2.3,2.4s-1.1,2.4-2.4,2.4h-0.2c-1.6,0-3.1-0.4-4.5-1.2c-2.2,1.5-4.6,2.8-7.1,3.8
				C83.3,107.5,83,107.5,82.7,107.5z"/>
		</g>
		<g>
			<path class="st0" d="M84.1,45.5c-1,0-1.9-0.6-2.3-1.6c-0.7-1.5-1.9-2.8-3.5-3.5c-0.8-0.4-1.7-0.5-2.7-0.5c-2.7,0-5.1,1.6-6.2,4.1
				c-0.3,0.9-1.2,1.5-2.2,1.5l0,0c-0.3,0-0.5,0-0.8-0.1c-1.3-0.4-1.9-1.8-1.5-3.1c1.2-2.9,3.5-5.2,6.4-6.4c1.4-0.6,2.9-0.9,4.4-0.9
				c4.7,0,8.9,2.8,10.7,7.2c0.2,0.7,0.2,1.3-0.1,1.9c-0.3,0.6-0.8,1-1.4,1.2C84.7,45.5,84.4,45.5,84.1,45.5z"/>
		</g>
		<g>
			<path class="st0" d="M103.8,59.6c-1,0-1.9-0.6-2.3-1.6c-0.7-1.5-1.9-2.8-3.5-3.5c-0.8-0.4-1.7-0.5-2.7-0.5
				c-2.7,0-5.1,1.6-6.2,4.1c-0.2,0.9-1.1,1.5-2.2,1.5c-0.3,0-0.5,0-0.8-0.1c-1.3-0.4-1.9-1.8-1.5-3.1c1.2-2.9,3.5-5.2,6.4-6.4
				c1.4-0.6,2.9-0.9,4.4-0.9c4.7,0,8.9,2.8,10.7,7.2c0.5,1.3-0.2,2.7-1.5,3.1C104.4,59.6,104.1,59.6,103.8,59.6z"/>
		</g>
		<g>
			<path class="st0" d="M96.8,72.3c-1,0-1.9-0.6-2.3-1.6c-0.7-1.5-1.9-2.8-3.5-3.5c-0.8-0.4-1.7-0.5-2.7-0.5c-2.7,0-5.1,1.6-6.2,4.1
				c-0.3,0.9-1.2,1.5-2.2,1.5c-0.3,0-0.5,0-0.8-0.1c-1.3-0.4-1.9-1.8-1.5-3.1c1.2-2.9,3.5-5.2,6.4-6.4c1.4-0.6,2.9-0.9,4.4-0.9
				c4.7,0,8.9,2.8,10.7,7.2c0.5,1.3-0.2,2.7-1.5,3.1C97.3,72.3,97.1,72.3,96.8,72.3z"/>
		</g>
		<g>
			<path class="st0" d="M67.2,85c-0.3,0-0.5,0-0.8-0.1c-0.6-0.2-1.1-0.7-1.4-1.2c-0.3-0.6-0.3-1.2-0.1-1.8c1.2-2.9,3.5-5.2,6.4-6.4
				c1.4-0.6,2.9-0.9,4.4-0.9c4.7,0,8.9,2.8,10.7,7.2c0.2,0.7,0.2,1.3-0.1,1.9c-0.3,0.6-0.8,1-1.4,1.2C84.6,85,84.4,85,84.1,85
				c-1,0-1.9-0.6-2.3-1.6c-0.7-1.5-1.9-2.8-3.5-3.5c-0.8-0.4-1.7-0.5-2.7-0.5c-2.7,0-5.1,1.6-6.2,4.1C69.1,84.3,68.2,85,67.2,85
				L67.2,85z"/>
		</g>
		<g>
			<path class="st0" d="M64.4,68.1c-1,0-1.9-0.6-2.3-1.6c-0.7-1.5-1.9-2.8-3.5-3.5c-0.9-0.4-1.7-0.6-2.7-0.6c-2.7,0-5.1,1.6-6.2,4.1
				c-0.3,0.9-1.2,1.5-2.2,1.5c-0.3,0-0.5,0-0.8-0.1c-1.3-0.4-1.9-1.8-1.5-3.1c1.8-4.4,6-7.2,10.7-7.2c0.5,0,0.9,0,1.3,0.1
				c1.3-2.2,3.2-3.9,5.6-4.9c1.4-0.6,2.9-0.9,4.4-0.9c4.7,0,8.9,2.8,10.7,7.2c0.2,0.7,0.2,1.3-0.1,1.9c-0.3,0.6-0.8,1-1.4,1.2
				c-0.3,0.1-0.5,0.1-0.8,0.1c-1,0-1.9-0.6-2.3-1.6c-1-2.4-3.5-4-6.2-4c-2.1,0-4,0.9-5.3,2.5c2.1,1.3,3.8,3.2,4.7,5.5
				c0.5,1.3-0.2,2.7-1.5,3.1C64.9,68,64.7,68.1,64.4,68.1z"/>
		</g>
	</g>
</g>
</svg>
