<?xml version="1.0" encoding="utf-8"?>
<!-- Generator: Adobe Illustrator 24.1.2, SVG Export Plug-In . SVG Version: 6.00 Build 0)  -->
<svg version="1.1" id="Camada_1" xmlns="http://www.w3.org/2000/svg" xmlns:xlink="http://www.w3.org/1999/xlink" x="0px" y="0px"
	 viewBox="0 0 150.6 145.6" style="enable-background:new 0 0 150.6 145.6;" xml:space="preserve">
<style type="text/css">
	.st0{fill:#147834;stroke:#FFFFFF;stroke-width:3;stroke-miterlimit:10;}
</style>
<g>
	<path id="XMLID_80_" class="st0" d="M88.8,90.1c-5.8,8-5.1,16.6,2.3,24c6.6,6.6,11.7,5.2,16.3,3.9c4.1-1.1,8.1-2.2,14.4,1.5
		c0.4,0.2,0.8,0.3,1.2,0.3c0.6,0,1.2-0.2,1.6-0.7c0.7-0.7,0.9-1.9,0.4-2.8c-3.7-6.4-2.6-10.3-1.5-14.4c1.2-4.5,2.6-9.7-3.9-16.3
		c-7.4-7.4-15.9-8.1-24-2.3 M119.8,97c-0.1,1.2-0.5,2.4-0.8,3.7c-0.9,3.3-2,7.2-0.5,12.4c-1.8-0.5-3.5-0.7-5.1-0.7
		c-2.8,0-5.2,0.6-7.3,1.2c-4.3,1.2-7.1,1.9-11.8-2.8c-6.7-6.7-6.4-13.8,0.8-21.1c6.3-6.3,12.4-7.3,18.3-3.2l-5.2,5.2
		c-0.5,0.5-0.5,1.4,0,2c0.3,0.3,0.6,0.4,1,0.4s0.7-0.1,1-0.4l5.3-5.3c0.2,0.2,0.4,0.4,0.6,0.6c0.3,0.3,0.5,0.5,0.8,0.8l-8.6,8.6
		c-0.5,0.5-0.5,1.4,0,2c0.3,0.3,0.6,0.4,1,0.4s0.7-0.1,1-0.4l8.3-8.3c0.3,0.5,0.5,1,0.7,1.5l-6.8,6.8c-0.5,0.5-0.5,1.4,0,2
		c0.3,0.3,0.6,0.4,1,0.4s0.7-0.1,1-0.4L119.8,97z"/>
	<path id="XMLID_10_" class="st0" d="M100.9,83.4c-1.1-1.1-2.4-1.9-3.9-2.3C93.3,77.8,65.7,52,65.1,24.3c0-0.6-0.3-1.2-0.8-1.7
		c-0.5-0.4-1.1-0.6-1.7-0.6l-8.5,0.7c-0.6,0-1.2,0.4-1.6,0.8c-0.4,0.5-0.6,1.1-0.5,1.7c0.1,0.7,1.1,8.7,5.6,20.2
		C39.3,34.6,27.3,35.3,26.7,35.3c-1.1,0.1-2.1,1-2.2,2.1L24,44.1c-0.1,1.3,0.8,2.4,2.1,2.5c7,0.7,13.8,2.7,20.3,5.9
		c-3.3-0.5-5.2-0.4-5.3-0.4c-1.1,0.1-2.1,1-2.2,2.1l-0.5,6.7c-0.1,1.3,0.8,2.4,2.1,2.5c18,1.7,31.5,11.2,39.7,18.9
		c1.8,2,3.6,4.1,5.6,6.1c-0.3,2.7,0.6,5.4,2.5,7.3 M67.4,65c0.7,1.2,1.5,2.4,2.3,3.7c-7.3-4.4-16.2-8.1-26.6-9.5l0.2-2.3
		C47.1,57.2,55.7,58.6,67.4,65z M60.9,53.1c0.7,1.5,1.5,3.1,2.4,4.7c-0.4-0.2-0.8-0.4-1.2-0.5C51.9,49,40.8,44,28.9,42.4l0.2-2.3
		C33.5,40.4,45.2,42.3,60.9,53.1z M90.6,88.5c0.2-0.8,0-1.7-0.6-2.3C65.4,61.5,58.6,35,57,27.1l3.6-0.3c1.1,15.7,9.8,30.3,17.1,40
		C85.6,77.3,93.4,84.2,94.3,85c0.3,0.3,0.1-0.7,0.5-0.6"/>
</g>
</svg>
