<?xml version="1.0" encoding="utf-8"?>
<!-- Generator: Adobe Illustrator 24.1.2, SVG Export Plug-In . SVG Version: 6.00 Build 0)  -->
<svg version="1.1" id="Camada_1" xmlns="http://www.w3.org/2000/svg" xmlns:xlink="http://www.w3.org/1999/xlink" x="0px" y="0px"
	 viewBox="0 0 150.6 145.6" style="enable-background:new 0 0 150.6 145.6;" xml:space="preserve">
<style type="text/css">
	.st0{fill:#147834;stroke:#FFFFFF;stroke-width:6;stroke-miterlimit:10;}
</style>
<g>
	<path class="st0" d="M75.6,18.9c-28.2,0-51,22.8-51,51.1s22.8,50.9,51,50.9s51.1-22.8,51.1-51.1S103.9,18.9,75.6,18.9z M75.6,113.6
		c-24.2,0-43.8-19.6-43.8-43.8s19.6-43.6,43.8-43.6s43.8,19.6,43.8,43.8S99.8,113.6,75.6,113.6z"/>
	<path class="st0" d="M75.6,55.4c-8.1,0-14.5,6.6-14.5,14.5s6.6,14.5,14.5,14.5S90.2,77.9,90.2,70S83.8,55.4,75.6,55.4z M75.6,77.3
		c-4.1,0-7.3-3.2-7.3-7.3s3.2-7.3,7.3-7.3s7.3,3.2,7.3,7.3C82.9,74,79.7,77.3,75.6,77.3z"/>
	<path class="st0" d="M58.2,75.4c-0.5-1.9-0.8-3.7-0.8-5.6l0,0c0-2-1.7-3.7-3.7-3.7S50,67.8,50,69.8c0,2.7,0.3,5.2,1.2,7.8
		c0.5,1.5,1.9,2.5,3.4,2.5c0.3,0,0.7,0,1-0.2C57.7,79.5,58.9,77.4,58.2,75.4z"/>
	<path class="st0" d="M83.9,53.7c1.7,0.8,3.2,2,4.6,3.4c0.7,0.7,1.7,1,2.5,1c1,0,1.9-0.3,2.5-1c1.4-1.4,1.4-3.7,0-5.1
		c-1.9-1.9-4.1-3.6-6.4-4.7c-1.9-0.8-4.1-0.2-4.9,1.7C81.6,50.7,82.2,52.7,83.9,53.7L83.9,53.7z"/>
	<path class="st0" d="M69.1,52.7c0.3,0,0.7,0,1,0c1.9-0.7,3.7-1,5.6-1l0,0c2,0,3.7-1.7,3.7-3.7s-1.7-3.7-3.7-3.7
		c-2.7,0-5.2,0.3-7.8,1.2c-2,0.3-3.4,2.2-3,4.2C65.2,51.7,67,53.2,69.1,52.7L69.1,52.7z"/>
	<path class="st0" d="M54.5,63.2c0.5,0.3,1,0.3,1.7,0.3c1.4,0,2.5-0.8,3.2-2c0.8-1.7,2-3.2,3.4-4.6c1.5-1.4,1.5-3.7,0-5.2
		c-1.4-1.5-3.7-1.5-5.2,0l0,0c-1.9,1.9-3.6,4.1-4.7,6.4C52,59.8,52.6,62,54.5,63.2C54.5,63,54.5,63,54.5,63.2z"/>
	<path class="st0" d="M96.8,76.9c-1.9-1-4.1-0.2-4.9,1.5s-2,3.2-3.4,4.6s-1.5,3.7,0,5.1l0,0c0.7,0.7,1.7,1,2.5,1c1,0,1.9-0.3,2.5-1
		c1.9-1.9,3.6-4.1,4.7-6.4C99.2,80,98.5,77.8,96.8,76.9L96.8,76.9z"/>
	<path class="st0" d="M95.3,59.7c-1.9,0.7-2.9,2.7-2.4,4.6c0.5,1.9,0.8,3.7,0.8,5.6v0.3c0,2,1.7,3.7,3.7,3.7s3.7-1.7,3.7-3.7
		c0-2.7-0.3-5.4-1.2-8c-0.3-2-2.4-3.2-4.4-2.9C95.4,59.7,95.4,59.7,95.3,59.7z"/>
	<path class="st0" d="M81.1,87.4c-1.7,0.5-3.6,0.8-5.2,0.8h-0.2c-2,0-3.7,1.7-3.7,3.7s1.7,3.7,3.7,3.7c2.5,0,5.2-0.3,7.6-1.2
		c1.9-0.7,3-2.7,2.4-4.6C85.1,87.7,83.1,86.7,81.1,87.4z"/>
	<path class="st0" d="M67.2,86.1c-1.7-0.8-3.2-2-4.6-3.4c-1.4-1.5-3.7-1.5-5.2,0c-1.5,1.4-1.5,3.7,0,5.2c1.9,1.9,4.1,3.6,6.4,4.7
		c0.5,0.3,1,0.5,1.7,0.5c1.4,0,2.5-0.7,3.2-2C69.7,89.3,69.1,87.1,67.2,86.1z"/>
</g>
</svg>
