<?xml version="1.0" encoding="utf-8"?>
<!-- Generator: Adobe Illustrator 24.1.2, SVG Export Plug-In . SVG Version: 6.00 Build 0)  -->
<svg version="1.1" id="Camada_1" xmlns="http://www.w3.org/2000/svg" xmlns:xlink="http://www.w3.org/1999/xlink" x="0px" y="0px"
	 viewBox="0 0 150.6 145.6" style="enable-background:new 0 0 150.6 145.6;" xml:space="preserve">
<style type="text/css">
	.st0{fill:#147834;stroke:#FFFFFF;stroke-width:4;stroke-miterlimit:10;}
</style>
<g>
	<path class="st0" d="M128.2,47.9c-2.6-5.5-6.8-9.5-12.9-11.7C90.2,27.4,42.1,51.5,39.4,53c-10.3,3.5-17.8,14.8-17.8,28.1
		c0,16.2,11.1,29.4,24.7,29.4c2.7,0,5.4-0.6,7.8-1.6c12.8-4.3,63.7-22.7,73.9-45.3C130.3,58.3,130.4,52.9,128.2,47.9z M27.4,81.1
		c0-12.9,8.4-23.4,18.8-23.4S65,68.2,65,81.1c0,10.2-5.3,19-12.6,22.2c-1.3,0.4-2.3,0.7-2.6,0.9c-1.1,0.3-2.3,0.4-3.6,0.4
		C35.9,104.6,27.4,94.1,27.4,81.1z M82.6,91.2c-5.7,2.7-11.2,5-16.2,7c2.8-4.8,4.5-10.7,4.5-16.9c0-7.7-2.4-14.5-6.5-19.7
		c5-3,18.2-9.7,45.6-12.8c1.3-0.1,2.1-1.3,2-2.4c-0.1-1.3-1.3-2.1-2.4-2C80.3,47.7,66.4,54.8,61.4,58c-2.4-2.3-5.1-4-8.1-5
		c15.8-6.7,43.9-16.9,59.8-11.2c4.5,1.6,7.7,4.4,9.5,8.4c0.1,0.4,0.4,0.9,0.6,1.3c-5.3,3.7-22,14.3-47.2,18c-1.3,0.1-2,1.3-1.8,2.6
		c0.1,1.1,1.1,1.8,2.1,1.8c0.1,0,0.3,0,0.3,0c23.9-3.4,40.1-12.5,47.2-17.2c-0.1,1.4-0.6,3-1.3,4.5C118.4,70.5,104.4,80.8,82.6,91.2
		z"/>
	<path class="st0" d="M44.8,67.9c-1.3,0-2.3,2-2.3,4.3c0,2.4,1,4.3,2.3,4.3s2.3-2,2.3-4.3C47,69.8,46,67.9,44.8,67.9z"/>
	<path class="st0" d="M53.6,77.3c1.8-1.6,2.7-3.6,1.8-4.5c-0.9-1-3-0.6-4.8,1c-1.9,1.5-2.7,3.5-1.9,4.5
		C49.6,79.3,51.7,78.9,53.6,77.3z"/>
	<path class="st0" d="M38.5,74.7c-1.8-1.6-4-2-4.8-1c-0.9,1,0,3,1.8,4.5c1.8,1.6,4,2,4.8,1C41.2,78.3,40.4,76.3,38.5,74.7z"/>
	<path class="st0" d="M44.8,85.4c-1.3,0-2.3,2-2.3,4.3c0,2.4,1,4.3,2.3,4.3s2.3-2,2.3-4.3S46,85.4,44.8,85.4z"/>
	<path class="st0" d="M50.6,88.1c1.8,1.6,4,2,4.8,1c0.9-1,0-3-1.8-4.5c-1.8-1.6-4-2-4.8-1C47.9,84.5,48.7,86.7,50.6,88.1z"/>
	<path class="st0" d="M35.7,83.7c-1.8,1.6-2.7,3.6-1.8,4.5c0.9,0.9,3,0.6,4.8-1s2.7-3.6,1.8-4.5C39.6,81.7,37.5,82.1,35.7,83.7z"/>
</g>
</svg>
