<?xml version="1.0" encoding="utf-8"?>
<!-- Generator: Adobe Illustrator 24.1.2, SVG Export Plug-In . SVG Version: 6.00 Build 0)  -->
<svg version="1.1" id="Camada_1" xmlns="http://www.w3.org/2000/svg" xmlns:xlink="http://www.w3.org/1999/xlink" x="0px" y="0px"
	 viewBox="0 0 150.6 145.6" style="enable-background:new 0 0 150.6 145.6;" xml:space="preserve">
<style type="text/css">
	.st0{fill:#147834;stroke:#FFFFFF;stroke-miterlimit:10;}
</style>
<path class="st0" d="M31.4,107.6C31.4,107.7,31.4,107.7,31.4,107.6c0,0.1,0,0.1,0,0.2c0,0,0,0,0,0c0,0,0,0.1,0,0.1v0
	c0,0,0,0.1,0,0.1c0,0,0,0.1,0,0.1c0,0,0,0.1,0.1,0.1c0,0,0,0,0.1,0.1c0,0,0,0.1,0.1,0.1c0,0,0,0,0.1,0.1c0,0,0.1,0,0.1,0.1
	c0,0,0,0,0.1,0c0,0,0.1,0,0.1,0.1c0,0,0,0,0.1,0h0c0,0,0.1,0,0.1,0c0,0,0,0,0.1,0c0.1,0,0.1,0,0.2,0c0,0,0,0,0,0h0c0,0,0.1,0,0.1,0
	c16.9-1.3,33.2-6.4,47.7-15c12.2-7.2,24.3-19,35-34.1c0,0,0,0,0,0c0,0,0,0,0-0.1c0,0,0,0,0,0c0,0,0,0,0-0.1c0,0,0,0,0,0c0,0,0,0,0,0
	c0,0,0,0,0,0c1.2-2.9,0.6-5.6,0-7.9c-0.5-1.8-0.9-3.4-0.3-4.8l4.5-9.2c0,0,0,0,0,0l0,0c0.6-1.3,0.5-2.9-0.3-4.1
	c-0.8-1.2-2.2-2-3.6-2c-1.5,0-2.9,0.7-3.7,1.9l-5.5,7.8c-1.1,1.6-2.4,1.6-4.4,1.4c-1.9-0.1-4.3-0.3-5.9,2.2v0v0c0,0-0.1,0.1-0.1,0.1
	c0,0,0,0,0,0c-3.8,8.2-12.3,19.9-23.3,32.1v0C61.3,89.3,47.5,99.4,32,106.5c0,0,0,0,0,0c-0.1,0-0.1,0.1-0.2,0.1c0,0,0,0,0,0v0
	c0,0-0.1,0.1-0.1,0.1l0,0c0,0-0.1,0.1-0.1,0.1c0,0,0,0,0,0c0,0-0.1,0.1-0.1,0.1c0,0,0,0,0,0c0,0.1,0,0.1-0.1,0.2c0,0,0,0,0,0
	c0,0.1,0,0.1,0,0.2v0C31.4,107.5,31.4,107.5,31.4,107.6C31.4,107.6,31.4,107.6,31.4,107.6C31.4,107.6,31.4,107.6,31.4,107.6
	L31.4,107.6z M79.1,91.7L79.1,91.7c-9.9,5.9-20.7,10.1-31.9,12.6c7.6-3.2,15-7,21.9-11.5c22.4-14.2,32.5-28.8,37-39l6.7,5.3
	C102.4,73.5,90.8,84.7,79.1,91.7L79.1,91.7z M113.8,34.3c0.6-0.9,1.9-1.2,2.8-0.6c1,0.5,1.4,1.7,0.9,2.7l-3.9,8.1l-4.7-3.3
	L113.8,34.3z M101.9,44.5c1.8,0.1,3.9,0.3,5.7-1.5l5.1,3.6c-0.4,1.8,0.1,3.6,0.5,5.4c0.4,1.7,0.9,3.3,0.6,5l-7.3-5.9l-7.7-6.2
	C99.5,44.4,100.4,44.4,101.9,44.5L101.9,44.5z M74.4,78.2c10.8-11.9,18.9-23,23.1-31.4l6.9,5.5c-4.3,9.9-14.1,24.4-36.4,38.6
	c-9.3,5.9-18.3,10.1-25.2,12.7h0C54.6,96.9,65.3,88.3,74.4,78.2L74.4,78.2z"/>
</svg>
