<?xml version="1.0" encoding="utf-8"?>
<!-- Generator: Adobe Illustrator 24.1.2, SVG Export Plug-In . SVG Version: 6.00 Build 0)  -->
<svg version="1.1" id="Camada_1" xmlns="http://www.w3.org/2000/svg" xmlns:xlink="http://www.w3.org/1999/xlink" x="0px" y="0px"
	 viewBox="0 0 150.6 145.6" style="enable-background:new 0 0 150.6 145.6;" xml:space="preserve">
<style type="text/css">
	.st0{fill:#147834;stroke:#FFFFFF;stroke-width:4;stroke-miterlimit:10;}
</style>
<g>
	<path class="st0" d="M75.9,53.6c-16.5,0-29.8,13.3-29.8,29.7s13.3,29.8,29.8,29.8c16.4,0,29.8-13.3,29.8-29.8
		C105.6,66.9,92.2,53.6,75.9,53.6z M75.9,107.4c-13.3,0-24.1-10.8-24.1-24.1s10.8-24.1,24.1-24.1S100,70,100,83.3
		S89.1,107.4,75.9,107.4z"/>
	<path class="st0" d="M61.7,81c1.5,0,2.7-1.1,2.8-2.5l0.1-1.8c0.1-1.6-1.1-2.9-2.5-3c-1.6-0.1-2.9,1.1-3,2.5L59,78
		c-0.1,1.6,1.1,2.9,2.5,3H61.7z"/>
	<path class="st0" d="M89.7,71.2c-1-1.2-2.8-1.5-4-0.5s-1.5,2.8-0.5,4l1.2,1.5c0.6,0.7,1.3,1.1,2.2,1.1c0.6,0,1.2-0.2,1.7-0.6
		c1.2-1,1.5-2.8,0.5-4L89.7,71.2z"/>
	<path class="st0" d="M75.7,96.1l-1.8-0.2c-1.6-0.1-2.9,1-3,2.5c-0.1,1.6,1,2.9,2.5,3l1.8,0.1c0.1,0,0.1,0,0.2,0
		c1.5,0,2.7-1.1,2.8-2.5C78.5,97.6,77.3,96.3,75.7,96.1z"/>
	<path class="st0" d="M75.9,79.3c-1.6,0.1-2.7,1.5-2.5,3l0.1,1.8c0.1,1.5,1.3,2.5,2.8,2.5c0.1,0,0.1,0,0.2,0c1.6-0.1,2.7-1.5,2.5-3
		l-0.1-1.8C78.8,80.3,77.3,79.2,75.9,79.3z"/>
	<path class="st0" d="M88.3,85.4c-1.6-0.4-3,0.6-3.4,2.2l-0.3,1.8c-0.4,1.6,0.6,3,2.2,3.4c0.2,0,0.4,0.1,0.6,0.1
		c1.3,0,2.4-0.8,2.8-2.2l0.4-1.8C90.8,87.3,89.8,85.7,88.3,85.4z"/>
	<path class="st0" d="M64.2,86.4c-1.6-0.4-3,0.6-3.4,2.2l-0.3,1.8c-0.4,1.6,0.6,3,2.2,3.4c0.2,0,0.4,0.1,0.6,0.1
		c1.3,0,2.4-0.8,2.8-2.2l0.4-1.8C66.8,88.3,65.8,86.8,64.2,86.4z"/>
	<path class="st0" d="M71.7,72.1c0.5,0.4,1.1,0.5,1.6,0.5c0.8,0,1.8-0.5,2.3-1.2l1.1-1.6c0.8-1.3,0.6-3-0.7-3.9
		c-1.3-0.9-3-0.6-3.9,0.7L71,68.1C70.2,69.5,70.4,71.2,71.7,72.1z"/>
	<path class="st0" d="M107,56.7c4.1-3.3,6.9-7.4,7.5-9.2c0.6-1.7,0.7-3,0.2-4.1c-0.6-1.2-1.8-1.9-3-2.5c-1.9-0.8-5-1.3-8-1.5
		c2.9-5.7,4-11.6,3.8-14.4c-0.2-2.2-0.7-3.5-1.7-4.4c-1.2-0.8-2.8-1-4.1-1h-0.4c-4.6,0.1-15.6,3.5-21.6,11.4
		c-0.4,0.5-0.7,1.1-1.1,1.6c-1.2-6.1-4.2-12.4-11-16.7c-1.3-0.8-3-0.5-3.9,0.7c-0.8,1.3-0.5,3,0.7,3.9c9,6.1,9.6,15.6,8.9,21.7
		c-21.6,1.2-38.7,19.1-38.7,41.1c0,22.7,18.4,41.1,41.1,41.1s41.1-18.4,41.1-41.1C116.8,73.2,113.1,63.9,107,56.7z M109.1,45.9
		c-0.6,1.3-2.9,4.4-6.1,6.7c-2.4-2.2-5.2-4.1-8.2-5.7c2.7-1.5,5.9-1.8,8.4-1.8C105.7,45.2,107.9,45.6,109.1,45.9z M84.2,34.5
		c4.7-6.3,14.2-9.1,17.2-9.2h0.2c0,0.1,0,0.2,0,0.4c0.1,1.8-1.1,9-5.2,14.7c-3.2,0.8-5.7,2.2-7.8,4.1c-2.3-0.7-4.7-1.3-7.3-1.7
		C81.4,39.8,82.3,37.1,84.2,34.5z M75.7,118.9c-19.5,0-35.5-15.8-35.5-35.5s15.9-35.5,35.5-35.5s35.6,15.9,35.6,35.5
		S95.3,118.9,75.7,118.9z"/>
</g>
</svg>
