<?xml version="1.0" encoding="utf-8"?>
<!-- Generator: Adobe Illustrator 24.1.2, SVG Export Plug-In . SVG Version: 6.00 Build 0)  -->
<svg version="1.1" id="Camada_1" xmlns="http://www.w3.org/2000/svg" xmlns:xlink="http://www.w3.org/1999/xlink" x="0px" y="0px"
	 viewBox="0 0 150.6 145.6" style="enable-background:new 0 0 150.6 145.6;" xml:space="preserve">
<style type="text/css">
	.st0{fill:#147834;stroke:#FFFFFF;stroke-width:3;stroke-miterlimit:10;}
</style>
<g>
	<path class="st0" d="M81.2,96.6c3.1-4.9,6.3-10.1,10.3-14.1c3.8-3.8,8-7,12.1-10.2c6-4.6,11.9-9.1,15.4-14.7
		c13-20.1,4.9-30.9,2.1-33.6c-3.5-3.5-13.8-10.3-33.4,2.4c-2.5,1.7-5.3,3.2-8.2,4.9c-7.5,4.3-15.9,9.2-22.9,16.1
		c-6,6-8.5,14.4-10.8,21.8c-1.5,4.9-2.8,9.5-5,12.7c-1.5,2.4-3.1,4.6-4.5,6.8c-9.4,14.2-16.9,25.5-11.1,31.2
		c6.3,6.3,27.4,2.5,43.3-7.8C73.4,109,77.2,103,81.2,96.6z M28.1,117c-3.1-3.1,5.2-15.5,11.9-25.4c1.5-2.2,3.1-4.6,4.6-6.8
		c2-2.9,3.2-6.6,4.5-10.3c1,1.7,2.2,3.5,3.9,5.2c2.4,2.4,5.6,4.5,9.6,4.9c1.3,0.1,2.5-0.8,2.7-2.1c0.1-1.3-0.8-2.5-2.1-2.7
		c-7.5-0.8-11.2-9.5-12-12c2-6.1,4.2-12.3,8.7-16.8c6.4-6.4,14.7-11.2,21.9-15.4c0.6-0.3,1.1-0.7,1.7-1c0.8,2.5,2.5,6,5.6,9.2
		c1.7,1.7,3.9,3.4,6.6,4.5c1.3,0.6,2.5,0,3.1-1.3s0-2.7-1.3-3.1c-6.8-2.9-9.2-9.1-9.9-11.9c0.8-0.6,1.8-1.1,2.7-1.7
		c11.7-7.7,21.8-8.7,27.5-2.9c5.9,5.9,4.9,16.2-2.7,27.8c-3.2,4.9-8.5,9.1-14.4,13.4c-1.3,1-2.7,2.1-3.9,3.1
		c-2.4-1.4-7.5-4.9-8.8-10.9c-0.3-1.3-1.5-2.1-2.8-1.8s-2.1,1.5-1.8,2.8c1,4.2,3.2,7.4,5.6,9.8c1.4,1.4,2.8,2.5,4,3.2
		c-1.7,1.4-3.2,2.8-4.7,4.3c-4.5,4.5-7.7,9.8-10.9,14.9c-3.5,5.6-6.8,10.8-10.9,13.8c-2.4-0.6-9.2-2.8-11.3-12.3
		c-0.3-1.3-1.5-2.1-2.8-1.8c-1.3,0.3-2.1,1.5-1.8,2.8c1.1,4.7,3.2,8.2,5.7,10.8c1.7,1.7,3.5,2.8,5.2,3.6
		C46.9,118.8,31.6,120.4,28.1,117z"/>
</g>
</svg>
