<?xml version="1.0" encoding="utf-8"?>
<!-- Generator: Adobe Illustrator 24.1.2, SVG Export Plug-In . SVG Version: 6.00 Build 0)  -->
<svg version="1.1" id="Camada_1" xmlns="http://www.w3.org/2000/svg" xmlns:xlink="http://www.w3.org/1999/xlink" x="0px" y="0px"
	 viewBox="0 0 150.6 145.6" style="enable-background:new 0 0 150.6 145.6;" xml:space="preserve">
<style type="text/css">
	.st0{fill:#147834;stroke:#FFFFFF;stroke-width:4;stroke-miterlimit:10;}
</style>
<g>
	<path class="st0" d="M74.5,122.9c-3.4,0-6.8-0.7-10.2-1.9c-0.4-0.2-0.9-0.2-1.2-0.2c-0.7,0-1.2,0-1.7,0c-5.1,0-9.2-1.6-12.6-4.8
		c0,0-0.1-0.1-0.3-0.2c-7.9-2.8-13-10.8-12.4-19.4c0.3-6.3,2.6-12.2,6.6-17.6c4.9-6.6,7.8-14.1,8.8-22.9c0.7-5.7,2-10.6,4.2-14.8
		s5.1-6.9,8.9-8.1h0.1c1.4-0.4,2.8-0.9,3.9-1.8c0.8-0.6,1.8-1,2.9-1.1c0.4,0,0.6-0.1,0.7-0.8c0.6-2.6,1.8-5,3.7-7.2
		c0.5-0.8,1.3-1.2,2.2-1.2c0.7,0,1.2,0.2,1.8,0.7c1.2,1,1.3,2.4,0.3,4c-0.8,1.3-1.6,2.8-2.3,4.2L77.8,30l0.6,0.3
		c1.2,0.7,2.6,1.4,3.8,2.1c0,0,0,0,0.2,0c4.8,0.9,8.4,3.7,11,8.7c2.2,4.1,3.2,8.7,4,12.9c0.2,1,0.3,1.9,0.6,2.9
		c0.6,3,1.1,6.1,1.9,9.1c1.1,4.3,3.6,8.1,6,11.7c2.7,3.8,5.2,7.7,6.2,12.3c1,4.3,1.8,8.9,0.1,13.4c-2.3,6.3-6.1,10.4-11.7,12.3
		c-0.2,0.1-0.4,0.3-0.8,0.6c-0.2,0.1-0.3,0.3-0.6,0.4c-3.1,2.6-6.9,3.9-11.6,3.9c-0.4,0-0.9,0-1.4,0H86c-0.4,0-0.9,0.1-1.2,0.2
		C81.3,122.2,77.9,122.9,74.5,122.9z M65.6,65.6c0.8,0,1.4,0.3,2,0.9c0.6,0.6,0.8,1.3,0.8,2.1c-0.1,2.1-0.1,3.8-0.3,5.3
		c-0.6,5.3-2,10.3-3.4,15.3l-0.6,1.9c-1.6,5.4-3,11.4-2.7,17.4c0.2,4.2,2,6.4,6,7.7c2.3,0.7,4.8,1,7.1,1c2.4,0,4.8-0.3,7.2-1
		c4-1.1,5.8-3.4,6-7.6c0.1-2.2,0.1-4.7-0.3-6.8c-1-4.7-2.2-9.7-3.8-15.4c-1.4-5.1-2.9-11.1-3-17.3c0-3.2,2.1-3.6,2.8-3.6l0,0
		c1,0,2.8,0.4,2.9,3.4c0,0.4,0,0.9,0.1,1.4c0,1.2,0.1,2.3,0.3,3.4c1.2,5.4,2.2,10,3.6,14.7c1.6,5.8,3.2,12,3.2,18.7
		c0,2.7-0.4,5-1.3,7.1c-0.1,0.2-0.2,0.4-0.3,0.7c3.6-0.9,6-3.2,7.4-6.9c1.6-4.1,1.3-8.3-0.8-12.7c-1.2-2.4-2.6-4.9-3.8-7.2
		c-0.6-1-1.1-2-1.6-3c-1.9-3.7-4.2-8.6-5.2-14.1c-0.3-1.8,0.7-3.1,2.2-3.4c0.2,0,0.3,0,0.6,0c1.3,0,2.6,1,2.8,2.4
		c0.8,4.4,2.7,8.6,4.6,12.3l1.2,2.4c1.6,2.9,3.1,6,4.6,9c1.8,3.9,2.4,7.4,1.9,11.1c0.1-0.2,0.3-0.6,0.4-0.8c2-4.2,1.3-8.7,0.2-12.9
		c-0.9-3.4-2.8-6.3-5.2-9.8c-4.6-6.4-7.3-13.1-8.4-20.2c-0.4-3.3-1.1-6.8-1.8-10.2c-0.7-3-1.8-6.8-4.4-9.7c-0.2-0.2-0.6-0.6-0.8-0.8
		c0.7,4.2,0.7,8.4,0.7,12.7c0,0.9,0,1.9,0,2.8c0,1.7-1.2,3-2.8,3c-0.1,0-0.2,0-0.3,0c-1.7,0-2.5-1.1-2.5-2.9c0-1.1,0-2.1,0-3.2
		c0-2.2,0-4.4-0.1-6.7c-0.2-2.7-0.6-5.1-1.2-7.2c-0.6-2-2.1-3-4.8-3c-2.7,0-4.1,1-4.9,3c-0.6,1.7-0.9,3.3-1,4.8
		c-0.1,2.8-0.2,5.6-0.2,8.3c0,1.3,0,2.7-0.1,4c0,1.8-1.2,3-2.8,3c-1.7,0-2.8-1.2-2.8-3v-2c0-2.7,0-5.4,0.1-8.2
		c0.1-1.8,0.3-3.4,0.6-5.3l0,0c-1.3,1.1-2.3,2.7-3.3,4.8c-1.9,4.2-2.7,8.8-3.2,12.7c-0.7,5.3-1.9,11.6-5,17.1
		c-1.6,2.9-3.4,5.6-5.2,8.2l-0.8,0.6c-2.4,3.8-3.9,7.6-4.3,11.7c-0.3,3.7,0.1,6.7,1.6,9.2c-0.4-3.3,0-6.7,1.3-9.8
		c1.7-3.8,3.6-7.4,5.4-11l1-2c1.9-3.7,3.7-7.6,4.6-11.9c0.3-2,1.7-2.8,2.8-2.8c0.2,0,0.3,0,0.6,0.1c1.3,0.2,2.6,1.3,2.1,3.7
		c-1,5.4-3.3,10.3-5.2,14l-1.3,2.6c-1.3,2.4-2.7,5-4,7.6c-1.9,3.9-2.3,7.7-1.2,11.6c1.2,4.1,4.1,7.1,7.9,8c-1.2-2.3-1.7-5-1.7-8.2
		c0.1-4.8,0.9-9.7,2.3-15.1c0.3-1.3,0.8-2.7,1.1-4c1.8-6.1,3.7-12.6,3.7-19.1c0-0.8,0.3-1.6,0.9-2C64.2,65.8,64.9,65.6,65.6,65.6
		L65.6,65.6z"/>
</g>
</svg>
