<?xml version="1.0" encoding="utf-8"?>
<!-- Generator: Adobe Illustrator 24.1.2, SVG Export Plug-In . SVG Version: 6.00 Build 0)  -->
<svg version="1.1" id="Camada_1" xmlns="http://www.w3.org/2000/svg" xmlns:xlink="http://www.w3.org/1999/xlink" x="0px" y="0px"
	 viewBox="0 0 150.6 145.6" style="enable-background:new 0 0 150.6 145.6;" xml:space="preserve">
<style type="text/css">
	.st0{fill:#147834;stroke:#FFFFFF;stroke-width:5;stroke-miterlimit:10;}
</style>
<g>
	<path class="st0" d="M75.5,101.6c-15.7,0-30.5-6-41-16.4c-8.8-8.9-13.6-20.4-13.6-32.3c0-0.9,0.4-1.6,0.9-2.1
		c0.5-0.6,1.3-0.8,2-0.8l103.6,0.1c1.7,0,3,1.3,3,3C130.4,79.8,105.8,101.6,75.5,101.6C75.6,101.6,75.5,101.6,75.5,101.6z M27,56
		c1.7,22.3,22.8,39.7,48.6,39.7s47-17.3,48.7-39.6h-16.8c-1,5.1-4.4,9.9-9.6,13.4c-6,4-14,6.2-22.3,6.2l0,0C65,75.7,55.2,72,49.1,66
		c-2.9-2.9-4.9-6.5-5.6-10.1L27,56z M49.7,56c2.3,7.8,13.1,13.8,25.8,13.8c7.3,0,14-1.8,19-5.2c3.5-2.4,6-5.2,6.8-8.4L49.7,56z"/>
</g>
</svg>
