<?xml version="1.0" encoding="utf-8"?>
<!-- Generator: Adobe Illustrator 24.1.2, SVG Export Plug-In . SVG Version: 6.00 Build 0)  -->
<svg version="1.1" id="Camada_1" xmlns="http://www.w3.org/2000/svg" xmlns:xlink="http://www.w3.org/1999/xlink" x="0px" y="0px"
	 viewBox="0 0 150.6 145.6" style="enable-background:new 0 0 150.6 145.6;" xml:space="preserve">
<style type="text/css">
	.st0{fill:#147834;stroke:#FFFFFF;stroke-width:6;stroke-miterlimit:10;}
</style>
<g id="XMLID_99_">
	<path id="XMLID_122_" class="st0" d="M75.5,123.9L75.5,123.9C75.6,123.9,75.6,123.9,75.5,123.9c12.7-0.3,22.8-4.5,30.3-12.9
		c16.2-18.3,13.1-49.7,12.9-50.9c-0.1-1.4-1-2.5-2.1-3c-1.2-0.6-2.6-0.6-3.7,0c-0.7,0.4-7,4-14.6,10.6c-0.6-25.5-8.4-51.8-22.7-51.8
		S53.3,42.2,52.9,67.6C45.3,61,38.9,57.3,38.3,57c-1.1-0.7-2.6-0.7-3.7,0c-1.2,0.6-1.9,1.8-2.1,3c-0.1,1.4-3.3,32.6,12.9,51
		C52.8,119.4,62.9,123.8,75.5,123.9z M111.1,67.5c0,9.5-1.5,27.1-11.3,38.2c-5.1,5.6-11.8,9.1-20.1,10
		C81.7,91.6,101.3,74.6,111.1,67.5z M75.6,23.7c6.1,0,14.9,18,14.9,46.2c0,1.9,0,3.7-0.1,5.6C84.7,81.9,79.2,89.8,75.6,99
		c-3.6-9.2-8.9-17.1-14.7-23.4c-0.1-1.8-0.1-3.7-0.1-5.6C60.7,41.8,69.5,23.7,75.6,23.7z M40,67.5c9.8,7,29.4,23.9,31.5,48.3
		c-8.4-1-15.1-4.3-20.1-10C41.5,94.7,40,77.1,40,67.5z"/>
	<path id="XMLID_119_" class="st0" d="M80.3,86.3c1.1,0,1.9-0.8,1.9-1.9s-0.8-1.9-1.9-1.9h-1.8c-1.1,0-1.9,0.8-1.9,1.9
		s0.8,1.9,1.9,1.9H80.3z"/>
	<path id="XMLID_118_" class="st0" d="M72,40c1.1,0,1.9-0.8,1.9-1.9c0-1.1-0.8-1.9-1.9-1.9h-1.8c-1.1,0-1.9,0.8-1.9,1.9
		c0,1.1,0.8,1.9,1.9,1.9H72z"/>
	<path id="XMLID_112_" class="st0" d="M72,50.4c1.1,0,1.9-0.8,1.9-1.9c0-1.1-0.8-1.9-1.9-1.9h-1.8c-1.1,0-1.9,0.8-1.9,1.9
		c0,1.1,0.8,1.9,1.9,1.9H72z"/>
	<path id="XMLID_110_" class="st0" d="M80.7,45.2c1.1,0,1.9-0.8,1.9-1.9c0-1.1-0.8-1.9-1.9-1.9h-1.8c-1.1,0-1.9,0.8-1.9,1.9
		c0,1.1,0.8,1.9,1.9,1.9H80.7z"/>
	<path id="XMLID_109_" class="st0" d="M80.7,55.5c1.1,0,1.9-0.8,1.9-1.9c0-1.1-0.8-1.9-1.9-1.9h-1.8c-1.1,0-1.9,0.8-1.9,1.9
		c0,1.1,0.8,1.9,1.9,1.9H80.7z"/>
	<path id="XMLID_108_" class="st0" d="M80.7,65.8c1.1,0,1.9-0.8,1.9-1.9c0-1.1-0.8-1.9-1.9-1.9h-1.8c-1.1,0-1.9,0.8-1.9,1.9
		s0.8,1.9,1.9,1.9H80.7z"/>
	<path id="XMLID_104_" class="st0" d="M80.7,76c1.1,0,1.9-0.8,1.9-1.9c0-1.1-0.8-1.9-1.9-1.9h-1.8c-1.1,0-1.9,0.8-1.9,1.9
		s0.8,1.9,1.9,1.9H80.7z"/>
	<path id="XMLID_102_" class="st0" d="M72,60.9c1.1,0,1.9-0.8,1.9-1.9c0-1.1-0.8-1.9-1.9-1.9h-1.8c-1.1,0-1.9,0.8-1.9,1.9
		c0,1.1,0.8,1.9,1.9,1.9H72z"/>
	<path id="XMLID_101_" class="st0" d="M72,71.5c1.1,0,1.9-0.8,1.9-1.9c0-1.1-0.8-1.9-1.9-1.9h-1.8c-1.1,0-1.9,0.8-1.9,1.9
		s0.8,1.9,1.9,1.9H72z"/>
	<path id="XMLID_105_" class="st0" d="M72,81.9c1.1,0,1.9-0.8,1.9-1.9s-0.8-1.9-1.9-1.9h-1.8c-1.1,0-1.9,0.8-1.9,1.9
		s0.8,1.9,1.9,1.9H72z"/>
</g>
</svg>
