<?xml version="1.0" encoding="utf-8"?>
<!-- Generator: Adobe Illustrator 24.1.2, SVG Export Plug-In . SVG Version: 6.00 Build 0)  -->
<svg version="1.1" id="Camada_1" xmlns="http://www.w3.org/2000/svg" xmlns:xlink="http://www.w3.org/1999/xlink" x="0px" y="0px"
	 viewBox="0 0 150.6 145.6" style="enable-background:new 0 0 150.6 145.6;" xml:space="preserve">
<style type="text/css">
	.st0{fill-rule:evenodd;clip-rule:evenodd;fill:#147834;stroke:#FFFFFF;stroke-width:4;stroke-miterlimit:10;}
</style>
<g>
	<path class="st0" d="M108.5,23.1L108.5,23.1L108.5,23.1L108.5,23.1z M77.3,104.6c-0.6-0.1-1.1-0.1-1.8,0c-1.1,0.4-2.3,0.6-3.2,0.7
		c-1.4,0.1-2.7,1.4-2.5,2.8c0,1.1,0.7,2,1.7,2.4c0.4,0.1,0.7,0.3,1,0.1c1.8,0,3.4-0.4,4.8-0.8c1.6-0.4,2.1-2.3,1.7-3.7
		C78.6,105.5,78,104.9,77.3,104.6z M51.1,81.7c-1.1-0.4-2.4,0.1-3.1,1.1c-2.8,4-3,9.5-0.7,16.4c0,0,0,0,0,0.1
		c2.4,5.2,6.2,9,11.7,11.3c0,0,0,0,0.1,0c1.3,0.4,2.7-0.3,3.2-1.4c0.4-1.4,0-3-1.4-3.4c-4.1-1.8-7.2-4.7-8.8-8.5l0,0
		c-1.8-5.2-1.7-8.9,0.1-11.4c0.8-1.3,0.6-3-0.7-3.8C51.6,82,51.4,81.7,51.1,81.7z M104.9,34.6l-0.4-0.1c0.3-0.8,0.8-1.8,1.4-2.8l0,0
		l0,0l0,0c0.4-0.7,1.4-2.8,3.1-6.6l0,0c0-0.1,0-0.1,0.1-0.4l0,0c0.1,0.7,0.1,1.3,0.3,1.8l0,0c0.1,1.8-0.6,4-1.8,6.6
		c-0.6,1-0.4,2,0.3,2.8C106.7,35.3,105.7,34.9,104.9,34.6z M98.5,33.9l-0.4-0.1c0,0,0,0,0,0.1c-6.8,0.8-14.4,7.5-22.7,19.8
		c-0.8,1.3-0.4,3,0.7,3.8c0.1,0,0.4,0.4,0.7,0.4c1.1,0.4,2.4-0.1,3.1-1.1c7.3-11,13.7-16.9,19.1-17.6l0,0c1.4-0.1,2.5-0.1,3.8,0.3
		c3.2,1.1,5.6,4.5,6.9,9.9l0,0c0.4,3,0.4,5.9-0.3,8.8c0,0.1,0,0.4,0,0.6l0,0c-0.1,1-1.4,4.7-3.7,11.3c0,0,0,0.1,0,0.4
		c-1.8,10-3.4,17.1-4.9,20.8v0.1c-3.2,8.2-8.2,14.7-14.7,19.2l0,0c-8,5.5-16.8,7.5-27,6.1l0,0c-1.3-0.3-2.5-0.4-3.7-0.8
		c-6.9-2.4-11.2-6.6-13.3-12.8l0,0c-2.3-9.5-0.4-18.5,5.4-27.1l0,0c5.6-7.5,13.5-11.9,24.2-13.6c1.6-0.3,2.3-1.6,2.3-3
		c-0.3-1.1-1-1.8-1.8-2.3c-0.4-0.1-1-0.1-1.4,0c-11.9,1.8-21.2,7.1-27.7,15.5l0,0c-6.6,10-8.6,20.5-6.1,31.6v0.3
		c2.5,8,8.2,13.3,16.7,16.2c1.4,0.4,2.8,1,4.5,1.3h0.1c11.4,1.7,21.7-0.7,30.9-7.1l0,0c7.5-5.2,13-12.4,16.7-21.6l0,0
		c1.6-4,3.2-11.3,5.1-21.9l0,0c2.3-6.8,3.5-10.9,3.7-12l0,0c0-0.1,0-0.1,0.1-0.4l0,0c0.6-3.5,0.7-7.1,0.1-10.7c0,0,0,0,0-0.1
		c-1.4-5.2-3.4-9-6.2-11.4h0.1c1.3,0.4,2.5-0.1,3.2-1.3c2-3.7,2.8-6.8,2.5-9.9l0,0c-0.3-3.1-1-5.1-2.3-6.4l0,0
		c-0.6-0.7-1.1-1.1-1.8-1.4c-0.5-0.2-1-0.2-1.7-0.3l0,0c0,0,0,0,0,0.1c-0.7,0-1.7,0.4-2.3,1l0,0c-0.6,0.6-1,1.3-1.6,2.1l0,0
		c-0.3,0.3-0.4,0.8-0.8,1.4l0,0c-1.7,3.8-2.5,5.8-2.8,6.4l0,0c0,0,0,0,0,0.1C100.1,30.9,99.4,32.6,98.5,33.9z"/>
</g>
</svg>
