<?xml version="1.0" encoding="utf-8"?>
<!-- Generator: Adobe Illustrator 24.1.2, SVG Export Plug-In . SVG Version: 6.00 Build 0)  -->
<svg version="1.1" id="Camada_1" xmlns="http://www.w3.org/2000/svg" xmlns:xlink="http://www.w3.org/1999/xlink" x="0px" y="0px"
	 viewBox="0 0 150.6 145.6" style="enable-background:new 0 0 150.6 145.6;" xml:space="preserve">
<style type="text/css">
	.st0{fill-rule:evenodd;clip-rule:evenodd;fill:#147834;stroke:#FFFFFF;stroke-width:5;stroke-miterlimit:10;}
</style>
<path class="st0" d="M103.7,16.8c-2.2,0-4.4,0.2-6.7,0.5c-2.2,0.3-4.1,1-6.2,1.7c-1.9,0.8-3.8,1.6-5.7,2.9c-1.7,1.1-3.5,2.4-4.9,4
	c-0.6,0.6-1.3,1.3-1.7,1.9v-1.1c0-1.7-1.4-3.3-3.2-3.3c0,0,0,0-0.2,0c-1.7,0-3.2,1.4-3.2,3.3v3.5c-20.4,1.2-37.7,16.3-41.5,36.7
	c-4.3,22.5,9,44.7,30.8,51.7c21.7,7,45.5-3.3,55.2-24.1c8.9-18.9,3.5-41.2-12.2-54.2c1.3-0.6,2.5-1.3,3.6-2.1c1.6-1.1,3-2.4,4.4-4
	c1.4-1.6,2.7-3.2,4-4.9s2.5-3.6,3.8-5.9c1.1-1.9,0.2-4.3-2.1-4.8c-2.5-0.6-5.1-1.1-7.5-1.4C108.1,17,105.9,16.8,103.7,16.8z
	 M103.7,23.3c1.9,0,4,0.2,6.2,0.5c0.6,0.2,1.4,0.3,2.2,0.5c-0.3,0.5-0.6,1-1,1.4c-1.1,1.6-2.2,3-3.5,4.1c-1.1,1.3-2.4,2.2-3.6,3.2
	c-1.3,0.8-2.5,1.6-3.8,2.2c-1.3,0.6-2.9,1-4.4,1.3S92.3,37,90.4,37c-2.1,0-4.1-0.2-6.5-0.5c-1-0.2-2.2-0.3-3.3-0.6
	c0.3-0.5,0.5-1,0.8-1.3c1.1-1.6,2.2-2.9,3.5-4.1c1.3-1.3,2.5-2.2,4-3c1.4-1,2.9-1.6,4.4-2.2c1.6-0.6,3.2-1.1,4.9-1.3
	C99.9,23.5,101.6,23.3,103.7,23.3z M71.8,36.5v8.6c-0.3,0-0.6,0-1,0.2c-1.3,0.3-2.5,0.6-3.8,1.3c-1.6,0.8-2.4,2.7-1.6,4.3
	s2.7,2.4,4.3,1.6c0.2,0,0.2-0.2,0.3-0.2c0.5-0.3,1.3-0.5,2.1-0.6c0.8-0.2,1.7-0.2,2.7-0.2s1.9,0.2,2.9,0.3c1,0.2,1.9,0.5,2.7,0.8
	c1.7,0.6,3.5-0.2,4.3-1.7c0.8-1.6-0.2-3.5-1.7-4.3l0,0c-1.3-0.5-2.5-0.8-3.8-1.1c-0.2,0-0.3,0-0.6-0.2v-3c1.6,0.3,3.2,0.5,4.6,0.6
	c2.7,0.3,5.1,0.5,7.5,0.5c2.2,0,4.3-0.2,6.2-0.5c16.2,10.6,22.2,31.6,14,49.2c-8.4,17.8-28.5,26.6-47.3,20.6S33.1,87.5,36.7,68.2
	C40.1,50.6,54.5,37.9,71.8,36.5z"/>
</svg>
