<?xml version="1.0" encoding="utf-8"?>
<!-- Generator: Adobe Illustrator 24.1.2, SVG Export Plug-In . SVG Version: 6.00 Build 0)  -->
<svg version="1.1" id="Camada_1" xmlns="http://www.w3.org/2000/svg" xmlns:xlink="http://www.w3.org/1999/xlink" x="0px" y="0px"
	 viewBox="0 0 150.6 145.6" style="enable-background:new 0 0 150.6 145.6;" xml:space="preserve">
<style type="text/css">
	.st0{fill:#147834;stroke:#FFFFFF;stroke-width:5;stroke-miterlimit:10;}
</style>
<path id="XMLID_202_" class="st0" d="M76.2,64.7c-2.5-1.9-4.8-3.1-7.1-3.7c-4.5-1.2-8.6,0.1-12.3,3.8c-1.6,1.6-4.9,5.5-8.6,10.4
	c-3.5,4.2-12.1,15.6-18.7,26.5c-7.6,12.5-9.3,19.1-5.8,22.6c0.9,0.9,2.3,1.7,4.4,1.7c4.3,0,12-3.1,27.2-13.4
	c12.2-8.2,24.6-18.2,27.9-21.4c3.7-3.7,5-7.8,4.1-12.1c-0.6-2.4-1.7-4.8-3.9-7.4c3.1-1.9,7.7-4.8,9.5-5.9c0.8-0.6,1.6-0.7,2.1-0.6
	c0.2,0.1,0.8,0.8,1.3,2.5c0.9,4.2,4.5,6.7,8.6,6.1c3.7-0.5,6.4-3.4,6.3-6.6v-0.6c0-0.9-0.1-2.4,0-3.4c0.7,1.6,1.9,4.1,4.6,5.6
	c2.3,1.3,5.5,1.2,8-0.3c2.5-1.5,3.9-4.1,3.9-7c-0.1-4.5-3.8-8.8-11.1-12.9c-5.4-2.9-10.8-3-15.7-1.3c1.5-4.9,1.5-10.3-1.3-15.6
	c-4.1-7.3-8.4-11-12.9-11.1h-0.1c-2.8,0-5.2,1.4-6.8,3.9c-1.5,2.5-1.6,5.6-0.3,8c1.5,2.9,4.1,3.9,5.6,4.6c-0.9,0.1-2.3,0-3.4,0h-0.8
	c-3.2-0.1-6.1,2.5-6.6,6.3c-0.6,4.1,1.9,7.7,6.1,8.6c1.7,0.3,2.4,0.9,2.5,1.3s0,1-0.6,2.1C81,56.9,78.1,61.4,76.2,64.7z M28.7,119.2
	c0.1-1,0.8-3.8,3.8-9.4c0.8,0.8,1.6,1.5,2.5,2.4c1,1,2.1,2.2,3,3.2C32.5,118.4,29.7,119.1,28.7,119.2z M39.8,114.5
	c-1-1.2-2.3-2.5-3.5-3.6c-0.9-0.9-1.9-1.9-2.9-2.8c0.8-1.4,1.6-2.9,2.8-4.6c0.3-0.5,0.6-1,0.9-1.5c1.4,1.2,2.9,2.5,4.2,3.9
	c1.5,1.5,3.1,3.2,4.5,4.9C43.6,112.2,41.5,113.4,39.8,114.5z M53.3,105.9c-2.1,1.4-3.9,2.7-5.6,3.8c-1.5-1.7-3.1-3.6-4.8-5.2
	c-1.4-1.4-3-2.9-4.5-4.2c1.3-2.1,2.7-3.9,3.9-5.8c1.9,1.5,3.8,3.4,5.6,5.1c2.1,2.1,3.9,4.2,5.7,6.4
	C53.5,105.8,53.4,105.8,53.3,105.9z M55.1,104.5c-1.7-2.3-3.8-4.4-5.9-6.6c-1.9-1.9-3.8-3.7-5.8-5.3c1.4-2.1,2.9-3.9,4.2-5.7
	c2.3,1.7,4.5,3.8,6.8,6.1c2.4,2.4,4.6,4.9,6.7,7.5C59.1,101.8,57.1,103.1,55.1,104.5z M62.6,99.1c-2.1-2.7-4.3-5.2-6.8-7.8
	c-2.3-2.3-4.5-4.3-7-6.3c1.6-2.3,3.2-4.2,4.2-5.6c2.7,2.1,5,4.1,7.8,6.8c2.8,2.8,5.2,5.6,7.4,8.5C66.4,96.2,64.5,97.7,62.6,99.1z
	 M69.8,93.8c-2.3-3-4.8-5.8-7.5-8.7c-2.8-2.8-5.2-4.9-8-7c1.7-2.3,3.2-4.1,4.4-5.5c3,2.2,5.8,4.6,8.5,7.4c3,3,5.6,6.1,8,9.3
	C73.7,90.5,71.8,92.1,69.8,93.8z M78.4,86.5c-0.3,0.3-0.9,0.9-1.6,1.5c-2.4-3.2-5.1-6.5-8.1-9.4c-2.8-2.8-5.6-5.2-8.6-7.5
	c0.6-0.7,1.2-1.3,1.4-1.6c1.7-1.7,3.2-2.3,4.4-2.3c0.5,0,1,0.1,1.4,0.2c2.3,0.6,5,2.5,8.2,5.8c2.9,2.9,4.5,5.2,5,7.4
	C81,81.9,81,83.8,78.4,86.5z M113.2,54.2c6.6,3.6,8.1,6.7,7.5,7.8c-0.5,0.7-1.6,1-1.9,0.8c-0.8-0.5-1.3-1.3-1.9-2.7
	c-0.7-1.6-2.8-6.1-8.5-4.1c-4.6,1.6-4.4,6.8-4.2,10.6v0.3c-0.2,0.1-0.6,0.2-0.9,0.1c-0.1,0-0.5-0.1-0.7-1c-1-4.6-3.5-6.6-5.2-7.3
	c-0.8-0.3-1.7-0.5-2.7-0.5c0,0,0,0-0.1,0c0.2-0.2,0.5-0.6,0.7-0.8C100.7,53.3,107.2,50.9,113.2,54.2z M81.9,45.3
	c-0.8-0.2-0.9-0.6-1-0.7c-0.1-0.3,0-0.7,0.1-0.9h0.3c3.7,0.2,8.7,0.5,10.6-4.2c2.1-5.7-2.4-7.7-4.1-8.5c-1.3-0.6-2.2-0.9-2.7-1.7
	c-0.1-0.3,0.1-1.5,0.8-1.9c1-0.6,4.1,0.9,7.8,7.5c3.4,5.9,0.8,12.5-3.2,18.1c-0.2,0.2-0.6,0.5-0.8,0.6c0-0.9-0.1-1.9-0.5-2.8
	C88.3,48.7,86.5,46.4,81.9,45.3z"/>
</svg>
