<?xml version="1.0" encoding="utf-8"?>
<!-- Generator: Adobe Illustrator 24.1.2, SVG Export Plug-In . SVG Version: 6.00 Build 0)  -->
<svg version="1.1" id="Camada_1" xmlns="http://www.w3.org/2000/svg" xmlns:xlink="http://www.w3.org/1999/xlink" x="0px" y="0px"
	 viewBox="0 0 150.6 145.6" style="enable-background:new 0 0 150.6 145.6;" xml:space="preserve">
<style type="text/css">
	.st0{fill:#147834;stroke:#FFFFFF;stroke-width:0.5;stroke-miterlimit:10;}
</style>
<path class="st0" d="M114.6,66c0-6.8-4.8-12.5-11.4-13.8c0.9-1.8,1.4-4,1.4-6.1c0-7.7-6.3-14.1-14.1-14.1s-14.1,6.3-14.1,14.1v0.6
	c-1.4-10.2,1.3-20.3,6.8-23.9h11.9v-1.4H69v1.4h12.1c-3.8,3.4-6.1,9.9-6.3,17.2c-2.3-4.7-7.1-8-12.6-8c-7.7,0-14.1,6.3-14.1,14.1
	c0,2.1,0.4,4.1,1.3,6c-7.2,0.7-12.6,6.7-12.6,13.9c0,7.1,5.3,12.9,12.1,13.9c-0.6,1.4-0.7,3-0.7,4.5c0,7.7,6.3,14.1,14.1,14.1
	c-0.9,1.8-1.3,3.8-1.3,5.8c0,7.7,6.3,14.1,14.1,14.1S89,112.2,89,104.3c0-2-0.4-3.8-1.1-5.5h1.3c7.7,0,14.1-6.3,14.1-14.1
	c0-1.7-0.3-3.4-0.9-5C109.2,78.9,114.6,73.1,114.6,66L114.6,66z M90.6,33.5c7,0,12.6,5.7,12.6,12.6c0,7-5.7,12.6-12.6,12.6
	c-7,0-12.6-5.7-12.6-12.6C77.9,39.1,83.6,33.5,90.6,33.5z M75.7,80.8c-0.1-0.3-0.1-0.6-0.3-0.9h0.6C75.9,80.2,75.8,80.5,75.7,80.8
	L75.7,80.8z M74.9,78.5c-7,0-12.6-5.7-12.6-12.6c0-2.1,0.6-4.1,1.6-6c4.4-0.6,8.1-3,10.2-6.5c1.7-0.1,3.4,0.1,5,0.7
	c1.6,2.3,3.8,4.1,6.5,5.1c1.3,2,2,4.4,2,6.8C87.6,72.8,81.9,78.5,74.9,78.5L74.9,78.5z M87.4,59.7c0.1,0,0.3,0,0.4,0.1
	c0,0.1-0.1,0.3-0.1,0.4C87.7,60,87.6,59.9,87.4,59.7z M78.1,52.2h-0.3l-0.3-1.3C77.6,51.4,77.8,51.8,78.1,52.2z M76.2,51.9h-1.4
	c0.3-0.7,0.6-1.4,0.9-2.3c0.1,0.4,0.1,1,0.3,1.4L76.2,51.9z M62.2,33.5c7,0,12.6,5.7,12.6,12.6c0,7-5.7,12.6-12.6,12.6
	c-7,0-12.6-5.7-12.6-12.6C49.5,39.1,55.2,33.5,62.2,33.5z M38.2,66c0-6.8,5.3-12.2,12.1-12.6c2.4,4,7,6.7,11.9,6.7
	c-0.9,1.8-1.3,3.8-1.3,5.8c0,2,0.4,3.8,1.1,5.5c-2.1,4.3-6.4,7-11.2,7C43.8,78.5,38.2,72.8,38.2,66L38.2,66z M49.5,84.5
	c0-1.6,0.3-3,0.9-4.4h0.4c5,0,9.5-2.7,12.1-7c2.3,3.8,6.4,6.5,11.1,6.8c0.6,1.4,0.9,3,0.9,4.5c0,7-5.7,12.6-12.6,12.6
	C55.2,97.1,49.5,91.3,49.5,84.5L49.5,84.5z M86.2,98.7c0.9,1.7,1.3,3.7,1.3,5.7c0,7-5.7,12.6-12.6,12.6s-12.6-5.7-12.6-12.6
	c0-2.1,0.6-4.1,1.6-6c5.5-0.7,10.2-4.7,11.8-9.9C76.9,93.4,81.1,97.4,86.2,98.7L86.2,98.7L86.2,98.7z M101.8,84.7
	c0,7-5.7,12.6-12.6,12.6c-7,0-12.6-5.7-12.6-12.6c0-1.8,0.4-3.6,1.1-5.1c4.5-0.9,8.2-4,10.1-8c2.3,5,7.2,8.2,12.8,8.2h0.3
	C101.4,81.5,101.8,83,101.8,84.7L101.8,84.7z M100.5,78.5c-5.5,0-10.4-3.6-12.1-8.8c0.3-1.1,0.6-2.4,0.6-3.7c0-1.3-0.1-2.6-0.6-3.7
	c0.3-0.7,0.6-1.6,1-2.3h1.1c5,0,9.4-2.7,11.9-6.5c6.1,1,10.7,6.3,10.7,12.5C113.2,72.8,107.5,78.5,100.5,78.5L100.5,78.5z"/>
</svg>
