<?xml version="1.0" encoding="utf-8"?>
<!-- Generator: Adobe Illustrator 24.1.2, SVG Export Plug-In . SVG Version: 6.00 Build 0)  -->
<svg version="1.1" id="Camada_1" xmlns="http://www.w3.org/2000/svg" xmlns:xlink="http://www.w3.org/1999/xlink" x="0px" y="0px"
	 viewBox="0 0 150.6 145.6" style="enable-background:new 0 0 150.6 145.6;" xml:space="preserve">
<style type="text/css">
	.st0{fill:#147834;stroke:#FFFFFF;stroke-width:5;stroke-miterlimit:10;}
</style>
<g>
	<path class="st0" d="M81.9,121.9c-0.5,0-1.2-0.1-1.7-0.4l-3.5-1.6c-0.5-0.3-1-0.4-1.6-0.4c-0.4,0-0.8,0-1.2,0.1l-3.5,1
		c-0.4,0.1-0.8,0.1-1.3,0.1c-1.3,0-2.5-0.7-3.3-1.7c-1-1.3-1.2-3.3-0.3-4.7c0.5-0.9,1-2,1.3-3c-14.3-3.4-25.5-14.8-28.6-29.2
		C33.5,61.6,46.7,41,67.4,36.4c1.7-0.4,3.4-0.7,5.2-0.8c-0.3-0.4-0.4-0.8-0.5-1.2c-1-4.4-3.5-8.2-7.2-10.9c-1.4-0.8-2-2.7-1-4.3
		c0.5-0.6,1.6-1.3,2.7-1.3c0.5,0,1.2,0.1,1.6,0.4c0.1,0.1,0.3,0.1,0.4,0.3c2.5,1.8,4.7,4.1,6.4,6.8c2.5-3.5,6.1-6.1,10.3-7.3
		c0.3-0.2,0.7-0.2,1-0.2c1.3,0,2.6,0.9,3,2.1c0.3,0.8,0.3,1.7-0.1,2.4c-0.4,0.8-1,1.3-1.8,1.6h-0.1c-8.4,2.6-8.8,9.5-8.8,9.8
		c0,0.7-0.1,1.3-0.5,1.7c17,0.9,31.8,13.3,35.5,30.2c4.4,20.4-8.1,40.7-28.4,45.7c0,1.6,0.3,3.1,0.8,4.6c0.1,0.4,0.3,0.9,0.3,1.6
		c0,1.2-0.4,2.2-1.2,3C84,121.5,83,121.9,81.9,121.9L81.9,121.9z M75.1,113.4c1.3,0,2.5,0.3,3.7,0.7c0-0.5-0.1-1-0.1-1.6
		c-0.9,0.1-2,0.1-2.9,0.1h-2.6c-0.1,0.4-0.1,0.7-0.3,1c0.7-0.1,1.3-0.3,2.1-0.3C75,113.4,75.1,113.4,75.1,113.4z M75.8,42.1
		c-17.8,0-32.2,14.5-32.2,32.2c-0.1,15.7,11.5,29.3,27.1,31.6c0.9,0.1,1.8,0.3,2.7,0.3c0.8,0,1.6,0.1,2.4,0.1
		c17.8,0,32.2-14.5,32.2-32.2C108,56.5,93.6,42.1,75.8,42.1v-1.3V42.1z M71.2,103.1c-1.7,0-3.1-1.4-3.1-3.1c0-0.8,0.4-1.6,0.9-2.2
		c0.7-0.7,1.4-0.9,2.2-0.9c0.8,0,1.7,0.4,2.2,0.9c0.3,0.3,0.5,0.7,0.7,1c0.1,0.4,0.3,0.8,0.3,1.2C74.4,101.6,73,103.1,71.2,103.1z
		 M78.7,102.7c-1.6,0-3-1.3-3.1-2.9c-0.1-0.8,0.1-1.7,0.8-2.4c0.5-0.7,1.3-1,2.2-1.2h0.3c2.1-0.5,10.5-2.6,13.5-8.5
		c0.5-1,1.6-1.7,2.9-1.7c0.5,0,1,0.1,1.4,0.4c0.8,0.4,1.3,1,1.6,1.8c0.3,0.8,0.3,1.7-0.1,2.5c-4.2,8.1-14.1,11-18.3,11.9l-0.3,0.1
		h-0.5C78.9,102.7,78.8,102.7,78.7,102.7z M78.9,94c-1.7,0-3-1.2-3.1-2.9c-0.1-1.7,1-3.3,2.7-3.4h0.1h0.1c2.6-0.4,5-1.8,6.3-4.2
		c0.5-1,1.6-1.7,2.7-1.7c0.5,0,1,0.1,1.4,0.4c0.8,0.4,1.3,1,1.6,1.8c0.3,0.8,0.1,1.7-0.3,2.5C88,90.7,83.7,93.4,78.9,94L78.9,94
		C79.1,94,78.9,94,78.9,94z M78.1,86.6L78.1,86.6c-1.8-0.3-3-1.8-2.9-3.5c0.1-1.6,1.4-2.7,2.9-2.9c0.7-0.9,1.6-1.4,2.6-1.4
		c0.4,0,0.9,0.1,1.3,0.3c1.6,0.7,2.4,2.6,1.7,4.2c-0.9,2.1-2.9,3.4-5.1,3.4L78.1,86.6L78.1,86.6z M97.8,85.9c-1.3,0-2.4-0.8-2.9-2
		l-0.1-0.3l0,0c-0.1-0.3-0.1-0.7-0.1-0.9c0-0.4,0.1-0.9,0.3-1.3c0.1-0.4,0.4-0.7,0.7-1l0.5-0.4l0.5-0.3l0.5-0.1h0.1
		c0.3,0,0.4,0,0.7,0c1.4,0,2.7,1,3.1,2.5c0,0.3,0.1,0.5,0,0.7C100.9,84.5,99.5,85.9,97.8,85.9L97.8,85.9z"/>
</g>
</svg>
