<?xml version="1.0" encoding="utf-8"?>
<!-- Generator: Adobe Illustrator 24.1.2, SVG Export Plug-In . SVG Version: 6.00 Build 0)  -->
<svg version="1.1" id="Camada_1" xmlns="http://www.w3.org/2000/svg" xmlns:xlink="http://www.w3.org/1999/xlink" x="0px" y="0px"
	 viewBox="0 0 150.6 145.6" style="enable-background:new 0 0 150.6 145.6;" xml:space="preserve">
<style type="text/css">
	.st0{fill:#147834;stroke:#FFFFFF;stroke-width:2;stroke-miterlimit:10;}
</style>
<path class="st0" d="M97.4,115.9c-16,0-41.1-4.3-54.8-28.7C21.7,50.1,31.6,26,32.1,25c0.4-1,1.6-1.5,2.5-1c0.4,0.1,0.7,0.4,1,0.9
	c25.6,48.9,59.1,74.2,72.3,82.8c1.9,1.3,2.5,4,1.3,5.9c-0.7,1.2-1.9,1.8-3.3,1.9C103.6,115.6,100.7,115.9,97.4,115.9z M34.5,30.9
	C32.7,39.2,31.2,59,46,85.3c15.5,27.5,46.7,27.5,59.6,26.3c0.1,0,0.3-0.1,0.3-0.3s0-0.3-0.1-0.4C92.7,102.4,60.2,77.8,34.5,30.9z"/>
<path class="st0" d="M62.5,51.9c-0.4,0-0.9-0.1-1.2-0.4c-1.9-1.6-4-3.1-5.9-4.7c-0.9-0.7-0.9-1.9-0.3-2.8c0.7-0.9,1.9-0.9,2.8-0.3
	l0,0c1.9,1.6,3.8,3.3,5.8,4.7c0.9,0.7,1,1.9,0.3,2.8C63.7,51.6,63.1,51.9,62.5,51.9L62.5,51.9z"/>
<path class="st0" d="M106.9,96.8c-1,0-2.1-0.7-2.1-1.9c0-1,0.7-2.1,1.9-2.1c5.8-0.7,11.5-2.1,17.1-4c0.7-0.3,1.2-1,0.9-1.8
	c-0.1-0.4-0.4-0.7-0.9-0.9c-10.6-3.7-32.1-12.4-56.2-30c-0.9-0.6-1-1.9-0.4-2.8c0.6-0.9,1.9-1,2.8-0.4c23.7,17.3,44.6,25.9,55,29.4
	c2.8,1,4.3,4,3.4,6.8c-0.6,1.6-1.8,2.8-3.4,3.4c-5.8,2.1-11.8,3.4-17.9,4.1L106.9,96.8z"/>
<path class="st0" d="M49.8,54.1c-1,0-1.9-0.9-1.9-1.9c0-0.7,0.4-1.3,1-1.8c5.2-2.7,7.2-8.9,4.6-14c-2.7-5.2-8.9-7.2-14-4.6
	c-0.1,0-0.3,0.1-0.4,0.1c-0.9,0.4-2.2,0.1-2.7-0.7s-0.1-2.2,0.7-2.7l0,0c7.1-3.7,15.8-1,19.5,6.1c3.7,6.9,1,15.5-5.9,19.4
	C50.4,54,50.1,54.1,49.8,54.1z"/>
<path class="st0" d="M65.8,72.9c-1,0-1.9-0.9-1.9-1.9c0-0.6,0.3-1.2,0.7-1.5c4.4-3.7,5-10.3,1.3-14.8c-3.5-4.3-9.6-5.2-14-2.1
	c-0.9,0.6-2.1,0.4-2.8-0.4c-0.6-0.9-0.4-2.1,0.4-2.8c6.5-4.6,15.5-3.1,20.1,3.3c4.4,6.2,3.3,14.8-2.7,19.7
	C66.7,72.7,66.2,72.9,65.8,72.9z"/>
<path class="st0" d="M84.1,91.8c-1,0-1.9-0.9-1.9-1.9c0-0.6,0.1-1,0.6-1.5c4-4.1,4-10.8-0.1-14.8c-1.9-1.9-4.6-3-7.4-3h-0.2
	c-2.8,0-5.5,1.2-7.4,3.1c-0.7,0.7-2.1,0.7-2.8,0c-0.7-0.7-0.7-2.1,0-2.8c2.7-2.7,6.4-4.3,10.2-4.3h0.1c8,0,14.3,6.5,14.3,14.3
	c0,3.8-1.5,7.4-4.1,10.1C85.2,91.7,84.6,91.8,84.1,91.8z"/>
<path class="st0" d="M103.3,109c-1,0-1.9-0.9-1.9-1.9c0-0.6,0.1-1,0.6-1.3c4.1-4,4.3-10.6,0.3-14.8c-4-4.1-10.6-4.3-14.8-0.3
	c-0.6,0.6-1.2,1.3-1.6,2.1c-0.6,0.9-1.8,1.2-2.7,0.6s-1.2-1.8-0.6-2.7c4.1-6.8,13-8.9,19.8-4.7c6.8,4.1,8.9,13,4.7,19.8
	c-0.6,1-1.3,1.9-2.2,2.8C104.4,108.8,103.9,109,103.3,109z"/>
</svg>
