<?xml version="1.0" encoding="utf-8"?>
<!-- Generator: Adobe Illustrator 24.1.2, SVG Export Plug-In . SVG Version: 6.00 Build 0)  -->
<svg version="1.1" id="Camada_1" xmlns="http://www.w3.org/2000/svg" xmlns:xlink="http://www.w3.org/1999/xlink" x="0px" y="0px"
	 viewBox="0 0 150.6 145.6" style="enable-background:new 0 0 150.6 145.6;" xml:space="preserve">
<style type="text/css">
	.st0{fill:#147834;stroke:#FFFFFF;stroke-width:2;stroke-miterlimit:10;}
</style>
<g>
	<path class="st0" d="M48.2,72.1h-3.7c0-11.1,7.7-20.8,16.5-20.8V55C54.3,55,48.2,63.1,48.2,72.1z"/>
	<path class="st0" d="M74,116.8c-21.4,0-38.6-25.1-38.6-45.9C35.4,55.5,46,42,58.1,42c2.4,0,4.8,0.1,7,0.4l0.6,0.1l0.4,0.4
		c2.3,2.1,5,3.4,7,3.4l1,0c0,0,0,0,0,0c2.3,0,5.4-1.6,7.9-4.1l0.7-0.8l0.6-0.1c2.7-0.6,5.5-0.8,8.3-0.8c12.6,0,22.8,13.7,22.8,30.5
		C114.4,91.1,95.3,116.8,74,116.8z M58.1,45.7c-10,0-19.1,12-19.1,25.2c0,19,16.1,42.3,34.9,42.3c18.9,0,36.7-23.8,36.7-42.3
		c0-14.5-8.7-26.8-19.1-26.8c-2.4,0-4.8,0.2-7,0.6c0,0,0,0,0,0C81.3,48,77.4,50,74.2,50h0c-0.4,0-0.7,0-1,0h0c-2.8,0-6-1.4-9-3.9
		C62.2,45.8,60.2,45.7,58.1,45.7z"/>
	<path class="st0" d="M73.6,50c-0.2,0-0.3,0-0.5,0h0c-3.2,0-7.1-1.9-10.4-5.2c-2.3-2.3-4-4.9-4.8-7.5c-0.9-2.9-0.5-5.4,1.1-7
		c1.8-1.8,4.9-2,8.3-0.6c1.4-3.4,3.7-5.4,6.3-5.4c2.6,0,4.9,2,6.3,5.4c3.4-1.4,6.5-1.2,8.3,0.6c1.6,1.6,2,4.1,1.1,7
		c-0.8,2.5-2.5,5.2-4.8,7.5C81.3,48,77.4,50,74.2,50c0,0,0,0,0,0h0C74,50,73.8,50,73.6,50z M63.1,32.4c-0.7,0-1.2,0.2-1.5,0.5
		c-0.6,0.6-0.6,1.8-0.2,3.3c0.6,1.9,2,4.1,3.9,6c2.5,2.5,5.6,4.1,7.8,4.1l1,0c0,0,0,0,0,0c2.3,0,5.4-1.6,7.9-4.1
		c1.8-1.8,3.3-4,3.9-6c0.5-1.5,0.4-2.8-0.2-3.3c-0.9-0.9-3.4-0.5-5.9,1l-2.1,1.2l-0.6-2.4c-0.8-3.1-2.3-4.8-3.4-4.8
		c-1.1,0-2.6,1.6-3.4,4.8l-0.6,2.4l-2.1-1.2C65.9,32.9,64.3,32.4,63.1,32.4z"/>
</g>
</svg>
