<?xml version="1.0" encoding="utf-8"?>
<!-- Generator: Adobe Illustrator 24.1.2, SVG Export Plug-In . SVG Version: 6.00 Build 0)  -->
<svg version="1.1" id="Camada_1" xmlns="http://www.w3.org/2000/svg" xmlns:xlink="http://www.w3.org/1999/xlink" x="0px" y="0px"
	 viewBox="0 0 150.6 145.6" style="enable-background:new 0 0 150.6 145.6;" xml:space="preserve">
<style type="text/css">
	.st0{fill:#147834;stroke:#FFFFFF;stroke-width:5;stroke-miterlimit:10;}
</style>
<path class="st0" d="M126,73.3c-3.8-2.6-8.7-0.4-14.8,2.3c-0.3,0.1-0.6,0.3-0.9,0.4C108,62.1,98.1,52.3,82.9,48.3
	c7.4-3.8,14.9-11.4,18.2-25.4c0.3-1.4-0.3-3-1.4-3.8c-1.3-0.9-2.8-0.9-4.1-0.1c-2.3,1.4-6,1.7-9.9,2c-6.5,0.4-13.9,0.9-18.9,6.7
	c-2.1,2.4-3.6,5.5-4.3,9.4c-1.6-1.4-3.6-2.8-6.3-4l-2.4,5.7c5,2.1,6.8,5.4,7.5,7.8c-24.7,1.6-39.8,15.2-39.8,36.3
	c0,23,17.6,37.8,44.8,37.8c4.7,0,9.2-0.4,13.5-1.4c4,1.4,8.1,2.1,12.5,2.1c20.6,0,37.5-16.8,37.5-37.5
	C129.8,80.3,129.4,75.5,126,73.3z M71.5,31.4c3.3-3.7,8.7-4.1,14.5-4.5c2.6-0.1,5.1-0.3,7.5-0.9c-6,16.9-19.7,19.6-25.6,20
	C67.9,39.2,69,34.3,71.5,31.4z M66.3,114.1c-18.6,0-38.4-8.2-38.4-31.5c0-28,29.4-30.1,38.4-30.1c22.2,0,36.2,9.7,38.2,25.9
	c-3.8,1.4-8,2.4-12.1,2.4c-6.8,0-13.5-3-18.9-5.3c-6.1-2.7-10.9-4.8-14.8-2.3c-3.4,2.3-3.8,7-3.8,10.4c0,12.5,6.1,23.4,15.5,30.3
	C69,114,67.6,114.1,66.3,114.1z M92.3,114.8c-17.2,0-31.1-13.9-31.1-31.1c0-4.4,0.9-5.1,1-5.1c0.1-0.1,0.3-0.1,0.6-0.1
	c1.7,0,5.7,1.7,8.2,2.8c2.6,1.1,5.5,2.4,8.7,3.4l-3.6,8.7l5.8,2.4l3.9-9.4c1.1,0.3,2.3,0.4,3.6,0.6v15.1h6.3V87
	c1.3-0.1,2.6-0.3,3.7-0.6l4.4,8.5l5.5-2.8l-3.8-7.4c3-1,5.8-2.3,8.4-3.4c3-1.3,7.8-3.4,8.8-2.8c0,0,1,0.7,1,5.1
	C123.5,100.9,109.5,114.8,92.3,114.8z"/>
</svg>
