<?xml version="1.0" encoding="utf-8"?>
<!-- Generator: Adobe Illustrator 24.1.2, SVG Export Plug-In . SVG Version: 6.00 Build 0)  -->
<svg version="1.1" id="Camada_1" xmlns="http://www.w3.org/2000/svg" xmlns:xlink="http://www.w3.org/1999/xlink" x="0px" y="0px"
	 viewBox="0 0 150.6 145.6" style="enable-background:new 0 0 150.6 145.6;" xml:space="preserve">
<style type="text/css">
	.st0{fill:#147834;stroke:#FFFFFF;stroke-width:5;stroke-miterlimit:10;}
</style>
<path id="XMLID_163_" class="st0" d="M35.3,61.3c-2.6-0.5-6-0.6-8.1,1.7c-1.5,1.7-1.9,4.2-0.9,6.9c1,2.3,2.9,4.8,5.4,6.5
	c0,0.7-0.1,1.4-0.1,2c0,23.5,19.2,42.8,42.8,42.8c1.8,0,3.8-0.1,5.5-0.4c0.1,0,0.1,0,0.2,0c20.8-2.8,37.1-20.7,37.1-42.4
	c0-4.7-0.8-9.3-2.2-13.7c4.8,0.3,10.5-0.3,12.7-3.9c1.6-2.6,1.1-5.9-1.6-9.7c-1.4-2-4.3-4.4-9.7-4.4h-0.1c-3.2,0-6.8,0.9-10.6,2.3
	c-8.1-8.6-19.3-13.5-31.2-13.5c-1,0-1.8,0-2.8,0.1c-3-2.5-6.2-4.2-9.6-4.8c-5.6-1-10.2,0.4-12.5,3.6c-1.7,2.4-1.8,5.4-0.5,8
	c0.2,0.4,0.4,0.7,0.7,1C43.4,48.1,38.5,54.2,35.3,61.3z M36.6,71.4C36.6,71.4,36.5,71.4,36.6,71.4c-1.6-0.8-3.2-2.5-3.8-3.7
	c0.7,0,1.8,0.2,3.7,0.8c7.1,2.2,18,8.9,26.7,18.8c0.1,0.1,0.1,0.2,0.2,0.2c1.1,1.3,2.1,2.5,3.1,3.8c-3.7-0.5-9.5-2.1-10.7-4.4
	c-0.2-0.3-0.6-1,0.2-2.7c0.5-1.1,0.4-2.3-0.2-3.3c-0.6-1-1.6-1.5-2.8-1.5l0,0c-4.1,0-10.6-0.9-12.1-2.8c-0.1-0.2-0.2-0.3-0.1-0.9
	c0.3-1,0-2-0.6-2.8c-0.6-0.8-1.4-1.4-2.5-1.4C37.3,71.6,37,71.5,36.6,71.4z M38.8,83.4c3,1.5,6.9,2.2,9.8,2.5c0,1.7,0.5,3.2,1.2,4.2
	c2.5,4.3,8.6,6.4,12.5,7.2c-0.3,6.5,4.1,12.5,8.4,16.9C54.3,112.6,41.1,99.7,38.8,83.4z M69.5,95.9c2.4,4.1,4.3,8.4,5.6,13
	C71.3,105,67.9,99.9,69.5,95.9z M82.7,113.5c-0.8-6.2-2.7-12-5.4-17.2c0.8-0.3,1.5-0.8,2.3-1.4c1.6-1.6,2.1-3.8,2-5.8
	c2.8,0,6.3-0.5,9.1-2.7c2.9-2.3,4.6-5.7,5-10.3c4-0.2,10.1-1.1,14.1-4.7c0.5,2.3,0.7,4.6,0.7,7C110.5,95.5,98.6,109.7,82.7,113.5z
	 M105.8,56.4c0.2-0.1,0.4-0.1,0.6-0.2c3.8-1.6,7.2-2.6,9.9-2.6h0.1c3.1,0,4.1,1.3,4.3,1.6c0.9,1.2,1.2,1.8,1.3,2.1
	c-1.4,0.9-6.9,0.9-11.7,0.1c0,0,0,0-0.1,0c-0.1,0-0.2,0-0.3,0s-0.2,0-0.3,0c-0.1,0-0.2,0-0.3,0s-0.3,0-0.4,0.1c-0.1,0-0.1,0-0.2,0.1
	c-0.2,0.1-0.4,0.1-0.5,0.2c0,0,0,0-0.1,0c0,0-0.1,0-0.1,0.1c-0.2,0.1-0.3,0.2-0.5,0.3c0,0,0,0-0.1,0c-0.1,0.1-0.2,0.2-0.3,0.3
	l-0.1,0.1l-0.1,0.1c-0.3,0.3-0.5,0.7-0.6,1.1l0,0c-0.2,0.6-0.2,1.2-0.1,1.7c0.6,2.7-0.2,4-0.9,4.6c-2.8,3.2-10.4,3.4-12.8,3.3
	c-1-0.1-1.9,0.3-2.6,1C89.4,71,89,71.9,89,72.9c0.2,4.1-0.7,6.8-2.5,8.2c-2.5,2-6.9,1.4-8.3,0.9c-1.2-0.4-2.5,0-3.4,0.9
	c-0.9,0.9-1.2,2.2-0.8,3.4c0.8,2.2,0.8,3.3,0.7,3.8c-0.3,0-0.8,0-1.3-0.1c-1.2-1.6-2.3-3.3-3.6-4.8c3.8-4.8,8.4-9.6,13.4-13.9
	c0.2-0.1,0.4-0.3,0.5-0.4c1.4-1.3,2.9-2.4,4.3-3.6c0.2-0.1,0.5-0.3,0.6-0.5C94.7,62.4,100.6,58.7,105.8,56.4z M99.2,52.1
	c-3.7,1.9-7.5,4.3-11.2,6.9c-1.9-4.1-5.4-10.8-9.8-16.6C86,43.4,93.4,46.7,99.2,52.1z M55,38.4c0.5-0.7,2.2-1.5,6-0.9
	c2.4,0.4,4.8,1.8,7,4c0.1,0.1,0.3,0.3,0.4,0.4c6,5.7,11.3,15.4,14,21.4c-0.7,0.5-1.3,1.1-1.9,1.6c-1.8-0.4-4.1-1.3-4.7-2.4
	c-0.6-1.1,0-2.8,0.7-4.1c0.5-1,0.5-2,0-3c-0.5-1-1.4-1.6-2.4-1.8c-1.9-0.4-6.3-1.8-7.6-4.1c-0.3-0.6-0.7-1.4-0.2-3
	c0.4-1.1,0.2-2.2-0.5-3.1s-1.6-1.4-2.7-1.4h-0.1c-4.4,0.1-7.2-1.3-8-2.7C54.7,38.8,54.9,38.6,55,38.4z M55.6,47.8
	c1.2,0.4,2.4,0.7,3.8,0.9c0.1,1.4,0.6,2.9,1.4,4.2c1.9,3.3,5.6,5.2,8.4,6.3c-0.7,3,0,5.1,0.8,6.7c1.2,2,3,3.4,4.8,4.3
	c-3.4,3.1-6.5,6.5-9.2,9.7c-7.7-8-16.7-13.7-23.7-16.7C44.8,56.9,49.6,51.5,55.6,47.8z"/>
</svg>
