<?xml version="1.0" encoding="utf-8"?>
<!-- Generator: Adobe Illustrator 24.1.2, SVG Export Plug-In . SVG Version: 6.00 Build 0)  -->
<svg version="1.1" id="Camada_1" xmlns="http://www.w3.org/2000/svg" xmlns:xlink="http://www.w3.org/1999/xlink" x="0px" y="0px"
	 viewBox="0 0 150.6 145.6" style="enable-background:new 0 0 150.6 145.6;" xml:space="preserve">
<style type="text/css">
	.st0{fill:#147834;stroke:#FFFFFF;stroke-width:4;stroke-miterlimit:10;}
</style>
<g>
	<path class="st0" d="M75.7,114.6c-24.6,0-44.6-20-44.6-44.6c0-2.6,0.2-5.2,0.7-7.8c0-0.3,0-0.6,0.1-0.9c0.1-0.5,1.5-5.1,5.1-7.1
		l0,0c1.8-9.7,12.7-20.9,19.5-22.1c0.4-0.1,0.8-0.1,1.2-0.1c1.7,0,3.2,0.7,4.2,2c4.4-1.9,9.2-2.8,13.9-2.8c5.4,0,10.9,1.3,15.7,3.7
		c0.1-0.1,0.2-0.2,0.3-0.2c0.8-0.5,1.8-0.8,2.9-0.8c1.3,0,2.9,0.4,4.5,1.2c4.7,2.2,12.7,9.3,14.7,18.8l0,0c3.4,1.7,5.1,5.8,5.5,7.1
		c0.1,0.1,0.1,0.3,0.1,0.5c0.5,2.8,0.8,5.6,0.8,8.5C120.3,94.6,100.3,114.7,75.7,114.6L75.7,114.6L75.7,114.6z M37.9,62.5
		c0,0.1,0,0.2,0,0.3c-0.5,2.4-0.7,4.9-0.7,7.3c0,20.2,15.5,36.8,35.5,38.4c0-0.3,0-0.7,0-1c-0.2-5.7-1.8-16.2-9.3-20.6
		c-9.3-5.5-9-12-8.9-13.2c0-0.5-0.1-2.3-0.9-3.2c-0.5-0.5-1.2-0.8-2.3-0.8c-1.4,0-2.2,1.3-2.3,1.3c-0.5,0.9-1.5,1.5-2.6,1.5
		c-0.3,0-0.7-0.1-1-0.2c-1.4-0.5-2.2-1.9-2-3.4c0.3-2.3,0.5-8.4-2.5-9.3c-0.2-0.1-0.4-0.1-0.5-0.1c-0.2,0-0.4,0-0.5,0.1
		C39.1,60,38.3,61.4,37.9,62.5z M100.1,69.5c-1.1,0-1.8,0.3-2.3,0.8c-0.8,0.9-0.9,2.5-0.9,3.2c0.1,1.2,0.4,7.6-8.9,13.2
		c-7.5,4.5-9,14.9-9.3,20.7c0,0.4,0,0.7,0,1c20-1.6,35.5-18.3,35.5-38.5c0-2.4-0.2-4.8-0.7-7.1c-0.4-1.2-1.4-2.9-2.3-3.5h-0.1
		c-0.2,0-0.4,0-0.5,0l0,0c-3.7,1.4-2.7,9.4-2.6,9.4c0.2,1.4-0.6,2.8-2,3.3c-0.3,0.1-0.7,0.2-1,0.2c-1.1,0-2.1-0.6-2.6-1.5
		C102.4,70.8,101.6,69.5,100.1,69.5v-1V69.5z M60.5,74.4c0,0-0.2,3.4,6,7.1c4,2.4,7.1,6.2,9.2,11.1c1.9-4.6,4.8-8.1,8.4-10.5
		c0.7-1.8,2-6.8-2.7-10.4c-1.8-1.4-3.7-2.1-5.6-2.1c-3.4,0-5.9,2-6,2.1c-0.5,0.4-1.2,0.7-1.9,0.7c-0.7,0-1.4-0.2-1.9-0.7
		c-1.1-0.9-1.4-2.5-0.8-3.7c0-0.1,4.8-9.8,0.7-13.4c-2.7-2.3-5.7-2.8-7.7-2.8c-1.8,0-3,0.4-3.1,0.4c-0.3,0.1-0.6,0.1-0.9,0.1
		c-1.1,0-2.1-0.6-2.7-1.6c-0.7-1.3-0.4-2.8,0.6-3.7c1.9-1.7,5.2-5.7,4.8-8.5c-0.5,0.2-1.3,0.5-2.5,1.3c-4.4,2.9-9.6,8.9-11.3,14.4
		c3.6,1.4,5.7,4.7,6.2,9.8c0.6-0.1,1.2-0.2,1.7-0.2l0,0c3.5,0,5.6,1.5,6.7,2.7c2.8,3,2.6,7.4,2.5,7.8C60.6,74.2,60.5,74.3,60.5,74.4
		L60.5,74.4z M80.5,64.3c1.6,0.6,3.2,1.4,4.7,2.6c3.5,2.7,5,6,5.5,8.8c0.3-0.8,0.2-1.3,0.2-1.4c0-0.1,0-0.1,0-0.2
		c-0.1-0.8-0.2-4.9,2.5-7.9c1.1-1.2,3.2-2.7,6.7-2.7c0.6,0,1.2,0.1,1.8,0.2c0.5-4.7,2.5-8,5.7-9.6c-1.6-5.6-6-10.5-9.9-12.8
		c-1.7-1.1-2.7-1.2-3-1.3c-0.3,0.2-0.6,0.4-0.9,0.7l-0.1,0.1c-1,0.9-1.6,2-1.9,3.3c-0.8,3.9,1.9,9.1,2.9,10.6
		c0.8,1.2,0.7,2.8-0.3,3.8c-0.6,0.6-1.3,0.9-2.2,0.9l0,0c-0.6,0-1.2-0.2-1.7-0.5c-0.1,0-1.6-1-3.7-1c-1.2,0-2.3,0.3-3.4,1
		C81.4,60.2,80.7,62.6,80.5,64.3z M60.9,45.8c3.4,0.5,6.5,1.9,9,4.1c4.3,3.7,4.2,9.3,3.2,13.9c0.4-0.1,0.9-0.1,1.4-0.2
		c0.4-2.8,1.6-7.1,5.8-9.8c2-1.3,4.2-2,6.5-2c-1.1-3.2-1.3-6.3-0.8-9c0.2-1.1,0.6-2.2,1.2-3.2c-3.6-1.5-7.5-2.3-11.3-2.3v-1v1
		c-4.3,0-8.7,1-12.7,2.9C62.8,42,62.1,43.8,60.9,45.8z"/>
</g>
</svg>
