<?xml version="1.0" encoding="utf-8"?>
<!-- Generator: Adobe Illustrator 24.1.2, SVG Export Plug-In . SVG Version: 6.00 Build 0)  -->
<svg version="1.1" id="Camada_1" xmlns="http://www.w3.org/2000/svg" xmlns:xlink="http://www.w3.org/1999/xlink" x="0px" y="0px"
	 viewBox="0 0 150.6 145.6" style="enable-background:new 0 0 150.6 145.6;" xml:space="preserve">
<style type="text/css">
	.st0{fill:#147834;stroke:#FFFFFF;stroke-width:2;stroke-miterlimit:10;}
</style>
<g>
	<path class="st0" d="M117,41.7c-3.7-5.8-9.5-9.9-16.2-11.4c-4.9-1.1-9.9-0.8-14.5,0.9c-3-1.2-6.3-1.9-9.7-1.9s-6.7,0.7-9.7,1.9
		c-4.6-1.7-9.6-2-14.5-0.9c-6.8,1.5-12.5,5.6-16.2,11.4c-3.7,5.8-4.9,12.8-3.4,19.5c1.2,5.4,3.6,8.6,6.2,12
		c3.6,4.8,7.6,10.2,10.5,23.1c1,4.5,3.7,8.3,7.6,10.8c2.8,1.8,6,2.7,9.2,2.7c1,0,2-0.1,3.1-0.3l-0.5,4.2c0,0.1,0,0.1,0,0.2
		c0,4.3,3.5,7.7,7.7,7.7c4.3,0,7.7-3.5,7.7-7.7c0-0.1,0-0.1,0-0.2l-0.5-4.2c1,0.2,2,0.3,3.1,0.3c3.2,0,6.4-0.9,9.2-2.7
		c3.9-2.5,6.6-6.3,7.6-10.8c2.9-12.9,7-18.3,10.5-23.1c2.6-3.4,5-6.7,6.2-12C121.9,54.5,120.7,47.6,117,41.7z M99.5,55.2
		c0,4.8-1.4,8-3.2,11.9c-2.4,5.4-5.5,12.2-5.5,26.1c0,5.2-3,10.1-7.5,12.6l-2.6-22.4l6.4-4.6c0.7-0.5,0.8-1.4,0.3-2.1
		c-0.5-0.7-1.4-0.8-2.1-0.3l-5,3.6l-1-9l6.4-4.6c0.7-0.5,0.8-1.4,0.3-2.1c-0.5-0.7-1.4-0.8-2.1-0.3l-5,3.6l-0.8-7.3l9.9-7.1
		c0.7-0.5,0.8-1.4,0.3-2.1c-0.5-0.7-1.4-0.8-2.1-0.3L78,56.6v-8.1l4.5-3.3c0.7-0.5,0.8-1.4,0.3-2.1c-0.5-0.7-1.4-0.8-2.1-0.3l-2.8,2
		v-5.4c0-0.8-0.7-1.5-1.5-1.5S75,38.6,75,39.5v5.4l-2.8-2c-0.7-0.5-1.6-0.3-2.1,0.3c-0.5,0.7-0.3,1.6,0.3,2.1l4.5,3.3v8.1l-8.2-5.9
		c-0.7-0.5-1.6-0.3-2.1,0.3c-0.5,0.7-0.3,1.6,0.3,2.1l9.9,7.1l-0.8,7.3l-5-3.6c-0.7-0.5-1.6-0.3-2.1,0.3c-0.5,0.7-0.3,1.6,0.3,2.1
		l6.4,4.6l-1,9l-5-3.6c-0.7-0.5-1.6-0.3-2.1,0.3c-0.5,0.7-0.3,1.6,0.3,2.1l6.4,4.6l-2.6,22.4c-4.6-2.5-7.5-7.3-7.5-12.6
		c0-13.9-3-20.6-5.5-26.1c-1.8-3.9-3.2-7-3.2-11.9c0-12.7,10.3-22.9,22.9-22.9C89.2,32.3,99.5,42.6,99.5,55.2z M52.3,95.7
		c-3-13.5-7.5-19.5-11.1-24.2c-2.6-3.5-4.6-6.2-5.7-10.9c-1.3-6-0.3-12.1,3-17.3c3.3-5.2,8.4-8.8,14.4-10.1c3.3-0.7,6.7-0.7,10,0
		c-4.6,2.9-8.3,7.2-10.4,12.3l-3.6-2.6c-0.7-0.5-1.6-0.3-2.1,0.3c-0.5,0.7-0.3,1.6,0.3,2.1l4.4,3.2c-0.6,2.2-0.9,4.5-0.9,6.8
		c0,0.4,0,0.8,0,1.2l-7.8-5.7c-0.7-0.5-1.6-0.3-2.1,0.3c-0.5,0.7-0.3,1.6,0.3,2.1l10.1,7.3c0.4,2,1.1,3.7,1.8,5.4l-2.7-2
		c-0.7-0.5-1.6-0.3-2.1,0.3c-0.5,0.7-0.3,1.6,0.3,2.1l6.8,4.9c1,2.3,1.9,4.8,2.6,8l-4.1-2.9c-0.7-0.5-1.6-0.3-2.1,0.3
		c-0.5,0.7-0.3,1.6,0.3,2.1l6.5,4.7c0.4,2.8,0.6,5.9,0.6,9.7c0,5.4,2.6,10.5,6.8,13.7c-2.6,0-5.2-0.8-7.4-2.2
		C55.4,102.6,53.1,99.5,52.3,95.7z M76.5,118.7c-2.6,0-4.7-2.1-4.7-4.7l4.7-41l4.7,41C81.2,116.7,79.1,118.7,76.5,118.7z
		 M117.5,60.6c-1.1,4.7-3.1,7.5-5.7,10.9c-3.6,4.8-8,10.7-11.1,24.2c-0.8,3.7-3.1,6.9-6.3,8.9c-2.3,1.4-4.8,2.2-7.5,2.2
		c4.2-3.2,6.8-8.3,6.8-13.7c0-3.8,0.2-6.9,0.6-9.7l6.6-4.7c0.7-0.5,0.8-1.4,0.3-2.1c-0.5-0.7-1.4-0.8-2.1-0.3l-4.1,2.9
		c0.7-3.2,1.6-5.7,2.6-8l6.8-4.9c0.7-0.5,0.8-1.4,0.3-2.1c-0.5-0.7-1.4-0.8-2.1-0.3l-2.7,1.9c0.7-1.7,1.4-3.5,1.8-5.4l10.1-7.3
		c0.7-0.5,0.8-1.4,0.3-2.1s-1.4-0.8-2.1-0.3l-7.8,5.7c0-0.4,0-0.8,0-1.2c0-2.4-0.4-4.7-1-6.9l4.2-3c0.7-0.5,0.8-1.4,0.3-2.1
		c-0.5-0.7-1.4-0.8-2.1-0.3l-3.5,2.5c-2.1-5.1-5.8-9.3-10.4-12.1c3.3-0.7,6.7-0.7,10,0c6,1.3,11.1,4.9,14.4,10.1
		S118.8,54.6,117.5,60.6z"/>
</g>
</svg>
