<?xml version="1.0" encoding="utf-8"?>
<!-- Generator: Adobe Illustrator 24.1.2, SVG Export Plug-In . SVG Version: 6.00 Build 0)  -->
<svg version="1.1" id="Camada_1" xmlns="http://www.w3.org/2000/svg" xmlns:xlink="http://www.w3.org/1999/xlink" x="0px" y="0px"
	 viewBox="0 0 150.6 145.6" style="enable-background:new 0 0 150.6 145.6;" xml:space="preserve">
<style type="text/css">
	.st0{fill:#147834;stroke:#FFFFFF;stroke-width:6;stroke-miterlimit:10;}
</style>
<g id="XMLID_37_">
	<path id="XMLID_84_" class="st0" d="M28,78.9c0,11.1,5.2,22.2,14,30.4c9.2,8.6,21.1,13.1,33.7,13.1s24.5-4.7,33.7-13.1
		c9-8.3,14-19.3,14-30.4c0-14.9-9.2-27.2-23.5-33.8c2.5-5.9,4-11.4,4.4-16.2c0.1-1.3-0.6-2.7-1.6-3.5c-1.2-0.7-2.7-0.9-3.8-0.3
		c-4.6,2.4-9.5,6.1-14.2,11.1c-1.2-6.6-3-12.1-5.6-16.7c-0.7-1.3-1.9-2-3.4-2c-1.3,0-2.7,0.7-3.4,1.9c-2.5,4.6-4.4,10-5.6,16.7
		c-4.7-5-9.5-8.7-14.2-11.1c-1.2-0.6-2.7-0.6-3.8,0.3c-1.2,0.7-1.8,2.1-1.6,3.5c0.4,4.9,1.9,10.3,4.4,16.2C37.2,51.6,28,64,28,78.9z
		 M94.8,37.1c-0.6,1.8-1.2,3.5-2.1,5.3c-0.9-0.3-1.8-0.4-2.8-0.7C91.5,39.9,93.1,38.5,94.8,37.1z M75.6,31.7
		c0.7,2.5,1.3,5.3,1.8,8.4c-0.6,0-1.2,0-1.8,0s-1.2,0-1.8,0C74.4,37,75,34.2,75.6,31.7z M61.4,41.7c-0.9,0.3-1.9,0.4-2.8,0.7
		c-0.7-1.8-1.5-3.5-2.1-5.3C58.1,38.5,59.8,39.9,61.4,41.7z M75.6,47.6c22.7,0,40,13.4,40,31.2c0,19.2-18.8,36-40,36
		s-40-16.7-40-35.9C35.5,61.1,52.8,47.6,75.6,47.6z"/>
	<path id="XMLID_27_" class="st0" d="M108.2,87.5c1.8,0,3.4-1.2,3.7-3.1c0.1-0.7,0.3-1.3,0.3-2.1c0.3-2.1-1.2-4-3.2-4.3
		c-1.9-0.1-3.8,1.3-4.1,3.4c0,0.4-0.1,1-0.3,1.5c-0.4,2.1,0.9,4.1,3,4.6C107.8,87.5,108.1,87.5,108.2,87.5z"/>
	<path id="XMLID_26_" class="st0" d="M103.9,74.2c0.4,1.6,2.1,2.8,3.7,2.8c0.3,0,0.7,0,1-0.1c2.1-0.6,3.2-2.7,2.7-4.7
		c-2.5-8.6-9-15.5-18.5-19.3c-1.9-0.7-4.1,0.1-5,2.1c-0.7,1.9,0.1,4.1,2.1,5C97.1,62.7,102.1,67.9,103.9,74.2z"/>
</g>
</svg>
