<?xml version="1.0" encoding="utf-8"?>
<!-- Generator: Adobe Illustrator 24.1.2, SVG Export Plug-In . SVG Version: 6.00 Build 0)  -->
<svg version="1.1" id="Camada_1" xmlns="http://www.w3.org/2000/svg" xmlns:xlink="http://www.w3.org/1999/xlink" x="0px" y="0px"
	 viewBox="0 0 150.6 145.6" style="enable-background:new 0 0 150.6 145.6;" xml:space="preserve">
<style type="text/css">
	.st0{fill:#147834;stroke:#FFFFFF;stroke-width:2;stroke-miterlimit:10;}
</style>
<g>
	<g>
		<g>
			<g>
				<path class="st0" d="M76.1,108.7c-0.4,0-0.8-0.1-1.1-0.3c-0.8-0.6-1-1.8-0.4-2.6l14.8-21.4l5.8-8.3c-1.3-1.1-2.5-2.3-3.6-3.7
					c-3.3-4.1-3.8-8.1-1.5-11.4c0.9-1.2,2.1-2,3.5-2.5c-0.2-0.9-0.2-1.8,0-2.6c0.4-1.4,1.3-2.6,2.5-3.2c1-0.6,2.1-1,3.3-1
					c0.3,0,0.6,0,0.9,0.1c0.6-2.9,2.1-4.7,4.5-5.1c0.3-0.1,0.8-0.2,1.2-0.2c1,0,2,0.3,2.9,0.9c1.2-1.3,2.8-2.7,4.8-3.2
					c0.5-0.1,0.9-0.2,1.4-0.2c1.3,0,2.6,0.4,3.7,1.2c1.5,0.9,2.5,2.5,2.7,4.4c0.3,2-0.5,4.1-1.3,5.7c1.3,0.8,2,2.1,2.2,3.6
					c0.4,2.3-0.7,4.4-3.2,5.9c0.7,1.3,1,2.8,0.7,4.3c-0.2,1.4-0.9,2.7-2.1,3.5c-0.8,0.5-1.6,0.8-2.5,0.9c0.1,1.4-0.3,2.8-1.1,4.1
					c-1.2,1.7-3,2.9-5,3.3l0,0c1.3,0.5,2,1.3,2.5,2.1c0.7-0.2,1.4-0.3,2-0.3c1.1,0,2,0.3,2.7,0.8c0.8,0.7,1.4,1.6,1.5,2.7
					c1.4,0.1,3.2,0.4,4.4,1.7c1.4,1.4,1.9,3.4,1.5,5.9s-1.6,4.3-3.3,5.1c-0.7,0.3-1.5,0.5-2.4,0.5s-1.7-0.2-2.3-0.4
					c-0.5,0.9-1.3,1.6-2.3,2c-0.2,0.1-0.3,0.1-0.5,0.1s-0.5,0.1-0.7,0.1c-1.3,0-2.5-0.6-3.5-1.2c-0.9,0.7-2,1.2-3.3,1.2
					c-0.4,0-0.8,0-1.3-0.1C99.5,100.3,99,93.8,99,91c-3.7-0.2-6.9-0.2-8.6-0.2c-0.3,0-0.6,0-0.8,0l-11.9,17.1
					C77.3,108.4,76.7,108.7,76.1,108.7L76.1,108.7z M108.9,95.5c0.2,0.1,0.4,0.2,0.6,0.4c0.7,0.7,2,1.6,2.6,1.6
					c0.1,0,0.3-0.4,0.4-1.3c0-0.2,0.1-0.4,0.2-0.6c0.3-0.6,0.9-0.9,1.6-0.9c0.3,0,0.6,0.1,0.9,0.3c0.4,0.2,1.6,0.8,2.6,0.8
					c0.3,0,0.6-0.1,0.9-0.2c0.8-0.4,1.1-1.5,1.3-2.4c0.1-0.9,0.2-2-0.4-2.6c-0.4-0.4-1.3-0.7-2.3-0.7c-0.6,0-1.1,0.1-1.1,0.1
					c-0.1,0-0.1,0-0.2,0c0.6,0.3,1.2,0.5,1.8,0.8c0.9,0.6,1.2,1.6,0.7,2.5c-0.3,0.6-0.9,1-1.6,1c-0.3,0-0.6-0.1-0.9-0.2
					c-1.6-0.9-4.2-1.7-7.9-2.3c0.2,0.3,0.4,0.6,0.7,0.8c0.8,0.6,1,1.7,0.4,2.5C109.1,95.3,109,95.4,108.9,95.5z M102.6,91.1
					c0,2.7,0.6,6,2.1,6.2c0.2,0,0.4,0.1,0.6,0.1c0.8,0,1-0.4,1-0.5c0.1-0.4,0.3-0.8,0.6-1c-0.1,0-0.2-0.1-0.4-0.2
					c-1.4-1.1-2.3-2.7-2.4-4.4C103.7,91.2,103.1,91.2,102.6,91.1z M114.5,89.4L114.5,89.4L114.5,89.4L114.5,89.4z M103.7,87.5
					c2.1,0.2,4.1,0.5,5.8,0.8c0.3-0.4,0.7-0.7,1.1-1c-0.1,0-0.3,0-0.4,0s-0.2,0-0.3,0c-0.5-0.1-0.9-0.4-1.2-0.8s-0.4-0.9-0.3-1.4
					c0-0.3-0.3-0.8-1.4-1c-0.1,0-0.1,0-0.2,0C105.8,84.1,104.7,85.4,103.7,87.5z M92.1,86.9c1.9,0,4.6,0.1,7.6,0.3
					c0.9-2.3,2.6-5.3,5.1-6.4c-0.7-0.1-1.3-0.3-2-0.6c-1.6-0.5-3.2-1.2-4.7-2.1L92.1,86.9z M100.2,75.2c1.7,0.9,4.6,2.3,7.1,2.3
					c1.7,0,2.9-0.6,3.7-1.8c0.7-1,0.3-2.7,0.1-3.2c-0.1-0.4-0.1-0.8,0-1.1c0.2-0.9,0.9-1.4,1.8-1.4c0.1,0,0.3,0,0.4,0
					c0.2,0.1,0.5,0.1,0.8,0.1c0.5,0,1.1-0.1,1.6-0.4c0.3-0.2,0.4-0.5,0.5-0.9c0.3-2.1-0.7-2.5-0.8-2.6c-0.8-0.2-1.3-1-1.3-1.8
					c0-0.3,0.1-0.6,0.2-0.9c-0.5,0.2-1,0.4-1.6,0.5c-0.6,0.1-1.3,0.1-1.9,0.1c-0.9,0-1.9-0.1-2.8-0.3l-1.8,2.6c0.2,0,0.4,0,0.5,0
					c0.9,0,1.6-0.1,2.1-0.4c0.3-0.1,0.6-0.2,0.9-0.2c0.7,0,1.3,0.4,1.6,1c0.5,0.9,0.2,2-0.7,2.5c-0.7,0.4-1.4,0.6-2.1,0.7
					c-0.6,0.1-1.3,0.1-1.9,0.1c-0.9,0-1.9-0.1-2.8-0.3L100.2,75.2z M97,56.8c-0.1,0.8,0.1,1.6,0.6,2.3c0.2,0.3,0.3,0.7,0.3,1.1
					c0,1-0.9,1.8-1.9,1.8c-0.6,0-2.3,0.2-3,1.3c-1.3,1.9-0.9,4.2,1.4,7c0.8,1,1.8,2,2.8,2.9l1.5-2.1c-2.3-2.4-1.5-5.8-0.7-7.4
					c0.3-0.6,1-1,1.7-1c0.3,0,0.6,0.1,0.8,0.2c0.4,0.2,0.8,0.6,0.9,1.1c0.2,0.5,0.1,1-0.1,1.4c0,0.1-0.6,1.3-0.3,2.5l1.6-2.3
					c-1.8-2.4-1.1-5.4-0.3-6.9c0.3-0.6,1-1,1.7-1c0.3,0,0.6,0.1,0.8,0.2c0.9,0.5,1.3,1.6,0.8,2.5c0,0-0.3,0.7-0.4,1.5l3.4-5
					c0.4-0.5,0.9-0.8,1.5-0.8c0.4,0,0.7,0.1,1,0.3c0.8,0.6,1.1,1.7,0.5,2.6l-1.3,1.8c0.2,0,0.4,0,0.5,0c0.9,0,1.6-0.1,2.1-0.4
					c0.3-0.1,0.6-0.2,0.9-0.2c0.7,0,1.3,0.4,1.6,1c0.2,0.4,0.3,0.9,0.2,1.4c0,0.1-0.1,0.3-0.2,0.4c0.7-0.3,3.4-1.4,3.1-3v-0.1
					c0-0.4-0.2-0.7-0.5-0.9c-0.1,0-0.2,0-0.3,0c-0.1,0-0.2,0-0.3,0.1c-0.2,0.1-0.4,0.1-0.6,0.1c-0.6,0-1.2-0.3-1.5-0.8
					c-0.5-0.7-0.5-1.6,0.1-2.3c0.9-1.1,2.4-3.6,2.2-5.4c-0.1-0.7-0.5-1.4-1.2-1.8l-0.1-0.1c-0.4-0.3-1-0.5-1.5-0.5
					c-0.2,0-0.4,0-0.5,0.1c-1.9,0.4-3.7,3-4.3,4c-0.3,0.6-0.9,1-1.6,1c-0.5,0-1-0.2-1.3-0.6c-0.3-0.4-0.5-0.8-0.5-1.3
					c0-0.2-0.1-0.3-0.2-0.5c-0.1-0.5-0.4-0.6-0.6-0.6c-0.1,0-0.3,0-0.4,0.1h-0.1h-0.1c-1.8,0.3-1.7,4.1-1.7,4.2
					c0,0.6-0.2,1.2-0.7,1.6c-0.3,0.2-0.7,0.4-1.1,0.4c-0.6,0-1.1-0.3-1.5-0.7c0,0-0.3-0.3-0.9-0.3c-0.5,0-1,0.2-1.7,0.5
					C97.4,56.3,97.1,56.5,97,56.8z"/>
			</g>
		</g>
	</g>
	<g>
		<g>
			<g>
				<path class="st0" d="M75.7,108.1c-0.6,0-1.1-0.3-1.5-0.7L61.5,90.7c-1.1,0-4.7,0.2-9,0.6c-0.2,0-0.3,0.2-0.3,0.3
					c0.2,5.7-1.5,9.3-4.7,10c-0.5,0.1-1.1,0.2-1.5,0.2c-1.1,0-2.1-0.3-2.9-0.9H43c-0.1,0-0.1,0-0.2,0.1c-1.2,0.8-2.3,1.3-3.4,1.3
					c-0.2,0-0.3,0-0.5,0c-0.1,0-0.3,0-0.4-0.1c-1-0.3-1.8-0.9-2.3-1.7c-0.1-0.1-0.2-0.1-0.2-0.1c-0.9,0.3-1.7,0.4-2.5,0.4
					s-1.5-0.1-2.1-0.4c-1.8-0.8-3-2.4-3.6-4.9s-0.2-4.5,1.2-6c1-1,2.4-1.7,4.2-1.9c0.1,0,0.2-0.2,0.2-0.3c0.2-0.9,0.6-1.8,1.3-2.4
					c0.8-0.7,1.8-1,3-1c0.5,0,1,0,1.5,0.1l0,0c0.1,0,0.2,0,0.3-0.1c0.4-0.7,1-1.5,2.3-2c-2.1-0.3-4-1.3-5.2-3
					c-0.8-1.1-1.2-2.4-1.3-3.7c0-0.2-0.1-0.3-0.3-0.3c-0.8-0.1-1.5-0.4-2.2-0.7c-1.2-0.8-2-2-2.3-3.4c-0.3-1.3-0.2-2.8,0.3-4
					c0.1-0.2,0-0.3-0.1-0.4c-2.4-1.4-3.5-3.4-3.2-5.7c0.1-1.4,0.8-2.8,2-3.6c-0.9-1.5-1.7-3.5-1.6-5.6c0.2-1.8,1.1-3.5,2.6-4.5
					c1.1-0.9,2.4-1.4,3.9-1.4c0.4,0,0.7,0,1.1,0.1c2,0.4,3.7,1.7,5,3c0.9-0.7,2-1.1,3.1-1.1c0.4,0,0.7,0,1.1,0.1
					c2.2,0.3,3.8,1.9,4.6,4.5c0,0.2,0.2,0.3,0.3,0.3c0.3,0,0.6-0.1,0.9-0.1c1.1,0,2.1,0.3,3.1,0.8c1.3,0.6,2.3,1.7,2.7,3
					c0.2,0.8,0.3,1.6,0.1,2.4c0,0.2,0.1,0.3,0.2,0.4c1.3,0.4,2.4,1.2,3.2,2.2c2.4,3.2,2.1,7.3-1,11.5c-1,1.3-2.1,2.5-3.3,3.6
					c-0.1,0.1-0.1,0.3,0,0.4l6.5,8.6l15.2,19.9c0.3,0.4,0.4,0.9,0.4,1.4c-0.1,0.5-0.3,0.9-0.7,1.2C76.5,107.9,76.1,108.1,75.7,108.1
					L75.7,108.1z M37,95.9c0.6,0,1.2,0.3,1.6,0.8c0.1,0.2,0.2,0.4,0.3,0.6c0.2,0.9,0.4,1.2,0.5,1.3c0.5,0,1.8-0.9,2.5-1.7
					c0.2-0.2,0.4-0.3,0.6-0.4c-0.1-0.1-0.2-0.2-0.3-0.3c-0.6-0.8-0.4-1.9,0.3-2.6c0.3-0.2,0.5-0.5,0.6-0.8c-3.6,0.7-6.2,1.6-7.7,2.6
					c-0.3,0.2-0.6,0.3-1,0.3c-0.7,0-1.3-0.3-1.6-0.9c-0.5-0.8-0.3-1.9,0.5-2.5c0.6-0.4,1.2-0.7,1.8-1H35c-0.1,0-0.4,0-0.8,0
					c-1.2,0-2.2,0.3-2.7,0.8c-0.6,0.6-0.5,1.8-0.3,2.7c0.2,0.9,0.6,2,1.4,2.3c0.2,0.1,0.5,0.1,0.7,0.1c1.1,0,2.3-0.6,2.7-0.9
					C36.3,96,36.7,95.9,37,95.9z M44.4,96.7c0.3,0.3,0.5,0.6,0.6,1c0,0.2,0.2,0.5,0.9,0.5c0.2,0,0.5,0,0.7-0.1
					c1.5-0.3,1.9-3.6,1.8-6.3c-0.5,0.1-1,0.1-1.6,0.2c-0.1,1.7-0.8,3.3-2.2,4.4C44.6,96.5,44.5,96.6,44.4,96.7z M40.3,88.3
					c0.4,0.3,0.8,0.6,1.2,1c1.7-0.4,3.7-0.7,5.8-1c-1.1-2-2.3-3.2-3.2-3.2c-0.1,0-0.2,0-0.2,0c-1.1,0.2-1.4,0.7-1.4,1.1
					c0.1,0.5,0,0.9-0.3,1.4c-0.3,0.4-0.7,0.7-1.2,0.8c-0.1,0-0.3,0-0.4,0C40.5,88.3,40.4,88.3,40.3,88.3z M45.8,81.6
					c2.4,0.9,4.2,3.6,5.3,5.9c0.1,0.1,0.2,0.2,0.3,0.2c2.2-0.2,4.5-0.4,6.8-0.6c0.2,0,0.2-0.1,0.3-0.2c0-0.1,0.1-0.2,0-0.3l-5.9-7.7
					c-0.1-0.1-0.2-0.1-0.3-0.1s-0.1,0-0.2,0c-1.4,0.9-2.8,1.6-4.4,2.2C47.1,81.2,46.4,81.4,45.8,81.6z M37.3,71.1
					c0.8,0,1.6,0.6,1.8,1.4c0.1,0.4,0.1,0.7,0,1.1c-0.2,0.5-0.5,2.2,0.3,3.2c0.8,1.1,2,1.6,3.5,1.6c2.6,0,5.6-1.6,7.3-2.6l-3.9-5.1
					c-1.1,0.3-2.2,0.4-3.4,0.4c-0.4,0-0.8,0-1.2-0.1c-0.8-0.1-1.5-0.3-2.1-0.6c-0.9-0.5-1.3-1.6-0.9-2.5c0.3-0.6,1-1,1.7-1
					c0.3,0,0.6,0.1,0.8,0.2c0.4,0.2,1,0.3,1.8,0.3c0.3,0,0.6,0,0.9-0.1L42,64.8c-1.1,0.3-2.2,0.4-3.4,0.4c-0.4,0-0.8,0-1.2-0.1
					c-0.6-0.1-1.1-0.2-1.6-0.4c0.1,0.3,0.2,0.5,0.3,0.8c0,0.8-0.4,1.6-1.2,1.8c-0.1,0-1.1,0.5-0.7,2.5c0.1,0.4,0.2,0.7,0.5,0.9
					c0.4,0.2,0.9,0.3,1.4,0.3c0.3,0,0.6,0,0.9-0.1C37,71.1,37.2,71.1,37.3,71.1z M53.1,73.5c1-0.9,1.9-1.9,2.7-3
					c2.1-2.9,2.4-5.2,1-7c-0.8-1.1-2.6-1.1-2.9-1.1h-0.2c-1,0-1.8-0.8-1.8-1.7c0-0.4,0.1-0.8,0.3-1.1c0.4-0.7,0.6-1.5,0.5-2.3
					c-0.1-0.3-0.4-0.6-0.7-0.7c-0.7-0.3-1.2-0.5-1.6-0.5c-0.7,0-1,0.4-1,0.4c-0.3,0.5-0.9,0.8-1.5,0.8c-0.4,0-0.7-0.1-1-0.3
					c-0.5-0.4-0.8-0.9-0.8-1.6c0,0,0-3.8-1.9-4.1h-0.1c-0.1,0-0.2,0-0.3,0c-0.2,0-0.5,0.1-0.7,0.2c-0.1,0.2-0.2,0.3-0.2,0.5
					c0,0.5-0.1,0.9-0.5,1.3c-0.3,0.4-0.8,0.6-1.3,0.6H41c-0.6,0-1.2-0.3-1.6-0.9c-0.6-0.9-2.5-3.4-4.5-3.8c-0.1,0-0.3,0-0.4,0
					c-0.6,0-1.2,0.2-1.6,0.6l-0.1,0.1c-0.6,0.4-1,1.1-1.1,1.8c-0.2,1.8,1.5,4.2,2.5,5.3c0.6,0.6,0.7,1.5,0.2,2.3
					c-0.3,0.5-0.9,0.9-1.6,0.9c-0.2,0-0.4,0-0.6-0.1c-0.1,0-0.2,0-0.2,0c-0.1,0-0.2,0-0.3,0.1c-0.3,0.2-0.4,0.6-0.4,0.9v0.1
					c-0.2,1.6,2.5,2.6,3.3,2.8c-0.3-0.5-0.4-1.2-0.1-1.8s1-1,1.7-1c0.3,0,0.6,0.1,0.8,0.2c0.4,0.2,1,0.3,1.7,0.3
					c0.3,0,0.6,0,0.9-0.1L38,59.8c-0.3-0.4-0.4-0.9-0.4-1.4c0.1-0.5,0.3-0.9,0.7-1.2c0.3-0.2,0.7-0.4,1.1-0.4c0.6,0,1.1,0.3,1.5,0.7
					l3.7,4.8c-0.1-0.8-0.5-1.5-0.5-1.5c-0.2-0.4-0.3-0.9-0.2-1.4s0.4-0.9,0.9-1.1c0.3-0.2,0.6-0.2,0.9-0.2c0.7,0,1.3,0.4,1.6,0.9
					c0.8,1.5,1.7,4.5,0,6.9l1.7,2.2c0.3-1.1-0.4-2.4-0.4-2.4c-0.2-0.4-0.3-0.9-0.2-1.4c0.1-0.5,0.4-0.9,0.9-1.1
					c0.3-0.2,0.6-0.2,0.9-0.2c0.7,0,1.3,0.4,1.6,0.9c0.9,1.6,1.8,4.9-0.4,7.4L53.1,73.5z"/>
			</g>
		</g>
	</g>
	<g>
		<g>
			<g>
				<path class="st0" d="M75.3,107.6c-0.5,0-1-0.2-1.3-0.6c-0.3-0.4-0.5-0.8-0.5-1.3V76.6l0,0v-7c-1.7-0.1-3.4-0.5-5.1-0.9
					c-5-1.5-7.7-4.5-7.7-8.5c0.1-1.5,0.6-2.9,1.4-4c-0.7-0.6-1.2-1.3-1.5-2.1c-0.5-1.4-0.4-2.8,0.3-4.1c0.6-1.4,1.7-2.5,3-3.1
					c-1.2-2.7-0.9-5,0.8-6.7c0.9-1,2.2-1.7,3.7-1.7h0.1c0.2-1.8,0.8-3.9,2.1-5.4c1.2-1.3,2.9-2,4.6-2h0.2h0.2c1.7,0,3.4,0.7,4.6,2
					c1.4,1.5,1.9,3.6,2.1,5.4h0.1c1.4,0,2.8,0.6,3.7,1.7c1.6,1.6,1.9,4,0.7,6.7c1.3,0.7,2.4,1.8,3,3.1c0.7,1.2,0.8,2.7,0.3,4
					c-0.4,0.9-0.9,1.6-1.5,2.2c0.9,1.1,1.4,2.5,1.4,3.9c0,2.1-0.8,4.1-2.3,5.5c-1.6,1.4-3.4,2.5-5.5,3c-1.6,0.5-3.3,0.8-5,0.9v36.1
					C77.2,106.8,76.3,107.6,75.3,107.6L75.3,107.6z M77.2,66c3.1-0.3,9.2-1.5,9.2-5.7c0-1.2-1.3-2.4-1.7-2.7
					c-0.3-0.2-0.5-0.5-0.7-0.8c-0.2-0.5-0.2-1,0-1.4s0.6-0.8,1-1c0.7-0.3,1.4-0.8,1.7-1.5c0.1-0.3,0-0.7-0.1-1
					c-0.6-1.1-1.2-1.7-1.9-1.7c-0.1,0-0.2,0-0.2,0c-0.2,0.1-0.3,0.1-0.5,0.1c-0.6,0-1.2-0.3-1.5-0.8c-0.2-0.3-0.3-0.5-0.3-0.8
					c-0.3,0.5-0.6,0.9-1,1.3c-1.2,1.1-2.5,1.9-3.9,2.5v2.9c0.9-0.6,1.6-1.2,1.9-1.8s1-1,1.7-1c0.3,0,0.6,0.1,0.8,0.2
					c0.9,0.5,1.3,1.6,0.8,2.5c-0.3,0.7-0.8,1.3-1.3,1.8c-1.2,1.1-2.5,1.9-3.9,2.5V66H77.2z M64.1,52.8c0.4,0.7,1,1.2,1.8,1.5
					c0.3,0.1,0.6,0.4,0.9,0.7c0.6,0.9,0.3,2-0.5,2.6c-0.5,0.3-1.7,1.5-1.7,2.7c0,2.3,1.7,3.9,5.1,4.9c1.3,0.4,2.6,0.6,3.9,0.8v-2.6
					c-3.2-0.7-4.6-3.9-4.8-5.7c-0.1-1,0.6-2,1.6-2.1c0.1,0,0.2,0,0.3,0c0.9,0,1.7,0.7,1.8,1.6c0,0.1,0.2,1.5,1.1,2.2v-2.8
					c-2.8-0.9-4-3.8-4.2-5.5c-0.1-1,0.6-1.9,1.6-2.1c0.1,0,0.2,0,0.3,0c0.9,0,1.7,0.7,1.8,1.6c0,0,0.1,0.8,0.5,1.5v-6
					c0-1,0.8-1.8,1.8-1.8l0,0c1,0,1.9,0.8,1.9,1.8v2.2c0.9-0.6,1.6-1.2,1.9-1.8c0.3-0.6,1-1,1.7-1c0.3,0,0.6,0.1,0.8,0.2
					c0.6,0.3,1,0.9,1,1.5c0.4-0.6,2-3.1,0.9-4.2l-0.1-0.1c-0.2-0.3-0.5-0.5-0.9-0.5c-0.2,0.1-0.4,0.2-0.5,0.3
					c-0.3,0.5-0.9,0.8-1.5,0.8c-0.2,0-0.4,0-0.6-0.1c-0.8-0.3-1.3-1.1-1.2-1.9c0.1-1.5,0-4.3-1.3-5.7C77,35.3,76.4,35,75.7,35h-0.2
					h-0.2c-0.7,0-1.4,0.3-1.8,0.8c-1.3,1.5-1.4,4.6-1.3,5.7c0.1,0.7-0.2,1.3-0.8,1.7c-0.3,0.2-0.7,0.3-1,0.3c-0.6,0-1.2-0.3-1.5-0.8
					c-0.1-0.1-0.3-0.2-0.4-0.3c-0.4,0-0.7,0.2-0.9,0.5L67.5,43c-1.3,1.3,1,4.3,1,4.4c0.4,0.5,0.5,1.1,0.3,1.7
					c-0.3,0.8-1,1.3-1.8,1.3c-0.2,0-0.4,0-0.6-0.1l0,0c0,0-0.1,0-0.2,0c-0.7,0-1.3,0.6-1.9,1.6C64.1,52.1,64,52.4,64.1,52.8z"/>
			</g>
		</g>
	</g>
</g>
</svg>
