<?xml version="1.0" encoding="utf-8"?>
<!-- Generator: Adobe Illustrator 24.1.2, SVG Export Plug-In . SVG Version: 6.00 Build 0)  -->
<svg version="1.1" id="Camada_1" xmlns="http://www.w3.org/2000/svg" xmlns:xlink="http://www.w3.org/1999/xlink" x="0px" y="0px"
	 viewBox="0 0 150.6 145.6" style="enable-background:new 0 0 150.6 145.6;" xml:space="preserve">
<style type="text/css">
	.st0{fill:#147834;stroke:#FFFFFF;stroke-width:7;stroke-miterlimit:10;}
</style>
<g>
	<g>
		<g>
			<path class="st0" d="M33.8,120.7c-2.4,0-4.4-0.9-6.2-2.5c-4.3-4.3-2-9.9-0.8-13.2l0.4-1c0.9-2.3,1.7-4.3,1.4-6.6
				c-1-18.7,6.6-36.1,22.5-52.1c15-15,31.2-22.5,48.2-22.5h4.3c2.4,0,4.6-0.9,7-1.8c2.8-1.3,5-1.8,7-1.8c2.4,0,4.4,0.9,6.2,2.5
				c4.3,4.3,2,9.9,0.8,13.2l-0.4,1c-0.9,2.3-1.7,4.3-1.4,6.6c1,18.7-6.6,36.1-22.5,52.1c-15,15-31.2,22.5-48.2,22.5h-3.6
				c-2.7,0-5.1,0.9-7.7,1.9C39,119.9,36.5,120.7,33.8,120.7z M42.8,70.6c-4.3,8.4-6.2,17.1-5.6,25.9c0.3,4.7-1,8.5-2.3,11.4
				c-0.3,0.8-1.3,3.4-1,3.9l0.1,0.1c0.8,0,2.4-0.5,3.9-0.9l0.9-0.3c2.5-0.9,5.7-1.9,9.3-1.9c0.4,0,0.6,0,1,0h3
				c14.9,0,29.1-6.7,42.4-20.1c14.6-14.4,21.1-29.3,20.2-45.4c-0.3-4.7,1-8.5,2.3-11.4c0.5-1.1,1.3-3.3,1.1-3.8l-0.3-0.1v-0.1
				c-0.4,0-1.1,0.1-1.9,0.3c-0.8,0.1-1.5,0.3-2.4,0.4l-0.3,0.1c-2.5,0.9-5.8,2.2-9.8,2.2h-4.1c-14.9,0-29.1,6.7-42.4,20.1
				c-1.1,1-2,2-3,3.2l5.7,5.7c0.8,0.8,1.3,1.9,1.3,3s-0.5,2.3-1.3,3c-0.9,0.9-1.9,1.4-3,1.4s-2.4-0.6-3-1.4l-5-5
				c-0.5,0.6-0.9,1.3-1.4,2L59.3,75c1.7,1.7,1.7,4.4,0,6.1c-0.9,0.9-1.9,1.4-3,1.4s-2.4-0.6-3-1.4L42.8,70.6z"/>
		</g>
		<g>
			<path class="st0" d="M69.3,96.2c-1.3,0-2.5-0.6-3.6-1.5c-1.9-1.9-1.9-5.1,0-7.1c0.9-0.9,2.2-1.4,3.6-1.4c1.4,0,2.7,0.5,3.6,1.4
				c1.9,1.9,1.9,5.1,0,7.1C71.8,95.7,70.5,96.2,69.3,96.2z"/>
		</g>
		<g>
			<path class="st0" d="M67.4,78.7c-1.3,0-2.5-0.6-3.6-1.5c-0.9-0.9-1.4-2.2-1.4-3.6s0.5-2.7,1.4-3.6s2.2-1.4,3.6-1.4
				c1.4,0,2.7,0.5,3.6,1.4c1,1,1.5,2.3,1.5,3.6c0,1.3-0.6,2.5-1.5,3.6C69.9,78.1,68.6,78.7,67.4,78.7z"/>
		</g>
		<g>
			<path class="st0" d="M50.5,95.5c-1.3,0-2.5-0.6-3.6-1.5c-1-1-1.5-2.3-1.5-3.6c0-1.3,0.6-2.5,1.5-3.6c0.9-0.9,2.3-1.4,3.7-1.4
				c1.4,0,2.7,0.5,3.6,1.5c0.9,0.9,1.5,2.2,1.5,3.4c0,1.3-0.6,2.5-1.5,3.6C53,95,51.7,95.5,50.5,95.5z"/>
		</g>
		<g>
			<path class="st0" d="M82.7,54c-1.3,0-2.5-0.6-3.6-1.5c-0.9-0.9-1.4-2.2-1.4-3.6s0.5-2.7,1.4-3.6s2.2-1.4,3.6-1.4s2.7,0.5,3.6,1.4
				c0.9,0.9,1.4,2.2,1.4,3.6s-0.5,2.7-1.4,3.6C85.3,53.3,84,54,82.7,54z"/>
		</g>
		<g>
			<path class="st0" d="M101.2,54.6c-1.3,0-2.5-0.6-3.6-1.5c-0.9-0.9-1.4-2.2-1.4-3.6c0-1.4,0.5-2.7,1.4-3.6
				c0.9-0.9,2.3-1.4,3.7-1.4s2.7,0.5,3.6,1.5c0.9,0.9,1.5,2.2,1.5,3.4s-0.6,2.5-1.5,3.6C103.8,54.1,102.5,54.6,101.2,54.6z"/>
		</g>
	</g>
</g>
</svg>
