<?xml version="1.0" encoding="utf-8"?>
<!-- Generator: Adobe Illustrator 24.1.2, SVG Export Plug-In . SVG Version: 6.00 Build 0)  -->
<svg version="1.1" id="Camada_1" xmlns="http://www.w3.org/2000/svg" xmlns:xlink="http://www.w3.org/1999/xlink" x="0px" y="0px"
	 viewBox="0 0 150.6 145.6" style="enable-background:new 0 0 150.6 145.6;" xml:space="preserve">
<style type="text/css">
	.st0{fill:#147834;stroke:#FFFFFF;stroke-width:5;stroke-miterlimit:10;}
</style>
<path id="XMLID_71_" class="st0" d="M36.3,73.2c0,18.1,12.3,33.4,29.1,38l-3.4,2.1c-1.6,1-2.2,3.2-1.1,4.8c0.7,1,1.8,1.7,3,1.7
	c0.6,0,1.3-0.1,1.8-0.5l6.5-4v3.1c0,1.9,1.6,3.5,3.5,3.5s3.5-1.6,3.5-3.5v-3.1l6.5,4c0.6,0.3,1.1,0.5,1.8,0.5c1.1,0,2.3-0.6,3-1.7
	c1-1.6,0.5-3.8-1.1-4.8l-3.4-2.1c16.7-4.4,29-19.8,29-38c0-18.4-12.5-33.8-29.5-38.1c-1.4-1.4-2.6-7.9-2.7-13.8
	c0-1.4-0.9-2.7-2.3-3.2c-1.4-0.5-2.9-0.1-3.8,0.9l-1.5,1.6L72.9,19c-1.1-0.8-2.6-0.8-3.9-0.1c-1.1,0.7-1.8,2.1-1.6,3.4
	c0.5,3.3-1,9.4-2.1,12.9C48.6,39.8,36.3,55.1,36.3,73.2z M96.5,48.6c7,5.9,11.4,14.7,11.4,24.6s-4.4,18.7-11.4,24.6
	c3.8-7,5.8-15.5,5.8-24.6C102.3,64.2,100.3,55.5,96.5,48.6z M84.1,44.1c6.6,5.4,11.3,16.5,11.3,29.1s-4.7,23.7-11.3,29.1
	c3.1-10.1,3.3-24.9,3.3-29.1C87.4,69.1,87.2,54.4,84.1,44.1z M74.1,28.4c0.7,0.3,1.5,0.5,2.2,0.3c0.2,1.7,0.6,3.5,1.1,5.2
	c-0.6,0-1.1,0-1.7,0c-0.9,0-1.8,0-2.7,0.1C73.3,32.3,73.7,30.3,74.1,28.4z M75.7,41.5c1.9,3.2,4.8,14,4.8,31.7s-2.9,28.5-4.8,31.7
	c-1.9-3.2-4.8-14-4.8-31.7S73.7,44.7,75.7,41.5z M54.7,97.8c-7-5.9-11.4-14.7-11.4-24.6s4.4-18.7,11.4-24.6
	c-3.8,7-5.8,15.5-5.8,24.6S50.9,90.9,54.7,97.8z M67.1,44.1C64,54.2,63.8,69,63.8,73.2S64,92,67.1,102.3
	c-6.6-5.4-11.3-16.6-11.3-29.1C55.8,60.6,60.5,49.5,67.1,44.1z"/>
</svg>
