<?xml version="1.0" encoding="utf-8"?>
<!-- Generator: Adobe Illustrator 24.1.2, SVG Export Plug-In . SVG Version: 6.00 Build 0)  -->
<svg version="1.1" id="Camada_1" xmlns="http://www.w3.org/2000/svg" xmlns:xlink="http://www.w3.org/1999/xlink" x="0px" y="0px"
	 viewBox="0 0 150.6 145.6" style="enable-background:new 0 0 150.6 145.6;" xml:space="preserve">
<style type="text/css">
	.st0{fill:#147834;stroke:#FFFFFF;stroke-width:6;stroke-miterlimit:10;}
</style>
<path id="XMLID_106_" class="st0" d="M25.1,59.3c0,7.8,5.8,14.2,13.3,15.3c2.5,5.9,7.3,9.7,12.8,9.7c2.8,0,5.5-1,7.7-2.9
	c10.1,21.7,8.7,39.3,8.7,39.5c-0.1,1.1,0.2,2.1,1,2.9c0.7,0.8,1.8,1.2,2.8,1.2h15.7c1,0,2-0.4,2.8-1.2c0.7-0.8,1.1-1.8,1-2.9
	c0-0.2-1.3-23.3,7.3-37.2c1,0.3,2.1,0.4,3.1,0.4c0.2,0,0.6,0,0.8,0c5.4-0.3,10-4.6,12-10.6c3.2-0.7,6.2-2.5,8.4-5
	c2.7-3.1,4-7.1,3.7-11.2c-0.4-6.3-4.6-11.4-10.2-13.4c0-0.2,0-0.4,0-0.7c-0.7-8.6-7.5-14.8-18.2-16.6c-5.3-0.9-8.8,0.6-11.3,2.4
	c-3.2-6-9.6-10.2-16.9-10.2c-6.2,0-11.8,2.9-15.2,7.8c-0.8-0.1-1.6-0.1-2.2-0.1c-9.8,0-17.9,8.1-17.9,17.9c0,0.2,0,0.4,0,0.7
	C28.8,47.5,25.1,53,25.1,59.3z M83.1,117.4h-7.9c-0.1-6.3-1.2-19.3-7.5-34.6l0,0c2.4,0,4.6-0.4,6.7-1.2c3.2,1.8,7.1,2.7,10.7,2.4
	c1.6-0.1,3-0.4,4.5-0.9C83.9,95.1,83.1,110.2,83.1,117.4z M96.5,34.4c4.3,0.7,11.3,2.8,11.9,9.5c0.1,0.8,0,1.6-0.1,2.5
	c-0.2,1,0.1,2.1,0.8,2.9c0.7,0.8,1.6,1.3,2.7,1.5c3.8,0.3,6.7,3.4,6.9,7.2c0.1,2.1-0.6,4.1-1.9,5.7s-3.2,2.6-5.4,2.7h-0.1
	c0,0,0,0-0.1,0H111c-1.8,0-3.4,1.3-3.7,3.1c-0.8,4-3.1,7.1-5.7,7.3c-2.1,0.1-3.8-1.5-4.7-2.5c-0.7-0.8-1.6-1.3-2.6-1.3
	c-1-0.1-2,0.2-2.8,0.9c-1.9,1.6-4.3,2.6-6.7,2.7c-0.8,0.1-1.6,0-2.4-0.1c1.5-1.6,2.6-3.5,3.5-5.5c9.7-0.6,17.5-8.7,17.5-18.6
	c0-7.8-4.8-14.6-11.6-17.2C92.8,34.4,94.4,34.1,96.5,34.4z M39.1,51.5c1-0.2,1.9-0.8,2.6-1.7c0.6-0.9,0.8-2,0.6-3
	C42.1,46,42,45.1,42,44.3C42,38.7,46.6,34,52.3,34c1,0,2,0.1,3,0.4c1.8,0.6,3.7-0.2,4.6-1.9c1.9-3.8,5.7-6.2,10-6.2
	c6,0,11.1,4.9,11.2,11c0,2.1,1.8,3.7,3.8,3.7c0,0,0,0,0.1,0c6,0,11,4.9,11,11c0,6-4.9,11-11,11c-0.3,0-0.8,0-1.2-0.1
	c-1.9-0.2-3.7,1-4.1,2.9c-1.2,5.4-6,9.1-11.5,9.1c-2.5,0-4.8-0.8-6.9-2.2c-0.8-0.6-1.9-0.8-2.9-0.7c-1,0.2-1.9,0.8-2.5,1.6
	c-0.8,1-2.4,2.8-4.5,2.8c-2.7,0-5.3-2.8-6.3-6.8c-0.4-1.7-2-2.9-3.7-2.9c-0.1,0-0.1,0-0.2,0H41c-0.1,0-0.1,0-0.2,0
	c-4.3,0-7.8-3.5-7.8-7.8C32.7,55.5,35.4,52.2,39.1,51.5z"/>
</svg>
