<svg xmlns="http://www.w3.org/2000/svg" xmlns:xlink="http://www.w3.org/1999/xlink" width="37.416" height="37" viewBox="0 0 37.416 37">
  <defs>
    <rect id="rect-1" width="37.416" height="37" x="0" y="0"/>
    <mask id="mask-2" maskContentUnits="userSpaceOnUse" maskUnits="userSpaceOnUse">
      <rect width="37.416" height="37" x="0" y="0" fill="black"/>
      <use fill="white" xlink:href="#rect-1"/>
    </mask>
  </defs>
  <g>
    <use fill="none" xlink:href="#rect-1"/>
    <g mask="url(#mask-2)">
      <path fill="rgb(130,130,130)" fill-rule="evenodd" d="M0 18.4963379C0 8.28320311 8.37634277 0 18.70410156 0c10.33532715 0 18.71166992 8.28320313 18.70410156 18.4963379 0 10.21289062-8.37634277 18.49633788-18.70410156 18.49633788S0 28.71679688 0 18.4963379zm34.84875488 0c0-8.80273438-7.24291992-15.96533204-16.14465332-15.96533204S2.55944824 9.69360352 2.55944824 18.49633789c0 8.81030274 7.24291992 15.96533203 16.14465332 15.96533203s16.14465332-7.16259765 16.14465332-15.96533203z"/>
      <path fill="rgb(130,130,130)" fill-rule="evenodd" d="M21.11343018 11.63069208c.68301534-.0222668 1.35852501-.00742227 2.04154035-.00742227h.27770953V8.12738215c-.36027182-.03711134-.74306064-.0890672-1.12584946-.10391174-.69802666-.02968907-1.39605332-.0668004-2.09407999-.05195587-1.06580415.0222668-2.07906867.27462388-2.95723124.90551655-1.01326452.71995988-1.56868358 1.72938817-1.77884215 2.92437312-.09006795.48986961-.11258494 1.00200602-.1200906 1.50672016-.022517.78676028-.00750567 1.5660983 0 2.35285858v.29689067h-3.38505404v3.9115346h3.36253704v9.82708125h4.11310336v-9.82708125h3.35503139c.17263025-1.29889669.33775483-2.5903711.51789075-3.92637913h-3.9029448s.00750567-1.93721164.03002266-2.77592779c.04503398-1.15045135.73555498-1.50672016 1.6662572-1.53640922"/>
      <rect width="37.416" height="37" x="0" y="0" fill="none" rx="0" ry="0"/>
    </g>
  </g>
</svg>
