<?xml version="1.0" encoding="utf-8"?>
<!-- Generator: Adobe Illustrator 24.0.0, SVG Export Plug-In . SVG Version: 6.00 Build 0)  -->
<svg version="1.1" id="Camada_1" xmlns="http://www.w3.org/2000/svg" xmlns:xlink="http://www.w3.org/1999/xlink" x="0px" y="0px"
	 viewBox="0 0 50 50" style="enable-background:new 0 0 50 50;" xml:space="preserve">
<g>
	<g>
		<g>
			<g>
				<path style=" fill: #025EB9" d="M14,15c-3.1,0-5.6-2.5-5.6-5.5c0-3.1,2.5-5.5,5.6-5.5s5.6,2.5,5.6,5.5S17.1,15,14,15z M14,6.8c-1.6,0-2.8,1.2-2.8,2.7
					c0,1.5,1.2,2.7,2.8,2.7s2.8-1.2,2.8-2.7S15.6,6.8,14,6.8z"/>
			</g>
		</g>
		<g>
			<g>
				<path style=" fill: #025EB9" d="M9.8,10.8H2.9c-0.7,0-1.4-0.6-1.4-1.4S2.1,8,2.9,8h6.9c0.7,0,1.4,0.6,1.4,1.4S10.6,10.8,9.8,10.8z"/>
			</g>
		</g>
		<g>
			<g>
				<path style=" fill: #025EB9" d="M47.4,10.8H18.2c-0.7,0-1.4-0.6-1.4-1.4S17.4,8,18.2,8h29.2c0.7,0,1.4,0.6,1.4,1.4S48.1,10.8,47.4,10.8z"/>
			</g>
		</g>
	</g>
	<g>
		<g>
			<g>
				<path style=" fill: #025EB9" d="M39,30.3c-3.1,0-5.6-2.5-5.6-5.5c0-3.1,2.5-5.5,5.6-5.5s5.6,2.5,5.6,5.5C44.6,27.9,42.1,30.3,39,30.3z M39,22.2
					c-1.6,0-2.8,1.2-2.8,2.7c0,1.5,1.2,2.7,2.8,2.7c1.6,0,2.8-1.2,2.8-2.7C41.8,23.4,40.6,22.2,39,22.2z"/>
			</g>
		</g>
		<g>
			<g>
				<path  style=" fill: #025EB9" d="M34.9,26.2h-32c-0.7,0-1.4-0.6-1.4-1.4c0-0.7,0.6-1.4,1.4-1.4h32c0.7,0,1.4,0.6,1.4,1.4C36.2,25.5,35.6,26.2,34.9,26.2z
					"/>
			</g>
		</g>
		<g>
			<g>
				<path style=" fill: #025EB9" d="M47.4,26.2h-4.2c-0.7,0-1.4-0.6-1.4-1.4c0-0.7,0.6-1.4,1.4-1.4h4.2c0.7,0,1.4,0.6,1.4,1.4
					C48.8,25.5,48.1,26.2,47.4,26.2z"/>
			</g>
		</g>
	</g>
	<g>
		<g>
			<g>
				<path style=" fill: #025EB9" d="M21.3,45.7c-3.1,0-5.6-2.5-5.6-5.5s2.5-5.5,5.6-5.5s5.6,2.5,5.6,5.5C26.9,43.2,24.4,45.7,21.3,45.7z M21.3,37.5
					c-1.6,0-2.8,1.2-2.8,2.7c0,1.5,1.2,2.7,2.8,2.7s2.8-1.2,2.8-2.7C24.1,38.8,22.8,37.5,21.3,37.5z"/>
			</g>
		</g>
		<g>
			<g>
				<path style=" fill: #025EB9" d="M17.2,41.5H2.9c-0.7,0-1.4-0.6-1.4-1.4s0.6-1.4,1.4-1.4h14.3c0.7,0,1.4,0.6,1.4,1.4S17.9,41.5,17.2,41.5z"/>
			</g>
		</g>
		<g>
			<g>
				<path style=" fill: #025EB9" d="M47.4,41.5H25.5c-0.7,0-1.4-0.6-1.4-1.4s0.6-1.4,1.4-1.4h21.9c0.7,0,1.4,0.6,1.4,1.4S48.1,41.5,47.4,41.5z"/>
			</g>
		</g>
	</g>
</g>
</svg>
