<svg xmlns="http://www.w3.org/2000/svg" width="28.815" height="40.433" viewBox="0 0 28.815 40.433">
  <path fill="rgb(81,81,81)" fill-rule="evenodd" d="M14.40734863 0c-4.34106445 0-7.8013916 3.48883057-7.8013916 7.7252655v3.3642273H1.1324463C.50329589 11.1517868 0 11.7124939 0 12.335495v26.85151672c0 .68530273.56628418 1.24601745 1.25830078 1.24601745h26.29821777c.6920166 0 1.25830079-.56071472 1.25830079-1.24601745V12.335495c0-.68530274-.56628418-1.2460022-1.25830079-1.2460022h-5.28479003V7.7252655C22.27172852 3.42652893 18.74841309 0 14.40734863 0zm0 2.49201965c2.95703125 0 5.28479004 2.30511475 5.28479004 5.23324585v3.36421967H9.1225586V7.7252655c0-2.9281311 2.32788086-5.23324585 5.28479004-5.23324585zM6.6060791 13.64380645H2.64245605v24.29718781h23.71875v-24.2971878h-4.02661132v2.67892456c0 .68530273-.56616211 1.24600982-1.25830078 1.24600982-.6920166 0-1.321167-.56070709-1.321167-1.24600982v-2.67892456H9.18554687v2.74121856c0 .68531037-.62915039 1.24600983-1.32116699 1.24600983-.69213867 0-1.25830078-.6230011-1.25830078-1.30830383v-2.67892456z"/>
</svg>
