<svg xmlns="http://www.w3.org/2000/svg" xmlns:xlink="http://www.w3.org/1999/xlink" width="37" height="40" viewBox="0 0 37 40">
  <defs>
    <rect id="rect-1" width="37" height="40" x="0" y="0"/>
    <mask id="mask-2" maskContentUnits="userSpaceOnUse" maskUnits="userSpaceOnUse">
      <rect width="37" height="40" x="0" y="0" fill="black"/>
      <use fill="white" xlink:href="#rect-1"/>
    </mask>
  </defs>
  <g>
    <use fill="none" xlink:href="#rect-1"/>
    <g mask="url(#mask-2)">
      <path fill="rgb(79,79,79)" fill-rule="evenodd" d="M28.3170166 9.84375305c0 5.4375-4.3959961 9.84375-9.82092285 9.84375-5.41711426-.0078125-9.81311035-4.4140625-9.82092285-9.84375 0-5.4375 4.3959961-9.84375 9.82092285-9.84375 5.42492676 0 9.82092285 4.40625 9.82092285 9.84375zm-2.93066406-.0078125c0-3.8125-3.08654785-6.90625-6.89025879-6.90625-3.80371094.0078125-6.88244629 3.1015625-6.89025879 6.90625 0 3.8125 3.08654785 6.90625 6.89025879 6.90625 3.80371094 0 6.89025879-3.09375 6.89025879-6.90625z"/>
      <path fill="rgb(79,79,79)" fill-rule="evenodd" d="M2.93069307 40c0-8.6015625 6.98377923-15.609375 15.57320413-15.609375 8.5894249 0 15.56540973 7.0078125 15.56540973 15.609375H37c0-10.2421875-8.28544344-18.5390625-18.4961028-18.5390625-4.90267538 0-9.61049084 1.953125-13.07899726 5.4296875C1.94080472 30.359375-.0155888 35.078125 0 40h2.93069307z"/>
    </g>
  </g>
</svg>
