<svg xmlns="http://www.w3.org/2000/svg" width="28.746" height="26.5" viewBox="0 0 28.746 26.5">
  <g>
    <path fill="rgb(81,81,81)" fill-rule="evenodd" d="M10.77978516 0c5.95300293 0 10.77954101 4.44967651 10.77954101 9.93753052 0 5.487854-4.82653808 9.93730926-10.77954101 9.93730926C4.82678223 19.87483978 0 15.42538452 0 9.93753052S4.82678223 0 10.77978516 0zM2.69494629 9.93758392c0 4.10990906 3.62646484 7.45280457 8.0847168 7.45280457 4.45812988 0 8.08496093-3.3428955 8.08496093-7.45280457 0-4.10990905-3.62683105-7.45307922-8.08496093-7.45307922-4.45825196 0-8.0847168 3.34317017-8.0847168 7.45307922z"/>
    <path fill="rgb(81,81,81)" fill-rule="evenodd" d="M27.95607515 22.25940703l-6.59474247-6.07999944c-.98262048 1.408803-2.28302561 2.6070092-3.81122381 3.51291405l6.59527567 6.07999945c1.05288382.97040557 2.7599988.97040557 3.81063136 0 1.05294308-.96882173 1.05294308-2.5425631.00005925-3.51291406z"/>
  </g>
</svg>
