<svg xmlns="http://www.w3.org/2000/svg" xmlns:xlink="http://www.w3.org/1999/xlink" width="32.353" height="32.385" viewBox="0 0 32.353 32.385">
  <defs>
    <rect id="rect-1" width="32.353" height="32.385" x="0" y="0"/>
    <mask id="mask-2" maskContentUnits="userSpaceOnUse" maskUnits="userSpaceOnUse">
      <rect width="32.353" height="32.385" x="0" y="0" fill="black"/>
      <use fill="white" xlink:href="#rect-1"/>
    </mask>
  </defs>
  <g>
    <use fill="none" xlink:href="#rect-1"/>
    <g mask="url(#mask-2)">
      <path fill="rgb(130,130,130)" fill-rule="evenodd" d="M32.23731452 9.51842773c-.12268066-2.59472656-.71447754-4.89282226-2.61254883-6.78637695C27.73401862.8384961 25.43909675.24572266 22.84827644.11583984c-2.67016602-.15185547-10.67358399-.15185547-13.34387208 0C6.9207862.23864258 4.62586433.83117187 2.72791511 2.72472656.8298438 4.61828125.24537116 6.9166211.11548835 9.51110352c-.15161133 2.67407226-.15161133 10.68896484 0 13.3630371.12268066 2.59448243.71435547 4.89282227 2.61242676 6.78637696 1.89794922 1.89355469 4.18566894 2.48608398 6.77648925 2.61621094 2.6702881.15185546 10.67370606.15185546 13.34387208 0 2.5908203-.12280274 4.88574218-.71557618 6.77648925-2.61621094 1.89086914-1.89355469 2.48266602-4.19189453 2.61254883-6.78637696.15148926-2.67407226.15148926-10.68188476 0-13.35571289zm-6.52392578 19.30371094c1.42163086-.57104492 2.51135254-1.66235351 3.07434082-3.07885742.72424316-1.82226563.6838379-5.8083496.65771484-8.39282227-.00439453-.42871093-.00830078-.81884765-.00830078-1.15429687s.00390625-.72558594.00830078-1.15405274c.02612305-2.58276367.06640625-6.56445312-.65771484-8.3930664-.57019043-1.42382813-1.6599121-2.51513672-3.07434082-3.07885742-1.82580566-.7211914-5.82629395-.68286133-8.40588379-.65795899-.41833496.00390625-.7993164.00756836-1.12756348.00756836-.3347168 0-.72412109-.00390625-1.15197753-.00830078-2.57910157-.02612305-6.55529786-.06640625-8.38134766.6586914-1.42175293.57104493-2.51147461 1.66235352-3.07434082 3.07885743-.72033692 1.828125-.68200684 5.83422851-.65722656 8.41748047.00402832.41918945.00769043.80078125.00769043 1.12963867 0 .33520508-.00390625.7253418-.00830079 1.1538086-.02612304 2.58276366-.06640625 6.56469726.65783692 8.39331054.57006836 1.42382812 1.6599121 2.51513672 3.07434082 3.07885742 1.82543945.72143555 5.82531738.68286133 8.4050293.65795899.4185791-.00390625.79980468-.00756836 1.1282959-.00756836.3347168 0 .72412109.00390625 1.15197753.00830078 2.57910157.02612304 6.55541993.06640625 8.38146973-.6586914zM22.8772071 7.55236328c0-1.06958008.8659668-1.93676758 1.93408203-1.93676758 1.06811523 0 1.93408203.8671875 1.93408203 1.93676758 0 1.0769043-.8659668 1.93701172-1.93408203 1.93701172-1.07531738 0-1.93408203-.8671875-1.93408203-1.93701172zm-6.69714356.33959961c-4.58996582 0-8.29211425 3.70751953-8.29211425 8.30395508 0 4.59667969 3.70214843 8.30419922 8.29211425 8.30419922 4.58984375 0 8.2919922-3.70751953 8.2919922-8.30419922 0-4.59643555-3.70214845-8.30395508-8.2919922-8.30395508zm-.00012207 13.70288086c-2.96606445 0-5.39086914-2.42114258-5.39086914-5.39868164 0-2.97753906 2.41760254-5.39868164 5.39086914-5.39868164 2.97338868 0 5.39099122 2.42114258 5.39099122 5.39868164 0 2.97753906-2.4248047 5.39868164-5.39099122 5.39868164z"/>
    </g>
  </g>
</svg>
