<svg xmlns="http://www.w3.org/2000/svg" xmlns:xlink="http://www.w3.org/1999/xlink" width="60.656" height="39.381" viewBox="0 0 60.656 39.381">
  <defs>
    <path id="path-1" fill-rule="evenodd" d="M59.47944034 35.4634316c0 1.51482092-1.21853822 2.74157404-2.72285738 2.74157404H3.8990149c-1.5029961 0-2.72285737-1.22675312-2.72285737-2.74157404V3.91807533c0-1.51378164 1.21986127-2.7419178 2.72418043-2.7419178h52.856245c1.50431916 0 2.72285738 1.22813616 2.72285738 2.7419178V35.4634316z"/>
  </defs>
  <g>
    <g>
      <use fill="rgb(240,239,239)" xlink:href="#path-1"/>
      <use fill-opacity="0" stroke="rgb(221,221,220)" stroke-width=".5" xlink:href="#path-1"/>
    </g>
    <path fill="rgb(12,78,151)" fill-rule="evenodd" d="M33.68770968 18.60826742c3.47435542.00106593 6.289827-2.8355092 6.289827-6.33392077 0-3.49867805-2.81547158-6.33424054-6.289827-6.33424054h-7.95026724c-3.47435543 0-6.289827 2.8355625-6.289827 6.33424054 0 3.49841157 2.81547157 6.33392077 6.289827 6.33392077h7.95026724z"/>
    <path fill="rgb(209,210,211)" fill-rule="evenodd" d="M25.73744244 18.46729807c3.39497183 0 6.14825958-2.773019 6.14825958-6.19295142 0-3.42073186-2.75328775-6.19219194-6.14825958-6.1927249-3.3962949.00053296-6.14958265 2.77199304-6.14958265 6.1927249 0 3.41993241 2.75328776 6.19295142 6.14958265 6.19295142z"/>
    <path fill="rgb(12,78,151)" fill-rule="evenodd" d="M24.49508914 8.6987617c-1.46595042.5168965-2.51778308 1.9228992-2.51778308 3.57558495 0 1.65686953 1.05580184 3.06337856 2.52572144 3.57795666l-.00793836-7.15354162z"/>
    <path fill="rgb(12,78,151)" fill-rule="evenodd" d="M29.49757881 12.27434665c0 1.65581692-1.05580184 3.06337856-2.5270445 3.57795666l.00793836-7.15354162c1.46595042.5168965 2.51910614 1.92289921 2.51910614 3.57558496z"/>
    <g>
      <path fill="rgb(12,78,151)" fill-rule="evenodd" d="M18.81651449 20.0520245c1.46200561 0 1.85757446 1.03149413 1.85757446 1.70410156 0 1.29418945-.87585449 2.35302734-2.7453308 2.35351562h-1.61016847v-.10205078c.31091309-.05737305.40750122-.07617188.51599122-.47363281l.75680541-2.7072754c.01852417-.07080077.07009888-.26855468.07009888-.39697265 0-.21777344-.16537475-.24902344-.48953247-.27514648v-.10253907h1.64456177zm-1.22512818 3.0205078c-.05822753.21118165-.14025878.49267579-.14025878.59423829 0 .2121582.1534729.25073242.45117187.25073242 2.00442505 0 2.0652771-1.84838867 2.0652771-2.23876953 0-.64672852-.09259033-1.43481446-1.21853638-1.43481446-.3625183 0-.38763427.09545899-.41278076.18579102l-.74487305 2.64282227z"/>
      <path fill="rgb(12,78,151)" fill-rule="evenodd" d="M21.17420867 24.17975452c.35722619 0 .63639184-.35175717.88380405-.7294964l-.08202972-.0708844c-.26064281.37187662-.44454814.49952183-.52128562.49952183-.05689158 0-.10055256-.0508982-.10055256-.09593377-.00132306-.07688026.07541442-.33270366.10055256-.42197536l.55965436-2.06364205-.01852284-.01279117c-.24873527.04503558-.7766362.14776466-1.0174331.16042259l-.00132306.10192963c.35061088 0 .40088716.0322444.40088716.16748438 0 .17894313-.50143972 1.76797949-.50143972 2.06803901 0 .11618646 0 .39732571.29768849.39732571z"/>
      <path fill="rgb(12,78,151)" fill-rule="evenodd" d="M21.93232202 20.59995914c.20904347 0 .31091909-.19906258.31091909-.32724076 0-.14123584-.10849092-.35255662-.31753439-.35255662-.15347495 0-.29901155.12191584-.29901155.34656076 0 .22371223.14685966.33323662.30562685.33323662z"/>
      <path fill="rgb(12,78,151)" fill-rule="evenodd" d="M22.74468083 21.75196386c0 .13523997-.42470224 1.6336722-.62316124 2.35717274h.47762465c.26196587-.87059898.34399558-1.14627534.63639183-1.58810366.22888937-.358286.62977654-.90950547.93540339-.90950547.12039845 0 .15876719.09007116.15876719.20559141 0 .25529043-.47100934 1.81834472-.47100934 1.97290469 0 .184939.0132306.37800571.30562685.37800571.34267252 0 .56626965-.29566256.88380404-.72483295l-.08864501-.0824764c-.23550468.30085898-.39559493.50565093-.52128562.50565093-.0132306 0-.10187562-.01279117-.10187562-.10899142 0-.19226727.50805502-1.77464156.50805502-2.04951847 0-.26941401-.14685965-.42330777-.43793284-.42224184-.52922398 0-1.11269342.88938602-1.41302803 1.3633255l-.0132306-.01279116.40750247-1.3388091-.0198459-.01172524c-.34267253.06955199-.68534506.13444052-1.02934064.19773017v.10232935c.34399558 0 .4061794.07035144.4061794.1662852z"/>
      <path fill="rgb(12,78,151)" fill-rule="evenodd" d="M27.29338216 23.48854793c-.06881713.10253906-.64831543.69116211-1.28469848.69116211-.66815186 0-.87057495-.49951172-.87057495-.90307617 0-.91601563 1.00421142-1.99072266 1.90124511-1.99072266.32546997 0 .52127076.1525879.52261353.4350586 0 .50537109-.59936523 1.02490234-1.6300354 1.171875l-.17727661.0258789c-.0317688.13427735-.06350708.2631836-.06350708.39038086 0 .43554688.33074951.58325195.59802246.58325195.34268188 0 .60992432-.21826171.92880249-.48095703l.07540893.07714844zM26.918962 21.4323956c-.34402466 0-.77664185.49316406-1.012146 1.06298828l-.10717773.2824707c1.30981445-.26855469 1.34158325-1.03857422 1.34158325-1.0895996 0-.1345215-.06350708-.25585938-.22225952-.25585938z"/>
      <path fill="rgb(12,78,151)" fill-rule="evenodd" d="M28.1202734 21.72771393c0 .05729378-.0396918.27434395-.10187561.51217976l-.51599338 1.86924291h.48423994c.26064281-.8503463.35061089-1.13894707.5914078-1.60089483.05159934-.09620026.4326406-.80664314.62977654-.80744259.15215189.00079945.05689157.23117374.33076498.23117374.07012218 0 .29901155 0 .29901155-.33270365 0-.2178496-.1587672-.31444959-.30562685-.31338366-.40088716 0-.88380404.74894964-1.09417058 1.1715912l-.05027627.12817818-.0132306-.01252468.31091908-1.27551946-.01852283-.01172524c-.28578095.04396965-.66152998.12764522-.98567967.17134838v.1095244c.07012218-.01279118.14024436-.03237766.21036653-.03237766.19713594-.00026648.22888938.10286233.22888938.1933332z"/>
      <path fill="rgb(12,78,151)" fill-rule="evenodd" d="M30.21070813 24.04558048c-.51467032 0-.61654594-.5893265-.66152998-.87113195h-.10187561l-.12701376 1.0188966h.10187562c.03836874-.07035142.06350687-.13444051.15347495-.13444051.18390533 0 .43793284.1208499.62845348.1208499.35590312 0 .94731092-.15909017.94731092-.8574081 0-.54442416-.77663619-1.11562983-.77663619-1.51935112 0-.31338366.20375123-.37041096.34399559-.37041096.41411776 0 .56759272.3712104.59934616.73642495h.10055255l.12833682-.89045195h-.08864502c-.0330765.05103144-.07144524.115387-.1786131.11458756-.19184369.00106593-.31885744-.10725929-.6046384-.10832522-.67476056 0-.76340558.5129792-.76340558.71204178 0 .49259328.75679029 1.1077686.75679029 1.53080989 0 .21078782-.10187562.51790913-.45777874.51790913z"/>
      <path fill="rgb(12,78,151)" fill-rule="evenodd" d="M34.59929798 24.22505658c.92878809 0 1.49373468-.67286882 1.73056242-.95454104l-.10849092-.08873874c-.3069499.30059249-.75149805.75521198-1.47124266.75521198-.75546724 0-1.10607812-.53123327-1.10607812-1.37092026 0-.94121691.64962243-2.49161327 1.92108304-2.49161327.91026525 0 .96715683.85887375.97906437 1.03795012l.11510621.0186538.23550467-1.27472002h-.132306c-.03307649.06435558-.07012217.14150232-.25535056.14150232-.1455366 0-.53451622-.154027-.99229496-.154027-1.456689 0-2.58261303 1.41542287-2.58261303 2.65243558 0 1.28098235.92878809 1.72907301 1.66705554 1.72880653z"/>
      <path fill="rgb(12,78,151)" fill-rule="evenodd" d="M37.63968975 20.17025578c0 .13390756-.92217279 3.47906492-.92217279 3.61243951 0 .18000907.02513814.39732571.30562685.39732571.39427186 0 .64168407-.30712131.96715682-.8003808l-.08335277-.05729377c-.3109191.40412101-.44454815.58306415-.60331534.58306415-.09658338 0-.09658338-.08953819-.09658338-.12897763 0-.07008495.05159934-.24249926.06482994-.30059249l.95921846-3.7097057-.03175344-.03117848c-.33076498.07661378-.66020691.13470701-.99229496.17321376v.10192963c.16670556-.0067953.4326406-.0067953.4326406.1601561z"/>
      <path fill="rgb(12,78,151)" fill-rule="evenodd" d="M38.22051306 21.54690542c.25931975 0 .38104127 0 .38104127.1862714 0 .1726808-.48423994 1.78743274-.48423994 2.06883847 0 .28153898.12172151.37747275.35193394.37747275.5715619 0 1.04124818-.8003808 1.47521185-1.52321513l.01852284-.00106593c-.1455366.52630334-.27255035 1.06419867-.27255035 1.1793192 0 .09620026.01190754.3335031.29768849.3335031.31885744 0 .485563-.16775086.88380404-.75001556l-.08732195-.05729379c-.22227408.28180546-.40088717.50565093-.52260868.50565093-.06879912 0-.07541442-.06981847-.07541442-.10299556 0-.09686646.08202972-.37773923.12039845-.50485148l.50276279-1.91614387h-.47100935c-.24873527.68592647-.38765656 1.08898156-.70122177 1.56318753-.21433571.33270365-.61654594.93495456-.88909629.93495456-.13362905 0-.15347495-.134707-.13362905-.2171834l.57950026-2.32626075-.0198459-.01172524c-.3175344.0760808-.63639184.13444052-.95392623.17134837v.0902044z"/>
      <path fill="rgb(12,78,151)" fill-rule="evenodd" d="M43.76680135 22.06032527c0 1.01220704-1.06243896 2.11938477-2.03488159 2.11938477-.33737182 0-.8269043-.1977539-.8269043-.33862305v-.02514648l.86529542-3.20996094c.04364013-.1796875.1005249-.33911133.1005249-.4296875 0-.1472168-.04364014-.17895508-.41409302-.18554687v-.10913086c.32015991-.03808594.64431763-.08300782.97509766-.1472168l.03042602.03198242c-.13891601.52514649-.33209228 1.24194336-.54776 1.9650879l.0105896.00634765c.21170043-.33300781.53582763-.65332031 1.10873412-.65332031.44586182 0 .7329712.50805664.7329712.97583007zm-.97909545-.6364746c-.7012024 0-1.24765015 1.25976562-1.3362732 2.39868164-.00265503.0439453 0 .21020507.29901123.21069336.8718872 0 1.47518921-1.35205079 1.47518921-1.88964844 0-.19873047-.0383606-.71972656-.43792724-.71972656z"/>
      <path fill="rgb(12,78,151)" fill-rule="evenodd" d="M16.97349333 25.5829192c.10849091-.40385454.21036653-.41717868.52128562-.4739395v-.10232935h-1.57047216v.1024626c.27255035.03197792.44454814.05103143.44454814.27527663 0 .11512053-.03043038.26914753-.07012218.39759219l-.75679029 2.68068275c-.10849091.39785867-.20375123.41651246-.51599338.47447245v.10232936h1.55327238v-.10232936c-.2738734-.03211117-.43396366-.05196413-.43396366-.25608988 0-.15376052.0330765-.28167222.07012218-.41064984l.75811335-2.68747806z"/>
      <path fill="rgb(12,78,151)" fill-rule="evenodd" d="M19.30075578 28.79590114c-.01190754 0-.10187562-.01332414-.10187562-.10872495 0-.19186754.50937809-1.77437507.50805503-2.05005143 0-.26901429-.1455366-.42304129-.43793285-.42304129-.52790092 0-1.11401648.89018547-1.41302802 1.36439144l-.01190754-.0122582.4061794-1.33934207-.01852284-.01279117c-.34399559.0708844-.68666811.134707-1.0306637.19852962v.10259584c.34399559 0 .40750246.07115088.40750246.16655169 0 .134707-.4260253 1.6336722-.62316123 2.3577057h.47630158c.26064281-.87139843.34399559-1.14654182.63639184-1.58837014.22888937-.35881896.62977653-.90977195.93540338-.90977195.12039846 0 .1587672.08953819.1587672.20505844 0 .25529043-.47100935 1.81941065-.47100935 1.97210524 0 .1865379.0132306.37853868.30562685.37853868.34399559 0 .5649466-.29486311.88380405-.72323405l-.08864502-.08327585c-.23550467.29979304-.39427186.50538445-.52128562.50538445z"/>
      <path fill="rgb(12,78,151)" fill-rule="evenodd" d="M20.6052929 28.79590114c-.07012219 0-.10187563-.05049848-.10187563-.10872495 0-.01971972 0-.03251089.0066153-.0515644l.55965436-2.13239459h.53451622l.03175344-.20545816h-.50805502l.17729003-.65967793c.0132306-.05076495 0-.10885818-.04498403-.09593377-.05689158-.01292441-.08202972.04410289-.10716786.0763473-.1786131.22411195-.48423994.5129792-.69328341.62130441-.10849092.05822647-.28578095.10272909-.3241497.16055583-.02116895.03211117-.01984589.0640891-.01190753.10299557h.46968628l-.45777874 1.76078445c-.02513814.10286233-.1455366.4939257-.1455366.58985947 0 .19253375.17729004.25608987.3043038.25502394.33076498.00106593.57950025-.28007332.90364994-.773999l-.08335278-.04423614c-.1587672.20452548-.38104126.50511797-.50937808.50511797z"/>
      <path fill="rgb(12,78,151)" fill-rule="evenodd" d="M23.84416341 26.64992488c0 .50683594-.59936523 1.02563477-1.62869262 1.17163086l-.17861939.0263672c-.0317688.1340332-.06350708.26245116-.06350708.39038085 0 .43530273.33074951.58276367.59802246.58276367.34280396.0012207.60809327-.21655273.9288025-.47973633l.07672119.07617188c-.0701294.10302734-.64828492.69091797-1.28601075.69091797-.66680908.0012207-.87057495-.49829102-.87057495-.90209961 0-.91577149 1.00421143-1.9921875 1.90124512-1.9921875.3241272 0 .52261352.15356445.52261352.43579101zm-.64434814-.28857421c-.34268188 0-.77529907.49414062-1.01080322 1.06347656l-.10717774.28222656c1.30981446-.26879883 1.34158325-1.03808594 1.34158325-1.0895996 0-.13403321-.06350708-.25561524-.22360229-.25610352z"/>
      <path fill="rgb(12,78,151)" fill-rule="evenodd" d="M26.1449449 26.52746713c0-.2165172-.16009025-.31338366-.30562685-.31338366-.40088716 0-.88380404.74974909-1.09417058 1.17292362l-.05027627.12711225-.0132306-.01252469.31224214-1.27498649-.0198459-.01279117c-.28578094.0447691-.6602069.1279117-.98567966.17321376v.10912466c.07012218-.0131909.14024436-.0322444.21036653-.0322444.19713594 0 .22756632.10259584.22756632.19253375 0 .05729378-.03704568.27514339-.10055256.51191327l-.51599338 1.87030885h.48423994c.25931975-.85167872.34928783-1.14027949.5914078-1.60089484.05027628-.09673322.4326406-.80770907.62977654-.80770907.15215189 0 .05689157.23090726.33076498.23090726.07012218.00053297.29901155.00053297.29901155-.3335031z"/>
      <path fill="rgb(12,78,151)" fill-rule="evenodd" d="M28.30285568 28.79590114c-.0132306 0-.10187562-.01332414-.10187562-.10872495 0-.19186754.50937808-1.77437507.50937808-2.05005143 0-.269414-.14685965-.42304129-.4392559-.42304129-.52790092 0-1.11269342.89018547-1.41302803 1.36439144l-.01190754-.0122582.40750247-1.33934207-.02116896-.01279117c-.34267253.0708844-.68534505.134707-1.02934064.19852962v.10259584c.34399559 0 .40750246.07115088.40750246.16655169 0 .134707-.4260253 1.6336722-.62316123 2.3577057h.47762464c.2606428-.87139843.34267253-1.14654182.63506877-1.58837014.23021244-.35801951.62977654-.9105714.93540339-.9105714.12039845 0 .1587672.09060412.16009025.20612437 0 .25635636-.4723324 1.81941066-.4723324 1.9726382 0 .18600494.0132306.37800572.30562685.37800572.34399559 0 .56626966-.2948631.88380405-.72323405l-.08864502-.08327585c-.23550467.300326-.39427187.50511797-.52128562.50511797z"/>
      <path fill="rgb(12,78,151)" fill-rule="evenodd" d="M31.24800253 28.776878c.09524536 0 .22225952-.16064452.5093689-.44213866l.0767517.0649414c-.38238525.4729004-.59802246.7043457-.87322998.7043457-.26593017 0-.26593017-.1665039-.26593017-.27514648 0-.14770508.03173828-.2890625.13363647-.67993164l-.01324463-.01269531c-.52789307.78125-.8652649.97290039-1.24630737.97290039-.6350708 0-.65493775-.56933594-.65625-.75488281 0-.94213867.9737854-2.13989258 1.82052612-2.13989258.2725525 0 .48291016.16625976.5027771.34570312h.01190186l.06350708-.28125.01852417-.01977539.38897705-.04467773.0449829.01904297c-.01983642.07788086-.60464477 2.26196289-.60464477 2.45996094 0 .04467773.0383606.08349609.08865357.08349609zm-1.8006897-.43530273c0 .33911133.21035766.4543457.38104248.4543457.67608642 0 1.29925537-1.3840332 1.29925537-2.01123046 0-.3071289-.17861938-.42993164-.36386108-.42993164-.7435608 0-1.31643677 1.41015625-1.31643677 1.9868164z"/>
      <path fill="rgb(12,78,151)" fill-rule="evenodd" d="M33.13996286 25.63781463c.01190754-.05076496 0-.10885819-.04498404-.09593377-.05689158-.01292442-.08202972.04516881-.10716786.07634729-.1786131.22411195-.48291688.5129792-.69328341.62130442-.10849092.05822647-.28710401.10272908-.32414969.16055583-.0198459.03211116-.0198459.06408909-.0132306.1031288h.47100934l-.45777874 1.76065122c-.02513814.10286232-.14685965.49392569-.14685965.58985946 0 .19253376.17861309.25502395.30562684.25502395.330765.00106593.57950026-.28007332.90364995-.77399901l-.08202972-.04423613c-.16009025.20479196-.38236432.50565093-.50937808.50565093-.07012217 0-.10187561-.0515644-.10187561-.10885818 0-.01958648 0-.03237765.0066153-.05143117l.55965435-2.13252782h.53319316l.03175344-.20532493h-.50805502l.17729004-.6602109z"/>
      <path fill="rgb(12,78,151)" fill-rule="evenodd" d="M34.17062656 28.8080261c-.05689158 0-.10055256-.05023199-.10055256-.09526757 0-.07714674.07541442-.33243717.10055256-.42224184l.55965436-2.06364205-.01852284-.01279117c-.24741221.0447691-.77531313.1472317-1.0174331.16042259v.10299556c.34928782-.00079944.3995641.03117848.3995641.16668493 0 .17934286-.50276278 1.7679795-.50276278 2.06857198 0 .1156535.00132306.3959933.29901155.3959933.35854924.00106593.6377149-.35095772.8851271-.72843047l-.08335277-.07061791c-.25931975.37107716-.44322509.49898886-.52128562.49832265z"/>
      <path fill="rgb(12,78,151)" fill-rule="evenodd" d="M34.64295896 24.850225c-.15347496 0-.29901155.12058342-.29901155.34629427 0 .22291278.1455366.33243717.30430379.33243717.21036653 0 .31091909-.19906257.31091909-.32724075 0-.14043639-.10716786-.35149069-.31621133-.35149069z"/>
      <path fill="rgb(12,78,151)" fill-rule="evenodd" d="M34.87184286 28.18752254c0-.94165039.94070434-1.97338867 1.86947632-1.97338867.73828125 0 .9354248.52539062.9354248.94848633 0 .78759765-.87057495 1.94702148-1.84436035 1.94580078-.67477417 0-.96054077-.38964844-.96054077-.92089844zm.53451538.1928711c0 .36523437.19052124.59472656.5093689.59472656.72503662 0 1.22781372-1.3256836 1.22781372-2.01098633 0-.3334961-.1402588-.61523438-.44586182-.61523438-.71313477 0-1.2913208 1.27490235-1.2913208 2.03149414z"/>
      <path fill="rgb(12,78,151)" fill-rule="evenodd" d="M39.81347724 28.79590114c-.0132306 0-.10319867-.01332414-.10319867-.10872495 0-.19186754.51070114-1.77437507.51070114-2.04951846 0-.26954726-.14685966-.42357426-.4392559-.42357426-.52790093 0-1.11401648.89018547-1.41302803 1.36439144l-.0132306-.0122582.40750246-1.33934207-.01852284-.01279117c-.34399558.0708844-.68666811.134707-1.0306637.19852962v.10259584c.34399559 0 .40750247.07115088.40750247.16655169 0 .134707-.4260253 1.6336722-.62316124 2.3577057h.47630158c.26064281-.87139843.34399559-1.14707479.63506878-1.58837014.22888937-.35801951.62977653-.90977195.93672644-.90977195.12039846 0 .15744414.08953819.1587672.20505844-.00132306.25529043-.47100934 1.81941065-.47100934 1.9726382 0 .18600493.01190753.37800572.30562684.37800572.34267253 0 .56626966-.29486311.88380405-.72323405l-.08996808-.08327585c-.2341816.29979304-.3929488.50538445-.51996256.50538445z"/>
      <path fill="rgb(12,78,151)" fill-rule="evenodd" d="M42.69377279 28.69338192c0 .04467773.0383606.08349609.08996582.08349609.0939331 0 .22225952-.16064453.50805664-.4416504l.07540894.06445313c-.37973023.4729004-.5967102.7043457-.87057496.7043457-.26724243 0-.26724243-.1665039-.26724243-.27514648 0-.14770508.03173828-.2890625.13360596-.67993164l-.01190186-.01269531c-.52789306.78125-.86526489.97387695-1.24765014.97290039-.63638306.00097656-.65490723-.56933594-.65490723-.75488281 0-.94213867.9737854-2.13989258 1.81921387-2.13989258.27386475 0 .48422241.16625976.50274658.34570312h.01324463l.06350708-.28125.01852417-.01977539.3876648-.04467773.0449829.01904297c-.01986694.07739258-.60464477 2.26196289-.60464477 2.45996094zm-1.71072388-.35180665c0 .33911133.20904541.4543457.38104248.4543457.67608643 0 1.2979126-1.3840332 1.2979126-2.01123046 0-.3071289-.17861938-.42993164-.36251831-.42993164-.74487305 0-1.31643677 1.41015625-1.31643677 1.9868164z"/>
      <path fill="rgb(12,78,151)" fill-rule="evenodd" d="M44.94694985 24.69593152l-.03043038-.03224441c-.33076499.07688026-.66285304.13550645-.99229496.17374672v.10219612c.16405943-.00652883.43131754-.00652883.43131754.16042258 0 .13390756-.92084972 3.47853196-.92084972 3.612706 0 .17920962.02513813.3959933.30430378.3959933.39427187 0 .5186395-.1317757.8427892-.62463546l-.08202972-.0570273c-.31224215.40252213-.32150357.40785178-.48159383.40785178-.09393725 0-.09393725-.09060412-.09393725-.12871114 0-.07061792.05027628-.24383168.06350687-.30085897l.95921847-3.70943922z"/>
      <path fill="rgb(12,78,151)" fill-rule="evenodd" d="M45.03825521 25.12160457c0-.3178711.25668335-.5522461.5583191-.5522461.300354 0 .55569457.23413087.55569457.5522461 0 .32080078-.25534057.55395508-.55569458.55395508-.30163574 0-.55831909-.23291016-.55831909-.55395508zm.11114502.00024414c0 .26586914.19580078.46313477.44717407.46313477.25006104 0 .44454956-.19726563.44454956-.46313477 0-.26220703-.19580078-.46069336-.44454956-.46069336-.25137329 0-.44717407.19848633-.44717407.46069336z"/>
      <path fill="rgb(12,78,151)" fill-rule="evenodd" d="M45.62700033 24.80373348c.14819336 0 .22229004.0559082.22229004.1821289 0 .11303711-.07144165.16357422-.1640625.17553711l.1812439.28125-.10849-.00097656-.166687-.2758789-.10983277-.00073243v.2775879h-.09655762v-.63891602h.24209595zm-.14553833.08227539v.19799805l.11380005-.00024415c.08068847 0 .1534729-.00610351.1534729-.1040039 0-.07958985-.0701294-.09375-.13760376-.09375h-.1296692z"/>
    </g>
  </g>
</svg>
