<svg xmlns="http://www.w3.org/2000/svg" xmlns:xlink="http://www.w3.org/1999/xlink" width="60.656" height="39.381" viewBox="0 0 60.656 39.381">
  <defs>
    <path id="path-1" fill-rule="evenodd" d="M59.47944034 35.46374138c0 1.51482093-1.21853822 2.74157405-2.72285738 2.74157405H3.8990149c-1.5029961 0-2.72285737-1.22675312-2.72285737-2.74157405V3.91781218c0-1.5137843 1.21986127-2.74165465 2.72418043-2.74165465h52.856245c1.50431916 0 2.72285738 1.22787035 2.72285738 2.74165465v31.5459292z"/>
    <path id="path-2" fill-rule="evenodd" d="M30.19218529 32.74375244c7.30858316 0 13.2702913-6.0035888 13.2702913-13.36277512 0-7.3608918-5.96170814-13.36448061-13.2702913-13.36448061-7.30858317 0-13.2702913 6.0035888-13.2702913 13.3644806 0 7.35918632 5.96170813 13.36277513 13.2702913 13.36277513z"/>
  </defs>
  <g>
    <g>
      <use fill="rgb(42,37,46)" xlink:href="#path-1"/>
      <use fill-opacity="0" stroke="rgb(56,53,53)" stroke-width=".5" xlink:href="#path-1"/>
    </g>
    <g>
      <use fill="rgb(42,37,46)" xlink:href="#path-2"/>
      <use fill-opacity="0" stroke="rgb(137,137,137)" stroke-width=".5" xlink:href="#path-2"/>
    </g>
    <path fill="rgb(250,237,42)" fill-rule="evenodd" d="M28.45502447 18.9410501c-.43133544-1.80273437-2.0415039-3.14257812-3.96520996-3.14257812-.09658813 0-.19451904.00341797-.2897644.01074219-2.11691284.15063476-3.78793335 1.92797851-3.78793335 4.09643554 0 .8425293.25271606 1.62402344.684021 2.27563477l3.10391235-1.36694336.93011475-.4086914 1.68026733-.74536133.00134277.00439453 1.64324951-.72363281zm-4.25497436-1.36621093c-1.15240479.14331054-2.04281616 1.13232422-2.04281616 2.33081054 0 .07275391.00396728.1435547.00924682.21459961l2.03356934-.8815918 2.04016113-.88671874c-.42602539-.48706055-1.05316162-.79492188-1.75039673-.79492188-.0979309 0-.1958313.0053711-.2897644.01782227z"/>
    <path fill="rgb(255,255,255)" fill-rule="evenodd" d="M27.33966804 22.84365355c-1.45933513 1.39503695-3.39100266 1.53200906-5.08848857.49432542l.9578954-1.46778673c.96715683.5815985 1.93695977.48713038 2.9107319-.28460353l1.21986127 1.25806484z"/>
    <path fill="rgb(255,255,255)" fill-rule="evenodd" d="M29.00010827 21.82635584l-.00926142-7.76618535h1.46065819v7.55633022c0 .0738157.00926142.13683887.10452173.1740132l1.27013756.4975232-.57420802 1.49909845-1.48711939-.6338291c-.5649466-.2419663-.76340559-.58985947-.76472865-1.32695062z"/>
    <path fill="rgb(170,30,46)" fill-rule="evenodd" d="M38.72195278 22.80727866c-.72106767.67979738-1.69087061 1.09657633-2.75461081 1.09657633-2.2267099 0-4.0300406-1.81701231-4.0300406-4.05879805 0-.63689366.14421353-1.23834512.40485634-1.77357562l1.51887282.8117063c-.132306.29273126-.2050743.61890608-.2050743.9621358 0 1.28471311 1.03463289 2.32652724 2.31138574 2.32652724.62183818 0 1.18546171-.2471627 1.60090254-.64981807l1.15370827 1.28524607z"/>
    <path fill="rgb(250,237,42)" fill-rule="evenodd" d="M35.93029629 15.71337588c2.22538684 0 4.0300406 1.8172788 4.0300406 4.05813184 0 .61744042-.13627517 1.20276968-.38104126 1.72627494l-1.522842-.81357169c.1190754-.27887414.1852284-.5877276.1852284-.91243677 0-1.28484635-1.03463289-2.32666048-2.31138574-2.32666048-.60066922 0-1.14841604.23064078-1.55988768.60917946l-1.15238522-1.28418014c.71577544-.65674662 1.66705554-1.05673716 2.7122729-1.05673716z"/>
  </g>
</svg>
