<svg xmlns="http://www.w3.org/2000/svg" width="58.303" height="37.029" viewBox="0 0 58.303 37.029">
  <g>
    <path fill="rgb(0,89,160)" fill-rule="evenodd" d="M58.30275359 34.28727407c0 1.51482092-1.21840591 2.74157404-2.72232816 2.74157404H2.72298968C1.21986128 37.02884811 0 35.802095 0 34.28727407V2.7419178C0 1.22813617 1.21986127 0 2.72404813 0h52.8563773c1.50392225 0 2.72232816 1.22813617 2.72232816 2.7419178v31.54535627z"/>
    <path fill="rgb(255,255,255)" fill-rule="evenodd" d="M22.16601718 24.66471692l1.9798269-11.70485299h3.16965473l-1.98313456 11.70485299h-3.16634707z"/>
    <path fill="rgb(255,255,255)" fill-rule="evenodd" d="M36.82380144 13.24859794c-.62779194-.2371696-1.6109578-.49198036-2.83955126-.49198036-3.13102137 0-5.33563617 1.58722427-5.35548207 3.86258683-.0175967 1.68217206 1.5736475 2.62099062 2.7761767 3.18100402 1.23335648.57400374 1.64840039.93908504 1.64324045 1.45179776-.00939372.78479156-.98528274 1.14241135-1.89726796 1.14241135-1.26749144 0-1.94026742-.17627831-2.9813833-.61397615l-.40750246-.18573844-.44520967 2.6205909c.73972281.32697427 2.10842833.60971242 3.52939472.62410248 3.33106803 0 5.49162493-1.5691834 5.51676307-3.99963888.01256907-1.3304149-.83141087-2.34398185-2.6592182-3.17873892-1.10832731-.54255878-1.78652784-.90377608-1.77951562-1.45206425 0-.48619769.5740757-1.00703813 1.81537055-1.00703813 1.03529441-.0167884 1.78652785.2110543 2.36880654.44809067l.28604556.13550645.42933295-2.53691533z"/>
    <path fill="rgb(255,255,255)" fill-rule="evenodd" d="M42.49960327 12.97083767h2.44752503l2.5650177 11.69873047h-2.94090271s-.2905426-1.34399414-.38354493-1.7541504c-.46347045 0-3.69465637-.00537109-4.0580902-.00537109-.12358094.31713868-.66670228 1.75952149-.66670228 1.75952149h-3.32643127l4.70387268-10.72729492c.3334198-.76293946.89994812-.97143555 1.65925598-.97143555zm-.19714355 4.2734375s-.99983216 2.59716797-1.26193238 3.27172852h2.63050843l-.73350525-3.3803711-.21459961-1.00927734c-.08979798.2475586-.21757508.58154297-.30880737.82006836-.07048035.18432617-.11915589.31152343-.11166382.29785156z"/>
    <path fill="rgb(255,255,255)" fill-rule="evenodd" d="M19.5093128 12.9687911l-3.10231097 7.98275584-.33169113-1.62154724c-.57645722-1.8711083-2.37489261-3.8978425-4.3873991-4.91127621l2.83637592 10.2378657 3.35184007-.0045302 4.98780371-11.6830014h-3.3546185v-.00026649z"/>
    <path fill="rgb(249,166,28)" fill-rule="evenodd" d="M13.53027258 12.96146283H8.4194243l-.03863335.24223278c3.97381056.97013028 6.60458296 3.31184702 7.69478436 6.12630409l-1.109915-5.38055225c-.19091754-.74162136-.74752886-.96240228-1.43538773-.98798462z"/>
  </g>
</svg>
