<svg xmlns="http://www.w3.org/2000/svg" xmlns:xlink="http://www.w3.org/1999/xlink" width="33.789" height="34" viewBox="0 0 33.789 34">
  <defs>
    <rect id="rect-1" width="33.789" height="34" x="0" y="0"/>
    <mask id="mask-2" maskContentUnits="userSpaceOnUse" maskUnits="userSpaceOnUse">
      <rect width="33.789" height="34" x="0" y="0" fill="black"/>
      <use fill="white" xlink:href="#rect-1"/>
    </mask>
  </defs>
  <g>
    <use fill="none" xlink:href="#rect-1"/>
    <g mask="url(#mask-2)">
      <path fill="rgb(130,130,130)" fill-rule="evenodd" d="M28.72802734 4.94067383C25.5678711 1.75317383 21.359375 0 16.88684082 0 7.65527344 0 .14331055 7.5588379.14331055 16.84814453c0 2.9675293.7692871 5.86669922 2.23242187 8.42407227L0 34l8.8770752-2.3449707c2.44372558 1.34326172 5.1965332 2.04907226 8.00219726 2.04907226h.00756836c9.2241211 0 16.90197754-7.55908203 16.90197754-16.84838867 0-4.50024414-1.90063477-8.72753906-5.06079102-11.91503906zM16.88684082 30.86547852c-2.50402832 0-4.9552002-.67529297-7.0895996-1.95043946l-.5053711-.3034668-5.2644043 1.38891602 1.40283203-5.16845703-.33190918-.53125c-1.39526367-2.23120117-2.12683105-4.80395508-2.12683105-7.45263672 0-7.71826172 6.24487304-14.00219726 13.92285156-14.00219726 3.71826172 0 7.21020508 1.45703125 9.83496094 4.10571289 2.62463379 2.64868164 4.23864746 6.16259765 4.2310791 9.90405273 0 7.72583008-6.40332031 14.00976563-14.0736084 14.00976563zm4.774292-11.85424805c.38464355.13671875 2.4436035 1.15356445 2.85839843 1.36621094.41479492.20483398.69396973.31103515.79199219.50073242.10559082.17456054.10559082 1.01708984-.24133301 2.0036621-.3470459.98657227-2.01379395 1.88208009-2.82080078 2.00341798-1.32739258.19750976-2.36828613.09887695-5.0230713-1.0546875-4.20092772-1.82910157-6.93884276-6.07910157-7.1500244-6.35986328-.20361329-.28076172-1.70446778-2.28442383-1.70446778-4.35620118 0-2.07202148 1.07849121-3.08886718 1.46313477-3.51391601.38464355-.41748047.83728027-.52368164 1.116333-.52368164.27905274 0 .55810547 0 .79943848.01513672.03112793.00195312.06347656.00170898.0970459.00170898.24328613-.00048828.54748535-.00097656.84570313.71923828.34692382.8425293 1.18408203 2.91430664 1.28967285 3.12695313.10559082.21240234.17346191.45532226.03771972.73608398-.35559082.71557617-.72302246 1.10229492-.98364257 1.37670899-.32556153.3425293-.48449708.50976562-.24572754.92285156 1.62158203 2.80029297 3.2355957 3.77172851 5.69433593 5.00878906.41479493.21264648.6636963.17456055.9050293-.10620117.24890137-.28833008 1.04833984-1.22949219 1.32739258-1.65429688.2791748-.42504883.55822754-.35668945.9428711-.21264648z"/>
    </g>
  </g>
</svg>
