<svg xmlns="http://www.w3.org/2000/svg" xmlns:xlink="http://www.w3.org/1999/xlink" width="43.005" height="42.763" viewBox="0 0 43.005 42.763">
  <defs>
    <rect id="rect-1" width="43.005" height="42.763" x="0" y="0"/>
    <mask id="mask-2" maskContentUnits="userSpaceOnUse" maskUnits="userSpaceOnUse">
      <rect width="43.005" height="42.763" x="0" y="0" fill="black"/>
      <use fill="white" xlink:href="#rect-1"/>
    </mask>
  </defs>
  <g>
    <use fill="none" xlink:href="#rect-1"/>
    <g mask="url(#mask-2)">
      <path fill="rgb(0,119,41)" fill-rule="evenodd" d="M19.21425656 16.43126035c.90820312.24316406 1.8515625.72949219 2.86462402 1.52850342.8034668-1.28533936 1.991333-3.16119385 2.5152588-3.92547608.20971679-.34735107.279541-.66003418.2446289-.7989502-.03491211-.10424804-.31445313-.3474121-1.0480957-.52111816-1.711792-.38208007-2.7598877-1.84112548-2.5152588-3.50854492.20959473-1.49377441 1.36242676-2.5706787 2.68994141-2.50115967h.34936524c.41918945.034729.9781494.06945801 1.36242675.034729-.66369629-.3126831-1.67687988-.76428222-2.30566406-1.91064452-.55895996-.93792725-.48913574-2.18847657.1397705-3.23065186.59387208-1.00738525 1.64184571-1.59796142 2.72485352-1.59796142h.0699463c1.8864746.034729 3.6331787 1.52850341 5.27514648 4.4812622 1.18774414 2.15374756 1.18774414 4.30755616.55895996 6.3223877 2.02624512-.62530518 4.19213867-.62530518 6.3581543.55578613 2.96948242 1.63275147 4.47167968 3.40435791 4.5065918 5.24554443.0349121 1.1463623-.59387208 2.18847657-1.60705567 2.81378174-1.01306153.59057617-2.30566406.66003418-3.24890137.13897705-1.15283203-.62530517-1.60705566-1.63275146-1.92138672-2.2927246 0 .38208007 0 .93792724.03491211 1.35479736v.34735107c.06982422 1.32006836-1.0131836 2.46643067-2.51538086 2.67486572-1.67687988.20843506-3.14404297-.79901123-3.52832031-2.50115966-.17468262-.7294922-.41931152-1.0074463-.52404785-1.0421753-.13977051-.069458-.45422363 0-.80358887.24316407-.76855469.48632812-2.585083 1.63275146-3.87768555 2.43170166.83837891 1.04217529 1.36242676 2.01483154 1.57202149 2.98748779.38427734 1.77166748-.1397705 3.4043579-1.64196778 4.89813232-1.29260253 1.28533936-6.3930664 5.31500244-11.35388183 8.68463135-6.18347168 4.1685791-9.32751465 5.41918945-11.07434082 5.41918945-.87329102 0-1.39733887-.2779541-1.8166504-.69476318-1.39733886-1.4243164-.7335205-4.06439209 2.37561036-9.13623047 2.6550293-4.37701416 6.18347168-8.99725342 7.58093262-10.7689209 1.53710937-1.9453125 2.86462402-3.54327392 3.52844238-4.2033081 1.50219727-1.49377442 3.21398926-2.01483155 5.03063965-1.52850342zm4.75109863-6.60028076c.03491211.034729.06994629.20843506.41918945.27789306 1.9215088.41687012 2.65515137 1.38952637 2.8996582 2.15374756.13977051.34741211.20959473.72955323.20959473 1.1116333.13977051-.104187.24450684-.20843505.34936524-.27789306 1.67687988-2.2579956 2.6899414-4.89813233 1.32751465-7.32977295-1.46728516-2.67486572-2.72497559-3.3001709-3.14416504-3.05700684-.31433106.17370606-.41918946.66003418-.34936524.79901123.20959473.34735108.55895996.52105713 1.08300782.7642212l.01586914.00744628c.6763916.31835938 2.45788574 1.15692139 1.62609863 3.43164063-.66125488 1.86877441-2.74389649 1.77246094-4.24487305 1.70300293l-.01721191-.00079346h-.13977051c-.0349121.10418701-.06982422.27789307-.0349121.41687012zm13.20544434 3.89068603c2.6899414 1.45898438 3.28393554 2.70959473 3.07421875 3.12646485-.17468262.31262207-.6636963.41687011-.8034668.34735107-.34936523-.20843506-.52404785-.52105713-.76855469-1.04211426l-.0189209-.03973388c-.3272705-.68945313-1.14440918-2.41052246-3.43969726-1.59295655-1.87768555.69152832-1.78259278 2.72521973-1.71276856 4.21710205l.00097657.02093506v.13897705c-.10473633.034729-.24450684.06945801-.41918946.034729-.06982422 0-.20959472-.069458-.27941894-.4168701-.45422364-1.9105835-1.43237305-2.6400757-2.16601563-2.9527588-.34936523-.13891601-.69873047-.20843506-1.08300781-.20843506h-.0349121c.10485839-.104187.1746826-.24316406.27941894-.34735107 2.30578613-1.63275147 4.92590332-2.64013672 7.37133789-1.28533936zM22.32350949 27.3738873c.27941894-.2432251.52392578-.45159912.6986084-.62530517 1.0480957-1.0421753 1.0480957-1.80639649.87341308-2.43170166-.17468262-.83374024-.87341308-1.8411255-2.02624512-2.9874878-1.36242675-1.35479736-2.48034667-2.11907959-3.38867187-2.36224365-.17468262-.034729-.38427734-.069458-.59387207-.069458-.48913574 0-1.08300781.20843505-1.8166504.93792724-.1397705.13897705-.31445312.3474121-.59387206.66003418 1.22277832.90319824 2.41052246 1.94537353 3.52844238 3.05700684 1.25769043 1.2158203 2.34057617 2.50115966 3.31884766 3.82122802zm-2.8647461 2.32745362c-.9083252-1.21582032-1.9564209-2.39697266-3.07434082-3.54333496-1.15283203-1.1463623-2.13098144-1.9800415-3.24890136-2.81378174.73364257-.90319825 1.32751464-1.66748047 1.81665039-2.2232666 1.18774414.90319824 2.37548828 1.9105835 3.4934082 3.0222168 1.22277832 1.21588134 2.30578613 2.46643066 3.24902344 3.78649902-.59387207.52105712-1.36242676 1.1116333-2.23583985 1.77166748zm-5.694458-.90319825c1.01318359 1.0074463 1.9564209 2.04956055 2.7947998 3.12646485.80358887-.59057617 1.57214356-1.1463623 2.23583984-1.73693848-.87329101-1.1810913-1.8864746-2.32745361-3.00439453-3.43908691-1.11791992-1.1116333-2.09606933-1.9453125-3.17907715-2.74432373-.41918945.55578613-1.01306152 1.32006836-1.71179199 2.2579956.97814942.7642212 1.95629883 1.63269043 2.86462403 2.53588867zm-.20947266 5.28027344c-.73364258-.90319824-1.53710938-1.80639648-2.41052246-2.67486572-.76855469-.76428223-1.57214356-1.49377442-2.41052246-2.1538086.59387207-.8336792 1.15283203-1.59796142 1.67687988-2.3274536.9432373.76422118 1.88647461 1.56323241 2.7598877 2.46643066.97814941.97265625 1.8864746 2.01483154 2.72485351 3.0569458-.76855469.52111816-1.53710937 1.0769043-2.34057617 1.63275146zm-3.07434082 2.08428955c.69873047-.45159912 1.46728516-.97271728 2.30578613-1.52850342.03491211-.034729.06982422-.069458.10473633-.069458-.73364258-.86846924-1.50219727-1.73693848-2.34057617-2.57067871-.73364258-.7642212-1.50219727-1.42425538-2.27075195-2.08428956-.52404786.7642212-1.08300782 1.59796143-1.60705567 2.39697266.62878418.52105713 1.25769043 1.1116333 1.8515625 1.70214844.6636963.69476318 1.32751465 1.42425537 1.95629883 2.1538086zM7.26650265 38.1080792c-.45422363-.48638916-.9083252-1.0074463-1.39746094-1.45904541-.38427734-.38214112-.8034668-.7642212-1.18774414-1.1463623.31445313-.55578614.69873047-1.18109132 1.11791993-1.8758545.1397705-.20843506.27941894-.41687012.38427734-.62530518.59387207.52105713 1.15283203 1.0421753 1.711792 1.59796143.66381835.66003418 1.25769042 1.32006836 1.8515625 2.01483154-.9083252.59057618-1.74670411 1.0769043-2.48034669 1.49377442zm-2.96960449-1.87591553c-1.25756836 2.2579956-1.53710938 3.3696289-1.57202148 3.82122803.45410156-.06945801 1.53710937-.31262207 3.8428955-1.52850342-.41931152-.45159912-.83850097-.90319824-1.25769043-1.32006836-.31445312-.31262207-.66381836-.66003418-1.01318359-.97265625z"/>
    </g>
  </g>
</svg>
