<svg xmlns="http://www.w3.org/2000/svg" xmlns:xlink="http://www.w3.org/1999/xlink" width="31.776" height="41.789" viewBox="0 0 31.776 41.789">
  <defs>
    <rect id="rect-1" width="31.776" height="41.789" x="0" y="0"/>
    <mask id="mask-2" maskContentUnits="userSpaceOnUse" maskUnits="userSpaceOnUse">
      <rect width="31.776" height="41.789" x="0" y="0" fill="black"/>
      <use fill="white" xlink:href="#rect-1"/>
    </mask>
  </defs>
  <g>
    <use fill="none" xlink:href="#rect-1"/>
    <g mask="url(#mask-2)">
      <path fill="rgb(0,119,41)" fill-rule="evenodd" d="M11.64247206 41.01695415c1.40893555.51501465 2.8178711.77252197 4.22692871.77252197 1.40893555 0 2.8178711-.25750732 4.15270996-.77252197.1854248-.0736084.37072754-.11035156.55615235-.11035156h.6673584c1.8909912 0 3.44836425-.47827149 4.74609374-1.54504395.07409668-.0368042.14831543-.11035156.22241211-.18395996.14831543-.11035156.25952149-.22070313.37072754-.25750733 2.2989502-.77252197 3.85620118-2.39111328 4.78308106-5.00292968.70446777-1.91290283.3708496-3.82580567-.0369873-5.48120117-.4449463-1.91290284-1.4831543-3.45794678-2.595459-5.0397339-1.0012207-1.43469237-2.03930663-3.01654052-2.48425292-4.81903075-.33374024-1.25079346-.55615234-2.53826905-.77868652-3.7890625-.07409668-.40460205-.14831543-.77246094-.22241211-1.17712403-.29663086-1.76574707-.74157715-3.60510254-1.63146973-5.29730224-1.07531738-2.0232544-2.55834961-3.16363526-4.52355957-3.53149414-.07409668-.03674317-.11120606-.03674317-.11120606-.03674317-.51904296-.29431152-1.0751953-.6253662-1.63146972-.91967773l-.25952149-.14715576.11120606-.14715576c.29663086-.58856202.59326172-1.17718506.92700195-1.72894288.37072754-.58862304.33374024-1.17718505-.11120605-1.54504394-.1854248-.18395996-.4449463-.25750733-.66748047-.25750733-.33361817 0-.63024903.14715577-.92687988.47821045-.74157715.88287354-1.26062012 1.87609864-1.4831543 2.94293213-.07409668.33105469-.14831543.36785889-.37072754.40466309-.40783691.0368042-.8527832.22070312-1.14941406.44140625-.48205567.36785889-1.07531739.55181885-1.6685791.7357788h-.0369873c-1.52026368.47821046-2.70678712 1.58178712-3.633667 3.31072999-.92700195 1.7290039-1.4831543 3.7154541-1.74267578 6.03302002-.37084961 3.6418457-1.59436035 6.7319336-3.633667 9.45410156C1.07521133 26.00804302.14833145 28.3991563.00001602 30.97422954c-.1854248 3.53149414 1.8909912 6.7687378 5.11669921 7.90911865.11120606.03674316.18542481.11035156.18542481.11035156 1.33483887 1.32427979 3.0032959 1.949646 5.11682129 1.949646.2224121 0 .44482422-.03674316.6673584-.03674316h.03710937c.14831543 0 .29663086.03674316.51904297.11035156zm1.33483887-22.3661499c-.22241211-.22076416-.4819336-.33111573-.77856446-.33111573-.29663085 0-.5562744.11035157-.74157714.33111573-.22253418.18389892-.33374024.47821044-.33374024.77246093 0 2.6854248-.77868652 5.33404541-1.5201416 7.87231446-.14831543.55181884-.33374023 1.1036377-.48205566 1.6553955-.6303711 2.20721436-.92700196 4.23046875-.96398926 6.18017579 0 1.39788818.2224121 2.53826904.77856445 3.49468994-1.66845703-.3310547-3.0032959-1.58178711-3.52233887-3.38433838-.44494628-1.61859131-.29663085-3.20043946.51904297-4.81903076.51904297-1.0668335 1.07531739-2.0968628 1.63146973-3.1268921.18530273-.33105468.37072754-.69891357.55615234-1.02996826.77856446-1.47149658 1.74267578-3.49475097 2.1505127-5.7387085.14831543-.91967773-.29663086-1.32434081-.81567383-1.43469237-.07421875-.0368042-.14831543-.0368042-.22253418-.0368042-.55615234 0-.96398926.40466308-1.07519531 1.0668335-.33374024 1.80255126-1.11242676 3.42114257-1.89099121 4.92938232l-.40783692.80932617c-.77868652 1.47143555-1.55737304 2.9796753-2.26184082 4.52471924-.63024902 1.43469238-.81567382 2.90612793-.48193359 4.45117187-.77868652-1.14038086-1.07531738-2.53826904-.88989258-4.26721191.14831543-1.6921997.74157715-3.27404785 1.89099121-4.89263916l.22241211-.2942505c.74157715-1.10363769 1.4831543-2.20721435 2.1505127-3.3843994 1.29772949-2.28076172 1.77978515-4.81903077 2.07641601-7.02618409.18530274-1.61865234.51904297-3.49475097 1.33483887-5.26049804.40783691-.9564209.92687988-1.61859131 1.55725098-2.13360596 0 .07354736-.03710938.14715576-.03710938.22070312-.11120605.73571778-.1854248 1.43469239-.2224121 2.17041016-.03710938 1.10357666-.03710938 2.24395752-.03710938 3.34759522v.84606933c0 .66217041.40783691 1.14038086 1.07519531 1.14038086.6303711 0 1.07531738-.47821045 1.07531738-1.14038086.03710938-.55181885.03710938-1.10357666.03710938-1.6553955 0-1.10357667 0-2.28076173.07409668-3.42114258.03710937-.58856202.1854248-1.28753663.40783691-1.9864502.33374024-.91967773 1.00109863-1.32434082 2.1135254-1.32434082 1.14941405 0 1.81677245.40466309 2.07629394 1.28753662.25952148.88287354.40783691 1.87609863.48205566 2.9796753.03710938.91967773.03710938 1.83935546.03710938 2.7590332v1.28747558c.0369873.66217041.37072754 1.1036377.96398925 1.17718506h.14831543c.6303711 0 1.07519532-.51501465 1.07519532-1.14038086v-1.17718506c.03710937-1.76574707.03710937-3.6050415-.2965088-5.40759277.18530274.14715576.37072755.29431152.51904298.47821045 1.11230468 1.25073242 1.59436035 2.79577637 1.85388183 4.04650879.29663086 1.43469238.51916504 2.86938476.74157715 4.23046875.44494629 2.90612793 1.59436035 5.62835693 3.48535156 8.27697754 1.00109864 1.39788818 1.81677246 2.6118164 2.18762207 4.04650879.4449463 1.76574707.74157715 3.60510254-.11132812 5.3708496-.14831543.25750733-.29663086.51501465-.4449463.73571778 0-.0736084.03710938-.11035156.03710938-.18395996.29663086-1.54504395.03710938-3.12683106-.74157714-4.78222656-.59313965-1.25073243-1.26062012-2.50146485-1.89099122-3.7154541l-.51904296-.9932251c-.81567383-1.54504395-1.63146973-3.23718262-1.92810059-5.11334229-.07409668-.55175781-.51904297-.9196167-1.03808594-.9196167-.07421875 0-.14831543.03674317-.22253418.03674317-.63024902.11035156-.96398926.6621704-.8527832 1.32434082.3708496 2.28076172 1.33483887 4.30401611 2.1505127 5.81225586.22253417.40466308.44494628.84606933.66748046 1.25073242.51904297.9932251 1.07519532 1.98651123 1.55725098 2.97973633.88989258 1.80255127 1.00109863 3.6050415.33361816 5.2972412-.63024902 1.58184815-1.77966308 2.53826905-3.37402343 2.90612794l.2224121-.44140625c.37084962-.80932618.55615235-1.76574707.55615235-2.86938477-.0369873-2.72216797-.6673584-5.26043701-1.3347168-7.6515503-.51916504-1.87615966-.96411133-3.7890625-1.44604492-6.03302001-.07421875-.44140625-.11132812-.88287354-.11132812-1.39788819-.0369873-.18389892-.0369873-.40466308-.0369873-.588562-.07421876-1.14038087-.70446778-1.32434083-1.11242677-1.32434083-.29650879 0-1.03808593.14715576-1.03808593 1.36108399.0369873 2.53826904.63024902 5.00299072 1.22351074 7.09979248.66748047 2.35437011 1.14941406 4.45117187 1.55725097 6.3640747.18542481.91967774.18542481 1.91290284.14831543 2.83258057-.07409668 1.76574707-.81567382 2.722229-2.52124023 3.20043945-1.00109863.29431153-2.00219727.44140625-3.0032959.44140625s-2.00219726-.14709472-3.00341797-.44140625c-1.7055664-.47821044-2.44714355-1.47149658-2.5583496-3.23724365-.14831544-2.50146484.44494628-4.92938232 1.11230468-7.21014404l.22253418-.80932617c.59326172-2.0232544 1.22351074-4.12005616 1.44604492-6.29046631.03710938-.62536621.07409668-1.32427979.11120606-2.17041016 0-.33105469-.11120606-.588562-.29663086-.80926513z"/>
    </g>
  </g>
</svg>
