<svg xmlns="http://www.w3.org/2000/svg" xmlns:xlink="http://www.w3.org/1999/xlink" width="53.039" height="52.712" viewBox="0 0 53.039 52.712">
  <defs>
    <rect id="rect-1" width="53.039" height="52.712" x="0" y="0"/>
    <mask id="mask-2" maskContentUnits="userSpaceOnUse" maskUnits="userSpaceOnUse">
      <rect width="53.039" height="52.712" x="0" y="0" fill="black"/>
      <use fill="white" xlink:href="#rect-1"/>
    </mask>
  </defs>
  <g>
    <use fill="none" xlink:href="#rect-1"/>
    <g mask="url(#mask-2)">
      <path fill="rgb(0,119,41)" fill-rule="evenodd" d="M3.33450012 17.9675512c-.36471095 0-.7294219-.15533905-.93782816-.41423748-.26050782-.25889844-.36471095-.62135624-.36471095-.93203436 0-2.74432338.78152347-5.48864677 2.1882657-7.92229203.20840626-.3624578.62521878-.62135624 1.0420313-.62135624h.31260938c1.19833598 0 2.39667196.20711875 3.54290638.67313593.7294219.31067811 1.04203128 1.08737341.78152346 1.76050934-.20840626.51779686-.67732034.82847498-1.25043754.82847498-.1563047 0-.36471095-.05177969-.52101565-.10355937-.62521877-.25889844-1.3025391-.4142375-1.97985944-.46601718-.93782816 1.86406871-1.40674224 3.88347648-1.4588438 5.95466394 0 .72491561-.57311721 1.24271248-1.35464068 1.24271248z"/>
      <path fill="rgb(0,119,41)" fill-rule="evenodd" d="M49.65279085 17.19085591c-.7294219 0-1.35464067-.56957655-1.35464067-1.34627185.10420313-2.33008589-.41681252-4.66017178-1.4588438-6.73135924-.20840626 0-.41681252.05177969-.62521878.10355937l-.5731172.10355938V9.1650045c-.46891409-.15533906-.83362504-.51779687-.93782816-1.03559373-.05210157-.3624578 0-.72491561.20840625-.98381405.20840626-.31067811.52101565-.46601717.83362503-.56957655.52101565-.10355937 1.04203129-.15533906 1.56304693-.15533906h.36471095c.41681252.05177969.83362503.25889844 1.0420313.62135624 1.56304692 2.6925437 2.34457039 5.69576551 2.24036726 8.8025467.05210156.72491561-.52101564 1.34627185-1.3025391 1.34627185z"/>
      <path fill="rgb(0,119,41)" fill-rule="evenodd" d="M49.2880799 23.66331672c-.7294219 0-1.35464067-.56957655-1.35464067-1.34627185 0-1.86406871-1.0420313-3.62457805-2.70928135-4.50483272-.52101564-.25889843-.78152347-.82847498-.67732034-1.44983122.10420313-.4142375.1563047-.88025467.1563047-1.34627185 0-.82847498-.1563047-1.65694997-.46891408-2.43364527-.98992973-2.58898432-3.54290638-4.34949366-6.35639086-4.34949366-.83362503 0-1.6151485.15533906-2.39667196.46601718h-.05210156c-.10420313.10355937-.26050783.10355937-.41681252.10355937-.5731172 0-1.09413285-.3624578-1.25043754-.93203435-.78152347-2.48542496-2.76138292-4.34949367-5.262258-5.0226296-.62521878-.15533905-1.30253912-.25889843-1.97985945-.25889843-3.43870325 0-6.46059398 2.3300859-7.34632058 5.59220614-.1563047.56957656-.67732034.98381405-1.3025391.98381405h-.26050783c-.31260939-.05177969-.62521877-.10355938-.93782816-.10355938-2.86558604 0-5.15805487 2.3300859-5.15805487 5.12618897 0 .41423749.05210156.88025467.15630469 1.29449216.10420313.41423749 0 .82847498-.26050782 1.1391531-.26050782.31067812-.62521877.51779687-1.04203129.51779687h-.20840626c-2.86558604 0-5.21015643 2.33008589-5.21015643 5.12618896 0 .7249156-.57311721 1.34627185-1.35464068 1.34627185-.78152346 0-1.35464067-.56957656-1.35464067-1.34627185 0-3.8316968 2.76138291-7.04203736 6.51269555-7.6633936v-.4142375c0-4.29771397 3.54290637-7.76695297 7.81523465-7.76695297h.20840626c1.04203129-2.53720463 3.02189073-4.6083921 5.62696895-5.6957655 1.25043755-.51779687 2.60507822-.7766953 3.9597189-.7766953 4.01182045 0 7.6068284 2.2783062 9.32618002 5.90288425.67732033-.15533906 1.35464067-.20711874 2.08406257-.20711874 5.21015644 0 9.43038316 4.24593429 9.48248472 9.42390294 0 .31067811 0 .62135623-.05210156.93203435 2.08406257 1.44983122 3.28239855 3.8316968 3.28239855 6.36890144.10420313.67313592-.46891408 1.29449216-1.19833598 1.29449216z"/>
      <path fill="rgb(0,119,41)" fill-rule="evenodd" d="M22.45577425 47.8444303c-.1563047 0-.31260939-.05177968-.46891408-.10355936-1.09413285-.4142375-2.08406258-.98381405-3.0739923-1.5533906-.83362503.51779687-1.77145319.82847498-2.76138291.82847498h-.1563047c-.7294219 0-1.3025391-.56957655-1.3025391-1.34627184 0-.7766953.5731172-1.34627185 1.35464067-1.34627185l.05210156.51779686v-.51779686h.20840626c-1.82355475-1.39805154-3.49080481-2.89966245-5.05385174-4.55661241-.57311721.20711874-1.14623442.31067812-1.7714532.31067812-.78152346 0-1.51094536-.15533906-2.13616413-.51779687-.31260939-.15533906-.57311721-.41423749-.67732034-.7766953-.10420313-.31067811-.10420313-.67313592.05210156-1.03559373.20840626-.46601717.67732034-.7249156 1.19833599-.7249156.20840625 0 .41681251.05177968.5731172.15533905.1563047.10355938.36471095.15533906.57311721.15533906-1.09413285-1.24271247-2.08406257-2.53720463-3.0739923-3.88347648l-.05210156-.05177969c-.20840626-.25889843-.26050782-.62135624-.20840626-.98381404.05210157-.3624578.26050782-.62135624.57311721-.82847499.20840626-.15533906.46891408-.20711874.7294219-.20711874.46891408 0 .8857266.20711874 1.09413285.62135624 1.92775788 2.58898432 4.06392202 5.07440927 6.40849242 7.35271548.05210157-.31067812.10420313-.62135624.10420313-.98381405 0-.7249156.5731172-1.29449216 1.35464067-1.29449216s1.35464068.56957655 1.35464068 1.34627185c-.05210157 1.03559373-.20840626 2.01940777-.57311721 2.95144213 1.87565632 1.60517028 3.9597189 2.95144213 6.25218772 3.93525617.52101565.20711875.83362503.67313593.83362503 1.24271248-.05210156.7249156-.67732033 1.29449216-1.40674223 1.29449216z"/>
      <path fill="rgb(0,119,41)" fill-rule="evenodd" d="M-.00003925 25.52739479c0 25.9934082 26.20703125 27.18432617 26.51965332 27.18432617.26049805-.05175782 26.46765137-1.19091797 26.46765137-27.18432617 0-.77667237-.62524414-1.34625245-1.35461426-1.34625245-.3647461 0-8.8572998.05175782-10.10778808 4.91906739-3.90759278.36248779-8.4404297 2.53723144-9.0135498 7.40447998-1.56298829.4142456-4.1159668 1.70874023-5.78320313 5.48864746-.26049805.67315674.10412597 1.4498291.78149414 1.70874023.15625.05175781.31262207.10357666.46887207.10357666.5209961 0 .9378662-.31066894 1.19836426-.7767334 1.77148437-3.9352417 4.58496093-4.03881836 4.58496093-4.03881836.78149414 0 1.35461426-.62133789 1.35461426-1.34625244 0-5.90289306 7.29418945-5.95465088 7.60681152-5.95465088.78149415 0 1.35461426-.62133789 1.35461426-1.34625244 0-2.48547363 4.22021485-3.21038818 6.25219727-3.41748047-.78149414 19.26202393-17.76660156 22.47241211-22.5078125 22.99017334-.3647461-10.30413818-5.00183106-12.78955078-7.34631348-13.4109497-.57312012-4.86724854-5.10595703-7.04199219-9.0135498-7.40447998-1.25048828-4.86730957-9.743042-4.91906739-10.10778809-4.91906739-.78149414 0-1.35461426.6213379-1.35461426 1.34625245zM25.1651219 49.96739723C20.42378888 49.449636 3.49080548 46.18749 2.70931134 26.97722389c1.9798584.20709228 6.25219726.93200683 6.25219726 3.36566162 0 .7767334.57312012 1.34631347 1.30249024 1.34631347 1.35473633.05175782 2.70935058.31066895 3.9597168.82843018 2.44885253.98382568 3.64709472 2.6408081 3.64709472 5.1262207 0 .77667237.57312012 1.34625244 1.3026123 1.34625244.26049805 0 5.5748291.20715333 5.99169923 10.97729493z"/>
      <path fill="rgb(0,119,41)" fill-rule="evenodd" d="M30.58361829 47.8444303c-.52101564 0-1.04203129-.31067811-1.25043755-.82847498-.26050782-.67313592.05210157-1.44983122.7294219-1.70872965 2.60507822-1.1391531 5.00175019-2.6925437 7.08581276-4.6083921-.36471095-.98381404-.5731172-1.96762808-.62521877-3.00322181 0-.72491561.5731172-1.34627185 1.35464067-1.34627185s1.35464068.56957655 1.35464068 1.34627185c0 .31067812.05210156.62135624.10420312.98381404 2.03196102-2.01940777 3.90761733-4.24593429 5.5748674-6.57602018.26050781-.3624578.67732033-.56957655 1.09413284-.56957655.26050783 0 .52101565.05177968.7294219.20711874.62521878.4142375.78152347 1.24271248.36471096 1.81228903-.98992973 1.34627185-1.97985945 2.64076401-3.0739923 3.88347649.20840626-.0517797.36471095-.10355938.5731172-.20711875.1563047-.10355937.36471096-.15533906.57311721-.15533906.52101565 0 .98992973.25889843 1.19833599.72491561.15630469.31067812.20840625.67313593.05210156 1.03559373-.1563047.3624578-.36471095.62135624-.67732034.7766953-.67732033.31067812-1.40674224.51779686-2.13616414.51779686-.62521877 0-1.25043754-.10355937-1.82355475-.31067812-1.25043754 1.34627185-2.60507822 2.58898433-4.06392202 3.72813743.78152346 0 1.35464067.56957655 1.35464067 1.34627185s-.5731172 1.34627185-1.35464067 1.34627185h-.10420313c-.8857266 0-1.77145319-.25889843-2.55297665-.67313593-1.30253911.88025467-2.65717979 1.60517028-4.11602359 2.22652652 0 .05177969-.20840626.05177969-.36471095.05177969z"/>
      <path fill="rgb(0,119,41)" fill-rule="evenodd" d="M31.41724332 12.32356538c-.5731172 0-1.09413285-.3624578-1.25043755-.88025467-.36471095-.88025467-1.14623441-1.65694997-2.08406257-2.01940777-.52101564-.20711875-1.04203129-.31067812-1.56304693-.31067812-1.56304693 0-3.02189074.93203436-3.6471095 2.38186558-.1563047.51779686-.67732035.82847498-1.25043755.82847498-.1563047 0-.31260939 0-.46891408-.05177968-.67732034-.25889844-1.0420313-.98381405-.83362503-1.70872966.67732033-1.65694997 1.97985944-2.95144213 3.6471095-3.62457805.78152347-.31067812 1.66725006-.46601718 2.5008751-.46601718 2.70928134 0 5.1059533 1.60517028 6.14798459 4.09059523.26050782.72491561-.10420313 1.44983122-.78152347 1.70872966-.15630469.05177968-.26050782.05177968-.41681251.05177968z"/>
      <path fill="rgb(0,119,41)" fill-rule="evenodd" d="M42.77538435 20.40119647c-.5731172 0-1.09413285-.3624578-1.25043754-.88025467-.36471095-.88025467-1.14623442-1.65694996-2.08406258-2.01940777-.52101564-.20711875-1.04203128-.31067812-1.56304693-.31067812-1.56304693 0-3.02189073.93203436-3.6471095 2.38186558-.1563047.51779686-.67732034.82847498-1.25043755.82847498-.1563047 0-.31260939 0-.46891408-.05177968-.31260939-.10355938-.62521877-.3624578-.78152346-.67313593-.1563047-.31067812-.1563047-.67313592-.05210157-1.03559373.67732034-1.65694996 1.97985945-2.95144213 3.6471095-3.62457805.78152347-.31067812 1.66725007-.46601718 2.5008751-.46601718 2.70928135 0 5.1059533 1.60517028 6.1479846 4.09059523.10420312.3624578.10420312.72491561-.05210157 1.03559373-.1563047.31067812-.36471095.51779687-.67732034.67313593-.15630469.05177968-.31260938.05177968-.46891408.05177968z"/>
      <path fill="rgb(0,119,41)" fill-rule="evenodd" d="M38.71146233 27.70213227c-.5731172 0-1.09413285-.3624578-1.25043754-.88025467-.36471095-.88025467-1.14623442-1.65694997-2.08406258-2.01940778-.52101564-.20711874-1.04203129-.31067811-1.56304693-.31067811-1.56304693 0-3.02189073.93203435-3.6471095 2.38186557-.1563047.51779687-.67732034.82847499-1.25043755.82847499-.1563047 0-.31260939 0-.46891408-.05177969-.67732034-.25889843-1.04203129-.98381404-.83362503-1.70872965.67732034-1.65694997 1.97985945-2.95144213 3.6471095-3.62457806.78152347-.31067812 1.66725007-.46601717 2.5008751-.46601717 2.70928134 0 5.1059533 1.60517028 6.1479846 4.09059523.26050781.7249156-.10420314 1.44983122-.78152347 1.70872965-.10420313 0-.26050782.05177969-.41681252.05177969z"/>
      <path fill="rgb(0,119,41)" fill-rule="evenodd" d="M21.62214922 34.95128837c-.1563047 0-.31260939 0-.46891408-.05177968-.67732034-.25889843-1.0420313-.98381404-.83362503-1.70872966.67732033-1.65694996 1.97985944-2.95144212 3.6471095-3.62457805.78152347-.31067812 1.66725006-.46601718 2.5008751-.46601718 2.70928134 0 5.1059533 1.60517028 6.14798459 4.09059523.26050782.72491562-.10420313 1.44983123-.78152347 1.70872966-.15630469.05177968-.31260938.05177968-.46891408.05177968-.5731172 0-1.09413285-.3624578-1.25043754-.88025467-.36471095-.88025467-1.14623442-1.65694996-2.08406258-2.01940777-.52101564-.20711874-1.04203128-.31067812-1.56304693-.31067812-1.56304693 0-3.02189073.93203436-3.6471095 2.38186558-.10420313.46601718-.62521878.82847498-1.19833598.82847498z"/>
      <path fill="rgb(0,119,41)" fill-rule="evenodd" d="M20.00700072 25.268487c-.5731172 0-1.09413285-.3624578-1.25043754-.88025467-.36471096-.88025467-1.14623442-1.65694996-2.08406258-2.01940777-.52101564-.20711875-1.04203129-.31067812-1.56304693-.31067812-1.56304693 0-3.02189073.93203436-3.6471095 2.38186558-.1563047.51779686-.67732034.82847498-1.25043755.82847498-.1563047 0-.31260939 0-.46891408-.05177968-.67732034-.25889844-1.04203129-.98381405-.83362503-1.70872966 1.04203129-2.48542495 3.43870325-4.09059523 6.09588303-4.09059523.26050782 0 .52101564 0 .78152347.05177969.7294219-1.24271248 1.87565631-2.22652652 3.23029699-2.79610307.78152346-.31067812 1.66725006-.46601718 2.50087509-.46601718 2.70928135 0 5.1059533 1.60517028 6.1479846 4.09059523.10420312.3624578.10420312.72491561-.05210157 1.03559373-.1563047.31067812-.41681252.56957655-.78152347.67313592-.15630469.0517797-.31260938.0517797-.46891408.0517797-.5731172 0-1.09413285-.36245781-1.25043754-.88025468-.62521877-1.39805153-2.03196101-2.3300859-3.59500794-2.3300859-1.25043755 0-2.39667196.56957656-3.12609387 1.50161092 1.25043755.7249156 2.24036727 1.81228902 2.76138292 3.15856087.26050782.72491561-.10420313 1.44983122-.83362503 1.70872966 0 0-.1563047.05177968-.31260939.05177968z"/>
    </g>
  </g>
</svg>
