<svg xmlns="http://www.w3.org/2000/svg" xmlns:xlink="http://www.w3.org/1999/xlink" width="30.295" height="39.273" viewBox="0 0 30.295 39.273">
  <defs>
    <rect id="rect-1" width="30.295" height="39.273" x="0" y="0"/>
    <mask id="mask-2" maskContentUnits="userSpaceOnUse" maskUnits="userSpaceOnUse">
      <rect width="30.295" height="39.273" x="0" y="0" fill="black"/>
      <use fill="white" xlink:href="#rect-1"/>
    </mask>
  </defs>
  <g>
    <use fill="none" xlink:href="#rect-1"/>
    <g mask="url(#mask-2)">
      <path fill="rgb(0,119,41)" fill-rule="evenodd" d="M14.45212068 39.27260643h-.18293824l-1.86597001-.36229342c-.47563941-.07245868-.84151589-.54344013-.80492824-1.01442157l.98786648-9.99929831v-.07245869c.18293823-1.1231096-.36587648-2.24621918-1.3903306-2.75342997-1.09762942-.65212815-1.82938236-1.7390084-2.04890825-2.97080602-.10976294-.72458683-.03658765-1.48540301.21952589-2.1737605-3.25630061-1.66654972-4.57345592-5.61554797-2.89042414-8.83995938 1.02445412-1.9926138 3.00018708-3.33309944 5.2686212-3.5504755l.03658766-.28983473c.32928882-1.84769642 1.28056765-3.58670483 2.67089825-4.89096113-.65857765-.32606407-1.3903306-.47098144-2.12208354-.47098144-3.14653767 0-5.70767298 2.93457668-5.70767298 6.55751085 0 .28983473.03658765.61589881.0731753.90573354.07317529.50721079-.29270118.97819223-.80492825 1.05065091-2.52454766.39852276-4.28075473 2.82588866-3.8782906 5.36194258.32928882 2.10130182 2.04890824 3.69539285 4.17099178 3.9127689.29270118.03622935.58540236.21737606.73175295.47098145.14635059.25360539.14635059.57966946 0 .8695042-.29270118.57966947-.32928883 1.23179762-.10976294 1.84769643.25611353.65212815.76834059 1.15933893 1.3903306 1.37671498 1.86597.57966947 3.14653766 2.31867787 3.14653766 4.23883298 0 .50721079-.43905177.94196289-.95127883.94196289-.51222706 0-.95127883-.4347521-.95127883-.94196289-.03658765-1.12310959-.80492824-2.13753116-1.90255766-2.46359523-1.20739236-.4347521-2.12208354-1.34048565-2.59772296-2.53605392-.25611353-.6883575-.32928882-1.44917367-.21952588-2.1737605-3.43923884-.9419629-5.4881471-4.6011264-4.46369297-8.07914321.62199-2.1737605 2.30502178-3.84031022 4.50028062-4.49243838v-.28983473C4.75639415 3.80408088 8.15904535 0 12.33003714 0c1.35374294 0 2.67089825.39852276 3.80511531 1.1231096C17.5620707.32606407 19.24510247.03622933 20.8915466.32606407c2.0854959.36229341 3.87829061 1.66654971 4.93933238 3.4780168 1.09762942 1.88392577 1.4635059 4.13014496.98786648 6.26767612 0 .07245868 0 .1811467-.0731753.28983473 3.25630061 1.70277906 4.46369297 5.68800665 2.74407355 8.87618872-1.06104177 1.95638446-3.03677472 3.26064076-5.2686212 3.4780168 0 .76081619-.21952589 1.48540302-.62199001 2.10130183-.65857765 1.0506509-1.71961942 1.77523774-2.96359943 1.9926138-1.17080471.10868802-2.12208354.94196288-2.37819707 2.06507247v.07245869l-.73175295 2.49982457c-.14635059.50721079-.65857765.79704552-1.17080471.65212816-.51222707-.14491737-.80492824-.65212816-.62199-1.15933894l.73175294-2.46359524c.40246412-1.88392577 1.97573295-3.2968701 3.91487826-3.51424614.6951653-.10868803 1.3171553-.50721079 1.68303177-1.1231096.32928883-.54344012.43905177-1.19556827.25611353-1.81146708-.07317529-.28983474 0-.61589881.18293824-.83327486.18293824-.21737605.47563942-.36229342.80492824-.32606408 2.59772296.21737605 4.90274474-1.70277906 5.12227062-4.27506232.18293824-2.10130182-1.09762942-4.09391562-3.10995002-4.81850245-.47563941-.1811467-.73175294-.6883575-.58540235-1.15933894.10976294-.28983473.18293823-.57966946.21952588-.8695042.36587647-1.66654972.0731753-3.44178746-.80492824-4.92719047-1.35374295-2.46359524-4.42710532-3.40555812-6.91506534-2.06507248-.29270118.14491737-.58540235.36229342-.84151589.57966947-1.35374295 1.08688025-2.26843413 2.6085126-2.59772295 4.27506232-.03658765.28983474-.0731753.61589881-.10976295.90573354-.03658764.50721079-.47563941.90573355-.98786647.8695042-2.6343106-.10868802-4.82956944 1.92015512-4.93933239 4.49243838-.07317529 2.13753116 1.28056766 4.05768627 3.3294759 4.67358508.29270119.07245868.54881472.32606408.62199001.61589881.10976294.28983473.03658765.61589881-.10976294.83327486-.40246412.50721078-.58540236 1.15933894-.47563942 1.81146709.10976295.68835749.51222707 1.26802696 1.09762942 1.63032037 1.71961943.90573355 2.6343106 2.78965932 2.30502178 4.70981443l-.87810353 9.12979411.21952588.03622934c.47563942-1.15933893 1.35374295-2.862118 2.7074859-3.40555812.62199-.28983473 1.35374295-.2536054 1.9391453.03622934.51222707.14491737.7683406.6883575.62199001 1.19556828-.14635059.50721078-.6951653.76081618-1.20739236.6158988l-.21952588-.10868802c-.10976295-.07245868-.25611353-.07245868-.36587648 0-.62199.2536054-1.42691824 1.52163236-1.9391453 3.0432647-.10976294.32606408-.47563942.57966948-.95127883.57966948z"/>
      <path fill="rgb(0,119,41)" fill-rule="evenodd" d="M16.02538951 26.19381406h-.18293824c-.51222706-.10868802-.84151588-.57966946-.76834059-1.08688025l1.02445413-5.18079586c-.10976295-.03622934-.21952589-.10868803-.29270118-.18114671l-5.01250768-4.99964916c-.36587647-.36229342-.36587647-.94196288 0-1.34048564.36587647-.36229342.95127883-.36229342 1.35374295 0l4.46369297 4.347521.65857765-3.33309943-2.85383649-3.07949405c-.36587647-.39852276-.32928882-.97819223.0731753-1.34048564.40246412-.36229342.98786647-.32606408 1.35374294.07245868l1.93914531 2.06507248.36587647-1.81146709c.0731753-.50721078.51222707-.8695042 1.06104178-.83327486.51222706.07245868.87810353.50721079.84151588 1.05065091 0 .03622934 0 .10868803-.03658764.14491737l-.36587648 1.81146708 2.56113531-1.19556827c.43905177-.2536054 1.02445413-.10868803 1.28056766.32606407.25611353.4347521.10976294 1.01442157-.32928883 1.26802696-.03658765.03622934-.10976294.07245869-.14635059.07245869l-3.80511531 1.77523774-2.0854959 10.6876558c-.0731753.4347521-.47563941.76081618-.91469118.76081618h-.18293824z"/>
    </g>
  </g>
</svg>
